<?xml version="1.0" encoding="utf-8"?>
<!-- Generator: Adobe Illustrator 27.5.0, SVG Export Plug-In . SVG Version: 6.00 Build 0)  -->
<svg version="1.1" id="Layer_1" xmlns="http://www.w3.org/2000/svg" xmlns:xlink="http://www.w3.org/1999/xlink" x="0px" y="0px"
	 viewBox="0 0 259.368 282.51" style="enable-background:new 0 0 259.368 282.51;" xml:space="preserve">
<g>
	<g>
		<g>
			<rect x="26.348" y="130.42" style="fill:#C9914C;" width="13.681" height="144.745"/>
			<path style="fill:#9F6031;" d="M40.029,275.448H26.348c-0.156,0-0.282-0.127-0.282-0.282V130.42c0-0.156,0.126-0.283,0.282-0.283
				h13.681c0.156,0,0.282,0.127,0.282,0.283v144.745C40.312,275.321,40.185,275.448,40.029,275.448z M26.63,274.883h13.116v-144.18
				H26.63V274.883z"/>
		</g>
		<g>
			<polygon style="fill:#AF773A;" points="40.029,275.165 43.762,267.043 43.762,122.299 40.029,130.42 			"/>
			<path style="fill:#9F6031;" d="M40.029,275.448c-0.02,0-0.04-0.002-0.06-0.007c-0.13-0.029-0.222-0.143-0.222-0.276V130.42
				c0-0.041,0.009-0.081,0.026-0.118l3.733-8.121c0.056-0.12,0.189-0.184,0.317-0.158c0.13,0.029,0.222,0.144,0.222,0.276v144.745
				c0,0.041-0.009,0.081-0.026,0.118l-3.733,8.121C40.239,275.385,40.138,275.448,40.029,275.448z M40.312,130.482v143.392
				l3.168-6.892V123.59L40.312,130.482z"/>
		</g>
		<rect x="28.589" y="132.372" style="opacity:0.38;fill:#EBE6AC;" width="5.798" height="140.84"/>
	</g>
	<g>
		<g>
			
				<rect x="217.782" y="130.42" transform="matrix(-1 -1.224647e-16 1.224647e-16 -1 449.2451 405.5851)" style="fill:#C9914C;" width="13.681" height="144.745"/>
			<path style="fill:#9F6031;" d="M231.463,275.448h-13.681c-0.156,0-0.282-0.127-0.282-0.282V130.42
				c0-0.156,0.126-0.283,0.282-0.283h13.681c0.156,0,0.283,0.127,0.283,0.283v144.745
				C231.745,275.321,231.619,275.448,231.463,275.448z M218.064,274.883h13.116v-144.18h-13.116V274.883z"/>
		</g>
		<g>
			<polygon style="fill:#AF773A;" points="217.782,275.165 214.049,267.043 214.049,122.299 217.782,130.42 			"/>
			<path style="fill:#9F6031;" d="M217.782,275.448c-0.109,0-0.21-0.063-0.257-0.164l-3.733-8.121
				c-0.017-0.037-0.026-0.077-0.026-0.118V122.299c0-0.132,0.093-0.247,0.222-0.276c0.129-0.028,0.261,0.038,0.317,0.158
				l3.733,8.121c0.017,0.037,0.026,0.077,0.026,0.118v144.745c0,0.132-0.093,0.247-0.222,0.276
				C217.822,275.445,217.802,275.448,217.782,275.448z M214.331,266.982l3.168,6.892V130.482l-3.168-6.892V266.982z"/>
		</g>
		
			<rect x="223.423" y="132.372" transform="matrix(-1 -1.224647e-16 1.224647e-16 -1 452.6447 405.5851)" style="opacity:0.38;fill:#EBE6AC;" width="5.798" height="140.84"/>
	</g>
	<g>
		<g>
			<g>
				<g>
					<g>
						<path style="fill:#C9914C;" d="M251.492,229.149c-0.013,2.527-2.073,4.571-4.602,4.56l-235.567-1.88
							c-2.529-0.012-4.57-2.073-4.557-4.604l1.11-215.321c0.012-2.523,2.075-4.571,4.603-4.559l235.566,1.876
							c2.53,0.016,4.569,2.083,4.555,4.606L251.492,229.149z"/>
						<path style="fill:#9F6031;" d="M246.912,233.99c-0.008,0-0.015,0-0.023,0l-235.568-1.879
							c-2.681-0.014-4.851-2.208-4.837-4.889l1.11-215.32c0.013-2.674,2.193-4.84,4.863-4.84c0.008,0,0.016,0,0.024,0l235.567,1.876
							c2.68,0.018,4.849,2.211,4.836,4.89l-1.109,215.322C251.761,231.825,249.582,233.99,246.912,233.99z M12.457,7.628
							c-2.359,0-4.286,1.914-4.298,4.277l-1.11,215.32c-0.012,2.371,1.906,4.309,4.276,4.322l235.567,1.879c0.007,0,0.014,0,0.021,0
							c2.359,0,4.284-1.914,4.296-4.277l1.109-215.322c0.013-2.369-1.905-4.307-4.275-4.323L12.478,7.628
							C12.471,7.628,12.464,7.628,12.457,7.628z"/>
					</g>
					<polygon style="fill:#D3CAC7;" points="241.485,222.964 16.839,221.144 17.892,17.046 242.537,18.867 					"/>
					<polygon style="fill:#FFFFFF;" points="237.492,217.383 20.891,215.604 21.885,22.629 238.487,24.41 					"/>
					<path style="opacity:0.5;fill:#E8E8E8;" d="M237.492,217.383l-216.602-1.779l0.994-192.975c0,0-15.119,170.754,108.476,170.754
						S238.487,24.41,238.487,24.41L237.492,217.383z"/>
					<g>
						<polygon style="fill:#9F6031;" points="17.781,17.162 9.185,8.732 9.413,8.499 18.004,16.927 17.781,17.162 						"/>
					</g>
					<g>
						<polygon style="fill:#9F6031;" points="7.844,229.373 7.635,229.129 16.732,221.25 16.946,221.492 7.844,229.373 						"/>
					</g>
					<g>
						<polygon style="fill:#9F6031;" points="250.53,231.895 241.372,223.078 241.595,222.846 250.755,231.663 250.53,231.895 
													"/>
					</g>
					<g>
						<polygon style="fill:#9F6031;" points="242.644,18.989 242.429,18.749 251.349,10.663 251.564,10.9 242.644,18.989 						"/>
					</g>
				</g>
			</g>
			<polygon style="opacity:0.38;fill:#EBE6AC;" points="13.403,8.927 247.319,10.795 243.41,14.805 17.912,12.981 			"/>
			<path style="opacity:0.38;fill:#EBE6AC;" d="M12.276,227.518l232.374,1.86c-0.001,0.004-3.867-4.05-3.867-4.05L16.827,223.51
				L12.276,227.518z"/>
			<polygon style="opacity:0.38;fill:#EBE6AC;" points="13.576,16.546 9.277,12.81 8.182,225.483 12.527,220.287 			"/>
			<polygon style="opacity:0.38;fill:#EBE6AC;" points="244.817,19.539 249.15,15.846 248.063,226.976 243.775,221.74 			"/>
		</g>
	</g>
</g>
</svg>
