<?xml version="1.0" encoding="utf-8"?>
<!-- Generator: Adobe Illustrator 27.5.0, SVG Export Plug-In . SVG Version: 6.00 Build 0)  -->
<svg version="1.1" xmlns="http://www.w3.org/2000/svg" xmlns:xlink="http://www.w3.org/1999/xlink" x="0px" y="0px"
	 viewBox="0 0 500 500" style="enable-background:new 0 0 500 500;" xml:space="preserve">
<g id="BACKGROUND">
	<rect style="fill:#F1F3FF;" width="500" height="500"/>
</g>
<g id="OBJECT">
	<g>
		<g>
			<g>
				<path style="fill:#E7ECFF;" d="M98.139,456.502c-28.781-44.188-58.158-89.804-68.296-141.555
					c-10.139-51.75,3.458-111.774,46.6-142.1c34.803-24.464,82.311-25.954,115.807-52.178
					c14.352-11.237,25.125-26.286,36.603-40.446c11.478-14.16,24.351-27.987,41.024-35.353c16.673-7.366,38.017-6.814,51.271,5.7
					c11.531,10.888,14.576,27.916,15.488,43.749c0.912,15.833,0.458,32.333,7.165,46.704c13.807,29.585,50.844,38.275,77.682,56.866
					c42.344,29.332,59.026,86.964,49.073,137.505c-9.953,50.541-42.578,94.202-81.472,127.975L98.139,456.502z"/>
				<path style="fill:#E7ECFF;" d="M192.757,89.795c-5.191,2.296-10.949,3.845-16.532,2.824
					c-5.583-1.021-10.872-5.131-11.887-10.715c-1.201-6.609,3.521-12.685,7.939-17.745c5.239-6.001,10.478-12.001,15.717-18.002
					c4.018-4.602,8.138-9.289,13.428-12.344c5.29-3.055,12.059-4.238,17.522-1.503c12.139,6.078,6.471,22.622,1.697,31.455
					C214.492,75.14,204.608,84.552,192.757,89.795z"/>
				<path style="fill:#E7ECFF;" d="M397.215,165.737c5.946,4.012,12.756,7.325,19.927,7.151c7.171-0.175,14.611-4.733,16.136-11.742
					c1.836-8.435-4.874-16.03-10.476-22.598c-11.334-13.288-20.05-28.8-25.507-45.391c-3.162-9.616-6.495-21.024-16.017-24.458
					c-18.189-6.561-21.488,15.955-20.606,28.352c1.248,17.546,5.651,33.9,15.943,48.415
					C382.216,153.366,389.18,160.315,397.215,165.737z"/>
				<path style="fill:#E7ECFF;" d="M459.998,199.558c3.76-1.732,6.572-5.388,7.276-9.468c2.026-11.73-14.129-21.092-22.258-11.514
					C436.329,188.81,447.248,205.43,459.998,199.558z"/>
			</g>
			<g>
				<path style="fill:#DAE2FF;" d="M437.9,341.976c-20.931-3.138-39.209,15.756-60.323,17.228
					c-23.771,1.656-42.98-18.626-56.241-38.424c-13.261-19.797-26.317-42.468-48.806-50.345
					c-26.421-9.254-54.869,5.738-77.488,22.233c-22.619,16.495-45.985,35.925-73.968,36.723
					c-11.883,0.339-23.549-2.808-35.305-4.579c-11.755-1.771-24.381-2.027-34.851,3.603c-6.098,3.279-11.074,9.103-13.286,15.569
					c13.563,40.101,37.228,76.778,60.507,112.519l290.944,6.868c31.383-27.251,58.675-60.942,73.278-99.488
					c-0.1-0.38-0.189-0.763-0.305-1.139C458.754,352.044,448.974,343.636,437.9,341.976z"/>
				<path style="fill:#DAE2FF;" d="M98.496,315.701l-13.043-71.974c-1.843-10.173-16.429-10.173-18.272,0l-13.043,71.974
					c-2.011,11.099,6.517,21.311,17.796,21.311H80.7C91.98,337.012,100.507,326.8,98.496,315.701z"/>
				<path style="fill:#DAE2FF;" d="M127.273,318.882l-9.971-55.023c-1.409-7.777-12.56-7.777-13.969,0l-9.971,55.023
					c-1.538,8.485,4.982,16.292,13.605,16.292h6.701C122.291,335.174,128.81,327.367,127.273,318.882z"/>
				<path style="fill:#DAE2FF;" d="M170.12,311.883l-15.22-83.988c-2.151-11.871-19.172-11.871-21.323,0l-15.22,83.988
					c-2.347,12.952,7.604,24.869,20.767,24.869h10.229C162.516,336.752,172.467,324.835,170.12,311.883z"/>
				<path style="fill:#DAE2FF;" d="M385.204,352.716l-7.97-43.984c-1.127-6.217-10.04-6.217-11.167,0l-7.97,43.984
					c-1.229,6.783,3.982,13.023,10.875,13.023h5.357C381.221,365.74,386.433,359.499,385.204,352.716z"/>
				<path style="fill:#DAE2FF;" d="M440.764,340.268l-7.971-43.984c-1.127-6.217-10.04-6.217-11.167,0l-7.97,43.984
					c-1.229,6.783,3.982,13.023,10.875,13.023h5.357C436.781,353.292,441.993,347.051,440.764,340.268z"/>
				<path style="fill:#DAE2FF;" d="M417.223,346.64l-11.854-65.417c-1.676-9.246-14.932-9.246-16.608,0l-11.855,65.417
					c-1.828,10.088,5.923,19.37,16.175,19.37h7.967C411.3,366.009,419.051,356.728,417.223,346.64z"/>
			</g>
			<path style="fill:#CDD5FF;" d="M85.667,466.861c-5.881-7.994-13.162-17.782-16.943-26.957
				c-3.782-9.175-5.246-19.687-1.946-29.046c3.3-9.359,12.082-17.107,22.005-17.258c8.822-0.134,16.749,5.359,25.459,6.763
				c12.762,2.057,25.307-4.901,35.049-13.398c9.742-8.496,17.992-18.815,28.871-25.797c10.879-6.982,25.812-9.954,36.482-2.658
				c9.401,6.428,12.663,18.511,15.832,29.449c3.169,10.939,7.997,22.931,18.521,27.282c11.939,4.936,25.107-2.235,36.257-8.761
				c11.15-6.526,25.261-12.658,36.345-6.02c9.809,5.874,12.775,19.54,22.615,25.362c9.179,5.431,20.973,2.139,30.563-2.528
				c9.59-4.667,19.172-10.739,29.836-10.588c11.888,0.168,23.079,9.211,25.738,20.799c2.659,11.588-5.06,28.022-15.686,33.356
				H85.667z"/>
			<g>
				<g>
					<path style="fill:#B5C0FB;" d="M118.8,381.354c4.958,7.603,9.828,16.658,13.775,26.106c3.971,9.438,7.01,19.247,8.939,28.109
						c1.935,8.87,2.682,16.796,2.724,22.473c-0.064,5.706-0.777,9.164-2.071,9.368c-1.324,0.211-3.106-2.824-5.252-7.865
						c-2.254-5.024-4.923-12.056-8.339-19.848c-3.413-7.792-7.487-16.355-11.978-24.628c-4.472-8.284-9.352-16.266-13.871-23.201
						c-9.168-13.777-14.602-21.176-16.656-26.168c-2.163-4.895-1.071-7.252,0.842-9.086c1.914-1.835,4.251-2.846,9.226-0.026
						c1.262,0.69,2.621,1.679,4.17,2.964c1.53,1.299,3.344,2.818,5.191,4.828c1.867,1.994,4.019,4.281,6.192,7.125
						c1.097,1.413,2.295,2.896,3.465,4.545C116.319,377.705,117.532,379.472,118.8,381.354z"/>
					<path style="fill:#A8B6FE;" d="M117.631,379.909c0.026-0.148-0.073-0.294-0.22-0.326c-0.147-0.032-0.287,0.062-0.313,0.209
						c-0.685,4.141-1.619,8.295-2.566,12.311l-2.596-4.177c-0.864-1.393-1.82-2.727-2.725-4.093
						c-1.793-2.747-3.751-5.377-5.69-8.021c-0.016-0.076-0.063-0.14-0.13-0.178c-0.952-1.35-2.008-2.621-3.026-3.92
						c0.4-3.409,0.764-6.899,0.95-10.356c0.009-0.149-0.104-0.282-0.254-0.297c-0.149-0.015-0.278,0.095-0.287,0.244
						c-0.106,1.654-0.209,3.28-0.355,4.915l-0.523,4.903c-0.876-1.094-1.727-2.209-2.624-3.286l-2.735-3.195
						c-1.79-2.16-3.714-4.2-5.62-6.256c-0.1-0.108-0.268-0.114-0.375-0.013c-0.107,0.101-0.113,0.27-0.013,0.378
						c5.053,5.278,9.654,10.968,14.106,16.754c-3.599-0.516-7.247-0.872-10.774-1.199c-0.143-0.013-0.273,0.094-0.292,0.238
						c-0.019,0.144,0.081,0.271,0.224,0.283c1.856,0.166,3.73,0.352,5.62,0.56c1.897,0.202,3.799,0.434,5.666,0.726l3.333,4.556
						c1.078,1.542,2.113,3.114,3.171,4.67l1.573,2.344l1.49,2.397c0.981,1.605,2.013,3.18,2.953,4.81
						c-3.993-1.021-8.012-1.885-11.918-2.674c-0.143-0.026-0.284,0.066-0.316,0.205c-0.032,0.139,0.051,0.277,0.191,0.305
						c4.007,0.819,8.174,1.692,12.245,2.772c0.049,0.013,0.096,0.007,0.141-0.006c4.234,7.111,7.901,14.545,11.245,22.108
						c-3.483-1.407-7.099-2.641-10.619-3.805c-0.137-0.045-0.288,0.029-0.339,0.164c-0.051,0.135,0.018,0.281,0.155,0.326
						c1.846,0.608,3.704,1.241,5.575,1.899c1.868,0.66,3.67,1.38,5.526,2.107l1.663,3.862l1.52,3.921
						c0.498,1.31,1.028,2.608,1.5,3.928l1.368,3.976c-2.925-1.421-5.761-2.795-8.74-4.036c-0.134-0.057-0.291,0.003-0.352,0.133
						c-0.061,0.13-0.003,0.282,0.131,0.339l2.333,1.007l2.28,1.06l4.593,2.209c0.831,2.287,1.484,4.631,2.198,6.956
						c0.739,2.318,1.346,4.673,1.953,7.028c-2.126-1.234-4.181-2.442-6.332-3.578c-0.129-0.068-0.291-0.022-0.362,0.104
						c-0.071,0.125-0.023,0.282,0.106,0.35c2.275,1.228,4.504,2.52,6.778,3.852c0.708,2.536,1.231,5.118,1.805,7.686
						c0.611,2.562,1.029,5.162,1.505,7.75c0.026,0.145,0.165,0.242,0.31,0.217c0.145-0.025,0.241-0.163,0.215-0.308
						c-0.395-2.078-0.708-4.171-1.17-6.235l-1.367-6.196c1.251-2.049,2.444-4.127,3.653-6.252c0.074-0.13,0.03-0.297-0.098-0.374
						c-0.128-0.076-0.29-0.033-0.364,0.097c-1.113,1.967-2.236,3.899-3.368,5.796l-0.598-2.287c0.014-0.076-0.007-0.154-0.056-0.215
						c-0.643-2.438-1.24-4.888-2.009-7.29c-0.745-2.408-1.412-4.841-2.274-7.212l2.232-4.64c0.749-1.571,1.463-3.151,2.128-4.736
						c0.059-0.137-0.004-0.3-0.141-0.364s-0.294-0.004-0.352,0.133c-1.251,3.001-2.706,5.996-4.113,8.894
						c-2.14-6.544-4.808-12.897-7.563-19.2c1.357-3.747,2.719-7.627,3.93-11.561c0.043-0.143-0.038-0.299-0.181-0.348
						c-0.143-0.049-0.293,0.027-0.336,0.17c-1.129,3.746-2.449,7.469-3.736,11.057c-3.329-7.293-7.137-14.358-11.244-21.238
						C115.909,388.574,116.919,384.225,117.631,379.909z"/>
				</g>
				<g>
					<path style="fill:#B5C0FB;" d="M172.8,390.824c-2.753,7.372-5.772,15.731-8.558,24.22c-2.8,8.484-5.364,17.095-7.568,24.836
						c-2.205,7.741-3.998,14.614-5.621,19.535c-1.555,4.925-2.972,7.899-4.219,7.807c-1.228-0.09-2.169-3.255-2.741-8.53
						c-0.503-5.265-0.603-12.642,0.064-21.025c0.664-8.378,2.046-17.76,4.108-26.993c2.046-9.236,4.771-18.312,7.702-26.158
						c5.968-15.672,11.133-23.526,14.775-27.309c3.736-3.753,6.108-3.458,8.306-2.306c2.198,1.152,3.792,2.976,3.063,7.99
						C181.464,367.949,178.398,376.122,172.8,390.824z"/>
					<path style="fill:#A8B6FE;" d="M173.236,389.273c0.125-0.053,0.18-0.196,0.123-0.319c-0.057-0.123-0.204-0.179-0.329-0.126
						c-3.552,1.494-7.008,3.107-10.526,4.781c1.022-2.887,2.048-5.772,3.179-8.618c1.073-2.869,2.265-5.69,3.442-8.517
						c0.053-0.049,0.081-0.118,0.079-0.19c0.575-1.431,1.226-2.83,1.849-4.241c3.001-1.153,5.968-2.262,9-3.281
						c0.129-0.044,0.195-0.183,0.148-0.31c-0.047-0.128-0.19-0.195-0.319-0.151l-4.29,1.5l-4.252,1.598l1.61-3.583l1.691-3.545
						c1.103-2.376,2.306-4.702,3.495-7.035c0.063-0.123,0.014-0.273-0.108-0.336c-0.123-0.063-0.272-0.015-0.335,0.108
						c-3.179,6.072-6.016,12.315-8.747,18.597c-1.283-3.176-2.463-6.375-3.661-9.647c-0.048-0.132-0.191-0.197-0.321-0.147
						c-0.129,0.051-0.195,0.199-0.148,0.331c1.263,3.435,2.479,6.776,3.858,10.115c-2.787,6.489-5.234,13.116-7.548,19.786
						c-1.702-3.461-3.316-6.973-4.934-10.568c-0.055-0.127-0.203-0.183-0.331-0.123c-0.128,0.06-0.18,0.214-0.123,0.342
						c1.673,3.702,3.313,7.306,5.093,10.871c0.021,0.043,0.055,0.073,0.092,0.096c-2.514,7.343-4.634,14.816-6.537,22.338
						c-1.866-3.061-3.598-6.155-5.345-9.32c-0.068-0.122-0.219-0.165-0.34-0.094c-0.12,0.07-0.163,0.227-0.096,0.35
						c1.816,3.31,3.66,6.553,5.612,9.75l-0.942,3.83l-0.846,3.852l-0.833,3.855l-0.746,3.873c-1.692-2.506-3.419-5.068-5.022-7.653
						c-0.074-0.118-0.228-0.151-0.345-0.073c-0.117,0.077-0.151,0.235-0.077,0.353c1.689,2.726,3.535,5.431,5.311,8.066
						c-0.457,2.236-0.798,4.492-1.179,6.741c-0.397,2.247-0.708,4.507-1.02,6.767c-1.37-1.826-2.775-3.686-4.106-5.561
						c-0.08-0.113-0.236-0.137-0.348-0.054c-0.113,0.083-0.139,0.242-0.059,0.354c1.448,2.015,2.94,4.005,4.415,5.96
						c-0.37,2.442-0.621,4.899-0.904,7.352c-0.307,2.451-0.492,4.913-0.714,7.373c-0.012,0.137,0.089,0.258,0.227,0.269
						c0.137,0.011,0.258-0.09,0.27-0.227c0.185-1.967,0.318-3.938,0.546-5.901l0.671-5.888c1.781-1.378,3.59-2.726,5.378-4.05
						c0.11-0.081,0.131-0.234,0.048-0.343c-0.083-0.109-0.239-0.131-0.349-0.05l-4.989,3.745l0.306-2.187
						c0.039-0.061,0.05-0.136,0.029-0.205c0.33-2.331,0.631-4.667,1.043-6.986c0.396-2.321,0.741-4.651,1.214-6.958
						c2.666-1.797,5.246-3.558,7.953-5.238c0.116-0.073,0.149-0.223,0.074-0.336c-0.075-0.113-0.229-0.146-0.345-0.073
						c-2.568,1.593-5.03,3.256-7.549,4.956c1.15-6.325,2.649-12.58,4.207-18.815c3.292-1.897,6.529-3.733,9.811-5.48
						c0.121-0.064,0.165-0.21,0.099-0.328c-0.066-0.118-0.218-0.162-0.338-0.098c-3.156,1.664-6.236,3.42-9.385,5.227
						c1.895-7.243,4.116-14.398,6.546-21.478C165.948,392.525,169.53,390.83,173.236,389.273z"/>
				</g>
				<g>
					<path style="fill:#B5C0FB;" d="M149.808,388.812c-0.597,15.185-1.348,34.287-1.952,49.634
						c-0.685,15.403-1.484,27.173-3.85,27.43c-2.309,0.254-5.762-11.174-8.177-26.76c-1.201-7.786-2.141-16.595-2.663-25.417
						c-0.53-8.821-0.643-17.652-0.383-25.462c0.569-15.625,2.299-24.175,4.205-28.736c1.951-4.563,4.142-5.165,6.484-4.944
						c2.342,0.22,4.39,1.238,5.519,5.963C150.163,365.25,150.36,373.665,149.808,388.812z"/>
					<path style="fill:#A8B6FE;" d="M149.725,387.263c0.096-0.087,0.101-0.235,0.013-0.329c-0.089-0.094-0.238-0.1-0.334-0.012
						c-2.713,2.465-5.365,4.969-8.036,7.508c0.131-5.805,0.362-11.608,0.675-17.406c0.032-0.061,0.035-0.131,0.01-0.195
						c0.066-1.461,0.17-2.919,0.26-4.379c2.285-2.014,4.563-4.004,6.883-5.966c0.099-0.084,0.11-0.231,0.025-0.329
						c-0.085-0.098-0.234-0.109-0.333-0.025c-2.199,1.861-4.371,3.746-6.533,5.654c0.304-4.956,0.696-9.907,1.144-14.852
						c0.012-0.13-0.084-0.245-0.214-0.257c-0.13-0.012-0.245,0.084-0.256,0.214c-0.607,6.462-1.04,12.94-1.422,19.419
						c-2.164-2.414-4.286-4.854-6.429-7.324c-0.086-0.1-0.235-0.11-0.333-0.023c-0.098,0.087-0.108,0.238-0.021,0.338
						c2.25,2.59,4.465,5.146,6.749,7.676c-0.379,6.678-0.589,13.363-0.736,20.05c-2.535-2.633-5.038-5.302-7.555-8.006
						c-0.089-0.096-0.238-0.102-0.334-0.011c-0.096,0.091-0.099,0.242-0.01,0.339c2.594,2.782,5.159,5.526,7.78,8.233
						c0.031,0.032,0.07,0.05,0.111,0.06c-0.146,7.35-0.1,14.703,0.048,22.052c-2.451-2.332-4.847-4.695-7.259-7.088
						c-0.093-0.093-0.243-0.091-0.334,0.003c-0.091,0.094-0.09,0.246,0.004,0.339c2.519,2.505,5.041,4.977,7.605,7.415
						c0.049,2.491,0.12,4.98,0.22,7.469c0.078,2.49,0.193,4.978,0.319,7.466c-2.124-1.93-4.268-3.882-6.361-5.858
						c-0.096-0.09-0.245-0.084-0.334,0.013c-0.089,0.097-0.083,0.248,0.012,0.338c2.206,2.084,4.48,4.141,6.715,6.174
						c0.22,4.316,0.478,8.631,0.806,12.94l-4.921-4.293c-0.098-0.087-0.247-0.077-0.333,0.022c-0.086,0.099-0.077,0.25,0.02,0.337
						l5.283,4.602c0.346,4.665,0.754,9.326,1.224,13.98c0.013,0.13,0.128,0.225,0.258,0.211c0.13-0.013,0.225-0.129,0.212-0.259
						c-0.384-3.726-0.7-7.458-1.016-11.191l4.178-4.834c0.085-0.098,0.075-0.246-0.024-0.33c-0.099-0.085-0.248-0.074-0.333,0.024
						l-3.874,4.475l-0.153-2.088c0.024-0.065,0.019-0.136-0.014-0.196c-0.339-4.452-0.613-8.909-0.839-13.368
						c2.044-2.247,4.053-4.468,6.129-6.667c0.089-0.095,0.084-0.242-0.012-0.33c-0.096-0.088-0.245-0.082-0.334,0.013
						c-1.968,2.085-3.881,4.189-5.816,6.317c-0.324-6.086-0.485-12.179-0.616-18.271c2.503-2.569,4.99-5.104,7.508-7.605
						c0.092-0.091,0.093-0.239,0-0.329c-0.092-0.091-0.242-0.09-0.334,0.001c-2.416,2.391-4.787,4.813-7.182,7.266
						c-0.115-7.097-0.074-14.195,0.069-21.291C144.14,392.446,146.895,389.833,149.725,387.263z"/>
				</g>
				<g>
					<path style="fill:#B5C0FB;" d="M113.686,421.956c3.666,3.669,7.493,8.122,10.915,12.872c3.432,4.743,6.454,9.775,8.778,14.419
						c2.329,4.646,3.925,8.916,4.806,12.054c0.836,3.165,0.981,5.19,0.295,5.507c-0.699,0.324-2.16-1.079-4.129-3.556
						c-2.017-2.455-4.567-5.977-7.596-9.858c-3.028-3.881-6.498-8.136-10.117-12.218c-3.611-4.089-7.368-8.002-10.761-11.399
						c-6.837-6.736-10.706-10.395-12.405-13.013c-1.742-2.562-1.36-4.004-0.461-5.236s2.124-2.041,5.216-0.966
						C101.263,411.688,106.287,414.664,113.686,421.956z"/>
					<path style="fill:#A8B6FE;" d="M112.864,421.284c-0.003-0.086-0.075-0.156-0.161-0.157c-0.087-0.001-0.154,0.069-0.152,0.155
						c0.087,2.409,0.059,4.849,0.01,7.225c-1.304-1.363-2.612-2.723-3.979-4.023c-1.334-1.334-2.736-2.598-4.129-3.87
						c-0.018-0.041-0.051-0.072-0.094-0.086c-0.692-0.651-1.425-1.256-2.144-1.878c-0.149-1.97-0.322-3.975-0.576-5.948
						c-0.01-0.085-0.088-0.148-0.174-0.14c-0.086,0.008-0.147,0.083-0.136,0.168c0.239,1.873,0.418,3.76,0.557,5.637
						c-1.212-1.065-2.464-2.082-3.728-3.085c-1.244-1.028-2.541-1.987-3.831-2.956c-0.068-0.051-0.163-0.037-0.214,0.031
						c-0.051,0.068-0.037,0.164,0.031,0.215c3.396,2.481,6.615,5.194,9.773,7.967c-2.091,0.113-4.19,0.306-6.229,0.502
						c-0.082,0.008-0.145,0.083-0.139,0.166c0.006,0.083,0.076,0.145,0.159,0.136c2.135-0.201,4.35-0.416,6.529-0.512
						c3.241,2.878,6.291,5.961,9.262,9.112c-2.37-0.086-4.737-0.095-7.043-0.08c-0.084,0.002-0.152,0.07-0.154,0.153
						c-0.001,0.082,0.063,0.151,0.145,0.15c2.367-0.011,4.816-0.012,7.24,0.095c0.029,0.001,0.055-0.008,0.078-0.021
						c3.249,3.483,6.266,7.177,9.145,10.968c-2.142-0.32-4.327-0.544-6.46-0.746c-0.083-0.008-0.158,0.053-0.169,0.136
						c-0.011,0.083,0.048,0.156,0.13,0.164c2.24,0.205,4.51,0.456,6.758,0.793l1.448,1.94l1.387,1.983
						c0.94,1.312,1.828,2.659,2.702,4.016c-1.831-0.382-3.615-0.752-5.45-1.044c-0.083-0.014-0.163,0.041-0.179,0.123
						c-0.016,0.082,0.038,0.159,0.12,0.172c1.937,0.307,3.804,0.709,5.745,1.111c0.782,1.162,1.488,2.371,2.22,3.564
						c0.743,1.187,1.429,2.408,2.115,3.628c-1.363-0.373-2.691-0.743-4.054-1.068c-0.082-0.02-0.165,0.03-0.187,0.11
						c-0.021,0.08,0.028,0.161,0.11,0.181c1.448,0.357,2.883,0.749,4.344,1.154c1.486,2.641,2.88,5.334,4.181,8.07
						c0.037,0.076,0.129,0.108,0.205,0.072c0.077-0.036,0.109-0.128,0.072-0.204c-1.033-2.205-2.168-4.357-3.305-6.51
						c0.39-1.326,0.749-2.658,1.109-4.014c0.022-0.083-0.027-0.169-0.109-0.193c-0.082-0.024-0.166,0.025-0.188,0.108l-1.02,3.718
						l-0.67-1.184c-0.004-0.045-0.026-0.085-0.063-0.111c-1.409-2.536-2.913-5.018-4.483-7.457c0.396-1.909,0.82-3.885,1.131-5.833
						c0.014-0.084-0.043-0.166-0.128-0.183c-0.085-0.017-0.165,0.038-0.178,0.123c-0.294,1.846-0.683,3.714-1.061,5.53
						c-2.122-3.344-4.469-6.538-6.852-9.699c0.27-2.282,0.528-4.626,0.708-6.98c0.006-0.085-0.059-0.162-0.145-0.171
						c-0.086-0.009-0.161,0.053-0.167,0.139c-0.161,2.24-0.415,4.49-0.667,6.673c-2.826-3.645-5.852-7.131-9.001-10.499
						C112.911,426.351,112.956,423.795,112.864,421.284z"/>
				</g>
			</g>
			<g>
				<g>
					<path style="fill:#B5C0FB;" d="M313.107,425.667c2.386,3.634,4.839,7.894,7.016,12.298c2.182,4.401,4.085,8.943,5.532,13.066
						c2.889,8.265,3.929,14.794,2.735,15.22c-1.243,0.45-4.46-5.175-8.757-12.431c-2.154-3.629-4.577-7.673-7.066-11.65
						c-2.484-3.98-5.032-7.891-7.301-11.347c-4.571-6.886-7.009-10.771-7.882-13.295c-0.904-2.499-0.276-3.595,0.73-4.411
						c1.006-0.816,2.192-1.211,4.487,0.309C304.86,414.968,308.294,418.417,313.107,425.667z"/>
					<path style="fill:#A8B6FE;" d="M312.548,424.974c0.013-0.071-0.034-0.142-0.105-0.157c-0.071-0.015-0.14,0.031-0.153,0.102
						c-0.366,2.007-0.798,4.017-1.234,5.99c-1.71-2.708-3.496-5.367-5.345-7.982c-0.007-0.037-0.029-0.069-0.062-0.088
						c-0.456-0.665-0.94-1.31-1.414-1.963c0.259-1.658,0.51-3.337,0.714-5.01c0.009-0.072-0.042-0.139-0.114-0.149
						c-0.072-0.01-0.137,0.039-0.147,0.111c-0.194,1.587-0.422,3.174-0.67,4.75c-1.608-2.217-3.281-4.387-4.993-6.524
						c-0.045-0.056-0.126-0.065-0.183-0.02c-0.056,0.045-0.065,0.127-0.021,0.183c2.25,2.775,4.374,5.648,6.458,8.548
						c-1.755-0.299-3.524-0.557-5.261-0.806c-0.07-0.01-0.136,0.039-0.148,0.11s0.036,0.135,0.106,0.145
						c1.819,0.263,3.684,0.528,5.514,0.852c2.138,2.996,4.149,6.081,6.11,9.194c-1.962-0.455-3.93-0.868-5.868-1.261
						c-0.07-0.013-0.139,0.032-0.154,0.101c-0.015,0.069,0.028,0.137,0.097,0.151c1.991,0.406,4.024,0.827,6.033,1.303
						c0.024,0.006,0.047,0.002,0.069-0.005c2.145,3.431,4.14,6.952,6.053,10.516c-1.762-0.547-3.557-1.045-5.324-1.526
						c-0.069-0.019-0.14,0.022-0.161,0.09c-0.02,0.068,0.019,0.139,0.087,0.157c1.855,0.501,3.723,1.03,5.57,1.604
						c0.649,1.207,1.28,2.424,1.888,3.653c0.626,1.219,1.221,2.454,1.808,3.693c-1.497-0.527-2.968-1.043-4.474-1.52
						c-0.068-0.022-0.142,0.015-0.165,0.082s0.013,0.139,0.081,0.161c1.589,0.503,3.132,1.053,4.716,1.609
						c1.016,2.15,2.002,4.315,2.928,6.506c-1.114-0.443-2.209-0.881-3.325-1.298c-0.067-0.025-0.143,0.008-0.168,0.075
						c-0.026,0.066,0.008,0.14,0.075,0.165l3.564,1.396c1.011,2.367,1.968,4.758,2.873,7.168c0.026,0.067,0.101,0.101,0.168,0.076
						s0.101-0.1,0.076-0.168c-0.719-1.937-1.497-3.851-2.275-5.764l1.309-3.281c0.026-0.067-0.007-0.144-0.074-0.172
						c-0.067-0.027-0.143,0.006-0.169,0.073l-1.208,3.039l-0.455-1.061c0.001-0.038-0.014-0.074-0.043-0.1
						c-0.959-2.268-1.973-4.513-3.026-6.738c0.55-1.566,1.12-3.167,1.626-4.762c0.022-0.069-0.016-0.144-0.084-0.167
						c-0.069-0.024-0.142,0.013-0.165,0.082c-0.479,1.511-1.012,3.027-1.536,4.515c-1.425-3.045-2.984-6.023-4.567-8.988
						c0.543-1.881,1.085-3.797,1.585-5.725c0.018-0.07-0.025-0.143-0.095-0.163c-0.07-0.02-0.142,0.022-0.16,0.092
						c-0.471,1.839-0.994,3.675-1.51,5.474c-1.874-3.437-3.871-6.806-5.948-10.123C311.707,429.167,312.167,427.066,312.548,424.974
						z"/>
				</g>
				<g>
					<path style="fill:#B5C0FB;" d="M324.991,401.611c2.305,6.116,4.536,13.16,6.362,20.319c1.834,7.157,3.261,14.424,4.174,20.938
						c1.819,13.048,1.575,23.002-0.322,23.308c-1.962,0.323-5.199-8.917-9.416-20.964c-2.115-6.027-4.475-12.764-6.91-19.44
						c-2.428-6.679-4.931-13.294-7.14-19.157c-4.467-11.701-6.69-18.289-7.098-22.308c-0.453-3.996,0.855-5.38,2.62-6.222
						c1.765-0.842,3.646-1.001,6.475,2.026C316.516,383.154,320.326,389.391,324.991,401.611z"/>
					<path style="fill:#A8B6FE;" d="M324.401,400.41c0.043-0.101-0.002-0.219-0.102-0.265c-0.1-0.046-0.216-0.001-0.259,0.099
						c-1.212,2.827-2.505,5.64-3.794,8.406c-1.636-4.547-3.381-9.056-5.215-13.527c0.003-0.057-0.02-0.112-0.061-0.151
						c-0.448-1.132-0.937-2.246-1.411-3.367c0.947-2.348,1.89-4.726,2.774-7.109c0.038-0.102-0.013-0.218-0.115-0.258
						c-0.102-0.04-0.216,0.01-0.254,0.113c-0.839,2.261-1.72,4.511-2.622,6.743c-0.797-1.907-1.634-3.796-2.482-5.68
						c-0.829-1.893-1.712-3.762-2.587-5.634c-0.046-0.098-0.163-0.141-0.261-0.094s-0.141,0.163-0.094,0.262
						c2.32,4.867,4.456,9.819,6.535,14.793c-2.48-1.035-4.99-2.022-7.464-2.988c-0.1-0.039-0.214,0.011-0.255,0.11
						c-0.041,0.1,0.007,0.212,0.107,0.251c2.59,1.015,5.235,2.047,7.821,3.142c2.128,5.132,4.074,10.337,5.949,15.566
						c-2.744-1.308-5.507-2.565-8.238-3.789c-0.099-0.043-0.215,0-0.26,0.098c-0.045,0.097-0.004,0.212,0.094,0.255
						c2.805,1.261,5.66,2.551,8.468,3.904c0.033,0.016,0.069,0.018,0.103,0.015c2.046,5.754,3.881,11.58,5.602,17.438
						c-2.438-1.352-4.928-2.652-7.39-3.924c-0.095-0.049-0.214-0.012-0.265,0.083c-0.051,0.095-0.015,0.211,0.08,0.26
						c2.584,1.329,5.175,2.696,7.729,4.114c0.585,1.985,1.144,3.977,1.672,5.977c0.553,1.994,1.063,3.999,1.561,6.007
						c-2.056-1.227-4.082-2.434-6.162-3.602c-0.094-0.053-0.214-0.021-0.268,0.072c-0.054,0.092-0.023,0.21,0.071,0.264
						c2.195,1.231,4.32,2.51,6.494,3.805c0.863,3.484,1.684,6.98,2.424,10.493c-1.521-0.978-3.019-1.947-4.55-2.893
						c-0.092-0.057-0.213-0.029-0.271,0.061s-0.03,0.21,0.062,0.267l4.875,3.107c0.812,3.8,1.553,7.615,2.223,11.442
						c0.019,0.107,0.121,0.178,0.228,0.159c0.107-0.019,0.178-0.121,0.159-0.227c-0.529-3.073-1.135-6.131-1.743-9.188l2.889-4.478
						c0.059-0.092,0.032-0.215-0.059-0.275c-0.091-0.06-0.213-0.033-0.271,0.059l-2.671,4.15l-0.367-1.703
						c0.013-0.056,0-0.114-0.034-0.16c-0.767-3.636-1.608-7.257-2.502-10.863c1.284-2.154,2.601-4.346,3.837-6.546
						c0.054-0.095,0.021-0.217-0.074-0.273c-0.094-0.056-0.215-0.023-0.268,0.071c-1.171,2.086-2.41,4.163-3.63,6.208
						c-1.204-4.928-2.592-9.808-4.012-14.677c1.391-2.61,2.789-5.264,4.14-7.944c0.049-0.098,0.009-0.218-0.088-0.269
						c-0.097-0.051-0.216-0.013-0.264,0.085c-1.281,2.559-2.625,5.1-3.951,7.597c-1.696-5.659-3.566-11.264-5.548-16.829
						C321.776,406.293,323.139,403.357,324.401,400.41z"/>
				</g>
				<g>
					<path style="fill:#B5C0FB;" d="M356.128,396.433c-1.397,6.819-2.954,14.524-4.374,22.293
						c-1.43,7.767-2.723,15.599-3.855,22.612c-2.249,14.017-3.839,24.806-6.061,24.864c-2.134,0.065-4.511-10.799-5.088-25.516
						c-0.281-7.345-0.111-15.625,0.575-23.859c0.675-8.234,1.865-16.416,3.332-23.578c3.01-14.322,6.215-21.853,8.781-25.671
						c2.633-3.809,4.732-3.935,6.815-3.289c2.083,0.645,3.749,1.964,3.9,6.434C360.368,375.215,358.99,382.814,356.128,396.433z"/>
					<path style="fill:#A8B6FE;" d="M356.295,395.018c0.101-0.064,0.129-0.196,0.063-0.296c-0.066-0.099-0.202-0.128-0.303-0.064
						c-2.873,1.801-5.667,3.673-8.498,5.592c0.504-2.643,1.012-5.286,1.595-7.913c0.541-2.636,1.169-5.253,1.785-7.872
						c0.039-0.05,0.054-0.114,0.041-0.176c0.298-1.322,0.651-2.631,0.984-3.944c2.429-1.44,4.841-2.847,7.306-4.2
						c0.105-0.058,0.141-0.189,0.081-0.293c-0.06-0.103-0.194-0.14-0.298-0.082c-2.336,1.284-4.64,2.611-6.936,3.976
						c0.555-2.234,1.164-4.453,1.788-6.667c0.598-2.222,1.27-4.423,1.931-6.627c0.035-0.116-0.031-0.238-0.147-0.273
						c-0.116-0.035-0.238,0.03-0.272,0.146c-1.78,5.75-3.307,11.575-4.758,17.415c-1.569-2.566-3.07-5.16-4.591-7.801
						c-0.061-0.106-0.195-0.142-0.299-0.079s-0.14,0.2-0.079,0.306c1.601,2.771,3.159,5.485,4.828,8.177
						c-1.475,6.025-2.702,12.107-3.834,18.203c-1.93-2.785-3.807-5.614-5.694-8.499c-0.066-0.103-0.201-0.13-0.303-0.062
						c-0.102,0.068-0.128,0.208-0.061,0.311c1.948,2.969,3.863,5.875,5.869,8.74c0.024,0.034,0.057,0.056,0.092,0.072
						c-1.223,6.707-2.163,13.462-2.95,20.233c-1.971-2.45-3.853-4.934-5.752-7.467c-0.073-0.098-0.211-0.117-0.307-0.041
						c-0.096,0.075-0.115,0.216-0.041,0.314c1.979,2.65,3.971,5.251,6.032,7.81l-0.382,3.444l-0.314,3.45
						c-0.226,2.299-0.395,4.603-0.549,6.907c-1.741-2.009-3.51-4.053-5.197-6.124c-0.077-0.094-0.215-0.106-0.309-0.027
						s-0.106,0.22-0.029,0.314c1.777,2.184,3.661,4.34,5.49,6.454c-0.159,1.998-0.237,4.001-0.342,6.002
						c-0.117,2.001-0.173,4.004-0.23,6.007c-1.373-1.464-2.772-2.949-4.122-4.45c-0.081-0.09-0.22-0.096-0.309-0.013
						c-0.09,0.083-0.097,0.224-0.016,0.314c1.462,1.611,2.952,3.201,4.428,4.769c-0.124,4.336-0.153,8.675-0.09,13.012
						c0.001,0.121,0.1,0.218,0.221,0.216c0.121-0.002,0.218-0.101,0.217-0.222c-0.063-3.471-0.023-6.943,0.018-10.414
						c1.427-1.37,2.876-2.721,4.312-4.054c0.088-0.082,0.092-0.218,0.009-0.305c-0.083-0.087-0.221-0.092-0.31-0.01l-3.999,3.751
						l0.059-1.939c0.029-0.057,0.031-0.123,0.005-0.182c0.105-4.137,0.308-8.271,0.582-12.4c2.133-1.846,4.21-3.66,6.381-5.43
						c0.093-0.076,0.105-0.212,0.027-0.302c-0.078-0.091-0.216-0.103-0.309-0.026c-2.059,1.677-4.04,3.394-6.057,5.141
						c0.351-5.638,0.947-11.257,1.586-16.868c2.637-2.038,5.241-4.03,7.886-5.964c0.097-0.071,0.118-0.204,0.046-0.299
						c-0.072-0.095-0.209-0.115-0.307-0.044c-2.541,1.847-5.021,3.75-7.544,5.693c0.801-6.53,1.834-13.029,3.018-19.499
						C350.4,398.853,353.297,396.895,356.295,395.018z"/>
				</g>
				<g>
					<path style="fill:#B5C0FB;" d="M372.48,413.996c-2.302,5.129-4.901,10.918-7.508,16.726
						c-2.552,5.852-5.111,11.719-7.395,16.955c-4.549,10.498-8.086,18.523-9.813,18.099c-1.674-0.407-1.195-9.301,1.268-20.822
						c1.235-5.752,2.962-12.144,5.028-18.417c2.06-6.276,4.459-12.43,6.858-17.757c4.845-10.642,8.562-16.011,11.203-18.584
						c2.681-2.558,4.355-2.321,5.891-1.48c1.535,0.842,2.635,2.144,2.024,5.697C379.461,397.988,377.134,403.773,372.48,413.996z"/>
					<path style="fill:#A8B6FE;" d="M372.86,412.911c0.091-0.033,0.136-0.132,0.102-0.222c-0.034-0.09-0.136-0.136-0.226-0.103
						c-2.567,0.918-5.094,1.892-7.651,2.891c1.72-3.965,3.529-7.892,5.408-11.784c0.039-0.033,0.062-0.08,0.063-0.131
						c0.462-0.985,0.957-1.955,1.44-2.93c2.15-0.721,4.284-1.424,6.445-2.087c0.092-0.029,0.143-0.126,0.113-0.217
						c-0.03-0.092-0.129-0.143-0.221-0.114c-2.048,0.629-4.082,1.289-6.115,1.973c1.639-3.313,3.354-6.588,5.115-9.837
						c0.046-0.086,0.014-0.192-0.071-0.239c-0.085-0.046-0.192-0.015-0.238,0.071c-2.322,4.238-4.497,8.556-6.625,12.894
						c-0.793-2.281-1.54-4.569-2.293-6.89c-0.03-0.093-0.129-0.144-0.222-0.112c-0.092,0.032-0.143,0.133-0.113,0.226
						c0.793,2.436,1.567,4.829,2.413,7.225c-2.181,4.477-4.216,9.023-6.194,13.593c-1.01-2.526-1.981-5.073-2.95-7.656
						c-0.034-0.092-0.135-0.137-0.227-0.102c-0.092,0.035-0.137,0.14-0.103,0.232c1.001,2.659,1.99,5.273,3.042,7.876
						c0.012,0.031,0.034,0.054,0.059,0.073c-2.161,5.029-4.152,10.129-6.051,15.262c-1.068-2.284-2.076-4.577-3.087-6.902
						c-0.039-0.09-0.143-0.13-0.232-0.09c-0.089,0.04-0.13,0.146-0.091,0.236c1.053,2.431,2.121,4.835,3.238,7.223
						c-0.645,1.739-1.268,3.485-1.867,5.241c-0.619,1.749-1.203,3.509-1.777,5.272c-0.961-1.907-1.933-3.841-2.85-5.778
						c-0.042-0.088-0.147-0.124-0.235-0.081c-0.088,0.044-0.125,0.15-0.083,0.238c0.966,2.043,2.003,4.085,3.013,6.093
						c-0.996,3.06-1.957,6.132-2.852,9.222c-0.77-1.417-1.553-2.851-2.303-4.287c-0.045-0.086-0.151-0.119-0.238-0.073
						c-0.086,0.046-0.12,0.154-0.075,0.24l2.475,4.596c-0.979,3.342-1.898,6.702-2.762,10.077c-0.024,0.094,0.032,0.19,0.126,0.214
						c0.094,0.024,0.19-0.032,0.215-0.126c0.683-2.703,1.43-5.389,2.177-8.076l4.176-2.275c0.085-0.046,0.116-0.151,0.069-0.236
						c-0.047-0.085-0.153-0.116-0.238-0.071l-3.87,2.104l0.44-1.495c0.034-0.039,0.049-0.09,0.041-0.14
						c0.925-3.192,1.911-6.367,2.94-9.527c2.022-1.017,4.004-2.023,6.037-2.986c0.087-0.042,0.123-0.145,0.08-0.231
						c-0.043-0.086-0.148-0.122-0.235-0.081c-1.928,0.913-3.814,1.863-5.727,2.826c1.391-4.318,2.93-8.586,4.496-12.844
						c2.439-1.095,4.851-2.165,7.279-3.193c0.089-0.037,0.13-0.139,0.091-0.227c-0.039-0.088-0.142-0.129-0.231-0.091
						c-2.329,0.98-4.628,2.004-6.96,3.047c1.858-4.946,3.856-9.838,5.944-14.691C367.557,414.889,370.183,413.868,372.86,412.911z"
						/>
				</g>
				<g>
					<path style="fill:#B5C0FB;" d="M373.528,443.83c-4.066,4.21-8.964,9.726-12.737,14.375c-3.792,4.624-6.587,8.283-7.424,7.846
						c-0.799-0.412,0.553-4.932,3.488-10.456c2.901-5.529,7.52-11.906,11.845-16.38c4.324-4.477,7.225-6.413,9.018-7.178
						c1.821-0.742,2.59-0.298,3.176,0.414c0.585,0.712,0.867,1.567-0.11,3.178C379.829,437.266,377.594,439.621,373.528,443.83z"/>
					<path style="fill:#A8B6FE;" d="M373.904,443.363c0.051,0,0.09-0.041,0.089-0.091c-0.002-0.05-0.044-0.091-0.094-0.091
						c-1.432-0.008-2.849,0.038-4.295,0.095c1.535-1.68,3.128-3.307,4.765-4.887c0.025-0.009,0.045-0.028,0.055-0.053
						c0.405-0.405,0.831-0.789,1.249-1.181c1.194,0.043,2.37,0.095,3.555,0.185c0.051,0.004,0.093-0.034,0.096-0.085
						c0.002-0.05-0.036-0.094-0.087-0.098c-1.123-0.085-2.244-0.142-3.372-0.181c1.42-1.331,2.886-2.612,4.38-3.858
						c0.039-0.033,0.044-0.091,0.012-0.131c-0.033-0.039-0.091-0.044-0.13-0.011c-1.966,1.618-3.844,3.34-5.692,5.09
						c0.024-1.272,0.085-2.538,0.151-3.83c0.003-0.052-0.037-0.095-0.088-0.097s-0.096,0.04-0.098,0.091
						c-0.067,1.357-0.137,2.677-0.152,4.018c-1.897,1.812-3.702,3.718-5.469,5.656c-0.074-1.431-0.112-2.867-0.139-4.33
						c0-0.052-0.043-0.092-0.095-0.09c-0.052,0.002-0.093,0.047-0.092,0.099c0.03,1.508,0.064,2.979,0.149,4.457
						c0.001,0.018,0.008,0.033,0.017,0.046c-1.934,2.139-3.757,4.376-5.515,6.661c-0.184-1.319-0.32-2.629-0.451-3.965
						c-0.005-0.052-0.051-0.089-0.102-0.082c-0.051,0.006-0.089,0.053-0.084,0.105c0.133,1.396,0.285,2.774,0.478,4.151
						c-1.191,1.549-2.329,3.139-3.426,4.755c-0.206-1.105-0.414-2.233-0.579-3.351c-0.008-0.051-0.056-0.085-0.107-0.076
						c-0.051,0.009-0.086,0.058-0.078,0.109c0.173,1.179,0.401,2.373,0.616,3.534c-0.95,1.404-1.876,2.825-2.755,4.274
						c-0.195-0.826-0.397-1.667-0.572-2.504c-0.011-0.05-0.06-0.082-0.111-0.07c-0.051,0.012-0.083,0.062-0.073,0.112l0.617,2.685
						c-0.957,1.565-1.873,3.156-2.746,4.77c-0.025,0.045-0.008,0.101,0.037,0.125c0.045,0.024,0.101,0.008,0.126-0.037
						c0.693-1.294,1.432-2.562,2.173-3.83l2.434-0.579c0.049-0.011,0.08-0.06,0.068-0.11c-0.012-0.049-0.062-0.08-0.111-0.069
						l-2.256,0.533l0.43-0.699c0.022-0.015,0.037-0.039,0.04-0.066c0.907-1.496,1.858-2.966,2.839-4.414
						c1.174-0.217,2.315-0.435,3.487-0.608c0.05-0.008,0.084-0.054,0.075-0.104c-0.009-0.05-0.056-0.084-0.107-0.076
						c-1.111,0.164-2.197,0.366-3.307,0.572c1.33-1.984,2.764-3.896,4.215-5.792c1.402-0.162,2.777-0.312,4.154-0.426
						c0.051-0.004,0.087-0.048,0.082-0.098c-0.005-0.05-0.051-0.087-0.101-0.083c-1.322,0.104-2.632,0.25-3.972,0.402
						c1.714-2.191,3.522-4.307,5.389-6.368C370.938,443.409,372.41,443.355,373.904,443.363z"/>
				</g>
			</g>
			<g>
				<path style="fill:#23386B;" d="M424.71,469.224H75.563c-1.381,0-2.5-1.119-2.5-2.5c0-1.381,1.119-2.5,2.5-2.5H424.71
					c1.381,0,2.5,1.119,2.5,2.5C427.21,468.105,426.091,469.224,424.71,469.224z"/>
			</g>
		</g>
		<g>
			<g>
				<path style="fill:#ECAA00;" d="M264.536,155.008L117.07,215.356c-2.404,0.984-5.157-0.081-6.274-2.425l0,0
					c-1.221-2.562-0.015-5.623,2.626-6.663l149.116-58.725L264.536,155.008z"/>
				<path style="fill:none;" d="M268.759,151.269c-0.088-0.219-0.167-0.443-0.258-0.661
					C268.567,150.835,268.654,151.055,268.759,151.269z"/>
				<g>
					<g>
						<path style="fill:#D32D68;" d="M338.387,107.447l-30.106-6.662c-2.112-0.467-4.203,0.866-4.67,2.978l-3.78,17.08
							c-0.467,2.112,0.866,4.203,2.978,4.67l11.222,2.483l1.405,11.81l6.256-10.115l11.223,2.483
							c2.112,0.467,4.203-0.866,4.67-2.978l3.78-17.08C341.832,110.006,340.499,107.915,338.387,107.447z M328.426,118.061
							l-1.926,1.228l-7.595,4.843l-4.843-7.595l-1.228-1.926c-1.337-2.098-0.721-4.882,1.376-6.219l0,0
							c2.097-1.337,4.882-0.721,6.219,1.376l1.228,1.926l1.926-1.228c2.097-1.337,4.882-0.721,6.219,1.376v0
							C331.14,113.939,330.524,116.724,328.426,118.061z"/>
						<path style="fill:#FFFFFF;" d="M329.802,111.842c-1.337-2.097-4.122-2.714-6.219-1.376l-1.926,1.228l-1.228-1.926
							c-1.337-2.097-4.122-2.714-6.219-1.376l0,0c-2.097,1.337-2.714,4.122-1.376,6.219l1.228,1.926l4.843,7.595l7.595-4.843
							l1.926-1.228C330.524,116.724,331.14,113.939,329.802,111.842L329.802,111.842z"/>
					</g>
					<path style="fill:#ECAA00;" d="M308.302,115.453c-30.766,8.967-53.076,25.263-49.831,36.397
						c3.245,11.135,30.817,12.892,61.583,3.925c30.766-8.967,53.076-25.263,49.831-36.398
						C366.64,108.243,339.068,106.486,308.302,115.453z M318.469,150.334c-25.476,7.425-47.848,7.548-49.968,0.273
						c-2.12-7.275,16.814-19.191,42.29-26.617c25.476-7.425,47.848-7.548,49.968-0.273
						C362.879,130.992,343.945,142.909,318.469,150.334z"/>
					<path style="fill:none;" d="M360.898,124.508c-0.006-0.067-0.014-0.134-0.023-0.2
						C360.882,124.376,360.891,124.441,360.898,124.508z"/>
					<g style="opacity:0.3;">
						<path style="fill:#A1ADDF;" d="M382.335,181.167c-5.459-15.844-15.418-25.685-19.863-46.63
							c-0.655-3.084-1.19-6.408-1.573-10.028c-0.007-0.068-0.016-0.132-0.023-0.2c-0.027-0.199-0.06-0.397-0.117-0.59
							c-2.12-7.275-24.492-7.152-49.968,0.273s-44.41,19.342-42.29,26.617c0.092,0.218,0.17,0.442,0.258,0.661
							c1.182,2.941,2.071,5.995,2.703,9.118c1.855,9.162,1.527,18.906,0.003,28.083c-2.082,12.539-5.727,24.82-7.013,37.465
							c-1.286,12.646,0.028,26.116,7.064,36.701c8.506,12.797,23.921,19.284,39.015,22.16c13.962,2.66,28.842,2.739,41.918-2.83
							c17.764-7.566,30.149-25.036,34.564-43.833C391.429,219.336,388.624,199.422,382.335,181.167z"/>
					</g>
					<g>
						<g>
							<path style="fill:#A62452;" d="M336.665,174.326l-28.187,0.339c-2.543,0.031-4.272,1.526-3.769,3.361l4.323,15.765
								c0.568,2.072,3.236,3.37,5.853,2.891l12.331-2.257l6.96,8.746l0.188-10.055l9.023-1.651c1.535-0.281,2.255-1.72,1.656-3.209
								l-4.628-11.509C339.868,175.386,338.209,174.307,336.665,174.326z M334.221,183.057l-0.884,1.292l-3.781,5.526l-7.805-4.342
								l-2.066-1.149c-2.292-1.275-3.015-3.583-1.625-5.08l0,0c1.338-1.44,4.114-1.548,6.212-0.309l1.893,1.118l1.029-1.264
								c1.083-1.33,3.482-1.423,5.363-0.267l0,0C334.407,179.719,335.152,181.696,334.221,183.057z"/>
							<path style="fill:#FFFFFF;" d="M332.557,178.582c-1.881-1.156-4.28-1.063-5.363,0.267l-1.029,1.264l-1.893-1.118
								c-2.097-1.239-4.874-1.131-6.212,0.309l0,0c-1.39,1.497-0.666,3.805,1.625,5.08l2.066,1.149l7.805,4.342l3.781-5.526
								l0.884-1.292C335.152,181.696,334.407,179.719,332.557,178.582L332.557,178.582z"/>
						</g>
						<g>
							<path style="fill:#A62452;" d="M382.417,226.297l-22.232-13.834c-1.809-1.126-3.843-0.722-4.521,0.952l-6.007,14.831
								c-0.814,2.011,0.275,4.513,2.404,5.527l10.53,5.018l0.121,12.245l6.39-9.142l8.688,4.14c1.533,0.73,3.079-0.17,3.475-1.97
								l2.962-13.482C384.567,229.038,383.764,227.135,382.417,226.297z M375.109,232.717l-1.513,0.649l-6.406,2.746l-3.492-8.126
								l-0.889-2.069c-0.969-2.256-0.17-4.547,1.732-5.097v0c1.842-0.533,4.032,0.778,4.942,2.91l0.835,1.955l1.563-0.543
								c1.653-0.575,3.661,0.627,4.527,2.665l0,0C377.272,229.842,376.71,232.031,375.109,232.717z"/>
							<path style="fill:#FFFFFF;" d="M376.407,227.806c-0.866-2.038-2.874-3.24-4.527-2.665l-1.563,0.543l-0.835-1.955
								c-0.91-2.132-3.1-3.443-4.942-2.91v0c-1.901,0.55-2.701,2.841-1.732,5.097l0.889,2.069l3.492,8.126l6.406-2.746l1.513-0.649
								C376.71,232.031,377.272,229.842,376.407,227.806L376.407,227.806z"/>
						</g>
						<g>
							<path style="fill:#B9285B;" d="M352.079,256.335l-27.641,3.865c-1.939,0.271-3.291,2.063-3.02,4.002l2.193,15.682
								c0.271,1.939,2.063,3.291,4.002,3.02l10.304-1.441l4.924,9.573l2.109-10.556l10.303-1.441
								c1.939-0.271,3.291-2.063,3.02-4.002l-2.193-15.682C355.81,257.416,354.018,256.064,352.079,256.335z M346.986,268.485
								l-1.246,1.651l-4.911,6.508l-6.508-4.911l-1.651-1.246c-1.797-1.356-2.155-3.913-0.798-5.71v0
								c1.356-1.797,3.913-2.155,5.71-0.798l1.651,1.246l1.246-1.651c1.356-1.797,3.913-2.155,5.71-0.798l0,0
								C347.984,264.132,348.342,266.688,346.986,268.485z"/>
							<path style="fill:#FFFFFF;" d="M346.187,262.776c-1.797-1.356-4.354-0.999-5.71,0.798l-1.246,1.651l-1.651-1.246
								c-1.797-1.356-4.354-0.999-5.71,0.798v0c-1.356,1.797-0.999,4.354,0.798,5.71l1.651,1.246l6.508,4.911l4.911-6.508
								l1.246-1.651C348.342,266.688,347.984,264.132,346.187,262.776L346.187,262.776z"/>
						</g>
						<g>
							<path style="fill:#B9285B;" d="M348.275,213.78l-27.641,3.865c-1.939,0.271-3.291,2.063-3.02,4.002l2.193,15.682
								c0.271,1.939,2.063,3.291,4.002,3.02l10.304-1.441l4.924,9.573l2.109-10.556l10.303-1.441
								c1.939-0.271,3.291-2.063,3.02-4.002l-2.193-15.682C352.006,214.861,350.214,213.509,348.275,213.78z M343.182,225.931
								l-1.246,1.651l-4.911,6.508l-6.508-4.911l-1.651-1.246c-1.797-1.356-2.155-3.913-0.798-5.71v0
								c1.356-1.797,3.913-2.155,5.71-0.798l1.651,1.246l1.246-1.651c1.356-1.797,3.913-2.155,5.71-0.798l0,0
								C344.181,221.577,344.538,224.134,343.182,225.931z"/>
							<path style="fill:#FFFFFF;" d="M342.383,220.221c-1.797-1.356-4.354-0.999-5.71,0.798l-1.246,1.651l-1.651-1.246
								c-1.797-1.356-4.354-0.999-5.71,0.798v0c-1.356,1.797-0.999,4.354,0.798,5.71l1.651,1.246l6.508,4.911l4.911-6.508
								l1.246-1.651C344.538,224.134,344.181,221.577,342.383,220.221L342.383,220.221z"/>
						</g>
						<g>
							<path style="fill:#B9285B;" d="M363.413,148.026l-22.668,3.988c-1.548,0.272-2.866,1.793-2.948,3.428l-0.74,14.616
								c-0.101,2,1.238,3.439,3,3.17l9.481-1.446l3.758,10.96l2.83-11.964l9.825-1.498c1.873-0.285,3.163-2.184,2.882-4.196
								l-2.048-14.648C366.555,148.803,365.046,147.739,363.413,148.026z M358.642,158.8l-1.182,1.57l-4.827,6.415l-5.236-4.768
								l-1.264-1.151c-1.349-1.228-1.336-3.528-0.014-5.138v0c1.302-1.587,3.428-1.953,4.79-0.818l1.276,1.063l1.173-1.481
								c1.259-1.59,3.419-1.962,4.867-0.831l0,0C359.702,154.815,359.91,157.116,358.642,158.8z"/>
							<path style="fill:#FFFFFF;" d="M358.224,153.66c-1.448-1.131-3.607-0.759-4.867,0.831l-1.173,1.481l-1.276-1.063
								c-1.362-1.135-3.487-0.769-4.79,0.818v0c-1.322,1.61-1.335,3.91,0.014,5.138l1.264,1.151l5.236,4.768l4.827-6.415l1.182-1.57
								C359.91,157.116,359.702,154.815,358.224,153.66L358.224,153.66z"/>
						</g>
						<g>
							<path style="fill:#B9285B;" d="M362.075,182.298l-27.596-4.172c-1.936-0.293-3.742,1.039-4.035,2.975l-2.367,15.656
								c-0.293,1.936,1.039,3.742,2.975,4.035l10.287,1.555l1.992,10.579l5.03-9.517l10.287,1.555
								c1.936,0.293,3.742-1.039,4.035-2.975l2.367-15.657C365.343,184.398,364.011,182.591,362.075,182.298z M353.73,192.494
								l-1.664,1.227l-6.563,4.839l-4.839-6.563l-1.227-1.664c-1.336-1.812-0.95-4.364,0.862-5.701l0,0
								c1.812-1.336,4.364-0.95,5.701,0.862l1.227,1.664l1.664-1.227c1.812-1.336,4.365-0.95,5.701,0.862l0,0
								C355.928,188.605,355.542,191.157,353.73,192.494z"/>
							<path style="fill:#FFFFFF;" d="M354.592,186.793c-1.336-1.812-3.889-2.198-5.701-0.862l-1.664,1.227L346,185.494
								c-1.336-1.812-3.888-2.198-5.701-0.862l0,0c-1.812,1.336-2.198,3.889-0.862,5.701l1.227,1.664l4.839,6.563l6.563-4.839
								l1.664-1.227C355.542,191.157,355.928,188.605,354.592,186.793L354.592,186.793z"/>
						</g>
						<g>
							<path style="fill:#B9285B;" d="M313.577,217.534l-26.713-8.083c-1.874-0.567-3.853,0.492-4.42,2.366l-4.586,15.156
								c-0.567,1.874,0.492,3.853,2.366,4.42l9.958,3.013l0.456,10.755l6.342-8.698l9.958,3.013c1.874,0.567,3.853-0.492,4.42-2.366
								l4.586-15.156C316.511,220.08,315.451,218.101,313.577,217.534z M303.858,226.428l-1.823,0.976l-7.188,3.849l-3.849-7.188
								l-0.976-1.823c-1.063-1.985-0.315-4.456,1.67-5.518v0c1.985-1.063,4.456-0.315,5.518,1.67l0.976,1.823l1.823-0.976
								c1.985-1.063,4.456-0.315,5.518,1.67v0C306.59,222.895,305.843,225.366,303.858,226.428z"/>
							<path style="fill:#FFFFFF;" d="M305.528,220.91c-1.063-1.985-3.533-2.732-5.518-1.67l-1.823,0.976l-0.976-1.823
								c-1.063-1.985-3.533-2.732-5.518-1.67v0c-1.985,1.063-2.733,3.533-1.67,5.518l0.976,1.823l3.849,7.188l7.188-3.849
								l1.823-0.976C305.843,225.366,306.59,222.895,305.528,220.91L305.528,220.91z"/>
						</g>
						<g>
							<path style="fill:#B9285B;" d="M384.109,248.227l-22.768-16.142c-1.597-1.132-3.81-0.756-4.942,0.842l-9.158,12.918
								c-1.132,1.597-0.755,3.81,0.842,4.942l8.487,6.017l-2.981,10.344l8.774-6.237l8.487,6.017
								c1.597,1.132,3.81,0.755,4.942-0.842l9.158-12.917C386.083,251.572,385.707,249.359,384.109,248.227z M372.07,253.578
								l-2.039,0.347l-8.038,1.369l-1.369-8.038l-0.347-2.039c-0.378-2.22,1.115-4.325,3.335-4.703l0,0
								c2.22-0.378,4.325,1.115,4.703,3.334l0.347,2.039l2.039-0.347c2.22-0.378,4.325,1.115,4.703,3.334l0,0
								C375.782,251.094,374.289,253.2,372.07,253.578z"/>
							<path style="fill:#FFFFFF;" d="M375.404,248.874c-0.378-2.219-2.484-3.712-4.703-3.334l-2.039,0.347l-0.347-2.039
								c-0.378-2.22-2.484-3.712-4.703-3.334l0,0c-2.22,0.378-3.712,2.484-3.335,4.703l0.347,2.039l1.369,8.038l8.038-1.369
								l2.039-0.347C374.289,253.2,375.782,251.094,375.404,248.874L375.404,248.874z"/>
						</g>
						<g>
							<path style="fill:#A62452;" d="M322.989,228.862l-28.854,7.912c-2.024,0.555-3.215,2.646-2.66,4.67l4.489,16.37
								c0.555,2.024,2.646,3.215,4.67,2.66l10.756-2.949l6.552,9.5l0.79-11.513l10.756-2.949c2.024-0.555,3.215-2.646,2.66-4.67
								l-4.489-16.37C327.104,229.498,325.013,228.307,322.989,228.862z M319.246,242.48l-1.097,1.926l-4.326,7.595l-7.595-4.326
								l-1.926-1.097c-2.097-1.195-2.829-3.863-1.634-5.96v0c1.195-2.097,3.863-2.829,5.96-1.634l1.926,1.097l1.097-1.926
								c1.195-2.097,3.863-2.829,5.961-1.634l0,0C319.709,237.714,320.44,240.383,319.246,242.48z"/>
							<path style="fill:#FFFFFF;" d="M317.611,236.52c-2.097-1.195-4.766-0.463-5.961,1.634l-1.097,1.926l-1.926-1.097
								c-2.097-1.195-4.766-0.463-5.96,1.634v0c-1.195,2.097-0.463,4.766,1.634,5.96l1.926,1.097l7.595,4.326l4.326-7.595
								l1.097-1.926C320.44,240.383,319.709,237.714,317.611,236.52L317.611,236.52z"/>
						</g>
						<g>
							<path style="fill:#A62452;" d="M323.114,196.585l-28.255-1.281c-1.728-0.078-3.476,1.174-3.932,2.807l-3.82,13.669
								c-0.489,1.75,0.516,3.384,2.275,3.643l9.899,1.454l1.136,10.758l6.202-9.68l11.724,1.723
								c2.349,0.345,4.626-1.081,5.038-3.174l3.201-16.25C326.962,198.325,325.389,196.688,323.114,196.585z M313.211,206.986
								l-1.91,1.266l-7.386,4.895l-4.408-6.077l-1.065-1.468c-1.136-1.566-0.537-3.858,1.33-5.156v0
								c1.882-1.309,4.393-1.153,5.619,0.386l1.149,1.443l1.817-1.239c1.994-1.36,4.716-1.191,6.092,0.418l0,0
								C315.857,203.1,315.308,205.596,313.211,206.986z"/>
							<path style="fill:#FFFFFF;" d="M314.45,201.454c-1.376-1.609-4.098-1.778-6.092-0.418l-1.817,1.239l-1.149-1.443
								c-1.226-1.539-3.737-1.694-5.619-0.386v0c-1.867,1.298-2.466,3.589-1.33,5.156l1.065,1.468l4.408,6.077l7.386-4.895
								l1.91-1.266C315.308,205.596,315.857,203.1,314.45,201.454L314.45,201.454z"/>
						</g>
						<g>
							<path style="fill:#D32D68;" d="M357.973,241.376l-24.841-5.497c-1.743-0.386-3.468,0.714-3.853,2.457l-3.119,14.093
								c-0.386,1.743,0.714,3.468,2.457,3.853l9.26,2.049l1.159,9.745l5.162-8.346l9.26,2.049c1.743,0.386,3.468-0.714,3.853-2.457
								l3.119-14.093C360.815,243.487,359.715,241.762,357.973,241.376z M349.754,250.134l-1.59,1.013l-6.267,3.996l-3.996-6.267
								l-1.013-1.589c-1.103-1.731-0.595-4.028,1.136-5.132l0,0c1.731-1.103,4.028-0.595,5.132,1.135l1.013,1.589l1.589-1.014
								c1.731-1.103,4.028-0.595,5.132,1.136v0C351.993,246.733,351.485,249.03,349.754,250.134z"/>
							<path style="fill:#FFFFFF;" d="M350.889,245.002c-1.103-1.73-3.401-2.239-5.132-1.136l-1.589,1.014l-1.013-1.589
								c-1.103-1.73-3.401-2.239-5.132-1.135l0,0c-1.731,1.104-2.239,3.401-1.136,5.132l1.013,1.589l3.996,6.267l6.267-3.996
								l1.59-1.013C351.485,249.03,351.993,246.733,350.889,245.002L350.889,245.002z"/>
						</g>
						<g>
							<path style="fill:#D32D68;" d="M280.499,196.469l-15.969,12.611c-0.758,0.599-0.954,1.884-0.465,2.893l3.952,8.157
								c0.489,1.009,1.575,1.561,2.459,1.222l5.424-2.081l5.305,5.592l-0.715-7.353l8.604-3.301
								c1.949-0.748,2.993-2.692,2.215-4.298l-6.294-12.99C284.238,195.317,282.171,195.149,280.499,196.469z M279.31,208.354
								l-0.56,1.6l-2,5.713l-5.008-1.873l-1.161-0.434c-1.219-0.456-1.928-1.921-1.616-3.334l0,0
								c0.325-1.468,1.641-2.402,2.975-2.021l1.274,0.365l0.409-1.508c0.464-1.71,2.116-2.883,3.735-2.537l0,0
								C279.053,204.687,279.948,206.533,279.31,208.354z"/>
							<path style="fill:#FFFFFF;" d="M277.358,204.325c-1.619-0.346-3.27,0.827-3.735,2.537l-0.409,1.508l-1.274-0.365
								c-1.334-0.382-2.65,0.553-2.975,2.021l0,0c-0.313,1.413,0.397,2.878,1.616,3.334l1.161,0.434l5.008,1.873l2-5.713l0.56-1.6
								C279.948,206.533,279.053,204.687,277.358,204.325L277.358,204.325z"/>
						</g>
						<g>
							<path style="fill:#D32D68;" d="M359.514,165.241l-6.294,12.99c-0.778,1.606,0.266,3.551,2.215,4.298l8.604,3.3l-0.715,7.353
								l5.305-5.592l5.424,2.081c0.884,0.339,1.97-0.214,2.459-1.222l3.952-8.157c0.489-1.009,0.293-2.294-0.465-2.893
								l-15.969-12.611C362.359,163.468,360.292,163.635,359.514,165.241z M367.172,172.644L367.172,172.644
								c1.619-0.346,3.271,0.827,3.735,2.537l0.409,1.508l1.274-0.365c1.334-0.382,2.65,0.552,2.975,2.021l0,0
								c0.313,1.413-0.397,2.878-1.616,3.334l-1.161,0.434l-5.009,1.873l-2-5.714l-0.56-1.6
								C364.583,174.852,365.477,173.006,367.172,172.644z"/>
							<path style="fill:#FFFFFF;" d="M367.172,172.644c1.619-0.346,3.271,0.827,3.735,2.537l0.409,1.508l1.274-0.365
								c1.334-0.382,2.65,0.552,2.975,2.021l0,0c0.313,1.413-0.397,2.878-1.616,3.334l-1.161,0.434l-5.009,1.873l-2-5.714l-0.56-1.6
								C364.583,174.852,365.477,173.006,367.172,172.644L367.172,172.644z"/>
						</g>
						<g>
							<path style="fill:#D32D68;" d="M342.858,193.953l-28.527,3.163c-2.289,0.254-3.509,2.236-2.695,4.395l6.186,16.418
								c0.719,1.909,2.977,3.077,5.019,2.638l10.283-2.211l6.079,8.16l0.436-9.561l8.888-1.911c1.592-0.342,2.515-1.969,2.079-3.655
								l-3.716-14.375C346.405,195.139,344.609,193.759,342.858,193.953z M339.814,205.711l-0.931,1.598l-3.7,6.349l-7.37-4.466
								l-1.974-1.196c-2.201-1.334-3.107-3.97-1.977-5.852l0,0c1.126-1.874,3.807-2.222,5.944-0.814l1.917,1.263l0.984-1.66
								c1.067-1.801,3.551-2.123,5.507-0.754l0,0C340.124,201.515,340.824,203.977,339.814,205.711z"/>
							<path style="fill:#FFFFFF;" d="M338.213,200.178c-1.956-1.369-4.44-1.047-5.507,0.754l-0.984,1.66l-1.917-1.263
								c-2.137-1.408-4.818-1.06-5.944,0.814l0,0c-1.13,1.881-0.224,4.518,1.977,5.852l1.974,1.196l7.37,4.466l3.7-6.349
								l0.931-1.598C340.824,203.977,340.124,201.515,338.213,200.178L338.213,200.178z"/>
						</g>
						<g>
							<path style="fill:#D32D68;" d="M291.405,222.641l-23.161,10.573c-1.444,0.659-2.092,2.542-1.467,4.213l5.057,13.52
								c0.625,1.672,2.331,2.615,3.828,2.101l8.345-2.865l6.476,8.246l-0.379-10.34l9.588-3.292c1.899-0.652,2.879-2.745,2.16-4.666
								l-5.81-15.534C295.323,222.675,293.235,221.805,291.405,222.641z M289.322,236.057l-0.787,1.885l-3.015,7.219l-6.73-3.396
								l-1.659-0.837c-1.785-0.901-2.637-3.178-1.914-5.117l0,0c0.732-1.963,2.809-2.869,4.652-1.992l1.713,0.815l0.728-1.861
								c0.803-2.051,3.028-3.022,4.984-2.135v0C289.277,231.537,290.19,233.979,289.322,236.057z"/>
							<path style="fill:#FFFFFF;" d="M287.295,230.638c-1.956-0.887-4.181,0.084-4.984,2.135l-0.728,1.861l-1.713-0.815
								c-1.843-0.877-3.92,0.029-4.652,1.992l0,0c-0.723,1.939,0.129,4.216,1.914,5.117l1.659,0.837l6.73,3.396l3.015-7.219
								l0.787-1.885C290.19,233.979,289.277,231.537,287.295,230.638L287.295,230.638z"/>
						</g>
						<g>
							<path style="fill:#B9285B;" d="M308.491,257.145l-21.703-10.886c-1.294-0.649-3.187-0.093-4.258,1.24l-8.945,11.136
								c-1.143,1.423-1.108,3.258,0.109,4.104l6.911,4.809l-3.934,10.325l9.133-6.707l8.444,5.876
								c1.712,1.192,4.177,0.696,5.456-1.12l9.938-14.107C310.821,260.139,310.285,258.045,308.491,257.145z M295.899,263.342
								l-2.076,0.498l-7.97,1.912l-0.703-7.141l-0.169-1.715c-0.18-1.827,1.3-3.72,3.321-4.272l0,0
								c2.043-0.558,3.931,0.445,4.202,2.285l0.255,1.728l1.979-0.513c2.179-0.565,4.256,0.539,4.625,2.515l0,0
								C299.744,260.664,298.185,262.794,295.899,263.342z"/>
							<path style="fill:#FFFFFF;" d="M299.365,258.638c-0.369-1.976-2.447-3.08-4.625-2.515l-1.979,0.513l-0.255-1.728
								c-0.272-1.84-2.16-2.843-4.202-2.285l0,0c-2.021,0.552-3.501,2.445-3.321,4.272l0.169,1.715l0.703,7.141l7.97-1.912
								l2.076-0.498C298.185,262.794,299.744,260.664,299.365,258.638L299.365,258.638z"/>
						</g>
						<g>
							<path style="fill:#D32D68;" d="M350.759,205.167l9.022,14.709c1.161,1.893,3.589,2.544,5.374,1.464l8.8-5.328l8.688,7.273
								l-3.27-10.554l7.202-4.36c1.268-0.767,1.419-2.596,0.369-4.089l-8.22-11.681c-0.984-1.398-2.837-2.073-4.17-1.507
								l-22.351,9.486C350.354,201.364,349.687,203.419,350.759,205.167z M361.215,202.649L361.215,202.649
								c0.494-1.949,2.637-2.918,4.776-2.216l1.943,0.638l0.365-1.709c0.388-1.819,2.336-2.7,4.339-2.013l0,0
								c1.982,0.679,3.338,2.663,3.043,4.474l-0.277,1.701l-1.155,7.082l-7.833-2.414l-2.04-0.629
								C362.129,206.872,360.708,204.647,361.215,202.649z"/>
							<path style="fill:#FFFFFF;" d="M361.215,202.649c0.494-1.949,2.637-2.918,4.776-2.216l1.943,0.638l0.365-1.709
								c0.388-1.819,2.336-2.7,4.339-2.013l0,0c1.982,0.679,3.338,2.663,3.043,4.474l-0.277,1.701l-1.155,7.082l-7.833-2.414
								l-2.04-0.629C362.129,206.872,360.708,204.647,361.215,202.649L361.215,202.649z"/>
						</g>
						<g>
							<path style="fill:#D32D68;" d="M319.036,251.412l-20.356,14.613c-1.428,1.025-1.755,3.014-0.73,4.441l8.29,11.549
								c1.025,1.428,3.014,1.754,4.441,0.729l7.588-5.447l7.91,5.553l-2.731-9.271l7.588-5.447c1.428-1.025,1.754-3.014,0.729-4.442
								l-8.29-11.549C322.453,250.713,320.464,250.387,319.036,251.412z M320.061,263.196l-0.301,1.832l-1.186,7.224l-7.223-1.186
								l-1.832-0.301c-1.995-0.328-3.346-2.21-3.018-4.205l0,0c0.328-1.995,2.21-3.346,4.205-3.019l1.832,0.301l0.301-1.832
								c0.328-1.995,2.21-3.346,4.205-3.019v0C319.037,259.319,320.388,261.201,320.061,263.196z"/>
							<path style="fill:#FFFFFF;" d="M317.042,258.991c-1.995-0.328-3.877,1.024-4.205,3.019l-0.301,1.832l-1.832-0.301
								c-1.995-0.328-3.877,1.024-4.205,3.019l0,0c-0.328,1.995,1.024,3.877,3.018,4.205l1.832,0.301l7.223,1.186l1.186-7.224
								l0.301-1.832C320.388,261.201,319.037,259.319,317.042,258.991L317.042,258.991z"/>
						</g>
						<g>
							<path style="fill:#D32D68;" d="M303.598,167.908l-20.356,14.612c-1.428,1.025-1.755,3.014-0.729,4.442l8.29,11.549
								c1.025,1.428,3.014,1.755,4.441,0.729l7.588-5.447l7.91,5.553l-2.731-9.271l7.588-5.447c1.428-1.025,1.755-3.014,0.729-4.442
								l-8.29-11.549C307.015,167.21,305.026,166.883,303.598,167.908z M304.623,179.693l-0.301,1.832l-1.186,7.223l-7.224-1.186
								l-1.832-0.301c-1.995-0.328-3.346-2.21-3.019-4.205l0,0c0.328-1.995,2.21-3.346,4.205-3.019l1.832,0.301l0.301-1.832
								c0.328-1.995,2.21-3.346,4.205-3.019l0,0C303.599,175.815,304.95,177.698,304.623,179.693z"/>
							<path style="fill:#FFFFFF;" d="M301.604,175.488c-1.995-0.328-3.877,1.024-4.205,3.019l-0.301,1.832l-1.832-0.301
								c-1.995-0.328-3.877,1.024-4.205,3.019l0,0c-0.328,1.995,1.024,3.877,3.019,4.205l1.832,0.301l7.224,1.186l1.186-7.223
								l0.301-1.832C304.95,177.698,303.599,175.815,301.604,175.488L301.604,175.488z"/>
						</g>
					</g>
					<path style="fill:#7A97E2;" d="M382.807,181.003c-2.208-6.41-5.094-11.742-8.149-17.388
						c-4.451-8.225-9.054-16.73-11.696-29.183c-0.674-3.169-1.2-6.526-1.566-9.975l-0.024-0.218
						c-0.03-0.224-0.069-0.447-0.132-0.663c-1.094-3.751-7.067-5.767-16.708-5.736c-9.483,0.052-21.516,2.065-33.88,5.669
						c-12.365,3.604-23.595,8.371-31.62,13.421c-8.193,5.157-12.103,10.063-10.991,13.867c0.051,0.121,0.097,0.243,0.144,0.365
						l0.112,0.291c1.134,2.823,2.035,5.862,2.677,9.03c1.69,8.342,1.69,17.73,0,27.902c-0.829,4.992-1.925,10.03-2.985,14.903
						c-1.601,7.358-3.256,14.966-4.031,22.593c-1.517,14.912,0.954,27.716,7.146,37.029c9.359,14.082,26.558,19.94,39.337,22.375
						c6.215,1.185,12.128,1.775,17.717,1.775c9.042,0,17.237-1.548,24.491-4.637c13.764-5.862,25.223-18.313,31.503-33.699
						c0.017-0.003,0.034-0.005,0.051-0.008l-0.015-0.082c1.358-3.339,2.476-6.813,3.316-10.39
						C391.543,221.038,389.964,201.778,382.807,181.003z M387.972,229.93c-3.013,0.344-6.433,0.238-10.189-0.286
						c4.334-4.946,7.934-10.164,10.766-15.611C388.83,219.491,388.632,224.792,387.972,229.93z M309.896,284.156
						c-6.428-1.274-13.886-3.431-20.853-7.056c3.316-0.869,6.616-1.807,9.896-2.813c5.75,3.317,11.605,6.014,17.311,8.124
						C314.141,283.027,312.025,283.617,309.896,284.156z M300.259,273.894c5.327-1.665,10.592-3.528,15.795-5.545
						c6.286,2.969,12.834,5.434,19.501,7.293c-5.794,2.389-11.703,4.488-17.695,6.291
						C312.077,279.875,306.12,277.208,300.259,273.894z M273,179.758c0.371-5.121,0.274-10.005-0.288-14.62
						c0.099-0.038,0.196-0.081,0.294-0.119c3.298,3.951,7.066,7.977,11.215,12.004c-3.265,1.698-6.475,3.334-9.623,4.927
						C274.053,181.215,273.518,180.484,273,179.758z M273.698,182.405c-0.326,0.165-0.659,0.334-0.984,0.498
						c0.058-0.536,0.124-1.077,0.172-1.608C273.155,181.665,273.423,182.034,273.698,182.405z M278.079,149.224
						c4.371-3.334,8.417-7.099,12.088-11.187c3,3.559,6.614,7.157,10.66,10.711c-4.74,3.407-9.713,6.482-14.857,9.215
						C282.956,154.989,280.312,152.064,278.079,149.224z M297.035,129.201c2.034-0.8,4.134-1.573,6.287-2.313
						c2.498,3.433,6.133,7.22,10.567,11.105c-3.851,3.607-7.923,6.984-12.186,10.102c-4.211-3.666-7.876-7.311-10.846-10.819
						c2.242-2.556,4.345-5.227,6.262-8.018L297.035,129.201z M290.216,136.495c-0.896-1.09-1.725-2.165-2.48-3.223
						c2.429-1.188,5.017-2.341,7.733-3.447C293.831,132.129,292.082,134.359,290.216,136.495z M361.644,132.932
						c-1.507,2.959-3.37,6.038-5.5,9.145c-4.028-1.946-8.355-4.459-12.425-7.108c3.002-3.549,5.693-7.185,8.072-10.899
						c4.688,4.416,9.053,8.137,9.841,8.803C361.636,132.893,361.64,132.912,361.644,132.932z M355.584,142.885
						c-3.398,4.856-7.439,9.753-11.84,14.348c-4.747-2.618-9.404-5.464-13.807-8.41c4.866-4.21,9.236-8.579,13.118-13.086
						C347.171,138.406,351.534,140.921,355.584,142.885z M367.726,152.163c-2.773,4.276-5.77,8.415-8.967,12.406
						c-4.662-1.972-9.417-4.29-14.105-6.841c4.404-4.617,8.444-9.534,11.843-14.407c3.343,1.57,6.43,2.729,8.937,3.241
						C366.158,148.519,366.926,150.379,367.726,152.163z M384.865,191.234c-4.158,5.762-8.661,11.26-13.473,16.468
						c-6.409-1.721-13.823-4.45-21.832-8.049c5.171-4.823,9.906-9.892,14.172-15.15c7.414,2.383,14.394,3.886,20.456,4.225
						C384.427,189.568,384.645,190.401,384.865,191.234z M385.195,192.471c1.478,5.835,2.476,11.53,3.013,17.077
						c-3.837,0.667-9.229,0.096-15.724-1.56C377.006,203.065,381.251,197.884,385.195,192.471z M316.828,223.604
						c4.096-2.364,8.023-4.801,11.77-7.327c1.469-0.99,2.911-2.003,4.337-3.027c7.492,4.261,14.695,7.8,21.458,10.586
						c-5.517,4.601-11.303,8.875-17.321,12.798C330.213,232.911,323.4,228.48,316.828,223.604z M336.163,237.226
						c-5.754,3.702-11.715,7.08-17.846,10.118c-1.359-0.885-2.72-1.797-4.082-2.735c-5.413-3.726-10.553-7.666-15.312-11.702
						c5.986-2.802,11.642-5.723,16.99-8.775C322.481,229.022,329.294,233.469,336.163,237.226z M330.99,168.604
						c-5.167-2.958-10.101-6.078-14.725-9.273c0.771-0.533,1.556-1.048,2.318-1.593c3.71-2.652,7.199-5.382,10.482-8.178
						c4.417,2.977,9.097,5.85,13.883,8.494c-2.903,2.978-5.946,5.819-9.056,8.416c-0.903,0.754-1.817,1.491-2.73,2.229
						C331.105,168.667,331.048,168.636,330.99,168.604z M330.277,169.423c-4.975,3.975-10.108,7.715-15.387,11.213
						c-5.495-3.57-10.622-7.206-15.299-10.842c5.324-3.055,10.601-6.313,15.714-9.803
						C320.075,163.301,325.112,166.472,330.277,169.423z M331.205,169.956c5.132,2.897,10.374,5.559,15.583,7.928
						c-4.639,4.618-9.562,8.965-14.729,13.009c-0.98-0.538-1.963-1.083-2.951-1.641c-4.629-2.616-9.072-5.302-13.305-8.027
						C321.088,177.707,326.225,173.949,331.205,169.956z M313.978,181.228c-4.544,2.978-9.197,5.774-13.951,8.393
						c-5.031-4.051-9.771-8.197-14.118-12.356c4.226-2.21,8.503-4.524,12.776-6.957
						C303.482,174.057,308.636,177.725,313.978,181.228z M314.897,181.825c5.306,3.446,10.784,6.726,16.273,9.757
						c-4.73,3.651-9.652,7.059-14.745,10.182c-5.389-3.667-10.611-7.513-15.562-11.463
						C305.645,187.655,310.327,184.833,314.897,181.825z M332.294,192.196c5.199,2.837,10.396,5.447,15.452,7.758
						c-4.633,4.239-9.6,8.284-14.871,12.1c-1.044-0.598-2.087-1.192-3.142-1.817c-4.143-2.456-8.235-5.053-12.242-7.75
						C322.611,199.335,327.551,195.894,332.294,192.196z M329.224,211.097c0.928,0.55,1.847,1.075,2.768,1.604
						c-1.3,0.929-2.616,1.845-3.951,2.746c-3.842,2.59-7.874,5.087-12.086,7.507c-4.974-3.733-9.804-7.717-14.403-11.84
						c5.138-2.424,10.145-5.11,14.997-8.053C320.693,205.862,324.933,208.554,329.224,211.097z M333.821,212.601
						c5.288-3.848,10.272-7.925,14.918-12.199c7.828,3.529,15.29,6.327,21.868,8.131c-4.829,5.16-9.96,10.032-15.357,14.589
						C348.514,220.373,341.312,216.843,333.821,212.601z M348.57,199.204c-4.945-2.252-10.104-4.828-15.387-7.698
						c5.15-4.072,10.055-8.459,14.687-13.133c5.029,2.247,10.019,4.213,14.835,5.806
						C358.449,189.395,353.725,194.421,348.57,199.204z M348.634,177.607c3.658-3.741,7.138-7.664,10.425-11.756
						c4.628,1.907,9.173,3.471,13.487,4.579c-2.737,4.415-5.798,8.736-9.171,12.935C358.664,181.82,353.717,179.884,348.634,177.607
						z M347.561,177.119c-5.053-2.303-10.234-4.943-15.46-7.894c0.813-0.659,1.629-1.314,2.433-1.986
						c3.205-2.676,6.338-5.611,9.325-8.687c4.702,2.563,9.486,4.893,14.201,6.881C354.76,169.49,351.254,173.392,347.561,177.119z
						 M329.075,148.244c-4.993-3.382-9.627-6.88-13.649-10.312c4.545-4.334,8.769-8.988,12.616-13.917
						c2.971,3.15,8.266,7.283,14.169,11.17C338.327,139.682,333.951,144.042,329.075,148.244z M328.205,148.978
						c-3.201,2.715-6.596,5.368-10.204,7.947c-0.858,0.613-1.741,1.195-2.611,1.794c-4.68-3.272-9.023-6.617-12.913-9.954
						c4.258-3.126,8.327-6.506,12.175-10.116C318.65,142.092,323.246,145.594,328.205,148.978z M301.596,149.421
						c3.925,3.394,8.239,6.741,12.827,9.963c-5.101,3.467-10.368,6.703-15.68,9.742c-4.449-3.5-8.479-6.996-12.023-10.433
						C291.871,155.94,296.849,152.845,301.596,149.421z M297.837,169.64c-4.243,2.409-8.49,4.702-12.685,6.893
						c-4.129-3.994-7.884-7.987-11.174-11.909c4.031-1.61,7.986-3.424,11.842-5.446C289.43,162.686,293.478,166.195,297.837,169.64z
						 M284.978,177.755c4.343,4.169,9.078,8.326,14.108,12.389c-4.079,2.22-8.233,4.306-12.457,6.259
						c-4.22-4.585-8.065-9.177-11.425-13.638C278.4,181.146,281.661,179.481,284.978,177.755z M299.922,190.823
						c4.95,3.962,10.17,7.822,15.56,11.504c-4.812,2.908-9.767,5.568-14.838,7.967c-4.719-4.277-9.186-8.691-13.305-13.121
						C291.606,195.192,295.802,193.076,299.922,190.823z M299.687,210.746c-5.453,2.536-11.036,4.766-16.716,6.668
						c-4.254-4.816-7.78-9.559-10.396-14.039c4.685-1.765,9.295-3.685,13.824-5.76C290.51,202.047,294.972,206.462,299.687,210.746z
						 M300.593,211.564c4.612,4.145,9.452,8.157,14.447,11.917c-5.336,3.03-10.982,5.928-16.954,8.712
						c-5.34-4.584-10.182-9.282-14.358-13.925C289.479,216.35,295.109,214.108,300.593,211.564z M297.09,232.655
						c-5.63,2.596-11.548,5.092-17.784,7.494c-4.849-5.475-8.89-11.318-11.891-17.391c5.171-1.132,10.27-2.521,15.28-4.154
						C286.878,223.288,291.73,228.028,297.09,232.655z M297.926,233.369c4.884,4.165,10.169,8.229,15.741,12.065
						c1.206,0.83,2.411,1.635,3.615,2.425c-6.5,3.17-13.188,5.956-20.024,8.33c-6.413-4.589-12.245-9.717-17.25-15.242
						C286.293,238.518,292.255,235.995,297.926,233.369z M318.259,248.489c5.995,3.879,11.936,7.243,17.687,10.041
						c-6.482,3.203-13.12,6.109-19.87,8.738c-6.263-2.984-12.251-6.476-17.82-10.375
						C305.086,254.492,311.766,251.682,318.259,248.489z M296.107,256.581c-4.678,1.589-9.424,2.981-14.224,4.176
						c-5.038-4.519-9.717-9.654-13.796-15.449c3.745-1.299,7.398-2.622,10.939-3.977
						C283.987,246.846,289.755,251.979,296.107,256.581z M297.121,257.298c5.525,3.917,11.463,7.44,17.682,10.461
						c-5.187,1.988-10.437,3.812-15.744,5.449c-5.617-3.27-11.123-7.141-16.273-11.648
						C287.623,260.336,292.408,258.92,297.121,257.298z M317.335,267.854c6.539-2.576,12.973-5.413,19.259-8.526
						c0.165-0.082,0.324-0.163,0.488-0.245c6.475,3.08,12.681,5.415,18.424,6.948c-5.99,3.32-12.158,6.321-18.468,8.985
						C330.308,273.22,323.691,270.796,317.335,267.854z M338.209,258.517c7.707-3.889,14.336-7.77,20.207-11.846
						c6.093,1.764,12.06,2.747,17.758,2.747c1.601,0,3.178-0.087,4.734-0.245c-7.608,5.987-15.699,11.396-24.161,16.168
						C351.002,263.888,344.749,261.585,338.209,258.517z M337.078,257.966c-5.767-2.769-11.738-6.117-17.774-9.997
						c6.135-3.065,12.098-6.471,17.853-10.198c6.701,3.598,13.441,6.507,20.047,8.526
						C351.359,250.302,344.75,254.126,337.078,257.966z M338.079,237.169c6.033-3.958,11.832-8.267,17.36-12.904
						c7.414,2.989,14.273,5.047,20.339,6.085c-2.558,2.8-5.333,5.518-8.369,8.128c-2.865,2.463-5.918,4.823-9.205,7.122
						C351.585,243.646,344.815,240.753,338.079,237.169z M356.31,223.539c5.412-4.597,10.555-9.51,15.394-14.711
						c4.945,1.292,9.361,2.002,13.003,2.002c1.303,0,2.503-0.097,3.6-0.282c0.044,0.508,0.078,1.013,0.114,1.519
						c-2.989,6.102-6.956,11.923-11.834,17.407C370.575,228.51,363.734,226.501,356.31,223.539z M383.882,187.703
						c-5.717-0.359-12.316-1.736-19.479-4.016c3.372-4.221,6.43-8.567,9.165-13.005c1.404,0.339,2.783,0.633,4.129,0.868
						c1.538,3.096,2.958,6.278,4.164,9.779C382.6,183.472,383.264,185.594,383.882,187.703z M374.125,169.78
						c0.484-0.801,0.951-1.607,1.413-2.413c0.542,1.018,1.078,2.036,1.598,3.059C376.151,170.239,375.147,170.025,374.125,169.78z
						 M374.986,166.331c-0.607,1.073-1.23,2.142-1.876,3.204c-4.238-1.082-8.748-2.641-13.366-4.551
						c2.992-3.777,5.819-7.696,8.469-11.747c1.778,3.85,3.684,7.379,5.564,10.854C374.184,164.842,374.587,165.588,374.986,166.331z
						 M365.024,145.449c-2.326-0.546-5.051-1.582-7.963-2.941c1.856-2.716,3.5-5.407,4.892-8.02c0.011,0.05,0.02,0.102,0.03,0.152
						C362.824,138.603,363.86,142.167,365.024,145.449z M360.279,123.859c0.05,0.169,0.077,0.343,0.1,0.499l0.022,0.203
						c0.244,2.304,0.566,4.561,0.948,6.755c-1.704-1.464-5.262-4.566-9.016-8.109c0.704-1.125,1.386-2.256,2.032-3.396
						C357.683,120.657,359.746,122.033,360.279,123.859z M351.594,122.505c-1.231-1.173-2.464-2.379-3.651-3.584
						c2.025,0.109,3.834,0.329,5.404,0.654C352.785,120.557,352.199,121.533,351.594,122.505z M344.535,118.842
						c0.12,0,0.239-0.001,0.357-0.001c0.544,0,1.075,0.007,1.594,0.021c1.462,1.509,3.02,3.037,4.565,4.507
						c-2.402,3.765-5.126,7.45-8.174,11.046c-6.023-3.982-11.379-8.193-14.218-11.202c0.819-1.067,1.628-2.142,2.41-3.234
						C335.916,119.253,340.465,118.864,344.535,118.842z M327.978,122.454c-0.57-0.667-0.995-1.262-1.233-1.757
						c0.982-0.18,1.951-0.343,2.913-0.498C329.106,120.957,328.547,121.709,327.978,122.454z M310.93,124.471
						c5.05-1.472,10.038-2.671,14.818-3.583c0.28,0.669,0.833,1.472,1.616,2.376c-3.866,4.97-8.123,9.655-12.703,14.016
						c-4.334-3.762-7.888-7.421-10.343-10.733C306.475,125.82,308.683,125.126,310.93,124.471z M279.564,137.779
						c2.191-1.379,4.632-2.736,7.265-4.054c0.827,1.167,1.735,2.344,2.703,3.525c-3.659,4.09-7.698,7.853-12.063,11.183
						c-1.593-2.088-2.959-4.127-4.079-6.103C275.034,140.86,277.099,139.33,279.564,137.779z M269.117,150.809
						c-0.051-0.132-0.101-0.263-0.136-0.341c-0.593-2.032,0.708-4.611,3.655-7.443c1.129,1.969,2.482,3.973,4.032,6.001
						c-2.122,1.58-4.313,3.061-6.566,4.433c-0.277-0.806-0.568-1.6-0.88-2.376L269.117,150.809z M270.419,154.442
						c2.357-1.426,4.645-2.974,6.861-4.625c2.243,2.848,4.862,5.738,7.791,8.632c-3.83,1.995-7.759,3.782-11.762,5.369
						c-0.31-0.376-0.636-0.754-0.937-1.128c-0.13-0.807-0.26-1.614-0.419-2.403C271.545,158.278,271.024,156.328,270.419,154.442z
						 M271.958,188.552c0.25-1.507,0.453-2.991,0.629-4.463c0.563-0.284,1.143-0.579,1.712-0.867
						c3.347,4.454,7.185,9.039,11.391,13.619c-4.464,2.037-9.008,3.921-13.623,5.655c-0.765-1.362-1.442-2.697-2.028-4.001
						C270.736,195.203,271.407,191.872,271.958,188.552z M269.695,200.125c0.434,0.894,0.907,1.801,1.42,2.719
						c-0.726,0.269-1.452,0.537-2.182,0.799c0.01-0.046,0.02-0.094,0.03-0.14C269.207,202.386,269.452,201.258,269.695,200.125z
						 M268.683,204.8c0.984-0.349,1.961-0.713,2.939-1.076c2.601,4.48,6.098,9.217,10.319,14.028
						c-4.932,1.613-9.933,2.978-14.982,4.08c-0.393-0.827-0.77-1.658-1.123-2.493C266.617,214.44,267.646,209.572,268.683,204.8z
						 M265.959,222.048c-0.181,0.038-0.362,0.08-0.543,0.117c0.046-0.336,0.093-0.672,0.142-1.007
						C265.692,221.454,265.82,221.752,265.959,222.048z M264.949,225.985c0.094-0.922,0.202-1.844,0.32-2.766
						c0.379-0.078,0.756-0.164,1.135-0.245c3.001,6.127,7.052,12.024,11.915,17.553c-3.504,1.337-7.116,2.643-10.82,3.925
						c-0.935-1.363-1.842-2.756-2.708-4.191C264.397,235.784,264.439,231.011,264.949,225.985z M266.521,244.791
						c-0.367,0.126-0.728,0.253-1.097,0.379c-0.148-0.864-0.279-1.742-0.39-2.632C265.519,243.299,266.016,244.05,266.521,244.791z
						 M265.594,246.169c0.507-0.172,1.003-0.347,1.506-0.52c4.028,5.763,8.643,10.884,13.614,15.404
						c-2.786,0.674-5.591,1.28-8.411,1.817c-0.12-0.174-0.253-0.334-0.37-0.511C268.888,257.778,266.765,252.323,265.594,246.169z
						 M272.948,263.76c2.907-0.562,5.796-1.198,8.668-1.904c5.103,4.527,10.56,8.432,16.139,11.742
						c-3.319,1.004-6.653,1.954-10.008,2.818C282.129,273.313,276.93,269.192,272.948,263.76z M312.181,284.579
						c1.892-0.502,3.777-1.035,5.655-1.596c3.529,1.245,6.991,2.27,10.321,3.075C323.099,286.058,317.765,285.561,312.181,284.579z
						 M352.253,281.506c-6.012,2.561-12.694,4.033-19.979,4.435c-4.061-0.801-8.373-1.943-12.805-3.444
						c5.981-1.848,11.873-4.003,17.654-6.431c6.436,1.699,12.965,2.825,19.458,3.305
						C355.163,280.147,353.727,280.878,352.253,281.506z M358.171,278.488c-6.507-0.378-13.061-1.436-19.53-3.063
						c6.243-2.686,12.345-5.705,18.27-9.031c4.641,1.147,8.966,1.76,12.837,1.76c0.347,0,0.678-0.023,1.019-0.033
						C366.998,272.228,362.764,275.749,358.171,278.488z M371.713,267.089c-3.995,0.232-8.554-0.269-13.51-1.414
						c8.636-4.935,16.873-10.542,24.606-16.738c0.062-0.009,0.123-0.02,0.185-0.029C380.166,255.67,376.319,261.836,371.713,267.089
						z M383.78,246.885c-0.46,0.377-0.932,0.739-1.395,1.111c-7.188,1.009-14.944,0.179-22.939-2.044
						c3.062-2.17,5.92-4.398,8.616-6.716c3.245-2.79,6.218-5.695,8.924-8.702c2.59,0.391,5.042,0.608,7.309,0.608
						c1.238,0,2.414-0.073,3.547-0.193c-0.338,2.392-0.77,4.751-1.314,7.069C385.813,241.06,384.876,244.015,383.78,246.885z"/>
				</g>
			</g>
			<g>
				<g>
					<path style="fill:#D32D68;" d="M139.868,121.364l-13.482-0.463c-1.127-0.039-2.042,0.922-2.02,2.137l0.178,9.503
						c0.021,1.136,0.93,1.947,2.007,1.822l5.319-0.615l1.619,5.003l1.663-5.382l4.373-0.506c0.771-0.089,1.41-0.916,1.442-1.854
						l0.268-7.797C141.269,122.221,140.664,121.391,139.868,121.364z M136.877,127.268l-0.655,0.791l-2.655,3.207l-2.768-2.931
						l-0.741-0.785c-0.826-0.875-0.831-2.36-0.003-3.286l0,0c0.818-0.913,2.113-0.904,2.884-0.009l0.693,0.803l0.698-0.807
						c0.751-0.868,1.922-0.86,2.61-0.008l0,0C137.612,125.073,137.581,126.417,136.877,127.268z"/>
					<path style="fill:#FFFFFF;" d="M136.94,124.241c-0.688-0.851-1.859-0.86-2.61,0.008l-0.698,0.807l-0.693-0.803
						c-0.772-0.895-2.066-0.904-2.884,0.009l0,0c-0.829,0.926-0.824,2.411,0.003,3.286l0.741,0.785l2.768,2.931l2.655-3.207
						l0.655-0.791C137.581,126.417,137.612,125.073,136.94,124.241L136.94,124.241z"/>
				</g>
				<g>
					<g>
						<path style="fill:#F1C3C9;" d="M175.411,178.358l-13.776,3.729c-1.743,0.472-3.066,1.895-3.41,3.668l-1.367,7.052
							c-0.281,1.45,0.131,2.948,1.114,4.051l1.492,1.674c1.334,1.497,3.412,2.089,5.335,1.52l15.863-4.693L175.411,178.358z"/>
					</g>
					<g>
						<g>
							<g>
								<path style="fill:#09090C;" d="M213.149,149.301c0.34-0.577,0.658-1.165,0.966-1.758l-0.041-0.184l-17.871,8.5l0.443,4.462
									c2.883,0.015,5.788-0.848,8.279-2.333C208.387,155.924,211.102,152.772,213.149,149.301z"/>
								<path style="fill:#F1C3C9;" d="M214.115,147.543c-0.308,0.593-0.626,1.182-0.966,1.758
									c-2.047,3.471-4.763,6.623-8.224,8.687c-2.491,1.485-5.396,2.348-8.279,2.333l1.097,11.038l12.978,3.5l8.868-2.875
									L214.115,147.543z"/>
							</g>
							<path style="fill:#ECA8B2;" d="M172.911,130.733l-2.448,11.308c-0.273,1.261,0.754,2.426,2.039,2.313l5.659-0.496
								L172.911,130.733z"/>
							<circle style="fill:#F1C3C9;" cx="199.354" cy="130.134" r="27.875"/>
							<path style="fill:#593742;" d="M217.553,153.096c-0.012-1.104,0.027-2.16,0.015-3.263c-1.333,1.625-2.563,3.551-3.895,5.176
								c-1.79-1.341-3.352-3.061-4.462-5.003c0.126,1.354,0.25,2.635,0.376,3.99c-5.637-2.544-10.028-6.748-12.947-12.2
								c-3.699,0.842-7.784-0.254-10.565-2.835c-2.78-2.581-3.992-6.849-3.427-10.601c-2.723-2.9-4.298-6.851-4.317-10.829
								c-3.051,2.593-8.674,1.777-11.557-1.001c-2.883-2.778-3.654-7.338-2.372-11.131c1.282-3.793,4.375-6.805,7.97-8.567
								c6.365-3.119,14.445-2.374,20.132,1.856c7.391-2.195,15.497-3.973,22.821-1.563c5.869,1.931,10.51,6.662,13.476,12.083
								c3.983,7.281,5.238,16.013,3.466,24.12C230.495,141.436,224.209,148.14,217.553,153.096z"/>
							<g>
								<path style="fill:#F1C3C9;" d="M203.275,134.572c0.591,5.043-2.912,9.598-7.824,10.174s-9.373-3.046-9.964-8.089
									s2.912-9.598,7.824-10.174S202.684,129.529,203.275,134.572z"/>
								<path style="fill:#ECA8B2;" d="M198.22,135.164c0.255,2.177-1.257,4.143-3.377,4.392s-4.046-1.315-4.301-3.492
									c-0.255-2.177,1.257-4.143,3.377-4.392C196.039,131.424,197.965,132.987,198.22,135.164z"/>
							</g>
							<g>
								<path style="fill:#422831;" d="M212.408,116.776c-2.535-3.757-6.675-5.709-10.606-5.563
									c4.926,5.066,8.949,11.018,11.814,17.478C215.217,125.098,214.95,120.529,212.408,116.776z"/>
							</g>
							<g>
								<path style="fill:#422831;" d="M219.067,112.745c-2.315-1.638-5.09-2.143-7.668-1.633l11.759,8.321
									C222.781,116.832,221.382,114.383,219.067,112.745z"/>
							</g>
							<g>
								<path style="fill:#422831;" d="M172.138,102.796c-2.116,2.232-2.923,5.207-2.462,7.912c3.032-3.934,6.465-7.56,10.229-10.8
									C177.179,99.594,174.252,100.562,172.138,102.796z"/>
							</g>
						</g>
						<g>
							<g>
								<g>
									<path style="fill:#23386B;" d="M237.379,445.192h-27.333l-9.657,5.766c-1.003,0.599-2.071,1.082-3.182,1.442l-0.576,0.186
										c-3.298,1.065-6.081,3.181-7.989,5.94h50.178L237.379,445.192z"/>
									<path style="fill:#D6D6D6;" d="M188.642,458.525c-1.162,1.681-2,3.6-2.429,5.667h53.22l-0.612-5.667H188.642z"/>
								</g>
								<polygon style="fill:#090A10;" points="210.046,445.192 237.379,445.192 237.778,448.878 203.871,448.878 								"/>
							</g>
							<g>
								<path style="fill:#566CF9;" d="M198.044,262.046l-2.833,27.407c-0.307,3.768,0.314,7.554,1.81,11.027l0,0
									c1.245,2.889,1.886,6.001,1.886,9.146l10.692,124.232h27.333l1.237-24.743c0.837-16.74-0.893-33.509-5.128-49.725
									l-0.226-0.865l2.758-54.333c0,0,6.168-9.016,6.471-14.472l2-26.674L198.044,262.046z"/>
								<rect x="207.011" y="433.858" style="fill:#92AAFF;" width="32.421" height="11.333"/>
								<path style="fill:#617CFF;" d="M219.521,278.275l3.24,0.294c3.952,0.359,7.92,0.319,11.868-0.12l1.567-0.174l-0.758,13.96
									c-0.091,1.683-0.85,3.187-2.006,3.977l-4.564,3.118c-1.162,0.794-2.561,0.754-3.695-0.105l-3.782-2.867
									c-1.158-0.878-1.87-2.481-1.87-4.213V278.275z"/>
								<rect x="216.266" y="433.858" style="fill:#3E58D6;" width="2.875" height="11.333"/>
							</g>
							<polygon style="fill:#3E58D6;" points="207.423,304.192 229.036,301.733 212.411,307.733 207.423,330.358 203.938,368.077 
								201.558,340.428 							"/>
						</g>
						<g>
							<g>
								<path style="fill:#566CF9;" d="M169.756,261.358l-2.696,28.095c-0.307,3.768,0.314,7.554,1.81,11.027l0,0
									c1.245,2.889,1.886,6.001,1.886,9.146v124.232h27.333l2.779-25.528c1.691-15.537,0.752-31.247-2.779-46.472l0,0
									l9.333-57.667v0c3.864-3.864,6.168-9.016,6.471-14.472l1.863-27.361L169.756,261.358z"/>
								<rect x="168.168" y="433.858" style="fill:#92AAFF;" width="32.421" height="11.333"/>
								<rect x="177.423" y="433.858" style="fill:#3E58D6;" width="2.875" height="11.333"/>
								<path style="fill:#617CFF;" d="M186.256,278.275l4.178,0.294c5.096,0.359,10.212,0.319,15.301-0.12l2.021-0.174
									l-0.977,13.96c-0.118,1.683-1.096,3.187-2.587,3.977l-5.884,3.118c-1.499,0.794-3.302,0.754-4.765-0.105l-4.877-2.867
									c-1.493-0.878-2.41-2.481-2.41-4.213V278.275z"/>
							</g>
							<g>
								<g>
									<path style="fill:#23386B;" d="M198.536,445.192h-27.333l-9.657,5.766c-1.003,0.599-2.071,1.082-3.182,1.442l-0.576,0.186
										c-3.298,1.065-6.081,3.181-7.989,5.94h50.178L198.536,445.192z"/>
									<path style="fill:#FFFFFF;" d="M149.799,458.525c-1.162,1.681-2,3.6-2.429,5.667h53.22l-0.612-5.667H149.799z"/>
								</g>
								<polygon style="fill:#090A10;" points="171.203,445.192 198.536,445.192 198.935,448.878 165.028,448.878 								"/>
							</g>
							<polygon style="fill:#3E58D6;" points="204.036,304.483 192.745,304.483 181.286,301.733 192.036,308.733 							"/>
						</g>
						<g>
							<path style="fill:#23386B;" d="M243.044,185.43l0.99,3.96c1.711-4.224,2.196-8.901,1.294-13.477v0
								c-0.854-4.33-4.276-7.693-8.62-8.472l-3.656,1.917l3.656,30.524l3.111-3.67l-1.405-15.913
								C240.715,181.133,242.451,183.056,243.044,185.43z"/>
							<path style="fill:#182949;" d="M244.034,189.39l-0.99-3.96c-0.594-2.374-2.329-4.297-4.63-5.13l1.405,15.913l0.339-0.4
								C241.805,193.87,243.099,191.697,244.034,189.39z"/>
						</g>
						<g>
							<path style="fill:#23386B;" d="M191.075,164.705l15.089,5.065c5.266,1.768,11.011,1.431,16.035-0.94h0
								c4.528-2.137,9.659-2.628,14.51-1.39l0.328,0.084l2.5,23.182l4.906,64.901l2.667,15.667l-20.122,2.403
								c-15.096,2.991-30.568,3.592-45.851,1.783l-10.718-1.269l-4.428-1.41c1.447-10,2.154-12.551,3.932-19.398l12.6-48.525
								L191.075,164.705z"/>
							<path style="fill:#182949;" d="M199.354,183.662l-6.067,39.697h-4.25l-3.528,11.916c-1.771,5.98-7.264,10.084-13.502,10.084
								l0,0l15.42-63.525L199.354,183.662z"/>
							<g>
								<g>
									<path style="fill:#182949;" d="M237.984,263.35c-8.095,1.427-18.548,3.197-29.101,4.111
										c-10.548,0.964-21.149,1.067-29.369,1.092c7.983,1.933,18.86,2.836,29.631,1.848
										C219.921,269.472,230.467,266.662,237.984,263.35L237.984,263.35L237.984,263.35z"/>
								</g>
								<g>
									<path style="fill:#182949;" d="M230.891,256.236c-3.643,1.262-8.324,2.965-13.081,4.441
										c-4.751,1.493-9.569,2.759-13.282,3.795c3.851-0.123,8.871-0.956,13.695-2.473
										C223.054,260.5,227.655,258.327,230.891,256.236L230.891,256.236L230.891,256.236z"/>
								</g>
								<g>
									<path style="fill:#182949;" d="M197.246,249.006c3.538-0.587,7.575-1.725,11.669-3.498
										c4.096-1.765,8.241-4.161,12.032-7.033c3.787-2.878,7.211-6.225,10.013-9.694c2.811-3.465,4.993-7.046,6.511-10.296l0,0
										c-2.251,2.799-4.904,5.919-7.954,9.008c-3.043,3.092-6.477,6.15-10.13,8.927c-3.658,2.769-7.528,5.253-11.326,7.351
										C204.267,245.877,200.547,247.592,197.246,249.006L197.246,249.006L197.246,249.006z"/>
								</g>
								<g>
									<path style="fill:#182949;" d="M218.864,232.281c-2.801-0.127-6.409-0.339-9.979-0.88
										c-3.572-0.523-7.086-1.372-9.801-2.068c2.47,1.322,5.999,2.53,9.653,3.064
										C212.388,232.952,216.116,232.826,218.864,232.281L218.864,232.281L218.864,232.281z"/>
								</g>
							</g>
						</g>
						<g>
							<g>
								<path style="fill:#090A10;" d="M164.791,182.485h-4.345l-17.945-33.67c-0.393-0.738-1.203-1.153-2.032-1.042l-13.516,1.817
									l-5.081-3.189l-2.286,4.583c-0.015,0.027-0.029,0.055-0.041,0.083l-0.001,0.002h0c-0.12,0.27-0.127,0.592,0.032,0.883
									l22.599,41.432c0.48,0.88,1.537,1.269,2.472,0.91l17.284-6.634c0.313-0.12,0.477-0.404,0.593-0.678L164.791,182.485z"/>
								<path style="fill:#23386B;" d="M122.593,145.919l20.149-2.709c0.828-0.111,1.638,0.304,2.031,1.042l19.955,37.441
									c0.283,0.53,0.037,1.189-0.524,1.404l-17.284,6.634c-0.936,0.359-1.993-0.03-2.473-0.909l-22.599-41.432
									C121.513,146.774,121.898,146.013,122.593,145.919z"/>
								<polygon style="fill:#7A97E2;" points="124.301,147.708 143.008,145.192 162.431,181.635 146.204,187.864 146.205,187.864 
																	"/>
							</g>
							<g>
								<g>
									<g>
										<path style="fill:#09090C;" d="M184.165,220.638l3.371-10.113l-18.833-8l-1.479,4.4
											C171.042,213.271,177.173,218.198,184.165,220.638z"/>
										<path style="fill:#F1C3C9;" d="M167.224,206.925l-3.422,10.183l-19.266-30.25l0.931-6.865
											c0.262-1.93-0.086-3.894-0.995-5.617l-3.436-6.517v-5.871c0-1.255-0.998-2.283-2.253-2.32
											c-1.148-0.034-2.148,0.777-2.352,1.908l-0.612,3.39c-0.185,1.023-0.09,2.077,0.276,3.051l1.207,3.217
											c0.153,0.408,0.181,0.853,0.08,1.277c-0.298,1.255-1.611,1.983-2.834,1.571l-2.742-0.924
											c-0.523-0.176-0.961-0.543-1.225-1.028l-8.374-15.352h0c-0.998,1.344-1.486,2.999-1.378,4.67l0.735,11.29
											c0.09,1.384,0.586,2.711,1.425,3.815l8.213,10.807l23.812,48.156c3.314,6.701,11.464,9.403,18.124,6.007h0
											c3.138-1.6,5.522-4.37,6.636-7.712l4.391-13.172C177.173,218.198,171.042,213.271,167.224,206.925z"/>
									</g>
									<path style="fill:#09090C;" d="M163.803,217.108l-3.766,10.875l-0.344-3.355c-0.434-4.233-0.148-8.509,0.846-12.646l0,0
										L163.803,217.108z"/>
								</g>
								<g>
									<path style="fill:#23386B;" d="M164.036,205.108L164.036,205.108c6.578,7.11,15.658,11.391,25.328,11.941l1.047,0.059
										l10.111-36.145c1.736-6.206-1.293-12.755-7.147-15.45h0c-6.992-3.219-15.24,0.245-17.836,7.491L164.036,205.108z"/>
									<g>
										<g>
											<path style="fill:#182949;" d="M189.869,211.708c-3.534-0.522-8.001-1.648-12.105-3.655
												c-4.122-1.97-7.778-4.771-10.383-7.217c1.939,2.997,5.522,6.324,9.824,8.373
												C181.483,211.307,186.316,212.049,189.869,211.708L189.869,211.708L189.869,211.708z"/>
										</g>
										<g>
											<path style="fill:#182949;" d="M191.198,205.331c-2.687,0.207-6.159,0.239-9.57-0.306
												c-3.415-0.519-6.712-1.605-9.209-2.619c2.179,1.581,5.522,3.042,9.06,3.576
												C185.012,206.549,188.641,206.174,191.198,205.331L191.198,205.331L191.198,205.331z"/>
										</g>
									</g>
								</g>
							</g>
						</g>
					</g>
				</g>
			</g>
		</g>
	</g>
</g>
</svg>
