<?xml version="1.0" encoding="utf-8"?>
<!-- Generator: Adobe Illustrator 27.5.0, SVG Export Plug-In . SVG Version: 6.00 Build 0)  -->
<svg version="1.1" xmlns="http://www.w3.org/2000/svg" xmlns:xlink="http://www.w3.org/1999/xlink" x="0px" y="0px"
	 viewBox="0 0 500 500" style="enable-background:new 0 0 500 500;" xml:space="preserve">
<g id="Background_Complete">
	<g>
		<rect y="382.398" style="fill:#EBEBEB;" width="500" height="0.25"/>
		<rect x="416.779" y="398.494" style="fill:#EBEBEB;" width="33.122" height="0.25"/>
		<rect x="322.527" y="401.208" style="fill:#EBEBEB;" width="8.693" height="0.25"/>
		<rect x="396.586" y="389.208" style="fill:#EBEBEB;" width="19.192" height="0.25"/>
		<rect x="52.459" y="390.889" style="fill:#EBEBEB;" width="43.193" height="0.25"/>
		<rect x="104.556" y="390.889" style="fill:#EBEBEB;" width="6.333" height="0.25"/>
		<rect x="131.471" y="395.111" style="fill:#EBEBEB;" width="93.676" height="0.25"/>
		<path style="fill:#EBEBEB;" d="M237.014,337.8H43.915c-3.147,0-5.708-2.561-5.708-5.708V60.66c0-3.147,2.561-5.708,5.708-5.708
			h193.099c3.146,0,5.707,2.561,5.707,5.708v271.432C242.721,335.239,240.16,337.8,237.014,337.8z M43.915,55.203
			c-3.01,0-5.458,2.448-5.458,5.458v271.432c0,3.01,2.448,5.458,5.458,5.458h193.099c3.009,0,5.457-2.448,5.457-5.458V60.66
			c0-3.009-2.448-5.458-5.457-5.458H43.915z"/>
		<path style="fill:#EBEBEB;" d="M453.31,337.8H260.212c-3.147,0-5.707-2.561-5.707-5.708V60.66c0-3.147,2.561-5.708,5.707-5.708
			H453.31c3.148,0,5.708,2.561,5.708,5.708v271.432C459.019,335.239,456.458,337.8,453.31,337.8z M260.212,55.203
			c-3.009,0-5.457,2.448-5.457,5.458v271.432c0,3.01,2.448,5.458,5.457,5.458H453.31c3.01,0,5.458-2.448,5.458-5.458V60.66
			c0-3.009-2.448-5.458-5.458-5.458H260.212z"/>
	</g>
	<g>
		<g>
			<path style="fill:#EBEBEB;" d="M277.728,160.692l-0.45-13.141l8.068-2.636c0.332-4.49,1.082-8.924,2.151-13.196l-6.838-5.042
				l4.645-12.343l8.458,0.681c2.016-3.991,4.385-7.788,7.04-11.35l-4.381-7.313l9.008-9.611l7.562,3.872
				c3.406-2.895,6.996-5.516,10.84-7.834l-1.225-8.394l11.998-5.445l5.497,6.442c4.188-1.359,8.527-2.375,13.016-3.049l2.044-8.228
				l13.176-0.451l2.602,8.069c4.525,0.365,8.924,1.082,13.195,2.151l5.078-6.805l12.342,4.611l-0.682,8.459
				c3.992,2.05,7.788,4.418,11.35,7.074l7.278-4.38l9.646,8.971l-3.871,7.596c2.893,3.372,5.516,6.998,7.801,10.842l8.392-1.259
				l5.479,11.996l-6.476,5.498c1.358,4.189,2.411,8.562,3.049,13.018l8.264,2.076l0.45,13.141l-8.102,2.639
				c-0.331,4.523-1.083,8.924-2.151,13.195l6.837,5.042l-4.645,12.344l-8.458-0.683c-2.016,3.991-4.385,7.788-7.04,11.35
				l4.382,7.313l-9.009,9.612l-7.561-3.873c-3.372,2.894-6.997,5.518-10.839,7.836l1.259,8.391l-11.998,5.445l-5.532-6.441
				c-4.188,1.359-8.527,2.375-13.017,3.049l-2.044,8.228l-13.176,0.451l-2.603-8.069c-4.525-0.365-8.923-1.083-13.194-2.151
				l-5.043,6.804l-12.342-4.611l0.648-8.456c-3.993-2.05-7.754-4.421-11.35-7.076l-7.279,4.382l-9.645-8.973l3.87-7.596
				c-2.893-3.372-5.516-6.998-7.8-10.842l-8.392,1.26l-5.479-11.997l6.477-5.498c-1.359-4.188-2.41-8.526-3.049-13.016
				L277.728,160.692z M366.525,203.263c28.778-0.986,51.313-25.12,50.327-53.899c-0.987-28.813-25.121-51.346-53.899-50.36
				s-51.313,25.118-50.326,53.931C313.613,181.714,337.747,204.249,366.525,203.263z"/>
		</g>
		<g>
			<path style="fill:#F5F5F5;" d="M119.774,316.435l-0.203-5.925l3.638-1.189c0.15-2.024,0.488-4.024,0.97-5.95l-3.083-2.274
				l2.094-5.565l3.814,0.307c0.909-1.8,1.977-3.512,3.174-5.118l-1.975-3.297l4.062-4.334l3.41,1.746
				c1.536-1.305,3.154-2.487,4.888-3.533l-0.552-3.785l5.41-2.455l2.479,2.905c1.889-0.613,3.845-1.071,5.869-1.375l0.922-3.71
				l5.941-0.204l1.173,3.638c2.04,0.165,4.024,0.488,5.95,0.97l2.29-3.068l5.565,2.079l-0.308,3.814
				c1.8,0.924,3.512,1.992,5.118,3.19l3.282-1.975l4.349,4.045l-1.746,3.425c1.304,1.521,2.487,3.155,3.517,4.889l3.784-0.568
				l2.471,5.409l-2.92,2.479c0.612,1.889,1.087,3.861,1.375,5.87l3.726,0.936l0.203,5.925l-3.653,1.19
				c-0.149,2.04-0.488,4.024-0.97,5.949l3.083,2.274l-2.094,5.566l-3.814-0.308c-0.909,1.8-1.977,3.512-3.174,5.118l1.976,3.297
				l-4.062,4.334l-3.409-1.746c-1.52,1.305-3.155,2.488-4.888,3.533l0.568,3.784l-5.41,2.455l-2.494-2.904
				c-1.889,0.613-3.845,1.071-5.87,1.375l-0.921,3.71l-5.941,0.203l-1.174-3.638c-2.04-0.165-4.023-0.488-5.95-0.97l-2.274,3.068
				l-5.565-2.079l0.292-3.813c-1.801-0.924-3.496-1.993-5.118-3.191l-3.282,1.976l-4.349-4.046l1.745-3.425
				c-1.304-1.521-2.487-3.155-3.517-4.889l-3.784,0.568l-2.471-5.41l2.921-2.479c-0.613-1.888-1.087-3.845-1.375-5.869
				L119.774,316.435z M159.813,335.63c12.976-0.445,23.137-11.327,22.693-24.303c-0.445-12.992-11.327-23.152-24.304-22.708
				c-12.976,0.445-23.138,11.326-22.692,24.318C135.955,325.914,146.837,336.075,159.813,335.63z"/>
		</g>
		<g>
			<path style="fill:#EBEBEB;" d="M117.693,96.041l-3.314-3.095l1.325-2.61c-1.014-1.176-1.912-2.44-2.693-3.742l-2.897,0.438
				l-1.877-4.142l2.229-1.896c-0.482-1.465-0.83-2.968-1.051-4.484l-2.851-0.715l-0.147-4.54l2.788-0.9
				c0.125-1.536,0.361-3.051,0.733-4.553l-2.345-1.748l1.598-4.253l2.911,0.23c0.69-1.353,1.5-2.659,2.43-3.917l-1.508-2.505
				l3.103-3.323l2.602,1.333c1.193-1.014,2.44-1.912,3.742-2.693l-0.421-2.898l4.134-1.885l1.896,2.229
				c1.473-0.474,2.976-0.822,4.493-1.043l0.707-2.843l4.54-0.164l0.908,2.796c1.528,0.117,3.051,0.361,4.546,0.742l1.739-2.353
				l4.261,1.589l-0.238,2.92c1.353,0.69,2.676,1.5,3.918,2.431l2.521-1.509l3.314,3.095l-1.332,2.619
				c1.022,1.184,1.912,2.44,2.693,3.742l2.897-0.438l1.877,4.143l-2.229,1.896c0.482,1.465,0.83,2.968,1.051,4.484l2.852,0.715
				l0.147,4.541l-2.788,0.899c-0.117,1.528-0.361,3.052-0.732,4.554l2.353,1.739l-1.598,4.253l-2.92-0.222
				c-0.69,1.353-1.5,2.659-2.43,3.918l1.508,2.505l-3.103,3.323l-2.602-1.333c-1.192,1.014-2.44,1.912-3.742,2.693l0.429,2.889
				l-4.134,1.885l-1.904-2.22c-1.473,0.474-2.969,0.813-4.493,1.042l-0.706,2.843l-4.54,0.164l-0.908-2.796
				c-1.528-0.117-3.051-0.361-4.546-0.742l-1.739,2.354l-4.261-1.589l0.239-2.92c-1.352-0.69-2.667-1.491-3.918-2.43L117.693,96.041
				z M141.309,76.91c2.438-2.611,2.298-6.706-0.313-9.144c-2.614-2.441-6.709-2.301-9.147,0.31
				c-2.438,2.611-2.298,6.705,0.316,9.147C134.776,79.661,138.871,79.521,141.309,76.91z"/>
		</g>
		<path style="fill:#EBEBEB;" d="M209.38,311.023l7.562-5.223c0.002-0.006,0.002-0.013,0.004-0.018
			c0.748-2.747,1.78-5.392,3.041-7.877l-1.937-7.604l10.969-11.748l7.721,1.414c2.391-1.427,4.957-2.636,7.645-3.57
			c0.006-0.002,0.013-0.003,0.019-0.006l4.695-7.905l16.062-0.55l5.223,7.562c0.01,0.003,0.02,0.005,0.03,0.007
			c2.745,0.748,5.386,1.777,7.869,3.037l7.6-1.937l11.747,10.97l-1.411,7.706c0.002,0.003,0.003,0.004,0.004,0.007
			c1.457,2.418,2.638,4.986,3.572,7.674l7.904,4.693l0.55,16.063l-7.569,5.227c-0.747,2.766-1.747,5.404-3.033,7.911
			c-0.001,0.001-0.001,0.001-0.001,0.003l1.932,7.58l-10.969,11.746l-7.673-1.404c-2.422,1.432-4.991,2.643-7.712,3.578
			c-0.002,0.001-0.004,0.002-0.007,0.002l-4.687,7.894l-16.062,0.55l-5.219-7.557c-2.777-0.747-5.423-1.778-7.935-3.041
			c-0.001,0-0.001,0-0.002-0.001l-7.566,1.928l-11.747-10.968l1.411-7.707c-1.457-2.418-2.638-4.987-3.572-7.675
			c0,0,0-0.001-0.001-0.001l-7.906-4.695L209.38,311.023z M259.437,335.44c9.985-0.342,17.785-8.725,17.443-18.681
			c-0.342-9.985-8.696-17.786-18.681-17.444c-9.985,0.342-17.786,8.696-17.443,18.681
			C241.097,327.953,249.452,335.782,259.437,335.44z"/>
		<path style="fill:#EBEBEB;" d="M74.1,120.952c-0.372,0-0.721-0.183-0.934-0.49l-2.79-4.04c-1.361-0.391-2.71-0.908-4.023-1.542
			l-3.978,1.013c-0.376,0.094-0.772-0.007-1.054-0.271l-6.805-6.354c-0.283-0.264-0.411-0.653-0.342-1.033l0.741-4.049
			c-0.701-1.215-1.308-2.521-1.809-3.892l-4.229-2.512c-0.333-0.197-0.542-0.55-0.555-0.937l-0.319-9.306
			c-0.013-0.387,0.171-0.753,0.489-0.973l4.044-2.793c0.385-1.338,0.906-2.693,1.542-4.001l-1.019-3.997
			c-0.095-0.375,0.007-0.772,0.27-1.055l6.354-6.806c0.264-0.283,0.653-0.409,1.034-0.342l4.059,0.743
			c1.246-0.715,2.549-1.323,3.883-1.812l2.511-4.228c0.197-0.332,0.55-0.541,0.937-0.554l9.305-0.319
			c0.385-0.007,0.753,0.171,0.972,0.489l2.794,4.045c1.38,0.401,2.717,0.917,4.002,1.542l3.995-1.019
			c0.374-0.094,0.772,0.006,1.055,0.271l6.805,6.355c0.283,0.264,0.411,0.653,0.342,1.033l-0.742,4.05
			c0.713,1.236,1.315,2.534,1.812,3.893l4.227,2.509c0.332,0.197,0.542,0.55,0.555,0.937l0.319,9.306
			c0.013,0.387-0.171,0.753-0.489,0.973l-4.047,2.795c-0.404,1.406-0.919,2.752-1.536,4.013l1.014,3.983
			c0.095,0.374-0.007,0.771-0.27,1.054l-6.354,6.805c-0.264,0.283-0.653,0.411-1.034,0.342l-4.033-0.738
			c-1.269,0.723-2.582,1.332-3.914,1.815l-2.505,4.219c-0.197,0.333-0.55,0.542-0.937,0.555l-9.305,0.319
			C74.126,120.952,74.113,120.952,74.1,120.952z M66.479,112.543c0.176,0,0.35,0.041,0.51,0.121c1.425,0.716,2.899,1.282,4.383,1.68
			c0.26,0.07,0.486,0.229,0.639,0.451l2.671,3.868l8.065-0.276l2.398-4.039c0.144-0.243,0.372-0.42,0.633-0.503
			c1.444-0.497,2.869-1.16,4.236-1.968c0.235-0.139,0.513-0.188,0.782-0.14l3.835,0.702l5.508-5.898l-0.966-3.791
			c-0.068-0.268-0.036-0.552,0.09-0.798c0.692-1.35,1.254-2.817,1.672-4.363c0.07-0.259,0.23-0.485,0.451-0.638l3.875-2.676
			l-0.276-8.066l-4.045-2.401c-0.23-0.137-0.405-0.351-0.492-0.604c-0.521-1.499-1.178-2.915-1.954-4.207
			c-0.156-0.242-0.214-0.535-0.162-0.818l0.706-3.854l-5.898-5.508l-3.802,0.969c-0.267,0.067-0.549,0.037-0.794-0.088
			c-1.393-0.707-2.854-1.271-4.343-1.677c-0.258-0.07-0.501-0.234-0.653-0.454l-2.673-3.871l-8.065,0.276l-2.403,4.046
			c-0.106,0.178-0.259,0.324-0.442,0.421c-0.072,0.039-0.158,0.073-0.237,0.095c-1.393,0.486-2.812,1.149-4.155,1.951
			c-0.236,0.142-0.515,0.192-0.786,0.142l-3.863-0.707l-5.508,5.898l0.969,3.804c0.068,0.267,0.037,0.549-0.088,0.794
			c-0.709,1.396-1.273,2.859-1.679,4.348c-0.07,0.258-0.232,0.494-0.452,0.646l-3.87,2.673l0.276,8.066l4.047,2.403
			c0.23,0.137,0.404,0.35,0.492,0.603c0.525,1.511,1.188,2.936,1.97,4.234c0.143,0.237,0.194,0.518,0.144,0.79l-0.705,3.855
			l5.898,5.507l3.782-0.964C66.29,112.554,66.385,112.543,66.479,112.543z M99.446,78.383h0.01H99.446z M77.765,108.195
			c-4.324,0-8.423-1.615-11.599-4.584c-3.319-3.103-5.232-7.309-5.388-11.844c-0.156-4.545,1.465-8.877,4.564-12.195
			c3.099-3.319,7.309-5.233,11.854-5.388c4.548-0.158,8.876,1.465,12.195,4.564c3.319,3.099,5.233,7.309,5.388,11.854
			c0.156,4.536-1.466,8.863-4.564,12.186c-3.102,3.326-7.312,5.243-11.854,5.398l0,0C78.162,108.191,77.963,108.195,77.765,108.195z
			 M77.794,76.442c-0.173,0-0.346,0.003-0.519,0.009c-3.939,0.135-7.588,1.793-10.273,4.669c-2.686,2.876-4.09,6.629-3.955,10.568
			c0.135,3.93,1.793,7.576,4.669,10.264c2.879,2.691,6.63,4.104,10.568,3.964l0,0c3.936-0.135,7.584-1.796,10.272-4.678
			c2.686-2.879,4.091-6.629,3.956-10.56c-0.135-3.939-1.793-7.588-4.669-10.273C85.094,77.839,81.543,76.442,77.794,76.442z"/>
	</g>
</g>
<g id="Background_Simple" style="display:none;">
	<g style="display:inline;">
		<path style="fill:#407BFF;" d="M218.549,195.184c50.92-46.844,140.317-218.046,216.145-124.124
			c63.455,78.596-15.843,192.552-67.52,240.826c-67.223,62.796-182.269,79.032-258.692,19.313
			c-32.87-25.685-52.163-69.955-8.95-91.777c14.574-7.36,42.667-4.077,59.657-10.004
			C180.934,221.833,201.508,210.862,218.549,195.184z"/>
		<path style="opacity:0.9;fill:#FFFFFF;" d="M218.549,195.184c50.92-46.844,140.317-218.046,216.145-124.124
			c63.455,78.596-15.843,192.552-67.52,240.826c-67.223,62.796-182.269,79.032-258.692,19.313
			c-32.87-25.685-52.163-69.955-8.95-91.777c14.574-7.36,42.667-4.077,59.657-10.004
			C180.934,221.833,201.508,210.862,218.549,195.184z"/>
	</g>
</g>
<g id="Shadow_1_">
	<ellipse id="_x3C_Path_x3E__203_" style="fill:#F5F5F5;" cx="250" cy="416.238" rx="193.889" ry="11.323"/>
</g>
<g id="Website">
	<g>
		<g>
			<path style="fill:#FFFFFF;" d="M416.413,324.868H83.587c-8.179,0-14.81-6.63-14.81-14.81V97.269c0-8.179,6.63-14.81,14.81-14.81
				h332.825c8.179,0,14.81,6.631,14.81,14.81v212.79C431.222,318.238,424.592,324.868,416.413,324.868z"/>
			<path style="fill:#407BFF;" d="M435.263,247.649h-1v-9.038h1V247.649z M435.263,231.55h-1v-18.662h1V231.55z"/>
			<path style="fill:#407BFF;" d="M416.413,325.409H83.587c-8.464,0-15.35-6.886-15.35-15.35V97.269
				c0-8.464,6.886-15.35,15.35-15.35h332.825c8.464,0,15.35,6.886,15.35,15.35v212.79
				C431.763,318.523,424.876,325.409,416.413,325.409z M83.587,82.999c-7.868,0-14.269,6.401-14.269,14.269v212.79
				c0,7.868,6.401,14.269,14.269,14.269h332.825c7.868,0,14.269-6.401,14.269-14.269V97.269c0-7.868-6.401-14.269-14.269-14.269
				H83.587z"/>
		</g>
		<path style="opacity:0.5;fill:#407BFF;" d="M189.803,274.747h-5.043v-1.081h5.043l0.09,1.081L189.803,274.747z M179.717,274.747
			h-5.043v-1.081h5.043V274.747z M169.631,274.747h-5.043v-1.081h5.043V274.747z M159.546,274.747h-5.043v-1.081h5.043V274.747z
			 M149.46,274.747h-5.043v-1.081h5.043V274.747z M139.375,274.747h-5.043v-1.081h5.043V274.747z M129.289,274.747h-5.043v-1.081
			h5.043V274.747z M119.204,274.747h-5.043v-1.081h5.043V274.747z M109.118,274.747h-5.043v-1.081h5.043V274.747z M99.033,274.747
			h-1.88c-1.157,0-2.265-0.261-3.292-0.776l0.484-0.966c0.876,0.439,1.82,0.661,2.808,0.661h1.88V274.747z M194.824,272.767
			l-0.738-0.79c1.149-1.073,1.85-2.523,1.975-4.084l1.078,0.086C196.993,269.809,196.171,271.51,194.824,272.767z M90.284,270.035
			c-0.326-0.844-0.491-1.735-0.491-2.648v-2.532h1.081v2.532c0,0.779,0.141,1.539,0.418,2.259L90.284,270.035z M197.162,262.895
			h-1.081v-5.043h1.081V262.895z M90.874,259.812h-1.081v-5.042h1.081V259.812z M197.162,252.809h-1.081v-5.043h1.081V252.809z
			 M90.874,249.727h-1.081v-5.042h1.081V249.727z M197.162,242.724h-1.081v-5.043h1.081V242.724z M90.874,239.641h-1.081v-5.043
			h1.081V239.641z M197.162,232.638h-1.081v-5.043h1.081V232.638z M90.874,229.556h-1.081v-5.043h1.081V229.556z M197.162,222.552
			h-1.081v-5.043h1.081V222.552z M90.874,219.47h-1.081v-5.042h1.081V219.47z M197.162,212.467h-1.081v-5.043h1.081V212.467z
			 M90.874,209.384h-1.081v-5.042h1.081V209.384z M197.162,202.381h-1.081v-5.043h1.081V202.381z M90.874,199.299h-1.081v-5.043
			h1.081V199.299z M197.162,192.295h-1.081v-5.042h1.081V192.295z M90.874,189.213h-1.081v-5.043h1.081V189.213z M197.162,182.21
			h-1.081v-5.043h1.081V182.21z M90.874,179.128h-1.081v-5.043h1.081V179.128z M197.162,172.124h-1.081v-5.043h1.081V172.124z
			 M90.874,169.042h-1.081v-5.043h1.081V169.042z M197.162,162.039h-1.081v-5.043h1.081V162.039z M90.874,158.956h-1.081v-5.042
			h1.081V158.956z M197.162,151.954h-1.081v-2.493c0-0.792-0.146-1.563-0.432-2.293l1.006-0.395c0.336,0.856,0.507,1.76,0.507,2.688
			V151.954z M90.897,148.918l-1.077-0.092c0.157-1.829,0.988-3.525,2.343-4.774l0.733,0.794
			C91.74,145.913,91.03,147.358,90.897,148.918z M192.578,143.827c-0.867-0.428-1.801-0.645-2.775-0.645h-1.92v-1.081h1.92
			c1.142,0,2.237,0.254,3.254,0.756L192.578,143.827z M182.839,143.183h-5.043v-1.081h5.043V143.183z M172.754,143.183h-5.043
			v-1.081h5.043V143.183z M162.668,143.183h-5.043v-1.081h5.043V143.183z M152.583,143.183h-5.043v-1.081h5.043V143.183z
			 M142.497,143.183h-5.043v-1.081h5.043V143.183z M132.412,143.183h-5.043v-1.081h5.043V143.183z M122.326,143.183h-5.043v-1.081
			h5.043V143.183z M112.241,143.183h-5.043v-1.081h5.043V143.183z M102.155,143.183h-5.003l-0.04-1.081h5.043V143.183z"/>
		<path style="fill:#407BFF;" d="M97.42,98.057c0,2.636-2.137,4.774-4.774,4.774s-4.774-2.137-4.774-4.774s2.137-4.774,4.774-4.774
			S97.42,95.421,97.42,98.057z"/>
		<path style="opacity:0.2;fill:#407BFF;" d="M128.765,100.849h-23.418c-1.536,0-2.792-1.257-2.792-2.792l0,0
			c0-1.536,1.257-2.792,2.792-2.792h23.418c1.536,0,2.792,1.257,2.792,2.792l0,0C131.557,99.593,130.301,100.849,128.765,100.849z"
			/>
		<path style="opacity:0.2;fill:#407BFF;" d="M241.662,99.588h-16.431c-0.846,0-1.531-0.686-1.531-1.531l0,0
			c0-0.846,0.686-1.531,1.531-1.531h16.431c0.846,0,1.531,0.686,1.531,1.531l0,0C243.193,98.903,242.508,99.588,241.662,99.588z"/>
		<path style="opacity:0.2;fill:#407BFF;" d="M278.533,99.588h-16.432c-0.846,0-1.531-0.686-1.531-1.531l0,0
			c0-0.846,0.686-1.531,1.531-1.531h16.432c0.846,0,1.531,0.686,1.531,1.531l0,0C280.064,98.903,279.379,99.588,278.533,99.588z"/>
		<path style="opacity:0.2;fill:#407BFF;" d="M315.404,99.588h-16.432c-0.846,0-1.531-0.686-1.531-1.531l0,0
			c0-0.846,0.686-1.531,1.531-1.531h16.432c0.846,0,1.531,0.686,1.531,1.531l0,0C316.935,98.903,316.25,99.588,315.404,99.588z"/>
		<path style="opacity:0.2;fill:#407BFF;" d="M352.275,99.588h-16.431c-0.846,0-1.531-0.686-1.531-1.531l0,0
			c0-0.846,0.686-1.531,1.531-1.531h16.431c0.846,0,1.531,0.686,1.531,1.531l0,0C353.806,98.903,353.121,99.588,352.275,99.588z"/>
		<path style="opacity:0.7;fill:#407BFF;" d="M399.456,100.76h-24.858c-1.493,0-2.703-1.21-2.703-2.703l0,0
			c0-1.493,1.21-2.703,2.703-2.703h24.858c1.493,0,2.703,1.21,2.703,2.703l0,0C402.159,99.55,400.949,100.76,399.456,100.76z"/>
		<path style="opacity:0.7;fill:#407BFF;" d="M276.027,283.513h-46.572c-3.179,0-5.756-2.577-5.756-5.756v-1.261
			c0-3.179,2.577-5.756,5.756-5.756h46.572c3.179,0,5.756,2.577,5.756,5.756v1.261C281.784,280.936,279.206,283.513,276.027,283.513
			z"/>
		<g>
			<path style="opacity:0.2;fill:#407BFF;" d="M399.097,213.693V165.07c0-0.846,0.686-1.531,1.531-1.531l0,0
				c0.846,0,1.531,0.686,1.531,1.531v48.623c0,0.846-0.685,1.531-1.531,1.531l0,0C399.783,215.224,399.097,214.538,399.097,213.693z
				"/>
			<circle style="opacity:0.2;fill:#407BFF;" cx="400.628" cy="227.564" r="1.531"/>
			<circle style="opacity:0.2;fill:#407BFF;" cx="400.628" cy="249.181" r="1.531"/>
			<circle style="opacity:0.2;fill:#407BFF;" cx="400.628" cy="270.798" r="1.531"/>
		</g>
		<path style="opacity:0.2;fill:#407BFF;" d="M354.438,167.196H235.976c-6.752,0-12.277-5.525-12.277-12.277v0
			c0-6.752,5.525-12.277,12.277-12.277h118.462c6.752,0,12.277,5.525,12.277,12.277v0
			C366.715,161.671,361.19,167.196,354.438,167.196z"/>
		<path style="opacity:0.2;fill:#407BFF;" d="M310.958,202.838h-74.981c-6.752,0-12.277-5.525-12.277-12.277l0,0
			c0-6.752,5.525-12.277,12.277-12.277h74.981c6.752,0,12.277,5.525,12.277,12.277l0,0
			C323.234,197.314,317.71,202.838,310.958,202.838z"/>
		<path style="fill:#EBEBEB;" d="M333.036,231.55H226.571c-1.579,0-2.871-1.292-2.871-2.871l0,0c0-1.579,1.292-2.871,2.871-2.871
			h106.466c1.579,0,2.871,1.292,2.871,2.871l0,0C335.907,230.258,334.615,231.55,333.036,231.55z"/>
		<path style="fill:#EBEBEB;" d="M358.052,231.55h-10.891c-1.579,0-2.871-1.292-2.871-2.871l0,0c0-1.579,1.292-2.871,2.871-2.871
			h10.891c1.579,0,2.871,1.292,2.871,2.871l0,0C360.923,230.258,359.631,231.55,358.052,231.55z"/>
		<path style="fill:#EBEBEB;" d="M273.467,237.689h45.774c1.579,0,2.871,1.292,2.871,2.871l0,0c0,1.579-1.292,2.871-2.871,2.871
			h-45.774c-1.579,0-2.871-1.292-2.871-2.871l0,0C270.596,238.981,271.888,237.689,273.467,237.689z"/>
		<path style="fill:#EBEBEB;" d="M226.571,237.689h32.771c1.579,0,2.871,1.292,2.871,2.871l0,0c0,1.579-1.292,2.871-2.871,2.871
			h-32.771c-1.579,0-2.871-1.292-2.871-2.871l0,0C223.699,238.981,224.991,237.689,226.571,237.689z"/>
		<path style="fill:#EBEBEB;" d="M291.057,255.312h-64.487c-1.579,0-2.871-1.292-2.871-2.871l0,0c0-1.579,1.292-2.871,2.871-2.871
			h64.487c1.579,0,2.871,1.292,2.871,2.871l0,0C293.928,254.02,292.636,255.312,291.057,255.312z"/>
		<path style="fill:#EBEBEB;" d="M337.953,255.312h-32.771c-1.579,0-2.871-1.292-2.871-2.871l0,0c0-1.579,1.292-2.871,2.871-2.871
			h32.771c1.579,0,2.871,1.292,2.871,2.871l0,0C340.825,254.02,339.533,255.312,337.953,255.312z"/>
	</g>
</g>
<g id="Character_1_">
	<g>
		<path style="fill:#407BFF;" d="M219.857,256.123l-91.249,17.373c-3.635,0.692-7.143-1.694-7.835-5.329l-22.1-116.079
			c-0.692-3.635,1.694-7.143,5.329-7.835l91.249-17.373c3.635-0.692,7.143,1.694,7.835,5.329l22.1,116.079
			C225.878,251.923,223.492,255.431,219.857,256.123z"/>
		<g style="opacity:0.2;">
			<path style="fill:#FFFFFF;" d="M125.116,269.476c-0.08,0-0.16-0.019-0.235-0.059c-0.244-0.13-0.335-0.434-0.205-0.677
				l73.627-137.576c0.13-0.244,0.434-0.335,0.677-0.205c0.244,0.13,0.335,0.434,0.205,0.677l-73.627,137.576
				C125.467,269.38,125.294,269.476,125.116,269.476z"/>
			<path style="fill:#FFFFFF;" d="M221.444,251.136c-0.114,0-0.229-0.039-0.323-0.119L102.092,150.122
				c-0.211-0.179-0.237-0.494-0.058-0.705c0.178-0.211,0.494-0.237,0.705-0.058l119.029,100.896
				c0.211,0.179,0.237,0.494,0.058,0.705C221.727,251.076,221.586,251.136,221.444,251.136z"/>
		</g>
	</g>
	<g>
		<path style="fill:#407BFF;" d="M209.766,264.067c0,0,13.048,45.334,18.342,67.595c5.559,23.379,22.096,58.72,23.471,74.217
			c1.43,0.569,6.062-0.071,8.534-1.266c0,0-2.267-49.41-15.703-71.917c3.034-55.381-11.997-68.629-11.997-68.629H209.766z"/>
		<path style="opacity:0.1;" d="M226.669,286.838l-7.337,11.271c2.326,8.501,4.705,17.361,6.65,24.984
			C228.023,309.897,226.669,286.838,226.669,286.838z"/>
		<path style="fill:#FF8B7B;" d="M236.691,225.007c0.213,0.622,0.355,1.066,0.511,1.578c0.153,0.497,0.282,0.991,0.416,1.484
			c0.268,0.984,0.48,1.975,0.694,2.964c0.399,1.983,0.712,3.985,0.901,6.011c0.214,2.021,0.293,4.071,0.258,6.133
			c0.004,2.058-0.22,4.147-0.5,6.224l-0.046,0.339c-0.031,0.23-0.092,0.466-0.169,0.676c-0.487,1.313-1.204,2.424-1.988,3.289
			c-0.784,0.872-1.61,1.543-2.425,2.103c-1.63,1.097-3.255,1.748-4.824,2.266c-1.582,0.496-3.132,0.823-4.677,1.036
			c-1.565,0.204-3.034,0.314-4.684,0.27c-1.505-0.039-2.693-1.291-2.654-2.796c0.028-1.073,0.673-1.985,1.586-2.406l0.229-0.104
			c1.143-0.524,2.433-1.074,3.592-1.65c1.175-0.577,2.311-1.174,3.322-1.82c1.023-0.619,1.908-1.329,2.526-1.96
			c0.618-0.638,0.785-1.212,0.685-1.255l-0.214,1.015c0.03-1.652,0.024-3.306-0.105-4.991c-0.127-1.678-0.31-3.367-0.574-5.058
			c-0.271-1.688-0.566-3.382-0.942-5.061c-0.182-0.84-0.386-1.674-0.587-2.502l-0.315-1.226l-0.299-1.11l-0.077-0.288
			c-0.777-2.89,0.936-5.863,3.826-6.64C232.924,220.786,235.771,222.341,236.691,225.007z"/>
		<path style="fill:#FF8B7B;" d="M223.577,254.244l-6.531-1.862c-0.935-0.267-1.935-0.191-2.819,0.214l-2.44,1.117
			c-1.198,0.548-1.711,1.973-1.138,3.159l1.142,2.363c0.473,0.977,1.553,1.504,2.614,1.273l4.38-0.951c0,0,4.919,0.322,6.656-2.599
			L223.577,254.244z"/>
		<g>
			<path style="fill:#407BFF;" d="M229.493,215.836c-3.503,3.638-5.373,9.104-2.537,19.554c3.74,1.854,12.802-0.552,12.802-0.552
				S239.886,219.135,229.493,215.836z"/>
			<path style="opacity:0.7;fill:#FFFFFF;" d="M229.493,215.836c-3.503,3.638-5.373,9.104-2.537,19.554
				c3.74,1.854,12.802-0.552,12.802-0.552S239.886,219.135,229.493,215.836z"/>
		</g>
		<g>
			<path style="fill:#263238;" d="M235.836,223.127c-0.182,0.006-0.323,0.159-0.317,0.34c0.006,0.177,0.152,0.317,0.328,0.317
				c0.004,0,0.008,0,0.012-0.001l1.635-0.059c-0.094-0.217-0.192-0.432-0.294-0.646L235.836,223.127z"/>
			<path style="fill:#263238;" d="M235.458,229.593c-0.138-0.117-0.346-0.099-0.462,0.04c-0.117,0.139-0.099,0.346,0.04,0.463
				l4.703,3.958c-0.01-0.25-0.028-0.554-0.053-0.904L235.458,229.593z"/>
			<path style="fill:#407BFF;" d="M225.956,230.754l5.29-3.325c0.154-0.097,0.2-0.299,0.104-0.453
				c-0.097-0.154-0.3-0.199-0.453-0.104l-5.053,3.176C225.874,230.277,225.919,230.52,225.956,230.754z"/>
		</g>
		<path style="fill:#FF8B7B;" d="M220.527,200.188c-0.656,4.594-1.13,12.922,2.125,15.533c0,0-4.289-0.114-12.549,6.516
			c-3.046-3.394-1.268-4.815-1.268-4.815c4.9-1.805,4.594-5.501,3.562-8.881L220.527,200.188z"/>
		<path style="fill:#263238;" d="M207.558,194.583c-0.151,0.6-0.587,1.029-0.973,0.96c-0.387-0.069-0.578-0.612-0.427-1.211
			c0.151-0.6,0.586-1.029,0.973-0.96C207.518,193.442,207.709,193.984,207.558,194.583z"/>
		<path style="fill:#263238;" d="M207.294,193.436l-1.317-0.67C205.977,192.766,206.423,194.022,207.294,193.436z"/>
		<path style="fill:#FF5652;" d="M207.303,195.718c0,0-1.653,2.401-3.071,3.449c0.595,0.879,2.008,0.779,2.008,0.779
			L207.303,195.718z"/>
		<path style="fill:#263238;" d="M207.048,189.63c-0.038-0.081-0.046-0.173-0.014-0.26c0.066-0.178,0.275-0.264,0.467-0.192
			c1.92,0.725,2.353,2.301,2.37,2.369c0.049,0.189-0.07,0.372-0.267,0.409c-0.196,0.037-0.395-0.086-0.446-0.275
			c-0.016-0.062-0.37-1.281-1.897-1.857C207.163,189.787,207.088,189.715,207.048,189.63z"/>
		<path style="fill:#FF8B7B;" d="M227.635,195.901c-2.101,7.053-2.84,10.075-7.305,13.098c-6.715,4.547-14.913,0.917-14.96-6.501
			c-0.042-6.678,3.401-17.09,11.062-18.693C223.979,182.225,229.736,188.848,227.635,195.901z"/>
		<path style="fill:#263238;" d="M211.309,196.341c-4.178-2.969-2.143-8.425,1.691-8.591c-5-3.5-2.392-9.833,3.721-9.583
			s6.979,4,6.979,4s9.856,0.5,11.24,7.667c1.629,8.432-3.523,13.833-9.856,16.333c4.306,3.533-5.855,6.012-10.909,3.167
			C208.994,206.417,207.202,200.099,211.309,196.341z"/>
		<path style="fill:#FFFFFF;" d="M234.502,186.868c-5.376-0.994-8.071,6.438-4.572,10.78c0.61,0.757,1.216,1.308,1.8,1.701
			c2.192,1.475,5.171-0.036,5.386-2.669C237.406,193.109,237.403,187.404,234.502,186.868z"/>
		<path style="fill:#263238;" d="M249.094,190.669c0.396-0.298,0.659-0.671,0.71-1.143c0.229-2.1-1.362-3.462-3.277-3.762
			c-1.149-3.657-6-3.724-8.73-1.105c-2.233-1.14-4.72,1.369-4.416,3.989c-2.355,1.057-2.964,4.961-0.823,7.221
			c0.45,0.475,0.886,0.812,1.3,1.045c0.105,0.059,0.214,0.086,0.322,0.127c0.189,1.507,1.411,3.048,3.162,3.392
			c0.518,0.102,0.962,0.12,1.343,0.079c0.714-0.076,1.249-0.533,1.501-1.116c1.565,1.285,3.233,2.121,4.423,1.291
			c1.249-0.87,1.749-2.117,1.704-3.406c0.824,0.325,1.602,0.361,2.24-0.084C250.848,195.6,250.654,192.74,249.094,190.669z"/>
		<path style="fill:#FF8B7B;" d="M213.604,197.398c-0.872,1.41-2.166,2.21-3.307,2.404c-1.717,0.292-2.269-1.696-1.536-3.564
			c0.66-1.682,2.348-3.861,3.948-3.294C214.284,193.502,214.601,195.786,213.604,197.398z"/>
		<g>
			<path style="fill:#407BFF;" d="M211.309,192.167c1.469-2.806,9.524-10.479,14.885-10.195c1.388,0.375,2.521,0.916,3.164,1.262
				c0.177,0.095,0.125,0.356-0.074,0.38c-2.103,0.246-8.928,1.821-15.326,11.886C212.5,194.542,211.309,192.167,211.309,192.167z"/>
			<path style="fill:#FFFFFF;" d="M214.523,197.877c-1.292,2.874-3.886,4.508-5.793,3.651c-1.908-0.858-2.407-3.882-1.115-6.756
				c1.292-2.874,3.886-4.508,5.793-3.651C215.315,191.978,215.814,195.003,214.523,197.877z"/>
			<path style="fill:#407BFF;" d="M212.942,197.166c-1.167,2.595-3.402,4.119-4.993,3.404c-1.591-0.715-1.935-3.399-0.768-5.994
				c1.166-2.595,3.402-4.119,4.993-3.404C213.764,191.887,214.108,194.571,212.942,197.166z"/>
		</g>
		<path style="fill:#263238;" d="M247.265,416.207c5.618-0.833,5.726-1.767,8.739-2.823c2.579-0.91,3.305-0.779,5.386-1.482
			c1.739-0.586,1.149-2.242,0.005-4c-0.573-0.884-0.656-1.725-1.282-3.289l-8.534,1.266c-0.831,2.383-1.124,5.431-5.995,7.175
			C242.682,414.092,245.026,416.54,247.265,416.207z"/>
		<path style="fill:#263238;" d="M195.228,416.229c5.582-0.01,6.656-0.367,9.793-0.474c2.689-0.098,3.131,0.474,5.857,0.474
			c1.806,0,2.055-2.034,1.394-3.559c-0.515-1.188-0.593-2.609-0.968-4.151h-7.698c-1.389,2.44-5.174,4.246-9.406,4.548
			C191.177,413.291,192.993,416.229,195.228,416.229z"/>
		<path style="fill:#407BFF;" d="M201.754,264.067c0,0-1.113,40.165,1.266,65.671c-0.149,23.945,0.588,78.781,0.588,78.781
			c0.186,1.223,6.609,0.735,7.698,0c0,0,12.027-39.941,6.688-78.781c13.366-40.508,10.483-65.671,10.483-65.671H201.754z"/>
		<g>
			<path style="fill:#407BFF;" d="M250.459,402.775c0.09,0.778,0.22,2.139,0.172,3.199c-0.017,0.382,0.284,0.69,0.667,0.694
				c3.198,0.037,7.611-1.358,9.007-1.829c0.267-0.09,0.444-0.339,0.446-0.621l0.027-3.021c0.004-0.413-0.366-0.729-0.774-0.661
				l-8.996,1.512C250.661,402.107,250.419,402.423,250.459,402.775z"/>
			<path style="opacity:0.5;fill:#FFFFFF;" d="M250.459,402.775c0.09,0.778,0.22,2.139,0.172,3.199
				c-0.017,0.382,0.284,0.69,0.667,0.694c3.198,0.037,7.611-1.358,9.007-1.829c0.267-0.09,0.444-0.339,0.446-0.621l0.027-3.021
				c0.004-0.413-0.366-0.729-0.774-0.661l-8.996,1.512C250.661,402.107,250.419,402.423,250.459,402.775z"/>
		</g>
		<g>
			<path style="fill:#407BFF;" d="M202.726,405.144c-0.023,0.832-0.072,2.314-0.148,3.409c-0.025,0.362,0.244,0.682,0.608,0.732
				c2.724,0.375,7.068,0.035,8.493-0.094c0.282-0.026,0.506-0.23,0.559-0.507l0.573-2.982c0.078-0.407-0.239-0.801-0.658-0.818
				l-8.767-0.349C203.027,404.521,202.736,404.787,202.726,405.144z"/>
			<path style="opacity:0.5;fill:#FFFFFF;" d="M202.726,405.144c-0.023,0.832-0.072,2.314-0.148,3.409
				c-0.025,0.362,0.244,0.682,0.608,0.732c2.724,0.375,7.068,0.035,8.493-0.094c0.282-0.026,0.506-0.23,0.559-0.507l0.573-2.982
				c0.078-0.407-0.239-0.801-0.658-0.818l-8.767-0.349C203.027,404.521,202.736,404.787,202.726,405.144z"/>
		</g>
		<g>
			<path style="fill:#407BFF;" d="M196.666,230.407c0.276,3.003,0.62,6.805,1.913,13.896c0.98,6.016,1.701,11.884,3.125,21.806
				c13.781,1.447,29.997,0.28,30.708-2.042c-1.087-8.59-1.055-20.182,2.036-40.141c0.716-4.628-2.637-8.575-7.205-8.477
				c-1.221,0.026-2.512,0.081-3.832,0.18c-5.133,0.381-9.336,0.733-13.818,1.701c-1.485,0.321-3.018,0.701-4.481,1.091
				C199.834,219.827,196.172,225.025,196.666,230.407z"/>
			<path style="opacity:0.8;fill:#FFFFFF;" d="M196.666,230.407c0.276,3.003,0.62,6.805,1.913,13.896
				c0.98,6.016,1.701,11.884,3.125,21.806c13.781,1.447,29.997,0.28,30.708-2.042c-1.087-8.59-1.055-20.182,2.036-40.141
				c0.716-4.628-2.637-8.575-7.205-8.477c-1.221,0.026-2.512,0.081-3.832,0.18c-5.133,0.381-9.336,0.733-13.818,1.701
				c-1.485,0.321-3.018,0.701-4.481,1.091C199.834,219.827,196.172,225.025,196.666,230.407z"/>
		</g>
		<g>
			<path style="fill:#263238;" d="M199.135,222.389l1.602,2.011c0.065,0.081,0.161,0.124,0.257,0.124
				c0.072,0,0.144-0.023,0.204-0.072c0.142-0.113,0.166-0.319,0.053-0.461l-1.684-2.115
				C199.418,222.044,199.274,222.214,199.135,222.389z"/>
			<path style="fill:#407BFF;" d="M206.468,221.208c0.007,0,0.014,0.001,0.021,0.001c0.172,0,0.317-0.134,0.328-0.308l0.186-2.964
				c-0.225,0.056-0.445,0.114-0.669,0.171l-0.173,2.752C206.149,221.04,206.287,221.196,206.468,221.208z"/>
			<path style="fill:#407BFF;" d="M220.845,223.858c0.056,0.037,0.119,0.055,0.181,0.055c0.106,0,0.211-0.052,0.274-0.147
				c0.1-0.151,0.058-0.355-0.093-0.455l-8.409-5.554c-0.151-0.1-0.354-0.059-0.455,0.093c-0.1,0.151-0.059,0.355,0.093,0.455
				L220.845,223.858z"/>
			<path style="fill:#263238;" d="M206.499,225.72c-0.066,0.169,0.017,0.359,0.186,0.425l9.385,3.673
				c0.04,0.016,0.08,0.023,0.12,0.023c0.131,0,0.255-0.079,0.306-0.209c0.066-0.169-0.018-0.359-0.186-0.425l-9.385-3.673
				C206.756,225.466,206.565,225.55,206.499,225.72z"/>
			<path style="fill:#407BFF;" d="M201.078,242.425c0.055,0.036,0.117,0.053,0.178,0.053c0.107,0,0.213-0.053,0.276-0.15
				l5.468-8.465c0.098-0.152,0.055-0.356-0.098-0.454c-0.152-0.098-0.355-0.054-0.454,0.098l-5.468,8.465
				C200.882,242.124,200.925,242.327,201.078,242.425z"/>
			<path style="fill:#407BFF;" d="M198.402,235.032c0.064,0.06,0.144,0.089,0.225,0.089c0.088,0,0.175-0.035,0.24-0.104
				c0.124-0.132,0.117-0.34-0.015-0.464l-1.965-1.84c0.032,0.32,0.067,0.653,0.105,0.999L198.402,235.032z"/>
			<path style="fill:#407BFF;" d="M228.065,240.634c-0.17,0.063-0.258,0.251-0.196,0.421c0.049,0.133,0.175,0.216,0.309,0.216
				c0.038,0,0.076-0.006,0.113-0.02l4.157-1.52c0.022-0.238,0.047-0.484,0.07-0.725L228.065,240.634z"/>
			<path style="fill:#407BFF;" d="M226.287,233.858c0.06,0,0.12-0.017,0.174-0.05l7.209-4.531c0.039-0.283,0.077-0.563,0.117-0.85
				l-7.675,4.824c-0.153,0.097-0.2,0.299-0.103,0.453C226.07,233.804,226.177,233.858,226.287,233.858z"/>
			<path style="fill:#407BFF;" d="M221.366,235.123c-0.097-0.153-0.3-0.199-0.453-0.104l-8.532,5.363
				c-0.154,0.097-0.2,0.299-0.104,0.453c0.063,0.099,0.169,0.154,0.278,0.154c0.06,0,0.121-0.017,0.175-0.05l8.532-5.363
				C221.416,235.479,221.462,235.276,221.366,235.123z"/>
			<path style="fill:#263238;" d="M228.56,223.767c0.038,0,0.078-0.007,0.116-0.021c0.17-0.064,0.255-0.253,0.191-0.423l-2.953-7.83
				c-0.231,0.009-0.458,0.016-0.692,0.027l3.03,8.035C228.302,223.686,228.427,223.767,228.56,223.767z"/>
			<path style="fill:#407BFF;" d="M220.092,264.74c-0.151-0.101-0.355-0.059-0.455,0.093c-0.1,0.151-0.059,0.356,0.093,0.455
				l1.871,1.235c0.365-0.024,0.724-0.049,1.077-0.076L220.092,264.74z"/>
			<path style="fill:#407BFF;" d="M232.149,261.63l-7.282-2.85c-0.169-0.067-0.359,0.017-0.425,0.186
				c-0.066,0.169,0.017,0.359,0.186,0.425l7.59,2.97C232.192,262.123,232.172,261.873,232.149,261.63z"/>
			<path style="fill:#263238;" d="M201.376,263.802c0.028,0.202,0.056,0.399,0.085,0.604c0.12-0.052,0.213-0.152,0.209-0.291
				C201.664,263.95,201.531,263.801,201.376,263.802z"/>
			<path style="fill:#407BFF;" d="M201.286,253.738c0.094,0,0.187-0.04,0.251-0.117c0.117-0.139,0.099-0.346-0.04-0.463
				l-1.818-1.529c0.045,0.322,0.091,0.645,0.137,0.974l1.258,1.058C201.136,253.713,201.211,253.738,201.286,253.738z"/>
			<path style="fill:#263238;" d="M216.65,250.45c0.131,0,0.255-0.079,0.306-0.209c0.066-0.169-0.017-0.359-0.186-0.425
				l-9.383-3.676c-0.168-0.066-0.359,0.017-0.426,0.186c-0.066,0.169,0.017,0.359,0.186,0.425l9.383,3.676
				C216.57,250.443,216.61,250.45,216.65,250.45z"/>
			<path style="fill:#407BFF;" d="M214.476,254.79l-8.533,5.363c-0.153,0.097-0.2,0.299-0.103,0.453
				c0.062,0.099,0.169,0.154,0.278,0.154c0.06,0,0.12-0.017,0.174-0.05l8.533-5.363c0.153-0.097,0.2-0.299,0.103-0.453
				C214.832,254.74,214.628,254.695,214.476,254.79z"/>
			<path style="fill:#263238;" d="M222.354,252.241c0.062,0.099,0.169,0.154,0.278,0.154c0.06,0,0.12-0.017,0.174-0.05l8.533-5.363
				c0.153-0.097,0.2-0.299,0.103-0.453c-0.096-0.154-0.3-0.2-0.453-0.104l-8.533,5.363
				C222.303,251.885,222.257,252.087,222.354,252.241z"/>
			<path style="fill:#263238;" d="M212.685,265.044c-0.064-0.17-0.253-0.255-0.423-0.191c-0.169,0.064-0.255,0.253-0.191,0.423
				l0.549,1.456c0.235,0.003,0.471,0.006,0.705,0.008L212.685,265.044z"/>
		</g>
		<path style="fill:#FF8B7B;" d="M205.74,230.605c-0.076,0.653-0.139,1.114-0.219,1.644c-0.077,0.514-0.178,1.015-0.272,1.517
			c-0.194,1.001-0.414,1.989-0.646,2.975c-0.488,1.964-1.073,3.904-1.774,5.814c-0.678,1.916-1.49,3.8-2.41,5.646
			c-0.883,1.859-1.986,3.648-3.133,5.401l-0.207,0.317c-0.121,0.185-0.271,0.361-0.424,0.507c-1.833,1.735-3.492,2.891-5.204,4.095
			c-1.696,1.183-3.422,2.266-5.143,3.33c-1.735,1.045-3.477,2.061-5.245,3.028c-1.787,0.945-3.546,1.898-5.397,2.763
			c-1.36,0.636-2.978,0.049-3.614-1.311c-0.509-1.088-0.235-2.34,0.59-3.124l0.024-0.021c1.434-1.358,2.935-2.664,4.393-3.998
			l4.418-3.912c1.477-1.282,2.912-2.594,4.329-3.868c0.707-0.641,1.387-1.282,2.038-1.922l0.928-0.937
			c0.299-0.305,0.52-0.58,0.786-0.866l-0.631,0.823c0.739-1.478,1.446-2.973,2.055-4.549c0.608-1.569,1.171-3.172,1.662-4.812
			c0.485-1.639,0.943-3.297,1.334-4.972c0.199-0.836,0.389-1.674,0.554-2.509l0.444-2.374l0.057-0.304
			c0.55-2.941,3.381-4.88,6.322-4.329C204.166,225.18,206.058,227.807,205.74,230.605z"/>
		<path style="fill:#FF8B7B;" d="M175.277,262.971l-5.609-1.66c-0.933-0.276-1.933-0.21-2.821,0.186l-2.451,1.092
			c-1.203,0.536-1.73,1.956-1.169,3.147l1.119,2.375c0.463,0.982,1.538,1.519,2.601,1.299l4.389-0.907c0,0,2.178,0.164,4.156-0.582
			c1.566-0.591,2.149-2.511,1.215-3.9l0,0C176.366,263.515,175.861,263.144,175.277,262.971z"/>
		<g>
			<path style="fill:#407BFF;" d="M203.197,219.227c-4.728,1.774-8.771,5.9-10.715,16.552c2.576,3.284,11.791,5.018,11.791,5.018
				S211.154,226.682,203.197,219.227z"/>
			<path style="opacity:0.8;fill:#FFFFFF;" d="M203.197,219.227c-4.728,1.774-8.771,5.9-10.715,16.552
				c2.576,3.284,11.791,5.018,11.791,5.018S211.154,226.682,203.197,219.227z"/>
		</g>
		<g>
			<path style="fill:#263238;" d="M200.737,224.4c0.065,0.081,0.161,0.124,0.257,0.124c0.072,0,0.144-0.023,0.204-0.072
				c0.142-0.113,0.166-0.319,0.053-0.461l-1.985-2.493c-0.167,0.139-0.331,0.284-0.495,0.434L200.737,224.4z"/>
			<path style="fill:#263238;" d="M206.499,225.72c-0.066,0.169,0.017,0.359,0.186,0.425l0.111,0.044
				c-0.037-0.218-0.076-0.435-0.123-0.651C206.597,225.571,206.532,225.635,206.499,225.72z"/>
			<path style="fill:#407BFF;" d="M202.737,240.461l3.537-5.475c0.124-0.512,0.239-1.044,0.34-1.594
				c-0.063,0.024-0.127,0.054-0.166,0.115l-4.386,6.79C202.304,240.357,202.527,240.411,202.737,240.461z"/>
			<path style="fill:#407BFF;" d="M198.402,235.032c0.064,0.06,0.144,0.089,0.225,0.089c0.088,0,0.175-0.035,0.24-0.104
				c0.124-0.132,0.117-0.34-0.015-0.464l-4.896-4.584c-0.077,0.227-0.154,0.451-0.229,0.686L198.402,235.032z"/>
		</g>
	</g>
</g>
<g id="Plant">
	<g>
		<g>
			<path style="fill:#263238;" d="M334.012,327.823c-1.395-5.418,0.287-7.482,2.261-9.644c1.974-2.162,1.743-5.774,1.743-5.774
				s3.068,6.101,2.168,13.316C339.285,332.936,335.031,331.779,334.012,327.823z"/>
			<path style="fill:#263238;" d="M342.586,371.524c-2.07-3.47-10.882-10.79-17.573-7.915c5.35,2.223,11.251,15.747,19.168,15.18
				C342.819,372.584,342.586,371.524,342.586,371.524z"/>
			<path style="fill:#407BFF;" d="M348.815,401.563c-0.423,0-0.808-0.289-0.913-0.718c-1.289-5.294-12.721-52.698-17.198-86.349
				c-0.069-0.515,0.293-0.988,0.808-1.056c0.518-0.075,0.988,0.293,1.056,0.808c4.465,33.554,15.875,80.868,17.162,86.152
				c0.123,0.505-0.187,1.014-0.691,1.137C348.963,401.554,348.888,401.563,348.815,401.563z"/>
			<g>
				<path style="fill:#407BFF;" d="M333.023,316.54c0.122-3.97-1.732-6.414-6.384-6.841c-4.652-0.427-6.123-2.366-6.992-4.176
					c1.569,9.14,12.528,11.426,13.595,15.938C333.023,318.081,333.023,316.54,333.023,316.54z"/>
				<path style="fill:#407BFF;" d="M335.109,331.621c-0.383-4.162-3.742-4.734-7.568-5.236c-3.826-0.502-5.096-2.956-5.096-2.956
					s-1.74,5.372,2.772,9.652C329.729,337.361,335.389,334.66,335.109,331.621z"/>
				<path style="fill:#407BFF;" d="M341.474,368.348c-0.66-4.648,2.528-6.572,2.034-13.395
					C352.641,370.564,342.51,375.642,341.474,368.348z"/>
				<path style="fill:#407BFF;" d="M337.2,349.386c-2.577-3.924-6.241-3.26-10.38-8.707
					C330.285,358.429,341.244,355.543,337.2,349.386z"/>
			</g>
			<path style="fill:#263238;" d="M356.451,350.316c0.227-6.276-5.592-9.587-10.046-15.859
				C349.113,346.94,356.095,360.164,356.451,350.316z"/>
			<path style="fill:#407BFF;" d="M353.588,395.912c-0.029,0-0.058-0.001-0.088-0.003c-0.608-0.048-1.063-0.58-1.015-1.189
				c1.041-13.185,4.72-70.016,3.69-107.175c-0.017-0.61,0.464-1.118,1.074-1.135c0.647-0.007,1.118,0.464,1.135,1.074
				c1.032,37.257-2.653,94.2-3.696,107.41C354.643,395.472,354.159,395.912,353.588,395.912z"/>
			<g>
				<path style="fill:#407BFF;" d="M356.439,290.525c-1.397-7.603,1.456-12.848,10.283-15.031
					c8.827-2.184,11.089-6.344,12.231-10.081c-0.345,18.045-20.764,25.65-21.497,34.645
					C356.89,293.489,356.439,290.525,356.439,290.525z"/>
				<path style="fill:#407BFF;" d="M357.117,305.896c1.413-9.113-5.468-12.138-13.386-15.264c-7.918-3.126-9.319-9.06-9.319-9.06
					s-6.606,10.563,0.754,22.142S356.085,312.549,357.117,305.896z"/>
				<path style="fill:#407BFF;" d="M357.076,329.18c1.519-7.231,7.533-7.552,14.353-7.655c6.82-0.103,9.549-4.155,9.549-4.155
					s1.963,9.787-6.829,16.384C365.355,340.352,355.967,334.459,357.076,329.18z"/>
				<path style="fill:#407BFF;" d="M355.805,364.307c1.654-4.449,10.281-14.777,18.622-12.876
					c-5.709,3.704-9.655,20.582-18.923,21.608C355.761,365.581,355.805,364.307,355.805,364.307z"/>
			</g>
		</g>
		<g>
			<path style="fill:#407BFF;" d="M363.78,386.152h-27.829c-1.543,0-2.652,1.485-2.214,2.964l7.532,25.458
				c0.29,0.981,1.191,1.654,2.214,1.654h12.765c1.023,0,1.924-0.673,2.214-1.654l7.532-25.458
				C366.431,387.637,365.323,386.152,363.78,386.152z"/>
			<path style="opacity:0.2;fill:#407BFF;" d="M363.78,386.152h-27.829c-1.543,0-2.652,1.485-2.214,2.964l7.532,25.458
				c0.29,0.981,1.191,1.654,2.214,1.654h12.765c1.023,0,1.924-0.673,2.214-1.654l7.532-25.458
				C366.431,387.637,365.323,386.152,363.78,386.152z"/>
			<path style="opacity:0.7;fill:#FFFFFF;" d="M363.78,386.152h-27.829c-1.543,0-2.652,1.485-2.214,2.964l7.532,25.458
				c0.29,0.981,1.191,1.654,2.214,1.654h12.765c1.023,0,1.924-0.673,2.214-1.654l7.532-25.458
				C366.431,387.637,365.323,386.152,363.78,386.152z"/>
		</g>
	</g>
</g>
</svg>
