<?xml version="1.0" encoding="UTF-8"?>
<svg xmlns="http://www.w3.org/2000/svg" id="a" width="865.76" height="682.89" viewBox="0 0 865.76 682.89">
  <g>
    <rect x="645.6" y="378.89" width="201.41" height="27.1" fill="#fff" stroke="#002346" stroke-miterlimit="10"></rect>
    <g>
      <rect x="667.35" y="149.45" width="158.06" height="57.35" rx="8.58" ry="8.58" fill="#eaeaea" stroke="#002346" stroke-miterlimit="10"></rect>
      <path d="M667.38,156.65h2.61l7.51,14.19h-10.26v-13.37c0-.28,.06-.56,.14-.82h0Zm22.13,0l7.5,14.18h-15l-7.49-14.18h14.99Zm19.5,0l7.5,14.18h-14.99l-7.5-14.18h14.99Zm19.5,0l7.49,14.18h-14.99l-7.5-14.18h14.99Zm19.5,0l7.5,14.18h-15l-7.49-14.18h15Zm19.5,0l7.49,14.18h-14.99l-7.5-14.18h14.99Zm19.5,0l7.49,14.18h-14.99l-7.49-14.18h14.99Zm19.5,0l7.5,14.18h-14.99l-7.5-14.18h14.99Zm4.51,0h14.22c.09,.26,.14,.54,.14,.83v13.37h-6.86l-7.5-14.19h0Zm-143.79,16.99h158.15v3.28h-158.15v-3.28Zm0,11.71h10.26l-7.51,14.19h-2.75v-14.19Zm22.27,14.19l7.5-14.19h-15l-7.49,14.19h14.99Zm19.5,0l7.5-14.19h-14.99l-7.5,14.19h14.99Zm19.5,0l7.49-14.19h-14.99l-7.5,14.19h14.99Zm19.5,0l7.5-14.19h-15l-7.49,14.19h15Zm19.5,0l7.49-14.19h-14.99l-7.5,14.19h14.99Zm19.5,0l7.49-14.19h-14.99l-7.49,14.19h14.99Zm19.5,0l7.5-14.19h-14.99l-7.5,14.19h14.99Zm18.87,0h-14.36l7.5-14.19h6.86v14.19Zm0-20.27v3.28h-158.15v-3.28h158.15Z" fill="#fff" stroke="#002346" stroke-miterlimit="10"></path>
    </g>
    <g>
      <rect x="667.35" y="206.85" width="158.06" height="57.35" rx="8.58" ry="8.58" fill="#eaeaea" stroke="#002346" stroke-miterlimit="10"></rect>
      <path d="M667.38,214.04h2.61l7.51,14.19h-10.26v-13.37c0-.28,.06-.56,.14-.82h0Zm22.13,0l7.5,14.18h-15l-7.49-14.18h14.99Zm19.5,0l7.5,14.18h-14.99l-7.5-14.18h14.99Zm19.5,0l7.49,14.18h-14.99l-7.5-14.18h14.99Zm19.5,0l7.5,14.18h-15l-7.49-14.18h15Zm19.5,0l7.49,14.18h-14.99l-7.5-14.18h14.99Zm19.5,0l7.49,14.18h-14.99l-7.49-14.18h14.99Zm19.5,0l7.5,14.18h-14.99l-7.5-14.18h14.99Zm4.51,0h14.22c.09,.26,.14,.54,.14,.83v13.37h-6.86l-7.5-14.19h0Zm-143.79,16.99h158.15v3.28h-158.15v-3.28Zm0,11.71h10.26l-7.51,14.19h-2.75v-14.19Zm22.27,14.19l7.5-14.19h-15l-7.49,14.19h14.99Zm19.5,0l7.5-14.19h-14.99l-7.5,14.19h14.99Zm19.5,0l7.49-14.19h-14.99l-7.5,14.19h14.99Zm19.5,0l7.5-14.19h-15l-7.49,14.19h15Zm19.5,0l7.49-14.19h-14.99l-7.5,14.19h14.99Zm19.5,0l7.49-14.19h-14.99l-7.49,14.19h14.99Zm19.5,0l7.5-14.19h-14.99l-7.5,14.19h14.99Zm18.87,0h-14.36l7.5-14.19h6.86v14.19Zm0-20.27v3.28h-158.15v-3.28h158.15Z" fill="#fff" stroke="#002346" stroke-miterlimit="10"></path>
    </g>
    <g>
      <rect x="667.35" y="264.24" width="158.06" height="57.35" rx="8.58" ry="8.58" fill="#eaeaea" stroke="#002346" stroke-miterlimit="10"></rect>
      <path d="M667.38,271.44h2.61l7.51,14.19h-10.26v-13.37c0-.28,.06-.56,.14-.82h0Zm22.13,0l7.5,14.18h-15l-7.49-14.18h14.99Zm19.5,0l7.5,14.18h-14.99l-7.5-14.18h14.99Zm19.5,0l7.49,14.18h-14.99l-7.5-14.18h14.99Zm19.5,0l7.5,14.18h-15l-7.49-14.18h15Zm19.5,0l7.49,14.18h-14.99l-7.5-14.18h14.99Zm19.5,0l7.49,14.18h-14.99l-7.49-14.18h14.99Zm19.5,0l7.5,14.18h-14.99l-7.5-14.18h14.99Zm4.51,0h14.22c.09,.26,.14,.54,.14,.83v13.37h-6.86l-7.5-14.19h0Zm-143.79,16.99h158.15v3.28h-158.15v-3.28Zm0,11.71h10.26l-7.51,14.19h-2.75v-14.19Zm22.27,14.19l7.5-14.19h-15l-7.49,14.19h14.99Zm19.5,0l7.5-14.19h-14.99l-7.5,14.19h14.99Zm19.5,0l7.49-14.19h-14.99l-7.5,14.19h14.99Zm19.5,0l7.5-14.19h-15l-7.49,14.19h15Zm19.5,0l7.49-14.19h-14.99l-7.5,14.19h14.99Zm19.5,0l7.49-14.19h-14.99l-7.49,14.19h14.99Zm19.5,0l7.5-14.19h-14.99l-7.5,14.19h14.99Zm18.87,0h-14.36l7.5-14.19h6.86v14.19Zm0-20.27v3.28h-158.15v-3.28h158.15Z" fill="#fff" stroke="#002346" stroke-miterlimit="10"></path>
    </g>
    <g>
      <rect x="667.35" y="321.64" width="158.06" height="57.35" rx="8.58" ry="8.58" fill="#eaeaea" stroke="#002346" stroke-miterlimit="10"></rect>
      <path d="M667.38,328.83h2.61l7.51,14.19h-10.26v-13.37c0-.28,.06-.56,.14-.82h0Zm22.13,0l7.5,14.18h-15l-7.49-14.18h14.99Zm19.5,0l7.5,14.18h-14.99l-7.5-14.18h14.99Zm19.5,0l7.49,14.18h-14.99l-7.5-14.18h14.99Zm19.5,0l7.5,14.18h-15l-7.49-14.18h15Zm19.5,0l7.49,14.18h-14.99l-7.5-14.18h14.99Zm19.5,0l7.49,14.18h-14.99l-7.49-14.18h14.99Zm19.5,0l7.5,14.18h-14.99l-7.5-14.18h14.99Zm4.51,0h14.22c.09,.26,.14,.54,.14,.83v13.37h-6.86l-7.5-14.19h0Zm-143.79,16.99h158.15v3.28h-158.15v-3.28Zm0,11.71h10.26l-7.51,14.19h-2.75v-14.19Zm22.27,14.19l7.5-14.19h-15l-7.49,14.19h14.99Zm19.5,0l7.5-14.19h-14.99l-7.5,14.19h14.99Zm19.5,0l7.49-14.19h-14.99l-7.5,14.19h14.99Zm19.5,0l7.5-14.19h-15l-7.49,14.19h15Zm19.5,0l7.49-14.19h-14.99l-7.5,14.19h14.99Zm19.5,0l7.49-14.19h-14.99l-7.49,14.19h14.99Zm19.5,0l7.5-14.19h-14.99l-7.5,14.19h14.99Zm18.87,0h-14.36l7.5-14.19h6.86v14.19Zm0-20.27v3.28h-158.15v-3.28h158.15Z" fill="#fff" stroke="#002346" stroke-miterlimit="10"></path>
    </g>
    <rect x="677.73" y="405.77" width="8.7" height="12.01" fill="#fff" stroke="#002346" stroke-miterlimit="10"></rect>
    <circle cx="682.08" cy="424.4" r="11.6" fill="#eaeaea" stroke="#002346" stroke-miterlimit="10"></circle>
    <circle cx="682.08" cy="424.4" r="7.25" fill="#fff" stroke="#002346" stroke-miterlimit="10"></circle>
    <rect x="806.66" y="405.98" width="8.7" height="12.01" fill="#fff" stroke="#002346" stroke-miterlimit="10"></rect>
    <circle cx="811.01" cy="424.61" r="11.6" fill="#eaeaea" stroke="#002346" stroke-miterlimit="10"></circle>
    <circle cx="811.01" cy="424.61" r="7.25" fill="#fff" stroke="#002346" stroke-miterlimit="10"></circle>
    <rect x="641.75" y="48" width="13.25" height="358.07" fill="#fff" stroke="#002346" stroke-miterlimit="10"></rect>
    <rect x="839.29" y="48" width="13.25" height="358.07" fill="#fff" stroke="#002346" stroke-miterlimit="10"></rect>
  </g>
  <g>
    <g>
      <rect x="138.1" y="18" width="13.18" height="402.66" fill="#fff" stroke="#002346" stroke-miterlimit="10"></rect>
      <rect x="133.46" y="420.54" width="22.47" height="8.98" fill="#fff" stroke="#002346" stroke-miterlimit="10"></rect>
    </g>
    <rect x="355.49" y="18" width="13.18" height="402.66" fill="#fff" stroke="#002346" stroke-miterlimit="10"></rect>
    <rect x="350.85" y="416.84" width="22.47" height="12.68" fill="#fff" stroke="#002346" stroke-miterlimit="10"></rect>
    <rect x="151.53" y="24.81" width="203.99" height="12.3" fill="#fff" stroke="#002346" stroke-miterlimit="10"></rect>
    <rect x="151.53" y="200.6" width="203.99" height="12.3" fill="#fff" stroke="#002346" stroke-miterlimit="10"></rect>
    <rect x="151.53" y="376.27" width="203.99" height="12.3" fill="#fff" stroke="#002346" stroke-miterlimit="10"></rect>
    <rect x="165.21" y="134.46" width="118.34" height="66.04" fill="#fff" stroke="#002346" stroke-miterlimit="10"></rect>
    <path d="M246.8,156.98h-10.49c-1.11,0-2.01-.9-2.01-2.01v-12.02c0-1.11-.9-2.01-2.01-2.01h-19.27c-1.11,0-2.01,.9-2.01,2.01v12.02c0,1.11-.9,2.01-2.01,2.01h-10.49c-1.11,0-2.01,.9-2.01,2.01v19.27c0,1.11,.9,2.01,2.01,2.01h10.49c1.11,0,2.01,.9,2.01,2.01v8.96c0,1.11,.9,2.01,2.01,2.01h19.27c1.11,0,2.01-.9,2.01-2.01v-8.96c0-1.11,.9-2.01,2.01-2.01h10.49c1.11,0,2.01-.9,2.01-2.01v-19.27c0-1.11-.9-2.01-2.01-2.01Z" fill="#eaeaea" stroke="#002346" stroke-miterlimit="10"></path>
    <rect x="161.01" y="122.62" width="126.35" height="14.89" fill="#eaeaea" stroke="#002346" stroke-miterlimit="10"></rect>
    <polygon points="161.01 122.62 176.66 107.32 270.95 107.32 287.36 122.62 161.01 122.62" fill="#fff" stroke="#002346" stroke-miterlimit="10"></polygon>
    <path d="M193.89,114.11h9.57v-12.57h38.08v12.38h8.82v-17.73c0-2.02-1.64-3.66-3.66-3.66h-49.12c-2.02,0-3.66,1.63-3.66,3.65l-.02,17.92Z" fill="#eaeaea" stroke="#002346" stroke-miterlimit="10"></path>
    <rect x="194.07" y="248.71" width="136.64" height="127.11" fill="#fff" stroke="#002346" stroke-miterlimit="10"></rect>
    <rect x="207.71" y="236.25" width="22.2" height="12.5" fill="#fff" stroke="#002346" stroke-miterlimit="10"></rect>
    <rect x="243.63" y="236.25" width="22.2" height="12.5" fill="#fff" stroke="#002346" stroke-miterlimit="10"></rect>
    <g>
      <rect x="-26.22" y="291.11" width="200.29" height="72.68" rx="10.87" ry="10.87" transform="translate(-251.82 246.36) rotate(-63.3)" fill="#eaeaea" stroke="#002346" stroke-miterlimit="10"></rect>
      <path d="M4.63,404.65l1.49-2.96,20.34-.42-5.84,11.61-15.13-7.61c-.31-.16-.6-.38-.85-.63h0Zm12.6-25.05l20.32-.41-8.54,16.98-20.32,.4,8.53-16.97Zm11.1-22.07l20.32-.41-8.54,16.97-20.32,.41,8.54-16.97Zm11.1-22.08l20.32-.41-8.53,16.97-20.32,.41,8.54-16.97Zm11.1-22.08l20.32-.41-8.54,16.98-20.32,.41,8.54-16.98Zm11.1-22.07l20.32-.4-8.53,16.96-20.32,.41,8.54-16.97Zm11.1-22.07l20.32-.41-8.54,16.97-20.32,.41,8.54-16.97Zm11.1-22.08l20.32-.41-8.54,16.97-20.32,.42,8.54-16.97Zm2.56-5.11l8.1-16.09c.35,.05,.69,.15,1.02,.31l15.13,7.61-3.91,7.77-20.34,.41h0ZM23.78,414.49L113.83,235.45l3.72,1.87L27.5,416.36l-3.72-1.87Zm13.26,6.66l5.84-11.61,11.78,16.57-1.57,3.12-16.06-8.08Zm28.74-17.13l-11.79-16.56-8.54,16.98,11.79,16.55,8.53-16.97Zm11.1-22.07l-11.79-16.56-8.54,16.97,11.79,16.56,8.54-16.97Zm11.1-22.08l-11.79-16.56-8.53,16.97,11.79,16.56,8.54-16.97Zm11.1-22.08l-11.79-16.56-8.54,16.98,11.79,16.56,8.54-16.98Zm11.1-22.07l-11.79-16.55-8.53,16.96,11.79,16.56,8.54-16.97Zm11.1-22.07l-11.79-16.56-8.54,16.97,11.79,16.56,8.54-16.97Zm11.1-22.08l-11.79-16.56-8.54,16.97,11.79,16.57,8.54-16.97Zm10.74-21.36l-8.18,16.25-11.8-16.57,3.91-7.77,16.07,8.08Zm-22.95-11.55l3.72,1.87L33.86,419.56l-3.71-1.87L120.19,238.65Z" fill="#fff" stroke="#002346" stroke-miterlimit="10"></path>
    </g>
    <rect x="204.51" y="240.08" width="28.6" height="4.09" fill="#eaeaea" stroke="#002346" stroke-miterlimit="10"></rect>
    <rect x="240.43" y="240.08" width="28.6" height="4.09" fill="#eaeaea" stroke="#002346" stroke-miterlimit="10"></rect>
  </g>
  <g>
    <rect x="200.19" y="540.6" width="36.79" height="3.59" fill="#fff" stroke="#002346" stroke-miterlimit="10"></rect>
    <polygon points="206.47 484.06 168.78 508.29 184.04 508.29 215.02 487.8 206.47 484.06" fill="#fff" stroke="#002346" stroke-miterlimit="10"></polygon>
    <polygon points="177.33 510.98 222.2 534.31 206.94 534.31 168.78 514.72 177.33 510.98" fill="#fff" stroke="#002346" stroke-miterlimit="10"></polygon>
    <polygon points="263.01 510.98 214.14 534.31 230.4 534.31 271.56 514.72 263.01 510.98" fill="#fff" stroke="#002346" stroke-miterlimit="10"></polygon>
    <polygon points="228.72 481.68 268.87 508.29 253.61 508.29 222.63 487.8 228.72 481.68" fill="#fff" stroke="#002346" stroke-miterlimit="10"></polygon>
    <rect x="206.92" y="476.88" width="23.33" height="10.77" fill="#eaeaea" stroke="#002346" stroke-miterlimit="10"></rect>
    <rect x="206.92" y="531.62" width="23.33" height="8.97" fill="#eaeaea" stroke="#002346" stroke-miterlimit="10"></rect>
    <rect x="161.6" y="508.29" width="116.67" height="6.28" fill="#eaeaea" stroke="#002346" stroke-miterlimit="10"></rect>
    <path d="M820.32,483.16l-44.2-.44-139.77-1.4-12.44-.13-427.11-4.26-16.34-.16-124.23-1.24h-14.42l9.4-80.19c1.47-12.6,7.03-24.37,15.81-33.53l89.24-93c2.29-2.39,2.44-6.1,.36-8.67l-1.36-1.68c-2.77-3.41-.58-8.52,3.8-8.86,10.1-.78,27.17-2.39,49.67-5.61,0,0,208.65-44.42,295.7-11.22,0,0,59.23,22.44,107.69,65.51,0,0,22.44,20.64,56.54,24.23,0,0,51.83-4.36,95.18,21.04,19.93,11.68,38.07,29.66,48.56,57.27,8.07,21.24,11.6,48.18,7.92,82.33Z" fill="#90daf4" stroke="#002346" stroke-miterlimit="10"></path>
    <polygon points="94.83 333.21 100.58 337.78 71.86 366.49 67.37 361.11 94.83 333.21" fill="#ffffff" stroke="#002346" stroke-miterlimit="10"></polygon>
    <path d="M613.01,327.01l-250.38-7.45-17.95-.54-183.97-5.47,46.51-51.09c6.21-6.82,14.42-11.53,23.47-13.34,26.44-5.29,76.99-10.02,113.99-13.02,6.46-.52,12.51-.99,17.95-1.4,16.18-1.22,26.92-1.92,26.92-1.92,158.85-17.05,223.46,94.23,223.46,94.23Z" fill="#fff" stroke="#002346" stroke-miterlimit="10"></path>
    <path d="M362.63,234.7v84.86l-17.95-.54v-82.92c6.46-.52,12.51-.99,17.95-1.4Z" fill="#eaeaea" stroke="#002346" stroke-miterlimit="10"></path>
    <path d="M595.96,314.44s-12.56-26.03-40.38-26.03c0,0-21.54-.9-17.05,17.05,0,0,1.8,4.05,6.68,7.05,3.19,1.96,6.94,2.83,10.69,2.75l40.07-.83Z" fill="#eaeaea" stroke="#002346" stroke-miterlimit="10"></path>
    <path d="M613.01,327.01s20.64,56.23-7.18,121.74" fill="none" stroke="#002346" stroke-linecap="round" stroke-linejoin="round"></path>
    <path d="M177.31,313.61s-8.53,26.86,4.94,67.24l27.82,67.1" fill="none" stroke="#002346" stroke-linecap="round" stroke-linejoin="round"></path>
    <polygon points="636.34 448.16 636.34 481.32 623.9 481.19 196.79 476.93 180.45 476.77 180.45 448.16 636.34 448.16" fill="none" stroke="#002346" stroke-linecap="round" stroke-linejoin="round"></polygon>
    <path d="M812.39,400.83c-32.17-5.73-44.43-40.29-48.56-57.27,19.93,11.68,38.07,29.66,48.56,57.27Z" fill="#fff" stroke="#002346" stroke-miterlimit="10"></path>
    <rect x="630.96" y="362.9" width="16.15" height="9.87" rx="4.94" ry="4.94" fill="#ffffff" stroke="#002346" stroke-miterlimit="10"></rect>
    <path d="M776.34,476.88c0,1.97-.07,3.91-.22,5.84l-152.21-1.53c-.08-1.43-.13-2.86-.13-4.32,0-42.13,34.16-76.28,76.28-76.28s76.28,34.16,76.28,76.28Z" fill="#fff" stroke="#002346" stroke-miterlimit="10"></path>
    <g>
      <g>
        <ellipse cx="700.74" cy="479.45" rx="67.48" ry="68.34" fill="#002346" stroke="#002346" stroke-miterlimit="10"></ellipse>
        <circle cx="700.74" cy="479.45" r="52.04" fill="#fff" stroke="#002346" stroke-miterlimit="10"></circle>
        <path d="M717.04,479.45c0,.1,0,.21,0,.31-.03,2.14-.49,4.19-1.28,6.05-1.57,3.69-4.46,6.7-8.09,8.39-1.9,.9-4,1.44-6.22,1.53-.23,.01-.47,.02-.71,.02-3.31,0-6.39-.99-8.97-2.69-1.69-1.11-3.17-2.53-4.33-4.19-1.89-2.65-3-5.91-3-9.41,0-.1,0-.21,0-.31,.04-2.22,.53-4.34,1.37-6.26,1.38-3.12,3.71-5.72,6.62-7.45,1.89-1.13,4.02-1.88,6.3-2.15,.66-.09,1.33-.13,2-.13,3.18,0,6.15,.91,8.65,2.49,1.77,1.1,3.31,2.54,4.52,4.22,1.97,2.69,3.12,6,3.12,9.58Z" fill="#fff" stroke="#002346" stroke-miterlimit="10"></path>
        <path d="M698.74,439.62v23.65c-2.28,.27-4.41,1.02-6.3,2.15l-9.21-13.82-3.93-5.9c9.15-6.29,19.44-6.08,19.44-6.08Z" fill="#ced0d1" stroke="#002346" stroke-miterlimit="10"></path>
        <path d="M734.61,459.62l-20.7,10.25c-1.22-1.68-2.76-3.12-4.52-4.22l7.65-14.73,3.58-6.11c9.66,5.47,13.99,14.81,13.99,14.81Z" fill="#ced0d1" stroke="#002346" stroke-miterlimit="10"></path>
        <path d="M734.61,459.62l-6.61,3.22c-2.97-6.82-8.16-10.4-10.96-11.92l3.58-6.11c9.66,5.47,13.99,14.81,13.99,14.81Z" fill="#e3e4e5" stroke="#002346" stroke-miterlimit="10"></path>
        <path d="M735.52,497.87l-19.77-12.06c.79-1.86,1.25-3.91,1.28-6.05l16.46-1.39,7.08-.24c.54,11.09-5.06,19.74-5.06,19.74Z" fill="#ced0d1" stroke="#002346" stroke-miterlimit="10"></path>
        <path d="M735.52,497.87l-6.25-3.87c4.18-6.15,4.43-12.45,4.22-15.63l7.08-.24c.54,11.09-5.06,19.74-5.06,19.74Z" fill="#e3e4e5" stroke="#002346" stroke-miterlimit="10"></path>
        <path d="M721.04,512.83c-9.15,6.29-19.44,6.08-19.44,6.08l-.15-23.19c2.21-.09,4.32-.63,6.22-1.53l9.45,12.74,3.93,5.9Z" fill="#ced0d1" stroke="#002346" stroke-miterlimit="10"></path>
        <path d="M701.6,518.92v-7.35c7.43,.31,12.92-2.78,15.51-4.63l3.93,5.9c-9.15,6.29-19.44,6.08-19.44,6.08Z" fill="#e3e4e5" stroke="#002346" stroke-miterlimit="10"></path>
        <path d="M691.78,493.05l-7.82,15.45-3.52,6.15c-9.72-5.36-14.14-14.66-14.14-14.66l21.15-11.13c1.17,1.66,2.64,3.08,4.33,4.19Z" fill="#ced0d1" stroke="#002346" stroke-miterlimit="10"></path>
        <path d="M666.29,499.99l6.57-3.29c3.04,6.78,8.27,10.31,11.08,11.8l-3.51,6.15c-9.72-5.37-14.14-14.67-14.14-14.67Z" fill="#e3e4e5" stroke="#002346" stroke-miterlimit="10"></path>
        <path d="M685.82,472.88c-.85,1.92-1.33,4.03-1.37,6.26l-16.43,2.12-7.07,.55c-1.02-11.05,4.19-19.94,4.19-19.94l20.68,11.01Z" fill="#ced0d1" stroke="#002346" stroke-miterlimit="10"></path>
        <circle cx="700.74" cy="479.45" r="7.15" fill="#e3e4e5" stroke="#002346" stroke-miterlimit="10"></circle>
        <path d="M665.14,461.86l6.41,3.59c-3.9,6.33-3.88,12.63-3.53,15.8l-7.06,.55c-1.02-11.06,4.18-19.94,4.18-19.94Z" fill="#e3e4e5" stroke="#002346" stroke-miterlimit="10"></path>
      </g>
      <path d="M698.74,439.62v7.35c-7.43-.31-12.92,2.78-15.51,4.63l-3.93-5.9c9.15-6.29,19.44-6.08,19.44-6.08Z" fill="#e3e4e5" stroke="#002346" stroke-miterlimit="10"></path>
    </g>
    <path d="M197.5,467.45c0,3.22-.24,6.38-.71,9.48l-140.57-1.4c-.34-2.65-.51-5.34-.51-8.08,0-36.93,31.74-66.86,70.9-66.86s70.9,29.93,70.9,66.86Z" fill="#fff" stroke="#002346" stroke-miterlimit="10"></path>
    <circle cx="125.26" cy="471.04" r="41.73" fill="#002346" stroke="#002346" stroke-miterlimit="10"></circle>
    <circle cx="125.26" cy="471.04" r="34.55" fill="#eaeaea" stroke="#002346" stroke-miterlimit="10"></circle>
    <circle cx="125.26" cy="471.04" r="21.54" fill="#002346" stroke="#002346" stroke-miterlimit="10"></circle>
    <circle cx="125.26" cy="471.04" r="12.56" fill="#fff" stroke="#002346" stroke-miterlimit="10"></circle>
    <circle cx="125.26" cy="471.04" r="6.28" fill="#002346" stroke="#002346" stroke-miterlimit="10"></circle>
    <g>
      <g>
        <g>
          <ellipse cx="518" cy="539.92" rx="108.03" ry="109.4" fill="#002346" stroke="#002346" stroke-miterlimit="10"></ellipse>
          <circle cx="518" cy="539.92" r="83.31" fill="#fff" stroke="#002346" stroke-miterlimit="10"></circle>
          <path d="M544.09,539.92c0,.16,0,.33,0,.49-.05,3.43-.79,6.7-2.05,9.69-2.51,5.91-7.14,10.72-12.95,13.44-3.04,1.44-6.41,2.3-9.95,2.44-.38,.02-.76,.03-1.14,.03-5.3,0-10.24-1.58-14.36-4.31-2.71-1.78-5.07-4.06-6.94-6.71-3.02-4.25-4.8-9.46-4.8-15.07,0-.16,0-.34,0-.5,.06-3.56,.84-6.95,2.2-10.02,2.21-5,5.93-9.16,10.59-11.93,3.02-1.8,6.44-3,10.09-3.44,1.05-.14,2.12-.2,3.2-.2,5.09,0,9.84,1.46,13.85,3.99,2.83,1.76,5.29,4.06,7.24,6.76,3.15,4.3,5,9.6,5,15.34Z" fill="#fff" stroke="#002346" stroke-miterlimit="10"></path>
          <path d="M514.8,476.16v37.87c-3.65,.44-7.07,1.64-10.09,3.44l-14.75-22.13-6.29-9.44c14.65-10.07,31.13-9.74,31.13-9.74Z" fill="#ced0d1" stroke="#002346" stroke-miterlimit="10"></path>
          <path d="M572.23,508.17l-33.13,16.41c-1.95-2.69-4.41-5-7.24-6.76l12.25-23.57,5.73-9.79c15.47,8.75,22.39,23.71,22.39,23.71Z" fill="#ced0d1" stroke="#002346" stroke-miterlimit="10"></path>
          <path d="M572.23,508.17l-10.58,5.15c-4.76-10.91-13.06-16.64-17.55-19.08l5.73-9.79c15.47,8.76,22.39,23.72,22.39,23.72Z" fill="#e3e4e5" stroke="#002346" stroke-miterlimit="10"></path>
          <path d="M573.68,569.41l-31.65-19.31c1.26-2.98,2-6.25,2.05-9.69l26.36-2.22,11.33-.38c.86,17.76-8.09,31.6-8.09,31.6Z" fill="#ced0d1" stroke="#002346" stroke-miterlimit="10"></path>
          <path d="M573.69,569.41l-10-6.19c6.69-9.85,7.1-19.93,6.76-25.02l11.34-.38c.86,17.76-8.09,31.6-8.09,31.6Z" fill="#e3e4e5" stroke="#002346" stroke-miterlimit="10"></path>
          <path d="M550.5,593.37c-14.65,10.07-31.13,9.74-31.13,9.74l-.24-37.12c3.54-.15,6.91-1.01,9.95-2.44l15.12,20.39,6.29,9.44Z" fill="#ced0d1" stroke="#002346" stroke-miterlimit="10"></path>
          <path d="M519.38,603.11v-11.76c11.89,.5,20.68-4.45,24.84-7.42l6.29,9.44c-14.65,10.07-31.13,9.74-31.13,9.74Z" fill="#e3e4e5" stroke="#002346" stroke-miterlimit="10"></path>
          <path d="M503.65,561.7l-12.52,24.74-5.63,9.85c-15.56-8.59-22.64-23.47-22.64-23.47l33.86-17.83c1.87,2.66,4.23,4.93,6.94,6.71Z" fill="#ced0d1" stroke="#002346" stroke-miterlimit="10"></path>
          <path d="M462.85,572.81l10.52-5.26c4.87,10.86,13.23,16.5,17.75,18.89l-5.63,9.85c-15.56-8.59-22.64-23.48-22.64-23.48Z" fill="#e3e4e5" stroke="#002346" stroke-miterlimit="10"></path>
          <path d="M494.12,529.4c-1.35,3.07-2.13,6.45-2.2,10.02l-26.3,3.39-11.32,.88c-1.63-17.7,6.7-31.92,6.7-31.92l33.11,17.63Z" fill="#ced0d1" stroke="#002346" stroke-miterlimit="10"></path>
          <circle cx="518" cy="539.92" r="11.44" fill="#e3e4e5" stroke="#002346" stroke-miterlimit="10"></circle>
          <path d="M461,511.77l10.27,5.74c-6.25,10.13-6.22,20.22-5.66,25.3l-11.31,.88c-1.64-17.7,6.7-31.92,6.7-31.92Z" fill="#e3e4e5" stroke="#002346" stroke-miterlimit="10"></path>
        </g>
        <path d="M514.8,476.16v11.76c-11.89-.5-20.68,4.45-24.84,7.42l-6.29-9.44c14.65-10.07,31.13-9.74,31.13-9.74Z" fill="#e3e4e5" stroke="#002346" stroke-miterlimit="10"></path>
      </g>
      <path d="M578.67,300.85s-.56,7.14-2.53,13.27c-3.05,9.49-10.81,26.97-10.81,26.97-3.16,5.05-5.61,14.3-5.61,14.3-1.82,6.72-6.39,16.02-6.39,16.02-10.11,19.58-39.17,54.33-39.17,54.33,.51,7.62-1.44,15.66-2.22,18.5-.2,.75-.27,1.52-.2,2.29l1.55,16.54c.13,1.35-.89,2.54-2.24,2.63h0c-1.28,.08-2.4-.84-2.55-2.11l-1.81-14.81c-.06-.53-.51-.93-1.05-.93h0c-.55,0-1,.42-1.05,.96l-1.81,19.89c-.63,5.05-5.05,2.53-5.05,2.53v.35c-.03,1.56-1.3,2.81-2.86,2.81h0c-1.57,0-2.84-1.26-2.85-2.83l-.21-24.42c0-.11-.16-.12-.18-.02l-3.48,19.28c-.3,1.65-1.82,2.8-3.49,2.63h0c-1.83-.18-3.13-1.86-2.86-3.68l3.92-26.35-2.53,1.9c-9.98,5.23-11.38,1.88-11.46-.11-.03-.65,.46-1.21,1.11-1.3l1.83-.26c1.02-.15,1.95-.64,2.63-1.41l15.36-17.14c11.37-12.63,23.37-39.8,23.37-39.8,2.53-13.27,9.48-22.74,9.48-22.74,6.95-9.48,10.74-17.06,10.74-17.06l9.55-35.19s10.81-1.7,17.06-3.16c0,0,6.39-1.7,15.79-1.9Z" fill="#efb0be" stroke="#002346" stroke-miterlimit="10"></path>
      <line x1="485.74" y1="439.01" x2="486.37" y2="430.8" fill="none" stroke="#002346" stroke-linecap="round" stroke-linejoin="round"></line>
      <path d="M746,643.05c-21.28,9.2-36.28,5.21-38.79,4.42-.1-.03-.09-.18,.01-.2l11.9-2.37,57.28-23.37,12.75-.2,1.07,2.14-44.22,19.58Z" fill="#002346" stroke="#002346" stroke-miterlimit="10"></path>
      <path d="M706.84,644.32v3.03s13.21,2.29,31.24-5.11l51.07-20.91-.82-2.28-30.32,6.32-51.17,18.95Z" fill="#fff" stroke="#002346" stroke-miterlimit="10"></path>
      <path d="M529.33,646.84v2.05s5.05,6.8,41.06,6.16l44.22-2.37v-2.68l-23.55-3.16h-61.74Z" fill="#fff" stroke="#002346" stroke-miterlimit="10"></path>
      <path d="M595.93,330.93s.17,5.56,1.35,11.07c1.26,5.91,1.13,12.04-.32,17.9-.01,.05-.03,.1-.04,.15,0,0-4.76,19.65-4.46,28.89,.02,.75-.02,1.49-.13,2.23-.34,2.47-1.3,7.66-3.62,11.84,0,0-2.05,3.58-2.46,8.44-.1,1.16-.35,2.31-.82,3.37l-2.74,6.27c-.69,1.57-1.74,2.94-3.09,3.99-1.94,1.51-4.95,3.45-7.95,3.82,0,0-2.53,.63-6.95,3.16,0,0-8.56,1.87-12.3,.78-.89-.26-1.78,.48-1.7,1.41,.12,1.45,1.03,3.15,4.52,3.5,0,0,16.57,7.22,23.45,13.09,0,0,1.19-3.61,4.98-4.87,0,0,8.9-2.97,11.75-11.77,.22-.67,.53-1.3,.91-1.88l11.98-18.57,21.48-44.22-2.53-12.63-12-10.11-16.92-17.37-2.38,1.52Z" fill="#efb0be" stroke="#002346" stroke-miterlimit="10"></path>
      <path d="M540.14,253.47l15.16,6.95,26.53-27.16s-9.48-5.69-15.16-12.63l-10.84-4.75-11.75-5.47-12.62,1.37,1.1,14.47,7.58,27.23Z" fill="#efb0be" stroke="#002346" stroke-miterlimit="10"></path>
      <path d="M562.88,302.75c-7.58,1.9-17.06,3.16-17.06,3.16,0,0-6.32-20.21,.63-30.95l4.42-6.32s3.16-10.11,8.84-16.42c0,0,0-25.9,23.37-22.11,0,0,48.01,6.32,73.28,47.38,0,0,36.64,43.59,6.32,65.7h-50.04l-34.61-27.16-1.9-1.9s2.53-7.58,2.53-13.27c0,0-8.21,0-15.79,1.9Z" fill="#ff3300" stroke="#002346" stroke-miterlimit="10"></path>
      <path d="M565.33,621.57c-3.18,2.66-6.96,5.48-11.37,8.21-4.19,2.6-8.23,4.68-11.94,6.34-2.08,.93-4.28,1.58-6.55,1.77-.97,.08-2.14,.37-3.21,1.17-1.59,1.17-2.93,3.45-2.93,7.78,0,0,8.21,6.95,40.43,5.69l44.85-2.53-.56-8.02-31.15-16.31-17.57-4.1Z" fill="#ff3300" stroke="#002346" stroke-miterlimit="10"></path>
      <path d="M733.44,612.92l-5.41,6.95c-4.59,5.89-10.14,10.98-16.5,14.89-3.35,2.05-6.26,5.19-4.7,9.56,0,0,7.1,2.59,26.61-3.13l54.88-22.14-9.4-21.29h-27.33l-18.16,15.16Z" fill="#ff3300" stroke="#002346" stroke-miterlimit="10"></path>
      <path d="M533.48,209.27l1.87,3.48s5.42-2.24,12.37,5.98c0,0,9.48,11.37,18.95,1.9l-5.05-13.27-28.14,1.91Z" fill="#002346" stroke="#002346" stroke-miterlimit="10"></path>
      <rect x="506.54" y="200.4" width="35.34" height="61.27" rx="17.67" ry="17.67" transform="translate(-48.63 236.07) rotate(-24.29)" fill="#efb0be" stroke="#002346" stroke-miterlimit="10"></rect>
      <ellipse cx="537.93" cy="219.68" rx="5.37" ry="7.9" fill="#efb0be" stroke="#002346" stroke-miterlimit="10"></ellipse>
      <path d="M496.55,211.78l65.07-4.42s1.26-32.22-35.38-30.95c0,0-29.69-.63-29.69,35.38Z" fill="#ff3300" stroke="#002346" stroke-miterlimit="10"></path>
      <path d="M496.55,211.78l-17.69,10.74s8.2,21.26,37.89-12.11l-20.21,1.37Z" fill="#ff3300" stroke="#002346" stroke-miterlimit="10"></path>
      <line x1="497.74" y1="471.23" x2="497.74" y2="450.98" fill="none" stroke="#002346" stroke-linecap="round" stroke-linejoin="round"></line>
      <path d="M778.93,597.76c-4.42-.63-7.27,2.37-9,5.53-5.07,9.21-15.56,14.1-25.92,12.39-5.98-.99-10.56-2.75-10.56-2.75l-77.49-136.86c-.31-.55-1.14-.46-1.31,.16l-35.65,126.61c-.35,1.24-.88,2.42-1.57,3.51-2.14,3.36-2.65,7.5-1.39,11.27l.69,2.07c.73,2.19,.88,4.52,.43,6.77l-3.11,15.51c-33.55,2.97-48.72-20.4-48.72-20.4l32.85-139.61c5.7-31.55,12.04-60.28,15.39-74.91,1.14-5,1.58-10.11,1.6-15.23,.01-4.74,1.66-9.95,3.09-13.59,.3-.76,.53-1.53,.69-2.33,.58-2.59,.46-5.28-.39-7.83l-.02-.07c-.5-1.47-1.21-2.84-2.14-4.09-.69-.96-1.5-1.82-2.42-2.59l-.89-.74c-2.26-1.88-3.9-4.4-4.73-7.22l-2.07-7.12c-.71-2.44-2.03-4.64-3.85-6.41l-23.8-23.36c.77,.53,13.59,9.07,44.18,17.03,0,0,6.28,1.62,11.78,3.89,7.17,2.96,15.41,2.25,21.82-2.14,9.8-6.7,19.57-18.28,9.98-35.23,0,0-25.52-47.07-64.68-60.35-29.16-10.93-41.15,10.57-41.95,12.41,14.95-43.41,73.86,2.64,73.86,2.64-6.32-6.94-20.23-14.9-20.23-14.9,34.09,10.37,58.13,59.12,58.13,59.12l20.86,36.15,1.8,3.11,5.77,10.01c16.55,29.71,6.46,54.53,.96,64.35-1.79,3.2-2.39,6.93-1.78,10.54,2.47,14.55,3.27,25.63,3.41,33.43,.14,8.08,2.77,15.9,7.31,22.6,1.98,2.94,3.59,6.07,4.86,8.92,4.17,9.42,8.85,18.6,14.21,27.39l49.99,82.29Z" fill="#ffffff" stroke="#002346" stroke-miterlimit="10"></path>
      <path d="M655.11,475.21l32.46-66.9c4.45-9.17,7.74-18.87,9.59-28.88,1.67-9.04,2.41-19.22-.43-26.33" fill="none" stroke="#002346" stroke-linecap="round" stroke-linejoin="round"></path>
      <path d="M578.67,300.85h8.31s-.81-23.56,4.88-31.14" fill="none" stroke="#002346" stroke-linecap="round" stroke-linejoin="round"></path>
      <path d="M694.29,338.11s-.06,.08-.09,.12c-22.28,28.97-71.09,37.05-75.24,37.69,.58-2.59,.46-5.28-.39-7.83l-.02-.07c-.5-1.47-1.21-2.84-2.14-4.09l.2-.23c46.3-4.2,72.11-34.43,72.11-34.43l3.7,5.85,1.89,2.99Z" fill="#ff3300" stroke="#002346" stroke-miterlimit="10"></path>
      <path d="M613.58,407.05s20.63,2.87,39.06,4.02l-7.69,30.74c-2.26,9.03-10.16,15.67-19.46,15.93-3.56,.1-7.45-.44-11.44-2.11-5.96-2.5-9.25-8.95-7.85-15.26l7.38-33.32Z" fill="#ff3300" stroke="#002346" stroke-miterlimit="10"></path>
    </g>
  </g>
</svg>
