<?xml version="1.0" encoding="UTF-8"?>
<svg xmlns="http://www.w3.org/2000/svg" id="a" width="865.76" height="682.89" viewBox="0 0 865.76 682.89">
  <g>
    <g>
      <path d="M220.32,620.37v10.43c0,14.28,11.58,25.86,25.86,25.86h0c14.28,0,25.86-11.58,25.86-25.86v-10.43h-51.71Z" fill="#2bb673"></path>
      <path d="M246.18,657.16c-14.53,0-26.36-11.82-26.36-26.36v-10.93h52.71v10.93c0,14.53-11.82,26.36-26.36,26.36Zm-25.36-36.29v9.93c0,13.98,11.38,25.36,25.36,25.36s25.36-11.38,25.36-25.36v-9.93h-50.71Z" fill="#231f20"></path>
    </g>
    <g>
      <ellipse cx="245.96" cy="620.37" rx="25.64" ry="5.43" fill="#fff"></ellipse>
      <path d="M245.96,626.3c-12.67,0-26.14-2.08-26.14-5.93s13.47-5.93,26.14-5.93,26.14,2.08,26.14,5.93-13.47,5.93-26.14,5.93Zm0-10.86c-14.82,0-25.14,2.6-25.14,4.93s10.32,4.93,25.14,4.93,25.14-2.6,25.14-4.93-10.32-4.93-25.14-4.93Z" fill="#231f20"></path>
    </g>
    <g>
      <ellipse cx="245.53" cy="620.59" rx="21.73" ry="3.04" fill="#fff"></ellipse>
      <path d="M245.53,624.13c-7.69,0-22.23-.74-22.23-3.54s14.54-3.54,22.23-3.54,22.23,.74,22.23,3.54-14.54,3.54-22.23,3.54Zm0-6.08c-13.58,0-20.93,1.64-21.23,2.56,.3,.89,7.65,2.53,21.23,2.53s20.86-1.62,21.22-2.54c-.37-.92-7.71-2.54-21.22-2.54Z" fill="#231f20"></path>
    </g>
    <path d="M235.53,623.7c-.23,0-.44-.17-.49-.41l-10-51.71c-.05-.27,.12-.53,.4-.59,.26-.05,.53,.12,.59,.4l10,51.71c.05,.27-.12,.53-.4,.59-.03,0-.06,0-.1,0Z" fill="#231f20"></path>
    <path d="M199.9,430.75c-.2,0-.39-.12-.47-.32-12.72-32.54-39.18-131.43-39.44-132.42-.07-.27,.09-.54,.35-.61,.27-.07,.54,.09,.61,.35,.27,.99,26.71,99.83,39.41,132.32,.1,.26-.03,.55-.28,.65-.06,.02-.12,.03-.18,.03Z" fill="#231f20"></path>
    <path d="M664.01,438.57c-.08,0-.16-.02-.23-.06-.24-.13-.34-.43-.21-.68,.49-.92,48.93-92.3,50.93-110.44,.03-.27,.27-.47,.55-.44,.27,.03,.47,.28,.44,.55-2.02,18.33-49.04,107.03-51.04,110.8-.09,.17-.26,.27-.44,.27Z" fill="#231f20"></path>
    <g>
      <path d="M670.96,216.01s63.45,117.77,59.54,237.27c0,0-4.78,111.25-56.06,205.11h44.76s55.19-81.7,37.37-247.27c0,0-11.73-114.29-81.26-209.89l-4.35,14.78Z" fill="#f6991a"></path>
      <path d="M719.46,658.9h-45.87l.4-.74c50.63-92.68,55.95-203.78,56-204.9,2.02-61.64-14.26-122.8-28.27-163.25-15.18-43.84-31.05-73.47-31.21-73.77l-.1-.18,4.69-15.95,.6,.82c68.81,94.62,81.24,208.99,81.36,210.14,9.21,85.6-1.45,148.35-12.02,185.91-11.46,40.73-25.3,61.48-25.43,61.69l-.15,.22Zm-44.18-1h43.65c1.5-2.32,14.39-22.88,25.17-61.24,10.54-37.47,21.17-100.06,11.97-185.48-.12-1.14-12.45-114.6-80.57-208.83l-4,13.6c1.36,2.56,16.58,31.6,31.17,73.71,14.04,40.53,30.35,101.82,28.33,163.63-.05,1.12-5.34,111.85-55.72,204.6Z" fill="#231f20"></path>
    </g>
    <path d="M685.05,246.43h-.06c-.28,0-.5-.23-.5-.5,0-.27,.23-.5,.5-.5,0,0,0,0,.02,0,.38,0,9.06-.05,15.69-3.78,.24-.14,.55-.05,.68,.19,.14,.24,.05,.55-.19,.68-6.78,3.81-15.29,3.91-16.14,3.91Z" fill="#231f20"></path>
    <path d="M703.99,296.47c-.19,0-.38-.11-.46-.3-.11-.25,0-.55,.26-.66,.11-.05,11.4-5.06,15.93-15.07,.11-.25,.41-.36,.66-.25,.25,.11,.36,.41,.25,.66-4.7,10.37-15.97,15.37-16.44,15.57-.06,.03-.13,.04-.2,.04Z" fill="#231f20"></path>
    <path d="M732.53,318.52c-14.86,0-22.15-3.02-22.47-3.16-.25-.11-.37-.4-.26-.66,.11-.25,.4-.37,.66-.27,.08,.03,8.1,3.36,24.13,3.06,.27-.01,.5,.21,.51,.49,0,.28-.21,.5-.49,.51-.71,.01-1.4,.02-2.07,.02Z" fill="#231f20"></path>
    <path d="M744.2,354.16c-15.68,0-25.78-7.63-25.88-7.71-.22-.17-.26-.48-.09-.7,.17-.22,.48-.26,.7-.09,.1,.08,10.37,7.8,26.19,7.49,.24-.02,.5,.21,.51,.49,0,.28-.21,.5-.49,.51-.31,0-.63,0-.94,0Z" fill="#231f20"></path>
    <path d="M735.81,390.81c-5.41,0-8.85-.7-8.91-.71-.27-.06-.44-.32-.39-.59,.06-.27,.32-.45,.59-.39,.11,.02,11.69,2.37,25.8-1.7,.27-.08,.54,.08,.62,.34,.08,.27-.08,.54-.34,.62-6.63,1.91-12.72,2.43-17.37,2.43Z" fill="#231f20"></path>
    <path d="M740.55,438.5c-4.15,0-7.66-.44-9.78-.78-.13-.02-.22-.04-.25-.04-.27-.03-.47-.27-.45-.54,.02-.27,.25-.49,.51-.46,.03,0,.15,.02,.35,.05,4.86,.79,17.27,2.09,27.47-2.79,.25-.12,.55-.01,.67,.24,.12,.25,.01,.55-.24,.67-5.99,2.87-12.71,3.66-18.28,3.66Z" fill="#231f20"></path>
    <path d="M731.63,481.92c-2.01,0-3.22-.06-3.26-.06-.28-.01-.49-.25-.47-.52,.01-.27,.22-.49,.52-.47,.18,.01,17.74,.83,31.43-4,.26-.09,.55,.04,.64,.31,.09,.26-.04,.55-.3,.64-10.31,3.64-22.75,4.12-28.55,4.12Z" fill="#231f20"></path>
    <path d="M731.71,522.5c-5.68,0-9.45-.49-9.54-.5-.27-.04-.47-.29-.43-.56,.04-.27,.29-.47,.56-.43,.19,.02,18.95,2.45,36.14-3.7,.26-.09,.55,.04,.64,.3s-.04,.55-.3,.64c-9.71,3.48-19.91,4.25-27.07,4.25Z" fill="#231f20"></path>
    <path d="M732.73,556.43c-13.74,0-17.33-2.96-17.53-3.13-.21-.18-.23-.5-.05-.71,.18-.21,.5-.23,.7-.05,.1,.08,7.06,5.53,37.97,1.19,.26-.04,.53,.15,.56,.43,.04,.27-.15,.53-.43,.56-8.91,1.25-15.85,1.71-21.24,1.71Z" fill="#231f20"></path>
    <path d="M745.71,593.28s-.03,0-.04,0c-22.93-1.73-37.21-13.78-37.35-13.9-.21-.18-.23-.5-.05-.71,.18-.21,.5-.23,.71-.05,.14,.12,14.19,11.96,36.77,13.66,.28,.02,.48,.26,.46,.54-.02,.26-.24,.46-.5,.46Z" fill="#231f20"></path>
    <path d="M730.06,638.35h-.01c-26.7-.55-41.7-5.01-41.85-5.05-.26-.08-.41-.36-.33-.62,.08-.26,.36-.41,.62-.33,.15,.04,15.03,4.46,41.58,5.01,.28,0,.5,.23,.49,.51,0,.27-.23,.49-.5,.49Z" fill="#231f20"></path>
    <g>
      <path d="M195.03,214.27s-63.45,117.77-59.54,237.27c0,0,4.44,112.99,55.72,206.85h-43.89s-55.72-83.44-37.9-249c0,0,11.73-114.29,81.26-209.89l4.35,14.78Z" fill="#f6991a"></path>
      <path d="M192.05,658.9h-45l-.15-.22c-.14-.21-14.11-21.4-25.7-62.56-10.69-37.96-21.5-101.17-12.28-186.78,.12-1.14,12.54-115.52,81.36-210.13l.6-.82,4.69,15.95-.1,.18c-.16,.29-16.03,29.93-31.21,73.77-14.01,40.45-30.28,101.6-28.27,163.25,.04,1.13,5.02,113.95,55.65,206.63l.4,.74Zm-44.46-1h42.78c-50.38-92.75-55.33-205.2-55.37-206.33-2.02-61.81,14.29-123.1,28.33-163.63,14.59-42.12,29.81-71.15,31.17-73.71l-4-13.6c-68.13,94.24-80.46,207.69-80.57,208.83-9.19,85.42,1.58,148.48,12.24,186.35,10.91,38.77,23.92,59.75,25.44,62.1Z" fill="#231f20"></path>
    </g>
    <path d="M180.94,244.69c-.85,0-9.37-.1-16.14-3.91l.49-.87c6.76,3.8,15.65,3.78,15.7,3.78v1h-.05Z" fill="#231f20"></path>
    <path d="M162,294.73c-.07,0-.13-.01-.2-.04-.48-.21-11.75-5.2-16.44-15.58-.11-.25,0-.55,.25-.66,.25-.11,.55,0,.66,.25,4.54,10.01,15.82,15.02,15.93,15.07,.25,.11,.37,.4,.26,.66-.08,.19-.27,.3-.46,.3Z" fill="#231f20"></path>
    <path d="M133.46,316.78c-.67,0-1.36,0-2.07-.02-.28,0-.5-.23-.49-.51,0-.28,.22-.5,.51-.49,16.04,.31,24.05-3.03,24.13-3.06,.25-.11,.55,.01,.66,.26,.11,.25,0,.55-.26,.66-.32,.13-7.61,3.16-22.47,3.16Z" fill="#231f20"></path>
    <path d="M121.79,352.42c-.31,0-.62,0-.94,0-.28,0-.5-.23-.49-.51,0-.28,.25-.51,.51-.49,.31,0,.62,0,.92,0,15.33,0,25.17-7.42,25.26-7.5,.22-.17,.53-.13,.7,.09,.17,.22,.13,.53-.09,.7-.1,.08-10.2,7.71-25.88,7.71Z" fill="#231f20"></path>
    <path d="M130.18,389.07c-4.64,0-10.73-.52-17.37-2.43-.26-.08-.42-.35-.34-.62,.08-.27,.35-.42,.62-.34,14.1,4.06,25.68,1.72,25.8,1.7,.27-.06,.54,.12,.59,.39,.06,.27-.12,.54-.39,.59-.06,.01-3.51,.71-8.91,.71Z" fill="#231f20"></path>
    <path d="M125.44,436.77c-5.57,0-12.29-.79-18.28-3.66-.25-.12-.35-.42-.24-.67,.12-.25,.42-.35,.67-.24,10.2,4.88,22.6,3.58,27.47,2.79,.2-.03,.32-.05,.35-.05,.26-.02,.51,.2,.52,.48,.01,.27-.2,.5-.46,.52-.04,0-.12,.02-.25,.04-2.11,.34-5.63,.78-9.78,.78Z" fill="#231f20"></path>
    <path d="M134.36,480.18c-5.79,0-18.24-.48-28.55-4.12-.26-.09-.4-.38-.3-.64,.09-.26,.38-.39,.64-.31,13.69,4.84,31.25,4.01,31.43,4,.29-.02,.51,.2,.52,.47,.01,.28-.2,.51-.47,.52-.05,0-1.26,.06-3.26,.06Z" fill="#231f20"></path>
    <path d="M134.28,520.77c-7.16,0-17.36-.77-27.07-4.25-.26-.09-.39-.38-.3-.64,.09-.26,.38-.4,.64-.3,17.19,6.15,35.95,3.73,36.14,3.7,.27-.03,.53,.15,.56,.43,.04,.27-.15,.53-.43,.56-.08,.01-3.85,.5-9.54,.5Z" fill="#231f20"></path>
    <path d="M133.26,554.69c-5.38,0-12.33-.45-21.24-1.71-.27-.04-.46-.29-.43-.56,.04-.27,.3-.46,.56-.43,31.2,4.39,37.9-1.13,37.97-1.18,.21-.18,.52-.16,.71,.05,.18,.21,.16,.52-.05,.71-.2,.17-3.79,3.13-17.53,3.13Z" fill="#231f20"></path>
    <path d="M120.28,591.54c-.26,0-.48-.2-.5-.46-.02-.28,.19-.52,.46-.54,22.61-1.71,36.63-13.54,36.77-13.66,.21-.18,.53-.16,.71,.05s.16,.53-.05,.71c-.14,.12-14.42,12.17-37.35,13.9-.01,0-.03,0-.04,0Z" fill="#231f20"></path>
    <path d="M135.92,636.61c-.27,0-.49-.22-.5-.49,0-.28,.21-.5,.49-.51,26.55-.55,41.44-4.96,41.58-5.01,.26-.08,.54,.07,.62,.33,.08,.26-.07,.54-.33,.62-.15,.04-15.15,4.5-41.85,5.05h-.01Z" fill="#231f20"></path>
    <g>
      <path d="M727.46,658.4s5.65-36.5,40.41-49.54c0,0-.43,36.07-25.64,49.54h-14.78Z" fill="#2bb673"></path>
      <path d="M742.36,658.9h-15.48l.09-.58c.06-.37,6.09-36.94,40.73-49.93l.68-.26v.73c-.01,.36-.74,36.52-25.91,49.98l-.11,.06Zm-14.3-1h14.05c22.56-12.15,24.99-43.11,25.24-48.3-31.11,12.09-38.38,43.64-39.29,48.3Z" fill="#231f20"></path>
    </g>
    <g>
      <path d="M691.82,600.17s-6.56,30.71,23.9,58.23h10.43l-12.1-42.5s-8.32-13.13-22.23-15.73Z" fill="#2bb673"></path>
      <path d="M726.81,658.9h-11.28l-.14-.13c-30.33-27.4-24.12-58.4-24.06-58.71l.1-.48,.48,.09c13.96,2.62,22.47,15.83,22.56,15.96l.06,.13,12.28,43.13Zm-10.9-1h9.58l-11.9-41.79c-.62-.94-8.6-12.7-21.37-15.35-.65,4.01-3.97,32.05,23.69,57.14Z" fill="#231f20"></path>
    </g>
    <path d="M258.58,623.64c-.06,0-.12,0-.17-.03-.26-.09-.39-.38-.3-.64l9.54-26.01c.07-.2,.26-.33,.47-.33h17.38c.28,0,.5,.22,.5,.5s-.22,.5-.5,.5h-17.03l-9.42,25.68c-.07,.2-.27,.33-.47,.33Z" fill="#231f20"></path>
    <g>
      <path d="M249.87,590.6l-6.07,1.11-7.55,1.38-12.76,2.33-7.6,1.39-6.44,1.18c0-11.04,5.26-16.95,9.84-20.01,.74-.5,1.51-.94,2.31-1.33,1.13-.55,2.3-1,3.5-1.32,.8-.22,1.61-.39,2.43-.5,1.53-.22,3.09-.25,4.64-.09,.53,.05,1.07,.13,1.6,.23,12.39,2.33,16.1,15.63,16.1,15.63Z" fill="#f6c34c"></path>
      <path d="M208.96,598.59v-.6c0-11.33,5.47-17.36,10.07-20.43,.77-.51,1.56-.97,2.37-1.36,1.16-.57,2.36-1.02,3.59-1.35,.84-.23,1.68-.4,2.49-.51,1.58-.23,3.18-.26,4.76-.09,.53,.05,1.08,.13,1.64,.24,12.54,2.36,16.45,15.85,16.48,15.99l.15,.53-41.54,7.59Zm21.28-23.45c-.88,0-1.75,.06-2.63,.19-.78,.11-1.57,.27-2.37,.49-1.17,.32-2.31,.75-3.41,1.29-.76,.37-1.52,.81-2.25,1.29-4.31,2.87-9.43,8.49-9.62,19l39.26-7.18c-.85-2.45-5-12.77-15.54-14.75-.53-.1-1.05-.17-1.56-.22-.63-.06-1.26-.1-1.89-.1Z" fill="#231f20"></path>
    </g>
    <g>
      <path d="M223.49,595.42l-7.6,1.39c-.1-3.98,.22-14.38,5.71-20.16,1.13-.55,2.3-1,3.5-1.32-1.27,2.91-3.32,9.61-1.62,20.09Z" fill="#fff"></path>
      <path d="M215.41,597.41v-.58c-.12-4.21,.24-14.64,5.83-20.52l.14-.1c1.16-.57,2.37-1.02,3.59-1.35l1-.27-.42,.95c-1.31,3-3.25,9.55-1.58,19.81l.08,.48-8.65,1.58Zm6.5-20.35c-5.04,5.37-5.57,14.77-5.52,19.15l6.54-1.2c-1.42-9.25,.05-15.53,1.33-18.91-.8,.26-1.58,.58-2.35,.95Z" fill="#231f20"></path>
    </g>
    <g>
      <path d="M243.8,591.71l-7.55,1.38c-1.09-10.45-6.11-16.03-8.71-18.26,1.53-.22,3.09-.25,4.64-.09,7.6,4.23,10.62,13.06,11.62,16.97Z" fill="#fff"></path>
      <path d="M235.81,593.68l-.06-.54c-1.05-10.12-5.8-15.58-8.54-17.93l-.84-.72,1.09-.16c1.58-.22,3.18-.25,4.76-.09l.19,.06c7.84,4.36,10.91,13.54,11.87,17.28l.13,.52-8.61,1.58Zm-7.12-18.48c2.84,2.72,6.91,8.12,8,17.3l6.49-1.19c-1.06-3.87-4.06-12.09-11.16-16.09-1.1-.11-2.22-.12-3.33-.02Z" fill="#231f20"></path>
    </g>
    <g>
      <path d="M91.97,61.02c24.95,1.47,46,36.12,46,36.12-1.86-5.42-1.91-8.85-1.38-10.99,.61-2.44,3.33-3.73,5.59-2.64,12.44,5.96,28.7,44.22,28.7,44.22,.34-1.91,.83-3.35,1.4-4.43,1.61-3.06,5.85-3.39,7.97-.65,12.04,15.5,13.95,47.83,13.96,66.62l.12-.2,13.58-25.24c1.64-3.05,3.47-6.01,5.48-8.83,20.65-29.11,26.4-26.86,26.4-26.86,6.37,1.86,4,12.2,4,12.2,0,0,30.14-34.89,45.49-30.76,2.5,.67,3.99,3.29,3.21,5.76-.52,1.64-1.68,3.75-4.07,6.34,0,0,40.31-23.19,57.8-8.95,3.2,2.61,4.15,7.07,2.36,10.8-4.23,8.85-17.79,24.79-60.62,25.51,0,0,14.93,2.91,15.29,7.85,0,0,1.24,5.91-50.53,7.6,0,0,10.97,8.25-5.27,12.96,0,0-34.25,8.12-50.44,23.91,0,0,72.44-20.95,82.91-2.89,0,0,1.66,3.78-5.93,7.7,0,0,42.25,2.63,50.29,15.48,1.82,2.91,.31,6.8-3.01,7.67-1.47,.38-3.42,.6-6.01,.47,0,0,48.17,21.2,43.03,41.86-.72,2.89-2.85,5.25-5.66,6.22-7.24,2.49-24.97,2.43-58.87-30.4,0,0,7.36,14.97,2.71,16.56-.59,.2-1.24,.08-1.78-.25-2.42-1.47-11.81-8.16-36.89-35.37,0,0,2.96,8.46-5.93,7.7,0,0-3.71,.43-15.46-10.63,0,0-18.7-13.56-34.27-15.88,0,0,74.74,73.62,34.34,63.27,0,0,27.97,43.26,13.61,53.3,0,0-5.56,.33-9.77-7.57,0,0,9.36,48.17-7.61,58.66-3.21,1.99-7.32,1.66-10.31-.65-6.84-5.3-17.72-20.99-8.16-65.48,0,0-7.88,15.91-12.02,12.62,0,0-3.28-8.17,6.9-51.34,0,0-3.73,6.89-8.65,.79,0,0-2.53-4.74-1.13-14.21,0,0,2.35-34.34-8.31-48.72,0,0-22.9,75.76-38.51,74.05,0,0-3.94-1.12-3.51-9.72,0,0-21.05,31.84-36.14,36.08-4.42,1.24-8.49-2.9-7.15-7.29,.41-1.35,1.16-2.91,2.39-4.71,0,0-28.35,23.97-49.09,20.65-8.85-1.42-13.21-11.55-8.1-18.92,2.98-4.3,8.26-9.52,17.38-15.51,5.74-3.77,11.95-6.78,18.47-8.92,4.75-1.55,10.72-3.14,17.15-3.99,0,0-9.94,0-15.12-3.51-1.13-.76-1.22-2.41-.2-3.31,3.18-2.78,13.76-8.19,49-14.24,0,0-6.98-1.89-5.41-8.58,0,0,3.35-5.37,12.42-8.3,0,0,27.46-11.01,39.58-27.99-.46-.17-.95-.37-1.46-.61-2.62-1.21-5.34-2.19-8.15-2.83-6.36-1.44-17.46-3.19-30.42-1.91-2.6,.26-5.17,.72-7.72,1.29-3.41,.77-10.14,1.73-14.25-1.34-1.57-1.17-2.12-3.56-1.19-5.27,.52-.95,1.42-1.98,2.94-2.99,0,0-40.21,14.04-50.89,11.3-1.5-.39-2.1-2.18-1.16-3.42,.82-1.08,2.42-2.53,5.42-4.39l7.32-4.86s-45.19,15.17-65.49-2.43c-3.49-3.03-4.31-8.07-1.9-12.02,4.55-7.44,17.77-17.21,56.09-11.66,0,0-3.21-2.24-5.22-6.15-.97-1.89-.08-4.23,1.89-5.02,2.26-.9,6.17-1.59,12.87-.96,0,0,21.16,1.38,37.5,12.97,0,0-5.46-13.6,5.52-11.63,1.92,.34,3.75,1.08,5.41,2.11,6.61,4.06,30.22,18.76,46.01,31.23-8.08-11.96-20.96-21.42-20.96-21.42-18.79-11.72-5.24-18.11-5.24-18.11l-21.86-11.87c-12.94-6.63-17.94-10.88-19.81-13.4-1.27-1.71-.28-4.19,1.82-4.56,.89-.16,1.73-.07,2.33,.05,.95,.19,1.9,.36,2.87,.47,6.86,.73,8.43,.3,8.43,.3-35.97-19.42-43.33-36.91-43.84-47.22-.3-6.1,4.83-11.05,10.93-10.7Z" fill="#2bb673"></path>
      <path d="M228.08,379.06c-2.11,0-4.23-.69-5.99-2.05-7.03-5.44-17.34-20.77-9.04-62.62-2.11,3.71-5.87,9.55-8.96,10.24-.82,.18-1.56,.02-2.19-.48l-.1-.08-.05-.12c-.13-.33-3.11-8.51,6.35-49.38-.78,.78-1.86,1.53-3.16,1.65-1.67,.15-3.3-.75-4.87-2.69-.16-.28-2.64-5.08-1.23-14.6,.02-.3,2.13-33-7.63-47.53-2.82,9.16-23.19,73.45-38.18,73.46-.19,0-.37,0-.56-.03-.24-.06-3.86-1.18-3.98-8.53-4.31,6.28-22.02,31.1-35.48,34.89-2.26,.63-4.59,0-6.24-1.67-1.64-1.68-2.21-4.01-1.53-6.24,.24-.77,.57-1.57,.99-2.4-7.1,5.55-29.68,21.8-47.29,18.99-4.34-.69-7.96-3.52-9.68-7.55-1.71-4.01-1.25-8.55,1.24-12.15,3.5-5.04,9.39-10.3,17.51-15.64,5.83-3.83,12.09-6.85,18.59-8.97,4.35-1.42,8.64-2.53,12.8-3.3-3.36-.38-7.88-1.26-10.9-3.31-.67-.45-1.08-1.17-1.13-1.98-.05-.81,.27-1.59,.88-2.12,3.08-2.7,13.35-8.07,47.55-14.06-2.08-1.08-5.27-3.58-4.12-8.5l.06-.15c.14-.23,3.55-5.56,12.69-8.51,.24-.1,26.87-10.91,38.94-27.29-.29-.12-.58-.25-.89-.39-2.72-1.26-5.43-2.2-8.05-2.79-6.86-1.55-17.68-3.15-30.26-1.9-2.35,.23-4.85,.65-7.66,1.28-3.66,.82-10.43,1.73-14.66-1.43-1.78-1.33-2.38-3.98-1.33-5.91,.27-.49,.61-.96,1.02-1.42-9.07,3.05-39.38,12.83-48.65,10.45-.86-.22-1.54-.85-1.83-1.69-.3-.85-.15-1.79,.39-2.52,1.01-1.33,2.88-2.85,5.55-4.51l4.49-2.98c-10.78,3.05-45.63,11.32-62.73-3.51-3.69-3.2-4.53-8.52-2-12.66,5.07-8.29,18.72-17.04,54.84-12.14-1.15-1.06-2.77-2.82-3.99-5.19-.53-1.02-.59-2.23-.18-3.32,.41-1.09,1.26-1.96,2.33-2.39,3-1.2,7.41-1.53,13.1-.99,.19,.01,20.4,1.44,36.48,12.19-.71-2.33-1.72-6.87,.31-9.36,1.23-1.51,3.35-2.01,6.27-1.49,1.92,.34,3.8,1.07,5.58,2.17,6.44,3.96,27.72,17.22,43.34,29.15-7.91-10.42-18.72-18.43-18.84-18.51-6.96-4.34-10.39-8.52-10.16-12.4,.19-3.21,2.81-5.25,4.18-6.1l-21.06-11.44c-10.47-5.36-17.38-10.05-19.97-13.54-.7-.94-.86-2.17-.42-3.27,.44-1.1,1.39-1.88,2.55-2.08,.99-.17,1.91-.06,2.52,.06,.78,.16,1.8,.35,2.82,.46,3.34,.36,5.42,.42,6.65,.42-34.19-18.82-42.06-35.82-42.6-46.82-.15-3.01,1-5.96,3.15-8.09,2.19-2.17,5.22-3.31,8.31-3.13,20.66,1.22,38.8,25.15,44.53,33.51-.8-3.22-.94-5.9-.42-8,.33-1.31,1.22-2.4,2.45-2.98,1.23-.58,2.63-.58,3.84,0,11.23,5.39,25.19,35.91,28.32,43.04,.29-1.17,.67-2.18,1.12-3.04,.83-1.57,2.38-2.6,4.15-2.76,1.79-.16,3.54,.6,4.66,2.03,11.79,15.17,13.91,46.42,14.05,64.98l12.76-23.73c1.65-3.07,3.5-6.06,5.51-8.89,20.29-28.59,26.37-27.28,26.99-27.04,5.11,1.49,4.99,7.88,4.6,11.03,5.76-6.43,30.9-33.35,44.83-29.61,1.35,.36,2.5,1.27,3.17,2.49,.66,1.21,.8,2.6,.39,3.9-.44,1.41-1.26,2.9-2.44,4.46,8.96-4.76,40.7-20.09,56.01-7.61,3.37,2.74,4.4,7.44,2.5,11.41-4.32,9.04-17.48,24.11-57.21,25.68,4.6,1.24,11.66,3.73,11.94,7.42,.01,.04,.05,.41-.34,.91-1.34,1.7-8.83,5.78-49.41,7.18,1.27,1.23,3.25,3.64,2.76,6.31-.51,2.81-3.6,5.05-9.18,6.67-.35,.08-32.29,7.78-48.72,22.39,11.98-3.3,71.8-18.81,81.49-2.1,.09,.21,1.56,3.77-4.66,7.57,8.03,.64,41.76,3.99,49.02,15.6,.96,1.54,1.13,3.39,.45,5.08-.67,1.67-2.04,2.89-3.76,3.34-1.11,.29-2.38,.46-3.8,.51,9.44,4.45,45.79,22.92,41.17,41.46-.77,3.09-3.01,5.54-5.99,6.57-7.53,2.6-24.93,2.22-57.49-28.7,1.56,3.62,4.11,10.36,2.87,13.37-.31,.75-.83,1.25-1.54,1.49-.7,.24-1.5,.13-2.2-.29-2.26-1.37-11.45-7.85-35.74-34.09,.18,1.38,.14,3.25-.95,4.65-1.13,1.46-3.12,2.08-5.91,1.84-.31,.05-4.18,.14-15.76-10.76-.13-.09-17.5-12.59-32.45-15.49,7.77,7.76,50.64,51.29,44.76,61.69-1.36,2.41-4.91,2.94-10.81,1.59,4.29,6.85,26.3,43.49,12.82,52.93l-.12,.08h-.14c-.22,.02-4.79,.22-8.85-5.54,1.71,10.31,6.67,47.32-8.3,56.57-1.49,.92-3.19,1.37-4.89,1.37Zm-12.51-71.74l-.84,3.92c-9.42,43.86,.95,59.54,7.98,64.98,2.85,2.21,6.77,2.46,9.74,.62,16.48-10.19,7.47-57.66,7.38-58.14l-.63-3.27,1.57,2.94c3.69,6.91,8.3,7.3,9.17,7.31,13.51-9.82-13.59-52.1-13.87-52.53l-.69-1.07,1.24,.32c6.05,1.55,9.72,1.27,10.91-.82,4.76-8.42-27.83-43.98-45.72-61.61l-1.09-1.08,1.52,.23c15.51,2.32,34.3,15.84,34.49,15.97,11.27,10.6,15.06,10.52,15.12,10.53,2.53,.21,4.22-.28,5.12-1.46,1.58-2.04,.39-5.54,.37-5.58l-.8-2.28,1.64,1.78c25.15,27.28,34.51,33.9,36.78,35.28,.45,.27,.94,.34,1.36,.2,.43-.15,.74-.45,.94-.93,1.28-3.09-2.41-11.83-3.94-14.94l-1.27-2.58,2.06,2c33.4,32.34,50.9,32.85,58.36,30.28,2.66-.92,4.66-3.11,5.34-5.87,4.98-20.01-42.26-41.07-42.74-41.28l-2.48-1.09,2.71,.14c2.29,.11,4.26-.04,5.86-.45,1.42-.37,2.54-1.37,3.09-2.74,.55-1.39,.42-2.92-.37-4.18-7.81-12.49-49.48-15.22-49.9-15.25l-1.8-.11,1.6-.83c7.01-3.63,5.71-7.03,5.7-7.06-10.13-17.47-81.59,2.96-82.31,3.17l-1.91,.55,1.42-1.39c16.09-15.71,50.33-23.96,50.67-24.04,5.16-1.5,8-3.48,8.45-5.88,.58-3.18-3.32-6.17-3.36-6.2l-1.13-.85,1.42-.05c48.75-1.59,50.05-7.02,50.05-7.08-.28-3.73-10.84-6.59-14.89-7.38l-4.67-.91,4.76-.08c42.2-.71,55.82-16.11,60.18-25.22,1.7-3.55,.78-7.75-2.23-10.2-17.03-13.87-56.83,8.76-57.23,9l-2.83,1.63,2.22-2.4c2.04-2.21,3.37-4.27,3.96-6.15,.33-1.04,.22-2.15-.31-3.12-.54-.98-1.47-1.71-2.55-2.01-14.87-4-44.68,30.26-44.98,30.61l-1.31,1.52,.45-1.96c.02-.1,2.19-9.9-3.65-11.61-.06-.02-6.05-1.25-25.85,26.67-1.98,2.79-3.82,5.75-5.45,8.78l-13.71,25.46-.93,1.56v-1.81c0-18.12-1.82-50.83-13.85-66.32-.91-1.16-2.33-1.79-3.78-1.65-1.45,.13-2.67,.94-3.35,2.23-.59,1.12-1.04,2.56-1.35,4.29l-.29,1.66-.66-1.55c-.16-.38-16.33-38.15-28.46-43.96-.94-.45-2.03-.45-2.98,0-.96,.45-1.66,1.3-1.91,2.32-.64,2.58-.18,6.19,1.37,10.71l1.5,4.36-2.4-3.94c-.21-.34-21.2-34.44-45.6-35.88-2.81-.16-5.56,.87-7.55,2.84-1.98,1.96-2.99,4.56-2.86,7.33,.54,10.91,8.53,27.88,43.57,46.81l1.09,.59-1.2,.33c-.07,.02-1.74,.45-8.62-.28-1.06-.11-2.11-.31-2.91-.48-.52-.1-1.31-.2-2.14-.05-.82,.14-1.49,.69-1.8,1.47-.31,.78-.2,1.64,.29,2.3,1.75,2.35,6.57,6.56,19.64,13.25l22.74,12.35-.89,.42s-4.22,2.04-4.43,5.72c-.2,3.44,3.17,7.42,9.72,11.51,.16,.12,13.07,9.67,21.11,21.57l1.8,2.66-2.52-1.99c-15.71-12.4-39.16-27.01-45.97-31.19-1.68-1.03-3.44-1.72-5.24-2.04-2.55-.46-4.33-.07-5.32,1.14-2.38,2.92,.32,9.75,.35,9.82l.63,1.58-1.39-.98c-16.03-11.37-37.03-12.87-37.24-12.88-6.9-.65-10.69,.15-12.66,.93-.81,.32-1.45,.98-1.76,1.81-.31,.83-.26,1.74,.14,2.51,1.93,3.75,5.03,5.95,5.06,5.97l1.72,1.21-2.08-.3c-38.83-5.63-51.5,4.74-55.6,11.43-2.27,3.72-1.52,8.5,1.8,11.38,19.85,17.21,64.56,2.49,65,2.34l3.59-1.21-10.48,6.96c-2.58,1.6-4.36,3.04-5.3,4.27-.34,.46-.44,1.05-.25,1.58,.18,.53,.6,.91,1.14,1.05,10.42,2.68,50.2-11.15,50.6-11.29l3.81-1.33-3.37,2.22c-1.29,.85-2.23,1.8-2.78,2.81-.81,1.48-.33,3.6,1.05,4.63,3.91,2.92,10.35,2.04,13.84,1.25,2.84-.64,5.39-1.07,7.78-1.3,12.71-1.25,23.65,.35,30.58,1.92,2.69,.61,5.47,1.57,8.25,2.86,.5,.23,.97,.43,1.42,.6l.61,.23-.38,.53c-12.06,16.91-39.52,28.06-39.8,28.17-8.29,2.68-11.72,7.42-12.14,8.03-1.36,6.06,4.81,7.83,5.08,7.9l2.17,.59-2.22,.38c-35.32,6.07-45.71,11.45-48.75,14.12-.37,.33-.57,.8-.54,1.31,.03,.5,.28,.94,.69,1.21,5,3.38,14.74,3.43,14.84,3.43l.07,1c-5.46,.72-11.2,2.06-17.06,3.97-6.42,2.1-12.6,5.08-18.35,8.86-8.02,5.26-13.82,10.43-17.24,15.37-2.29,3.31-2.72,7.49-1.15,11.19,1.58,3.71,4.92,6.31,8.92,6.95,20.25,3.24,48.4-20.3,48.68-20.54l2.83-2.39-2.09,3.05c-1.11,1.63-1.9,3.17-2.32,4.57-.57,1.88-.09,3.84,1.29,5.25,1.39,1.42,3.35,1.95,5.25,1.41,14.74-4.14,35.65-35.56,35.86-35.88l1.01-1.53-.09,1.83c-.4,8.02,3.12,9.2,3.15,9.21,14.93,1.6,37.66-72.96,37.89-73.72l.29-.95,.59,.8c10.64,14.37,8.5,47.65,8.41,49.06-1.36,9.2,1.05,13.9,1.07,13.94,1.29,1.58,2.63,2.36,3.94,2.24,2.26-.21,3.82-3.01,3.83-3.04l1.78-3.26-.85,3.62c-9.34,39.6-7.28,49.73-6.96,50.92,.36,.24,.77,.31,1.24,.2,3.32-.74,8.28-9.45,9.91-12.74l1.78-3.59Z" fill="#231f20"></path>
    </g>
    <path d="M51.34,312.74c-.21,0-.4-.13-.47-.33-.09-.26,.05-.55,.31-.64,.28-.1,28.4-10.03,59.46-28.79,28.62-17.3,65.67-45.85,79.58-83.64,.1-.26,.39-.39,.64-.3,.26,.1,.39,.38,.3,.64-14.01,38.07-51.25,66.78-80.02,84.16-31.14,18.81-59.35,28.77-59.63,28.87-.05,.02-.11,.03-.17,.03Z" fill="#231f20"></path>
    <path d="M189.47,200c-.07,0-.15-.02-.21-.05-75.03-35.59-170.39-17.53-171.34-17.34-.27,.05-.53-.12-.59-.4-.05-.27,.12-.53,.39-.59,.96-.19,96.64-18.31,171.96,17.42,.25,.12,.36,.42,.24,.67-.09,.18-.27,.29-.45,.29Z" fill="#231f20"></path>
    <path d="M190.34,197.83c-.21,0-.4-.13-.47-.34-25.72-76.73-104.18-130.02-104.97-130.55-.23-.15-.29-.46-.14-.69,.15-.23,.47-.29,.69-.14,.79,.53,79.53,54,105.36,131.06,.09,.26-.05,.54-.31,.63-.05,.02-.11,.03-.16,.03Z" fill="#231f20"></path>
    <path d="M192.51,199.13c-.1,0-.21-.03-.3-.1-.22-.17-.26-.48-.1-.7,24.54-32.64,64.8-53.05,94.25-64.43,31.89-12.31,58.33-16.98,58.6-17.03,.28-.05,.53,.14,.58,.41s-.13,.53-.41,.58c-1.05,.18-105.51,18.94-152.22,81.07-.1,.13-.25,.2-.4,.2Z" fill="#231f20"></path>
    <path d="M227.71,375.13s-.03,0-.04,0c-.28-.02-.48-.26-.46-.54,4.93-60.71-4.64-103.82-13.53-129.29-9.63-27.59-20.58-41-20.68-41.14-.18-.21-.15-.53,.07-.7,.21-.18,.53-.15,.7,.07,.11,.13,11.14,13.64,20.84,41.38,8.94,25.57,18.55,68.84,13.61,129.76-.02,.26-.24,.46-.5,.46Z" fill="#231f20"></path>
    <path d="M353.73,273c-.11,0-.23-.04-.32-.12-47.71-39.65-87.49-56.17-112.46-63.06-27.04-7.46-43.01-5.51-43.17-5.49-.28,.03-.52-.16-.56-.43-.04-.27,.16-.52,.43-.56,.16-.02,16.28-1.99,43.49,5.5,25.08,6.9,65.02,23.48,112.9,63.27,.21,.18,.24,.49,.07,.7-.1,.12-.24,.18-.38,.18Z" fill="#231f20"></path>
    <g>
      <path d="M846.81,178.55c-17.82-17.53-57.64-9.91-57.64-9.91,5.26-2.26,7.84-4.51,9.08-6.35,1.4-2.09,.54-4.97-1.79-5.92-12.76-5.23-52.05,8.36-52.05,8.36,1.19-1.53,1.93-2.86,2.35-4.01,1.19-3.25-1.41-6.61-4.86-6.35-19.57,1.46-44.84,21.72-58.79,34.32l.07-.22,9.62-27c1.16-3.27,2.13-6.6,2.88-9.99,7.75-34.84,2.22-37.6,2.22-37.6-5.65-3.48-11.73,5.21-11.73,5.21,0,0,5.67-45.76-7.68-54.37-2.18-1.41-5.12-.76-6.43,1.48-.87,1.48-1.65,3.76-1.97,7.27,0,0-9.82-45.45-32.12-48.88-4.08-.63-8.03,1.67-9.6,5.49-3.73,9.07-6.46,29.82,21.72,62.08,0,0-12.17-9.13-16.08-6.08,0,0-5.21,3.04,28.25,42.59,0,0-13.47-2.61-6.08,12.6,0,0,16.95,30.85,16.08,53.45,0,0-25.46-52.27-45.5-62.07-5.29-2.59-11.19,2.23-9.75,7.93,.02,.08,.04,.17,.07,.25,0,0-29.3-28.62-44.46-27.03-3.9,.41-6.1,4.6-4.13,8,.71,1.23,1.79,2.65,3.4,4.26,0,0-42.89-19.22-57.63-6.42-3.81,3.31-4.58,8.88-1.92,13.17,4.52,7.29,18.4,18.23,60.86,21.06,0,0-16.04,4.58-14.11,9.1,.25,.58,.78,.98,1.38,1.16,2.71,.81,13.98,3.29,50.97,3.66,0,0-8.26,3.48-1.74,9.56,0,0,2.17,3.04,18.25,4.35,0,0,22.6,4.78,34.77,14.78,0,0-104.73-6.08-69.96,16.95,0,0-50.84,8.26-48.67,25.64,0,0,3.48,4.35,12.17,2.17,0,0-42.02,25.36-38.42,44.98,.68,3.71,3.67,6.54,7.39,7.21,8.51,1.52,27.45-.92,54.06-37.85,0,0-6.52,16.51-1.3,17.38,0,0,8.26-3.04,33.46-39.55,0,0-2.61,7.39,5.21,6.95,0,0,5.21-1.3,11.3-8.69,0,0,23.9-24.77,41.72-26.51,0,0-40.85,67.79-29.12,78.22,0,0,3.48,2.17,9.56-3.91,0,0-9.51,36.97-2.53,51.01,2.04,4.11,7.85,4.35,10.2,.42,.73-1.21,1.38-2.82,1.89-4.93,0,0,1.54,46.58,24.19,53.87,3.75,1.21,7.91-.17,10.09-3.46,2.84-4.28,5.22-12.74,2.74-29.38-1.08-7.24-3.12-14.31-6.14-20.99-2.01-4.45-4.75-9.71-8.28-14.83,0,0,6.67,7.37,12.75,8.86,1.32,.33,2.61-.71,2.59-2.07-.06-4.22-3.15-15.7-22.29-45.9,0,0,.08,.05,.21,.13,4.63,2.6,10.32-.91,10.16-6.22-.08-2.59-.65-6.2-2.55-10.42,0,0-10.24-27.75-5.77-48.13,.44,.23,.91,.45,1.43,.67,2.66,1.13,5.2,2.49,7.56,4.15,5.33,3.75,14.08,10.81,21.82,21.28,1.55,2.1,2.93,4.32,4.22,6.59,1.69,3,5.41,8.53,10.34,9.63,2.13,.48,4.35-.75,4.99-2.84,.3-.99,.43-2.29,.17-3.97,0,0,16.55,39.25,25.74,45.33,1.29,.85,3.03,.09,3.32-1.43,.26-1.33,.26-3.49-.38-6.96l-1.3-8.69s19.05,43.7,45.72,46.96c4.59,.56,8.88-2.21,10.19-6.65,2.47-8.37,.86-24.72-28.96-49.43,0,0,3.81,.88,8.07-.25,2.05-.55,3.2-2.78,2.46-4.76-.85-2.28-2.96-5.65-7.92-10.19,0,0-15.21-14.78-34.77-19.12,0,0,13.75-5.07,4.93-11.9-1.54-1.2-3.32-2.05-5.19-2.6-7.45-2.18-34.18-9.83-54.02-13.2,14.29-2.03,29.95,1.19,29.95,1.19,21.29,6.08,16.95-8.26,16.95-8.26l23.47,8.26c13.59,5.16,20.11,6.01,23.23,5.71,2.12-.21,3.3-2.6,2.17-4.4-.47-.75-1.08-1.31-1.57-1.67-.86-.64-1.71-1.3-2.5-2.02-4.97-4.46-5.68-5.88-5.68-5.88,38.53,13.66,56.44,7.39,64.43,.86,4.73-3.87,4.96-11,.6-15.28Z" fill="#2bb673"></path>
      <path d="M686.6,380.76c-.97,0-1.95-.15-2.9-.46-19.72-6.35-23.64-41.17-24.38-51.5-.33,.87-.7,1.65-1.12,2.34-1.2,2-3.34,3.14-5.66,3.05-2.35-.09-4.38-1.4-5.42-3.5-6.22-12.52,.32-42.3,2.09-49.71-5.54,4.84-8.79,2.91-8.94,2.82-11.37-10.1,23.47-69.69,28.43-78.03-17.32,2.5-40.17,25.99-40.41,26.24-6.09,7.4-11.32,8.77-11.54,8.83-2.58,.15-4.35-.46-5.35-1.79-.79-1.05-.95-2.35-.9-3.45-23.98,34.43-32.04,37.7-32.38,37.83l-.12,.05-.13-.02c-.8-.13-1.42-.57-1.83-1.3-1.56-2.75,.26-9.46,1.59-13.51-25.49,34.22-43.78,36.84-52.52,35.28-3.96-.71-7.09-3.77-7.79-7.61-3.18-17.31,27.61-38.45,36.4-44.1-6.99,.86-9.92-2.67-10.05-2.84l-.09-.11-.02-.14c-2.04-16.33,39.9-24.57,47.86-25.99-4.96-3.48-6.95-6.46-6.07-9.09,3.77-11.33,64.81-8.72,75.79-8.16-12.18-9.15-33.1-13.65-33.31-13.7-15.79-1.28-18.32-4.21-18.56-4.54-1.98-1.84-2.86-3.73-2.53-5.55,.31-1.75,1.67-3.03,2.82-3.82-35.75-.43-46.72-2.9-49.26-3.66-.78-.23-1.4-.76-1.69-1.44-.3-.69-.27-1.41,.08-2.14,1.4-2.94,8.11-5.57,11.84-6.84-39.44-3.01-53.67-13.09-58.64-21.11-2.82-4.54-1.97-10.35,2.02-13.81,13.07-11.35,47,1.66,56,5.41-.75-.9-1.38-1.77-1.88-2.62-1-1.72-1.06-3.8-.17-5.56,.91-1.79,2.66-2.98,4.68-3.19,13.73-1.45,38.2,20.85,43.75,26.11-.18-2.42,.81-4.74,2.74-6.31,2.27-1.84,5.31-2.19,7.92-.91,18.06,8.83,40.02,50.92,44.81,60.45-.18-21.99-15.88-50.84-16.05-51.14-2.55-5.24-2.95-9.04-1.21-11.3,1.66-2.16,4.78-2.3,6.54-2.18-26.17-31.05-28.17-39.34-27.8-41.48,.11-.62,.41-.85,.5-.9,2.88-2.25,9.45,1.33,13.45,3.91-25.47-30.52-23.11-50.4-19.31-59.66,1.67-4.07,5.84-6.46,10.14-5.79,19.52,3,29.43,36.82,31.91,46.66,.37-1.92,.93-3.53,1.67-4.81,.69-1.18,1.81-2.01,3.16-2.33,1.35-.32,2.8-.07,3.97,.68,12.12,7.82,9.01,44.52,8.1,53.11,2.07-2.4,6.74-6.77,11.3-3.96,.56,.28,5.61,3.9-2,38.13-.75,3.39-1.73,6.77-2.9,10.05l-9.04,25.38c13.87-12.34,38.47-31.72,57.63-33.15,1.79-.14,3.54,.65,4.63,2.09,1.07,1.42,1.35,3.26,.73,4.93-.33,.91-.84,1.87-1.5,2.86,7.39-2.45,39.39-12.57,50.92-7.85,1.25,.51,2.19,1.55,2.58,2.85,.4,1.3,.19,2.69-.57,3.82-1.21,1.79-3.29,3.49-6.21,5.06,10.04-1.36,39.96-3.95,54.72,10.57h0c2.21,2.17,3.39,5.18,3.25,8.26-.14,3.02-1.56,5.85-3.89,7.76-8.53,6.98-26.42,12.54-63.31-.21,.79,.9,2.19,2.33,4.57,4.48,.83,.75,1.71,1.42,2.47,1.99,.48,.36,1.17,.97,1.69,1.8,.62,1,.69,2.22,.16,3.29-.52,1.06-1.53,1.77-2.71,1.88-4.34,.42-12.44-1.56-23.45-5.74l-22.6-7.95c.29,1.59,.53,4.9-1.72,7.19-2.73,2.77-8.13,3.03-16.05,.77-.11-.02-13.29-2.68-26.33-1.56,19.32,3.59,43.43,10.48,50.69,12.61,2.02,.59,3.82,1.49,5.36,2.69,2.35,1.82,3.39,3.72,3.1,5.65-.49,3.17-4.53,5.47-6.74,6.51,18.76,4.72,33.37,18.75,33.52,18.9,4.2,3.85,6.91,7.35,8.04,10.38,.4,1.08,.33,2.29-.21,3.33-.53,1.03-1.48,1.79-2.59,2.09-2.57,.68-4.97,.66-6.52,.52,27.86,23.51,30.52,39.5,27.77,48.83-1.37,4.65-5.88,7.6-10.73,7-22.47-2.74-39.7-34.14-44.66-44.18l.8,5.35c.56,3.09,.69,5.49,.37,7.13-.17,.89-.77,1.63-1.6,1.98-.82,.34-1.75,.26-2.48-.23-7.97-5.27-21.05-34.33-24.87-43.1-.05,.52-.15,1.01-.29,1.46-.71,2.32-3.17,3.72-5.57,3.18-5.08-1.13-8.87-6.67-10.67-9.87-1.41-2.51-2.78-4.65-4.18-6.54-7.52-10.17-15.95-17.12-21.7-21.17-2.2-1.55-4.71-2.93-7.47-4.1-.31-.13-.6-.26-.88-.4-4.05,19.94,5.78,46.95,5.88,47.22,1.6,3.55,2.47,7.12,2.58,10.58,.08,2.7-1.25,5.14-3.56,6.54-1.85,1.12-4.01,1.37-5.99,.72,18.51,29.42,21.41,40.65,21.47,44.74,.01,.81-.35,1.57-.98,2.07-.63,.5-1.44,.68-2.22,.49-3.55-.87-7.23-3.63-9.77-5.87,2.11,3.44,4.08,7.18,5.88,11.14,3,6.63,5.08,13.73,6.18,21.12,2.56,17.2-.12,25.66-2.82,29.73-1.74,2.62-4.69,4.11-7.76,4.11Zm-26.56-58.52l.12,3.7c.01,.46,1.79,46.31,23.84,53.41,3.57,1.15,7.49-.19,9.52-3.26,2.6-3.92,5.18-12.14,2.66-29.03-1.09-7.29-3.14-14.31-6.1-20.85-2.45-5.4-5.22-10.37-8.24-14.75l.78-.62c.07,.07,6.64,7.27,12.5,8.71,.48,.12,.97,0,1.36-.3,.39-.31,.61-.78,.61-1.28-.06-4.05-3.03-15.37-22.21-45.64l-1.21-1.9,1.9,1.21s.07,.05,.19,.11c2,1.12,4.37,1.08,6.34-.11,2-1.21,3.15-3.32,3.07-5.65-.1-3.33-.95-6.77-2.5-10.23-.12-.31-10.26-28.16-5.8-48.44l.14-.64,.58,.3c.43,.22,.89,.44,1.4,.66,2.83,1.2,5.4,2.62,7.66,4.21,5.81,4.09,14.33,11.12,21.93,21.39,1.43,1.93,2.82,4.1,4.25,6.64,1.72,3.05,5.31,8.34,10.02,9.39,1.9,.42,3.84-.67,4.4-2.5,.32-1.05,.38-2.31,.16-3.74l-.61-3.99,1.57,3.72c.17,.39,16.59,39.18,25.56,45.11,.46,.31,1.03,.36,1.54,.14,.52-.22,.9-.69,1.01-1.25,.29-1.52,.16-3.8-.38-6.78l-1.87-12.46,1.51,3.48c.19,.43,19.24,43.48,45.32,46.66,4.37,.53,8.42-2.12,9.65-6.29,2.21-7.52,1.42-23.86-28.8-48.91l-1.62-1.34,2.05,.47s3.75,.84,7.83-.25c.84-.22,1.55-.8,1.96-1.58,.41-.79,.46-1.7,.16-2.52-.74-1.98-2.69-5.33-7.79-10-.16-.16-15.35-14.74-34.54-19l-1.66-.37,1.59-.59c.07-.03,6.95-2.6,7.52-6.33,.24-1.54-.68-3.12-2.72-4.7-1.44-1.11-3.13-1.96-5.02-2.52-7.67-2.25-34.23-9.84-53.96-13.18l-3.17-.54,3.18-.45c14.22-2.01,29.96,1.16,30.12,1.19,7.47,2.13,12.67,1.96,15.1-.5,2.59-2.62,1.29-7.08,1.27-7.12l-.28-.94,24.39,8.58c13.74,5.21,20.1,5.97,23.01,5.69,.82-.08,1.54-.58,1.91-1.33,.37-.75,.33-1.61-.11-2.31-.44-.7-1.03-1.22-1.44-1.53-.77-.58-1.68-1.27-2.54-2.04-4.9-4.39-5.71-5.88-5.79-6.03l-.55-1.11,1.17,.41c37.54,13.31,55.49,7.86,63.94,.94,2.14-1.76,3.4-4.25,3.52-7.03,.13-2.8-.95-5.53-2.95-7.51h0c-17.43-17.14-56.8-9.85-57.2-9.77l-4.53,.87,4.24-1.82c4.4-1.88,7.38-3.96,8.86-6.17,.59-.87,.75-1.95,.44-2.97-.31-1.01-1.04-1.81-2-2.21-12.44-5.1-51.3,8.23-51.7,8.37l-1.59,.55,1.04-1.33c1.07-1.38,1.84-2.68,2.28-3.87,.5-1.37,.29-2.82-.59-3.98-.88-1.17-2.28-1.8-3.76-1.7-19.56,1.46-45.04,22.05-58.49,34.19l-1.35,1.22,.61-1.96,9.63-27.02c1.15-3.24,2.12-6.58,2.86-9.93,7.43-33.42,2.51-37.02,2.46-37.06-5.2-3.2-11.02,4.98-11.08,5.07l-1.15,1.64,.25-1.99c.06-.45,5.48-45.55-7.45-53.89-.94-.61-2.11-.81-3.2-.55-1.08,.26-1.97,.92-2.53,1.86-.99,1.69-1.64,4.07-1.91,7.06l-.3,3.26-.69-3.2c-.1-.45-10-45.16-31.7-48.49-3.84-.59-7.56,1.54-9.06,5.18-3.84,9.35-6.13,29.78,21.64,61.56l3.13,3.58-3.81-2.86c-3.3-2.47-12.52-8.39-15.47-6.09-.03,.03-3.18,4.64,28.32,41.87l.91,1.08-1.39-.27s-4.88-.9-6.85,1.66c-1.49,1.94-1.05,5.38,1.31,10.23,.16,.29,16.99,31.21,16.13,53.69l-.08,1.99-.87-1.79c-.25-.52-25.62-52.23-45.27-61.84-2.26-1.11-4.89-.81-6.86,.79-1.97,1.6-2.81,4.12-2.19,6.57l.53,2-1.3-1.27c-.29-.28-29.3-28.42-44.06-26.89-1.69,.18-3.14,1.17-3.9,2.65-.75,1.47-.7,3.15,.14,4.6,.76,1.32,1.88,2.72,3.32,4.16l1.92,1.92-2.48-1.11c-.43-.19-42.77-18.94-57.1-6.5-3.61,3.14-4.38,8.41-1.83,12.53,4.06,6.54,17.31,17.95,60.47,20.83l2.86,.19-2.76,.79c-3.33,.95-12.29,4.08-13.72,7.1-.22,.47-.24,.9-.06,1.32,.17,.41,.56,.72,1.06,.87,2.54,.76,13.73,3.27,50.83,3.63l2.4,.02-2.21,.94s-3.44,1.48-3.89,4.02c-.26,1.46,.51,3.05,2.3,4.71,.08,.09,2.56,2.96,17.95,4.21,.29,.06,22.92,4.93,35.04,14.89l1.19,.97-1.53-.09c-25.07-1.46-73.31-1.79-76.36,7.39-.76,2.28,1.5,5.19,6.7,8.64l1.06,.71-1.26,.21c-.5,.08-50.05,8.33-48.27,24.93,.58,.63,3.96,3.8,11.57,1.9l3.23-.81-2.85,1.72c-.42,.25-41.69,25.4-38.18,44.47,.63,3.44,3.44,6.17,6.98,6.8,8.74,1.56,27.34-1.24,53.57-37.65l2.34-3.25-1.47,3.73c-1.35,3.42-4.48,12.94-2.81,15.9,.24,.42,.56,.67,.98,.78,1.08-.55,9.97-5.8,33.11-39.31l2.11-3.06-1.23,3.51s-1.05,3.06,.32,4.88c.79,1.05,2.27,1.53,4.4,1.41h0s5.06-1.37,10.94-8.51c1.01-1.05,24.26-24.95,42.05-26.69l.99-.1-.51,.85c-.41,.67-40.5,67.55-29.21,77.59h0s3.25,1.73,8.88-3.89l1.29-1.29-.46,1.77c-.09,.37-9.38,36.95-2.57,50.66,.88,1.77,2.58,2.87,4.57,2.95,1.97,.08,3.75-.88,4.76-2.56,.75-1.26,1.37-2.87,1.83-4.79l.86-3.6Z" fill="#231f20"></path>
    </g>
    <path d="M669.66,200.43c-.14,0-.28-.06-.38-.17-27.98-32.68-68.8-50.86-98.13-60.35-31.8-10.3-57.3-12.89-57.55-12.91-.28-.03-.48-.27-.45-.55,.03-.27,.28-.47,.55-.45,.25,.02,25.84,2.62,57.74,12.95,29.45,9.54,70.46,27.8,98.6,60.66,.18,.21,.16,.53-.05,.71-.09,.08-.21,.12-.33,.12Z" fill="#231f20"></path>
    <path d="M677.05,198.69h0c-.28,0-.5-.23-.49-.51,1.72-107.63-43.34-169.43-43.79-170.04-.17-.22-.12-.54,.1-.7,.22-.17,.53-.12,.7,.1,.11,.15,11.58,15.71,22.66,44.39,10.23,26.46,22.23,69.84,21.33,126.27,0,.27-.23,.49-.5,.49Z" fill="#231f20"></path>
    <path d="M680.09,199.13c-.19,0-.38-.11-.46-.3-.11-.25,0-.55,.26-.66,.82-.36,82.83-35.42,166.35-10.45,.26,.08,.42,.36,.34,.62-.08,.26-.35,.42-.62,.34-83.17-24.86-164.84,10.05-165.66,10.41-.07,.03-.13,.04-.2,.04Z" fill="#231f20"></path>
    <path d="M805.68,312.55c-.17,0-.33-.08-.43-.24-52.73-85.74-122.45-109.93-123.15-110.17-.26-.09-.4-.37-.31-.63,.09-.26,.37-.4,.63-.31,.18,.06,17.83,6.08,41.79,22.66,22.09,15.29,54.24,42.96,81.89,87.93,.14,.23,.07,.54-.16,.69-.08,.05-.17,.07-.26,.07Z" fill="#231f20"></path>
    <path d="M687.91,373.82c-.18,0-.35-.09-.44-.26-26.1-47.03-28.78-89.63-26.43-117.1,2.55-29.77,11.39-48.68,11.48-48.87,.12-.25,.42-.35,.67-.24,.25,.12,.36,.42,.24,.67-.09,.19-8.87,18.97-11.39,48.57-2.33,27.31,.35,69.69,26.31,116.48,.13,.24,.05,.55-.2,.68-.08,.04-.16,.06-.24,.06Z" fill="#231f20"></path>
    <path d="M522.78,288.21c-.1,0-.21-.03-.3-.1-.22-.17-.27-.48-.1-.7,.16-.21,15.87-21.04,41.42-41.91,23.6-19.28,60.67-42.54,103.24-43.89,.26-.04,.51,.21,.52,.48s-.21,.51-.48,.52c-42.28,1.34-79.14,24.48-102.62,43.65-25.47,20.8-41.12,41.55-41.27,41.75-.1,.13-.25,.2-.4,.2Z" fill="#231f20"></path>
    <g>
      <path d="M723.98,658.4s-26.51-54.75,6.08-91.69c0,0,26.94,34.77,6.08,91.69h-12.17Z" fill="#2bb673"></path>
      <path d="M736.5,658.9h-12.83l-.14-.28c-.27-.55-26.28-55.48,6.16-92.24l.4-.45,.37,.48c.27,.35,26.87,35.64,6.16,92.17l-.12,.33Zm-12.2-1h11.5c18.98-52.18-2.67-85.95-5.77-90.39-30.19,34.91-7.69,86.11-5.73,90.39Z" fill="#231f20"></path>
    </g>
    <rect x="722.6" y="633.13" width="58.83" height="1" transform="translate(-187.13 925.22) rotate(-57.37)" fill="#231f20"></rect>
    <rect x="729.56" y="568.01" width="1" height="90.39" fill="#231f20"></rect>
    <rect x="706.75" y="597.76" width="1" height="64.34" transform="translate(-212.07 402.19) rotate(-27.78)" fill="#231f20"></rect>
    <g>
      <g>
        <path d="M655.8,441.36s-.62-2.78,1.54-4.18c.74-.47,1.63-.63,2.5-.53,1.54,.19,4.52,.84,6.48,3.15,1.11,1.31,1.57,3.09,1.07,4.73-.36,1.19-1.25,2.38-3.29,2.69l-8.31-5.86Z" fill="#fff"></path>
        <path d="M663.98,447.74l-8.63-6.08-.04-.19c-.03-.13-.67-3.14,1.75-4.71,.8-.52,1.8-.73,2.83-.61,1.66,.2,4.74,.9,6.8,3.32,1.27,1.49,1.71,3.44,1.17,5.2-.36,1.19-1.3,2.67-3.69,3.03l-.2,.03Zm-7.72-6.67l7.97,5.62c1.4-.26,2.3-1.04,2.69-2.3,.44-1.43,.07-3.02-.98-4.26-1.84-2.16-4.65-2.8-6.16-2.98-.79-.1-1.57,.06-2.17,.45-1.55,1-1.43,2.88-1.35,3.47Z" fill="#231f20"></path>
      </g>
      <g>
        <path d="M652.35,445.54s-.46-3.74,3.45-4.18c0,0,6.95-1.3,8.26,5.65,0,0,.87,4.78-3.48,5.21l-8.23-6.68Z" fill="#fff"></path>
        <path d="M660.42,452.74l-8.54-6.94-.02-.2c0-.07-.21-1.84,.88-3.22,.68-.86,1.69-1.37,3.01-1.52,.04,0,7.43-1.3,8.8,6.05,.02,.1,.44,2.51-.85,4.22-.69,.92-1.72,1.45-3.07,1.58l-.21,.02Zm-7.59-7.45l7.89,6.41c.96-.13,1.68-.52,2.17-1.16,1.02-1.35,.67-3.42,.67-3.44-1.19-6.37-7.41-5.3-7.67-5.25-1.08,.12-1.86,.5-2.37,1.14-.65,.82-.7,1.87-.68,2.3Z" fill="#231f20"></path>
      </g>
      <g>
        <path d="M649.71,450.05s-.17-1.56,.57-2.93,2.31-1.97,3.79-1.6c2.23,.56,6.5,2.2,6.5,6.7,0,0-.41,2.8-3.25,3.57l-7.62-5.74Z" fill="#fff"></path>
        <path d="M657.22,456.34l-7.98-6.02-.02-.21c0-.07-.18-1.73,.63-3.22,.83-1.52,2.62-2.27,4.35-1.84,2.07,.51,6.88,2.24,6.88,7.18-.02,.2-.5,3.21-3.62,4.05l-.24,.06Zm-7.03-6.55l7.23,5.45c2.27-.75,2.64-3,2.66-3.09,0-4.01-3.84-5.57-6.12-6.14-1.29-.32-2.62,.23-3.23,1.35-.51,.94-.54,1.99-.53,2.43Z" fill="#231f20"></path>
      </g>
      <g>
        <path d="M202.55,445.71s-3.04-.43-2.61-4.35c0,0-2.61-1.3-1.74-4.78,0,0-2.3-.86-2.22-3.28,.03-1.16,.64-2.22,1.53-2.96,1.4-1.16,4.13-2.76,7.64-1.58,0,0,2.61,.87,2.17,4.78,0,0,1.74,1.3,1.3,4.35,0,0,2.61,1.74,.87,3.91l-3.91,4.78-3.04-.87Z" fill="#fff"></path>
        <path d="M205.77,447.15l-3.34-.95c-.4-.08-3.28-.78-3.02-4.57-.7-.49-2.31-1.95-1.79-4.75-.93-.5-2.21-1.68-2.15-3.58,.04-1.24,.66-2.46,1.71-3.33,1.41-1.17,4.34-2.93,8.12-1.67,.03,0,2.87,1,2.54,5.05,.49,.48,1.57,1.85,1.31,4.32,.42,.35,1.24,1.14,1.41,2.22,.12,.77-.11,1.52-.68,2.23l-4.12,5.04Zm-3.05-18.29c-2.22,0-3.94,1.09-4.89,1.88-.83,.69-1.32,1.63-1.35,2.59-.06,2.04,1.88,2.79,1.9,2.8l.42,.16-.11,.43c-.76,3.05,1.45,4.2,1.48,4.21l.31,.16-.04,.35c-.38,3.39,2.08,3.78,2.18,3.8h.07s2.73,.79,2.73,.79l3.7-4.53c.39-.48,.54-.96,.47-1.45-.15-1-1.22-1.73-1.23-1.73l-.26-.17,.04-.31c.38-2.68-1.05-3.83-1.11-3.88l-.22-.17,.03-.28c.38-3.43-1.75-4.22-1.84-4.25-.8-.27-1.57-.38-2.28-.38Z" fill="#231f20"></path>
      </g>
      <g>
        <path d="M649.71,450.05s1.74-.43,3.91,.43l-3.91,15.21-143.41,126.02-174.26,3.48-88.22-71.27-36.94-69.53-1.3-11.73s1.3-.87,3.91-.87c0,0,39.11,65.18,80.39,70.83l81.26,24.77,132.54,7.39,38.24-20.42s53.89-25.2,107.77-74.31Z" fill="#fff"></path>
        <path d="M331.88,595.7l-.14-.11-88.29-71.33-.05-.09-36.98-69.61-1.35-12.13,.25-.17c.06-.04,1.46-.95,4.19-.95h.28l.15,.24c.39,.65,39.46,65.04,80.03,70.6l81.28,24.77,132.34,7.38,38.12-20.36c.56-.26,54.46-25.75,107.67-74.24l.09-.08,.12-.03c.08-.02,1.92-.46,4.22,.46l.41,.16-4.06,15.78-.12,.1-143.54,126.14h-.18s-174.44,3.48-174.44,3.48Zm-87.65-72.1l87.99,71.09,173.9-3.47,143.15-125.8,3.76-14.62c-1.49-.49-2.71-.35-3.08-.29-53.29,48.53-107.25,74.05-107.79,74.3l-38.34,20.48-132.8-7.42-81.26-24.77c-39.69-5.42-77.82-66.4-80.53-70.81-1.61,.04-2.65,.43-3.1,.65l1.26,11.3,36.85,69.36Z" fill="#231f20"></path>
      </g>
      <g>
        <path d="M444.14,501.55s-7.79-38.02,5.25-42.8c0,0,7.82-4.35,34.77,2.61,0,0,35.69,11.62,46.24,2.42,.44-.39,.79-.87,1.06-1.39l13.11-25.8s3.04-7.39,5.21-7.82c0,0,3.04-.43,2.61,3.91,0,0,4.35-1.3,3.91,3.48,0,0,2.61-.43,2.61,3.91,0,0,2.17,0,1.3,3.04,0,0,5.21,3.04-2.17,6.08,0,0,.43,6.08-4.35,10.43,0,0-4.35,5.65-3.48,13.04,0,0,3.35,19.43-12.01,14.93l-19.71-4.5s-9.99,1.3-19.56,3.48c0,0-19.56,3.48-26.07,2.61,0,0,3.17,6.89,4.62,11.27l-18.1,5.68-15.24-4.56Z" fill="#f2b3c1"></path>
        <path d="M459.38,506.63l-15.67-4.69-.06-.29c-.32-1.57-7.72-38.5,5.56-43.37,.26-.15,8.24-4.33,35.06,2.59,.38,.12,35.57,11.43,45.78,2.52,.37-.32,.69-.74,.94-1.24l13.11-25.8c.51-1.24,3.24-7.62,5.56-8.09,.08-.01,1.32-.18,2.26,.73,.69,.66,1.02,1.69,.99,3.06,.74-.1,1.92-.1,2.8,.62,.76,.62,1.13,1.62,1.1,2.98,.36,.05,.84,.19,1.29,.57,.79,.67,1.22,1.81,1.28,3.4,.33,.09,.76,.29,1.08,.71,.45,.6,.55,1.45,.31,2.53,.6,.43,1.81,1.48,1.71,2.9-.1,1.39-1.42,2.64-3.94,3.73,.02,1.41-.24,6.58-4.52,10.47h0s-4.15,5.53-3.32,12.61c.07,.39,1.69,10.12-3.02,14.32-2.22,1.98-5.46,2.37-9.63,1.15l-19.59-4.47c-1.01,.14-10.47,1.42-19.42,3.46-.79,.14-18.2,3.21-25.37,2.7,.87,1.94,3.13,7.05,4.29,10.53l.16,.48-18.73,5.88Zm-14.81-5.48l14.8,4.43,17.46-5.48c-1.5-4.31-4.41-10.67-4.44-10.73l-.38-.82,.9,.12c6.37,.85,25.72-2.57,25.92-2.6,9.45-2.15,19.48-3.47,19.58-3.48h.09s19.8,4.51,19.8,4.51c3.84,1.13,6.77,.81,8.71-.93,4.29-3.82,2.71-13.33,2.69-13.43-.89-7.53,3.39-13.19,3.57-13.43,4.59-4.19,4.25-10.03,4.24-10.09l-.02-.36,.33-.14c2.31-.95,3.58-1.99,3.65-3.01,.09-1.21-1.52-2.17-1.54-2.18l-.33-.2,.11-.37c.26-.92,.25-1.61-.04-2.01-.28-.38-.76-.4-.78-.4h-.49s0-.5,0-.5c0-1.47-.32-2.52-.92-3.05-.52-.45-1.08-.37-1.11-.37l-.62,.09,.05-.63c.12-1.28-.12-2.17-.7-2.65-.94-.77-2.55-.31-2.57-.3l-.71,.21,.07-.74c.14-1.36-.08-2.36-.63-2.9-.59-.57-1.4-.47-1.41-.47-1.36,.27-3.68,4.76-4.82,7.52l-13.13,25.83c-.31,.61-.71,1.13-1.17,1.54-10.64,9.28-45.25-1.84-46.72-2.32-26.28-6.78-34.29-2.69-34.37-2.64-11.96,4.39-5.73,38.44-5.05,41.97Z" fill="#231f20"></path>
      </g>
      <path d="M472.85,489.66c-.18,0-.36-.1-.45-.28-2.55-5.1-7.7-11.14-7.75-11.2-.18-.21-.16-.52,.05-.7,.21-.18,.52-.16,.71,.05,.21,.25,5.28,6.19,7.89,11.4,.12,.25,.02,.55-.22,.67-.07,.04-.15,.05-.22,.05Z" fill="#231f20"></path>
      <path d="M549.33,440.99c-.1,0-.2-.03-.28-.09-.23-.16-.29-.47-.13-.69,2.71-3.95,2.95-7.53,2.96-7.57,.02-.28,.22-.5,.53-.47,.28,.02,.49,.25,.47,.53,0,.16-.26,3.88-3.13,8.08-.1,.14-.25,.22-.41,.22Z" fill="#231f20"></path>
      <path d="M551.94,441.86c-.15,0-.3-.07-.4-.2-.17-.22-.12-.53,.1-.7,3.29-2.47,4.16-4.95,4.17-4.97,.09-.26,.37-.4,.63-.31s.4,.37,.32,.63c-.04,.11-.96,2.79-4.52,5.46-.09,.07-.2,.1-.3,.1Z" fill="#231f20"></path>
      <path d="M554.55,444.47c-.15,0-.3-.07-.4-.2-.17-.22-.12-.53,.1-.7,1.69-1.27,4.27-3.84,4.29-3.86,.2-.2,.51-.2,.71,0s.2,.51,0,.71c-.11,.11-2.65,2.65-4.4,3.96-.09,.07-.2,.1-.3,.1Z" fill="#231f20"></path>
      <path d="M556.72,446.64c-.17,0-.35-.09-.44-.26-.13-.24-.05-.55,.19-.68,2.84-1.58,3.19-2.38,3.23-2.5-.04-.22,.06-.44,.27-.55,.25-.12,.55-.02,.67,.22,.24,.48,.09,1.61-3.68,3.7-.08,.04-.16,.06-.24,.06Zm3.03-3.32s0,0,0,0c0,0,0,0,0,0Zm0,0h0s0,0,0,0Z" fill="#231f20"></path>
      <path d="M524.56,477.91c-1.73,0-3.22-.88-3.3-.92-2.42-1.61-4.85-1.24-4.88-1.24-.28,.04-.53-.14-.57-.41-.04-.27,.14-.53,.41-.57,.11-.02,2.83-.45,5.57,1.38h0s1.92,1.13,3.7,.65c.87-.24,1.58-.83,2.11-1.78,.13-.24,.44-.33,.68-.19,.24,.13,.33,.44,.19,.68-.66,1.19-1.58,1.95-2.73,2.26-.4,.11-.8,.15-1.19,.15Z" fill="#231f20"></path>
      <g>
        <path d="M501.31,507.13s10.21-21.45,17.17-24.06c0,0,13.04-3.04,20.86,5.65,0,0,5.65,6.95,4.35,21.29l-.87,32.59s-9.56,5.65-16.08,9.13l-2.51-5.49-22.91-39.11Z" fill="#f2b3c1"></path>
        <path d="M526.5,552.43l-2.74-5.98-23.02-39.29,.11-.24c.42-.88,10.38-21.66,17.44-24.31,.2-.05,13.48-3.03,21.41,5.78,.25,.31,5.78,7.3,4.47,21.67l-.88,32.84-.24,.14c-.1,.06-9.64,5.69-16.1,9.14l-.47,.25Zm-24.62-45.32l22.77,38.88,2.32,5.06c5.83-3.14,13.87-7.85,15.35-8.72l.86-32.32c1.27-13.97-4.18-20.9-4.23-20.97-7.51-8.35-20.23-5.51-20.36-5.48-6.24,2.35-15.57,21.2-16.71,23.55Z" fill="#231f20"></path>
      </g>
      <path d="M523.66,532.22c-.05,0-.11,0-.16-.03-.26-.09-.4-.37-.31-.63,.06-.17,5.7-17.07,8.7-32.93,.05-.27,.32-.45,.58-.4,.27,.05,.45,.31,.4,.58-3.01,15.93-8.68,32.89-8.74,33.06-.07,.21-.26,.34-.47,.34Z" fill="#231f20"></path>
      <path d="M538.47,481.84c-.19,0-.37-.11-.46-.29-2.25-4.95,1.17-11.47,1.32-11.74,1.17-1.87,1.68-4.93,1.91-7.16,.14-1.4,.13-2.93-.05-4.8-.26-2.71,.68-5.25,.72-5.36,.1-.26,.38-.39,.64-.29s.39,.38,.29,.64c0,.02-.9,2.44-.66,4.91,.19,1.94,.2,3.53,.05,5-.24,2.34-.79,5.56-2.04,7.56-.02,.03-3.32,6.33-1.27,10.83,.11,.25,0,.55-.25,.66-.07,.03-.14,.04-.21,.04Z" fill="#231f20"></path>
      <path d="M460.62,572.25c-3.83-22.55-16.2-32.62-16.33-32.72l.62-.78c.13,.1,12.79,10.38,16.69,33.34l-.99,.17Z" fill="#ed1c24"></path>
      <g>
        <path d="M449.22,540.86s-6.79-20.41-7.66-38.23c0,0,16.95-10.43,38.24-1.3l8.26,22.6,10.86-16.95s9.56-2.61,27.38,29.55l-3.48,16.95s-18.25,10.86-51.71,20.42l-25.2-13.04,3.31-20Z" fill="#f6c34c"></path>
        <path d="M471.06,574.44l-25.7-13.29,3.35-20.24c-.56-1.71-6.82-21.26-7.64-38.24v-.3s.24-.15,.24-.15c.17-.11,17.41-10.46,38.7-1.34l.2,.08,7.98,21.85,10.42-16.26,.19-.05c.41-.11,10.15-2.33,27.95,29.79l.09,.16-3.56,17.35-.19,.11c-.18,.11-18.69,11.01-51.83,20.48l-.19,.05Zm-24.6-13.85l24.71,12.78c31.11-8.91,49.19-19.04,51.21-20.21l3.39-16.55c-15.96-28.74-25.17-29.27-26.55-29.17l-11.28,17.6-8.53-23.34c-19.33-8.18-35.16,0-37.33,1.21,.92,17.47,7.55,37.59,7.62,37.79l.04,.12-3.27,19.77Z" fill="#231f20"></path>
      </g>
      <path d="M475.46,541.81s-.03,0-.04,0c-.17-.01-16.9-1.31-26.15-.45-.28,.02-.52-.18-.54-.45-.03-.27,.18-.52,.45-.54,9.34-.88,26.15,.43,26.32,.45,.28,.02,.48,.26,.46,.54-.02,.26-.24,.46-.5,.46Z" fill="#231f20"></path>
      <path d="M489.36,560.5c-.2,0-.39-.12-.46-.31-5.08-12.71-11.9-17.1-11.97-17.14-.23-.14-.3-.44-.17-.68l10.86-18.69c.14-.24,.45-.32,.68-.18,.24,.14,.32,.44,.18,.68l-10.63,18.28c1.58,1.14,7.4,5.94,11.97,17.35,.1,.26-.02,.55-.28,.65-.06,.02-.12,.04-.19,.04Z" fill="#231f20"></path>
      <g>
        <path d="M301.68,506.38s-52.2-4.18-49.15,11.03c0,0,38.68,48.67,103.86,63.45l16.95-9.99,1.3-14.34-6.08-11.73-37.37-3.04h-2.17s-15.64-9.56-27.81-16.08l-8.26-3.91,6.69-.75s-3.12-6.54,2.05-14.63Z" fill="#f2b3c1"></path>
        <path d="M356.47,581.39l-.19-.04c-64.61-14.65-103.75-63.13-104.14-63.62l-.08-.09-.02-.12c-.41-2.03,.09-3.85,1.47-5.4,8.28-9.31,46.59-6.36,48.22-6.23l.83,.07-.45,.7c-4.94,7.74-2.05,14.08-2.02,14.15l.3,.63-5.64,.63,6.67,3.16c11.5,6.16,26.25,15.13,27.74,16.03h2.03l37.69,3.07,6.28,12.11v.15s-1.34,14.6-1.34,14.6l-17.34,10.23Zm-103.48-64.19c1.97,2.42,40.53,48.83,103.31,63.13l16.56-9.76,1.27-13.94-5.89-11.36-37.1-3.02h-2.27s-.12-.07-.12-.07c-.16-.1-15.77-9.63-27.79-16.06l-9.83-4.65,7.79-.87c-.64-1.81-1.95-7.22,1.9-13.77-5.69-.38-39.27-2.26-46.57,5.95-1.15,1.29-1.56,2.74-1.26,4.42Z" fill="#231f20"></path>
      </g>
      <path d="M336.83,547.02c-.11,0-.23-.04-.32-.12-.03-.02-2.61-2.16-5.99-3.85-.25-.12-.35-.42-.22-.67,.12-.25,.42-.34,.67-.22,3.49,1.74,6.07,3.88,6.18,3.97,.21,.18,.24,.49,.06,.7-.1,.12-.24,.18-.38,.18Z" fill="#231f20"></path>
      <path d="M350.3,573.1c-.16,0-.31-.07-.41-.21-6.37-8.92-13.68-13.29-13.75-13.33-.24-.14-.32-.45-.18-.68,.14-.24,.44-.32,.68-.18,.07,.04,7.55,4.5,14.06,13.61,.16,.22,.11,.54-.12,.7-.09,.06-.19,.09-.29,.09Z" fill="#231f20"></path>
      <path d="M292.94,522.25c-.08,0-.17-.02-.25-.07-2.91-1.66-8.43-2.1-8.48-2.11-.28-.02-.48-.26-.46-.54,.02-.28,.28-.48,.54-.46,.24,.02,5.8,.46,8.9,2.24,.24,.14,.32,.44,.19,.68-.09,.16-.26,.25-.43,.25Z" fill="#231f20"></path>
      <g>
        <path d="M653.63,450.49s-80.39,96.04-182.52,123.42c0,0-122.11,50.84-218.58-56.49,0,0-32.59-37.37-46.93-74.74,0,0-2.17,1.3-3.04,3.04,0,0,29.98,187.73,235.53,184.69,0,0,166-3.48,219.45-175.56,0,0-.43-1.74-3.91-4.35Z" fill="#fff"></path>
        <path d="M433.21,630.93c-44.98,0-84.95-9.3-118.88-27.67-28.13-15.23-52.18-36.69-71.5-63.78-32.88-46.11-40.7-93.23-40.77-93.7l-.03-.16,.07-.14c.92-1.85,3.14-3.19,3.23-3.25l.51-.31,.21,.56c14.15,36.86,46.52,74.22,46.84,74.6,49.7,55.29,106.31,67.68,145.06,68.33,42,.72,72.65-11.84,72.96-11.97,52.72-14.14,99.47-46.89,129.41-71.88,32.46-27.09,52.71-51.15,52.91-51.39l.3-.36,.38,.28c3.58,2.68,4.08,4.55,4.1,4.62l.03,.14-.04,.13c-12.21,39.33-31.38,73.05-56.95,100.23-20.46,21.75-45.05,39.37-73.08,52.39-47.73,22.17-89.47,23.29-89.88,23.3-1.63,.02-3.26,.04-4.89,.04Zm-230.14-185.14c.53,3.08,8.81,48.58,40.59,93.14,30.21,42.36,88.49,92.52,194.41,90.96,.41,0,41.98-1.13,89.52-23.22,43.83-20.37,101.85-63.24,129.42-151.83-.16-.39-.86-1.75-3.31-3.67-2.67,3.13-22.38,25.82-52.71,51.14-30.02,25.06-76.9,57.91-129.74,72.07-.24,.11-31.06,12.71-73.25,12.02-24.79-.41-48.61-5.26-70.8-14.43-27.73-11.45-52.98-29.7-75.03-54.24-.33-.38-32.48-37.48-46.8-74.32-.63,.45-1.71,1.33-2.28,2.36Z" fill="#231f20"></path>
      </g>
      <path d="M198.2,437.08c-.09,0-.19-.03-.27-.08-.23-.15-.3-.46-.15-.69,.03-.05,3.31-5.07,9.68-3.25,.27,.08,.42,.35,.34,.62-.08,.26-.35,.42-.62,.34-5.65-1.62-8.54,2.78-8.57,2.83-.1,.15-.26,.23-.42,.23Z" fill="#231f20"></path>
      <path d="M199.94,441.86c-.06,0-.13-.01-.19-.04-.25-.11-.37-.4-.27-.65,.02-.06,2.43-5.6,9.28-3.77,.27,.07,.43,.34,.35,.61-.07,.27-.34,.43-.61,.35-6-1.6-8.02,2.99-8.1,3.19-.08,.19-.27,.31-.46,.31Z" fill="#231f20"></path>
      <g>
        <path d="M332.48,539.14s-2.17,.43-3.48,2.61l1.74,.87s19.39-.83,29.23,15.62c.59,.98,1.01,2.06,1.23,3.19,.71,3.54,1.37,11.61-4.83,19.44,0,0,56.06,13.91,114.72-6.95l-9.13-19.12s-7.39-16.51-19.56-15.64l-62.79-9.78s-12.82-2.82-19.77-1.96l-23.47,4.78-3.91,6.95Z" fill="#84a1e5"></path>
        <path d="M401.37,585.84c-26.45,0-44.79-4.42-45.11-4.5l-.75-.19,.48-.61c6.16-7.78,5.36-15.9,4.73-19.03-.21-1.07-.61-2.09-1.17-3.03-9.57-15.99-28.6-15.39-28.78-15.38h-.13s-2.34-1.16-2.34-1.16l.28-.46c1.16-1.93,2.94-2.6,3.57-2.78l3.92-6.97,23.69-4.83c6.99-.88,19.45,1.84,19.98,1.96l62.71,9.76c12.31-.84,19.68,15.26,19.99,15.94l9.36,19.61-.52,.19c-25.08,8.92-49.83,11.46-69.91,11.46Zm-44.12-5.29c6.84,1.52,59.14,12.1,113.16-6.93l-8.89-18.62c-.08-.17-7.38-16.2-19.07-15.36h-.06s-62.85-9.78-62.85-9.78c-.16-.03-12.85-2.8-19.63-1.95l-23.21,4.73-3.91,6.95-.22,.05s-1.67,.36-2.84,1.92l1.12,.56c1.76-.03,20.1,.08,29.55,15.87,.62,1.04,1.06,2.17,1.3,3.35,.64,3.18,1.45,11.31-4.45,19.22Z" fill="#231f20"></path>
      </g>
      <g>
        <path d="M329.25,535.86s2.8,1.1,3.24,3.27c0,0,3.73-1.36,9.99-.77,2.37,.22,4.75,.17,7.1-.2,5.11-.81,13.08-2.73,15.62-7,.8-1.33,.16-3.07-1.31-3.59-.93-.33-2.24-.5-4.03-.17,0,0-1.2,.43-1.47-1.52l-12.44-8.9-16.24,4.53-.47,14.36Z" fill="#f2b3c1"></path>
        <path d="M332.11,539.8l-.11-.57c-.38-1.88-2.9-2.9-2.93-2.9l-.33-.13,.49-15.08,16.83-4.69,12.81,9.17,.03,.21c.08,.55,.24,.93,.47,1.07,.16,.1,.33,.05,.34,.05,1.73-.32,3.17-.26,4.37,.17,.85,.3,1.5,.96,1.81,1.81,.3,.84,.21,1.75-.24,2.51-2.56,4.29-10.1,6.3-15.97,7.23-2.31,.37-4.75,.44-7.23,.21-6.06-.57-9.74,.73-9.78,.75l-.55,.2Zm-2.35-4.26c.73,.35,2.45,1.32,3.06,2.96,1.24-.35,4.65-1.11,9.7-.64,2.4,.22,4.75,.16,6.98-.2,4.64-.74,12.79-2.59,15.27-6.76,.3-.5,.36-1.11,.16-1.66-.2-.56-.64-1-1.21-1.2-1.03-.37-2.3-.42-3.77-.15,.01,0-.55,.18-1.11-.16-.46-.28-.77-.81-.91-1.57l-12.07-8.64-15.66,4.37-.44,13.66Z" fill="#231f20"></path>
      </g>
      <g>
        <rect x="312.92" y="489.34" width="55.8" height="34.77" rx="17.38" ry="17.38" transform="translate(173.49 -80.58) rotate(18.02)" fill="#f2b3c1"></rect>
        <path d="M350.81,527.86c-1.83,0-3.69-.28-5.52-.88l-20.01-6.51c-4.54-1.48-8.24-4.64-10.4-8.89s-2.55-9.1-1.07-13.65,4.64-8.24,8.89-10.4c4.26-2.17,9.1-2.55,13.64-1.07l20.01,6.51c9.38,3.05,14.52,13.16,11.47,22.54-2.46,7.54-9.48,12.35-17.02,12.35Zm-5.21-1.83c8.85,2.88,18.4-1.98,21.28-10.83,2.88-8.85-1.98-18.4-10.83-21.28l-20.01-6.51c-4.29-1.4-8.86-1.04-12.88,1.01-4.02,2.05-7,5.53-8.4,9.82-1.4,4.29-1.04,8.86,1.01,12.88,2.04,4.02,5.53,7,9.82,8.4l20.01,6.51Z" fill="#231f20"></path>
      </g>
      <g>
        <path d="M329.71,521.5l-4.28-1.51c7.2-6.01,3.49-14.27,1.73-17.31-.92-1.59-1.61-3.32-1.92-5.13-1.78-10.21,9.19-11.22,9.19-11.22,0,0-3.69-7.6-12.39-3.26l-2.61,1.3s1.3-2.17,1.3-4.35c0,0-3.29,5.84-6.85,7.82-1.22,.68-2.86,2.23-3.66,3.38-1.32,1.9-2.53,4.64-2.1,7.92,0,0-12.17,8.69-8.69,20.86,0,0,.87,4.35,1.74,5.65l20.42,11.3s3.62-1.32,6.57-1.09c1.56,.12,3.14-.3,4.43-1.18,1.2-.82,2.24-2.05,2.04-3.81,0,0-.16-2.48-.84-4.97-.56-2.05-2.09-3.7-4.1-4.41Z" fill="#231f20"></path>
        <path d="M321.58,537.51l-20.73-11.47-.07-.1c-.91-1.37-1.78-5.65-1.81-5.83-3.25-11.36,6.94-19.85,8.65-21.18-.36-3.42,.99-6.22,2.21-7.98,.87-1.26,2.58-2.84,3.83-3.53,3.39-1.89,6.62-7.57,6.65-7.63l.94-1.66v1.91c0,1.2-.36,2.38-.71,3.24l1.29-.65c2.9-1.45,5.58-1.77,7.97-.96,3.47,1.18,5.03,4.31,5.09,4.45l.31,.65-.72,.07s-4.9,.49-7.42,3.79c-1.36,1.78-1.81,4.09-1.33,6.84,.29,1.65,.92,3.33,1.86,4.97,1.86,3.23,5.37,11.23-1.2,17.37l3.47,1.22c2.15,.76,3.8,2.53,4.41,4.75,.69,2.52,.85,4.97,.86,5.07,.18,1.64-.6,3.12-2.26,4.26-1.39,.95-3.07,1.4-4.75,1.27-2.8-.22-6.32,1.04-6.36,1.06l-.21,.08Zm-20.03-12.22l20.12,11.13c.84-.29,3.93-1.25,6.56-1.04,1.46,.12,2.91-.28,4.11-1.1,1.36-.93,1.97-2.06,1.83-3.35,0-.05-.16-2.48-.83-4.89-.52-1.9-1.94-3.42-3.78-4.07l-5.11-1.8,.68-.56c6.85-5.72,3.42-13.57,1.62-16.68-1.01-1.74-1.67-3.53-1.98-5.3-.53-3.05-.02-5.61,1.53-7.63,2.18-2.85,5.78-3.78,7.35-4.06-.6-.91-1.96-2.59-4.16-3.34-2.12-.72-4.54-.41-7.19,.91l-4.14,2.07,.88-1.47s.38-.65,.72-1.56c-1.32,1.91-3.38,4.5-5.59,5.73-1.11,.62-2.71,2.09-3.49,3.23-1.16,1.67-2.44,4.34-2.01,7.57l.04,.3-.24,.17c-.12,.08-11.84,8.63-8.5,20.31,.24,1.18,.96,4.31,1.61,5.41Z" fill="#231f20"></path>
      </g>
      <g>
        <ellipse cx="332.59" cy="521.14" rx="4.99" ry="6.95" transform="translate(-271.66 651.87) rotate(-69.66)" fill="#f2b3c1"></ellipse>
        <path d="M334.03,526.91c-1.1,0-2.24-.21-3.35-.62-3.85-1.43-6.13-4.9-5.08-7.74,1.05-2.84,5.04-3.98,8.9-2.56,1.84,.68,3.38,1.84,4.34,3.27,1,1.48,1.26,3.06,.74,4.47h0c-.52,1.4-1.75,2.44-3.47,2.91-.66,.18-1.35,.27-2.07,.27Zm-2.9-10.54c-2.17,0-4,.92-4.59,2.53-.86,2.32,1.16,5.21,4.49,6.45,1.64,.61,3.35,.72,4.81,.33,1.4-.38,2.39-1.2,2.8-2.29h0c.41-1.09,.18-2.36-.63-3.56-.85-1.25-2.22-2.28-3.86-2.89-1.02-.38-2.06-.56-3.02-.56Z" fill="#231f20"></path>
      </g>
    </g>
    <g>
      <g>
        <path d="M383.74,528.43c2.69-2.44,7.08-2.69,7.08-2.69,2.44-5.13,6.6-6.84,6.6-6.84,3.18,2.69,3.18,7.57,3.18,7.57l1.95,.73c20.52-10.99,29.56-4.64,29.56-4.64,10.75,4.64,10.99,14.66,10.99,14.66,.49,7.57-12.95,9.53-12.95,9.53l-20.28,1.47c-17.1,1.22-21.01-.24-21.01-.24-5.13-.98-7.82-.98-7.82-.98,.73-2.44,4.15-4.64,4.15-4.64-5.62-.98-7.82-2.44-7.82-2.44-.24-1.95,.73-3.91,.73-3.91,0,0-2.93-2.2-3.42-7.57,0,0,2.93-1.47,8.31-.24l.73,.24Z" fill="#f6991a"></path>
        <path d="M397.96,549.21c-7.12,0-9.15-.72-9.27-.76-4.93-.93-7.62-.95-7.64-.95h-.67s.19-.64,.19-.64c.53-1.76,2.28-3.35,3.39-4.22-4.81-.97-6.77-2.25-6.86-2.3l-.19-.13-.03-.23c-.2-1.59,.34-3.15,.62-3.83-.8-.75-2.9-3.11-3.31-7.66l-.03-.34,.31-.15c.13-.06,3.15-1.53,8.64-.28l.51,.17c2.4-2.02,5.84-2.5,6.88-2.6,2.51-5.04,6.56-6.76,6.73-6.83l.28-.12,.23,.2c2.85,2.41,3.28,6.4,3.34,7.6l1.43,.54c19.9-10.59,29.04-5.07,29.84-4.53,10.88,4.72,11.25,14.98,11.25,15.09,.51,7.92-12.81,9.95-13.38,10.03l-20.31,1.47c-5.04,.36-8.95,.49-11.95,.49Zm-16.18-2.68c1.12,.06,3.53,.27,7.18,.96,.12,.04,4.22,1.43,20.88,.24l20.28-1.47c.09-.02,12.94-1.97,12.49-9,0-.12-.38-9.78-10.69-14.23l-.09-.05c-.09-.06-9.09-6.01-29.04,4.67l-.2,.11-2.49-.93v-.35s-.04-4.44-2.76-6.98c-.94,.48-4.09,2.33-6.06,6.46l-.13,.27-.3,.02s-4.26,.27-6.78,2.56l-.22,.2-1.01-.34c-4.1-.93-6.74-.22-7.61,.09,.56,4.8,3.16,6.83,3.19,6.85l.33,.25-.18,.37s-.83,1.69-.71,3.38c.65,.36,2.92,1.47,7.43,2.25l1.26,.22-1.08,.69s-2.7,1.76-3.7,3.75Z" fill="#231f20"></path>
      </g>
      <g>
        <path d="M393.02,525.74l5.86,.49s0-3.66-1.95-4.89c0,0-2.2,.98-3.91,4.4Z" fill="#231f20"></path>
        <path d="M399.39,526.77l-7.14-.6,.33-.66c1.77-3.54,4.06-4.59,4.15-4.63l.24-.11,.22,.14c2.17,1.35,2.19,5.15,2.19,5.31v.54Zm-5.56-1.47l4.53,.38c-.08-.94-.37-2.86-1.46-3.75-.53,.32-1.88,1.28-3.07,3.37Z" fill="#231f20"></path>
      </g>
      <g>
        <path d="M378.85,534.54s1.95-2.2,3.42-4.64c0,0-2.69-1.22-5.86,0,0,0,.73,3.42,2.44,4.64Z" fill="#231f20"></path>
        <path d="M378.93,535.21l-.37-.26c-1.85-1.32-2.61-4.8-2.64-4.94l-.09-.42,.4-.15c3.33-1.28,6.13-.04,6.25,.01l.51,.23-.29,.48c-1.47,2.45-3.39,4.62-3.47,4.72l-.3,.34Zm-1.92-4.99c.23,.82,.81,2.64,1.79,3.62,.55-.65,1.71-2.08,2.72-3.67-.84-.24-2.56-.57-4.51,.05Z" fill="#231f20"></path>
      </g>
      <path d="M399.86,538.7c-.15,0-.31-.07-.4-.21-.16-.22-.11-.54,.11-.7l2.69-1.95c.9-.7,.92-1,.92-1-.03,.02-.13-.04-.21-.05-.63-.09-1.02-.34-1.15-.73-.13-.41,.06-.85,.55-1.32,.28-.27,.5-.52,.67-.77,.77-1.16,.61-1.5,.61-1.51-.02-.04-.1-.05-.13-.05-.18,0-.36-.12-.43-.29-.08-.17-.07-.36,.04-.51,.8-1.07,.69-1.47,.64-1.57-.15-.28-.84-.35-1.18-.32-.26,.02-.52-.18-.54-.46-.02-.27,.18-.52,.46-.54,.16-.01,1.62-.1,2.13,.84,.3,.55,.19,1.25-.36,2.13,.09,.08,.17,.17,.24,.3,.31,.58,.1,1.41-.65,2.54-.21,.31-.47,.62-.81,.95-.12,.12-.2,.21-.24,.27,.06,.02,.15,.05,.29,.06,.09,.01,.86,.14,1.03,.8,.21,.78-.63,1.54-1.28,2.04l-2.7,1.96c-.09,.06-.19,.1-.29,.1Z" fill="#231f20"></path>
      <path d="M398.15,535.04c-.19,0-.37-.1-.45-.29-.12-.25-.01-.55,.24-.67l15.39-7.33c.25-.12,.55-.01,.67,.24,.12,.25,.01,.55-.24,.67l-15.39,7.33c-.07,.03-.14,.05-.21,.05Z" fill="#231f20"></path>
      <path d="M399.86,535.53c-.23,0-.44-.16-.49-.4-.06-.27,.12-.54,.38-.59l11.48-2.44c.26-.05,.54,.11,.59,.39,.06,.27-.12,.54-.38,.59l-11.48,2.44s-.07,.01-.11,.01Z" fill="#231f20"></path>
      <path d="M370.79,545.79c-.19,0-.37-.11-.46-.3-.11-.25,0-.55,.25-.66l13.19-5.86c.25-.11,.55,0,.66,.25,.11,.25,0,.55-.25,.66l-13.19,5.86c-.07,.03-.13,.04-.2,.04Z" fill="#231f20"></path>
      <path d="M376.17,546.76c-.16,0-.32-.08-.41-.22-.15-.23-.09-.54,.13-.69,2.95-2,7.46-5.07,7.76-5.33,.21-.17,.52-.16,.7,.04,.18,.2,.18,.5,0,.69-.25,.25-5.6,3.88-7.89,5.44-.09,.06-.18,.09-.28,.09Z" fill="#231f20"></path>
      <path d="M384.6,538.5c-.69,0-1.33-.14-1.77-.32-.26-.1-.38-.39-.29-.65,.1-.26,.38-.39,.65-.29,.11,.04,2.79,1.03,4.02-1.24,.13-.24,.43-.33,.68-.2,.24,.13,.33,.44,.2,.68-.85,1.56-2.26,2.01-3.49,2.01Z" fill="#231f20"></path>
      <path d="M394.8,534.59c-.24,0-.46-.02-.64-.05-.27-.05-.46-.3-.41-.57,.04-.27,.3-.45,.57-.41,.11,.02,2.58,.38,3.62-1.91,.12-.25,.41-.36,.66-.25,.25,.11,.36,.41,.25,.66-.92,2.02-2.8,2.53-4.05,2.53Z" fill="#231f20"></path>
      <g>
        <path d="M389.11,537.71s1.71-2.2,4.89-1.71l-1.95,2.44-2.93-.73Z" fill="#231f20"></path>
        <path d="M392.24,539.01l-3.99-1,.47-.61c.08-.1,1.93-2.42,5.36-1.9l.85,.13-2.69,3.37Zm-2.12-1.56l1.74,.44,1.16-1.45c-1.36,.02-2.33,.57-2.91,1.01Z" fill="#231f20"></path>
      </g>
      <path d="M387.16,529.91c-.13,0-.26-.05-.35-.15-1.16-1.16-.69-3.14-.67-3.23,.07-.27,.34-.43,.6-.36,.27,.07,.43,.34,.37,.6,0,.02-.36,1.52,.41,2.28,.2,.2,.2,.51,0,.71-.1,.1-.23,.15-.35,.15Z" fill="#231f20"></path>
      <path d="M388.87,530.88c-.15,0-.29-.06-.39-.19-2.12-2.65-1.31-4.5-1.27-4.57,.12-.25,.42-.36,.66-.24,.25,.12,.36,.41,.25,.66-.03,.07-.56,1.41,1.14,3.53,.17,.22,.14,.53-.08,.7-.09,.07-.2,.11-.31,.11Z" fill="#231f20"></path>
      <path d="M389.6,528.44c-.19,0-.37-.11-.46-.3l-.82-1.85c-.11-.25,0-.55,.25-.66s.55,0,.66,.25l.82,1.85c.11,.25,0,.55-.25,.66-.07,.03-.14,.04-.2,.04Z" fill="#231f20"></path>
      <path d="M425.38,542.08c-2.97,0-6.58-.34-10.95-1.19-.15-.03-13.91-3.13-20.8-1.47-.27,.07-.54-.1-.6-.37-.06-.27,.1-.54,.37-.6,7.12-1.72,20.66,1.33,21.24,1.46,19.3,3.77,23.11-2.85,23.14-2.92,.13-.24,.43-.33,.67-.21,.24,.13,.34,.43,.21,.67-.12,.24-2.55,4.63-13.29,4.63Z" fill="#231f20"></path>
    </g>
    <rect x="70.83" y="657.9" width="721.37" height="1" fill="#231f20"></rect>
  </g>
  <path d="M336.42,498c-.22,0-.43-.15-.49-.38-1.07-4.29,2.17-6.52,2.21-6.54,.23-.15,.54-.09,.69,.14,.15,.23,.09,.54-.14,.69-.11,.07-2.69,1.87-1.79,5.46,.07,.27-.1,.54-.36,.61-.04,.01-.08,.02-.12,.02Z" fill="#231f20"></path>
  <path d="M339.92,498.5c-.18,0-.36-.1-.45-.28-.12-.25-.02-.55,.22-.67,.02,0,1.87-.96,2.78-2.78,.12-.25,.42-.34,.67-.22,.25,.12,.35,.42,.22,.67-1.06,2.12-3.14,3.18-3.22,3.22-.07,.04-.15,.05-.22,.05Z" fill="#231f20"></path>
  <path d="M351.63,492.5c-.12,0-.24-.04-.33-.13-.21-.18-.23-.5-.04-.71,.47-.53,.67-1,.61-1.39-.08-.47-.55-.81-.93-1.02-.25-.13-.55-.14-.78-.02-3.04,1.66-6.38,.71-6.52,.66-.26-.08-.42-.35-.34-.62,.08-.27,.36-.42,.62-.34,.03,0,3.09,.88,5.76-.58,.52-.29,1.19-.28,1.74,.01,.82,.45,1.32,1.04,1.44,1.72,.12,.71-.16,1.45-.84,2.23-.1,.11-.24,.17-.37,.17Z" fill="#231f20"></path>
  <path d="M355.42,500c-.1,0-.19-.03-.28-.08-.23-.15-.29-.46-.14-.69,1.83-2.75,.74-5.56,.73-5.59-.1-.26,.02-.55,.28-.65,.25-.1,.55,.02,.65,.28,.05,.13,1.29,3.33-.83,6.52-.1,.14-.25,.22-.42,.22Z" fill="#231f20"></path>
  <path d="M335.42,523c-.16,0-.32-.08-.42-.22-1.72-2.58-4.92-.91-5.05-.83-.24,.13-.55,.04-.68-.2-.13-.24-.04-.55,.2-.68,1.42-.77,4.58-1.51,6.36,1.16,.15,.23,.09,.54-.14,.69-.08,.06-.18,.08-.28,.08Z" fill="#231f20"></path>
</svg>
