<?xml version="1.0" encoding="UTF-8"?>
<svg xmlns="http://www.w3.org/2000/svg" id="a" width="865.76" height="682.89" viewBox="0 0 865.76 682.89">
  <path d="M284.07,425.3V220.52l81.59-44.15v248.92h0" fill="none" opacity=".5" stroke="#002346" stroke-linecap="round" stroke-linejoin="round"></path>
  <path d="M303.22,255.38h-8.37v-25.67h8.37v25.67Zm25.84,0h-8.37v-25.67h8.37v25.67Zm25.84,0h-8.37v-25.67h8.37v25.67Zm-51.68,39.52h-8.37v-25.67h8.37v25.67Zm25.84,0h-8.37v-25.67h8.37v25.67Zm25.84,0h-8.37v-25.67h8.37v25.67Zm-51.68,39.52h-8.37v-25.67h8.37v25.67Zm25.84,0h-8.37v-25.67h8.37v25.67Zm25.84,0h-8.37v-25.67h8.37v25.67Zm-51.68,39.52h-8.37v-25.67h8.37v25.67Zm25.84,0h-8.37v-25.67h8.37v25.67Zm25.84,0h-8.37v-25.67h8.37v25.67Z" fill="none" opacity=".5" stroke="#002346" stroke-miterlimit="10"></path>
  <path d="M482.31,459.29h-69.3V201.31l.22-.22c1.24-1.2,2.6-2.27,4.07-3.18,1.39-.86,2.87-1.57,4.41-2.12l.18-.07h.07s0-57.3,0-57.3l.38-.21c.19-.1,.38-.2,.58-.3l.27-.14c4.16-2.15,8.39-4.15,12.69-6.01,2-.87,4.12-1.75,6.49-2.69l.17-.05c1.71-.22,3.42-.43,5.14-.62,6.46-.69,12.94-1.07,19.44-1.14h.74s0,2.77,0,2.77c.62,.6,1.52,2.07,2.95,6.27,.12,.34,.2,.74,.21,1.19,0,.32,0,.61,.01,.89,0,1.34,.01,2.65,.04,3.97,.01,1.75,.02,3.5,.04,5.24,1.09,.46,2.15,1.01,3.16,1.62,1.47,.9,2.83,1.97,4.07,3.18l.22,.22v127.87c2.15,5.07,3.69,9.74,3.7,9.78l.04,.23v168.8h0Z" fill="none" opacity=".5" stroke="#002346" stroke-linecap="round" stroke-linejoin="round"></path>
  <path d="M440.55,169.79h-4.24v-27.71h4.24v27.71h0Zm19.22,0h-4.24v-27.71h4.24v27.71h0Zm-27.75,32.58h-4.24v-27.71h4.24v27.71Zm18.95,0h-4.24v-27.71h4.24v27.71Zm17.31,0h-4.24v-27.71h4.24v27.71Zm-43.68,75.23h-4.24v-69.02h4.24v69.02Zm15.12,0h-4.24v-69.02h4.24v69.02Zm18.66,0h-4.24v-69.02h4.24v69.02Zm14.84,0h-4.24v-69.02h4.24v69.02Zm-50.01,164.6h-4.24v-149.85h4.24v149.85Zm13.18,0h-4.24v-149.85h4.24v149.85Zm13.18,0h-4.24v-149.85h4.24v149.85Zm12.07,0h-4.24v-149.85h4.24v149.85Zm10.19,0h-4.24v-149.85h4.24v149.85Z" fill="none" opacity=".5" stroke="#002346" stroke-linecap="round" stroke-linejoin="round"></path>
  <g opacity=".5">
    <path d="M523.06,438.51V163.6h81.5V438.51" fill="none" stroke="#002346" stroke-linecap="round" stroke-linejoin="round"></path>
    <path d="M595.7,181.6h-63.78v-6.67h63.78v6.67Zm0,21.81h-63.78v-6.66h63.78v6.66Zm0,21.81h-63.78v-6.66h63.78v6.66Zm0,21.81h-63.78v-6.66h63.78v6.66Zm0,21.81h-63.78v-6.66h63.78v6.66Zm0,21.81h-63.78v-6.66h63.78v6.66Zm0,21.81h-63.78v-6.66h63.78v6.66Zm0,21.81h-63.78v-6.67h63.78v6.67Zm0,21.81h-63.78v-6.66h63.78v6.66Z" fill="none" stroke="#002346" stroke-linecap="round" stroke-linejoin="round"></path>
  </g>
  <g opacity=".5">
    <path d="M150.06,451.51V176.6h81.5V451.51" fill="none" stroke="#002346" stroke-linecap="round" stroke-linejoin="round"></path>
    <path d="M222.7,194.6h-63.78v-6.67h63.78v6.67Zm0,21.81h-63.78v-6.66h63.78v6.66Zm0,21.81h-63.78v-6.66h63.78v6.66Zm0,21.81h-63.78v-6.66h63.78v6.66Zm0,21.81h-63.78v-6.66h63.78v6.66Zm0,21.81h-63.78v-6.66h63.78v6.66Zm0,21.81h-63.78v-6.66h63.78v6.66Zm0,21.81h-63.78v-6.67h63.78v6.67Zm0,21.81h-63.78v-6.66h63.78v6.66Z" fill="none" stroke="#002346" stroke-linecap="round" stroke-linejoin="round"></path>
  </g>
  <path d="M753.89,104.37v416.47h-103.14V156.87l7.84-3.98v-61.55l69.46,17.44v8.75l25.84-13.16Z" fill="#fff" opacity=".5"></path>
  <path d="M650.75,466.84V156.88l8.35-4.24,94.79-48.25V472.84" fill="none" opacity=".5" stroke="#002346" stroke-linecap="round" stroke-linejoin="round"></path>
  <path d="M726.19,118.49v-8.25l-65.73-16.49v58.2m80.86,22.4h-34.34v-8.54h34.34v8.54Zm-50.1,0h-8.55v-8.54h8.55v8.54Zm-17.89,0h-8.54v-8.54h8.54v8.54Zm17.89,24.22h-8.55v-8.54h8.55v8.54Zm-17.89,0h-8.54v-8.54h8.54v8.54Zm17.89,24.22h-8.55v-8.54h8.55v8.54Zm-17.89,0h-8.54v-8.54h8.54v8.54Zm17.89,24.22h-8.55v-8.54h8.55v8.54Zm-17.89,0h-8.54v-8.54h8.54v8.54Zm17.89,24.22h-8.55v-8.54h8.55v8.54Zm-17.89,0h-8.54v-8.54h8.54v8.54Zm17.89,24.22h-8.55v-8.55h8.55v8.55Zm-17.89,0h-8.54v-8.55h8.54v8.55Zm17.89,24.22h-8.55v-8.54h8.55v8.54Zm-17.89,0h-8.54v-8.54h8.54v8.54Zm67.99-121.12h-34.34v-8.54h34.34v8.54Zm0,24.22h-34.34v-8.54h34.34v8.54Zm0,24.22h-34.34v-8.54h34.34v8.54Zm0,24.22h-34.34v-8.54h34.34v8.54Zm0,24.22h-34.34v-8.55h34.34v8.55Zm0,24.22h-34.34v-8.54h34.34v8.54Z" fill="none" opacity=".5" stroke="#002346" stroke-linecap="round" stroke-linejoin="round"></path>
  <line x1="20.02" y1="403.55" x2="838.74" y2="484.55" fill="none" stroke="#002346" stroke-linecap="round" stroke-linejoin="round"></line>
  <line x1="27.02" y1="568.55" x2="845.74" y2="649.55" fill="none" stroke="#002346" stroke-linecap="round" stroke-linejoin="round"></line>
  <g>
    <g>
      <g>
        <path d="M204.31,409.68c19.78,0,35.81,31.88,35.81,71.21,0,24.39-6.17,45.91-15.57,58.75-3.63,4.96-8.63,8.76-14.4,10.86-8.09,2.94-22.19,5.7-42.05,1l5.83-141.82h30.37Z" fill="#002346" stroke="#002346" stroke-miterlimit="10" stroke-width=".91"></path>
        <g>
          <path d="M403.88,486.12l3.33,71.43c25.57,5.16,45.21,1.1,54.99-1.95,5.79-1.8,11.1-4.9,15.47-9.1,13.26-12.76,22.04-35.03,22.04-60.38,0-39.61-21.45-71.72-47.92-71.72h-39.06c-4.56,0-8.28,3.68-8.31,8.24l-.54,63.48Z" fill="#002346" stroke="#002346" stroke-miterlimit="10" stroke-width=".91"></path>
          <ellipse cx="411.57" cy="486.12" rx="47.92" ry="71.72" fill="#002346" stroke="#002346" stroke-miterlimit="10" stroke-width=".91"></ellipse>
          <ellipse cx="409.77" cy="486.9" rx="30.47" ry="47.71" fill="#e4e5e6" stroke="#002346" stroke-miterlimit="10" stroke-width=".91"></ellipse>
          <ellipse cx="407.21" cy="486.81" rx="4.28" ry="6.73" fill="#fff" stroke="#002346" stroke-miterlimit="10" stroke-width=".91"></ellipse>
        </g>
        <g>
          <path d="M684.2,481.61l3.33,71.43c25.57,5.16,45.21,1.1,54.99-1.95,5.79-1.8,11.1-4.9,15.47-9.1,13.26-12.76,22.04-35.03,22.04-60.38,0-39.61-21.45-71.72-47.92-71.72h-39.06c-4.56,0-8.28,3.68-8.31,8.24l-.54,63.48Z" fill="#002346" stroke="#002346" stroke-miterlimit="10" stroke-width=".91"></path>
          <ellipse cx="691.9" cy="481.61" rx="47.92" ry="71.72" fill="#002346" stroke="#002346" stroke-miterlimit="10" stroke-width=".91"></ellipse>
          <ellipse cx="690.1" cy="482.39" rx="30.47" ry="47.71" fill="#e4e5e6" stroke="#002346" stroke-miterlimit="10" stroke-width=".91"></ellipse>
          <ellipse cx="687.54" cy="482.3" rx="4.28" ry="6.73" fill="#fff" stroke="#002346" stroke-miterlimit="10" stroke-width=".91"></ellipse>
        </g>
        <ellipse cx="173.94" cy="480.89" rx="35.81" ry="71.21" fill="#002346" stroke="#002346" stroke-miterlimit="10" stroke-width=".91"></ellipse>
        <path d="M773.85,515.99H455.15s2.24-6.46,3.55-16.54c2.34-17.94,1.73-47.33-19.71-72.15,0,0-18.92-22.03-43.54-8.74,0,0-30.36,14.1-31.8,67.56,0,0-.3,5.35,.73,13.33,.61,4.77,1.7,10.47,3.61,16.54H205.15s1.76-6.6,3.11-16.54c2-14.7,3.09-36.73-3.72-55.55,0,0-9.57-33.81-30.61-34.22,0,0-23.85-2.11-33.62,46.66,0,0-5.5,22.32,.06,49.4h0c-2.74-1.55-4.52-4.38-4.72-7.52-1.21-18.67-4.65-84.57,4.39-121.33,0,0,4.65-24.05,19.55-26.14,2.2-.31,4.38-.8,6.47-1.56,6.33-2.3,18.89-8.13,37.19-22.38l58.63-49.32c3.87-3.26,8.76-5.04,13.82-5.04h284.61c4.82,0,9.5,1.62,13.28,4.6l89.2,70.24c4.41,3.47,9.43,6.09,14.8,7.71l88.79,26.89c6.65,2.01,11.37,7.92,11.86,14.85l7.32,102.73s2.22,12.85-11.7,16.54Z" fill="#90daf4" stroke="#002346" stroke-miterlimit="10" stroke-width=".91"></path>
        <path d="M773.85,515.99H455.15s2.24-6.46,3.55-16.54h326.84s2.22,12.85-11.7,16.54Z" fill="#fff" stroke="#002346" stroke-miterlimit="10" stroke-width=".91"></path>
        <path d="M368,515.99H205.15s1.76-6.6,3.11-16.54h156.13c.61,4.77,1.7,10.47,3.61,16.54Z" fill="#fff" stroke="#002346" stroke-miterlimit="10" stroke-width=".91"></path>
        <path d="M358.88,291.8l33.46,60.58c.87,1.58,2.53,2.56,4.34,2.56l232.34-.19c4.71,0,6.76-5.97,3.04-8.86l-77.84-60.55c-.87-.68-1.94-1.04-3.04-1.04l-187.95,.16c-3.77,0-6.15,4.05-4.33,7.35Z" fill="#e4e5e6" stroke="#002346" stroke-miterlimit="10" stroke-width=".91"></path>
        <path d="M263.84,287.88l-39.12,32.44c-4.26,3.53-5.34,9.63-2.55,14.42l9,15.41c2.03,3.48,5.75,5.61,9.77,5.61h121.89c8.49,0,13.95-8.99,10.05-16.53l-24.88-48c-1.95-3.76-5.84-6.12-10.07-6.11l-66.89,.15c-2.63,0-5.17,.93-7.2,2.6Z" fill="#e4e5e6" stroke="#002346" stroke-miterlimit="10" stroke-width=".91"></path>
        <path d="M418.4,369.37h239.09c.06,0,.11,0,.17,.02,2.69,.71,71.9,19.04,96.68,37.32,.51,.37,.24,1.18-.39,1.18h-190.31c-.07,0-.14-.01-.21-.03-3.15-1.05-80.21-26.68-145.13-37.19-.8-.13-.7-1.3,.11-1.3Z" fill="#fff" stroke="#002346" stroke-miterlimit="10" stroke-width=".91"></path>
        <path d="M572.25,417.41h172.9v17.27c0,1.36-.66,2.64-1.77,3.43l-9.68,6.87c-.71,.5-1.56,.78-2.43,.78h-133.2c-.6,0-1.2-.13-1.75-.38l-21.6-9.89c-1.5-.68-2.46-2.18-2.46-3.83v-14.25Z" fill="#fff" stroke="#002346" stroke-miterlimit="10" stroke-width=".91"></path>
        <path d="M508.19,465.55h271.28v15.16h-13.85c-.81,0-1.59,.31-2.13,.91-.68,.75-1.08,2.04,.28,4.13,0,0,2.25,3.62-2.31,4.59h-201.01c-1.02,0-2.02-.39-2.7-1.15s-1.19-1.99-.43-3.78c.81-1.9-.55-4.04-2.61-4.17-.03,0-.07,0-.1,0h-47.24l-12.11,9.67h-14.13v-41.76s-.52-3.62,3.42-4.53c0,0,2.98-1.28,6.84,3.42l16.81,17.52Z" fill="#e4e5e6" stroke="#002346" stroke-miterlimit="10" stroke-width=".91"></path>
        <path d="M572.65,417.58l29.83,12.54s.01,0,.02,0h126.66s.02,0,.03-.01l15.66-12.48c.09-.08,.04-.23-.08-.23-8.51,.04-162.9,.78-172.11,.06-.06,0-.08,.08-.02,.1Z" fill="#002346" stroke="#002346" stroke-miterlimit="10" stroke-width=".91"></path>
        <path d="M534.62,419.39l-13.66,9.97c-.71,.52-1.57,.8-2.44,.8h-42.31c-1.32,0-2.56-.63-3.35-1.69l-17.43-23.75c-1.81-2.84,.34-6.54,3.71-6.37l47.01,2.36,1.35,.07c.51,.02,1.02,.15,1.49,.36l24.88,11.13c2.91,1.3,3.32,5.26,.75,7.14Z" fill="#ffffff" stroke="#002346" stroke-miterlimit="10" stroke-width=".91"></path>
        <path d="M779.26,430.13h-6.47c-2.52,.06-4.72-.4-6.5-1.02-3.07-1.06-4.86-2.57-4.86-2.57l-7.32-5.79c-3.19-2.43-.72-4.67-.72-4.67l7.24-6.18,10.75-9.18c17.37,8.11,7.87,29.41,7.87,29.41Z" fill="#ffffff" stroke="#002346" stroke-miterlimit="10" stroke-width=".91"></path>
        <rect x="294.34" y="373.72" width="26.47" height="10.26" rx="1.83" ry="1.83" fill="#fff" stroke="#002346" stroke-miterlimit="10" stroke-width=".91"></rect>
        <rect x="211.02" y="373.72" width="26.47" height="10.26" rx="1.83" ry="1.83" fill="#fff" stroke="#002346" stroke-miterlimit="10" stroke-width=".91"></rect>
        <ellipse cx="172.29" cy="480.95" rx="23.65" ry="47.71" fill="#e4e5e6" stroke="#002346" stroke-miterlimit="10" stroke-width=".91"></ellipse>
        <ellipse cx="172.29" cy="480.95" rx="3.69" ry="7.49" fill="#fff" stroke="#002346" stroke-miterlimit="10" stroke-width=".91"></ellipse>
        <path d="M283.52,491.04c-35.24-57.77,0-116.98,0-116.98" fill="none" stroke="#002346" stroke-linecap="round" stroke-linejoin="round" stroke-width=".91"></path>
        <path d="M508.19,460.01h271.28v15.16h-13.85c-.81,0-1.59,.31-2.13,.91-.68,.75-1.08,2.04,.28,4.13,0,0,2.25,3.62-2.31,4.59h-201.01c-1.02,0-2.02-.39-2.7-1.15s-1.19-1.99-.43-3.78c.81-1.9-.55-4.04-2.61-4.17-.03,0-.07,0-.1,0h-47.24l-12.11,9.67h-14.13v-41.76s-.52-3.62,3.42-4.53c0,0,2.98-1.28,6.84,3.42l16.81,17.52Z" fill="#fff" stroke="#002346" stroke-miterlimit="10" stroke-width=".91"></path>
        <path d="M269.58,285.62l-39.12,32.44c-4.26,3.53-5.34,9.63-2.55,14.42l9,15.41c2.03,3.48,5.75,5.61,9.77,5.61h121.89c8.49,0,13.95-8.99,10.05-16.53l-24.88-48c-1.95-3.76-5.84-6.12-10.07-6.11l-66.89,.15c-2.63,0-5.17,.93-7.2,2.6Z" fill="#fff" stroke="#002346" stroke-miterlimit="10" stroke-width=".91"></path>
        <path d="M362.57,290.37l33.46,60.58c.87,1.58,2.53,2.56,4.34,2.56l232.34-.19c4.71,0,6.76-5.97,3.04-8.86l-77.84-60.55c-.87-.68-1.94-1.04-3.04-1.04l-187.95,.16c-3.77,0-6.15,4.05-4.33,7.35Z" fill="#fff" stroke="#002346" stroke-miterlimit="10" stroke-width=".91"></path>
        <path d="M534.62,419.39l-13.66,9.97c-.71,.52-1.57,.8-2.44,.8h-15.5c-2.07-3.7-3.26-7.97-3.26-12.52,0-6.49,2.41-12.42,6.39-16.94l1.35,.07c.51,.02,1.02,.15,1.49,.36l24.88,11.13c2.91,1.3,3.32,5.26,.75,7.14Z" fill="#fff" stroke="#002346" stroke-miterlimit="10" stroke-width=".91"></path>
        <path d="M767.15,423.08c0,2.17-.31,4.22-.86,6.03-3.07-1.06-4.86-2.57-4.86-2.57l-7.32-5.79c-3.19-2.43-.72-4.67-.72-4.67l7.24-6.18c3.72,1.23,6.52,6.66,6.52,13.18Z" fill="#fff" stroke="#002346" stroke-miterlimit="10" stroke-width=".91"></path>
      </g>
      <g>
        <polygon points="397.59 487.21 405.49 482.14 411.05 489.95 402.58 495.85 397.59 487.21" fill="#fff" stroke="#002346" stroke-miterlimit="10" stroke-width=".91"></polygon>
        <ellipse cx="400.08" cy="491.53" rx="1.54" ry="4.99" transform="translate(-192.16 265.89) rotate(-30)" fill="#e4e5e6" stroke="#002346" stroke-miterlimit="10" stroke-width=".91"></ellipse>
        <rect x="373.15" y="406.39" width="3.9" height="84.71" transform="translate(-179.46 262.92) rotate(-31.58)" fill="#fff" stroke="#002346" stroke-miterlimit="10" stroke-width=".91"></rect>
        <path d="M243.55,444.63l.31,7.42,30.78-25.65s16.31-22.46,49-6.1l3.11-2.82-19.25-12.62-15.01-7.57-31.19,22.75-17.75,24.6Z" fill="#ffffff" stroke="#002346" stroke-miterlimit="10" stroke-width=".91"></path>
        <path d="M327.82,561.05c4.83,.51,11.89,1.16,16.76-.55,1.7-.6,2.47-2.61,1.57-4.17-.3-.52-.76-1.07-1.42-1.64l-28.84-.45-12.93-.62-8.81-1.99-6.58,4.46,36.8,4.5c1.14,.18,2.29,.33,3.44,.46Z" fill="#fff" stroke="#002346" stroke-miterlimit="10" stroke-width=".91"></path>
        <path d="M320.61,557.53s18.19,2.79,23.62-.09c1.01-.53,1.23-1.87,.49-2.74-.38-.44-.93-.98-1.73-1.61-1.53-1.22-3.26-2.18-5.08-2.89l-13.41-5.18-14.57,3.69-12.72,1.03-3.06,4.07,26.46,3.72Z" fill="#ff3300" stroke="#002346" stroke-miterlimit="10" stroke-width=".91"></path>
        <path d="M229.32,534.33l-2.38,1.42c-1.57,.94-2.17,2.93-1.37,4.58l6.57,13.58,8.35,15.32c3.68,6.75,11.92,9.55,18.95,6.45l5.19-2.29c1.61-.71,2.38-2.62,1.6-4.2-.22-.44-.54-.81-1.01-1.02l-11.1-.4-9.23-2.46-4.1-12.93-11.47-18.07Z" fill="#fff" stroke="#002346" stroke-miterlimit="10" stroke-width=".91"></path>
        <path d="M292.5,373.04s-9.44-3.49-14.78-2.26c0,0-7.59-1.03-10.67,3.49,0,0-4.2,5.33,1.59,12.13,1.19,1.39,2.61,2.58,4.16,3.55l6.76,4.23,12.11-6.77,.82-14.37Z" fill="#efb0be" stroke="#002346" stroke-miterlimit="10" stroke-width=".91"></path>
        <path d="M340.47,409.73s-7.14,.46-12.27,5.18l-10.88-10.88,12.91-14.32,12.95,5.91-2.71,14.11Z" fill="#efb0be" stroke="#002346" stroke-miterlimit="10" stroke-width=".91"></path>
        <path d="M328.21,414.9l2.54,3.47c.29,.39,.44,.86,.45,1.34,.02,1.09,.05,3.5,0,8.17,0,.66-.84,.94-1.24,.42l-12.71-16.12s2.91-5.28,3.65-7.34l7.31,10.05Z" fill="#ffffff" stroke="#002346" stroke-miterlimit="10" stroke-width=".91"></path>
        <path d="M257.2,421.06l-16.62,21.34s-4.72,5.75-5.13,6.36l6.16-2.87s.82,.82,1.95-1.26l12.62-12.49,16.08-14.64,2.17-1.82c2.9-2.43,5.94-4.67,9.12-6.73,7.45-4.82,21.51-13.66,30.09-17.45l-2.87-12.31,1.23-.41-2.05-.82c-5.54-2.26-15.41-4.57-15.41-4.57l-1.95-.36c-1.4-.26-2.8,.59-3.14,1.98-.08,.32-.07,.52-.07,.52-11.95,2.07-10.22,13.11-10.22,13.11,0,0,.41,2.26,1.23,3.28l-23.19,29.14Z" fill="#ff3300" stroke="#002346" stroke-miterlimit="10" stroke-width=".91"></path>
        <path d="M228.88,450.2s.44,1.43,3.91-.21l2.65-1.23,2.74-3.44s-10.13,2.82-9.31,4.87Z" fill="#ffffff" stroke="#002346" stroke-miterlimit="10" stroke-width=".91"></path>
        <path d="M241.81,565.53s.15,.42,.5,1.08c2.47,4.74,7.53,7.52,12.86,7.23,.08,0,.16,0,.25-.02,1.17-.08,2.32-.36,3.41-.8l4.24-1.71c1.13-.46,1.98-1.48,2.13-2.69,.11-.9-.13-1.95-1.3-2.89,0,0-.9-.54-2.11-.53-.66,0-1.31-.17-1.88-.51-1.3-.78-3.55-1.99-4.63-1.68,0,0-.95,.25-.95-.78l-.41-3.28-13.64-28.54s-1.55-.61-2.17-1.02l-8.79,4.92c-.41,.4-.59,.97-.52,1.52,.02,.18,.08,.36,.16,.52l12.86,29.16Z" fill="#ff3300" stroke="#002346" stroke-miterlimit="10" stroke-width=".91"></path>
        <line x1="277.72" y1="370.78" x2="287.16" y2="374.68" fill="none" stroke="#002346" stroke-linecap="round" stroke-linejoin="round" stroke-width=".91"></line>
        <path d="M331.18,444.56s9.13,1.33,7.9,17.14l-3.08,38.17-23.85,5.28-11.04-9.59,2.26-14.98,18.26-17.85,9.54-18.16Z" fill="#ffffff" stroke="#002346" stroke-miterlimit="10" stroke-width=".91"></path>
        <path d="M304.88,549.73s5.88,2.34,12.36,2.63c.81,.04,1.6-.31,2.11-.95l5.16-6.41-1.18-.57-3.34-1.69-19.53,4.82,4.4,2.16Z" fill="#efb0be" stroke="#002346" stroke-miterlimit="10" stroke-width=".91"></path>
        <path d="M235.45,448.77l8.11-4.13,.31,7.42s-2.67,3.69-6.16,5.34c0,0-3.18,1.5-5.79,2.17-.6,.15-1.18,.37-1.73,.65-1.38,.7-3.06,2.05-1.14,3.95,0,0,1.28,1.24,4.56,3.29,0,0,13.75,5.34,29.96,5.34,0,0,15.85,1.12,28.45-3.44l11.16-6s-.21,3.58,.82,5.38l1.03,.37s.41,1.23-.27,3.16c0,0,3.67,6.17,4.99,9.15l-19.09,11.49,10.47,2.67,12.99,2.89s18.82,4.91,28.67,9.83c0,0,6.08,2.43,9.15,12.28,2.28,7.31-1.06,15.23-7.9,18.66-2.79,1.4-6.41,2.71-11.1,3.74l-20.83,6.26-49.35,16.52s-15.19-19.7-15.6-33.66c0,0-8.26,.11-16.88-8.56-6.66-6.7-10.45-15.73-10.84-25.18-.22-5.23,.12-11.96,1.86-19.87,0,0,2.54-12.12,6.91-20.4,.62-1.18,.91-2.51,.85-3.84l-.17-4.04c.41,1.85,6.57-1.44,6.57-1.44" fill="#ffffff" stroke="#002346" stroke-miterlimit="10" stroke-width=".91"></path>
        <path d="M304.34,471.49l10.84,30.46c1.06,2.98,3.82,5.06,6.99,5.17,.9,.03,1.93,0,3.11-.13l51.36-10.88s3.98-.82,7.74,6.39c0,0,1.5,5.37,6.01,3.52l10.92-3.28c.74-.22,1.11-1.04,.8-1.74l-.38-.79c-.12-.24,.08-.52,.35-.5l3.68,.31c.69,.06,1.4-.15,1.91-.61,.56-.51,.97-1.39,.36-2.82l-.98-3.74c-.02-.08-.11-.12-.19-.08l-2.18,1.26s-4.03,1.75-7.28-3.08c-.24-.36-.41-.77-.46-1.2-.09-.84,.19-2.01,2.51-1.97,1.33,.02,2.61,.48,3.72,1.22,1.52,1.03,4.32,2.45,6.39,.68,0,0,1.3-.74-2.17-3.39l-1.86-1.86c-.91-.91-2.1-1.51-3.37-1.7l-10.59-1.58s-2.63-.39-5.99,.06l-7.73,.54c-.79,.06-1.57,.15-2.35,.27l-43.41,6.95-1.56-18.1-6.31-3.35-19.9,3.95Z" fill="#efb0be" stroke="#002346" stroke-miterlimit="10" stroke-width=".91"></path>
        <path d="M303.99,470.72c.77,2.56,4.89,4,7.88,4.73,2.3,.56,4.68,.73,7.03,.47,5.3-.59,8.85-2.73,10.83-4.34,1.24-1,1.88-2.56,1.72-4.15l-1.16-11.51c-.33-3.27,.06-6.56,.98-9.71,1.18-4.05-.62-7.91-.62-7.91-.62-1.85-2.74-8.44-2.74-8.44-.9-2.08,0-4.13,0-4.13l-4.29-5.44c-12.36-7.54-29.29-5.39-29.29-5.39-10.47-1.03-19.91,8.41-19.91,8.41l-30.58,28.73-10.26,15.39c16.21,6.98,29.96,6.36,29.96,6.36l9.65-.62c12.52-.62,29.35-7.59,29.35-7.59l1.44,5.13Z" fill="#ff3300" stroke="#002346" stroke-miterlimit="10" stroke-width=".91"></path>
        <path d="M240.28,530.43l5.43,29.97s.02,.08,.05,.22c.34,1.51,1.97,2.33,3.38,1.71,1.85-.81,4.18-2.06,4.78-3.37l1.36-4.51s-7.93-12.32-8.14-22.38c0,0-3.27-.02-6.87-1.65Z" fill="#efb0be" stroke="#002346" stroke-miterlimit="10" stroke-width=".91"></path>
        <path d="M233.6,467.44s-2.96-1.86-4.56-3.29c0,0-2.68-1.95,1.14-3.95,0,0,.87-.53,1.73-.65,0,0,6.8-1.87,9.17-4.48l2.13-2.04-9.61,14.41Z" fill="#ffffff" stroke="#002346" stroke-miterlimit="10" stroke-width=".91"></path>
        <path d="M246.94,532.08s15.63,4.51,47.01,0l48.01-5.13" fill="none" stroke="#002346" stroke-linecap="round" stroke-linejoin="round" stroke-width=".91"></path>
        <line x1="290.56" y1="492.82" x2="278.54" y2="490.01" fill="none" stroke="#002346" stroke-linecap="round" stroke-linejoin="round" stroke-width=".91"></line>
        <line x1="302.55" y1="465.59" x2="299.68" y2="455.33" fill="none" stroke="#002346" stroke-linecap="round" stroke-linejoin="round" stroke-width=".91"></line>
        <path d="M406.9,487.84c.09-.58,.25-1.31,.5-1.54,0,0,3.35,1.68,3.9,3.07,.13,.34-.09,.71-.45,.76-.63,.09-1.87,.04-3.45-1.09-.38-.27-.57-.74-.5-1.2Z" fill="#ff3300" stroke="#002346" stroke-miterlimit="10" stroke-width=".91"></path>
        <path d="M388.05,505.43s2.89,.36,3.09,.38" fill="none" stroke="#002346" stroke-linecap="round" stroke-linejoin="round" stroke-width=".91"></path>
        <path d="M400.98,502.77s-3.49-.82-5.95-.62" fill="none" stroke="#002346" stroke-linecap="round" stroke-linejoin="round" stroke-width=".91"></path>
        <path d="M387.65,502.46s2.1,2.22,4.63,1.17c.15-.06,.31-.08,.47-.08l5.11,.14" fill="none" stroke="#002346" stroke-linecap="round" stroke-linejoin="round" stroke-width=".91"></path>
        <rect x="335.94" y="365.87" width="33.44" height="50.08" rx="16.72" ry="16.72" transform="translate(179.38 -106.23) rotate(22.84)" fill="#efb0be" stroke="#002346" stroke-miterlimit="10" stroke-width=".91"></rect>
        <path d="M347.5,356.11c0,3.68-2.99,6.67-6.67,6.67s-6.67-2.99-6.67-6.67c0-1.31,.38-2.54,1.03-3.57,1.18-1.87,3.26-3.1,5.64-3.1,.33,0,.65,.02,.97,.07,3.23,.47,5.7,3.24,5.7,6.6Z" fill="#ff3300" stroke="#002346" stroke-miterlimit="10" stroke-width=".91"></path>
        <path d="M368.94,375.24c1.31,.44,2.69-.43,2.91-1.8,.48-3-.85-8.37-11.63-15.38,0,0-16.7-9.85-30.51,0,0,0-17.43,13.45-5.61,38.38l4.2-4.3,8.23-3.62s3.38,.32,6.66-3.27c0,0,15.19,.52,19.7-7.69,0,0,2.2-3.61,6.05-2.32Z" fill="#002346" stroke="#002346" stroke-miterlimit="10" stroke-width=".91"></path>
        <ellipse cx="333.13" cy="392.65" rx="4.72" ry="7.48" transform="translate(-80.76 86.31) rotate(-13.18)" fill="#efb0be" stroke="#002346" stroke-miterlimit="10" stroke-width=".91"></ellipse>
        <path d="M286.71,417.63c8.26,8.53,22.31,7.01,28.92-2.85,13.51-20.16,12.79-51.39,12.79-51.39-.59-9.39,4.08-10.81,6.78-10.85,1.18-1.87,3.26-3.1,5.64-3.1,.33,0,.65,.02,.97,.07-1.58-2.84-6.44-9.38-15.02-2.12,0,0-11.52,9.1-17.41,29.6-1.53,5.31-4.27,10.22-8.14,14.16-4.33,4.41-10.77,8.45-19.8,8.36,0,0-2.01,10.58,5.29,18.12Z" fill="#002346" stroke="#002346" stroke-miterlimit="10" stroke-width=".91"></path>
      </g>
    </g>
    <g>
      <rect x="455.61" y="534.17" width="8.24" height="3.55" fill="#ffffff" stroke="#002346" stroke-miterlimit="10" stroke-width=".91"></rect>
      <rect x="525.47" y="534.17" width="8.24" height="3.55" fill="#ffffff" stroke="#002346" stroke-miterlimit="10" stroke-width=".91"></rect>
      <rect x="446.95" y="536.87" width="95.41" height="41.74" fill="#8ed8f2" stroke="#002346" stroke-miterlimit="10" stroke-width=".91"></rect>
      <rect x="451.64" y="541.84" width="85.47" height="33.51" fill="#fff" stroke="#002346" stroke-miterlimit="10" stroke-width=".91"></rect>
      <path d="M492.53,560.72c0-3.03-1.72-5.65-4.24-6.95v1.41s-.01,6.53-.01,6.53l-2.27,2.27h-1.99l-2.56-2.27v-8.09c-2.68,1.24-4.54,3.95-4.54,7.09s1.86,5.86,4.54,7.09v9.23h6.82v-9.37c2.53-1.29,4.26-3.92,4.26-6.96Z" fill="#e4e5e6" stroke="#002346" stroke-miterlimit="10" stroke-width=".91"></path>
      <rect x="497.07" y="549.08" width="17.32" height="10.22" fill="#002346" stroke="#002346" stroke-miterlimit="10" stroke-width=".91"></rect>
      <path d="M528.03,560.01h-2.84s-.18-3.45-2.87-4.98c-1.47-.83-3.29-.81-4.76,.02-1.09,.61-2.23,1.74-2.59,3.81,0,0,0,0,0,.01v-10.49c1.1,.05,3.63,.23,5.91,.91,3.96,1.18,6.75,4.72,7.03,8.84l.12,1.88Z" fill="#002346" stroke="#002346" stroke-miterlimit="10" stroke-width=".91"></path>
      <polygon points="520.36 560.58 522.06 560.58 523.48 565.12 522.35 566.54 522.35 575.63 520.08 575.63 520.08 566.54 518.94 565.12 520.36 560.58" fill="#e4e5e6" stroke="#002346" stroke-miterlimit="10" stroke-width=".91"></polygon>
      <rect x="503.75" y="546.24" width="9.37" height="30.38" fill="#e4e5e6" stroke="#002346" stroke-miterlimit="10" stroke-width=".91"></rect>
      <rect x="441.7" y="575.06" width="106.2" height="50.55" fill="#8ed8f2" stroke="#002346" stroke-miterlimit="10" stroke-width=".91"></rect>
      <rect x="441.7" y="588.98" width="106.2" height="3.12" fill="#ffffff" stroke="#002346" stroke-miterlimit="10" stroke-width=".91"></rect>
      <rect x="455.61" y="572.51" width="8.24" height="12.49" fill="#ffffff" stroke="#002346" stroke-miterlimit="10" stroke-width=".91"></rect>
      <rect x="525.47" y="572.22" width="8.24" height="12.78" fill="#ffffff" stroke="#002346" stroke-miterlimit="10" stroke-width=".91"></rect>
      <rect x="494.8" y="548.09" width="3.12" height="12.21" fill="#ff3300" stroke="#002346" stroke-miterlimit="10" stroke-width=".91"></rect>
      <rect x="501.9" y="548.09" width="13.06" height="12.21" fill="#ff3300" stroke="#002346" stroke-miterlimit="10" stroke-width=".91"></rect>
    </g>
  </g>
  <rect x="43.45" y="58.05" width="15.79" height="422" fill="#fff" stroke="#002346" stroke-miterlimit="10" stroke-width=".91"></rect>
  <rect x="43.45" y="58.05" width="189" height="5" fill="#fff" stroke="#002346" stroke-miterlimit="10" stroke-width=".91"></rect>
  <rect x="43.45" y="109.34" width="189" height="5" fill="#fff" stroke="#002346" stroke-miterlimit="10" stroke-width=".91"></rect>
  <rect x="232.45" y="33.34" width="179" height="107" rx="8.96" ry="8.96" fill="#ffffff" stroke="#002346" stroke-miterlimit="10" stroke-width=".91"></rect>
  <rect x="238.45" y="40.34" width="166" height="93" rx="4.77" ry="4.77" fill="#fff" stroke="#002346" stroke-miterlimit="10" stroke-width=".9"></rect>
  <polygon points="232.14 106.15 192.45 65.34 149.24 109.47 137.45 109.34 94.24 65.34 51.74 109.14 43.45 109.34 88.29 63.4 100.09 63.4 143.25 108.04 186.81 63.4 198.32 63.04 232.14 98.2 232.14 106.15" fill="#e4e5e6" stroke="#002346" stroke-miterlimit="10" stroke-width=".91"></polygon>
</svg>
