<?xml version="1.0" encoding="UTF-8"?>
<svg xmlns="http://www.w3.org/2000/svg" width="865.76" height="682.89" viewBox="0 0 865.76 682.89">
  <path d="M74,558.19S170.17,337.27,244,337.53c72.63.34,165.14,217.71,165.14,217.71Z" fill="#f0f0f0"></path>
  <path d="M261.84,395.15c21.79-24.46,56,7.72,58.34.31-24.73-32.9-51.53-57.79-76.07-57.88s-52,24.55-77.36,57.58c3.47,6.73,11.85,14.52,30.91.35C226.09,374.28,234.73,425.46,261.84,395.15Z" fill="#f5f5f5"></path>
  <path d="M409.17,555.24s-6.35-14.93-17-37c-9.82.88-26.74,6.63-43.61,2.05-19.49-5.29-57.39-1.2-68.75-.35s-10.85-1.24-32.39,1-26.31-2.89-71.41-5.56c-37-2.21-73.87,5.56-85.9,8.43C80,544.44,74,558.14,74,558.14Z" fill="#e0e0e0"></path>
  <polygon points="151.74 411.35 153.62 419.01 152.67 431.08 151.74 434.02 157.55 434.02 156.29 423.7 161.07 411.35 159.78 411.35 155.96 418.77 154.36 412.73 151.74 411.35" fill="#e6e6e6"></polygon>
  <path d="M170.34,407a5.22,5.22,0,0,0-3.83-6.24,6.52,6.52,0,0,0-.74-.16,8.44,8.44,0,0,0-6-6.29c-4.37-1.34-8.89.69-10.07,4.53V399a7.29,7.29,0,1,0,1.35,14.38,10.18,10.18,0,0,0,2.88,1.16,9.21,9.21,0,0,0,6.86-1.08,2.38,2.38,0,0,0,1.32,1.05c1.64.52,3.68-1.13,4.47-3.69a6.37,6.37,0,0,0,.2-.75A4.73,4.73,0,0,0,170.34,407Z" fill="#e6e6e6"></path>
  <polygon points="285.38 468.07 287.28 475.74 286.33 487.8 285.38 490.76 291.21 490.76 289.95 480.42 294.73 468.07 293.44 468.07 289.62 475.49 288.02 469.45 285.38 468.07" fill="#e6e6e6"></polygon>
  <path d="M304,463.69a5.2,5.2,0,0,0-3.83-6.24,6.36,6.36,0,0,0-.73-.16,8.44,8.44,0,0,0-6-6.29c-4.37-1.34-8.89.69-10.07,4.54a.81.81,0,0,1,0,.22,7.29,7.29,0,0,0-.71,14.56,7.58,7.58,0,0,0,2.07-.2,9.62,9.62,0,0,0,2.88,1.16,9.17,9.17,0,0,0,6.86-1.08,2.41,2.41,0,0,0,1.32,1.05c1.64.52,3.69-1.13,4.47-3.67a6.69,6.69,0,0,0,.2-.77A4.7,4.7,0,0,0,304,463.69Z" fill="#e6e6e6"></path>
  <polygon points="116.95 459.07 118.84 466.73 117.9 478.8 116.95 481.76 122.78 481.76 121.5 471.41 126.28 459.07 124.99 459.07 121.18 466.49 119.57 460.46 116.95 459.07" fill="#e6e6e6"></polygon>
  <path d="M135.57,454.68a5.2,5.2,0,0,0-3.85-6.22c-.24-.07-.49-.13-.74-.18A8.41,8.41,0,0,0,125,442c-4.39-1.34-8.89.69-10.07,4.53v.23a7.29,7.29,0,0,0-.59,14.56,7.51,7.51,0,0,0,2-.19,10,10,0,0,0,2.87,1.17,9.24,9.24,0,0,0,6.87-1.08,2.54,2.54,0,0,0,1.31,1.06c1.64.51,3.7-1.13,4.49-3.68.07-.26.13-.51.18-.77A4.76,4.76,0,0,0,135.57,454.68Z" fill="#e6e6e6"></path>
  <polygon points="295.46 417.31 297.04 423.7 296.25 433.75 295.46 436.2 300.33 436.2 299.26 427.59 303.24 417.31 302.16 417.31 298.98 423.48 297.66 418.46 295.46 417.31" fill="#e6e6e6"></polygon>
  <path d="M311,413.66a4.63,4.63,0,0,0-3.8-5.33h0a7,7,0,0,0-4.91-5.23,6.56,6.56,0,0,0-8.4,3.77v.19A6.08,6.08,0,1,0,295,419a8.23,8.23,0,0,0,2.4,1,7.64,7.64,0,0,0,5.72-.9,2,2,0,0,0,1.09.88c1.41.43,3.08-1,3.74-3.06a4.56,4.56,0,0,0,.14-.64A3.93,3.93,0,0,0,311,413.66Z" fill="#e6e6e6"></path>
  <polygon points="309.48 386.28 308.31 391.01 308.9 398.47 309.48 400.3 305.88 400.3 306.66 393.9 303.71 386.28 304.52 386.28 306.87 390.86 307.86 387.13 309.48 386.28" fill="#e6e6e6"></polygon>
  <path d="M298,383.56a3.27,3.27,0,0,1,2.37-3.86,1.9,1.9,0,0,1,.46-.1,5.21,5.21,0,0,1,3.68-3.9,4.92,4.92,0,0,1,6.24,2.82v.13a4.52,4.52,0,1,1-.83,8.9,6.44,6.44,0,0,1-1.79.71,5.59,5.59,0,0,1-4.24-.67,1.48,1.48,0,0,1-.82.65c-1,.33-2.29-.69-2.78-2.28a2.47,2.47,0,0,1-.11-.47A2.93,2.93,0,0,1,298,383.56Z" fill="#e6e6e6"></path>
  <polygon points="98.69 494.17 97.79 511.99 95.74 515.48 100.06 514.19 105.1 515.48 102.08 510.34 101.44 494.17 98.69 494.17" fill="#f0f0f0"></polygon>
  <polygon points="100.14 462.39 95 473.57 97.57 472.64 93.17 479.47 96.66 478.85 91.88 487.7 95 486.93 90.6 498.57 95.36 496.56 96.3 498.57 100.14 496.72 106.58 498.57 105.3 496.1 109.52 497.65 104.74 486.93 107.49 488.8 104.01 480.48 106.4 481.95 102.17 472.33 104.37 473.1 100.14 462.39" fill="#ebebeb"></polygon>
  <polygon points="140.67 422.55 139.79 440.38 137.74 443.86 142.05 442.57 147.11 443.86 144.08 438.72 143.42 422.55 140.67 422.55" fill="#f0f0f0"></polygon>
  <polygon points="142.15 390.78 137.01 401.96 139.58 401.02 135.16 407.85 138.66 407.23 133.88 416.08 137.01 415.31 132.59 426.95 137.37 424.94 138.28 426.95 142.15 425.1 148.58 426.95 147.29 424.48 151.51 426.04 146.73 415.31 149.5 417.18 145.99 408.87 148.38 410.34 144.16 400.71 146.37 401.48 142.15 390.78" fill="#ebebeb"></polygon>
  <polygon points="326.26 390.65 325.36 408.47 323.31 411.96 327.63 410.67 332.69 411.96 329.64 406.82 329.01 390.65 326.26 390.65" fill="#f0f0f0"></polygon>
  <polygon points="327.73 358.87 322.57 370.05 325.14 369.12 320.74 375.95 324.23 375.32 319.45 384.18 322.57 383.41 318.17 395.05 322.95 393.04 323.87 395.05 327.73 393.2 334.15 395.05 332.87 392.58 337.09 394.12 332.31 383.41 335.06 385.28 331.58 376.96 333.97 378.44 329.74 368.81 331.95 369.58 327.73 358.87" fill="#ebebeb"></polygon>
  <polygon points="182.99 360.85 181.75 385.57 178.91 390.4 184.91 388.62 191.91 390.4 187.7 383.28 186.8 360.85 182.99 360.85" fill="#f0f0f0"></polygon>
  <polygon points="185.02 316.8 177.9 332.31 181.47 331.01 175.34 340.49 180.19 339.62 173.56 351.9 177.9 350.82 171.78 366.98 178.41 364.18 179.68 366.98 185.02 364.39 193.94 366.98 192.16 363.52 198.02 365.68 191.39 350.82 195.22 353.41 190.37 341.88 193.68 343.93 187.84 330.59 190.88 331.67 185.02 316.8" fill="#ebebeb"></polygon>
  <polygon points="205.66 372.26 204.76 390.25 202.7 393.77 207.05 392.48 212.16 393.77 209.1 388.58 208.44 372.26 205.66 372.26" fill="#f0f0f0"></polygon>
  <polygon points="207.15 340.18 201.96 351.47 204.55 350.52 200.1 357.42 203.63 356.79 198.8 365.73 201.96 364.95 197.51 376.72 202.32 374.67 203.25 376.72 207.15 374.83 213.63 376.72 212.34 374.19 216.6 375.77 211.78 364.95 214.57 366.83 211.05 358.45 213.45 359.94 209.18 350.21 211.41 351 207.15 340.18" fill="#ebebeb"></polygon>
  <polygon points="169.11 377.27 168.42 391.07 166.83 393.77 170.19 392.77 174.08 393.77 171.74 389.8 171.25 377.27 169.11 377.27" fill="#f0f0f0"></polygon>
  <polygon points="170.25 352.67 166.28 361.33 168.26 360.61 164.85 365.89 167.55 365.42 163.85 372.28 166.28 371.67 162.85 380.69 166.55 379.12 167.26 380.69 170.25 379.25 175.23 380.69 174.23 378.76 177.51 379.97 173.81 371.67 175.95 373.11 173.23 366.68 175.08 367.83 171.81 360.36 173.53 360.97 170.25 352.67" fill="#ebebeb"></polygon>
  <rect x="695.27" y="585.51" width="54.22" height="0.41" fill="#ebebeb"></rect>
  <rect x="540.99" y="589.96" width="14.23" height="0.41" fill="#ebebeb"></rect>
  <rect x="662.22" y="570.32" width="31.41" height="0.41" fill="#ebebeb"></rect>
  <rect x="98.9" y="573.07" width="70.7" height="0.41" fill="#ebebeb"></rect>
  <rect x="184.18" y="573.07" width="10.36" height="0.41" fill="#ebebeb"></rect>
  <rect x="228.23" y="579.98" width="153.35" height="0.41" fill="#ebebeb"></rect>
  <path d="M401,486.16H84.92a9.35,9.35,0,0,1-9.35-9.34V32.5a9.36,9.36,0,0,1,9.35-9.27H401a9.35,9.35,0,0,1,9.35,9.35h0V476.82A9.35,9.35,0,0,1,401,486.16ZM84.92,23.56A9,9,0,0,0,76,32.5V476.82a9,9,0,0,0,8.94,8.93H401a9,9,0,0,0,8.94-8.93V32.5A9,9,0,0,0,401,23.56Z" fill="#ebebeb"></path>
  <path d="M755.07,486.16H439a9.37,9.37,0,0,1-9.35-9.34V32.5A9.36,9.36,0,0,1,439,23.23H755.07a9.36,9.36,0,0,1,9.32,9.27V476.82A9.35,9.35,0,0,1,755.07,486.16ZM439,23.56A9,9,0,0,0,430,32.5V476.82a9,9,0,0,0,8.94,8.93H755.07a9,9,0,0,0,8.94-8.93V32.5a9,9,0,0,0-8.94-8.94Z" fill="#ebebeb"></path>
  <rect x="13.02" y="559.17" width="818.48" height="0.41" fill="#ebebeb"></rect>
  <path d="M480.87,241.62c-6.55,2.67-28.13-.54-28.13-.54l-2.34,1a46.21,46.21,0,0,1-39.87-1.82h0s-17.77.72-23.53-.44c-8.79-1.79-21.85-8.73-18.59-30.63s36.16-3,36.16-3-9.5-30.76,22.6-21.53,34.58,39.75,34.58,39.75S511.59,229,480.87,241.62Z" fill="#f5f5f5"></path>
  <path d="M716.49,176.09c-6.55,2.67-28.12-.54-28.12-.54l-2.34,1a46.2,46.2,0,0,1-39.88-1.82h0s-17.76.72-23.54-.44c-8.82-1.78-21.92-8.64-18.65-30.63s36.16-3,36.16-3-9.49-30.82,22.53-21.53,34.62,39.75,34.62,39.75S747.21,163.5,716.49,176.09Z" fill="#f5f5f5"></path>
  <path d="M761.93,560.15S628.86,254.39,526.55,254.8C426,255.22,298,556.13,298,556.13Z" fill="#f5f5f5"></path>
  <path d="M502,334.48c-30.17-33.85-77.52,10.71-80.77.44,34.25-45.54,71.34-80,105.29-80.12,34.38-.14,72,34.11,107.06,79.72-4.78,9.29-16.37,20.08-42.77.45C551.39,305.61,539.44,376.45,502,334.48Z" fill="#f0f0f0"></path>
  <path d="M298,556.13s8.79-20.68,23.56-51.16c13.69,1.21,37,9.17,60.35,2.83,27-7.33,79.43-1.63,95.24-.49s15-1.72,44.82,1.43,36.41-4,98.81-7.71c51.22-3,102.26,7.72,118.91,11.68,14,28.45,22.21,47.48,22.21,47.48Z" fill="#e0e0e0"></path>
  <polygon points="654.28 356.93 651.68 367.52 652.99 384.21 654.28 388.31 646.23 388.31 647.98 373.98 641.37 356.93 643.15 356.93 648.44 367.17 650.65 358.82 654.28 356.93" fill="#e6e6e6"></polygon>
  <path d="M628.52,350.85a7.22,7.22,0,0,1,5.3-8.64,7.62,7.62,0,0,1,1-.23,11.66,11.66,0,0,1,8.19-8.69c6.06-1.87,12.29.95,13.93,6.27a.48.48,0,0,0,.08.32,10.09,10.09,0,0,1,3.44,19.73,10.28,10.28,0,0,1-5.31.16,13.66,13.66,0,0,1-4,1.64,12.63,12.63,0,0,1-9.51-1.49,3.43,3.43,0,0,1-1.82,1.47c-2.34.71-5.11-1.63-6.2-5.1-.1-.35-.18-.71-.25-1.05A6.54,6.54,0,0,1,628.52,350.85Z" fill="#e6e6e6"></path>
  <polygon points="469.32 435.42 466.71 446.01 468.02 462.7 469.32 466.8 461.25 466.8 463.01 452.49 456.39 435.42 458.19 435.42 463.48 445.66 465.69 437.32 469.32 435.42" fill="#e6e6e6"></polygon>
  <path d="M443.54,429.34a7.17,7.17,0,0,1,5.31-8.62,7.09,7.09,0,0,1,1-.25,11.68,11.68,0,0,1,8.19-8.69c6.05-1.87,12.31,1,13.94,6.29a.43.43,0,0,0,.09.31,10.08,10.08,0,0,1,3.42,19.72,10,10,0,0,1-5.31.17,13,13,0,0,1-4,1.63,12.64,12.64,0,0,1-9.49-1.5,3.3,3.3,0,0,1-1.83,1.47c-2.34.72-5.11-1.56-6.19-5.09a7.94,7.94,0,0,1-.26-1.07A6.53,6.53,0,0,1,443.54,429.34Z" fill="#e6e6e6"></path>
  <polygon points="702.41 422.96 699.81 433.55 701.12 450.25 702.41 454.34 694.36 454.34 696.11 440.03 689.5 422.96 691.3 422.96 696.57 433.21 698.79 424.88 702.41 422.96" fill="#e6e6e6"></polygon>
  <path d="M676.68,416.89a7.17,7.17,0,0,1,5.3-8.63c.35-.1.67-.18,1-.25a11.68,11.68,0,0,1,8.18-8.69c6.06-1.86,12.31.95,14,6.29a.45.45,0,0,0,.08.31,10.08,10.08,0,0,1,3.52,19.72,9.84,9.84,0,0,1-5.3.17,13.06,13.06,0,0,1-4,1.63,12.57,12.57,0,0,1-9.5-1.5,3.22,3.22,0,0,1-1.83,1.47c-2.32.72-5.11-1.55-6.19-5.09a7.8,7.8,0,0,1-.26-1.06A6.57,6.57,0,0,1,676.68,416.89Z" fill="#e6e6e6"></path>
  <polygon points="455.36 365.16 453.19 374 454.28 387.9 455.36 391.3 448.65 391.3 450.11 379.38 444.61 365.16 446.1 365.16 450.5 373.7 452.33 366.76 455.36 365.16" fill="#e6e6e6"></polygon>
  <path d="M433.92,360.12a6,6,0,0,1,4.42-7.19,6.21,6.21,0,0,1,.85-.21,9.67,9.67,0,0,1,6.86-7.24c5-1.63,10.25.79,11.6,5.24a1.13,1.13,0,0,1,0,.26,8.4,8.4,0,1,1,.58,16.79,8.64,8.64,0,0,1-2.21-.22,11.4,11.4,0,0,1-3.28,1.32,10.48,10.48,0,0,1-7.9-1.24,2.71,2.71,0,0,1-1.53,1.21c-1.94.61-4.25-1.29-5.15-4.24a5.39,5.39,0,0,1-.22-.88A5.42,5.42,0,0,1,433.92,360.12Z" fill="#e6e6e6"></path>
  <polygon points="435.96 322.2 437.58 328.75 436.78 339.08 435.96 341.62 440.96 341.62 439.88 332.76 443.97 322.2 442.86 322.2 439.58 328.54 438.22 323.38 435.96 322.2" fill="#e6e6e6"></polygon>
  <path d="M451.91,318.44A4.75,4.75,0,0,0,448,313h0a7.22,7.22,0,0,0-5.09-5.39,6.72,6.72,0,0,0-8.63,3.9v.19a6.24,6.24,0,0,0-.47,12.47,5.94,5.94,0,0,0,1.63-.16,9.19,9.19,0,0,0,2.48,1,7.85,7.85,0,0,0,5.87-.94,2.13,2.13,0,0,0,1.13.92c1.44.44,3.16-1,3.83-3.16a3.38,3.38,0,0,1,.17-.66A4,4,0,0,0,451.91,318.44Z" fill="#e6e6e6"></path>
  <polygon points="727.72 471.53 728.95 496.18 731.78 501.01 725.8 499.24 718.81 501.01 723 493.89 723.9 471.53 727.72 471.53" fill="#f0f0f0"></polygon>
  <polygon points="725.69 427.54 732.79 443.01 729.24 441.74 735.35 451.18 730.52 450.33 737.11 462.57 732.79 461.51 738.9 477.62 732.28 474.83 731.02 477.62 725.69 475.05 716.78 477.62 718.57 474.18 712.71 476.34 719.32 461.51 715.51 464.08 720.34 452.59 717.03 454.63 722.89 441.29 719.83 442.37 725.69 427.54" fill="#ebebeb"></polygon>
  <polygon points="669.59 372.41 670.83 397.08 673.67 401.91 667.69 400.12 660.68 401.91 664.89 394.79 665.78 372.41 669.59 372.41" fill="#f0f0f0"></polygon>
  <polygon points="667.56 328.43 674.68 343.91 671.11 342.62 677.22 352.08 672.39 351.21 679 363.47 674.68 362.39 680.79 378.52 674.17 375.72 672.9 378.52 667.56 375.93 658.65 378.52 660.44 375.08 654.6 377.22 661.21 362.39 657.39 364.98 662.22 353.47 658.92 355.52 664.76 342.19 661.72 343.26 667.56 328.43" fill="#ebebeb"></polygon>
  <polygon points="412.77 328.26 414 352.91 416.83 357.74 410.85 355.96 403.86 357.74 408.05 350.62 408.95 328.26 412.77 328.26" fill="#f0f0f0"></polygon>
  <polygon points="410.74 284.28 417.84 299.75 414.29 298.45 420.4 307.92 415.57 307.06 422.17 319.31 417.84 318.24 423.95 334.35 417.34 331.57 416.07 334.35 410.74 331.78 401.83 334.35 403.62 330.91 397.76 333.07 404.37 318.24 400.56 320.81 405.39 309.32 402.1 311.35 407.94 298.03 404.88 299.11 410.74 284.28" fill="#ebebeb"></polygon>
  <polygon points="611.04 287.04 612.74 321.22 616.67 327.92 608.38 325.45 598.69 327.92 604.5 318.05 605.75 287.04 611.04 287.04" fill="#f0f0f0"></polygon>
  <polygon points="608.22 226.07 618.08 247.51 613.15 245.73 621.61 258.84 614.92 257.64 624.07 274.63 618.08 273.15 626.54 295.49 617.37 291.63 615.62 295.49 608.22 291.92 595.88 295.49 598.35 290.73 590.23 293.71 599.4 273.15 594.11 276.71 600.8 260.77 596.22 263.6 604.34 245.14 600.1 246.63 608.22 226.07" fill="#ebebeb"></polygon>
  <polygon points="579.66 302.81 580.9 327.7 583.76 332.58 577.72 330.78 570.67 332.58 574.91 325.4 575.81 302.81 579.66 302.81" fill="#f0f0f0"></polygon>
  <polygon points="577.59 258.41 584.78 274.03 581.2 272.74 587.35 282.28 582.47 281.41 589.15 293.77 584.78 292.69 590.95 308.96 584.27 306.15 583 308.96 577.59 306.36 568.62 308.96 570.41 305.49 564.51 307.67 571.18 292.69 567.33 295.29 572.21 283.69 568.87 285.75 574.78 272.3 571.7 273.38 577.59 258.41" fill="#ebebeb"></polygon>
  <polygon points="630.24 309.75 631.19 328.85 633.38 332.58 628.76 331.21 623.35 332.58 626.59 327.08 627.27 309.75 630.24 309.75" fill="#f0f0f0"></polygon>
  <polygon points="628.67 275.7 634.17 287.68 631.42 286.68 636.13 294 632.4 293.35 637.52 302.82 634.17 301.99 638.9 314.48 633.77 312.32 632.79 314.48 628.67 312.48 621.77 314.48 623.15 311.81 618.62 313.48 623.74 301.99 620.79 303.99 624.52 295.1 621.97 296.67 626.49 286.36 624.13 287.19 628.67 275.7" fill="#ebebeb"></polygon>
  <path d="M274.27,198.08c-7.78,3.17-33.63-.66-33.63-.66l-2.8,1.2a55.2,55.2,0,0,1-47.66-2.17h0s-21.28.86-28.14-.54c-10.5-2.11-26.19-10.41-22.22-36.6S183,155.76,183,155.76,171.71,118.9,210,130s41.34,47.47,41.34,47.47S311,183,274.27,198.08Z" fill="#f5f5f5"></path>
  <path d="M357.36,168.3c-4.65,1.9-20.09-.39-20.09-.39l-1.63.7a33,33,0,0,1-28.49-1.28h0s-12.67.51-16.79-.32c-6.27-1.26-15.6-6.22-13.28-21.87S302.9,143,302.9,143s-6.76-22,16.09-15.37A34,34,0,0,1,343.69,156S379.29,159.31,357.36,168.3Z" fill="#f5f5f5"></path>
  <path d="M562.94,141.53c-3.27,1.35-14-.26-14-.26l-1.17.49a22.88,22.88,0,0,1-19.89-.9h0a82.14,82.14,0,0,1-11.74-.23c-4.37-.88-10.9-4.33-9.27-15.27s18-1.47,18-1.47-4.73-15.39,11.25-10.74a23.72,23.72,0,0,1,17.25,19.76S578.26,135.27,562.94,141.53Z" fill="#f5f5f5"></path>
  <path d="M435.7,170.14c-.25,14-11.25,23.32-21.87,28.56-13.63,6.71-28.66,10.32-43.29,13.23-15.72,3.15-31.58,5.18-47.38,7.75a455.76,455.76,0,0,0-47.89,10.78,275.62,275.62,0,0,1-48.46,9.43c-16.66,1.53-31.22,2.26-47.91,3.33-1.54.08-3.15-4.16-2.68-5.44-.79-14.33,7.24-24.33,18.29-30.82,13.68-8,29.88-7.59,45-6.83-.14-8.33,0-16.65,2-24.68a35.57,35.57,0,0,1,27.87-26.8c14-2.78,27.77,2.59,39.76,10.34q1.88-3.59,4.05-6.94c15.18-23.38,41.43-38.22,67.58-29.53a47.47,47.47,0,0,1,16.53,9.58c2.5,2.22,4.51,5.55,7.23,7.37s6.6,1.39,9.72,2.22C425.62,144.86,435.93,156.74,435.7,170.14Z" fill="#009444"></path>
  <path d="M434.7,185.89c-2.88,10-11.11,16.15-19.44,20.23-9.41,4.62-19.43,7.41-29.15,11a97.29,97.29,0,0,0-14.86,6.63,16.91,16.91,0,0,0-3.53,2.25c-1.1,1.08-.87,1.78.11,2.89,1.71,2,4.5,3.11,6.65,4.36,4,2.33,8,5.15,9.86,10a11.31,11.31,0,0,1-2.23,12c-3.45,3.72-8.49,5.87-13,7.63a74.17,74.17,0,0,1-15.49,4.09,98,98,0,0,1-28.67.29,107.29,107.29,0,0,1-28.83-8.25,29.74,29.74,0,0,1-6.7,13.73c-4.09,7-11.57,11.17-19.52,9.84a20.77,20.77,0,0,1-13.56-8.72c-1.88-2.67-3.27-5.83-5.64-8.06a16.2,16.2,0,0,0-7.41-3.76c-4.74-1.14-9.72-.82-14.48-.63a103.56,103.56,0,0,1-18.46-.72c-9.94-1.39-22.38-3.4-29.52-12-6.41-7.7-6.64-19.43,1.53-25.71,4.17-3.16,9.39-4.72,14.2-6.06a94.29,94.29,0,0,1,17.72-3.14,128.43,128.43,0,0,1,32.52,1.71,50.39,50.39,0,0,1-5.47-18.24,34.73,34.73,0,0,1-.6-11.72c1.32-10.47,8.89-15.27,17.77-16.5,11.11-1.59,21.59.54,32.46,2.56a50.91,50.91,0,0,0,17.88.38c5.78-1,11.45-2.65,17.15-4.17,22.41-5.78,45.26-10.23,68.29-11.28,10.35-.47,21.72-.25,31,5.38A20.83,20.83,0,0,1,434.7,185.89Z" fill="#39b54a"></path>
  <g opacity="0.2">
    <path d="M395.37,191.15h0v.1h0a.42.42,0,0,0,.1.17c5.34,5,13.6-.82,17.78-4.75.35-.32-7.93-2.58-11.56-1.57A10.32,10.32,0,0,0,395.37,191.15Z" fill="#fff"></path>
  </g>
  <g opacity="0.2">
    <path d="M392.64,172.29s6.84,7.67,3,13.42a6.7,6.7,0,0,1-4.58-4.69C389.75,177,392.64,172.29,392.64,172.29Z" fill="#fff"></path>
  </g>
  <g opacity="0.2">
    <path d="M380,245.9s-10.08-2.05-13.12,4.17a6.72,6.72,0,0,0,6.36,1.59C377.34,250.76,380,245.9,380,245.9Z" fill="#fff"></path>
  </g>
  <path d="M198.27,221.5s.66,10.27,7.44,11.57a6.67,6.67,0,0,0-.13-6.56C203.64,222.75,198.27,221.5,198.27,221.5Z" fill="#37474f"></path>
  <path d="M214.59,248.62a11.7,11.7,0,0,0-6-7.54,29.81,29.81,0,0,0-10.37-2.59S203.32,251.83,214.59,248.62Z" fill="#37474f"></path>
  <g opacity="0.2">
    <path d="M400,180s4.65,1.48,7.07-8.19C407.06,171.83,400.09,174.09,400,180Z" fill="#fff"></path>
  </g>
  <g opacity="0.2">
    <path d="M366.79,246s-2.64-4.16,6.07-9C372.86,237,372.44,244.33,366.79,246Z" fill="#fff"></path>
  </g>
  <path d="M214.43,240.11s4.41-2.08-.41-10.81C214,229.3,210.46,235.71,214.43,240.11Z" fill="#37474f"></path>
  <path d="M293.13,269.89c.1.8-.55,21.14-1.51,48.65h0c-.72,20.76-1.6,45.6-2.44,69.23-.21,5.68-.42,11.29-.61,16.75-.85,23.48-1.6,44.29-2.06,56.67h0c-.27,7.5-.43,11.88-.43,11.88h30.54s-.6-14.38-1.46-35.58h0c-.86-20.82-2-48.32-3-75.11-1.46-36.65-2.78-72-3.26-87.72-.13-4.33-.18-7.15-.16-8.08.11-3.73,5.25-14.92,11.22-27.13,8.87-18.12,19.54-38.47,18.34-40.07-2-2.66-2-2.16-2.92-1.26s-18,39.29-24.1,39.66-12.7-26.53-13.41-27.76-3.3-.66-3.15.27c0,.23.72,2.52,1.72,5.93,1.09,3.76,2.57,8.9,4,14.12h0c.22.78.43,1.57.64,2.35h0c.49,1.87,1,3.72,1.39,5.55,1.62,6.47,2.78,11.95,2.4,13.56-1,4.6-3.62,9.72-7.13,9.61-2.07-.09-6.1-6.42-10.05-13.58h0c-5.18-9.34-10.26-20.11-10.89-20.34a2,2,0,0,0-.59-.12c-1.31-.13-3.39.36-2.61,1.39S292.84,267.29,293.13,269.89Z" fill="#ac7054"></path>
  <g opacity="0.1">
    <path d="M293,473.09h4c2.56-12,2.37-24.44,1.95-36.76-.48-14.44-1.7-28.83-2.58-43.26a.31.31,0,0,0-.61,0c.44,14.26.54,28.52-.1,42.77C295.08,448.25,293.56,460.66,293,473.09Z"></path>
    <path d="M301.06,377.72c.81-9.59,2.36-19.12,3.72-28.64.1-.66,1.22-.51,1.17.15-1.6,19.44-2.63,39-.59,58.46A275.29,275.29,0,0,1,307,436.54c0,4.81-.11,9.64-.35,14.46a101.31,101.31,0,0,1-1.12,14.13c-.15.86-1.39.6-1.39-.19-.26-4.94.2-10,.17-14.94,0-4.66-.17-9.31-.39-14-.46-9.82-1.49-19.56-2.4-29.34A166,166,0,0,1,301.06,377.72Z"></path>
    <path d="M289.15,387.77c5.25-13.35,4.93-27.76,4.28-42.14q-.63-13.56-1.84-27.09C290.9,339.3,290,364.14,289.15,387.77Z"></path>
    <path d="M296.69,346.38a222.28,222.28,0,0,1,2.09-27.89.42.42,0,1,1,.84,0,220,220,0,0,1-.38,27.89c-.91,9.28-1.39,18.61-2.29,27.88a.24.24,0,0,1-.28.18.25.25,0,0,1-.18-.18C296.38,365,296.77,355.68,296.69,346.38Z"></path>
    <path d="M303.59,299.16c-.07-4.49-.68-9.16-.29-13.61.07-.92,1.51-1.28,1.7-.24a100.83,100.83,0,0,1,.85,13.34c.22,4.39.69,8.75.93,13.13s.26,8.76.17,13.12c-.11,4.79-1,9.4-1.53,14.13a.37.37,0,0,1-.38.37.37.37,0,0,1-.37-.37c-.39-4.38-1.11-8.7-1.28-13.12s-.18-9.1-.09-13.63S303.64,303.54,303.59,299.16Z"></path>
    <path d="M295.41,296.94c.31-5.55.15-10.92.22-16.42,0-.44.71-.57.81-.11A81.18,81.18,0,0,1,298,296.94c0,5.35-.19,11.51-2,16.58a.75.75,0,0,1-1,.29.74.74,0,0,1-.37-.49C294.24,307.91,295.11,302.29,295.41,296.94Z"></path>
    <path d="M310,399.36c.67,7.59,1.82,15.12,3,22.66.79,5.15,1.5,10.31,2.28,15.47-.86-20.82-2-48.32-3-75.11C308.92,374.4,308.85,386.91,310,399.36Z"></path>
    <path d="M308.72,473.09h3.65a25.7,25.7,0,0,1,.66-3.6c.19-1.47.36-3,.44-4.44a107.26,107.26,0,0,0-.12-10.76c-.31-6.86-.35-13.88-1.79-20.64a.46.46,0,0,0-.91.11c-.25,7.86.29,15.62-.54,23.46-.4,3.91-.87,7.8-1.16,11.71A26.32,26.32,0,0,0,308.72,473.09Z"></path>
    <path d="M286.51,461.19c.54-2.94.95-5.93,1.39-8.86.74-5.06,1.39-10.14,1.74-15.27.41-5.42.5-10.87.41-16.31s-.91-10.53-1.18-15.82a.5.5,0,0,0-.29-.42C287.76,428,287,448.81,286.51,461.19Z"></path>
    <path d="M295.88,380.82a.2.2,0,0,1,.26-.11.22.22,0,0,1,.1.11,23.77,23.77,0,0,1,0,6,.19.19,0,1,1-.38,0A24.26,24.26,0,0,1,295.88,380.82Z"></path>
    <path d="M303.37,269.75c.15-.43.91-.56,1,0a42.42,42.42,0,0,1-.2,10.56c0,.53-.87.74-1,.13A20.1,20.1,0,0,1,303.37,269.75Z"></path>
    <path d="M292.13,259.2a27.19,27.19,0,0,1,7.53,21c0,.45-.78.65-.88.11a97.07,97.07,0,0,0-2.47-10.37,43.59,43.59,0,0,0-4.91-10.17.47.47,0,0,1,.2-.64A.45.45,0,0,1,292.13,259.2Z"></path>
    <path d="M308.89,274.73c-.13-4.33-.18-7.15-.15-8.08.11-3.73,5.24-14.92,11.21-27.13-4.76,5.55-9.3,11.18-11.67,18.21C306.39,263.22,307.64,269,308.89,274.73Z"></path>
    <path d="M310.87,244.32c5.68-8.87,11.25-17.83,16.41-27,.16-.27.64-.08.53.23a77.55,77.55,0,0,1-16.53,27.11A.26.26,0,0,1,310.87,244.32Z"></path>
    <path d="M304,258.71c.83-3.2,2.77-6.2,2.62-9.59-.11-3.09-.67-6.2-.87-9.31a.23.23,0,0,1,.45,0,50.94,50.94,0,0,1,1.59,10.27c0,3.14-1.72,6.27-3.38,8.87a.24.24,0,0,1-.32.09A.24.24,0,0,1,304,258.71Z"></path>
    <path d="M285.36,248.18a38.6,38.6,0,0,1,4.17,7.62c.12.3-.34.55-.55.32a22.38,22.38,0,0,1-4.31-7.65A.38.38,0,0,1,285.36,248.18Z"></path>
    <path d="M276.25,227.54c2.45,7.12,6.11,14.75,11.47,20.18-5.18-9.34-10.26-20.12-10.88-20.34a2,2,0,0,0-.6-.12A.67.67,0,0,0,276.25,227.54Z"></path>
    <path d="M296.44,216.15c1.08,3.76,2.57,8.9,4,14.12h0c.25.78.45,1.55.63,2.35h0c.49,1.87,1,3.72,1.39,5.55v-.08c1.15-3.63.39-7-.93-10.49a70.13,70.13,0,0,0-5.16-11.46Z"></path>
    <path d="M330.07,213.88a37.72,37.72,0,0,1,5.1-11c.08-.15.34,0,.29.11a66.63,66.63,0,0,1-4.9,11.11.27.27,0,0,1-.37.11A.27.27,0,0,1,330.07,213.88Z"></path>
  </g>
  <path d="M41.16,243.79c.09.81-.57,21.14-1.52,48.59h0c-.72,20.82-1.59,45.6-2.45,69.22-.2,5.68-.41,11.29-.6,16.76-.85,23.46-1.6,44.28-2.05,56.66h0c-.28,7.5-.43,11.88-.43,11.88H64.64s-.59-14.38-1.38-35.57h0c-.86-20.83-2-48.31-3-75.1-1.39-36.65-2.78-72.05-3.26-87.72-.13-4.33-.18-7.15-.15-8.08.11-3.73,5.24-14.94,11.21-27.14,8.86-18,19.55-38.46,18.34-40.06-2-2.66-2-2.16-2.92-1.26s-18,39.28-24.09,39.64S46.65,185.1,46,183.85s-3.31-.65-3.15.28c0,.22.72,2.51,1.7,5.91,1.1,3.78,2.58,8.91,4,14.13h0c.23.79.43,1.59.64,2.36h0c.5,1.86,1,3.72,1.39,5.56,1.63,6.46,2.78,11.95,2.4,13.56-1,4.59-3.62,9.71-7.13,9.6-2.08-.09-6.1-6.41-10.07-13.57h0c-5.16-9.33-10.26-20.1-10.87-20.33a2,2,0,0,0-.59-.12c-1.31-.13-3.39.36-2.61,1.32S40.87,241.19,41.16,243.79Z" fill="#ac7054"></path>
  <g opacity="0.1">
    <path d="M41,447h4c2.57-12,2.36-24.43,2-36.76-.49-14.44-1.73-28.83-2.59-43.25a.31.31,0,1,0-.61,0c.45,14.25.53,28.51-.09,42.76C43.1,422.2,41.59,434.55,41,447Z"></path>
    <path d="M49.08,351.62c.81-9.59,2.36-19.11,3.72-28.64.1-.66,1.23-.51,1.17.16-1.61,19.43-2.62,39-.58,58.45A280.81,280.81,0,0,1,55,410.44c0,4.82-.12,9.65-.34,14.46A104.46,104.46,0,0,1,53.55,439c-.15.85-1.38.6-1.38-.19-.27-4.94.19-10,.16-14.94,0-4.66-.18-9.31-.39-14-.46-9.82-1.5-19.56-2.4-29.33A164.16,164.16,0,0,1,49.08,351.62Z"></path>
    <path d="M37.19,361.67c5.26-13.35,4.94-27.76,4.29-42.16q-.63-13.54-1.84-27.06C38.92,313.2,38.05,338.05,37.19,361.67Z"></path>
    <path d="M44.7,320.28a222.44,222.44,0,0,1,2.11-27.89.41.41,0,0,1,.41-.42.42.42,0,0,1,.42.42,221.87,221.87,0,0,1-.38,27.89c-.91,9.27-1.38,18.61-2.29,27.89,0,.27-.45.29-.45,0C44.41,338.87,44.84,329.56,44.7,320.28Z"></path>
    <path d="M51.61,273.05c0-4.48-.68-9.15-.31-13.61.09-.91,1.53-1.27,1.73-.23a102.66,102.66,0,0,1,.84,13.34c.21,4.39.7,8.75.92,13.12s.28,8.76.18,13.13c-.11,4.79-1,9.4-1.53,14.13a.38.38,0,0,1-.45.31.38.38,0,0,1-.31-.31c-.39-4.38-1.11-8.7-1.26-13.11s-.18-9.11-.1-13.64S51.67,277.51,51.61,273.05Z"></path>
    <path d="M43.45,270.8c.32-5.55.16-10.93.23-16.42a.42.42,0,0,1,.45-.38.44.44,0,0,1,.36.27,83.37,83.37,0,0,1,1.6,16.53c0,5.35-.2,11.51-2.06,16.58a.75.75,0,0,1-1.46-.2C42.27,281.8,43.11,276.19,43.45,270.8Z"></path>
    <path d="M58,373.29c.67,7.59,1.82,15.1,3,22.66.8,5.13,1.5,10.31,2.28,15.46-.86-20.82-2-48.31-3-75.1C56.93,348.3,56.87,360.8,58,373.29Z"></path>
    <path d="M56.75,447H60.4a25.74,25.74,0,0,1,.65-3.6c.19-1.47.36-3,.44-4.44a107.26,107.26,0,0,0-.12-10.76c-.31-6.85-.35-13.88-1.81-20.65-.11-.52-.87-.38-.88.12-.25,7.86.29,15.62-.55,23.46-.41,3.92-.88,7.8-1.16,11.72A25,25,0,0,0,56.75,447Z"></path>
    <path d="M34.54,435.09c.54-2.94.94-5.93,1.38-8.85.74-5.07,1.39-10.15,1.74-15.27.42-5.43.5-10.87.42-16.32s-.93-10.53-1.2-15.83a.44.44,0,0,0-.28-.41C35.74,401.89,35,422.71,34.54,435.09Z"></path>
    <path d="M43.91,354.72a.19.19,0,0,1,.25-.11.2.2,0,0,1,.11.11,24.68,24.68,0,0,1,0,5.95.22.22,0,0,1-.26.15.21.21,0,0,1-.15-.15A24.17,24.17,0,0,1,43.91,354.72Z"></path>
    <path d="M51.37,243.65c.17-.43.93-.55,1,0a42.33,42.33,0,0,1-.18,10.55c0,.53-.88.74-1,.14A20.2,20.2,0,0,1,51.37,243.65Z"></path>
    <path d="M40.14,233.09a27.15,27.15,0,0,1,7.54,21c0,.45-.78.66-.87.12a99.55,99.55,0,0,0-2.47-10.37,44.56,44.56,0,0,0-4.92-10.19.46.46,0,0,1,.16-.63A.44.44,0,0,1,40.14,233.09Z"></path>
    <path d="M56.91,248.57c-.12-4.34-.18-7.15-.15-8.08.11-3.74,5.25-14.94,11.22-27.14-4.78,5.55-9.3,11.19-11.68,18.21C54.4,237.13,55.66,242.9,56.91,248.57Z"></path>
    <path d="M58.9,218.22c5.68-8.87,11.24-17.82,16.41-27a.29.29,0,0,1,.52.22A77.25,77.25,0,0,1,59.3,218.54C59.11,218.75,58.72,218.47,58.9,218.22Z"></path>
    <path d="M52,232.62c.83-3.21,2.78-6.21,2.62-9.6-.11-3.09-.66-6.2-.87-9.31a.23.23,0,0,1,.46,0A51.64,51.64,0,0,1,55.83,224c0,3.14-1.72,6.28-3.37,8.87a.24.24,0,0,1-.33.09A.24.24,0,0,1,52,232.62Z"></path>
    <path d="M33.38,222.08a38.88,38.88,0,0,1,4.17,7.62A.33.33,0,0,1,37,230a22.43,22.43,0,0,1-4.33-7.65C32.58,222,33.15,221.76,33.38,222.08Z"></path>
    <path d="M24.28,201.49c2.44,7.12,6.11,14.75,11.45,20.17-5.16-9.32-10.26-20.1-10.87-20.32a2,2,0,0,0-.6-.12A.62.62,0,0,0,24.28,201.49Z"></path>
    <path d="M44.45,190.06c1.09,3.77,2.58,8.91,4,14.13h0c.25.77.46,1.57.64,2.36h0c.5,1.86,1,3.72,1.39,5.55V212c1.13-3.63.38-6.94-1-10.5a68.56,68.56,0,0,0-5.08-11.46Z"></path>
    <path d="M78.15,187.78a37.14,37.14,0,0,1,5.1-11c.08-.14.34,0,.27.12A65,65,0,0,1,78.64,188a.28.28,0,1,1-.49-.25Z"></path>
  </g>
  <path d="M142,300.22c-5.67,4.25-10,10.94-7,18,3.49,8.33,13.88,11.48,22,12.5,8.81,1.14,20,.25,26.07-7.12,3.93-4.71,4.52-12.11.72-16.8,14.84,1.14,33.07.47,41-14.26a20.92,20.92,0,0,0,1.14-18.19c-2.66-6-8.47-9.72-14.32-12.12a99.63,99.63,0,0,0-45.95-7.14,87.08,87.08,0,0,0-22.49,4.37c-5.55,2-11.28,5.17-14.28,10.55-3.18,5.7-2.47,12.5.57,18.18C132.29,293.53,137,297.26,142,300.22Z" fill="#009444"></path>
  <path d="M.69,283.77c.09,1.82,2.68,3.4,4,1.67C18,268.32,32,250.94,50.33,239c33.64-21.94,76.09-20,114-13,21.49,4,42.67,9.44,64.2,13.14a270.29,270.29,0,0,0,31.83,3.73c10.07.52,21.1-.25,30.46,4a1.73,1.73,0,0,0,2.27-.89,1.76,1.76,0,0,0,.09-1.11,1,1,0,0,0,0-.68,55.7,55.7,0,0,0-11.26-21.54c-22.21-26.3-58.77-31-91.24-31-9.72-17.77-30.38-26.37-49.17-31.08-19.94-4.93-41.27-5.55-61.08.25A89,89,0,0,0,36.85,189,78.79,78.79,0,0,0,24,210.88a156.78,156.78,0,0,0-4.8,17.7c-.54,2.61-10.51,4.91-17.66,23.68C-2.19,262,.21,273.34.69,283.77Z" fill="#009444"></path>
  <path d="M6.47,300.12c9,13.3,27.16,20.69,45.2,20.23,5.55,9.85,17.81,15.13,29.91,18.14a119.59,119.59,0,0,0,42.73,2.57c11.71-1.39,25.94-4.5,31-14.51a12.33,12.33,0,0,0-.41-12.91c-3.22-4.54-9.44-6.94-15-9a138.66,138.66,0,0,0-14.74-4.56,61.46,61.46,0,0,0,27.91-12.43,192.63,192.63,0,0,0,68.56,1,194.28,194.28,0,0,0,29.78-7.29A113,113,0,0,0,276,270.53c6.53-4.08,12.29-9.21,15.19-15.66,3-6.72,2-14.08-1.86-20.41-9.16-14.93-30.54-20.49-49-23.05-21.17-2.93-42.63-1.78-63.59,1.7-4.86-13.46-22.93-20.9-37.48-25.79a159.63,159.63,0,0,0-50.32-8.11c-16.26,0-33.32,2.13-48.2,7.76-14.3,5.42-24.89,15.27-25.91,28.77C13.87,228,21,239.33,31.59,247.43a43.14,43.14,0,0,0-21,10.83C-1.49,269.93-2.53,286.82,6.47,300.12Z" fill="#39b54a"></path>
  <g opacity="0.5">
    <path d="M109.58,330.36h-.08a.28.28,0,0,1-.18,0c-6.46-3.46-3.63-13.14-1.25-18.37.19-.43,5,6.66,5.22,10.44A10.41,10.41,0,0,1,109.58,330.36Z" fill="#fff"></path>
    <path d="M128.32,326.87s-9.48-4-13.69,1.47a6.69,6.69,0,0,0,5.93,2.78C124.79,331.12,128.32,326.87,128.32,326.87Z" fill="#fff"></path>
    <path d="M45.93,300.51s10.09-2.05,13.13,4.16a6.74,6.74,0,0,1-6.37,1.62C48.54,305.36,45.93,300.51,45.93,300.51Z" fill="#fff"></path>
    <path d="M281.56,236.75s-.67,10.28-7.44,11.59a6.67,6.67,0,0,1,.12-6.56C276.19,238,281.56,236.75,281.56,236.75Z" fill="#fff"></path>
    <path d="M267.27,260.17a11.66,11.66,0,0,1,6-7.54A29.65,29.65,0,0,1,283.58,250S278.53,263.38,267.27,260.17Z" fill="#fff"></path>
    <path d="M118.62,322.4s-2.89-3.93,5.48-9.34C124.1,313.06,124.2,320.4,118.62,322.4Z" fill="#fff"></path>
    <path d="M59.11,300.57s2.62-4.17-6.08-9C53,291.61,53.4,298.94,59.11,300.57Z" fill="#fff"></path>
    <path d="M195.73,252.52s-10.08-2.05-13.12,4.17A6.69,6.69,0,0,0,189,258.3C193.12,257.39,195.73,252.52,195.73,252.52Z" fill="#fff"></path>
    <path d="M182.57,252.61s-2.64-4.1,6.06-9C188.63,243.65,188.26,251,182.57,252.61Z" fill="#fff"></path>
    <path d="M265.39,255.37s-4.41-2.08.41-10.82C265.8,244.55,269.36,251,265.39,255.37Z" fill="#fff"></path>
  </g>
  <path d="M220.89,255.92a21.3,21.3,0,0,1-4.16,1.64h0C208,260.6,187.4,267,176.07,271h0a47.73,47.73,0,0,0-7.72,3.11c-3,2.37-16.21,20.1-18.15,27.24a45.42,45.42,0,0,0-.32,6.8h0c-.13,11.76.41,37,1.18,65.62h0c.19,7.31.41,14.86.64,22.44h0c.33,11.52.69,23.17,1,34.34v.09l.08,2.77v.09c.36,11.26.71,22,1,31.52h0c.77,23.6,1.39,40.08,1.39,40.08H82s1.68-13.4,4.16-33.32h0c1-7.66,2-16.27,3.18-25.47h0c1.2-9.51,2.45-19.63,3.74-30h0q.87-7,1.75-14.14c.8-6.54,1.62-13.08,2.41-19.52.42-3.34.82-6.68,1.24-10h0c.32-2.68.65-5.35,1-8,.52-4.24,1-8.39,1.51-12.42l.09-.65c.23-1.88.46-3.72.68-5.55V346h0c3.3-26.84,5.66-46.54,5.66-47.62,0-3.54-15.56-44.08-15.56-44.08l3.61-2.16s16,33.31,23.18,36.49a10.93,10.93,0,0,0,2.78.86h0c6.27,1.13,12.42-3.16,15.57-8.83,2.5-4.51,6.44-14.9,9.21-21.46a27.4,27.4,0,0,1,2.77-5.55c.61-.62,3.36-.43,3.46.43.55,5.07-9.29,26.15-6.71,28.75.78.78,4.42-2.26,9.19-6.94h0C162,269,171.64,258.27,178,251.24h0c3.54-3.88,6.05-6.66,6.54-7,1.94-1.52,3.57,1.82,2.78,2.59s-17.29,18.59-16.66,21,47.56-15.34,48.58-14.47S221.55,254.84,220.89,255.92Z" fill="#ac7054"></path>
  <path d="M101.75,345.93h0c0,.83-1,12.24-1.87,20.45-.7,6.65-1.39,11.1-1.39,6.24h0c0-4.16-3.75-13.53-8.33-23.91-8-17.79-18.67-38.51-18.53-40.66.23-3.44,2.77-2.71,2.77-2.71,1.16,0,4.6,7.58,11,20.43S99.89,351.23,101.75,345.93Z" fill="#ac7054"></path>
  <g opacity="0.1">
    <path d="M118.21,384.69A150,150,0,0,1,114.55,412c-3.5,16.3-8.33,32.28-11.51,48.59a249.76,249.76,0,0,0-3.65,26c-.37,4.43-.65,8.86-.85,13.32-.08,1.72-.11,3.47-.18,5.2H93.24c0-2.78.28-5.48.43-8.18.25-4.92.61-9.85,1.11-14.77,1.69-16.75,5.78-32.7,10.59-48.79s9.19-32.05,11-48.68C116.52,383.55,118.26,383.49,118.21,384.69Z"></path>
    <path d="M115.48,318.61c-2,7.79-3.75,15.66-5.55,23.49s-3.89,15.66-5.1,23.6c-2.34,15.6-1.55,31.23-.36,46.89a.65.65,0,0,0,.65.65.66.66,0,0,0,.66-.65c.22-15.58.06-31.3,2.09-46.77,2.06-15.79,6-31.27,8.73-46.94C116.64,318.22,115.63,317.92,115.48,318.61Z"></path>
    <path d="M118.52,360.59a134.8,134.8,0,0,1-.57-18.85.42.42,0,0,0-.82-.11c-1.51,5.76-.76,12.16-.44,18,.34,6.29,0,12.5.16,18.83a.6.6,0,0,0,1.17.15C120.17,373,119.13,366.45,118.52,360.59Z"></path>
    <path d="M112.26,366.75a48.56,48.56,0,0,0-1.65,11.18,77,77,0,0,0,.08,12.05.35.35,0,0,0,.69,0c.38-3.85.71-7.71,1.07-11.57q.78-5.71,1-11.5a.6.6,0,0,0-1.18-.16Z"></path>
    <path d="M147.34,494.35c-1.11-9-1.71-18.14-2.53-27.21s-1.46-17.93-1.75-26.93-.44-18-.23-27,1.2-18.29,1.12-27.4a.92.92,0,0,0-1.79-.25c-2.17,8.58-2.78,17.87-3.36,26.67-.65,9.3-.94,18.66-.67,28s.88,18.33,2,27.42a238.15,238.15,0,0,0,5.4,27C145.8,495.56,147.46,495.45,147.34,494.35Z"></path>
    <path d="M135.41,505.17H130.9c-.44-2.41-.72-4.84-1-7.17a160.2,160.2,0,0,1-.54-18.33c.11-13.22,1.29-26.31,1.9-39.5a.76.76,0,0,1,.86-.65.74.74,0,0,1,.65.65c.32,12.87,1.17,25.66,1.07,38.55,0,6.12,0,12.23.49,18.34C134.57,499.74,135,502.39,135.41,505.17Z"></path>
    <path d="M133.8,412.69a.82.82,0,0,0-1.64,0,92.11,92.11,0,0,0,.13,19.43.47.47,0,0,0,.46.46.47.47,0,0,0,.46-.46C133.68,425.65,133.82,419.1,133.8,412.69Z"></path>
    <path d="M122.68,408.26a1,1,0,0,0-2,0c-1.22,7.29-1.39,14.81-2.22,22.21s-1.9,15-3.25,22.46c-2.66,14.85-6.15,29.57-10.19,44.09-.14.52.64.89.89.37a168.91,168.91,0,0,0,14.22-43.59,186.71,186.71,0,0,0,2.77-22.37C123.45,423.79,124,415.78,122.68,408.26Z"></path>
    <path d="M124,480.18c0,3.66,0,7.34-.11,11s-.44,7.66-.72,11.5c0,.77-.09,1.59-.11,2.42h-4.4V502.2a103.72,103.72,0,0,1,.45-11c.38-3.67,1-7.32,1.52-11a70.78,70.78,0,0,1,2.13-11.17c.16-.43.92-.54,1,0A73.73,73.73,0,0,1,124,480.18Z"></path>
    <path d="M95.11,444.64c-2.88,9-6.14,17.85-8.92,26.89l-.07.2c1-7.67,2-16.27,3.18-25.48h0l.25-.75a74.78,74.78,0,0,0,3.65-14.18,63,63,0,0,0-.11-14.52v-.5h0q.87-7.05,1.75-14.15A106.59,106.59,0,0,1,98,416.81,62.58,62.58,0,0,1,95.11,444.64Z"></path>
    <path d="M151.08,373.74c-.3-1-.56-2.05-.83-3A97.38,97.38,0,0,1,148,360.56a126.27,126.27,0,0,1-1.66-20,139.73,139.73,0,0,1,1.22-20c.46-3.44,1.1-6.86,1.86-10.26.15-.69.29-1.39.44-2.16C149.78,319.88,150.34,345.11,151.08,373.74Z"></path>
    <path d="M129,326.62c-.09-.61-1-.4-1,.14-.47,6.94-.61,14-1,21s-.86,13.69-1.13,20.53-.34,13.69,0,20.52a137.51,137.51,0,0,0,2.78,20.09c.1.54,1,.41,1-.13-.2-13.81.69-27.67.79-41.48C130.48,353.86,131,340,129,326.62Z"></path>
    <path d="M138.42,313.48c0-.45-.73-.48-.7,0a364.5,364.5,0,0,1-.49,39.11c-.86,13-2.78,25.74-1.14,38.76.09.58,1,.63,1,0-.15-6.69,1-13.27,1.9-19.88.82-6.27,1.39-12.56,1.64-18.88A279.4,279.4,0,0,0,138.42,313.48Z"></path>
    <path d="M153.87,465c-.62-3-1.22-6-1.81-9.08a183.32,183.32,0,0,1-3.45-20.82,113.23,113.23,0,0,1,1-20.82c.65-6.06,1.39-12.08,2.08-18.12.34,11.52.7,23.17,1,34.34v.09c0,.93,0,1.87.09,2.77v.09C153.21,444.75,153.56,455.47,153.87,465Z"></path>
    <path d="M100.9,351.53c-3.13-1.67-5.24-5.45-7.27-8.25s-4-5.79-6-8.66c-.13-.21-.54-.1-.43.18a60.44,60.44,0,0,0,5.75,11.52c1.78,2.6,4.17,6.22,7.75,6.05a.46.46,0,0,0,.45-.46A.43.43,0,0,0,100.9,351.53Z"></path>
    <path d="M84.27,326.18c-.87-1.5-1.75-3-2.58-4.51a.44.44,0,0,0-.82.33,37.06,37.06,0,0,0,1.72,4.8c.6,1.31,1.22,3.15,2.6,3.81a.59.59,0,0,0,.86-.5C86.11,328.66,85,327.37,84.27,326.18Z"></path>
    <path d="M99.53,374.19a79.06,79.06,0,0,1-2.33,8.43c.41-3.35.82-6.68,1.23-9.95h0c0-4.17-3.75-13.54-8.33-23.92A60.06,60.06,0,0,1,99.18,364l.27.76a14.81,14.81,0,0,1,.41,1.72A18.63,18.63,0,0,1,99.53,374.19Z"></path>
    <path d="M110.66,309.44a77.81,77.81,0,0,0-4.29,33.31c0,.56,1,.79,1.07.14,1.5-11.1,1.22-22.29,4.17-33.18a.49.49,0,1,0-1-.27Z"></path>
    <path d="M122.79,305.27a.44.44,0,0,0-.51-.36.46.46,0,0,0-.36.36,223.37,223.37,0,0,0,.35,41.13.35.35,0,1,0,.69,0A406,406,0,0,0,122.79,305.27Z"></path>
    <path d="M108.43,282.06a.62.62,0,0,0-.86-.22.64.64,0,0,0-.23.86h0c5.17,9.44,7.11,20,9.89,30.28a.66.66,0,0,0,.83.44.64.64,0,0,0,.47-.62C119.17,301.66,114.24,291.22,108.43,282.06Z"></path>
    <path d="M146.17,259.14c0,4.17-1.85,8.68-3.08,12.43a73.92,73.92,0,0,1-4.82,11.95c-1.71,3.15-4.16,6.43-7.59,7.84s-6.46,0-9.29-1.93c6.28,1.13,12.43-3.16,15.58-8.83C139.47,276.12,143.39,265.7,146.17,259.14Z"></path>
    <path d="M141.91,287.5a82.57,82.57,0,0,0-5.78,8.78,41.11,41.11,0,0,0-4.38,9.08,31.06,31.06,0,0,0-1,10.07c.14,3.78,1.22,7.08,1.93,10.73.07.36.68.28.64-.08a90.66,90.66,0,0,1,.28-10.16,42.45,42.45,0,0,1,1.12-9.72c1.68-6.4,5.21-12.1,8-18C143,287.64,142.33,287,141.91,287.5Z"></path>
    <path d="M128.36,306.29a28.73,28.73,0,0,0-1.39-9.44c-.15-.34-.75-.46-.83,0a39.77,39.77,0,0,0,.22,9.44c.25,3.44.63,6.94.92,10.32a.38.38,0,0,0,.39.39.4.4,0,0,0,.39-.39A77.31,77.31,0,0,0,128.36,306.29Z"></path>
    <path d="M119.46,291.72a.41.41,0,0,0-.58-.05.42.42,0,0,0-.13.47c1.1,2.15,1.57,4.53,2.6,6.69a.55.55,0,0,0,.74.21.55.55,0,0,0,.27-.47A14.63,14.63,0,0,0,119.46,291.72Z"></path>
    <path d="M156.54,280.4a58.17,58.17,0,0,0-11.63,16.74c-3.07,7.23-2.6,14.42-1.81,22.06a.54.54,0,0,0,.62.44.53.53,0,0,0,.45-.44c.54-6.95,1.24-14.25,3.5-20.83,2.19-6.37,6.05-11.69,10-17.07C158.12,280.6,157.08,279.83,156.54,280.4Z"></path>
    <path d="M178,251.13c-.76,1.1-1.52,2.17-2.17,3.2-2.1,3.26-4.17,6.52-6.47,9.64a36.85,36.85,0,0,1-14.48,11.82C162,268.79,171.66,258.16,178,251.13Z"></path>
    <path d="M171,269.93a27,27,0,0,0-6.44,3.54c-1.51,1.11-3.69,2.44-4.17,4.34a.21.21,0,0,0,.16.25h.09c1.92-.26,3.78-2.22,5.25-3.36,1.82-1.38,3.72-2.77,5.46-4.26a.31.31,0,1,0-.35-.51Z"></path>
    <path d="M216.76,257.56C208,260.6,187.43,267,176.1,271a123.43,123.43,0,0,1,21-8.33A142.26,142.26,0,0,1,216.76,257.56Z"></path>
  </g>
  <path d="M285.26,255.73c-7.3-.28-14.32-2.46-21.32-4.35a94.32,94.32,0,0,0-9.24-2.12c-2.25.6-4.49,1.15-6.76,1.64-3.18.71-6.64,1.47-9.4-.75-5.1-4.17-3.22-12.73-.21-17.46,7.19-11.4,24.4-14.36,36.76-14.3,12.13.07,28.61,3,32.84,16.34C312.47,249,297.12,256.16,285.26,255.73Z" fill="#009444"></path>
  <path d="M363.4,144.88c-.15,1.68-1.18.53-2.25-.8-12.66-15.53-34-18.3-52.75-20.14-42.24-4.17-87.8-9.3-127.5,9.49-9.58,4.53-17.71,10.79-26.37,16.83a111.65,111.65,0,0,1-25.77,13c-18.33,6.72-37.67,10.41-55.7,18.05-1.92.82-6.53-11.86,6.37-22.87,3.61-3.08,8.24-4.67,12.74-6.14a65.34,65.34,0,0,0,7.73-2.55,12.45,12.45,0,0,0,5.43-5.41A46.11,46.11,0,0,1,147.38,122,73.06,73.06,0,0,1,258.51,79.88,11.39,11.39,0,0,0,262,81.77a7.92,7.92,0,0,0,4.17-.82c2.21-.77,4.43-1.47,6.7-2a70.15,70.15,0,0,1,14.91-2c19-.51,38.29,5.67,51.84,19C354.16,110.14,363.92,139.61,363.4,144.88Z" fill="#39b54a"></path>
  <path d="M352.69,177.21c-21.71,16-55,20.06-80.52,10.28a25.73,25.73,0,0,1-14.95,26c-12.7,5.71-28.58,4.71-42.09-.34a11.22,11.22,0,0,1-1.5,6.55,14.39,14.39,0,0,1-3.26,3.94c17.35,2.17,36.86,8.09,41.74,22.57,6.95,20.73-28.62,24.77-41.29,26a227.71,227.71,0,0,1-42.26,0c-11.21-1-24.87-2.27-34.47-8.74-6.76-4.56-11.43-12.9-8-20.94,2.11-4.95,6.3-8.06,11-10.25-4.16-.21-8.33-.6-12.37-1.13-9.14-1.17-21.23-2.16-28.27-8.8-12.37-11.63.29-23.07,13-30.19a157.78,157.78,0,0,1-17.18-2.42c-6-1.08-17.11-2-20.28-8.69-5.58-11.88,17-18.74,30.2-22-1-12,10-19.88,21.3-21.86,9.08-1.59,18.62-1.39,27.77-1a3.17,3.17,0,0,1,.34-.66c17.29-27,49.28-38.16,79.93-40.77,33.89-2.88,74.12-1.92,103.81,16.65C356.36,124.41,379.48,157.46,352.69,177.21Z" fill="#009444"></path>
  <g opacity="0.2">
    <path d="M165.41,242.42h.19a.35.35,0,0,1,.19.12c5,6.68-2.66,15.27-7.63,19.55-.41.36-1.93-9.3-.31-13.3A11.66,11.66,0,0,1,165.41,242.42Z" fill="#fff"></path>
  </g>
  <g opacity="0.2">
    <path d="M142,237.16s9.09,10.11,17.18,5.91a8.88,8.88,0,0,0-5.49-6.7C148.61,234.05,142,237.16,142,237.16Z" fill="#fff"></path>
  </g>
  <g opacity="0.2">
    <path d="M107.41,213s11.51-2.33,15,4.74a7.65,7.65,0,0,1-7.26,1.82C110.4,218.51,107.41,213,107.41,213Z" fill="#fff"></path>
  </g>
  <g opacity="0.2">
    <path d="M333.57,150.37s-.75,11.7-8.48,13.2a7.64,7.64,0,0,1,.14-7.48C327.45,151.78,333.57,150.37,333.57,150.37Z" fill="#fff"></path>
  </g>
  <g opacity="0.2">
    <path d="M315,181.28a13.34,13.34,0,0,1,6.79-8.59,33.79,33.79,0,0,1,11.81-3S327.81,184.93,315,181.28Z" fill="#fff"></path>
  </g>
  <g opacity="0.2">
    <path d="M152.21,246.25s1.08,5.45-10.18,6.94C142,253.23,145.48,245.58,152.21,246.25Z" fill="#fff"></path>
  </g>
  <g opacity="0.2">
    <path d="M122.43,213.06s3-4.68-6.94-10.22C115.51,202.84,115.94,211.18,122.43,213.06Z" fill="#fff"></path>
  </g>
  <g opacity="0.2">
    <path d="M315.15,171.59s-5-2.38.46-12.34C315.61,159.25,319.69,166.57,315.15,171.59Z" fill="#fff"></path>
  </g>
  <g opacity="0.2">
    <path d="M196.57,111s4.32,10.91-2,15.56a7.59,7.59,0,0,1-3.07-6.81C191.65,114.9,196.57,111,196.57,111Z" fill="#fff"></path>
  </g>
  <g opacity="0.2">
    <path d="M200.48,126.56s-2.34-5,8.25-9.16C208.73,117.4,207.17,125.62,200.48,126.56Z" fill="#fff"></path>
  </g>
  <g opacity="0.2">
    <path d="M288.21,235.48s-6.63,9.71-14,7a7.68,7.68,0,0,1,3.94-6.37C282.21,233.59,288.21,235.48,288.21,235.48Z" fill="#fff"></path>
  </g>
  <g opacity="0.2">
    <path d="M277.49,247.41s2.87-4.74,12.22,1.73C289.71,249.13,282,252.44,277.49,247.41Z" fill="#fff"></path>
  </g>
  <path d="M275.74,181.17c-.12.61-2.16,2.89-5.29,6.14-6.26,6.55-16.82,17.08-24.68,26-5.79,6.56-10.11,12.24-10.11,14.78,0,1.82.62,15.15,1.53,34.37h0c.31,6.4.65,13.45,1,20.95.07,1.39.12,2.78.19,4.17h0c.71,14.25,1.49,29.94,2.27,45.72,2.77,55.4,5.65,112,5.65,112H186S202.36,229.94,202.36,227s-5.06-8.17-7.59-10.14-20.56,1-23.18,1.32-2.24-3.21-1.39-3.86,17.1-1.1,17.41-3.07-12.91-11.2-14.5-12.49.77-4.17,2.67-3.79c.67.11,4.76,3.55,9.83,7.74h0C192,208,200,214.49,204.49,216.85c2,1.05,3.3,1.32,3.55.34a12.69,12.69,0,0,0-.43-4.16h0c-.94-4.69-3.15-12.59-5.73-21.24-5.56-18.63-12.82-40.73-12.82-41.64,0-1.63,3.35-2.28,4.43-.66,1.64,2.49,15.18,47.42,19.92,54.29s12.34,11.65,17.7,7.24c7.87-6.49,19.94-61.19,20.89-63.15s4.17-.65,4.43,2.28c.08.81-1,4.8-2.61,10.18h0c-3.39,11.61-8.83,29.73-8.65,36.61,0,1.51.35,2.47,1,2.78,5.07,1.95,24.17-20.51,26.38-21.49S276,179.94,275.74,181.17Z" fill="#ac7054"></path>
  <path d="M264.43,229.8c0,2.16-12.5,24.07-20.08,40.32-3.2,6.83-5.55,12.66-5.73,15.61a7.58,7.58,0,0,1-.21,1.77h0c-.16.35-.32-1-.48-3.24-.49-6.95-.92-22.34-.92-22.34a2.3,2.3,0,0,0,.18.5h0c1.72,3.44,8.82-6.94,14.65-17.59,6.06-11.1,9.35-17.61,10.34-17.56C262.18,227.29,264.39,226.74,264.43,229.8Z" fill="#ac7054"></path>
  <g opacity="0.1">
    <path d="M235.73,371.35q0-7.08-.19-14.15c-.26-10.06-.35-20.65-2.37-30.54a.79.79,0,0,0-1-.55.78.78,0,0,0-.58.76c0,10.52.9,21,.67,31.5s-1,20.67-1.68,31c-1.15,18.49-2.78,37.27-1.81,55.84h8C237,420.56,237,396,235.73,371.35Zm-3.49,72.39c0-.75.11-1.5.18-2.25v1.92A1.06,1.06,0,0,0,232.24,443.74Z"></path>
    <path d="M224.28,316.92a169.88,169.88,0,0,0-4,30.54c-.19,10.09-.26,20.82,1.25,30.75.14.88,1.39.59,1.39-.21.28-5.08.08-10.18.19-15.27s.46-10.18.77-15.27c.62-10.14.65-20.28,1.24-30.42a.46.46,0,0,0-.83-.12Z"></path>
    <path d="M220.2,438.38a41.15,41.15,0,0,1-.57,6.83H214.7a39.29,39.29,0,0,1-.12-5.09c0-5.43.22-10.84.14-16.27a280.82,280.82,0,0,0-2.78-32.51c-2.65-19.89-10.2-40-6.08-60.29a.53.53,0,0,1,1,.14c-1,20.93,5,40.49,10.07,60.45a137.58,137.58,0,0,1,3.51,30.46C220.56,427.53,220.55,433,220.2,438.38Z"></path>
    <path d="M212.65,319.9c-.13-.36-.76-.34-.71.1a107.54,107.54,0,0,1,.81,13.42,97.84,97.84,0,0,0,.43,13.59c.08.66,1.14,1,1.23.18C215.58,338.59,215.68,328.13,212.65,319.9Z"></path>
    <path d="M198.92,404.23c1.06-10.26,3.33-20.71,3.3-31.05a.19.19,0,0,0-.38,0,326.79,326.79,0,0,0-7.26,32.18c-1.59,9.6-2.57,21.22,1.23,30.43.54,1.31,2.53.59,2.51-.71-.09-5.12-.75-10.18-.59-15.27S198.43,409.38,198.92,404.23Z"></path>
    <path d="M208.53,442.45v2.78h-3.78a23.23,23.23,0,0,0-.22-2.78,93.12,93.12,0,0,1-.38-13.15c.28-8.83.21-17.64,1.39-26.37.1-.67,1-.43,1.07.15.68,8.75.68,17.55,1.39,26.28A112.19,112.19,0,0,1,208.53,442.45Z"></path>
    <path d="M206.28,252.94a.54.54,0,0,0-.62-.45.55.55,0,0,0-.45.45c-.32,9.33-.1,18.68-.4,28A249.34,249.34,0,0,1,202,310.19c-2.65,17.4-7.16,34.62-2.19,52.08a.24.24,0,0,0,.3.16.24.24,0,0,0,.15-.3c-3.58-17.91,2.6-36.16,4.67-53.87A319.49,319.49,0,0,0,206.28,252.94Z"></path>
    <path d="M221.13,233.6c.11-.79-.94-1.14-1.18-.33-3.84,13-5.22,26.83-5.83,40.38a150.22,150.22,0,0,0,.29,20.57c.64,7.11,2.78,13.95,3,21.1a.33.33,0,0,0,.34.33.33.33,0,0,0,.33-.33c1-13.45-.91-27.05-.89-40.52C217.22,260.85,219.19,247.3,221.13,233.6Z"></path>
    <path d="M231.88,282.08c-.7-5.56-1.93-11-3-16.47-1.13-5.73-1.59-11.73-3.15-17.35a.72.72,0,0,0-.8-.6.7.7,0,0,0-.59.79c.29,5.82,1.75,11.67,2.47,17.44.66,5.16,1.39,10.34,1.69,15.53a181.24,181.24,0,0,1-.83,33.67c-.08.65,1,.77,1.11.15C231.36,304.23,233.29,293.43,231.88,282.08Z"></path>
    <path d="M210.48,230.06a.46.46,0,0,0-.46-.48.47.47,0,0,0-.47.36c-1.94,7.42.55,15.7,1.56,23.1a.4.4,0,0,0,.49.28.43.43,0,0,0,.29-.28C212.89,245.46,210.75,237.67,210.48,230.06Z"></path>
    <path d="M233.25,249.45c-.58-3-1.26-6-1.72-9a103.59,103.59,0,0,1-.71-10.41.55.55,0,0,0-1.08-.15c-1.22,5.62-.25,12,.5,17.61.87,6.65,2.77,13.29,3.07,20a.45.45,0,0,0,.37.53.45.45,0,0,0,.53-.37.43.43,0,0,0,0-.16A62.92,62.92,0,0,0,233.25,249.45Z"></path>
    <path d="M232.24,214.32c-2.16,1.12-3.84,2.78-6.4,2.87s-5-1.38-7.17-2.77a.37.37,0,1,0-.45.59c2.29,2.14,4.78,4.61,8.1,4.53a8.33,8.33,0,0,0,6.64-4.48.55.55,0,0,0-.23-.74A.53.53,0,0,0,232.24,214.32Z"></path>
    <path d="M241,197.23c-2.09,4.6-3.83,9.44-5.62,14.16a.19.19,0,0,0,.14.24.2.2,0,0,0,.18,0c3.46-3.72,5-9.17,5.72-14.18C241.48,197.18,241.15,197,241,197.23Z"></path>
    <path d="M242.2,194.08c-.15,0-.15.26,0,.26a.12.12,0,0,0,.09-.17A.14.14,0,0,0,242.2,194.08Z"></path>
    <path d="M247.26,203.42a31,31,0,0,0-6.88,7.08c-2.22,2.78-4.67,5.21-7,7.85-.16.18,0,.54.27.44,3-1.11,5.05-3.8,6.94-6.26a69.47,69.47,0,0,1,7.29-8.33C248.3,203.84,247.74,203.1,247.26,203.42Z"></path>
    <path d="M270.45,187.28c-6.26,6.55-16.82,17.09-24.68,26,.92-1.94,1.89-3.84,3-5.66a12.56,12.56,0,0,1,1.39-2.2,36.06,36.06,0,0,1,6.4-7.38A153.79,153.79,0,0,1,270.45,187.28Z"></path>
    <path d="M216.12,220.15c-1-5.29-3.3-9.87-5.39-14.76-.3-.69-1.38-.19-1.18.52,1.25,4.63,2.17,9.35,3.36,14a61,61,0,0,1,2.49,14.8c0,.35.54.45.59.09A39.44,39.44,0,0,0,216.12,220.15Z"></path>
    <path d="M226.18,223.83c-2.86,5.83-2.62,12.49-1.77,18.74,0,.4.64.28.66-.1.38-6.15,1.85-12.24,2-18.41a.46.46,0,0,0-.46-.45A.51.51,0,0,0,226.18,223.83Z"></path>
    <path d="M200.17,218.22c-.32-.19-.57.22-.36.49a21.17,21.17,0,0,1,4.58,10.91c.44,3.95.29,7.95.79,11.92a.25.25,0,1,0,.49,0C206.79,233.62,208.1,223,200.17,218.22Z"></path>
    <path d="M204.47,216.8a.53.53,0,0,1-.45.25c-7.92-.19-13.55-8.85-18.34-14.28l-.09-.11C192,208,200,214.45,204.47,216.8Z"></path>
    <path d="M207.62,213.06c-.94-4.7-3.15-12.59-5.73-21.24a.7.7,0,0,1,1,.12.87.87,0,0,1,.11.18C203.22,192.69,210,205.32,207.62,213.06Z"></path>
    <path d="M245.19,196.91a15.69,15.69,0,0,1-1.39-7.49,39.13,39.13,0,0,1,1.72-9.35c1.94-6.46,4.17-14.15,8.18-19.6a.69.69,0,0,1,.18-.16C250.45,171.91,245,190.06,245.19,196.91Z"></path>
    <path d="M238.41,287.52c.71,14.25,1.49,29.94,2.27,45.72-1.52-2.56-2-6.06-2.64-8.94a81.6,81.6,0,0,1-1.31-8.92,148.88,148.88,0,0,1-.59-19.92,44.69,44.69,0,0,1,1.79-11.19c.09-.29.18-.6.29-.89a43.8,43.8,0,0,1,2.08-5.3,87.48,87.48,0,0,1,4-8c-3.2,6.83-5.55,12.66-5.73,15.61a7.58,7.58,0,0,1-.21,1.77Z"></path>
    <path d="M251.23,249.75a113,113,0,0,1-12.9,19.62c-.29.37.08,1,.51.7A35.77,35.77,0,0,0,251.78,250a.31.31,0,0,0-.22-.37A.3.3,0,0,0,251.23,249.75Z"></path>
    <path d="M255.33,241.56a25.71,25.71,0,0,0-2.15,4.49.5.5,0,0,0,.86.52,25.55,25.55,0,0,0,2.49-4.49C256.81,241.31,255.74,241,255.33,241.56Z"></path>
    <path d="M210.53,302.65c-.07-.4-.6-.25-.64.1A32.4,32.4,0,0,0,211,315.88c.17.61,1.17.52,1.11-.16A122.36,122.36,0,0,0,210.53,302.65Z"></path>
    <path d="M224,395a53.78,53.78,0,0,0-1.11-10.12.42.42,0,0,0-.51-.3.43.43,0,0,0-.31.41,67.48,67.48,0,0,0,.29,11.19c.27,3.37.31,6.81.85,10.15.1.63,1,.43,1-.14A99.47,99.47,0,0,0,224,395Z"></path>
  </g>
  <path d="M-.52,399.82s136.45,4.59,224,29.36,127.46,54.14,127.46,69.68S-.52,514.33-.52,514.33Z" fill="#5a3126"></path>
  <g opacity="0.1" style="isolation:isolate">
    <path d="M-.52,399.82s136.45,4.59,224,29.36,127.46,54.14,127.46,69.68S-.52,514.33-.52,514.33Z"></path>
  </g>
  <path d="M846.84,683.07H-.52V437.65S168.08,452.44,179.94,456s75.13,35.73,79.66,38.87c3.36,2.3,45.15,65,49.11,66.78,8.8,4.1,95.23,25.92,100.49,29.15,1.82,1.16,8.8,7.36,18.34,15.45,2.77,2.35,11.59,4.06,14.67,5.78,8,4.43,52.75,40.48,55.7,41.3C525,660.74,766.79,681.35,846.84,683.07Z" fill="#ac7054"></path>
  <g opacity="0.2">
    <path d="M846.84,683.07H-.52V437.65S168.08,452.44,179.94,456s75.13,35.73,79.66,38.87c3.36,2.3,45.15,65,49.11,66.78,8.8,4.1,95.23,25.92,100.49,29.15,1.82,1.16,8.8,7.36,18.34,15.45,2.77,2.35,11.59,4.06,14.67,5.78,8,4.43,52.75,40.48,55.7,41.3C525,660.74,766.79,681.35,846.84,683.07Z"></path>
  </g>
  <g opacity="0.1" style="isolation:isolate">
    <path d="M-.52,596.09s113.06,13.38,122.29,14.27,65.71,32.87,73.94,34.88,75.63,11,81.17,10.22,111.05,2.61,116.91,2.78S478.72,673,484.89,674s362,9.14,362,9.14H-.52Z"></path>
  </g>
  <g opacity="0.1" style="isolation:isolate">
    <path d="M464.35,628.18c-17.1,1.48-63.25,5.43-69,6.06-7.08.76-58.45-18.69-64.16-17.9s-100.47-7.62-113.39-9.59S141.16,559.21,129,557.1c-10.66-1.85-106.22,2-129.53,3V536.43c32.5-1.81,125.66-6.51,135-1.81,11.29,5.71,84.68,66.84,86.58,67.13s103.86-.72,110.16,0,61,22.21,64.16,24.42c2.6,1.78,46.55-1.73,62.37-3Z"></path>
  </g>
  <g opacity="0.1">
    <path d="M54.11,574.46c.21-6.44,13.51-8.33,16-7.66s.73,9.59-4.75,11.1S54,577.27,54.11,574.46Z"></path>
    <path d="M157.9,526.89c-5.65-2.39-3.18-7.3-1.76-7.86s8.72,3.22,8.33,5.56S160.36,527.93,157.9,526.89Z"></path>
    <path d="M414.31,647.23c1.84-3.65,10-1.17,11.24-.08s-2.17,5.69-5.69,5.05S413.5,648.81,414.31,647.23Z"></path>
    <path d="M78.25,574.49c2,.17,5.27,2.58,5.68,4.79s-3.65,3.75-6.36,2.21S72.81,574.06,78.25,574.49Z"></path>
    <path d="M166.55,592.3c2,.15,5.29,2.57,5.68,4.78s-3.65,3.74-6.36,2.22S161.11,591.87,166.55,592.3Z"></path>
    <path d="M224.39,492.81c2,.15,5.29,2.57,5.68,4.78s-3.65,3.74-6.36,2.22S219,492.38,224.39,492.81Z"></path>
    <path d="M604.94,674.73c-1.76.94-5.84.71-7.37-.93s1-5.12,4.16-5.32S609.73,672.13,604.94,674.73Z"></path>
    <path d="M431.41,652.75c2,.16,5.27,2.59,5.68,4.78s-3.66,3.75-6.36,2.22S426,652.31,431.41,652.75Z"></path>
    <path d="M222.41,505.17c-1.82.81-1.18,4.38,1.87,3.48S224.78,504,222.41,505.17Z"></path>
    <path d="M242.73,630.7c-1.8.82-1.18,4.38,1.87,3.49S245.1,629.63,242.73,630.7Z"></path>
    <path d="M38.21,493.19c-1.8.81-1.18,4.38,1.88,3.48S40.59,492.1,38.21,493.19Z"></path>
    <path d="M222.66,575c-.7-1.14-3-.41-2.17,1.54S223.57,576.45,222.66,575Z"></path>
    <path d="M162.27,516.63c-.69-1.14-3-.43-2.16,1.54S163.19,518.12,162.27,516.63Z"></path>
    <path d="M156.72,595.19c-.69-1.14-3-.42-2.18,1.54S157.62,596.69,156.72,595.19Z"></path>
    <path d="M252.84,629.6c-.7-1.14-3-.43-2.17,1.54S253.74,631.08,252.84,629.6Z"></path>
    <path d="M484.69,654.7c-.7-1.15-3-.43-2.17,1.52S485.59,656.18,484.69,654.7Z"></path>
    <path d="M27.61,500.24c-.71-1.15-3-.43-2.18,1.52S28.51,501.72,27.61,500.24Z"></path>
    <path d="M69.48,582.53a1.33,1.33,0,0,0-2.18,1.52C68.14,586,70.38,584,69.48,582.53Z"></path>
    <path d="M213.87,499.39c-1.48.81-.73,2.78,1,2.18a1.23,1.23,0,1,0-.57-2.4A1.19,1.19,0,0,0,213.87,499.39Z"></path>
    <path d="M260.35,583.62c-.53-1-1.92-.54-1.52.68a.85.85,0,1,0,1.66-.37A1.23,1.23,0,0,0,260.35,583.62Z"></path>
    <path d="M155.08,513.8c-.52-1-1.91-.54-1.51.69a.85.85,0,1,0,1.64-.41A.79.79,0,0,0,155.08,513.8Z"></path>
    <path d="M246.73,636.9c-.53-1-1.92-.54-1.51.68a.83.83,0,0,0,1,.64.85.85,0,0,0,.64-1A.87.87,0,0,0,246.73,636.9Z"></path>
    <path d="M506.81,663.85c-.52-1-1.91-.55-1.51.68a.85.85,0,1,0,1.65-.37A.68.68,0,0,0,506.81,663.85Z"></path>
    <path d="M434.91,644c-.55-1-1.93-.55-1.53.68a.85.85,0,0,0,1.64-.43A1.12,1.12,0,0,0,434.91,644Z"></path>
    <path d="M249.67,587.44c-2.41,1.39-.12,8.15,5.72,4.74S254,585.07,249.67,587.44Z"></path>
  </g>
  <path d="M-.52,469.57s135,4.74,171.23,5.65c17.55.45,88.23,20.41,88.94,19.6,1.74-2-67.57-39.89-79.65-43S-.46,433.25-.46,433.25Z" fill="#5a3126"></path>
  <path d="M523.08,415.55h0c-10.43-.14-13.69-5.63-13.82-5.87a.49.49,0,0,1,.18-.68.5.5,0,0,1,.68.18c0,.06,3.16,5.24,13,5.37a.5.5,0,0,1,.49.51A.49.49,0,0,1,523.08,415.55Z" fill="#5a3126"></path>
  <path d="M521.4,422.1h-.1c-.1,0-9.75-2-12.6-11.67a.5.5,0,1,1,1-.28c2.67,9,11.74,10.95,11.84,11a.51.51,0,0,1,.39.59A.5.5,0,0,1,521.4,422.1Z" fill="#5a3126"></path>
  <rect x="360.45" y="435.48" width="37.82" height="32.05" transform="translate(-2.3 1.95) rotate(-0.29)" fill="#2b4978"></rect>
  <g opacity="0.2">
    <rect x="360.45" y="435.48" width="37.82" height="32.05" transform="translate(-2.3 1.95) rotate(-0.29)"></rect>
  </g>
  <path d="M649.34,417.88a17.45,17.45,0,0,1-6.93-4.57,4.84,4.84,0,0,1-.83-5.19,66.46,66.46,0,0,1,14.65-21.18,1.12,1.12,0,0,1,.78-.3h3a1.13,1.13,0,0,0,1.12-1.26l-.43-3.81a1.16,1.16,0,0,1,.28-.87l8.6-9.71a1.61,1.61,0,0,1,1.18-.53h2.45a1.57,1.57,0,0,0,1.57-1.57V366a1.56,1.56,0,0,1,.37-1l7.44-8.76a.64.64,0,0,1,.49-.22h3.64a.65.65,0,0,0,.65-.64v-2.25a.66.66,0,0,1,.17-.44c1.74-1.84,16.2-16.7,19.74-5.94l-12.09,17.12-39.41,50.56Z" fill="#e6e7e8"></path>
  <path d="M741.61,394a17.45,17.45,0,0,1-2.31-8,4.85,4.85,0,0,1,2.73-4.49,66.32,66.32,0,0,1,24.89-6.63,1.11,1.11,0,0,1,.79.27l2.28,1.94a1.13,1.13,0,0,0,1.67-.23l2.14-3.18a1.12,1.12,0,0,1,.78-.48l12.84-1.82a1.58,1.58,0,0,1,1.24.36l1.86,1.59a1.58,1.58,0,0,0,2.22-.18L794.6,371a1.55,1.55,0,0,1,.94-.53l11.35-1.85a.63.63,0,0,1,.52.15l2.77,2.36a.64.64,0,0,0,.9-.08l1.46-1.71a.67.67,0,0,1,.41-.22c2.53-.27,23.17-2.22,18.89,8.27l-20.3,5.2-62.78,13Z" fill="#e6e7e8"></path>
  <path d="M496.84,400.58s1.14-14.33,12.85-12.65c0,0,15.58,1.45,14.25,17.21a6.12,6.12,0,0,1-5.08,5.55c-2.08.34-5,.15-9.17-1.26l-6.37-5.34-6.48-2.67" fill="#5a3126"></path>
  <circle cx="501.45" cy="407.42" r="8.24" fill="#79a6e2"></circle>
  <path d="M478.3,432.56v25.83a18.7,18.7,0,0,1-34.06,10.68,18.48,18.48,0,0,1-3.24-8.59,17.92,17.92,0,0,1-.12-2.09V432.56a18.71,18.71,0,1,1,37.42,0Z" fill="#f8d9be"></path>
  <path d="M498.53,462.06c-12,8.17-15.85,31.72-15.85,31.72l-17.1-17.66a18.59,18.59,0,0,0,12.72-17.73V443.23l14.9,17.6Z" fill="#f8d9be"></path>
  <path d="M462.08,429.28s3.1,14.8,16.22,14l3.76,9a14.81,14.81,0,0,0,11.14,8.64l4-10.25a107.19,107.19,0,0,0,6.15-20.5s-3.15-.69-4.79-5.33c0,0-4.92,8.61-13.26-3.15,0,0-.82,8.07-7,2,0,0-1.77,9.3-15.31,2.6A11.65,11.65,0,0,1,462.08,429.28Z" fill="#5a3126"></path>
  <g opacity="0.2">
    <path d="M462.08,429.28s3.1,14.8,16.22,14l3.76,9a14.81,14.81,0,0,0,11.14,8.64l4-10.25a107.19,107.19,0,0,0,6.15-20.5s-3.15-.69-4.79-5.33c0,0-4.92,8.61-13.26-3.15,0,0-.82,8.07-7,2,0,0-1.77,9.3-15.31,2.6A11.65,11.65,0,0,1,462.08,429.28Z"></path>
  </g>
  <path d="M465.58,476.12l10.91,11.26s7.59-13.48,1.62-26.55C478.11,460.83,477.63,471.49,465.58,476.12Z" fill="#eea186"></path>
  <path d="M535.36,447.2c8.44.24,15,10.13,15,10.13,13.51,17.38.24,19.55.24,19.55a104.71,104.71,0,0,0,24.86,29c5.17,3.32,9.49.29,11.23-1.32a1.65,1.65,0,0,1,1.94-.22l2.21,1.26a1.65,1.65,0,0,0,2.39-.91l.17-.52a1.66,1.66,0,0,1,2.78-.61l4.88,5.2a1.63,1.63,0,0,0,1.13.53,43.84,43.84,0,0,0,15-2.45c4-1.2,6.45-1,7.93-.54a16,16,0,0,0,9.31.38c1.19-.34,2.3-.71,3.22-1a4.26,4.26,0,0,1,4.49,1c31.16,31.35,11.48,82.51,11.48,82.51l-12.79-1c-90,6.27-131.51-22.2-131.51-22.2-36.69,44.4-56.47,20.51-56.47,20.51-5.31,5.79-15,4.83-15,4.83-14-.49-18.34-22.21-18.34-22.21-2.65-11.34-10.13-13.27-10.13-13.27A11.7,11.7,0,0,1,402.87,544c-.24-6-3.62-6.52-3.62-6.52-4.58-1.69-1.93-11.34-1.93-11.34l-6.51-20.27c10.37,2.17,23.41-5.55,23.41-5.55a40.48,40.48,0,0,1,2.65,6l21.57-9.84a5.77,5.77,0,0,1,7.9,3.52l4,12.82a4.9,4.9,0,0,0,2.74,2.95c2.94,1.31,4.07,4.64,4.51,7A4.31,4.31,0,0,0,460.3,526c6.38,2.53,3.63,10,3.63,10a8.14,8.14,0,0,1,5-1.44l.07-23.17c-.72-20.51,4-27.62,4-27.62l9.69,10s2.79-22.28,15.85-31.72l-5.33-1.23,2.71-7s23.9-19.34,34.06-20.57a3,3,0,0,1,2.77,1.25c.8,1.17,1.77,3.36,2.37,7.46Z" fill="#79a6e2"></path>
  <g opacity="0.2">
    <path d="M498.53,462.06s17.45-15,30.3-23.59c0,0,2.75-1.6,1-3.21,0,0-1.75-1.17-8.76,3.5l-25.7,16.5-2.19,5.57Z"></path>
  </g>
  <g opacity="0.2">
    <path d="M509.3,566.43a.53.53,0,0,1-.49-.36.5.5,0,0,1,.35-.62c7.57-2.19,15-6.42,22.2-12.56a41.14,41.14,0,0,0,14.18-29.07c1.18-22.93-6.89-36-13.87-43a22.06,22.06,0,0,0-15.27-6.42c-9.23-.16-17.58,3.79-24.73,11.73a47.3,47.3,0,0,0-10,18.19l-9.78,33.11a.48.48,0,0,1-.5.36.51.51,0,0,1-.47-.41,2.55,2.55,0,0,0-1.38-2.07c-2-.89-5.29,1-5.33,1.07a.49.49,0,0,1-.68-.17.5.5,0,0,1,.17-.69c.15-.09,3.8-2.23,6.25-1.13a3.13,3.13,0,0,1,1.42,1.3l9.34-31.66a48.27,48.27,0,0,1,10.25-18.57c7.11-7.9,15.73-12.06,25-12.06h.51a23,23,0,0,1,16,6.71c7.12,7.08,15.35,20.41,14.16,43.71A42.17,42.17,0,0,1,532,553.65c-7.27,6.24-14.86,10.53-22.58,12.76Z"></path>
  </g>
  <g opacity="0.2">
    <path d="M478.3,514.41a.5.5,0,0,1-.5-.5c0-14.18,2.09-22.53,2.11-22.61a.5.5,0,0,1,1,.25c0,.08-2.08,8.32-2.08,22.36A.5.5,0,0,1,478.3,514.41Z"></path>
  </g>
  <g opacity="0.2">
    <path d="M505,571.36a.46.46,0,0,1-.33-.13.5.5,0,0,1,0-.71c.17-.19,17.23-19.34,21.6-41.44a.5.5,0,0,1,.59-.39.51.51,0,0,1,.4.59c-4.43,22.37-21.67,41.72-21.85,41.91A.5.5,0,0,1,505,571.36Z"></path>
  </g>
  <g opacity="0.2">
    <path d="M452.83,586.94a.47.47,0,0,1-.28-.09c-7.06-4.77-21.16-32.25-22.13-34.14-6.44-6.92-5.33-11.19-5-12-.25-4.05-2.19-4.35-2.28-4.37a.49.49,0,0,1-.25-.1c-2.38-1.87-1.87-5.88-1-8.9a5.58,5.58,0,0,0-.67-4.53l-4.72-7.21c-.17-.29-4-6.73.13-9.69a.5.5,0,0,1,.58.81c-3.36,2.43.1,8.29.14,8.35l4.7,7.2a6.51,6.51,0,0,1,.8,5.34c-.62,2.2-1.35,6.11.59,7.77.63.15,2.77,1,3,5.39a.42.42,0,0,1-.05.24s-1.69,4,4.86,11.06a.5.5,0,0,1,.08.12c.15.29,14.89,29.13,21.83,33.82a.5.5,0,0,1-.28.92Z"></path>
  </g>
  <g opacity="0.2">
    <path d="M421.92,529.68a.52.52,0,0,1-.29-.09.49.49,0,0,1-.12-.69c6.92-9.93,25.7-15.25,26.5-15.47a.5.5,0,0,1,.27,1c-.19.06-19.23,5.45-25.95,15.08A.51.51,0,0,1,421.92,529.68Z"></path>
  </g>
  <g opacity="0.2">
    <path d="M399.18,526.71a12.51,12.51,0,0,1-1.93-.11.49.49,0,0,1-.42-.56.5.5,0,0,1,.57-.42c.07,0,7.58,1,19.63-4.53a.5.5,0,0,1,.42.91C408.58,526.1,402.19,526.71,399.18,526.71Z"></path>
  </g>
  <g opacity="0.2">
    <path d="M522.74,475.45l-.17,0a.5.5,0,0,1-.05-.93,14.76,14.76,0,0,0,.46-1.6c.65-2.62,1.75-7,4.66-10.07a.5.5,0,1,1,.72.68c-2.72,2.89-3.78,7.11-4.41,9.63-.39,1.54-.53,2-.9,2.24A.62.62,0,0,1,522.74,475.45Zm.14-1h0Z"></path>
  </g>
  <g opacity="0.2">
    <path d="M550.56,477.38a.49.49,0,0,1-.44-.26c-7.13-13.08-27.2-13.45-27.4-13.45a.5.5,0,0,1,0-1h0c.21,0,20.86.38,28.27,14a.51.51,0,0,1-.2.68A.53.53,0,0,1,550.56,477.38Z"></path>
  </g>
  <path d="M379.47,479.68s10.39,7.92,16.27,26.52a40.64,40.64,0,0,0,18.48-5.91S408.3,481.85,379.47,479.68Z" fill="#eea186"></path>
  <path d="M394.28,502c.26.62.51,1.27.76,2s.5,1.51.7,2.22a12.13,12.13,0,0,1-4.61-.2,1.06,1.06,0,0,1-.8-1C390.21,504.26,390.75,503.1,394.28,502Z" fill="#79a6e2"></path>
  <g opacity="0.2">
    <path d="M394.28,502c.26.62.51,1.27.76,2s.5,1.51.7,2.22a12.13,12.13,0,0,1-4.61-.2,1.06,1.06,0,0,1-.8-1C390.21,504.26,390.75,503.1,394.28,502Z"></path>
  </g>
  <path d="M417.06,444.27l.15,28.86-20.26.1-.16-32.54a2.1,2.1,0,0,0-2.1-2.08l-10.28.06a1.33,1.33,0,0,1-1.32-1.32l0-5.28a2.38,2.38,0,0,1,2.37-2.39l22.69-.12h0l6.61,5.63s0,0,0,0l0,9,0,0H417Z" fill="#2b4978"></path>
  <path d="M386.38,435.35l-3.3,0,0-3.3a2.38,2.38,0,0,1,2.37-2.39A11,11,0,0,1,386.38,435.35Z" fill="#d1d3d4"></path>
  <g opacity="0.2">
    <path d="M392.09,435.73a.5.5,0,0,1-.5-.49.51.51,0,0,1,.5-.51l18.22-.09a.51.51,0,0,1,.5.5.5.5,0,0,1-.5.5l-18.22.09Z"></path>
  </g>
  <path d="M362.49,471l-25.3.13a1.86,1.86,0,0,1-1.87-1.85l-.17-34.66a1.85,1.85,0,0,1,1.85-1.86l25.63-.14a2,2,0,0,1,2,1.94l0,4.18a1.21,1.21,0,0,0,1.21,1.2h.1a1.19,1.19,0,0,1,1.21,1.19l.12,22.55a1.2,1.2,0,0,1-1.2,1.21h0a1.2,1.2,0,0,0-1.19,1.18l-.05,2.63A2.33,2.33,0,0,1,362.49,471Z" fill="#2b4978"></path>
  <g opacity="0.2">
    <path d="M341.09,436.17a.5.5,0,0,1,0-1l19.28-.1h0a.5.5,0,0,1,.5.5.5.5,0,0,1-.5.5l-19.27.1Z"></path>
  </g>
  <g opacity="0.2">
    <path d="M341.14,444.54a.49.49,0,0,1-.5-.49.51.51,0,0,1,.49-.51l21.26-.1h0a.49.49,0,0,1,.5.49.51.51,0,0,1-.49.51l-21.26.1Z"></path>
  </g>
  <g opacity="0.2">
    <path d="M417.06,444.27l-11.89.06,12,13.57S416.4,444.37,417.06,444.27Z"></path>
  </g>
  <path d="M416.91,453.37s10.5,1.29,9.18,12.65L423,463.57s.44-5.05-6.09-6.57Z" fill="#2b4978"></path>
  <path d="M460.07,486.81,471.24,482,469,479.68l-11.56,4.38a4,4,0,0,1-3-.07l-21.16-9,.78,1.92,5.48,4.95L457.37,487A4,4,0,0,0,460.07,486.81Z" fill="#2b4978"></path>
  <g opacity="0.2">
    <path d="M460.07,486.81,471.24,482,469,479.68l-11.56,4.38a4,4,0,0,1-3-.07l-21.16-9,.78,1.92,5.48,4.95L457.37,487A4,4,0,0,0,460.07,486.81Z"></path>
  </g>
  <path d="M451.92,492.94l-17.81-16.06,2.21,7.74L449,494.55c7.62,6.22,14.92,0,14.92,0l28-25.59c3.8-5.2,6.64-6.9,6.64-6.9l7.33-6.12c-5.79.73-22,16-22,16l-23.6,21C455.52,496.57,451.92,492.94,451.92,492.94Z" fill="#2b4978"></path>
  <path d="M643.08,507.57s33.85-3.74,70.14,10.49c0,0,11.38,4.27,18.5,3.8,0,0-29.65-23.48-45.54-59.06,0,0,.24-3.56,7.12-8.3l29.88-18,33,42.71s-2.37-14.24-1.66-21.83c0,0,1.21-5,12.12-6.91l32.94-.21s-1.19,5.22,4,22.06l16.6,43.87s12.81,30.6,2.85,52c0,0-8.06,17.78-41,14.94,0,0-113.41,4.41-128,4.79C654.05,587.84,672.55,538.34,643.08,507.57Z" fill="#2b4978"></path>
  <g opacity="0.2">
    <path d="M770.85,529.71a.5.5,0,0,1-.45-.28c-6.59-13.65-14.66-49.77-14.74-50.14a.49.49,0,0,1,.38-.59.5.5,0,0,1,.6.38c.08.36,8.12,36.37,14.66,49.91a.5.5,0,0,1-.23.67A.54.54,0,0,1,770.85,529.71Z"></path>
  </g>
  <g opacity="0.2">
    <path d="M767.13,520.28a.53.53,0,0,1-.27-.08c-21.33-13.82-58.4-60.18-58.78-60.65a.5.5,0,0,1,.08-.7.52.52,0,0,1,.71.08c.37.47,37.34,46.7,58.53,60.43a.5.5,0,0,1,.15.69A.51.51,0,0,1,767.13,520.28Z"></path>
  </g>
  <path d="M680.08,446l-3.93-9.09a11.48,11.48,0,0,0-3.3-4.35l-2.8-2.26s1-15.42,17.32-33l21.1,27.87S690.35,431.6,680.08,446Z" fill="#f8d9be"></path>
  <path d="M670.05,430.31a67.07,67.07,0,0,1-20.71-12.43s7.85-26.38,57.94-71.13c0,0,4.4,3.46-2.67,19.47,0,0-9,21.36-9.42,33.45,0,0,.72,5.11-1.21,6.4l-6.61-8.73S672.39,412,670.05,430.31Z" fill="#79a6e2"></path>
  <g opacity="0.2">
    <path d="M687.37,397.84h0a.5.5,0,0,1-.45-.55,72.66,72.66,0,0,1,12.32-32.78.51.51,0,0,1,.7-.1.5.5,0,0,1,.09.7,71.88,71.88,0,0,0-12.12,32.28A.49.49,0,0,1,687.37,397.84Z"></path>
  </g>
  <path d="M749.7,417.25l-.72-.7c.11-.11,11.11-11.28,34.85-14l.12,1C760.59,406.21,749.8,417.14,749.7,417.25Z" fill="#ed1c24"></path>
  <path d="M749.34,416.9A66.94,66.94,0,0,1,741.61,394s23.08-15,90.23-16.62c0,0,1.11,5.48-14.65,13.1,0,0-20.66,10.46-28.85,19.37,0,0-2.77,4.36-5.07,4.09l.62-10.94S763,404.44,749.34,416.9Z" fill="#79a6e2"></path>
  <g opacity="0.2">
    <path d="M783.89,403.51a.5.5,0,0,1-.35-.86,72.94,72.94,0,0,1,30.63-17,.5.5,0,0,1,.59.38.51.51,0,0,1-.37.6,71.68,71.68,0,0,0-30.16,16.72A.45.45,0,0,1,783.89,403.51Z"></path>
  </g>
  <path d="M753.57,442.83c0-12.55-4.23-25.93-4.23-25.93s11.51-11.09,34.55-13.89L783.27,414s-2.2,8.6,5.77,22.52Z" fill="#f8d9be"></path>
  <g opacity="0.2">
    <path d="M637.76,581.5h-.1a.5.5,0,0,1-.39-.59c9.06-44.59-7.53-66.47-7.7-66.68a.5.5,0,0,1,.79-.62c.17.22,17,22.42,7.89,67.5A.49.49,0,0,1,637.76,581.5Z"></path>
  </g>
  <g opacity="0.2">
    <path d="M793.82,566.43H683.14a.51.51,0,0,1-.5-.5.5.5,0,0,1,.5-.5H793.82a6.94,6.94,0,0,0,6.68-8.79c-5.09-18.37-17-64.37-17.11-94.57a.51.51,0,0,1,.5-.51h0a.51.51,0,0,1,.5.5c.16,30.09,12,76,17.08,94.31a7.94,7.94,0,0,1-7.65,10.06Z"></path>
  </g>
  <ellipse cx="483.83" cy="444.45" rx="8.12" ry="5.6" transform="translate(-122.08 698.43) rotate(-65.31)" fill="#f8d9be"></ellipse>
  <path d="M497.17,450.58c16.81-16,16.81-28.43,12.61-36.87a24.14,24.14,0,0,0-21.64-13.13c-25.8-.06-36.9,5.71-36.9,5.71C434,412.86,441,430.57,441,430.57a17.26,17.26,0,0,1,5.11-11s14.71,20.58,16.89,6.64c0,0,12.86,7.64,15.31-2.6,0,0,6.48,6.88,7-2,0,0,7.54,12.39,13.26,3.15,0,0,1.23,4.23,4.79,5.33a114.87,114.87,0,0,1-4.79,16.14Z" fill="#5a3126"></path>
  <path d="M678.83,447.86s10-17.08,36.76-25.14c0,0,1.83.18,2.6,3.59a4.75,4.75,0,0,0,1.65,2.69c2.39,1.93,6.82,6.17,5.34,10.06l-2-2.59-29.88,18s-6.41,4-7.12,8.3c0,0-4.51,1.66-4.27-6.64C681.91,456.16,682.39,452.6,678.83,447.86Z" fill="#2b4978"></path>
  <g opacity="0.2">
    <path d="M678.83,447.86s10-17.08,36.76-25.14c0,0,1.83.18,2.6,3.59a4.75,4.75,0,0,0,1.65,2.69c2.39,1.93,6.82,6.17,5.34,10.06l-2-2.59-29.88,18s-6.41,4-7.12,8.3c0,0-4.51,1.66-4.27-6.64C681.91,456.16,682.39,452.6,678.83,447.86Z"></path>
  </g>
  <path d="M754.38,459.24s-2.28.23-2-6l0-10.78a2.91,2.91,0,0,1,1.6-2.6,68,68,0,0,1,41.31-5.45,2.88,2.88,0,0,1,2.4,2.86,9.35,9.35,0,0,1-.54,2.84,4.93,4.93,0,0,0,1.31,3.71,7.28,7.28,0,0,1,1.2,2.16c.43,1.29.79,3.14-.11,4.29l-32,2.1s-9.43,1.06-13,5Z" fill="#2b4978"></path>
  <g opacity="0.2">
    <path d="M754.38,459.24s-2.28.23-2-6l0-10.78a2.91,2.91,0,0,1,1.6-2.6,68,68,0,0,1,41.31-5.45,2.88,2.88,0,0,1,2.4,2.86,9.35,9.35,0,0,1-.54,2.84,4.93,4.93,0,0,0,1.31,3.71,7.28,7.28,0,0,1,1.2,2.16c.43,1.29.79,3.14-.11,4.29l-32,2.1s-9.43,1.06-13,5Z"></path>
  </g>
  <path d="M439.59,496.1l-5.48-19.22s-1.92-7.44-13.3-14.82l-9.6-6.47a3.34,3.34,0,0,0-4.55.68c-.73,1-.93,2.47.59,4.56l6.47,6.77s-.37,3.72-6.48,1.85c-.95-.29-1.9-.56-2.88-.76-5.91-1.23-25.29-4.87-34.25-1.71a4,4,0,0,0-1.66,4s-6.05-.1-5.43,4c0,0-.4,2.37,15.64,4.63a14.2,14.2,0,0,0,1.45.13c3.95.19,25.85,2.07,34.11,20.57,0,0,1.82,3.72,2.65,6Z" fill="#f8d9be"></path>
  <path d="M395.74,476.23h-.1c-8.55-1.8-27.09-4.75-27.27-4.78a.51.51,0,0,1-.42-.58.5.5,0,0,1,.57-.41c.19,0,18.76,3,27.32,4.79a.5.5,0,0,1-.1,1Z" fill="#eea186"></path>
  <path d="M170.8,420.34s5.16,25.2,25.32,22.74c0,0,3.73-12.33,8.22-4.93,0,0,3-4.94,7.4,0s-3,13.15-8.77,14.79c0,0-33.7,22.49-45.75-17A16.42,16.42,0,0,1,170.8,420.34Z" fill="#2b4978"></path>
  <g opacity="0.5" style="isolation:isolate">
    <path d="M170.8,420.34s5.16,25.2,25.32,22.74c0,0,3.73-12.33,8.22-4.93,0,0,3-4.94,7.4,0s-3,13.15-8.77,14.79c0,0-33.7,22.49-45.75-17A16.42,16.42,0,0,1,170.8,420.34Z" fill="#fff"></path>
  </g>
  <path d="M195.24,370.37s-53.56-37.62-71-24.06,53.15,15.23,65.75,28.28Z" fill="#2b4978"></path>
  <g opacity="0.5" style="isolation:isolate">
    <path d="M195.24,370.37s-53.56-37.62-71-24.06,53.15,15.23,65.75,28.28Z" fill="#fff"></path>
  </g>
  <path d="M107.9,457.32c10.63-13.69,38.36-28.08,51.12-18.16s6.44,39.07-3.83,53.2c35.07-4.93,29.53,11.54,29.53,11.54H120.5a9.84,9.84,0,0,1-4.57-1.13,23.61,23.61,0,0,1-3.92-2.49C99,490.39,97.27,471.16,107.9,457.32Z" fill="#263238"></path>
  <g opacity="0.5" style="isolation:isolate">
    <path d="M107.9,457.32c10.63-13.69,38.36-28.08,51.12-18.16s6.44,39.07-3.83,53.2c35.07-4.93,29.53,11.54,29.53,11.54H120.5a9.84,9.84,0,0,1-4.57-1.13,23.61,23.61,0,0,1-3.92-2.49C99,490.39,97.27,471.16,107.9,457.32Z" fill="#fff"></path>
  </g>
  <path d="M99.16,434.28C83.88,454.17,80.51,495.4,102.89,494c23.4-1.5,48.22,9.73,63.53-10.16s33.73-70.19,15.15-84.47S114.48,414.39,99.16,434.28Z" fill="#2b4978"></path>
  <g opacity="0.7" style="isolation:isolate">
    <path d="M99.16,434.28C83.88,454.17,80.51,495.4,102.89,494c23.4-1.5,48.22,9.73,63.53-10.16s33.73-70.19,15.15-84.47S114.48,414.39,99.16,434.28Z" fill="#fff"></path>
  </g>
  <path d="M94.2,485.27s-5.75-14.8-19.17-5.21a11.42,11.42,0,0,1-5.76-7.94s-1.09,12.6,3.29,14.79l-5.75-3.29S68.45,496.5,78,497.05l-5.21,4.66s14.28,6.41,21.37-7.95Z" fill="#2b4978"></path>
  <g opacity="0.8" style="isolation:isolate">
    <path d="M94.2,485.27s-5.75-14.8-19.17-5.21a11.42,11.42,0,0,1-5.76-7.94s-1.09,12.6,3.29,14.79l-5.75-3.29S68.45,496.5,78,497.05l-5.21,4.66s14.28,6.41,21.37-7.95Z" fill="#fff"></path>
  </g>
  <path d="M189.9,418s9.51,21.17,0,17.69c0,0,.93,17-9.48,3.13,0,0-8.22,5.48-8.22-5.84,0,0-11.7.17-1.48-22.46Z" fill="#263238"></path>
  <g opacity="0.9" style="isolation:isolate">
    <path d="M189.9,418s9.51,21.17,0,17.69c0,0,.93,17-9.48,3.13,0,0-8.22,5.48-8.22-5.84,0,0-11.7.17-1.48-22.46Z" fill="#fff"></path>
  </g>
  <path d="M206.75,435.27s8.22-22.93,15.59-19.64-3.78,4.6-5.1,5.83c0,0,6.58,1.23-1.45,3.84,0,0,3.21,3.23-1.86,4,0,0,1,.65-3.59,2.74-3.78,1.72-2.74,4.74-2.74,4.74Z" fill="#79a6e2"></path>
  <path d="M206.26,436s1.91-15.32-3.21-15.59.82,3.7,1.23,4.77c0,0-4.08-1.18-.3,2.57,0,0-2.74.93,0,2.74,0,0-1.72.5.39,2.14a3.12,3.12,0,0,1,1,3.86Z" fill="#79a6e2"></path>
  <path d="M206.94,434.47s7.07.63,2.9,12.47.74,19.18-1.39,23a79.62,79.62,0,0,0-4.17-11.62C202.26,454.34,197.65,433.68,206.94,434.47Z" fill="#79a6e2"></path>
  <g opacity="0.4" style="isolation:isolate">
    <path d="M206.94,434.47s7.07.63,2.9,12.47.74,19.18-1.39,23a79.62,79.62,0,0,0-4.17-11.62C202.26,454.34,197.65,433.68,206.94,434.47Z" fill="#fff"></path>
  </g>
  <path d="M210.06,446.15c-2.74-.52-6.57-1.46-6.24-2.28s4.49-.52,6.93-.22A21.5,21.5,0,0,1,210.06,446.15Z" fill="#79a6e2"></path>
  <path d="M205.24,447.84c2.3-.32.33,2.33-3.37,1.54,0-.88-.27-1.76-.35-2.74A6,6,0,0,0,205.24,447.84Z" fill="#79a6e2"></path>
  <path d="M204.67,452.56c.57.6,2.46.24,3.78-.14-.14.88-.22,1.73-.28,2.55C203.65,455.65,203.79,451.68,204.67,452.56Z" fill="#79a6e2"></path>
  <g opacity="0.1" style="isolation:isolate">
    <path d="M141.3,495.71l-6.11-5.89,3-30.5V440.56l1.81-2.74s16.6,5.67,17.15,22.65a58.45,58.45,0,0,1-4.74,27,27.63,27.63,0,0,0,8.82,1.62A32.94,32.94,0,0,1,141.3,495.71Z"></path>
  </g>
  <path d="M94.09,457.32c10.63-13.69,38.36-28.08,51.13-18.16s6.43,39.07-3.84,53.2c35.07-4.93,25.15,11.54,25.15,11.54H106.7a9.85,9.85,0,0,1-4.58-1.13,24,24,0,0,1-3.92-2.49C85.33,490.39,83.49,471.16,94.09,457.32Z" fill="#2b4978"></path>
  <g opacity="0.7" style="isolation:isolate">
    <path d="M94.09,457.32c10.63-13.69,38.36-28.08,51.13-18.16s6.43,39.07-3.84,53.2c35.07-4.93,25.15,11.54,25.15,11.54H106.7a9.85,9.85,0,0,1-4.58-1.13,24,24,0,0,1-3.92-2.49C85.33,490.39,83.49,471.16,94.09,457.32Z" fill="#fff"></path>
  </g>
  <g opacity="0.1" style="isolation:isolate">
    <path d="M159.13,435.84l7.4,5.65,8.66,7.12s3.53,1.92,7.29,4.44c-1.4,3.78-3,7.51-4.58,11-27.62-3.34-25.34-28.25-25.34-28.25Z"></path>
  </g>
  <path d="M164.07,420.34s5.12,25.2,25.31,22.74c0,0,3.73-12.33,8.22-4.93,0,0,3-4.94,7.4,0s-3,13.15-8.77,14.79c0,0-33.7,22.49-45.75-17A16.43,16.43,0,0,1,164.07,420.34Z" fill="#2b4978"></path>
  <g opacity="0.7" style="isolation:isolate">
    <path d="M164.07,420.34s5.12,25.2,25.31,22.74c0,0,3.73-12.33,8.22-4.93,0,0,3-4.94,7.4,0s-3,13.15-8.77,14.79c0,0-33.7,22.49-45.75-17A16.43,16.43,0,0,1,164.07,420.34Z" fill="#fff"></path>
  </g>
  <path d="M222.06,417.05c4.5-4.49-.35-11-3.12-17.89-3.56-8.68-6.49-17.75-12.22-23.48a26.16,26.16,0,0,0-37,36.88C179.93,422.89,211.84,427.27,222.06,417.05Z" fill="#2b4978"></path>
  <g opacity="0.7" style="isolation:isolate">
    <path d="M222.06,417.05c4.5-4.49-.35-11-3.12-17.89-3.56-8.68-6.49-17.75-12.22-23.48a26.16,26.16,0,0,0-37,36.88C179.93,422.89,211.84,427.27,222.06,417.05Z" fill="#fff"></path>
  </g>
  <path d="M214.09,412.83c-3.72-4.11-10.16-8.71-15.72-5.48a.82.82,0,1,1-.83-1.42h0c6.25-3.62,13.46,1,17.7,5.75.71.77-.44,1.95-1.15,1.15Z" fill="#2b4978"></path>
  <path d="M212.12,416.12a11.37,11.37,0,0,0-14.49-.55c-.88.58-1.7-.85-.83-1.42a12.9,12.9,0,0,1,16.44.82c.77.74-.38,1.89-1.15,1.15Z" fill="#263238"></path>
  <g opacity="0.3">
    <path d="M214.09,412.83c-3.72-4.11-10.16-8.71-15.72-5.48a.82.82,0,1,1-.83-1.42h0c6.25-3.62,13.46,1,17.7,5.75.71.77-.44,1.95-1.15,1.15Z" fill="#fff"></path>
    <path d="M212.12,416.12a11.37,11.37,0,0,0-14.49-.55c-.88.58-1.7-.85-.83-1.42a12.9,12.9,0,0,1,16.44.82c.77.74-.38,1.89-1.15,1.15Z" fill="#fff"></path>
  </g>
  <path d="M220.64,414.75a11,11,0,0,1,13.18,3.94c.65.83-.8,1.65-1.43.83a9.5,9.5,0,0,0-11-3.35c-1,.41-1.78-1-.82-1.42Z" fill="#2b4978"></path>
  <path d="M217.49,417.49c3.92-.17,9.51.77,10.66,5.15a.82.82,0,0,1-1.59.44h0c-.93-3.56-5.95-4.08-9.07-3.95A.82.82,0,0,1,217.49,417.49Z" fill="#263238"></path>
  <g opacity="0.3">
    <path d="M220.64,414.75a11,11,0,0,1,13.18,3.94c.65.83-.8,1.65-1.43.83a9.5,9.5,0,0,0-11-3.35c-1,.41-1.78-1-.82-1.42Z" fill="#fff"></path>
    <path d="M217.49,417.49c3.92-.17,9.51.77,10.66,5.15a.82.82,0,0,1-1.59.44h0c-.93-3.56-5.95-4.08-9.07-3.95A.82.82,0,0,1,217.49,417.49Z" fill="#fff"></path>
  </g>
  <path d="M217.49,419.6s-6.77,7.15-6.22,4.77c0,0-2.55.27.74-7.18Z" fill="#263238"></path>
  <g opacity="0.9" style="isolation:isolate">
    <path d="M217.49,419.6s-6.77,7.15-6.22,4.77c0,0-2.55.27.74-7.18Z" fill="#fff"></path>
  </g>
  <path d="M185.05,370.48s-66.46-6.85-76.87,12.6,57-13.43,73.69-6.58Z" fill="#2b4978"></path>
  <g opacity="0.7" style="isolation:isolate">
    <path d="M185.05,370.48s-66.46-6.85-76.87,12.6,57-13.43,73.69-6.58Z" fill="#fff"></path>
  </g>
  <g opacity="0.2" style="isolation:isolate">
    <path d="M165.24,376.72c-13.28,2.5-30.35,8.22-42.54,11-6.77.33-11-.63-8-4.22C120.94,375.85,149.6,376,165.24,376.72Z"></path>
  </g>
  <path d="M206.2,392c.25,1.75-.46,3.31-1.62,3.48s-2.3-1.1-2.54-2.74.44-3.32,1.61-3.48S205.87,390.28,206.2,392Z" fill="#2b4978"></path>
  <path d="M208.12,386.91a.79.79,0,0,1-1,.22,10,10,0,0,0-7.86,1.29.82.82,0,0,1-1.14-.23v0a.86.86,0,0,1,.24-1.15,11.93,11.93,0,0,1,9.37-1.45.86.86,0,0,1,.5,1.1h0A.72.72,0,0,1,208.12,386.91Z" fill="#2b4978"></path>
  <path d="M222.83,416.12a5.68,5.68,0,0,1-.77.93,16.66,16.66,0,0,1-6.49,3.84c-3.78-1.35-8.85-4.31-4.52-9.73,6.44-8.08,9.32,2,9.32,2Z" fill="#263238"></path>
  <g opacity="0.8" style="isolation:isolate">
    <path d="M222.83,416.12a5.68,5.68,0,0,1-.77.93,16.66,16.66,0,0,1-6.49,3.84c-3.78-1.35-8.85-4.31-4.52-9.73,6.44-8.08,9.32,2,9.32,2Z" fill="#fff"></path>
  </g>
  <path d="M220.83,418.28c1.81.3,4.25-4.38,3.84-6.16s-2.39-4.69-4-3.81C218.42,409.52,218.31,417.87,220.83,418.28Z" fill="#2b4978"></path>
  <path d="M258.44,549.5a2.14,2.14,0,1,1-3-.43A2.14,2.14,0,0,1,258.44,549.5Z" fill="#2b4978"></path>
  <path d="M268.52,556.8l-3.32-.48s3.37-3,3.33-3.91a3.28,3.28,0,0,0-.31-1.15,4.22,4.22,0,0,0-.47-.79,21,21,0,0,0-2.25-1.07v-.06a.59.59,0,0,1-.23.24.63.63,0,1,1,.22-.86h0a.62.62,0,0,1,.08.35c.22.09,1.88.8,2,.61s-.88-1.61-1.28-2.2a.65.65,0,0,1-.75-.28.62.62,0,0,1,.21-.85h0a.64.64,0,0,1,.87.21.65.65,0,0,1-.05.72c.39.56,1.45,2,1.71,2s.55-1.25.69-1.9a.63.63,0,0,1-.38-.28.66.66,0,0,1,.22-.87.63.63,0,1,1,.65,1.09.44.44,0,0,1-.19.07,10.87,10.87,0,0,0-.14,2.61,1.54,1.54,0,0,0,.21.29h0a23.2,23.2,0,0,1,1.68,2.38C271.31,553.21,268.52,556.8,268.52,556.8Z" fill="#79a6e2"></path>
  <path d="M255.92,570.37c-.23.48-2.66,1.38-3.14,1.48h-.08a13.76,13.76,0,0,1-2.5-2.83.72.72,0,0,0,.15-.47.74.74,0,0,0-.75-.72.77.77,0,0,0-.73.77.75.75,0,0,0,.76.71.88.88,0,0,0,.23,0c.38.53,1,1.48.76,1.59a14.31,14.31,0,0,1-3-1.47.61.61,0,0,0,0-.27.73.73,0,0,0-.76-.7.74.74,0,0,0-.7.76.73.73,0,0,0,.75.7.79.79,0,0,0,.47-.19c.8.43,2.78,1.53,2.65,1.75a5.83,5.83,0,0,1-2.2.15.74.74,0,1,0-.72.86.72.72,0,0,0,.7-.56,5.51,5.51,0,0,1,2.3.47c.18.16.62.53,1.12.92a6.2,6.2,0,0,0,2.2,1.29,33.47,33.47,0,0,0,5.94-2c.58-.32.7-1.23.74-1.12s1,1.28,1,1.28-3.88,1.53-5.8,2.59-6.32,3-1.32,6.09a15.68,15.68,0,0,0,3.45,1.48,38.57,38.57,0,0,0,10.63,1.3,16.89,16.89,0,0,1-2.39.93c-2.83,1-7.11,2.27-8.29,2.63a.73.73,0,0,0-1-.15.74.74,0,0,0,.46,1.33.75.75,0,0,0,.7-.59c1.37-.2,5.87-.81,5.93-.44s-4.69,3.17-6,3.91a.75.75,0,0,0-.58-.27.74.74,0,0,0-.72.76h0a.73.73,0,0,0,.75.71h0a.72.72,0,0,0,.72-.72h0c1.2-.71,6.15-3.55,6.2-2.82s-1.7,2.93-2.49,3.92h-.1a.72.72,0,0,0-.71.73v0a.73.73,0,0,0,.76.7.73.73,0,0,0,.51-1.22c1-1.17,3.41-4.06,4.55-5.12.71-.66,1.91-1.71,3.05-2.66s2.31-2,2.63-2.19a1.4,1.4,0,0,0,.19-2l0,0a19.09,19.09,0,0,0-3.41-1.86s5.83-.49,8.28-1a7.47,7.47,0,0,0,4.38-2.19,13.26,13.26,0,0,0,.44-3v.08h0c.08.21.34.6,1.19.13l.09-.07a.8.8,0,0,0,.17-.15,2.23,2.23,0,0,0,.35-.4,4,4,0,0,0,.37-.54c.13-.2.25-.4.37-.62s.13-.25.21-.38c.82-1.54,1.58-3.36,1.73-3.68.21-.48,1.84-3.4,2.22-4.08h.17a.74.74,0,0,0,.72-.76h0a.72.72,0,0,0-.73-.71h0a.74.74,0,0,0-.72.74v0a.67.67,0,0,0,.23.5c-.24.39-1.64,2.41-1.89,2.28s.44-3.44.55-4a.71.71,0,0,0,.59-.73.74.74,0,0,0-.75-.72.7.7,0,0,0-.37.11v-.21a13.66,13.66,0,0,0-.3-2.85c-.25-.57-1-2.77-2.86-2.63-.89,0-2.09,1-3.09,2h0a27.15,27.15,0,0,0-1.93,2.08,18.12,18.12,0,0,0-2.52-2.66c-1.06-.52-6.69-1.9-8.77-2.72s-5.72-3.87-8.48-3.64-12,.79-13.09,1.61c-.54.42-.26,3.62-.26,3.62a71.78,71.78,0,0,0,5.75,8.09c.41.48,3.24.46,4.26,1.23S256.14,569.93,255.92,570.37Z" fill="#79a6e2"></path>
  <path d="M255.44,556.19a2.13,2.13,0,1,1-3-.43,2.13,2.13,0,0,1,3,.43Z" fill="#2b4978"></path>
  <g opacity="0.1">
    <path d="M278.68,571.17c.31.5,1.06.83,1.46.24a1.59,1.59,0,0,0,.21-1v-.11a2.08,2.08,0,0,0-.81-1.88.83.83,0,0,0-1.12.31,1,1,0,0,0-.1.33A3.16,3.16,0,0,0,278.68,571.17Z"></path>
    <path d="M277.53,572c.08-.31-.18-.71-.33-1h0a1.37,1.37,0,0,0-.49-.55,1.08,1.08,0,0,0-.3-.16.38.38,0,0,0-.34.07.45.45,0,0,0-.26.23.86.86,0,0,0,.21.91C276.23,571.77,277.3,572.93,277.53,572Z"></path>
    <path d="M281.18,574.51a1.56,1.56,0,0,0,0-1v0a1.16,1.16,0,0,0-.29-.68,1.09,1.09,0,0,0-.23-.25.34.34,0,0,0-.34,0,.52.52,0,0,0-.31.12,1,1,0,0,0-.11.93C280,573.93,280.64,575.33,281.18,574.51Z"></path>
    <path d="M277.79,576.25a.64.64,0,0,0,.82-.41.59.59,0,0,0,0-.47,3.47,3.47,0,0,0-1.37-1.61.93.93,0,0,0-1.06-.19c-.52.33-.18,1.11.08,1.5A3,3,0,0,0,277.79,576.25Z"></path>
    <path d="M275.08,573.56c.42-.3-.23-.9-.54-.95h-.18l-.11,0v.05l-.06.06h0C274,573.22,274.75,573.79,275.08,573.56Z"></path>
    <path d="M279.74,575.52c.42-.28-.2-.91-.51-1h-.18a.16.16,0,0,0-.11.05h0l-.05.06h0C278.69,575.14,279.44,575.74,279.74,575.52Z"></path>
    <path d="M275.05,570.52c.38-.34-.34-.86-.65-.87h-.15a.23.23,0,0,0-.1.07v0l0,.06h0C274,570.31,274.75,570.8,275.05,570.52Z"></path>
    <path d="M276.11,573.12h0a.22.22,0,0,0,.3-.09.23.23,0,0,0,0-.2.57.57,0,0,0-.39-.35c-.13,0-.28.1-.21.24a.17.17,0,0,0,0,.1A.5.5,0,0,0,276.11,573.12Z"></path>
    <path d="M280.53,576.33h0a.21.21,0,0,0,.3,0,.2.2,0,0,0,.05-.21.54.54,0,0,0-.3-.43.18.18,0,0,0-.26.18.2.2,0,0,0,0,.11A.53.53,0,0,0,280.53,576.33Z"></path>
    <path d="M278.56,573.13h0a.22.22,0,0,0,.3,0,.21.21,0,0,0,.05-.2.54.54,0,0,0-.29-.44.19.19,0,0,0-.25.11.19.19,0,0,0,0,.08.17.17,0,0,0,0,.1A.52.52,0,0,0,278.56,573.13Z"></path>
    <path d="M277.59,569.57h0a.21.21,0,0,0,.3,0,.2.2,0,0,0,.05-.21.55.55,0,0,0-.29-.43c-.13,0-.3,0-.26.18a.2.2,0,0,0,0,.11A.55.55,0,0,0,277.59,569.57Z"></path>
  </g>
  <path d="M252.7,571.84a1.8,1.8,0,0,1-.33,1.27,1.18,1.18,0,0,1-1.09.16,14.16,14.16,0,0,1-1.12-.93,5.87,5.87,0,0,0-2.3-.46.73.73,0,0,1-1.44-.17.73.73,0,0,1,.71-.75h0a.74.74,0,0,1,.75.62,5.77,5.77,0,0,0,2.19-.15c.14-.22-1.84-1.32-2.64-1.75a.79.79,0,0,1-.47.19.73.73,0,0,1-.75-.71h0a.72.72,0,0,1,.69-.75h0a.74.74,0,0,1,.76.71.81.81,0,0,1-.05.27c.84.5,2.72,1.59,3,1.47s-.38-1.06-.76-1.59h-.23a.74.74,0,1,1,.72-.76.72.72,0,0,1-.15.47C250.76,569.77,252.21,571.68,252.7,571.84Z" fill="#79a6e2"></path>
  <path d="M269.44,585.84c-1.13.95-2.34,2-3,2.66-1.14,1.06-3.58,4-4.56,5.12a.67.67,0,0,1,.2.48.73.73,0,0,1-.7.76h0a.74.74,0,1,1-.17-1.47h.27c.79-1,2.53-3.27,2.49-3.92s-5,2.11-6.2,2.82a.74.74,0,1,1-.76-.74.77.77,0,0,1,.59.27c1.27-.74,6-3.52,6-3.91s-4.56.25-5.93.45a.73.73,0,1,1-.75-.9.72.72,0,0,1,.62.3c1.18-.36,5.46-1.65,8.29-2.63,1.46-.17,3.31-.3,3.64.12A1,1,0,0,1,269.44,585.84Z" fill="#79a6e2"></path>
  <path d="M289.56,563.2a.73.73,0,0,1-.71.76h-.18c-.38.68-2,3.6-2.22,4.08-.14.32-.91,2.15-1.74,3.68-.47-.08-.18-.58-.18-.58,1.09-1.71,1.92-10,1.92-10v-.51a.94.94,0,0,1,.36-.11.74.74,0,0,1,.76.72h0a.71.71,0,0,1-.59.73c-.11.6-.79,3.93-.55,4s1.65-1.89,1.89-2.28a.72.72,0,0,1-.23-.52.75.75,0,0,1,.65-.82.73.73,0,0,1,.82.65.49.49,0,0,1,0,.17Z" fill="#79a6e2"></path>
  <g opacity="0.2">
    <path d="M262.16,567.72c-.25.26-.46.57-.7.84s-.29.33-.42.5a14.89,14.89,0,0,1,.51-2.07c0-.08-.1-.13-.13,0a10.62,10.62,0,0,0-.55,2.06c-.2.84-.56,1.63-.81,2.45,0,0,.06.08.08,0a13.86,13.86,0,0,0,.79-2h0a3.86,3.86,0,0,0,.74-.77,6,6,0,0,0,.62-.87C262.36,567.74,262.23,567.64,262.16,567.72Z"></path>
    <path d="M269.55,571.32a13.08,13.08,0,0,0-3-.05,8.42,8.42,0,0,1,2-.79c.1,0,.06-.17,0-.18a4,4,0,0,0-2.48,1,17.39,17.39,0,0,0-5,1.39c-.09,0,0,.18.06.15a28.74,28.74,0,0,1,8.38-1.35C269.64,571.51,269.67,571.33,269.55,571.32Z"></path>
    <path d="M270.53,583.12a9.52,9.52,0,0,1-2.4,1c-.06,0-.05.11,0,.1a5.9,5.9,0,0,0,2.49-1,.09.09,0,1,0,0-.18A.11.11,0,0,0,270.53,583.12Z"></path>
    <path d="M279.82,561.61a9.56,9.56,0,0,0-1.47-2.35h-.07a9.74,9.74,0,0,0,1.47,2.36Z"></path>
    <path d="M286.44,560.82a38.76,38.76,0,0,1-.79,5.69c-.38,1.76-1,3.42-1.5,5.13a.1.1,0,0,0,.05.11.08.08,0,0,0,.1,0,26,26,0,0,0,2.27-10.88C286.53,560.73,286.44,560.74,286.44,560.82Z"></path>
    <path d="M283.44,560.93a13.09,13.09,0,0,0-1.53,5.14,11.87,11.87,0,0,0-1.06-2.88c0-.06-.16,0-.13.06A22.23,22.23,0,0,1,282,573.31c0,.06.07,0,.08,0a24.68,24.68,0,0,0,0-6.65,21.71,21.71,0,0,1,1.61-5.63C283.64,560.93,283.44,560.77,283.44,560.93Z"></path>
    <path d="M268.65,579.68a15.7,15.7,0,0,0-10.48-.94c-.07,0,0,.11,0,.1a20.28,20.28,0,0,1,10.41.94C268.67,579.8,268.71,579.7,268.65,579.68Z"></path>
  </g>
  <path d="M451.48,442a.52.52,0,0,1-.38-.17c-3.13-3.59-8.19-3.4-8.23-3.4a.47.47,0,0,1-.52-.48.49.49,0,0,1,.47-.52c.23,0,5.58-.22,9,3.74a.5.5,0,0,1,0,.71A.54.54,0,0,1,451.48,442Z" fill="#5a3126"></path>
  <ellipse cx="445.27" cy="447.51" rx="1.43" ry="2.19" fill="#5a3126"></ellipse>
  <path d="M450.34,461.26s-1.19,5.48-6.1,7.81a18.48,18.48,0,0,1-3.24-8.59Z" fill="#fff"></path>
  <path d="M482.55,447.41a.5.5,0,0,1-.5-.49.51.51,0,0,1,.49-.51,1.92,1.92,0,0,0,.75-.18,1.4,1.4,0,0,0,.79-1.34c-.06-.82-1.09-.88-1.2-.88a.54.54,0,0,1-.43-.26.52.52,0,0,1,0-.5c.65-1.08,1.38-1.63,2.17-1.64a2.21,2.21,0,0,1,1.81,1.06.5.5,0,0,1-.84.55s-.43-.61-.94-.61h0a1.28,1.28,0,0,0-.9.56,1.85,1.85,0,0,1,1.34,1.65,2.42,2.42,0,0,1-1.35,2.31,2.79,2.79,0,0,1-1.16.28Z" fill="#eea186"></path>
</svg>
