<?xml version="1.0" encoding="UTF-8"?>
<svg xmlns="http://www.w3.org/2000/svg" xmlns:xlink="http://www.w3.org/1999/xlink" width="865.76" height="682.89" viewBox="0 0 865.76 682.89">
  <defs>
    <clipPath id="a">
      <path d="M109.85,399.89c1.76-.42,2.74-2.29,3.19-4a14.6,14.6,0,0,1,1.68-5.1,10.16,10.16,0,0,1,2.32-2,24.81,24.81,0,0,1,5.56-3.36,8.23,8.23,0,0,1,6.35,0c.42.2.85,0,.8-.4,15.44,3.16,21.33,12.82,36.77,8s18.35-6.09,30.86-4.73,13.22-.63,25.72,0,17-1.36,24,0,24.56-.54,29-3.26,14.7-1.86,24.27-1.92,8.07-1.5,19.09,0,12.51,1.5,22.06-3,6.62-6.77,17.64-3.76a125.05,125.05,0,0,0,30.14,3.76c6.62,0,12,1.49,23.23-1.43,8.28-2.18,17.16-2.29,25.66-2.39h.23c3.83,0,8.37-.66,12.14,0,2,.36,3,1.5,4.82,2.26a16.21,16.21,0,0,0,8.1.85c3.72-.4,7.33-1.5,11-1.7,6.28-.41,12.48,1.63,18.79,1.63a85.07,85.07,0,0,1,10-.17c2.34.29,4.6,1.05,6.92,1.5a46.33,46.33,0,0,0,8.65.43q22.65-.18,45.26,1.5c22.61,1.68-309.85,24.6-332.54,26.24l-56.9,4-36.4,2.56-5.14.37c-1.1,0-2.21.15-3.31.23-3.18.25-7.9,1.74-11.09,2" fill="none"></path>
    </clipPath>
    <clipPath id="b">
      <path d="M193.1,645.54c-.15-3,2.72-5.25,5.61-5.88s5.89-.14,8.82-.39a17.63,17.63,0,0,0,6.39-1.86,4.07,4.07,0,0,0,2.37-2.45,3.57,3.57,0,0,0-1.65-3.36c-1-.79-2.29-1.32-3.25-2.21a5.75,5.75,0,0,1-1.18-6.59c2.5-5,6.89-.86,10.2-3.54,2.57-2.08,1.77-7.56,4.18-10.27,5-5.61,49-10.9,62.89-9.7s.55-5.06-11-11.91-8.27-9.15-5.81-11.62,29.51-5.24,41-6.66-6-4.64-6.54-9.22,11.57-7,19.46-12.57,16.85-4.36,26.78-7.66,3.85-3.85.54-9.21,21.21-18.15,30.87-18,19.3-4.21,14.24-6.52,5.06-4.31,17.75-12,50.7-3.3,46.84-6.06-2.49-3.31,1.23-6,4.17-3-1.77-4.49-11,.55-11-3.1,1.13-7,11.58-6.81,25.36-8.27,31.11-7.13-6.85-6.67-5.75-9.42c1-2.35,8.46-2.05,10.4-2.16,4.41-.25,9.32.74,12.77-1.78a4.53,4.53,0,0,1,2.15-.61,140.6,140.6,0,0,1,26.43-.24c2.85.24,6.17.85,8.91,0-3.59-1.83-9.82-1.5-13.86-2-2.67-.36-9.59-.17-11.65-2.18-1.25-1.19-9.26,1.2-13.07-1.84s4-6,4-6,4.27-.31,3.94-2,.88-3.4,11-4.62,19.06-6.37,14.8-8.58-1.5-3.77-.14-4.49,10.24-4.07,10.24-4.07,4.5-4.49,18.06-6.77,13-.61,8-3.85.09-1.65,12.64-3.85c5.61-1-3.28-4.49,4.49-4.38s-.58-4,1.84-3.31a10.76,10.76,0,0,0,2.89,0,.55.55,0,0,1,.62-.35c1.24.15,2.15-.76,3.25-1.18a14.15,14.15,0,0,1,3.54-.57c1.73-.19,3.45-.39,5.17-.63a10.17,10.17,0,0,1-5-1.5.72.72,0,0,1-.24-.94,2.64,2.64,0,0,1,2.59-1.27,13.62,13.62,0,0,0,3.64-.68,12,12,0,0,1,3.87-.31,19.1,19.1,0,0,0,2.14,0,15.53,15.53,0,0,0,2.2-.34c2.84-.44,5.72-.51,8.56-.93a57.09,57.09,0,0,1,7.58-1.05,21.28,21.28,0,0,1,2.76.15l1.49-.21c1.5-.2,5.33,0,6.37-1.17-2.35-.63-5,.29-7.37.11-1.68-.14-3.29-.71-5-1-4.87-.71-10.09,1.34-14.65-.54a14,14,0,0,0-1.85-.75c-3-.76-5.9,2-8.9,1.41-2.23-.44-3.67-2.53-5.06-4.35a1.65,1.65,0,0,0-.9-.7,1.47,1.47,0,0,0-1,.24,8.5,8.5,0,0,1-4,1.33c-1.5,0-3.2-.84-4.49,0a10.63,10.63,0,0,0-1.5,1.5c-1.4,1.27-3.53,1.11-5.43,1.05s-4.15.27-5,2a12.48,12.48,0,0,1-1,2.45,3.64,3.64,0,0,1-2,1,22.27,22.27,0,0,1-9.68.19,2.6,2.6,0,0,0-1.9.09,2.84,2.84,0,0,0-.81,1.35c-2.2,5.71-13.67,9.53-18.78,5.68-4.49-3.43-21.71,15.39-21.71,15.39L514.11,407l-5,4s-3-.5-16.17,5.16-3.7,6.61-10.39,9.8-29,6.15-29,6.15a145.3,145.3,0,0,1,18.43,0c8.48.69,0,5.81,0,5.81s-7.75,6-11.42,6.56-14,3.83-19.11,3.56-9.57,6.89-12.5,8.9-45.57,7.34-45.57,7.34,33.08.94,35.28.73-8.82,5.36-16.17,5.36-14.71,7.35-22.79,7.79-11.76,2.5-24.24,2.57-20.59,12.43-30.82,10.71-15.5,7.59-19.17,10.59-50,2.56-50,2.56L288.53,507c-14,10.26-5.16,12.54-18,24.13s-15.88,5.31-23.23,9-23.52,3-31.61,5.82-29.39,4.5-26.44,5.78,28.64,5.31,38.21,10.59-4.49,5-12.32,5.47-1.65,4.68-.18,7.9-5.89,4.87-25.71,8.51-23.83-.51-15.46,6.87c8.09,7.13-6.6,15.77-22.77,14.75s-8.82,14.48-8.82,14.48" fill="none"></path>
    </clipPath>
    <clipPath id="c">
      <path d="M690.93,373.76c-3.31.26-10.49-2.45-14.89-2.71s-7.16,3.28-8,2.71-5.49-1.08-10.38,0c-7.48,1.65-3.93,1.69-9.71,2.7s-6.35,1.49-2.22,2.42,6.59-1,9.36.68,3.88,2.77,1.39,3.32a86.49,86.49,0,0,1-13.48,2.2c-5,.27,7.06,1.65,12,1.38a15.92,15.92,0,0,1,8.57,1.75c1.11.45-10,2.59-8.57,3.31s12.43-.09,18.5,1.42,5.22,4.86,8.82,6,9.64,1.65,11.84,6c-.19.95.72,1.07,1.68,1.22s1.93-.12,2.89,0c2.89.13,5.64,3,8.23,1.75" fill="none"></path>
    </clipPath>
    <clipPath id="d">
      <path d="M650,416.75c6.68,1.26,4.6,1.62,9.56,2.73a54.46,54.46,0,0,0,14.06,1.38c6.33,0,18,.27,13.22,0s-22,2.75-23.71,2.75,1.11,1.65,1.38,2.49-6.89,1.09-11,1.09-8,1.11-9.64,2.49-4.14.95-6.62,0a10.82,10.82,0,0,1-3.86-2.49s-.83-5.23-2.47-6.33,1.91-3-3.6-4.14,2.62-1.49,2.76-4.41-3.66-4.15-1.5-5.52,0-4.49,0-4.49,8.71-.91,9,1,4.69,3.52,7.49,3.53a52.86,52.86,0,0,1,8.82,1.62s-10.48.18-9.91,1.9,3.68,2,5.55,2.28S644.1,415.69,650,416.75Z" fill="none"></path>
    </clipPath>
    <clipPath id="e">
      <path d="M728.47,427.5s-12.9-1.67-11.43,4.62,5.65,3.16-.12,9.86-8.7,7.82-12.38,7.82-15.07,3.85-6.61,3.94,14.26-2.65,13.74,0-6.76,5.24-6.38,7.08,2.12,4.7,4.49,3.46,2.42,1.69,4.63,5.36-1.95,5.23,1.1,9.2,9.42,5.37,9.42,5.37-3.1,2,3.48,2" fill="none"></path>
    </clipPath>
  </defs>
  <path d="M156.42,498.53c-37.33-33.7-23.72-116.5-.09-152.38C233,229.71,360.63,25.6,545.66,16.25c78.68-4,120,62.19,132.15,89.85,29.15,66.39,37.93,139.26,41.36,211.13,3.56,75.11.87,155.74-37.44,223.37-14.52,25.64-33.17,49.82-58.62,66.4-25.86,16.82-56.66,26.52-87.77,29.09-50.16,4.18-100.47-8.67-146.52-28.12s-88.67-45.38-132.41-69.19C227.85,523.28,187.88,526.92,156.42,498.53Z" fill="#000000"></path>
  <g opacity="0.9" style="isolation:isolate">
    <path d="M156.42,498.53c-37.33-33.7-23.72-116.5-.09-152.38C233,229.71,360.63,25.6,545.66,16.25c78.68-4,120,62.19,132.15,89.85,29.15,66.39,37.93,139.26,41.36,211.13,3.56,75.11.87,155.74-37.44,223.37-14.52,25.64-33.17,49.82-58.62,66.4-25.86,16.82-56.66,26.52-87.77,29.09-50.16,4.18-100.47-8.67-146.52-28.12s-88.67-45.38-132.41-69.19C227.85,523.28,187.88,526.92,156.42,498.53Z" fill="#fff"></path>
  </g>
  <path d="M554.5,341l3.53-.25-1.23,3,2.17.27,3.07-3,1.16,2.77-1,2s2.74-1.28,4.23-2.12-2,3.61-2,3.61l8-3.34-.15,44.18H576c0-8.45.2-37.09.2-44.93l3.7,1.94-1-4.5,2.37,2a56.92,56.92,0,0,1,5.67,2.48c.64.54-5.84-6.23-5.84-6.23a40.34,40.34,0,0,1,4.19,3.28,1,1,0,0,0,1.39.32A1,1,0,0,0,587,342s2.47.64,4.1,1.21-1.3-2.26-1.3-2.26,5.41.72,3.37-.26-9.76-8.5-9.76-8.5h1.79l2.13.94-1.63-2.48,6,1.49-1.8-1.49c-.66-.51-2.63-2.43-3-2.71s2.14-.54,1.15-1.17a20.37,20.37,0,0,1-4.1-3.1,61.26,61.26,0,0,0-5.24-4.7s2.62.88,3.11.94,4.76,1.5,4.76,1.5l-2.8-2.5,4.27.55-1.8-1.3a12.74,12.74,0,0,0-3.1-2.25c-.79-.09.63-1.36-1-2.08a36.84,36.84,0,0,1-5.09-3.38l-1-1.34,4.11.92-1.32-2.4s7.49,2.49,2.62-.43-9-10.86-9-10.86-3.72,7.86-6.62,10.33,3.17-.6,2.18.53-1.81,1.37-1.15,1.91,1.11-.37,1.11-.37h2.66l-1.34,1.5s-6.92,5.76-5.5,5.7a22.55,22.55,0,0,0,3.07-.36s-2.44,3.45-3.26,3.55a11.31,11.31,0,0,0-3,2.07l5.2-1.78-4.5,5.64-1.49,2.77c1-.44,2-.83,3-1.17s-4.18,2.83-4.18,2.83l3.12-.37-3,3,3.87-2.15.16.19.41-.51,1-.58-2.23,5.39Z" fill="#92e3a9"></path>
  <g opacity="0.9" style="isolation:isolate">
    <path d="M554.5,341l3.53-.25-1.23,3,2.17.27,3.07-3,1.16,2.77-1,2s2.74-1.28,4.23-2.12-2,3.61-2,3.61l8-3.34-.15,44.18H576c0-8.45.2-37.09.2-44.93l3.7,1.94-1-4.5,2.37,2a56.92,56.92,0,0,1,5.67,2.48c.64.54-5.84-6.23-5.84-6.23a40.34,40.34,0,0,1,4.19,3.28,1,1,0,0,0,1.39.32A1,1,0,0,0,587,342s2.47.64,4.1,1.21-1.3-2.26-1.3-2.26,5.41.72,3.37-.26-9.76-8.5-9.76-8.5h1.79l2.13.94-1.63-2.48,6,1.49-1.8-1.49c-.66-.51-2.63-2.43-3-2.71s2.14-.54,1.15-1.17a20.37,20.37,0,0,1-4.1-3.1,61.26,61.26,0,0,0-5.24-4.7s2.62.88,3.11.94,4.76,1.5,4.76,1.5l-2.8-2.5,4.27.55-1.8-1.3a12.74,12.74,0,0,0-3.1-2.25c-.79-.09.63-1.36-1-2.08a36.84,36.84,0,0,1-5.09-3.38l-1-1.34,4.11.92-1.32-2.4s7.49,2.49,2.62-.43-9-10.86-9-10.86-3.72,7.86-6.62,10.33,3.17-.6,2.18.53-1.81,1.37-1.15,1.91,1.11-.37,1.11-.37h2.66l-1.34,1.5s-6.92,5.76-5.5,5.7a22.55,22.55,0,0,0,3.07-.36s-2.44,3.45-3.26,3.55a11.31,11.31,0,0,0-3,2.07l5.2-1.78-4.5,5.64-1.49,2.77c1-.44,2-.83,3-1.17s-4.18,2.83-4.18,2.83l3.12-.37-3,3,3.87-2.15.16.19.41-.51,1-.58-2.23,5.39Z" fill="#fff"></path>
  </g>
  <path d="M518.26,339.14s-4,3.82-1.78,3a57.11,57.11,0,0,1,5.54-1.62,1.38,1.38,0,0,0,1.78.79,1.4,1.4,0,0,0,.66-.54,53.72,53.72,0,0,1,5.69-4.49s-8.79,9.15-7.91,8.43a80.58,80.58,0,0,1,7.68-3.38l3.19-2.64-1.49,6,5-2.63c0,10.7.35,36.85.24,45.95h5l-.2-45,10.86,4.49s-4.73-6-2.72-4.87,5.72,2.86,5.72,2.86l-1.29-2.71,1.49-3.77,4.17,4,3-.36-1.66-4L566,339l-10.2-8.91L552.49,323l1.5.79.55.69.23-.25,5.22,2.92-4-4,4.23.48s-7.09-4.23-5.65-3.81,4.1,1.57,4.1,1.57l-2-3.75L550.5,310l7,2.41s-2.87-2.63-4-2.8-4.49-4.82-4.49-4.82a32.58,32.58,0,0,0,4.16.51c1.94.08-7.48-7.71-7.48-7.71l-1.83-2.1h3.61s.6,1.23,1.5.5-.21-1.08-1.5-2.59,6.87,2.62,3-.71-9-14-9-14-5.56,10.73-12.22,14.69,3.56.59,3.56.59l-1.72,3.4,5.54-1.24L535.34,298a49.25,49.25,0,0,1-6.88,4.58c-2.22,1-.29,2.69-1.37,2.82s-4.17,3-4.17,3l-2.44,1.79,5.76-.77-3.77,3.39s5.76-2,6.44-2.11,4.2-1.28,4.2-1.28a79.33,79.33,0,0,0-7.09,6.37,27.56,27.56,0,0,1-5.54,4.19c-1.34.85,2,1.18,1.49,1.57s-3.1,3-4,3.69-2.34,2-2.34,2l8.21-2-2.22,3.36,2.88-1.27H527s-10.48,10.2-13.21,11.5S518.26,339.14,518.26,339.14Z" fill="#92e3a9"></path>
  <g opacity="0.7" style="isolation:isolate">
    <path d="M518.26,339.14s-4,3.82-1.78,3a57.11,57.11,0,0,1,5.54-1.62,1.38,1.38,0,0,0,1.78.79,1.4,1.4,0,0,0,.66-.54,53.72,53.72,0,0,1,5.69-4.49s-8.79,9.15-7.91,8.43a80.58,80.58,0,0,1,7.68-3.38l3.19-2.64-1.49,6,5-2.63c0,10.7.35,36.85.24,45.95h5l-.2-45,10.86,4.49s-4.73-6-2.72-4.87,5.72,2.86,5.72,2.86l-1.29-2.71,1.49-3.77,4.17,4,3-.36-1.66-4L566,339l-10.2-8.91L552.49,323l1.5.79.55.69.23-.25,5.22,2.92-4-4,4.23.48s-7.09-4.23-5.65-3.81,4.1,1.57,4.1,1.57l-2-3.75L550.5,310l7,2.41s-2.87-2.63-4-2.8-4.49-4.82-4.49-4.82a32.58,32.58,0,0,0,4.16.51c1.94.08-7.48-7.71-7.48-7.71l-1.83-2.1h3.61s.6,1.23,1.5.5-.21-1.08-1.5-2.59,6.87,2.62,3-.71-9-14-9-14-5.56,10.73-12.22,14.69,3.56.59,3.56.59l-1.72,3.4,5.54-1.24L535.34,298a49.25,49.25,0,0,1-6.88,4.58c-2.22,1-.29,2.69-1.37,2.82s-4.17,3-4.17,3l-2.44,1.79,5.76-.77-3.77,3.39s5.76-2,6.44-2.11,4.2-1.28,4.2-1.28a79.33,79.33,0,0,0-7.09,6.37,27.56,27.56,0,0,1-5.54,4.19c-1.34.85,2,1.18,1.49,1.57s-3.1,3-4,3.69-2.34,2-2.34,2l8.21-2-2.22,3.36,2.88-1.27H527s-10.48,10.2-13.21,11.5S518.26,339.14,518.26,339.14Z" fill="#fff"></path>
  </g>
  <path d="M460.13,333.11l6.33-.44-2.21,5.24,3.91.5,5.52-5.3,2.07,5-1.71,3.6s5-2.29,7.61-3.81S478,344.4,478,344.4l14.42-6-.27,49.74h6.59c-.15-10.85.31-36.44.31-50.91l6.67,3.5-1.89-8,4.25,3.52a102.78,102.78,0,0,1,10.2,4.49c1.17,1-10.48-11.21-10.48-11.21a68.53,68.53,0,0,1,7.48,5.9,1.83,1.83,0,0,0,2.51.56,1.9,1.9,0,0,0,.73-.92s4.49,1.17,7.38,2.17-2.36-4.07-2.36-4.07,9.73,1.3,6.06-.44-17.56-15.29-17.56-15.29h3.24l3.84,1.7-3-4.5,10.9,2.64-3.23-2.64c-1.18-.92-4.72-4.37-5.32-4.88s3.84-1,2.07-2.09-6.18-3.88-7.37-5.57-9.43-8.46-9.43-8.46,4.72,1.6,5.6,1.69,8.55,2.81,8.55,2.81l-5-4.49,7.67,1-3.25-2.35s-4.12-3.83-5.55-4,1.13-2.47-1.82-3.74a67.2,67.2,0,0,1-9.13-6.1L499.18,276l7.37,1.65-2.37-4.3s13.57,4.49,4.72-.79-16.22-19.47-16.22-19.47-6.64,14.14-11.87,18.57,5.69-1.06,3.92.94-3.25,2.47-2.06,3.45,2-.66,2-.66h4.81L487,278.15s-12.45,10.35-9.88,10.26a45.27,45.27,0,0,0,5.54-.67s-4.45,6.15-5.95,6.36-5.33,3.71-5.33,3.71l9.36-3.22-8.18,10.16-2.65,5q2.67-1.19,5.45-2.1c1.92-.55-7.48,5.08-7.48,5.08l5.61-.65-5.34,5.33,6.94-3.87.3.34.74-.91,1.9-1.07-4.31,9.39Z" fill="#009444"></path>
  <g opacity="0.5" style="isolation:isolate">
    <path d="M460.13,333.11l6.33-.44-2.21,5.24,3.91.5,5.52-5.3,2.07,5-1.71,3.6s5-2.29,7.61-3.81S478,344.4,478,344.4l14.42-6-.27,49.74h6.59c-.15-10.85.31-36.44.31-50.91l6.67,3.5-1.89-8,4.25,3.52a102.78,102.78,0,0,1,10.2,4.49c1.17,1-10.48-11.21-10.48-11.21a68.53,68.53,0,0,1,7.48,5.9,1.83,1.83,0,0,0,2.51.56,1.9,1.9,0,0,0,.73-.92s4.49,1.17,7.38,2.17-2.36-4.07-2.36-4.07,9.73,1.3,6.06-.44-17.56-15.29-17.56-15.29h3.24l3.84,1.7-3-4.5,10.9,2.64-3.23-2.64c-1.18-.92-4.72-4.37-5.32-4.88s3.84-1,2.07-2.09-6.18-3.88-7.37-5.57-9.43-8.46-9.43-8.46,4.72,1.6,5.6,1.69,8.55,2.81,8.55,2.81l-5-4.49,7.67,1-3.25-2.35s-4.12-3.83-5.55-4,1.13-2.47-1.82-3.74a67.2,67.2,0,0,1-9.13-6.1L499.18,276l7.37,1.65-2.37-4.3s13.57,4.49,4.72-.79-16.22-19.47-16.22-19.47-6.64,14.14-11.87,18.57,5.69-1.06,3.92.94-3.25,2.47-2.06,3.45,2-.66,2-.66h4.81L487,278.15s-12.45,10.35-9.88,10.26a45.27,45.27,0,0,0,5.54-.67s-4.45,6.15-5.95,6.36-5.33,3.71-5.33,3.71l9.36-3.22-8.18,10.16-2.65,5q2.67-1.19,5.45-2.1c1.92-.55-7.48,5.08-7.48,5.08l5.61-.65-5.34,5.33,6.94-3.87.3.34.74-.91,1.9-1.07-4.31,9.39Z" fill="#fff"></path>
  </g>
  <path d="M402.52,321.77s-6.79,6.5-3,5.23,9.46-2.76,9.46-2.79a2.34,2.34,0,0,0,4.17.47,87.43,87.43,0,0,1,9.67-7.58s-15,15.6-13.48,14.37,13.09-5.76,13.09-5.76l5.45-4.49-2.43,10.25L434,327c0,19,.63,47.47.4,61.16h8.46l-.34-59.59L461,336.33S453,326.08,456.37,328s9.75,4.88,9.75,4.88l-2.19-4.63,2.65-6.42,7.1,6.79,5-.62-2.83-6.73,8.13.56-17.4-15.2-5.57-12,2.44,1.36.93,1.17.38-.44,9,5-6.86-6.85,7.21.84s-12.1-7.23-9.65-6.53,7,2.7,7,2.7L468,285.41l-10.48-13,12,4.12s-4.91-4.49-6.83-4.76-7.49-8.22-7.49-8.22a56.64,56.64,0,0,0,7.1.87c3.28.12-12.68-13.17-12.68-13.17l-3.12-3.56h6.16s1,2.1,2.54.85-.39-1.84-2.65-4.49,11.73,4.49,5-1.2-15.23-23.79-15.23-23.79-9.46,18.28-20.81,25,6,1,6,1l-3,5.52,9.46-2.11-2.27,3.09s-7.94,6.18-11.73,7.81-.49,4.57-2.32,4.8-7.12,5.16-7.12,5.16l-4.17,3,9.84-1.29-6.44,5.78s9.84-3.47,11-3.61,7.19-2.17,7.19-2.17-10.59,8.65-12.1,10.84-7.19,5.68-9.47,7.14,3.4,2,2.65,2.7-5.3,5.07-6.81,6.27-4.16,3.37-4.16,3.37L412,298l-3.79,5.74,4.93-2.17h4.16S399.45,319,394.75,321.2,402.52,321.77,402.52,321.77Z" fill="#39b54a"></path>
  <g opacity="0.3" style="isolation:isolate">
    <path d="M402.52,321.77s-6.79,6.5-3,5.23,9.46-2.76,9.46-2.79a2.34,2.34,0,0,0,4.17.47,87.43,87.43,0,0,1,9.67-7.58s-15,15.6-13.48,14.37,13.09-5.76,13.09-5.76l5.45-4.49-2.43,10.25L434,327c0,19,.63,47.47.4,61.16h8.46l-.34-59.59L461,336.33S453,326.08,456.37,328s9.75,4.88,9.75,4.88l-2.19-4.63,2.65-6.42,7.1,6.79,5-.62-2.83-6.73,8.13.56-17.4-15.2-5.57-12,2.44,1.36.93,1.17.38-.44,9,5-6.86-6.85,7.21.84s-12.1-7.23-9.65-6.53,7,2.7,7,2.7L468,285.41l-10.48-13,12,4.12s-4.91-4.49-6.83-4.76-7.49-8.22-7.49-8.22a56.64,56.64,0,0,0,7.1.87c3.28.12-12.68-13.17-12.68-13.17l-3.12-3.56h6.16s1,2.1,2.54.85-.39-1.84-2.65-4.49,11.73,4.49,5-1.2-15.23-23.79-15.23-23.79-9.46,18.28-20.81,25,6,1,6,1l-3,5.52,9.46-2.11-2.27,3.09s-7.94,6.18-11.73,7.81-.49,4.57-2.32,4.8-7.12,5.16-7.12,5.16l-4.17,3,9.84-1.29-6.44,5.78s9.84-3.47,11-3.61,7.19-2.17,7.19-2.17-10.59,8.65-12.1,10.84-7.19,5.68-9.47,7.14,3.4,2,2.65,2.7-5.3,5.07-6.81,6.27-4.16,3.37-4.16,3.37L412,298l-3.79,5.74,4.93-2.17h4.16S399.45,319,394.75,321.2,402.52,321.77,402.52,321.77Z" fill="#fff"></path>
  </g>
  <path d="M310.51,308.26l10.48-.73-3.65,8.67,6.45.81,9.15-8.75,3.4,8.27-2.82,6s8.18-3.8,12.57-6.29-6,10.71-6,10.71l23.84-9.9-.42,71.14H374.4c-.33-17.35.5-48.38.5-73.18l11,5.78-3.11-13.22,7,5.81s15,5.84,16.85,7.41-17.34-18.5-17.34-18.5,9,6.21,12.47,9.74,5.35-.61,5.35-.58,7.32,1.92,12.19,3.56-3.9-6.71-3.9-6.71,16.07,2.15,10-.73-29-25.26-29-25.26h5.42l6.33,2.8-4.88-7.38,18,4.34s-3.41-2.81-5.36-4.34-7.79-7.23-8.77-8.09,6.35-1.59,3.41-3.47-10.23-6.4-12.17-9.21-15.59-14-15.59-14,7.78,2.65,9.25,2.81,14.12,4.64,14.12,4.64L397.88,243l12.67,1.67-5.36-3.89s-6.81-6.33-9.18-6.63,1.87-4.09-3-6.2-15.13-10.05-15.13-10.05l-2.92-4,12.19,2.72-3.91-7.12s22.46,7.38,7.8-1.31-26.8-32.24-26.8-32.24-11,23.36-19.63,30.69,9.4-1.77,6.47,1.49-5.36,4.09-3.4,5.71,3.26-1.1,3.26-1.1h7.94l-4,4.59s-20.56,17.1-16.32,16.95a70.32,70.32,0,0,0,9.15-1.11s-7.26,10.24-9.73,10.59-8.79,6.14-8.79,6.14l15.45-5.31-13.48,16.76-4.39,8.22s5.86-2.56,9-3.47-12.41,8.41-12.41,8.41l9.26-1.07-8.83,8.8,11.49-6.41.49.57,1.2-1.5,3.14-1.75L333,288.68Z" fill="#39b54a"></path>
  <g opacity="0.2" style="isolation:isolate">
    <path d="M415.36,308.22s8.76,8.36,3.89,6.71-12.19-3.55-12.19-3.58-1.95,4.13-5.34.58a118.36,118.36,0,0,0-12.48-9.73s19.29,20.1,17.34,18.52-16.84-7.48-16.84-7.48l-7-5.8,3.12,13.22-11-5.73c0,7.84-.09,16.32-.18,24.8-.23,18.26-.54,36.5-.32,48.38H363.46l.27-48.49.13-22.65L340,326.86s10.36-13.19,6-10.7-12.58,6.29-12.58,6.29l2.82-6-3.34-8.24L323.78,317l-6.44-.8L321,307.5l-10.48.72,17.87-15.6,4.49-4,6.26-13.47.93-2-3.15,1.75-.93,1.17-.27.34-.18-.19-.31-.37L335,276l-11.27,6.27,8.84-8.8h-.5l-8.78,1s15.56-9.33,12.41-8.42-8.64,3.31-9,3.46l4.36-8.22,9-11,1.84-2.33h0l.12-.18,2.52-3.1-15.44,5.29c.38-.36,6.41-5.79,8.79-6.12,1.77-.26,6-5.65,8.28-8.63h0L347,234l.42-.57a1.33,1.33,0,0,0,.14-.19H347a67.93,67.93,0,0,1-8.53,1c-4.23.16,16.33-16.94,16.33-16.94l1.49-1.72,2.53-2.88h-7.9s-1.32,2.69-3.28,1.08.49-2.36,3.41-5.67-15.09,5.75-6.47-1.5a20.42,20.42,0,0,0,1.89-1.83c8.27-8.73,17.75-28.87,17.75-28.87s12.17,23.57,26.78,32.27-7.78,1.29-7.78,1.29l3.91,7.13-12.19-2.74,2.92,4s10.22,7.95,15.11,10,.64,5.9,3,6.19c1.74.22,5.9,3.74,8,5.55l1.21,1.1,5.36,3.89L397.79,243l8.28,7.49S393.4,246,392,245.82a82.76,82.76,0,0,1-8-2.39h0l-1.18-.39c.69.58,13.65,11.21,15.56,14s9.25,7.31,12.17,9.19-4.39,2.62-3.41,3.48,6.82,6.54,8.79,8.07,5.34,4.36,5.34,4.36l-18-4.36,4.88,7.39-6.33-2.92h-5.36s23,22.47,29,25.28S415.36,308.22,415.36,308.22Z" fill="#fff"></path>
  </g>
  <g opacity="0.3" style="isolation:isolate">
    <path d="M336.05,282.63a8.65,8.65,0,0,1-1,3.92A7.18,7.18,0,0,1,336.05,282.63Z" fill="#fff"></path>
  </g>
  <g opacity="0.3" style="isolation:isolate">
    <path d="M342.1,247.72a.38.38,0,0,1-.1.21h0c-.35-.53,0-1.49.61-1.28A6.17,6.17,0,0,1,342.1,247.72Z" fill="#fff"></path>
  </g>
  <g opacity="0.3" style="isolation:isolate">
    <path d="M361.91,281.15a2.82,2.82,0,0,1-.09.57A1.09,1.09,0,0,1,361.91,281.15Z" fill="#fff"></path>
  </g>
  <g opacity="0.3" style="isolation:isolate">
    <path d="M347.12,234a1.84,1.84,0,0,1-.85,1.17Z" fill="#fff"></path>
  </g>
  <g opacity="0.1" style="isolation:isolate">
    <path d="M354.86,217.37l1.5-1.72c1.11-.28,2.33,0,2,.93a14.2,14.2,0,0,1,12.79-.38c.15-1,.28-2,.45-3a74.07,74.07,0,0,0-6.22-7.25L363,208.84a89.35,89.35,0,0,0-6-9.39c-3.22,2.24-6.11,5.1-9.57,7a8.51,8.51,0,0,0-.95-1.69c8.26-8.73,17.74-28.87,17.74-28.87s12.17,23.57,26.79,32.27-7.79,1.29-7.79,1.29l3.91,7.12L375,213.85l2.92,4s10.23,8,15.11,10.05.64,5.9,3,6.18c1.73.23,5.9,3.75,8,5.56-2.8-1.06-5.7-1.86-8.59-2.65a12.74,12.74,0,0,0-5.71-.65,20.66,20.66,0,0,0-3.28-4.4c-.37,1.26-.75,2.52-1.11,3.78a1.93,1.93,0,0,0-2.5,1.09,1.85,1.85,0,0,0-.13.66,35.73,35.73,0,0,0-10.81-10.11,8.23,8.23,0,0,1-1.61,6.75,6.88,6.88,0,0,0-4.49-6c-2.47-.69-5.52,1.29-5.36,3.81-.42-2.35-4.22-2.26-6.33-.9s-4.4,3.16-6.55,2.44a1,1,0,0,1-.28-.14.55.55,0,0,1-.25-.1v.15a67.93,67.93,0,0,1-8.53,1C334.3,234.5,354.86,217.37,354.86,217.37Z" fill="#fff"></path>
  </g>
  <g opacity="0.1" style="isolation:isolate">
    <path d="M425.45,307.55c-6.07-2.88-29-25.28-29-25.28h5.43l6.34,2.8-4.89-7.4,18,4.36s-3.41-2.8-5.34-4.36-7.8-7.23-8.79-8.07,6.35-1.59,3.41-3.47-10.23-6.4-12.17-9.2-14.87-13.38-15.56-14l1.18.39c-1.5-1.14-3-2.35-4.39-3.58v6l-4.14-5.16-1.64,4.49a4.17,4.17,0,0,0-5.29,2.62,4.49,4.49,0,0,0-.22,1.09,12.83,12.83,0,0,1-8.19-3.61l-4.38,2.91-1.5-3.68-2.43,3.3a10.46,10.46,0,0,1-.37-5,25.7,25.7,0,0,1-7.1,5.23,2.37,2.37,0,0,1-2.19.21A.6.6,0,0,1,342,248a8.57,8.57,0,0,1-2,2.39l-9,11-4.35,8.22c.34-.15,6-2.57,9-3.46s-12.41,8.42-12.41,8.42l8.77-1c.54-.34,1.09-.7,1.63-1.09.44,1.18.89,2.38,1.31,3.56l.13.35.39-.11.45-.15,3.14-.91,11.3-3.33c-.07,1.65-.13,3.3-.18,4.94a15.94,15.94,0,0,1,5.9-4.71c2.39-.86,5.54-.26,6.69,2a20.21,20.21,0,0,0,6.6-5.3c.25,3.58.5,7.17.74,10.75-1.73-.57-3.12,1.38-4.5,2.59s-3.74.84-3.9-.39c-.8,4.61-6.74,6.69-11.58,6.45s-10.38-1.75-14.88.48a6.44,6.44,0,0,1-.33-2.09,13.87,13.87,0,0,1-4.82,5c-.6.39-1.23.74-1.86,1.07l-17.7,15.55,10.48-.71-3.64,8.65,6.44.81,9.14-8.75,3.41,8.27-2.82,6s8.18-3.8,12.58-6.29-6,10.71-6,10.71L364,317v6l.51-.28a14.45,14.45,0,0,1,2.89-2.28,8,8,0,0,1,7.59-.3v-5.11l11,5.8-3.12-13.22,7,5.79s15,5.84,16.84,7.49-17.34-18.52-17.34-18.52a118.36,118.36,0,0,1,12.48,9.73c3.4,3.55,5.34-.6,5.34-.59s7.32,1.95,12.19,3.58-3.89-6.71-3.89-6.71S431.5,310.41,425.45,307.55Z" fill="#fff"></path>
  </g>
  <path d="M234.39,298.89S223.79,309,229.68,307s14.72-4.29,14.72-4.32,2.36,5,6.48.71,15.06-11.77,15.06-11.77S242.63,315.9,245,314s20.35-9,20.35-9l8.49-7-3.74,16,13.29-7c0,27.24.83,61.17.68,81.14h13l-.45-78.69,28.81,12s-12.53-15.95-7.23-12.94,15.18,7.6,15.18,7.6l-3.4-7.19,4.12-10,11.05,10.57,7.79-1L348.5,298l12.65.87-27.09-23.66-8.58-18.75,3.79,2.12,1.5,1.82.6-.69,13.88,7.76-10.78-10.65,11.2,1.31s-18.81-11.26-15-10.17,10.89,4.19,10.89,4.19l-5.3-9.93L319.94,222l18.66,6.41S331,221.41,328,221s-11.75-12.81-11.75-12.81a83.75,83.75,0,0,0,11,1.34c5.12.19-19.72-20.47-19.72-20.47l-4.87-5.54h9.6s1.59,3.24,3.94,1.3-.59-2.86-4.12-6.88,18.25,7,7.83-1.88S296.21,139,296.21,139s-14.72,28.45-32.38,38.93,9.42,1.57,9.42,1.57l-4.67,8.61,14.72-3.29-3.58,4.79s-12.35,9.61-18.24,12.16-.78,7.1-3.64,7.49-11.08,8-11.08,8l-6.48,4.69,15.3-2-10,9s15.3-5.42,17.07-5.62,11.19-3.38,11.19-3.38S257.36,233.39,255,236.79s-11.19,8.85-14.72,11.13,5.3,3.16,4.12,4.19-8.24,7.91-10.6,9.77-6.47,5.25-6.47,5.25l21.78-5.2-5.88,9,7.65-3.37h6.47s-27.7,27-35.07,30.47S234.39,298.89,234.39,298.89Z" fill="#009444"></path>
  <g opacity="0.1" style="isolation:isolate">
    <path d="M348.39,298l4.4,10.48-7.79,1L334,298.88l-4.12,10,3.4,7.19s-9.88-4.59-15.18-7.6,7.22,12.94,7.22,12.94l-28.78-12v3.4l.42,75.29h-13c.16-20-.68-53.9-.68-81.14l-1.21.64L269.94,314l3.77-16-8.47,7s-18,7.05-20.37,9,20.08-21.47,21-22.33c-.65.44-11,7.61-15,11.74s-6.48-.73-6.48-.7S235.56,305,229.66,307s4.71-8.11,4.71-8.11-17.29,2.3-13.1-.35c.32-.19.65-.36,1-.52,5.63-2.68,23.4-19.35,31.25-26.87,2.37-2.23,3.82-3.66,3.82-3.66h-6.47l-7.65,3.36,5.87-8.91-21.77,5.25s4.11-3.4,6.48-5.25c.55-.44,1.38-1.16,2.31-2h0c3-2.75,7.36-7,8.26-7.74,1.18-1-7.65-1.91-4.12-4.19s12.37-7.73,14.72-11.11,18.23-16.47,18.83-16.88c-.38.11-6.29,2.13-9.48,3a16.53,16.53,0,0,1-1.69.39c-1.77.19-17.08,5.6-17.08,5.6l10-9-15.31,2,6.47-4.7s8.25-7.66,11.1-8-2.26-4.93,3.64-7.49,18.13-12.27,18.13-12.27l3.53-4.82-1.82.41-12.85,2.92,4.72-8.6s-26.52,8.75-10-1.24l.54-.33C281.39,167.42,296.13,139,296.13,139s13.29,28.25,23.72,37.09-11.37-2.14-7.84,1.88,6.47,4.93,4.12,6.88-3.94-1.32-3.94-1.32H302.6l4.86,5.56s24.86,20.66,19.72,20.48a85.49,85.49,0,0,1-11.05-1.35s2.79,3.94,5.77,7.49c2.29,2.71,4.68,5.18,6,5.36,2.86.4,10.15,7,10.6,7.4L319.85,222l16.3,20.25.5.91,4.79,9c-.42-.18-7.17-3.1-10.87-4.18s15,10.17,15,10.17l-11.21-1.31L345,267.52l-13.88-7.74-.6.67-1.5-1.82-3.7-2.16L334,275.22l27,23.66Z" fill="#fff"></path>
  </g>
  <g opacity="0.5" style="isolation:isolate">
    <path d="M267.85,268l.73-.52C268.45,267.83,268.19,268.09,267.85,268Z" fill="#fff"></path>
  </g>
  <g opacity="0.3" style="isolation:isolate">
    <path d="M327.28,209.54a85.49,85.49,0,0,1-11-1.35s2.78,3.94,5.76,7.49a20.19,20.19,0,0,1-2.42-.45c-6.29-1.71-9.89-8.15-12.81-14a30.39,30.39,0,0,1,.66,14.09Q305.69,210,304,204.75l-.09,9.76A20.6,20.6,0,0,0,299.1,209a20.43,20.43,0,0,0-3.57,8.62,21.82,21.82,0,0,1-2.69-7.71V214l-2.47-5.78c-.54,1.78-1.1,3.55-1.65,5.33a3.17,3.17,0,0,0-2.59-2.47,13.4,13.4,0,0,0-3.83,6.12l.22-8.52A75.67,75.67,0,0,1,264.33,223a16.53,16.53,0,0,1-1.69.39c-1.77.19-17.08,5.6-17.08,5.6l10-9-15.31,2,6.47-4.7s8.25-7.66,11.1-8-2.26-4.93,3.64-7.49,18.25-12.22,18.25-12.22l3.53-4.82-1.82.4A31.11,31.11,0,0,1,294,178.69c.48-.12,1.13.21,1.15.51,2.13-3.23,4.24-6.48,6.35-9.72a21.13,21.13,0,0,1-10.75,6.37l-1.05-6.52-12.74,7.93c-.56-1.5-1.11-3.09-1.68-4.65a104.31,104.31,0,0,1-12,5.6l.54-.33C281.44,167.4,296.18,139,296.18,139S309.47,167.21,319.9,176s-11.37-2.14-7.83,1.89,6.46,4.93,4.11,6.87-3.94-1.31-3.94-1.31h-9.59l4.86,5.55S332.42,209.72,327.28,209.54Z" fill="#fff"></path>
  </g>
  <g opacity="0.3" style="isolation:isolate">
    <path d="M348.53,298l4.4,10.48-7.79,1-11.05-10.59-4.12,10,3.4,7.19s-9.88-4.58-15.18-7.59,7.22,12.94,7.22,12.94l-28.78-12v3.4a5.59,5.59,0,0,0-4.68-1.1,3.09,3.09,0,0,0-1.31-4l-3.18,3.73c-.9-2.29-1.82-4.49-2.72-6.86q-1.26,1.5-2.61,3L270.08,314l3.77-16-8.47,7s-18,7.05-20.37,9,20.08-21.48,21-22.33c-.65.43-11,7.61-15,11.74s-6.48-.74-6.48-.71-8.82,2.33-14.72,4.32,4.71-8.12,4.71-8.12-17.29,2.31-13.1-.34a57,57,0,0,0,22.82-10.81l-3.1,7.48L264,285.19a7.3,7.3,0,0,0,.51,4.49A12.63,12.63,0,0,0,272,286a11.23,11.23,0,0,1,.12,7.31l8.35-4.38a21.88,21.88,0,0,0,8.75,9.54,31.46,31.46,0,0,1,3.95-11.6,61.4,61.4,0,0,1,12.07,8.38l3-4.73a12.54,12.54,0,0,0,14.67,1.32,2.73,2.73,0,0,1,2.17-3.19l.38,0a53.24,53.24,0,0,0-12.13-15.75c-1.17,1.5-2.37,3-3.54,4.49-1.27-.82-2.56-1.63-3.84-2.44a5.82,5.82,0,0,1-4.29,3c-1.19-3.28-2.41-6.58-3.61-9.87-.79,1.9-3.68,1.5-5.33.34s-3-3.11-5-3.44c-3.56-.58-6.12,3.82-9.72,4.28l-1.21-7-8.16,5.2a1,1,0,0,0-.31-1.11,2.51,2.51,0,0,0-2.27.28l-12,5.71a7,7,0,0,1-.44-1.23c2.37-2.23,3.82-3.67,3.82-3.67h-6.47l-7.65,3.37,5.87-8.91-21.77,5.24s4.11-3.4,6.48-5.24c.55-.45,1.38-1.17,2.31-2h0q7-4.12,14.37-7.73l-1.75,4.31,13.93-11a32.81,32.81,0,0,0-7.79,13.78,86.25,86.25,0,0,0,15.8-14.68,18.33,18.33,0,0,0-1.5,8.76,11,11,0,0,0,9.33-4.83l.75,5.22A73.68,73.68,0,0,0,285.91,243c.19,1.5.38,2.89.59,4.33.59,3,1.16,6,1.74,9l5.75-9.22c.8,3,1.5,6.06,2.32,9.1a10.49,10.49,0,0,1,7.91,7q1.27-2.58,2.57-5.14a17.41,17.41,0,0,0,10.88,4.64l-6.7-16c-.51,1.6-1,3.22-1.5,4.82l-5.57-6.17-2,2.65a52.44,52.44,0,0,1-6.68-22c2.26.24,3.26,2.86,4.67,4.64s5.2,2.07,5.14-.2a72.69,72.69,0,0,1,15.24,10.34q-.11-3.69-.19-7.39a26.38,26.38,0,0,0,16.8,9.65l4.79,9c-.42-.18-7.17-3.1-10.87-4.18s15,10.17,15,10.17l-11.21-1.3,10.69,10.65-13.88-7.75-.6.68-1.5-1.83-3.76-2,8.69,18.75,27,23.66Z" fill="#fff"></path>
  </g>
  <path d="M273.73,293s13.22,12.62,5.89,10.12-18.39-5.34-18.39-5.39-3,6.22-8.09.89S234.93,284.35,234.36,284c.86.89,29,30.25,26.15,27.91s-25.46-11.2-25.46-11.2l-10.58-8.74,4.71,19.94-16.6-8.73v2.34c0,35.17-1.19,59.79-.78,82.67H195.51l.52-79.72v-2.22l-35.94,15s15.64-19.92,9-16.16-19,9.48-19,9.48l4.24-9-5.13-12.47-13.79,13.19L125.71,305,131.22,292l-15.8,1.09,19.19-16.77,14.63-12.77,9.31-20.16,1.5-3.25-4.75,2.64L153.55,245l-.75-.85-17.33,9.69,13.32-13.33-14,1.62s23.5-14.06,18.73-12.68-13.59,5.22-13.59,5.22l6.62-12.38,6.18-7.68,14.2-17.52-23.29,8,.82-.74c2.4-2.11,9.38-8.07,12.43-8.49,3.7-.52,14.66-16,14.66-16a102.89,102.89,0,0,1-13.79,1.6c-3.16.11,2.83-6.15,9.7-12.48s15-13.08,15-13.08l6.08-6.93h-12s-2,4.06-4.93,1.65.74-3.58,5.14-8.6c3-3.46-9,2-12.41,2.1-1.5,0-1.38-1,2.65-4.49,12.95-11,29.55-46.26,29.55-46.26S214.93,128.92,237,142c11.43,6.8,7.85,7.08,1.76,5.75-5.68-1.2-13.48-3.79-13.48-3.79l5.9,10.75-18.43-4.08,4.4,6s12.41,9.65,20.29,13.94c.9.48,1.75.9,2.5,1.24,7.35,3.17,1,8.87,4.49,9.33s13.85,10,13.85,10l8.09,5.85-19.11-2.5,12.49,11.23s-19.11-6.77-21.31-7a14.5,14.5,0,0,1-2.51-.58c-4-1.12-10.89-3.44-11.43-3.62.82.67,20.61,16.89,23.5,21.05s14,11,18.37,13.88-6.62,3.95-5.15,5.23,10.3,9.88,13.24,12.2,8.08,6.54,8.08,6.54l-27.21-6.54L262.68,258l-9.57-4.21h-8s5.12,5,12,11.43c10.93,10.23,26.18,24,31.81,26.68C298,296.26,273.73,293,273.73,293Z" fill="#009444"></path>
  <g opacity="0.5" style="isolation:isolate">
    <path d="M177.9,169.41a27.43,27.43,0,0,0,19.81-8.88L185.28,175c-.5-.7-1-1.5-1.5-2.16a21.52,21.52,0,0,0-9.94,13.79l10.23-6.13c-9.27,12.47-26.76,15-39.6,23.77,2.4-2.11,9.38-8.07,12.43-8.49,3.7-.52,14.66-16,14.66-16a103,103,0,0,1-13.79,1.69c-3.16.11,2.83-6.15,9.7-12.48A21.67,21.67,0,0,1,177.9,169.41Z" fill="#fff"></path>
  </g>
  <g opacity="0.5" style="isolation:isolate">
    <path d="M212,142.55A59.75,59.75,0,0,1,198.2,121q-.76,9.58-1.5,19.17a77.56,77.56,0,0,1-6.15-12.67,23.8,23.8,0,0,1-10.8,12.94c1.5-4.78,2.89-9.52,4.35-14.29-6.65,7.78-11.68,13.77-19.69,18-1.5,0-1.38-1,2.65-4.49,12.89-11,29.49-46.3,29.49-46.3S214.93,128.92,237,142c11.43,6.8,7.85,7.08,1.76,5.75-9.14-3.52-17.67-8.41-22.05-16.9-.76,1.88-3.56.12-4.49-1.67A45.26,45.26,0,0,1,212,142.55Z" fill="#fff"></path>
  </g>
  <g opacity="0.5" style="isolation:isolate">
    <path d="M247.27,194.51l12.49,11.23s-19.11-6.77-21.31-7a15.48,15.48,0,0,1-2.51-.58,33,33,0,0,1-8.27-10.26l-1.5,4a12.2,12.2,0,0,0-11.29-5.79l-9.45-7a27.15,27.15,0,0,1-2.74-18.6,21.45,21.45,0,0,1,7.78,8.89,19.46,19.46,0,0,1-.24-10.27A235,235,0,0,1,228.34,175c0-2.61,0-5.22.11-7.82a26.89,26.89,0,0,0,10.14,7l-1.22-3.61c.9.48,1.76.9,2.5,1.25,7.36,3.17,1,8.86,4.5,9.32s13.85,10,13.85,10L266.3,197Z" fill="#fff"></path>
  </g>
  <g opacity="0.5" style="isolation:isolate">
    <path d="M260.36,255.93a186.06,186.06,0,0,1-22.58-8.73c-.51.93-1,1.89-1.5,2.83a6.1,6.1,0,0,1-2.6-2.17l-4.83,8.19a65.85,65.85,0,0,0-7.48-13.36c-1.08,2.88-2.17,5.77-3.27,8.64a78,78,0,0,1-9.25-10.48A32.89,32.89,0,0,0,199.43,255c-1.72-2.83,1.15-7.84-1.86-9.22-1.72-.8-3.56.72-4.82,2.11-.37-1.5-.76-3-1.14-4.39a3.54,3.54,0,0,0-3.67,2L186.69,243a49,49,0,0,1-11,5.47,22.92,22.92,0,0,1,1-11.61l-7.48,4.35a6.74,6.74,0,0,1,.16-4.39,41.58,41.58,0,0,0-10.62,6.47l1.5-3.25-4.74,2.63L153.55,245l-.75-.85-17.33,9.69,13.32-13.33-14,1.62s23.5-14.06,18.73-12.68-13.59,5.22-13.59,5.22l6.62-12.38,6.18-7.68a4.73,4.73,0,0,1,.27,1.49c12.83-2,24.47-12.81,34-21L180,211.88a7.85,7.85,0,0,0,4.27-3l.58,4.49a31.22,31.22,0,0,0,6.16-6c-1.5,9.77-4.85,19.11-8.19,28.45a48.17,48.17,0,0,0,12.88-17.5,112.59,112.59,0,0,0-1.95,12.4,7.32,7.32,0,0,0,2.9-3.28,17.21,17.21,0,0,0,2.65,9c3.19-1.49,4.36-5.45,4.5-9s-.27-7.2,1.11-10.48a83,83,0,0,0,8.28,17.22,67.48,67.48,0,0,0,.22-13.48,117.35,117.35,0,0,0,19,22.33,40.9,40.9,0,0,0-.82-10.3c3,1.84,5.06,5,7.35,7.72s5.11,5.15,8.49,5.3A74,74,0,0,0,260.36,255.93Z" fill="#fff"></path>
  </g>
  <g opacity="0.5" style="isolation:isolate">
    <path d="M247.87,245.84h-.43c-1.14-1.11-2.23-2.25-3.3-3.42Z" fill="#fff"></path>
  </g>
  <g opacity="0.5" style="isolation:isolate">
    <path d="M273.73,293s13.22,12.62,5.89,10.12-18.39-5.34-18.39-5.39-3,6.22-8.09.89S234.93,284.35,234.36,284c.86.89,29,30.25,26.15,27.91s-25.46-11.2-25.46-11.2l-10.58-8.74,4.71,19.94-16.6-8.73v2.34a10.28,10.28,0,0,1-1-4.07,93.33,93.33,0,0,1-3.16,15,38.39,38.39,0,0,1-.35-9.15c-.31,1.09-.61,2.2-.94,3.3a7,7,0,0,1-2.59-5l-4,7.21-.32-8.24a17.68,17.68,0,0,0-4.17,3.88v-2.22l-35.94,15s15.63-19.92,9-16.16-18.94,9.48-18.94,9.48l4.24-9L149.22,293l-13.79,13.19L125.7,305l5.51-13.07L115.41,293l19.18-16.77a24.28,24.28,0,0,1,.15,6.81,5.46,5.46,0,0,1,3.57,1.11L152,274.45c-1.14,2.77-2.29,5.56-3.43,8.36l11-2.56c.23,3.2.47,6.41.71,9.61a6,6,0,0,0,4.26-1.12,2.26,2.26,0,1,0,4.29,1.18c.73,1.5,1.49,2.89,2.15,4.34a90.72,90.72,0,0,0,10.82-17q-.32,9-.65,18a2.12,2.12,0,0,1,3.09,2c.67-1.95,1.61-4.06,3.5-4.9s4.72.83,4.07,2.79a6.68,6.68,0,0,0,3-5.29l4.91,5.84a25.68,25.68,0,0,0,2.83-6.83c1,1.5,2,3,3,4.41.32-4.9.39-9.81.29-14.69l6.57,10.28a38.71,38.71,0,0,1,2.38-7.81,22,22,0,0,0,5.72,6l1.35-2.46a8.12,8.12,0,0,1,3,2.61,59.07,59.07,0,0,0-2-13.48,88.48,88.48,0,0,0,9.84,18.34q-.49-8.7-1-17.4a26.78,26.78,0,0,0,7.29,8.78c.36-1.27.74-2.56,1.11-3.85a34.21,34.21,0,0,1,9.49,7.05,9,9,0,0,0,1.93,1.71,7.72,7.72,0,0,0,2.91.66l6.27.6a19,19,0,0,0-3.9-16.17c1.07,1,2.18,2,3.26,3.06a31.72,31.72,0,0,1-3-11.23c10.93,10.23,26.17,24,31.8,26.69C298,296.26,273.73,293,273.73,293Z" fill="#fff"></path>
  </g>
  <path d="M750,301.59s7,9.92,3,8-10-4.2-10-4.23-1.75,4.88-4.49.68a106.27,106.27,0,0,0-10.06-11.56s15.41,23.86,13.83,22-13.79-8.82-13.79-8.82l-5.66-6.89,2.17,15.71-9-6.88c-.74,26.76-2.22,60.09-2.65,79.71h-9l2.41-77.3-20.17,11.76s9.06-15.66,5.32-12.71-10.66,7.48-10.66,7.48l2.54-7.08-2.57-9.81L673.27,312l-5.34-1,3.32-10.29-8.74.87,19.36-23.25,6.5-18.39L685.7,262l-1.06,1.78-.39-.66-9.78,7.61,7.65-10.48-7.75,1.27s13.26-11.07,10.61-10a78.8,78.8,0,0,0-7.62,4.12l3.92-9.75L693.07,226l-13,6.31s5.46-6.88,7.48-7.3,8.43-12.56,8.43-12.56a42.08,42.08,0,0,1-7.65,1.32c-3.53.18,14.15-20.13,14.15-20.13l3.51-5.43h-6.62s-1.19,3.19-2.76,1.28.5-2.81,3-6.76-12.76,6.84-5.33-1.85,17.34-36.43,17.34-36.43,9.37,28,21.27,38.28-6.54,1.49-6.54,1.49l3,8.45-10-3.13,2.31,4.73s8.26,9.44,12.25,12,.34,7,2.3,7.35,7.49,7.88,7.49,7.88l4.34,4.61-10.48-2,6.65,8.83s-10.41-5.32-11.62-5.5a74.58,74.58,0,0,1-7.61-3.33s11,13.25,12.54,16.59,7.48,8.68,9.83,10.91-3.72,3.12-3,4.12,5.46,7.77,7,9.6l4.34,5.06-14.87-5.15,3.82,8.77-5.2-3.32H735s18.4,26.59,23.36,29.95S750,301.59,750,301.59Z" fill="#39b54a"></path>
  <g opacity="0.1" style="isolation:isolate">
    <path d="M671.33,300.69,668,311l5.35,1,7.9-10.39,2.58,9.83-2.55,7.06s6.94-4.49,10.66-7.49-5.31,12.71-5.31,12.71l20.17-11.75-.11,3.34-2.42,74h9c.42-19.63,1.92-53,2.65-79.72l.81.63,8.16,6.23-2.17-15.68,5.66,6.87s12.22,6.93,13.79,8.81-13.26-21.1-13.82-21.94a103,103,0,0,1,10,11.53c2.72,4.19,4.49-.72,4.49-.69s6,2.28,10,4.24-3-8-3-8,11.86,2.27,9-.33a5.39,5.39,0,0,0-.67-.51c-3.81-2.64-15.61-19-20.83-26.4-1.5-2.19-2.53-3.61-2.53-3.61h4.49l5.19,3.32-3.81-8.76,14.91,5.16s-2.76-3.33-4.33-5.14c-.37-.45-.91-1.14-1.5-2h0c-2-2.71-4.89-6.83-5.49-7.59-.78-1,5.33-1.89,3-4.12S739,244,737.47,240.63,725.23,224.5,724.84,224c.26.1,4.29,2.09,6.47,3a7.78,7.78,0,0,0,1.15.39c1.22.19,11.61,5.5,11.61,5.5L737.42,224l10.48,2-4.34-4.61s-5.48-7.49-7.49-7.88,1.7-4.85-2.3-7.35-12.25-12-12.25-12l-2.28-4.65,1.25.41,8.82,2.84-3-8.44s18,8.58,6.9-1.23l-.37-.31c-11.88-10.34-21.26-38.31-21.26-38.31s-9.93,27.76-17.34,36.45,7.87-2.11,5.34,1.86-4.6,4.83-3,6.73,2.75-1.28,2.75-1.28H706l-3.5,5.45s-17.69,20.3-14.14,20.12a43.86,43.86,0,0,0,7.65-1.31s-2,3.86-4.18,7.32c-1.64,2.65-3.36,5.07-4.26,5.25-2,.39-7.19,6.86-7.49,7.27l13-6.29L681.27,246l-.36.9-3.6,8.77a76.36,76.36,0,0,1,7.61-4.1c2.65-1.1-10.61,10-10.61,10l7.75-1.27-7.65,10.48,9.78-7.61.39.68,1-1.8,2.68-2.08-6.5,18.4-19.3,23.23Z" fill="#fff"></path>
  </g>
  <g opacity="0.5" style="isolation:isolate">
    <path d="M727.73,271.2l-.46-.46C727.33,271.07,727.49,271.32,727.73,271.2Z" fill="#fff"></path>
  </g>
  <g opacity="0.3" style="isolation:isolate">
    <path d="M688.35,213.79a43.86,43.86,0,0,0,7.65-1.31s-2,3.86-4.18,7.32a10,10,0,0,0,1.7-.47c4.37-1.66,7-8,9.19-13.74a42.71,42.71,0,0,0-.84,13.85c.9-3.48,1.78-6.93,2.68-10.39,0,3.2-.13,6.39-.19,9.59a20.85,20.85,0,0,1,3.43-5.46A25.15,25.15,0,0,1,710,221.7a28.87,28.87,0,0,0,2.06-7.58v4l1.84-5.68c.33,1.75.66,3.49,1,5.24a2.81,2.81,0,0,1,1.84-2.42,14.54,14.54,0,0,1,2.49,6c0-2.79,0-5.58.07-8.36A57.47,57.47,0,0,0,731.43,227a6.74,6.74,0,0,0,1.15.38c1.22.2,11.61,5.5,11.61,5.5L737.54,224,748,226l-4.34-4.61s-5.48-7.49-7.49-7.88,1.7-4.85-2.3-7.35-12.25-12-12.25-12l-2.34-4.61,1.25.4a19.44,19.44,0,0,0-8.45-6.34.65.65,0,0,0-.8.47v0l-4.12-9.55a14.12,14.12,0,0,0,7.24,6.25l.89-6.4c2.86,2.6,5.72,5.21,8.58,7.78l1.28-4.49a65.32,65.32,0,0,0,8.08,5.5l-.37-.32c-11.88-10.33-21.26-38.3-21.26-38.3s-9.93,27.76-17.34,36.44,7.87-2.11,5.34,1.86-4.6,4.84-3,6.74,2.75-1.29,2.75-1.29H706l-3.5,5.45S684.86,214,688.35,213.79Z" fill="#fff"></path>
  </g>
  <g opacity="0.3" style="isolation:isolate">
    <path d="M671.39,300.73,668.06,311l5.35.95,7.9-10.39,2.58,9.84-2.55,7S688.28,314,692,311s-5.31,12.71-5.31,12.71l20.17-11.76-.11,3.34c1-.9,2.16-1.6,3.25-1.06a3.84,3.84,0,0,1,1-4c.7,1.21,1.39,2.44,2.09,3.67l2.07-6.74c.54,1,1.11,2,1.71,3l8.16,6.23-2.17-15.68,5.66,6.88s12.22,6.93,13.79,8.8-13.27-21.1-13.82-21.94a105.78,105.78,0,0,1,10,11.53c2.73,4.2,4.5-.71,4.5-.68s6,2.27,10,4.23-3-8-3-8,11.86,2.28,9-.33a34.63,34.63,0,0,1-15.45-10.61c.64,2.45,1.3,4.92,1.95,7.39l-15.49-9.88a9.79,9.79,0,0,1-.48,4.49,7.85,7.85,0,0,1-5-3.64,15.61,15.61,0,0,0-.28,7.19l-5.65-4.3a21.11,21.11,0,0,1-6.27,9.38,40.41,40.41,0,0,0-2.41-11.4,47.55,47.55,0,0,0-8.55,8.22c-.63-1.49-1.27-3.08-1.9-4.64-2.79,3.5-7.15,4-10.14,1.29.3-1.5-.58-3.19-1.68-3.18a56.13,56.13,0,0,1,8.79-15.46l2.31,4.4,2.72-2.4a4.2,4.2,0,0,0,2.85,2.86c.91-3.23,1.84-6.47,2.75-9.72.5,1.89,2.49,1.5,3.66.35s2.15-3,3.56-3.39c2.47-.56,4.12,3.76,6.59,4.21l1-6.83,5.36,5.2a1.2,1.2,0,0,1,.24-1.08c.48-.39,1.08,0,1.5.27l8.11,5.6a8.19,8.19,0,0,0,.33-1.2c-1.5-2.18-2.53-3.61-2.53-3.61h4.49l5.2,3.33-3.82-8.76,14.9,5.15s-2.76-3.32-4.33-5.14c-.37-.45-.91-1.13-1.5-2h0q-4.75-4-9.7-7.57c.36,1.4.72,2.81,1.09,4.22L732,249.16a36.79,36.79,0,0,1,5,13.48,72.82,72.82,0,0,1-10.48-14.42,24.54,24.54,0,0,1,.85,8.61c-2.53.12-5-1.75-6.32-4.75l-.65,5.14a80.81,80.81,0,0,1-4.24-10.56c-.18,1.5-.35,2.83-.53,4.25-.49,3-1,6-1.49,9l-3.76-9.12c-.63,3-1.23,6-1.84,9-2.53.68-4.78,3.43-5.65,6.89-.54-1.68-1.08-3.37-1.63-5a11,11,0,0,1-7.61,4.56l5-15.69.9,4.73,4-6.06c.44.87.89,1.73,1.34,2.6a69.2,69.2,0,0,0,5.18-21.62c-1.5.24-2.32,2.8-3.34,4.49s-3.64,2-3.52-.19a56.08,56.08,0,0,0-10.8,10.13c.12-2.41.23-4.82.35-7.23-3,5.11-7.32,8.54-11.85,9.47l-3.52,8.88a74.44,74.44,0,0,1,7.61-4.11c2.65-1.09-10.61,10-10.61,10l7.75-1.28-7.65,10.48,9.78-7.6.39.67,1.05-1.8,2.68-2.08-6.5,18.41-19.3,23.22Z" fill="#fff"></path>
  </g>
  <path d="M136.81,339.41c-2.1,4.66-3.21,9.45-5.6,14.09s-2.19,6.82-1.66,11.41c.8,7.14-1.5,12.39-6.16,19.12-6.08,8.75.11,14-1.26,22.68-.7,4.49-8,14.28-4.32,16.47,1.75,1.09,5.42.84,7.48,1.27a22.28,22.28,0,0,1,8,3c5.39,3.61,4.87,11.49,9.13,15.59,44,1,449.23-63.83,449.23-63.83s-2.83-2.62-2.7-5.32-8.05-6.51-11.42-7.72-3.24-.42-6.41.08-4-.1-7.77-1.42-11-4.49-17.18-7.26-11.48,6.68-15.65,9.75-6-1.15-8.31-1.29-10.31,1.39-17.2,1-5.74.41-10,6.58-8.55-1.66-8.55-1.66-5.17-1.07-7.05-1.2a6.77,6.77,0,0,0-2.2,0s-12.37-2-13.17-1.86-4.1-4.28-4.1-4.28-3.37-.18-5.08-.09a7,7,0,0,1-4.16-1.62c-.63-.52-5.12,3.21-9.58,3s-6.2-.53-8.49-.12-2.32.64-5.35,3-6.18-.73-16.17,0c0,0-9,3-13.39,1.41s-4.34-.69-4.34-.69a55.57,55.57,0,0,0-9.58-6.26c-3.76-1.59,0,0-1.67-.21s-6.31,1.24-9.64,6-5.75,1-10.24,1.08-8.72-2.19-9.67-3.43-2.18-5.09-13.74-2.4-13.11-10.06-18.77-10.48-4.5,9.09-8.31,5.8-2.55,2.48-4.71,9.73-4.13,1.66-4.49,0-8.26.07-14.25,3-9.47.17-12.21,0-4.07,1.25-5.81,1.7-16.87-1.5-17.23-2.64a18,18,0,0,0-1.69-3s-9.8-6-9-12.49-6.09,2.45-6.09,2.45-4.6-2.15-8-1.49-6.3,10.28-9.82,8.7-5.27-1-12.3,4.19-9.48,3-11,2.57-4.81-3.17-14-6-7.1.17-12-2.35-8.24-16.47-13-21.47c-4-4.13-11.12-8.5-19.13-3.88A4.12,4.12,0,0,1,136.81,339.41Z" fill="#92e3a9"></path>
  <g opacity="0.5" style="isolation:isolate">
    <path d="M136.81,339.41c-2.1,4.66-3.21,9.45-5.6,14.09s-2.19,6.82-1.66,11.41c.8,7.14-1.5,12.39-6.16,19.12-6.08,8.75.11,14-1.26,22.68-.7,4.49-8,14.28-4.32,16.47,1.75,1.09,5.42.84,7.48,1.27a22.28,22.28,0,0,1,8,3c5.39,3.61,4.87,11.49,9.13,15.59,44,1,449.23-63.83,449.23-63.83s-2.83-2.62-2.7-5.32-8.05-6.51-11.42-7.72-3.24-.42-6.41.08-4-.1-7.77-1.42-11-4.49-17.18-7.26-11.48,6.68-15.65,9.75-6-1.15-8.31-1.29-10.31,1.39-17.2,1-5.74.41-10,6.58-8.55-1.66-8.55-1.66-5.17-1.07-7.05-1.2a6.77,6.77,0,0,0-2.2,0s-12.37-2-13.17-1.86-4.1-4.28-4.1-4.28-3.37-.18-5.08-.09a7,7,0,0,1-4.16-1.62c-.63-.52-5.12,3.21-9.58,3s-6.2-.53-8.49-.12-2.32.64-5.35,3-6.18-.73-16.17,0c0,0-9,3-13.39,1.41s-4.34-.69-4.34-.69a55.57,55.57,0,0,0-9.58-6.26c-3.76-1.59,0,0-1.67-.21s-6.31,1.24-9.64,6-5.75,1-10.24,1.08-8.72-2.19-9.67-3.43-2.18-5.09-13.74-2.4-13.11-10.06-18.77-10.48-4.5,9.09-8.31,5.8-2.55,2.48-4.71,9.73-4.13,1.66-4.49,0-8.26.07-14.25,3-9.47.17-12.21,0-4.07,1.25-5.81,1.7-16.87-1.5-17.23-2.64a18,18,0,0,0-1.69-3s-9.8-6-9-12.49-6.09,2.45-6.09,2.45-4.6-2.15-8-1.49-6.3,10.28-9.82,8.7-5.27-1-12.3,4.19-9.48,3-11,2.57-4.81-3.17-14-6-7.1.17-12-2.35-8.24-16.47-13-21.47c-4-4.13-11.12-8.5-19.13-3.88A4.12,4.12,0,0,1,136.81,339.41Z" fill="#fff"></path>
  </g>
  <path d="M109.85,399.89c1.76-.42,2.74-2.29,3.19-4a14.6,14.6,0,0,1,1.68-5.1,10.16,10.16,0,0,1,2.32-2,24.81,24.81,0,0,1,5.56-3.36,8.23,8.23,0,0,1,6.35,0c.42.2.85,0,.8-.4,15.44,3.16,21.33,12.82,36.77,8s18.35-6.09,30.86-4.73,13.22-.63,25.72,0,17-1.36,24,0,24.56-.54,29-3.26,14.7-1.86,24.27-1.92,8.07-1.5,19.09,0,12.51,1.5,22.06-3,6.62-6.77,17.64-3.76a125.05,125.05,0,0,0,30.14,3.76c6.62,0,12,1.49,23.23-1.43,8.28-2.18,17.16-2.29,25.66-2.39h.23c3.83,0,8.37-.66,12.14,0,2,.36,3,1.5,4.82,2.26a16.21,16.21,0,0,0,8.1.85c3.72-.4,7.33-1.5,11-1.7,6.28-.41,12.48,1.63,18.79,1.63a85.07,85.07,0,0,1,10-.17c2.34.29,4.6,1.05,6.92,1.5a46.33,46.33,0,0,0,8.65.43q22.65-.18,45.26,1.5c22.61,1.68-309.85,24.6-332.54,26.24l-56.9,4-36.4,2.56-5.14.37c-1.1,0-2.21.15-3.31.23-3.18.25-7.9,1.74-11.09,2" fill="#fff"></path>
  <g clip-path="url(#a)">
    <g opacity="0.4" style="isolation:isolate">
      <path d="M564,382.49s-61.9,6.79-65.48,7.13l-1.39.09c-1.5.15-2.88.21-4.32.31l-14.12,1-46.34,3.31-62.8,4.49-70,5-68,4.88-56.9,4-36.39,2.62-5.14.37c.78-8.8,4.36-19.94,11.64-17.65,2.81.9,5.42,2.61,8.35,2.9,3.51.35,6.82-1.34,10.07-2.71,12.13-5.06,25.6-5.67,38.75-6.22l22.1-.9a342.94,342.94,0,0,1,34.83-.26c4.31.27,8.73.69,12.86-.55,2.7-.8,5.14-2.26,7.78-3.16a39.5,39.5,0,0,1,11.65-1.5l41-1.11c4.18-.12,8.54-.28,12.17-2.33a43.39,43.39,0,0,1,5.22-3.16c3.17-1.25,6.75-.38,10.06.37a145.44,145.44,0,0,0,57.41,1c7.08-1.27,14.06-3,21.13-4.28h.22c3.84,0,8.37-.66,12.15,0,2,.36,3,1.5,4.82,2.26a16.19,16.19,0,0,0,8.1.85c3.71-.4,7.32-1.49,11-1.7,6.29-.41,12.49,1.63,18.79,1.63a85.2,85.2,0,0,1,10-.17c2.33.29,4.59,1.05,6.91,1.5a46.48,46.48,0,0,0,8.66.43Q541.41,380.77,564,382.49Z" fill="#92e3a9"></path>
    </g>
  </g>
  <path d="M699.84,377.37c-325.32-.76-574.71,31-574.71,31s-31.85,23.18-12.78,28.68-6.46,19.61,3.27,27.19S151.47,482.53,134,491s-39.84,43.23,0,56.15-1.78,23.29,4.17,44,24.67,49.07,118.44,49.07,73.88,9.92,102.54,17.24,90.1,9.16,129.4,9.36,28.69-14.15,52.73-14.15,106.5-.26,122.61-5.63-4.85-20.26,18.3-21.09,45.21-12.77,35.28-26.65-30.86-60.54-11-68.07,8.19-32,13.48-57.28,5.28-64.39-4.65-75.13,14.33-4.95,13.24-11.17S699.84,377.37,699.84,377.37Z" fill="#fff"></path>
  <g opacity="0.2" style="isolation:isolate">
    <path d="M715.2,398.81c9.91,10.77,9.91,49.88,4.66,75.14s6.38,49.72-13.48,57.25,1.09,54.21,11,68.09-12.15,25.81-35.28,26.65h-.86c-21.78,1.18-1.57,15.74-17.46,21.06s-98.56,5.63-122.61,5.63S527.74,667,488.48,666.78s-100.74-2-129.4-9.35-9-17.13-101-17.22h-1.5c-29.57,0-51.69-2.81-68.28-7.34-35.94-9.79-46-27.55-50.1-41.73-6-20.72,35.69-31.08-4.15-44s-17.48-47.72,0-56.15-8.66-19.14-18.41-26.7,15.77-21.64-3.31-27.19,12.78-28.68,12.78-28.68S328,382.55,606.32,378c30.31-.49,61.52-.73,93.46-.66,0,0,27.55,4.06,28.66,10.29S705.27,388.05,715.2,398.81Z" fill="#263238"></path>
  </g>
  <path d="M715.2,398.81c9.91,10.77,9.91,49.88,4.66,75.14s6.38,49.72-13.48,57.25,1.09,54.21,11,68.09-12.15,25.81-35.28,26.65h-.86c-21.78,1.18-1.57,15.74-17.46,21.06s-98.56,5.63-122.61,5.63S527.74,667,488.48,666.78s-100.74-2-129.4-9.35-9-17.13-101-17.22h-1.5c-29.57,0-51.69-2.81-68.28-7.34l1.05-14.46L604.75,378.54l1.57-.51c30.31-.49,61.52-.73,93.46-.66,0,0,27.55,4.06,28.66,10.29S705.27,388.05,715.2,398.81Z" fill="#39b54a"></path>
  <g opacity="0.7">
    <path d="M663.9,647c-16.11,5.39-98.56,5.63-122.61,5.63S527.81,667,488.55,666.81s-100.73-2-129.39-9.35S350,640.3,258.1,640.21l348-261.67h16.73L681.27,626C659.5,627.15,679.71,641.71,663.9,647Z" fill="#fff"></path>
  </g>
  <path d="M189.31,618.91a.51.51,0,0,1-.44-.25.51.51,0,0,1,.19-.68L604.5,378.11a.5.5,0,0,1,.5.86L189.56,618.84A.47.47,0,0,1,189.31,618.91Z" fill="#263238"></path>
  <path d="M193.1,645.54c-.15-3,2.72-5.25,5.61-5.88s5.89-.14,8.82-.39a17.63,17.63,0,0,0,6.39-1.86,4.07,4.07,0,0,0,2.37-2.45,3.57,3.57,0,0,0-1.65-3.36c-1-.79-2.29-1.32-3.25-2.21a5.75,5.75,0,0,1-1.18-6.59c2.5-5,6.89-.86,10.2-3.54,2.57-2.08,1.77-7.56,4.18-10.27,5-5.61,49-10.9,62.89-9.7s.55-5.06-11-11.91-8.27-9.15-5.81-11.62,29.51-5.24,41-6.66-6-4.64-6.54-9.22,11.57-7,19.46-12.57,16.85-4.36,26.78-7.66,3.85-3.85.54-9.21,21.21-18.15,30.87-18,19.3-4.21,14.24-6.52,5.06-4.31,17.75-12,50.7-3.3,46.84-6.06-2.49-3.31,1.23-6,4.17-3-1.77-4.49-11,.55-11-3.1,1.13-7,11.58-6.81,25.36-8.27,31.11-7.13-6.85-6.67-5.75-9.42c1-2.35,8.46-2.05,10.4-2.16,4.41-.25,9.32.74,12.77-1.78a4.53,4.53,0,0,1,2.15-.61,140.6,140.6,0,0,1,26.43-.24c2.85.24,6.17.85,8.91,0-3.59-1.83-9.82-1.5-13.86-2-2.67-.36-9.59-.17-11.65-2.18-1.25-1.19-9.26,1.2-13.07-1.84s4-6,4-6,4.27-.31,3.94-2,.88-3.4,11-4.62,19.06-6.37,14.8-8.58-1.5-3.77-.14-4.49,10.24-4.07,10.24-4.07,4.5-4.49,18.06-6.77,13-.61,8-3.85.09-1.65,12.64-3.85c5.61-1-3.28-4.49,4.49-4.38s-.58-4,1.84-3.31a10.76,10.76,0,0,0,2.89,0,.55.55,0,0,1,.62-.35c1.24.15,2.15-.76,3.25-1.18a14.15,14.15,0,0,1,3.54-.57c1.73-.19,3.45-.39,5.17-.63a10.17,10.17,0,0,1-5-1.5.72.72,0,0,1-.24-.94,2.64,2.64,0,0,1,2.59-1.27,13.62,13.62,0,0,0,3.64-.68,12,12,0,0,1,3.87-.31,19.1,19.1,0,0,0,2.14,0,15.53,15.53,0,0,0,2.2-.34c2.84-.44,5.72-.51,8.56-.93a57.09,57.09,0,0,1,7.58-1.05,21.28,21.28,0,0,1,2.76.15l1.49-.21c1.5-.2,5.33,0,6.37-1.17-2.35-.63-5,.29-7.37.11-1.68-.14-3.29-.71-5-1-4.87-.71-10.09,1.34-14.65-.54a14,14,0,0,0-1.85-.75c-3-.76-5.9,2-8.9,1.41-2.23-.44-3.67-2.53-5.06-4.35a1.65,1.65,0,0,0-.9-.7,1.47,1.47,0,0,0-1,.24,8.5,8.5,0,0,1-4,1.33c-1.5,0-3.2-.84-4.49,0a10.63,10.63,0,0,0-1.5,1.5c-1.4,1.27-3.53,1.11-5.43,1.05s-4.15.27-5,2a12.48,12.48,0,0,1-1,2.45,3.64,3.64,0,0,1-2,1,22.27,22.27,0,0,1-9.68.19,2.6,2.6,0,0,0-1.9.09,2.84,2.84,0,0,0-.81,1.35c-2.2,5.71-13.67,9.53-18.78,5.68-4.49-3.43-21.71,15.39-21.71,15.39L514.11,407l-5,4s-3-.5-16.17,5.16-3.7,6.61-10.39,9.8-29,6.15-29,6.15a145.3,145.3,0,0,1,18.43,0c8.48.69,0,5.81,0,5.81s-7.75,6-11.42,6.56-14,3.83-19.11,3.56-9.57,6.89-12.5,8.9-45.57,7.34-45.57,7.34,33.08.94,35.28.73-8.82,5.36-16.17,5.36-14.71,7.35-22.79,7.79-11.76,2.5-24.24,2.57-20.59,12.43-30.82,10.71-15.5,7.59-19.17,10.59-50,2.56-50,2.56L288.53,507c-14,10.26-5.16,12.54-18,24.13s-15.88,5.31-23.23,9-23.52,3-31.61,5.82-29.39,4.5-26.44,5.78,28.64,5.31,38.21,10.59-4.49,5-12.32,5.47-1.65,4.68-.18,7.9-5.89,4.87-25.71,8.51-23.83-.51-15.46,6.87c8.09,7.13-6.6,15.77-22.77,14.75s-8.82,14.48-8.82,14.48" fill="#fff"></path>
  <g clip-path="url(#b)">
    <g opacity="0.4" style="isolation:isolate">
      <path d="M582.23,381.25a6.08,6.08,0,0,0-3.1,1.12Z" fill="#92e3a9"></path>
    </g>
    <g opacity="0.4" style="isolation:isolate">
      <path d="M346.3,541c-7.91,1.73-15.11,1.7-21.7,6.29-8,5.57-20.08,8-19.47,12.58s18.06,7.8,6.55,9.22-38.58,4.18-41,6.65-5.78,4.77,5.81,11.62,24.8,13.11,11,11.91-57.81,4.09-62.89,9.7c-2.41,2.71-1.6,8.19-4.19,10.29-3.3,2.66-7.68-1.5-10.18,3.5a5.72,5.72,0,0,0,1.18,6.59c1,.91,2.2,1.42,3.25,2.23a3.57,3.57,0,0,1,1.65,3.36,4.1,4.1,0,0,1-2.37,2.45,16.54,16.54,0,0,1-4.82,1.63c.79-2.66.3-4.88-4.49-6.24l-24.37-6.9,26.63-3.73a11.29,11.29,0,0,0-2.7-5.44c2.31-2,6.2.09,8.76-1.49s1.5-6.52-1.5-8-6.45-.89-9.71-.53-7,.23-9.26-2.19a56.53,56.53,0,0,0,27.9-5.32,12.8,12.8,0,0,0,11.78-5l4.66-.74c3.23-2,3.61-7.12,1.21-10.12a10.21,10.21,0,0,0-10.48-2.92,66.1,66.1,0,0,1,24.56-8.77,7,7,0,0,1,4.3.34c1.9,1,2.5,3.4,3.59,5.26s3.94,3.23,5.27,1.49-.21-3.93.57-5.73a5.12,5.12,0,0,1,3.61-2.31l25.72-7.25c-3.72.51-7.59-2.53-9.71-5.91-2.44-3.88-3.91-8.54-7.49-11.46-8.67-7.14-23.14.75-32.57-5.1l-.55-.36c0-4.49,6.47-4.63,10.91-5a16.35,16.35,0,0,0,13.48-10.19,13.74,13.74,0,0,0,2.4,4.71,14.47,14.47,0,0,0,23.95-.91c-.42,5.42,5.63,9.3,11.07,9.57s10.8-1.72,16.23-1.66C330.8,537.22,339,541.37,346.3,541Z" fill="#92e3a9"></path>
    </g>
    <g opacity="0.4" style="isolation:isolate">
      <path d="M431.68,486.07c4.61.1,9.64.72,13.57,2.87-10.77.18-24,.95-30.48,4.91-12.7,7.72-22.79,9.74-17.73,12s-4.59,6.67-14.25,6.52-34.17,12.64-30.88,18,8.91,5.85.57,8.82a29.76,29.76,0,0,0-8.18-7.27A10.84,10.84,0,0,1,350,529a15.55,15.55,0,0,0-16.74-5.5c1.82-5.3-3.75-10.73-9.34-11.09s-10.74,2.71-15.51,5.63c1.49-4.16-4.09-7.38-8.52-7.4s-9.65.9-12.6-2.43A48.32,48.32,0,0,0,311.48,504c4.12-1.9,8.52-4.49,12.92-3.28,5.17,1.4,9,7.68,14.18,6.59,3.54-.73,7.9-4.49,9.8-1.39.63,1,.48,2.31,1.08,3.31,1.13,1.91,4,1.5,6.12,1a78.67,78.67,0,0,1,33.83-1.23l-6.22-3.63a12.75,12.75,0,0,0,6-2.09c1.69-1.33,2.56-4,1.27-5.71-1-1.49-3-1.72-4.79-1.88l-31.88-3a71.31,71.31,0,0,0,28.86-3.86c2.65-.93,5.57-2,8.14-.91a32.86,32.86,0,0,1,3.72,2.47c6,3.45,12.88-2.4,17.26-7.7C417.45,486.37,424.85,486.07,431.68,486.07Z" fill="#92e3a9"></path>
    </g>
    <g opacity="0.4" style="isolation:isolate">
      <path d="M649.39,377.13c-1,1.11-4.9,1-6.4,1.17l-1.49.19c-.93-.07-1.85-.13-2.77-.12a53.62,53.62,0,0,0-7.57,1c-2.84.42-5.72.49-8.56.93q-1.08.21-2.19.33c-.72,0-1.43,0-2.15,0a12,12,0,0,0-3.87.31,13.22,13.22,0,0,1-3.64.67,2.63,2.63,0,0,0-2.59,1.28.7.7,0,0,0,.26.95,10.39,10.39,0,0,0,5,1.5c-1.72.24-3.44.44-5.18.65a14,14,0,0,0-3.53.55c-1.1.42-2,1.33-3.25,1.18a.53.53,0,0,0-.62.35,10.61,10.61,0,0,1-2.87,0c-2.43-.66,6,3.41-1.86,3.31s1.08,3.41-4.49,4.38c-12.55,2.21-17.66.6-12.66,3.85s5.56,1.5-8,3.85-18.06,6.77-18.06,6.77-8.89,3.29-10.24,4.07-4.15,2.34.14,4.49-4.63,7.37-14.8,8.58-11.36,2.91-11,4.62-3.94,2-3.94,2-7.79,3-4,6,11.81.65,13.06,1.84c2.06,2,9,1.82,11.65,2.18,4,.55,10.27.16,13.86,2-2.75.81-6.06.19-8.91,0a140.6,140.6,0,0,0-26.43.24,4.28,4.28,0,0,0-2.15.61c-3.45,2.53-8.34,1.5-12.77,1.78-1.94.11-9.45-.19-10.4,2.16-1.1,2.77,11.49,10.56,5.75,9.42s-20.65,7.34-31.1,7.13S450,470.53,450,474.18s5.07,1.62,11,3.11,5.48,1.82,1.77,4.5-5.08,3.23-1.22,6c1.2.85-1.69,1-6.62,1.06v-4.91c0-7.24-15.54-1-15.93-8.48a6.7,6.7,0,0,1,2.79-5.72l-21.28-5.67a165,165,0,0,1,19.31-11.29,6.54,6.54,0,0,0,6.19,6.85,7.07,7.07,0,0,0,1.66-.13c1.5-.42,2.88-1.5,4.4-1.83,4.24-1.17,10.68,1.3,12-2.89l2.55,2.89,17.82-2a10.6,10.6,0,0,0-6.46-5.48l9-3.58a55.8,55.8,0,0,0-20-3.94c4.93-.36,8.69-4.32,12.46-7.48s9.12-6,13.48-3.57c-1.36,2.34,1.14,5.39,3.83,5.62s5.18-1.32,7.49-2.82c.93-.6,1.9-2,1-2.62a5.63,5.63,0,0,0,6.66-3.22l-7.05-1.5,6.6-3.33-18.88-2.34c5.33-2.68,9.43-9.31,15.32-8.27,2.35.41,4.28,2.06,6.53,2.86s5.43.26,6-2.06c.09,1.73.16,3.47.24,5.22a22.35,22.35,0,0,0,13.2-3.23c-.48,1.17-.93,2.34-1.41,3.5h5.16v-5.58l-7-.71a29.93,29.93,0,0,0,8.14-2.68,13.25,13.25,0,0,0-9.32-4.77,8.61,8.61,0,0,1,11.2-4.78l.1,0c-.64-3.79,5.26-4.75,8.79-3.28s8.36,3.32,10.57.19a5,5,0,0,0-4.49-2.52,185.4,185.4,0,0,1,28.66-1l-2.87-3.71,6.06-.23a6.05,6.05,0,0,0-.72-7.63,5.87,5.87,0,0,0-4.49-1.5l12.65-4.61-3.07-1.23a4.7,4.7,0,0,0,2.71-1,9.67,9.67,0,0,1,1.5-1.5c1.38-.8,3.13,0,4.58,0a8.39,8.39,0,0,0,4-1.33,1.45,1.45,0,0,1,1.05-.24,1.69,1.69,0,0,1,.9.7c1.39,1.8,2.83,3.91,5.07,4.34,3,.57,6-2.17,8.88-1.41a12.47,12.47,0,0,1,1.86.75c4.49,1.89,9.76-.16,14.64.54,1.68.26,3.3.83,5,.95C644.43,377.42,647,376.5,649.39,377.13Z" fill="#92e3a9"></path>
    </g>
  </g>
  <path d="M690.93,373.76c-3.31.26-10.49-2.45-14.89-2.71s-7.16,3.28-8,2.71-5.49-1.08-10.38,0c-7.48,1.65-3.93,1.69-9.71,2.7s-6.35,1.49-2.22,2.42,6.59-1,9.36.68,3.88,2.77,1.39,3.32a86.49,86.49,0,0,1-13.48,2.2c-5,.27,7.06,1.65,12,1.38a15.92,15.92,0,0,1,8.57,1.75c1.11.45-10,2.59-8.57,3.31s12.43-.09,18.5,1.42,5.22,4.86,8.82,6,9.64,1.65,11.84,6c-.19.95.72,1.07,1.68,1.22s1.93-.12,2.89,0c2.89.13,5.64,3,8.23,1.75" fill="#fff"></path>
  <g clip-path="url(#c)">
    <g opacity="0.4" style="isolation:isolate">
      <path d="M707,407.77c-2.59,1.26-5.35-1.62-8.24-1.75a13.3,13.3,0,0,1-2.89,0c-1-.21-1.88-.27-1.67-1.2-2.21-4.42-8.27-5-11.86-6s-2.74-4.49-8.82-6-17.09-.69-18.48-1.42,9.66-2.86,8.56-3.31a15.61,15.61,0,0,0-8.56-1.75c-5,.26-17.07-1.11-12-1.38a87.89,87.89,0,0,0,13.48-2.2c2.48-.56,1.37-1.67-1.4-3.33s-5.22.3-9.34-.67-3.59-1.42,2.2-2.43,2.34-1.05,9.51-2.65a6,6,0,0,0,6.09,2.14,7.36,7.36,0,0,0-2,6.65c.69,1.32,2.65.53,4.1.27s3,2.17,1.5,2.23c2.61,1.57,5.75,3.19,8.52,1.92s2.22-6.75-.78-6.16a3.09,3.09,0,0,0,1.64-2.9l-5.27-3.43a26.92,26.92,0,0,1,2.18-3.2A7.94,7.94,0,0,1,676,371c4,.21,10.21,2.46,13.82,2.7a46.52,46.52,0,0,0,3.34,4.82Z" fill="#92e3a9"></path>
    </g>
  </g>
  <path d="M650,416.75c6.68,1.26,4.6,1.62,9.56,2.73a54.46,54.46,0,0,0,14.06,1.38c6.33,0,18,.27,13.22,0s-22,2.75-23.71,2.75,1.11,1.65,1.38,2.49-6.89,1.09-11,1.09-8,1.11-9.64,2.49-4.14.95-6.62,0a10.82,10.82,0,0,1-3.86-2.49s-.83-5.23-2.47-6.33,1.91-3-3.6-4.14,2.62-1.49,2.76-4.41-3.66-4.15-1.5-5.52,0-4.49,0-4.49,8.71-.91,9,1,4.69,3.52,7.49,3.53a52.86,52.86,0,0,1,8.82,1.62s-10.48.18-9.91,1.9,3.68,2,5.55,2.28S644.1,415.69,650,416.75Z" fill="#fff"></path>
  <g clip-path="url(#d)">
    <g opacity="0.4" style="isolation:isolate">
      <path d="M673.59,420.86c3,0,7.12,0,10.18.1-6.71.49-19.27,2.65-20.67,2.65-1.64,0,1.11,1.65,1.38,2.49s-6.89,1.1-11,1.1-8,1.1-9.66,2.48-4.12.94-6.6,0a11.08,11.08,0,0,1-3.85-2.48s-.84-5.24-2.48-6.34a.87.87,0,0,1-.33-.33c2.38.31,4.76.72,7.11,1.21a2.07,2.07,0,0,0-.75,2.6c2.68,1.17,5.75-.2,8.34-1.49l5-2.67a25.14,25.14,0,0,0-10.48-5.09c.19-.94.37-1.89.55-2.83a2.71,2.71,0,0,1-.16-5.42,3.39,3.39,0,0,1,.64.06.75.75,0,0,0,0-.9,12,12,0,0,0,4.09.84,52.88,52.88,0,0,1,8.82,1.63s-10.48.18-9.93,1.9,3.7,2,5.59,2.26-5.29,3.07.58,4.18c6.68,1.26,4.6,1.62,9.56,2.73A54.46,54.46,0,0,0,673.59,420.86Z" fill="#92e3a9"></path>
    </g>
  </g>
  <path d="M728.47,427.5s-12.9-1.67-11.43,4.62,5.65,3.16-.12,9.86-8.7,7.82-12.38,7.82-15.07,3.85-6.61,3.94,14.26-2.65,13.74,0-6.76,5.24-6.38,7.08,2.12,4.7,4.49,3.46,2.42,1.69,4.63,5.36-1.95,5.23,1.1,9.2,9.42,5.37,9.42,5.37-3.1,2,3.48,2" fill="#fff"></path>
  <g clip-path="url(#e)">
    <g opacity="0.4" style="isolation:isolate">
      <path d="M730.14,460.61a4.42,4.42,0,0,1-1.66,2.52q-2.18,1.51-4.49,2.8c-2.35,1.5-3.5,5.91-.78,6.62a8,8,0,0,1-4.33,1.85c-1.33,1-.46,3.27,1,4.15s3.19,1.09,4.49,2.08a5.43,5.43,0,0,1,1.83,5.39c-3.39-.42-1.14-1.84-1.14-1.84s-6.38-1.42-9.42-5.39,1.09-5.49-1.11-9.18-2.22-6.62-4.63-5.36-4.19-1.62-4.56-3.46,5.88-4.42,6.39-7.08-5.29.1-13.73,0,3-3.94,6.62-3.94,6.6-1.11,12.37-7.82,1.58-3.57.12-9.86,11.42-4.62,11.42-4.62v12.9c-.49.15-.91.25-1.27.34.67,2.92-2.7,5-5.5,6l-9,3.42,6.41.41a35.92,35.92,0,0,1-7,8.87,35.8,35.8,0,0,0,16.34,1.42Z" fill="#92e3a9"></path>
    </g>
  </g>
  <path d="M744.83,371.88a14.23,14.23,0,0,1,2.25-7.63,5.33,5.33,0,0,0,1.06-2.06c.33-2.32-2.8-3.45-4-5.42-2.17-3.49,2-8.79-.71-12a8.43,8.43,0,0,0-2.25-1.59c-3.46-2.1-8.12-13.78-12.67-9.45-3.28,3.1-2.62.57-6.3-3.4L716.29,324l-2.2,12L709,333.75s-1.5,5-9.18,0c-9.72-6.26-5.54,1.29-5.54,1.29s-.93,4.06-6.34.94-8.56-3.34-6.62,1.19,2.77,4.08-.58,3.56-6.29,4.28-4.09,5.91,4.34,6.47-.76,6.62-10.84,4.25-8.1,7.49a2.2,2.2,0,0,0,.3.31l3.42,3.34,1.82,6.79s13.23-.21,10.1,2.38-5.69,7.13,0,9.27,1.83.86,4.5,5.18,1.18,6.68,6.33,7.69,4.49-6.33,5.17,1,3,12.17,6.62,13.47,11.75,1.94,11.75,6-8.09,12.42,0,11.19,6.69,5.9,10.69,6,15.69,4.18,14.38-4.37c-.41-2.59-2.17-4.84-2.55-7.49-.9-6.33,6.56-12.37,4-18.24a20,20,0,0,1-1.77-3.59c-.52-2.47,1.41-5.41-.15-7.4-.52-.69-1.4-1.12-1.7-1.95-.75-2,2.29-3,3.89-4.49,2.51-2.26,1.38-6.29.7-9.6A21.46,21.46,0,0,1,744.83,371.88Z" fill="#39b54a"></path>
  <g opacity="0.3" style="isolation:isolate">
    <g opacity="0.7">
      <path d="M744.83,371.88a14.23,14.23,0,0,1,2.25-7.63,5.33,5.33,0,0,0,1.06-2.06c.33-2.32-2.8-3.45-4-5.42-2.17-3.49,2-8.79-.71-12a8.43,8.43,0,0,0-2.25-1.59c-3.46-2.1-8.12-13.78-12.67-9.45-3.28,3.1-2.62.57-6.3-3.4L716.29,324l-2.2,12L709,333.75s-1.5,5-9.18,0c-9.72-6.26-5.54,1.29-5.54,1.29s-.93,4.06-6.34.94-8.56-3.34-6.62,1.19,2.77,4.08-.58,3.56-6.29,4.28-4.09,5.91,4.34,6.47-.76,6.62-10.84,4.25-8.1,7.49a2.2,2.2,0,0,0,.3.31l3.42,3.34,1.82,6.79s13.23-.21,10.1,2.38-5.69,7.13,0,9.27,1.83.86,4.5,5.18,1.18,6.68,6.33,7.69,4.49-6.33,5.17,1,3,12.17,6.62,13.47,11.75,1.94,11.75,6-8.09,12.42,0,11.19,6.69,5.9,10.69,6,15.69,4.18,14.38-4.37c-.41-2.59-2.17-4.84-2.55-7.49-.9-6.33,6.56-12.37,4-18.24a20,20,0,0,1-1.77-3.59c-.52-2.47,1.41-5.41-.15-7.4-.52-.69-1.4-1.12-1.7-1.95-.75-2,2.29-3,3.89-4.49,2.51-2.26,1.38-6.29.7-9.6A21.46,21.46,0,0,1,744.83,371.88Z"></path>
    </g>
  </g>
  <g opacity="0.5" style="isolation:isolate">
    <path d="M734.94,340a5.15,5.15,0,0,1-.86.76c-.54.38-1.15.62-1.69,1-2.32,1.49-2.73,4.73-2.91,7.48a5.14,5.14,0,0,1-9.74.69c.09,1.64.16,3.28.25,4.91a2.52,2.52,0,0,0-2.53,3.54l-5.69,1.5a8.31,8.31,0,0,0-2.28-7.49c.2-.73.39-1.5.6-2.2a9.31,9.31,0,0,1-6.06-2.38,3.09,3.09,0,0,0,1.23-3.69l-6.8.47c1.5,1.49-1.06,4.49.34,6,.6.64,1.58.69,2.35,1.06a3.75,3.75,0,0,1,1.68,4.13,10.85,10.85,0,0,1-2.1,4.23c-.62.91-1.49,1.93-2.57,1.88s-2-1.58-2.23-2.9a6.84,6.84,0,0,0-1-3.79,4.19,4.19,0,0,1-.59,2.45L689,357.5a14,14,0,0,0-2.31-10.63c-3.32,1.87-3,6.83-1.33,10.21a6.41,6.41,0,0,1-7.23,0c-1.12,4.76-6.25,4.93-8.64,1.36a3.89,3.89,0,0,1-1.77,2.47c-2.36-2.84,1.72-6.28,6.07-7.26a10.67,10.67,0,0,1,2-.28c5.11-.15,3-5,.77-6.62s.73-6.44,4.08-5.92,2.53.95.59-3.56,1.21-4.31,6.62-1.18,6.33-.95,6.33-.95-4.18-7.48,5.54-1.28c7.7,5,9.18,0,9.18,0l5.14,2.23,2.2-12s2.21,2.35,5.88,6.35,3,6.5,6.31,3.4A3.18,3.18,0,0,1,732,333a6.25,6.25,0,0,1,2.67,2.18Z" fill="#fff"></path>
  </g>
  <g opacity="0.5" style="isolation:isolate">
    <path d="M709.93,367.77c-.32.65.22,1.39.85,1.72s1.31.5,2,.8c2.45,1.59.45,6.12,2.68,8a5.06,5.06,0,0,0,3.52.74l5-.23c.07-1.27.13-2.54.21-3.82a16.14,16.14,0,0,1,1.5,3.24c.55,1.06,1.79,2,2.89,1.5.84-.39,1.13-1.4,1.7-2.11a7.94,7.94,0,0,1,1.5-1.28,24.6,24.6,0,0,0,8.39-11.47,3.63,3.63,0,0,1-4.5,1.59,6.34,6.34,0,0,0-2-.88c-1.23-.11-2.12,1.34-3.22,1.28s-1.49-1.06-2.45-1.27a26.48,26.48,0,0,0-6.8-.87c-2.58,0-3-.31-5.12,1.13-1.21.82-.83,1.82-2.37,2.38C712.7,368.54,710.83,366,709.93,367.77Z" fill="#fff"></path>
  </g>
  <g opacity="0.5" style="isolation:isolate">
    <path d="M696.08,376.47a1.71,1.71,0,0,0,1.11.23h4.49A11.54,11.54,0,0,1,702,381a22.06,22.06,0,0,1-7.41-.73,6.06,6.06,0,0,1,.18,3,2,2,0,0,1-2.22,1.5c-1-.27-1.42-1.57-1.33-2.65.2-2.58.21-5.71-3.38-5.12-.56-2.26,1.76-7.24,2.9-9.33.09,2.48,1.35,3,2.8,4.49,1,1,1.57.18,2.31,1.62C696.18,374.59,695,375.72,696.08,376.47Z" fill="#fff"></path>
  </g>
  <g opacity="0.5" style="isolation:isolate">
    <path d="M716.31,385a3.66,3.66,0,0,1,3.7,1.26c.77,1,1.1,2.64,2.36,3,1.63.37,3.34-1.92,4.7-1-.52,2.36-.83,5.36,1.17,6.69a4.81,4.81,0,0,1,1.5,1c.82,1.15-.54,2.65-1.86,3.19a10,10,0,0,1-4.35.69c-.63,0-1.37-.11-1.8.36s-.27,1.42-.35,2.15a3.11,3.11,0,0,1-2.15,2.43,8.72,8.72,0,0,1-3.37.27,2.29,2.29,0,0,1-1.32-.38c-.61-.52-.48-1.49-.45-2.27.17-5.62-4.72-.17-6-2.14-.46-.75,1.27-5.62.89-7.49-.47-2.16-1.91-3,0-4.12,1.06-.64,2.92.3,4.22-.51S714.35,385.47,716.31,385Z" fill="#fff"></path>
  </g>
  <path d="M727.85,340.1a7.33,7.33,0,0,0-4.07.94,3.83,3.83,0,0,1,2,3.75,2.4,2.4,0,0,1-3.43,1.69c-.93-.66-2-2.19-2.74-1.33a2.09,2.09,0,0,1-2,1.78,2.85,2.85,0,0,0-3.46-2.1,2.3,2.3,0,0,0-.42.14c0,1.34-.1,2.72-.15,4.07a3.41,3.41,0,0,1-4.4-2l-.09-.27c-.28-1.31.21-2.84-.52-4-1.71-2.57-7.49,0-8-3.07.63,1.88-2.29,2.8-3.38,4.49-.93,1.35-.49,3.16-.64,4.79s-1.76,3.46-3.15,2.62a14.8,14.8,0,0,1-6.83-9.78,4.18,4.18,0,0,1-4.16,4.19,4,4,0,0,1-.69-.06c.51,3.45.56,8.87-4.16,9a6.92,6.92,0,0,1-3.73-1.38,10.77,10.77,0,0,1,2-.28c5.1-.15,3-5,.76-6.62s.73-6.44,4.09-5.92,2.53.95.58-3.56,1.22-4.31,6.62-1.18,6.34-.95,6.34-.95-4.18-7.48,5.54-1.28c7.69,5,9.18,0,9.18,0l5.13,2.23,2.2-12s2.22,2.35,5.89,6.35,3,6.5,6.3,3.4a3.2,3.2,0,0,1,3.54-.9A35.81,35.81,0,0,1,727.85,340.1Z" fill="#fff"></path>
  <path d="M716.62,373.76c.35.89,1.5,1.13,2.43,1.23a2.55,2.55,0,0,0,1.7-.19c.71-.44.8-1.4,1.1-2.18s1.24-1.49,1.87-1,.34,1,.52,1.5c.48,1.27,2.27,1.29,3.61,1.06a3.27,3.27,0,0,0,1.59-.58c.84-.74.7-2.07,1.23-3a2.47,2.47,0,0,1,2-1.29c-1-.55-2.25-.19-3.4-.28s-2.46-1.17-1.9-2.17c-2.86-.3-9-1.59-11.47.4S715.74,371.49,716.62,373.76Z" fill="#fff"></path>
  <path d="M691.21,371a4.7,4.7,0,0,0-.84,3.25,1.11,1.11,0,0,0,.65,1.06,2.42,2.42,0,0,0,1,0c.82.3.31,1.6.75,2.35s1.94.36,2.2-.57a2.89,2.89,0,0,0-.93-2.6,8.91,8.91,0,0,1-1.81-2.24,1.52,1.52,0,0,0-.39-.64c-.21-.15-.58-.09-.61.17" fill="#fff"></path>
  <g opacity="0.4" style="isolation:isolate">
    <path d="M638.58,404.77l-8.43-.81h-.92a6.87,6.87,0,0,0-.75-1.6s8.72-.91,9,1A2.59,2.59,0,0,0,638.58,404.77Z" fill="#92e3a9"></path>
  </g>
  <g opacity="0.4" style="isolation:isolate">
    <path d="M683.77,421a22.93,22.93,0,0,1,3-.1C689.35,421,687.21,421,683.77,421Z" fill="#92e3a9"></path>
  </g>
  <path d="M251.7,435.89c29.16-6.87,57.27-13.07,84-18.63l-11.85-1.66c-32.94,6.24-62.89,12.38-89.42,18.1Z" fill="#fff"></path>
  <path d="M461.75,392.17c-9.78,1.49-19.47,3-29,4.49l5.24,1q14.4-2.52,27.69-4.72Z" fill="#fff"></path>
  <path d="M538.46,381.49q-7.8,1-15.51,2l2.47.18,14.69-2.08Z" fill="#fff"></path>
  <path d="M414.5,399.59q-28,4.62-54.23,9.3l9.45,1.5q26.64-5.26,50.91-9.6Z" fill="#fff"></path>
  <path d="M575.92,376.91h0l2.72-.33Z" fill="#fff"></path>
  <path d="M111.86,466.6a14.86,14.86,0,0,0,.38,1.5,17.3,17.3,0,0,1,6.85,2.38q30.78-8.82,60.78-16.71L163,449.91c-27.36,6.57-45.64,11.39-53.13,13.37v.45A4.07,4.07,0,0,1,111.86,466.6Z" fill="#fff"></path>
  <path d="M493.19,387.58q-10.85,1.5-21.49,3.1a46.86,46.86,0,0,1,5.58.39q10.1-1.65,19.46-3.08Z" fill="#fff"></path>
  <path d="M578.64,376.59l10.48-1.2S585.46,375.77,578.64,376.59Z" fill="#fff"></path>
  <path d="M519,384l-20.68,2.83c1.35.08,2.67.18,3.9.29q10.31-1.57,19.55-2.92Z" fill="#fff"></path>
  <path d="M533.19,593.25l-23,4.11c-18.24,2.44-27.46,1.62-31.73.72a3.65,3.65,0,0,1-2.73-4.64v0c2.26-6.93,11.2-7.77,11.2-7.77,8.84-2.06,17.53-8.92,18.69-9.86a80.87,80.87,0,0,1,10.1,3s5,3.42,9.34-.22c0,0,3.64-4.34,6.37-5.24C534.06,579.6,533.19,593.25,533.19,593.25Z" fill="#000000"></path>
  <path d="M593,556.93c-7.29,6.16-7.45,25.94-7.45,25.94-.82,16.54-23,11.68-23,11.68-2.29-.4-3.33-1.22-3.61-2.22-.78-2.77,4.1-6.86,4.1-6.86,2.91-4.06,4.54-20.92,4.54-20.92l20.26-16.22Z" fill="#000000"></path>
  <path d="M584.75,286.08l4.87,46.56a29.67,29.67,0,0,1-2.28,15.18c-2.72,6.09-8.22,12.94-19.31,15.94l-1.68-49.12-7.41-21.42S578.24,291.34,584.75,286.08Z" fill="#e6e7e8"></path>
  <path d="M575.4,257.68s1.06-15.33-30.66-16.12l-9.51,9,4.23,7.4Z" fill="#e6e7e8"></path>
  <path d="M566.36,314.63l2.73,81.83c-1.25.39-2.55.74-3.89,1.07-21.62,5.31-53.05,3.46-66.49,2.31-4.07-.35-6.5-.64-6.5-.64C496.06,374,495,325.9,495,325.9c-3.29-41.19-.28-54.37-.28-54.37,3.58-25.26,26.09-27.2,26.09-27.2l11.54,4.41L547.59,246c33.95-5.77,37.16,40.09,37.16,40.09-8.78,5.77-25.81,7.14-25.81,7.14Z" fill="#000000"></path>
  <path d="M571.14,355.26C538.58,340.75,538.38,292,538.38,292c.41-34.83,15.76-46.65,15.76-46.65s8.7.62,12.23,3.73c0,0-22.19,18-15.55,57.65,0,0,5.18,26.33,20.53,34.63Z" fill="#d1d3d4"></path>
  <path d="M521.13,245.78s-19.87,21.35-27.34,64.07l-.41-18.46s4-21.18,12.36-36.89a19.49,19.49,0,0,1,11.61-9.64,10.89,10.89,0,0,1,3.41-.53Z" fill="#d1d3d4"></path>
  <polygon points="468.47 294.25 499.62 290.96 507.75 313.6 475.63 317.47 468.47 294.25" fill="#7fa5e1"></polygon>
  <polygon points="468.47 294.25 473.21 289.61 503.76 286.26 499.62 290.96 468.47 294.25" fill="#7fa5e1"></polygon>
  <g opacity="0.2">
    <polygon points="468.47 294.25 473.21 289.61 503.76 286.26 499.62 290.96 468.47 294.25"></polygon>
  </g>
  <polygon points="507.75 313.6 511.93 307.97 503.76 286.26 499.62 290.96 507.75 313.6" fill="#7fa5e1"></polygon>
  <g opacity="0.4">
    <polygon points="507.75 313.6 511.93 307.97 503.76 286.26 499.62 290.96 507.75 313.6"></polygon>
  </g>
  <path d="M579,565.39a5.14,5.14,0,0,1-3.2,1.38c-4.05.21-7.61-2.13-9.93-3.42a5.3,5.3,0,0,1-2.69-4.37l-.45-8.22a8.66,8.66,0,0,0-.76-3.08l-23.92-52.27c-4.55-7.28-5.24-17.54-5.24-17.54-1.13-19.57-4.55-31.64-4.55-31.64l-.9,27.32c.9,7.28-.47,8.66-.47,8.66,5.47,18.44,4.56,91.08,4.56,91.08-2.73.9-6.37,5.24-6.37,5.24-4.34,3.64-9.34.22-9.34.22a80.87,80.87,0,0,0-10.1-3l-1.06-.23c2.51-30.28-4.09-72.4-4.09-72.4a136.63,136.63,0,0,1-2.28-25.06l.45-78.1v-.16c13.44,1.15,44.87,3,66.49-2.31.37,15-1.09,61.05-1.5,73.4a18.41,18.41,0,0,0,.68,5.58,40.15,40.15,0,0,1,1.52,8.72,18.49,18.49,0,0,0,1.57,6.55c7.19,16.07,19.12,50.31,19.12,50.31C590.28,553.5,582.25,562.4,579,565.39Z" fill="#7fa5e1"></path>
  <g opacity="0.2">
    <path d="M528.3,446.73a.5.5,0,0,1-.5-.46l-2.33-28.63a16.62,16.62,0,0,0-.82-4l-2.74-8.24a.5.5,0,0,1,.31-.63.51.51,0,0,1,.64.32l2.74,8.23a18.14,18.14,0,0,1,.87,4.25l2.33,28.63a.5.5,0,0,1-.46.53Z"></path>
  </g>
  <g opacity="0.2">
    <path d="M525.8,415.53a.54.54,0,0,1-.22,0L514.42,410a.5.5,0,0,1,.44-.9l10.95,5.37,4.12-1.74a.5.5,0,0,1,.39.93L526,415.49A.58.58,0,0,1,525.8,415.53Z"></path>
  </g>
  <path d="M533.35,597.36l-14.24,2.06c-30.07,4-42.25.79-42.25.79-3.82-1.38-1.27-6.39-1.08-6.77a3.65,3.65,0,0,0,2.73,4.64c4.27.9,13.49,1.72,31.73-.72l23-4.11Z" fill="#d1d3d4"></path>
  <path d="M593.69,557.9a2.29,2.29,0,0,1,0,2.62c-4.58,6.15-5.15,19.92-5.15,19.92.16,15.24-8.92,16.38-8.92,16.38l-17.35.8c-4-.14-3.46-4.31-3.28-5.29.28,1,1.32,1.82,3.61,2.22,0,0,22.21,4.86,23-11.68,0,0,.16-19.78,7.45-25.94Z" fill="#d1d3d4"></path>
  <path d="M547.64,203.23v21a14.63,14.63,0,1,1-29.26,0v-21a14.63,14.63,0,0,1,29.26,0Z" fill="#f8d9be"></path>
  <path d="M511.13,216.56s-10.09-14.23-1.55-24.33a3.91,3.91,0,0,0-4.66.52s.78-4.14,7.51-3.37c0,0,.44-5.46,9.35-8.76a13.19,13.19,0,0,1,4.62-.82h9.84s7.25-1.55,10.1,4.92c0,0,5.95.78,7,5.18,0,0-3.37-2.07-2.85.78,0,0,5.41,2.16,3.17,9.26a7,7,0,0,1-1.83,2.86,3.32,3.32,0,0,0-1.08,2.37s.52,5.44-3.11,6.22v-8.16a15.94,15.94,0,0,0-.91-5.29,9.69,9.69,0,0,1-8.24-3.57s.14,3.16,1.92,4.39a26.64,26.64,0,0,1-8.64-4.94,12.76,12.76,0,0,0,4.11,4.67s-5.62-1-9.12-4.55a2.4,2.4,0,0,0-2.07-.77c-1,.18-2.29,1.16-2.67,4.63,0,0,.41,5.63-3.57,8.52l-.14,10.29Z" fill="#5a3126"></path>
  <ellipse cx="529.7" cy="208.86" rx="1.51" ry="2.54" fill="#5a3126"></ellipse>
  <ellipse cx="541.78" cy="208.86" rx="1.51" ry="2.54" fill="#5a3126"></ellipse>
  <path d="M539.3,219.17h-2.74a.5.5,0,0,1-.5-.5.5.5,0,0,1,.5-.5h2.74a.46.46,0,0,0,.4-.22.43.43,0,0,0,0-.45l-3.64-8.1a.51.51,0,0,1,.25-.66.51.51,0,0,1,.67.25l3.63,8.1a1.48,1.48,0,0,1-1.35,2.08Z" fill="#eea186"></path>
  <path d="M526.54,203.66a.52.52,0,0,1-.42-.22.51.51,0,0,1,.14-.7,6.94,6.94,0,0,1,6.09-.46.5.5,0,1,1-.37.93,6,6,0,0,0-5.16.36A.51.51,0,0,1,526.54,203.66Z" fill="#5a3126"></path>
  <path d="M538.48,203.24a.47.47,0,0,1-.41-.22.49.49,0,0,1,.14-.69,6.86,6.86,0,0,1,6.08-.46.5.5,0,1,1-.36.93,5.9,5.9,0,0,0-5.17.36A.48.48,0,0,1,538.48,203.24Z" fill="#5a3126"></path>
  <path d="M535.82,228.57a10.55,10.55,0,0,1-6-1.81.5.5,0,0,1-.1-.7.51.51,0,0,1,.7-.1,10.13,10.13,0,0,0,10.19.5.5.5,0,0,1,.67.24.49.49,0,0,1-.24.66A12.16,12.16,0,0,1,535.82,228.57Z" fill="#eea186"></path>
  <path d="M547.59,246c-8.16,12.81-17.74,13.88-22.19,13.57a6.75,6.75,0,0,1-5-2.57,6.3,6.3,0,0,1-.15-7,7.61,7.61,0,0,0,.86-4.24l-1.32-15.22h0a14.63,14.63,0,0,0,23.65,3.85l.07.06C543.08,242.19,547.59,246,547.59,246Z" fill="#f8d9be"></path>
  <path d="M519.83,230.56l1,12s10.92,3.32,17.81-5C538.69,237.57,526.86,243,519.83,230.56Z" fill="#eea186"></path>
  <ellipse cx="515.15" cy="218.63" rx="3.75" ry="5.95" transform="translate(-41.58 161.82) rotate(-17.17)" fill="#f8d9be"></ellipse>
  <g opacity="0.2">
    <path d="M506,308.51l-4.83-13.94-10.06,1.88a8.34,8.34,0,0,0-8.51,1.58l-12.38,2.3,3.62,12.33,9.7-1.25a8.45,8.45,0,0,0,10.9-1.41Z"></path>
  </g>
  <path d="M488.22,310.88a6.66,6.66,0,1,1,6.66-6.66A6.67,6.67,0,0,1,488.22,310.88Zm0-12.32a5.66,5.66,0,1,0,5.66,5.66A5.67,5.67,0,0,0,488.22,298.56Z" fill="#fff"></path>
  <path d="M463.16,301a1.34,1.34,0,0,0,1.44,1.19s-2.11,4.59,2.23,5.58c0,0-2.11,5,3.48,5.84,0,0-.5,3.35,2.07,3.86a3.07,3.07,0,0,0,3-1.24l3.24-4.35a2.49,2.49,0,0,0,.1-2.81h0a2.47,2.47,0,0,0-3.38-.77l-1.16.72s3.1-5.84-1.24-6.34c0,0,.62-4.84-3.36-4.09,0,0,.64-3.56-1.83-3.64a2.66,2.66,0,0,0-2.14,1.08l-1.8,2.31A3.12,3.12,0,0,0,463.16,301Z" fill="#f8d9be"></path>
  <path d="M464.6,302.64a.49.49,0,0,1-.41-.21.51.51,0,0,1,.11-.7l5-3.6a.5.5,0,0,1,.59.81l-5,3.6A.46.46,0,0,1,464.6,302.64Z" fill="#eea186"></path>
  <path d="M466.83,308.22a.52.52,0,0,1-.38-.17.51.51,0,0,1,.06-.71l6.09-5.09a.49.49,0,0,1,.7.06.51.51,0,0,1-.06.71l-6.09,5.09A.46.46,0,0,1,466.83,308.22Z" fill="#eea186"></path>
  <path d="M470.31,314.06a.45.45,0,0,1-.34-.14.49.49,0,0,1,0-.7l5-5.31a.49.49,0,0,1,.71,0,.49.49,0,0,1,0,.7l-5,5.31A.46.46,0,0,1,470.31,314.06Z" fill="#eea186"></path>
  <path d="M583.1,287.18s5.12,46.17-6.86,46.13c0,0-24.21.52-47.27-18.71a5.79,5.79,0,0,0-3.91-1.31c-2.29.08-6.36-.47-11.43-4.15,0,0-2.09-2.64-4.77-.79,0,0-4.94,2.89-4.43-.92,0,0-4.32-.62-3.7-4.12,0,0-4.41-2.42-3.88-5.36a1.84,1.84,0,0,1,.87-1.19l7-4.36a2.69,2.69,0,0,0-.18-.23,9.35,9.35,0,0,0-9-3l-4.67,1a1.7,1.7,0,0,1-1.88-.95h0a1.69,1.69,0,0,1,1.15-2.37c3.77-.87,11.87-2.36,16.2-.43,0,0,16,11,27.08,16.19a33.72,33.72,0,0,0,8.26,2.58c5.37,1,16.25,1.84,19.71,3.14l-2.5-15.11S572.93,292.43,583.1,287.18Z" fill="#f8d9be"></path>
  <path d="M500.8,303.4a.5.5,0,0,1-.41-.79,23.62,23.62,0,0,1,5.69-5.05.5.5,0,0,1,.69.14.49.49,0,0,1-.13.69,23.07,23.07,0,0,0-5.44,4.81A.51.51,0,0,1,500.8,303.4Z" fill="#eea186"></path>
  <path d="M504.43,307.93a.47.47,0,0,1-.25-.07.49.49,0,0,1-.17-.69,21.62,21.62,0,0,1,3.91-4.64.5.5,0,0,1,.66.75,21.74,21.74,0,0,0-3.72,4.4A.5.5,0,0,1,504.43,307.93Z" fill="#eea186"></path>
  <path d="M571.67,313.89a.48.48,0,0,1-.36-.16c-3.14-3.26-9.92-4.89-10-4.91a.5.5,0,0,1-.37-.6.49.49,0,0,1,.6-.37c.29.07,7.13,1.71,10.48,5.19a.5.5,0,0,1,0,.71A.54.54,0,0,1,571.67,313.89Z" fill="#eea186"></path>
  <path d="M515.9,216.55s-2.06-1.05-2.12,1.78c0,0,1.22-.66,1.86.29a1.68,1.68,0,0,1,0,1.85,2.12,2.12,0,0,1-.63.59" fill="none" stroke="#eea186" stroke-linecap="round" stroke-linejoin="round"></path>
</svg>
