<?xml version="1.0" encoding="UTF-8"?>
<svg xmlns="http://www.w3.org/2000/svg" id="a" width="865.76" height="682.89" viewBox="0 0 865.76 682.89">
  <g>
    <polygon points="286.82 421.78 286.82 357.04 272.65 357.04 259.32 370.37 259.32 409.74 253.28 409.74 253.28 358.62 236.77 358.62 236.77 367.83 216.45 367.83 216.45 382.12 206.61 382.12 206.61 347.83 190.74 347.83 190.74 359.58 178.99 359.58 178.99 378.63 171.37 378.63 171.37 350.37 160.57 350.37 160.57 335.13 148.83 335.13 148.83 318.62 134.54 329.41 134.54 347.83 122.16 347.83 122.16 337.03 105.33 337.03 105.33 393.87 92.63 393.87 92.63 365.29 76.76 365.29 76.76 393.87 68.5 393.87 68.5 373.55 57.91 373.55 58.35 417.09 56.79 417.18 59.54 535.08 293.92 431.33 294.24 421.49 286.82 421.78" fill="#98cfe4"></polygon>
    <g>
      <path d="M723.18,358.12s57.49,11.25,75.88,118.08c0,0,8.71,49.5-9,85.04-4.03,8.1-10.77,14.51-19.05,18.16-20.04,8.83-68.97,24.34-165.92,24.65l-139.62-16.24s-67.48-14.85-61.79-97.17c0,0,9.19-47.73,31.09-65.24l108.59-57.36s71.54-67.15,179.83-9.93Z" fill="#e3e4e5" stroke="#231f20" stroke-miterlimit="10"></path>
      <path d="M647.12,226.63s-12.26,32.4-29.9,32.21c-.97-.01-1.91-.41-2.75-.9l-12.45-7.23s-11.38-6.57-11.82-14.45c0,0-1.31-7.01-3.94-8.32,0,0-3.06-2.63-4.82-8.32l-2.63-7.01s-6.57-18.39,6.13-26.71c0,0,5.25-5.25,10.95-1.75,0,0,5.26,6.51,14.89,9.33,.93,.27,1.8,.69,2.59,1.25l18.43,13.07s7.01,3.94,15.32,18.83Z" fill="#faa27f" stroke="#231f20" stroke-miterlimit="10"></path>
      <path d="M590.64,217.87s4.38,0,4.82,6.13c0,0-3.06,17.08,9.63,10.07" fill="none" stroke="#231f20" stroke-linecap="round" stroke-linejoin="round"></path>
      <path d="M570.06,196.41s-8.76,.88-5.69,34.59c0,0,2.63,29.34-4.38,58.23l-5.25,28.02,26.27,45.1,1.31-5.69s-7.39-14.18-.07-32.84c2.58-6.58,7.34-12.1,13.47-15.6,3.9-2.22,8.6-5.82,11.12-11.11,0,0,4.82-9.63,10.51-13.14,0,0,12.7-8.32,6.57-20.14l-2.43-5.6s-3.31,1.67-7.01-.31l-12.45-7.23s-11.82-7.01-11.82-14.45c0,0-1.31-7.01-3.94-8.32,0,0-2.63-2.19-4.82-8.32l-2.63-7.01s-5.2-14.03,2.44-23.43c0,0,1.94-1.96,3.69-3.28,0,0,5.25-5.25,10.95-1.75,0,0,6.13,7.27,14.89,9.33,0,0,1.24,.44,2.59,1.25,0,0,21.81,12.22,33.03,33.66,0,0,9.04,28.01,33.56,29.32l10.22,1.12-19.41-44.91s-27.15-56.92-64.36-52.54c0,0-31.96,2.19-36.34,35.03Z" fill="#231f20" stroke="#231f20" stroke-miterlimit="10"></path>
      <path d="M676.01,257.25s-3.24,.34-9.73,4.63c-3.66,2.42-7.51,4.55-11.54,6.27-8.73,3.72-22.28,8.16-29.24,3.61,0,0,.61-3.55-1.58-7.92l-2.43-5.6s13.26-2.26,24.92-29.86c0,0,8.57,25.33,29.6,28.86Z" fill="#faa27f" stroke="#231f20" stroke-miterlimit="10"></path>
      <path d="M581,362.36h0s17.51,26.27,17.51,26.27l20.58,.88c9.63,1.31,17.08,12.26,17.08,12.26,12.26,16.64,27.15,18.39,27.15,18.39,10.07,1.31,7.88,12.7,7.88,12.7,10.95-8.32,7.44-20.14,7.44-20.14-.88-10.07,5.25-17.08,5.25-17.08,17.51-18.39,.44-64.8,.44-64.8l41.16-3.16-.44-12.17c-.44-34.15-16.2-42.91-16.2-42.91-.89-6.81-7.97-9.48-12.46-10.49-1.77-.4-3.32-1.35-4.64-2.58-.37-.34-.87-.61-1.57-.69l-14.17-1.59s-4.14,.92-9.73,4.63c0,0-13.03,8.97-26.77,11.17-12.39,1.98-14.01-1.28-14.01-1.28-1.04,7.93-8.15,12.22-8.15,12.22-7.01,4.82-10.51,13.14-10.51,13.14-2.3,5.06-7.01,8.67-10.97,10.95-5.92,3.42-10.67,8.59-13.28,14.9-5.34,12.93-3.57,23.81-1.87,29.48,.96,3.22,1.04,6.63,.28,9.9Z" fill="#190e00" stroke="#231f20" stroke-miterlimit="10"></path>
      <path d="M564.72,479.83c-7.1-.86-14.2-1.66-21.1-3.52l-34.42-9.3s-12.81,15.94-34.48,36.99c-7.54,7.32-15.63,14.06-24.18,20.17l-31.54,22.53-24.52-36.34s13.17-14.91,28.63-33.13c13.39-15.78,28.49-34.03,38.23-47.21,3.06-4.14,5.91-8.42,8.49-12.88,4.16-7.16,18.07-26.25,44.62-18l20.32,6.27,32.23,9.93s1.37-7.17,7.72-9.45c1.73-.62,2.96-2.16,3.17-3.98l1.81-15.9,18.83,2.63,20.58,.88c9.63,1.31,17.08,12.26,17.08,12.26,12.26,16.64,27.15,18.39,27.15,18.39,10.07,1.31,7.88,12.7,7.88,12.7l.62,5.35c.44,3.83-.38,7.68-2.33,10.95,0,0-15.8,9.97-27.19,13.03,0,0-15.95,4.18-21.32,10.76-.5,.62-.8,1.36-1,2.13-.24,.92-1.77,2.37-9.64,1.12,0,0-10.95-2.63-28.02,2.19,0,0-9.35,2.43-17.59,1.44Z" fill="#5ca0c3" stroke="#231f20" stroke-miterlimit="10"></path>
      <path d="M566.99,415.34l28.02,9.63s11.38,3.94,20.14,0" fill="none" stroke="#231f20" stroke-linecap="round" stroke-linejoin="round"></path>
      <path d="M509.2,467.01s6.13-9.19,3.5-26.71" fill="none" stroke="#231f20" stroke-linecap="round" stroke-linejoin="round"></path>
      <path d="M422.92,477.3l.18-.07c13.39-15.78,28.49-34.03,38.23-47.21,3.06-4.14,5.91-8.42,8.49-12.88,4.16-7.16,18.07-26.25,44.62-18l20.32,6.27h0s-31.27-34.29-31.27-34.29c0,0-17.51-22.33-35.47-17.95,0,0-22.77,1.31-29.34,32.84,0,0-12.72,62.61-15.78,91.29Z" fill="#5ca0c3" stroke="#231f20" stroke-miterlimit="10"></path>
      <path d="M417.85,544.83l-22.55,12.96c-2.85,1.64-5.34,3.84-7.32,6.48l-.77,1.02c-.97,1.3-2.31,2.28-3.84,2.81l-2.75,.96c-2.28,.8-4.81,.38-6.7-1.12-3.62-1.53-8.07-3.81-12.72-7.23-6.14-4.52-10.38-9.4-13.14-13.14,3.49-2.35,8.04-6.23,14.56-9.28,.51-.24,1-.53,1.45-.87,3.72-2.85,21.79-16.89,30.41-27.07l23.37,34.47Z" fill="#faa27f" stroke="#231f20" stroke-miterlimit="10"></path>
      <path d="M268.41,584.64c.23,1.98,1.22,3.9,2.95,5.28,9.5,7.55,27.1,9.96,36.71,10.73,3.96,.32,7.94,.18,11.87-.4l30.74-4.5c28.46-4.38,31.53-8.32,31.53-8.32,.45-.56,.8-1.14,1.08-1.73,1.48-3.12,.8-6.43,.42-7.75-.25-.88-.43-1.78-.46-2.69-.12-4.66,2.69-8.53,2.86-8.76-.11,.1-1.24,1.15-2.75,1.62l-2.75,.96c-2.28,.8-4.8,.37-6.7-1.12-3.62-1.53-8.07-3.81-12.72-7.23-6.14-4.52-10.38-9.4-13.14-13.14,0,0-16.64,7.88-16.64,7.88h0c-9.56,4.46-17.99,7.79-24.13,10.03-5.19,1.9-10.52,3.42-15.94,4.48-10.57,2.07-16.58,4.9-19.98,7.57-2.28,1.79-3.27,4.51-2.96,7.1Z" fill="#190e00" stroke="#231f20" stroke-miterlimit="10"></path>
      <path d="M272.75,606.69c9.76,7.49,24.1,9.92,35.66,10.52,8.37,.44,16.76-.2,25.01-1.69,14.88-2.68,35.66-4.02,35.66-4.02,13.14-1.31,15.76-4.38,15.76-4.38,7.15-10.93-.9-20.68-1.55-21.44-.28,.59-.63,1.17-1.08,1.73,0,0-3.06,3.94-31.53,8.32l-30.74,4.5c-3.93,.58-7.91,.72-11.87,.4-9.62-.77-27.21-3.18-36.71-10.73-1.73-1.38-2.72-3.29-2.95-5.28h0c-14.86,9.92,4.35,22.05,4.35,22.05Z" fill="#fff" stroke="#231f20" stroke-miterlimit="10"></path>
      <path d="M456.75,519.81l-7.55,30.83s-3.06-4.82-7.88-4.82c0,0-4.93-7.66-13.85-5.14l29.28-20.87Z" fill="#faa27f" stroke="#231f20" stroke-miterlimit="10"></path>
      <path d="M459.17,571.83c-.1,1.02-.54,1.98-1.24,2.73-1.16,1.24-3.59,3.37-8.28,5.85,0,0-3.06,.88-5.25,5.25,0,0-1.31,3.94-14.45,5.25,0,0-23.64,.44-32.4,4.38,0,0-2.19-4.38,4.82-12.7,0,0,7.01-6.57,7.01-15.76,0,0,.29-13.39,6.27-20.93l2.21-1.09,1.15,1.87,8.48-6.02s8.16-2.74,13.85,5.14c0,0,4.38-.44,7.88,4.82l.81-3.83s7.07,13.46,9.15,25.01" fill="#190e00" stroke="#231f20" stroke-miterlimit="10"></path>
      <path d="M403.67,613.25l38.53-4.38c10.07-1.75,9.63-6.57,9.63-6.57,10.07-.88,14.01-4.82,14.01-4.82,3.5-13.14-4.82-21.02-4.82-21.02,.44-3.5-1.87-4.65-1.87-4.65-.1,1.02-.54,1.98-1.24,2.73-1.16,1.24-3.59,3.37-8.28,5.85,0,0-3.06,.88-5.25,5.25,0,0-1.31,3.94-14.45,5.25,0,0-23.64,.44-32.4,4.38-4.38,19.27,6.13,17.95,6.13,17.95Z" fill="#fff" stroke="#231f20" stroke-miterlimit="10"></path>
      <path d="M549.04,398.7s-2.28,8.59-14.27,6.7l-31.26-34.29s-3.83-5.78,1.15-9.24l44.39,36.83Z" fill="#faa27f" stroke="#231f20" stroke-miterlimit="10"></path>
      <path d="M521.46,386.88s5.89,1.29,7.11-5.26" fill="none" stroke="#231f20" stroke-linecap="round" stroke-linejoin="round"></path>
      <line x1="510.51" y1="376.37" x2="523.52" y2="377.89" fill="none" stroke="#231f20" stroke-linecap="round" stroke-linejoin="round"></line>
      <line x1="510.07" y1="370.24" x2="514.96" y2="370.65" fill="none" stroke="#231f20" stroke-linecap="round" stroke-linejoin="round"></line>
      <path d="M733.38,433.3c-.28-.19-.56-.37-.84-.55-13.03-8.4-29.99-7.35-42.18,2.23-9.1,7.16-27.33,20.05-48.94,27.66,0,0-18.83,4.82-21.45,12.26,0,0-.44,2.63-8.32,1.31,0,0-12.84-2.53-29.91,2.33-4.71,1.34-9.61,1.9-14.5,1.51-3.07-.24-6.71-.59-10.44-1.09-6.73-.9-13.54-1.03-20.31-.45-11.71,1.01-28.64,2.36-32.56,2.08" fill="none" stroke="#231f20" stroke-linecap="round" stroke-linejoin="round"></path>
      <path d="M635.52,320.77h4.16v2.19h-4.16c-.6,0-1.09-.49-1.09-1.09h0c0-.6,.49-1.09,1.09-1.09Z" transform="translate(1321.63 523.78) rotate(169.63)" fill="#fff" stroke="#231f20" stroke-miterlimit="10"></path>
      <line x1="575.98" y1="331.86" x2="573.56" y2="332.15" fill="none" stroke="#231f20" stroke-linecap="round" stroke-linejoin="round"></line>
      <polyline points="632.12 320.24 631.8 318.14 614.72 320.77" fill="none" stroke="#231f20" stroke-linecap="round" stroke-linejoin="round"></polyline>
      <line x1="684.34" y1="330.84" x2="680.84" y2="315.07" fill="none" stroke="#231f20" stroke-linecap="round" stroke-linejoin="round"></line>
      <path d="M708.86,272.6s-15.25-11.35-25.96-1.81c-1.99,1.78-3.47,4.06-4.4,6.56-2.85,7.67-9.8,30.78,3.6,44.41" fill="none" stroke="#231f20" stroke-linecap="round" stroke-linejoin="round"></path>
      <path d="M691.49,376.6l9.05,1.53s7.01,.88,7.88,3.94" fill="none" stroke="#231f20" stroke-linecap="round" stroke-linejoin="round"></path>
      <path d="M606.84,401.77l-61.3-99.83-59.43-10.92s-.08,.04-.05,.08l66.05,101.05,54.73,9.63Z" fill="#56c96e" stroke="#231f20" stroke-miterlimit="10"></path>
      <path d="M485.99,290.99s-4.38,3.5,4.82,7.44c0,0,7.44,1.75,3.94,14.45l-9.63,32.84,84.98,70.44,5.22,1.99-87.13-72.87,9.85-33.65c.8-2.74,.9-5.65,.15-8.4-.79-2.88-2.57-5.98-6.49-7.43l-2.06-.76c-.92-.34-1.7-.97-2.22-1.8l-1.42-2.26Z" fill="#e3e4e5" stroke="#231f20" stroke-miterlimit="10"></path>
      <path d="M494.59,313.54s4.1-12.04-3.78-15.11c0,0-3.45-1.39-5.14-3.31-.06-.06-.16,0-.12,.08l9.05,18.33Z" fill="#fff" stroke="#231f20" stroke-miterlimit="10"></path>
      <path d="M575.31,418.15l4.82,1.57s-.44-7.01-7.01-15.76l-34.24-50.94c-1.11-1.65-2.29-3.25-3.54-4.8l-37.99-46.98s2.64,4.34,.67,10.4l-9.85,33.65,87.13,72.87Z" fill="#fff" stroke="#231f20" stroke-miterlimit="10"></path>
      <path d="M635.97,322.44h0c.12,1.27-.78,2.41-2.05,2.59l-50.92,7.4-6.81,.59-.44-2.19,7.01-2.63,50.45-7.92c1.37-.22,2.64,.77,2.76,2.15Z" fill="#5ca0c3" stroke="#231f20" stroke-miterlimit="10"></path>
      <path d="M684.34,330.84l7.15,45.76s-25.89-7.67-38.85-14.23l-18.22-9.19s-9.48-4.44-11.97-13.17l-4.33-11.85c-.51-1.38-1.44-2.57-2.67-3.38l-14.19-9.33c-.9-.59-1.98-.91-3.06-.79-1.63,.17-3.75,1.29-5.38,5.24l-7.88,4.82s-3.94,2.19-3.5,5.25c0,0,0,1.75,2.19,2.19,0,0-1.55,.66-2.44,1.99-.7,1.03-.71,2.42,0,3.45,.27,.38,.64,.69,1.13,.69,0,0-.88,1.54-.3,3.21,.39,1.14,1.39,1.95,2.56,2.26,1.98,.51,6.7,2.05,10.39,5.77,.54,.55,1.02,1.17,1.45,1.81,2.39,3.55,12.83,17.98,26.63,20.66,0,0,42.47,30.21,67.87,40.72,0,0,21.02,11.82,28.46-.44,0,0,4.38-5.25,4.82-17.95,0,0,.44-37.66-2.63-56.92l-.71-9.68-36.51,3.11Z" fill="#faa27f" stroke="#231f20" stroke-miterlimit="10"></path>
      <path d="M612.53,329.96l-13.57-9.19s-3.5-2.63-6.13-.88" fill="none" stroke="#231f20" stroke-linecap="round" stroke-linejoin="round"></path>
      <path d="M583.63,332.15l8.56-2.72c.68-.22,1.43-.14,2.05,.22l7.35,4.25" fill="none" stroke="#231f20" stroke-linecap="round" stroke-linejoin="round"></path>
      <path d="M582.32,338.28h4.2c1.56,0,3.11,.31,4.56,.91l8.32,3.47" fill="none" stroke="#231f20" stroke-linecap="round" stroke-linejoin="round"></path>
    </g>
    <polygon points="54.05 55.89 294.67 57.48 293.92 431.33 59.54 535.08 54.05 55.89" fill="#fff" opacity=".3"></polygon>
    <path d="M42.15,43.35V571.35l279.08-119.06,5.4-408.94H42.15ZM306.78,438.79l-247.33,110.81L54.05,55.89l258.44,1.27-5.71,381.63Z" fill="#fff" stroke="#231f20" stroke-miterlimit="10"></path>
    <polygon points="294.67 57.48 293.92 431.33 59.54 535.08 59.45 549.6 306.78 438.79 312.5 57.16 294.67 57.48" fill="#e3e4e5" stroke="#231f20" stroke-miterlimit="10"></polygon>
    <polygon points="302.5 219.56 303.45 232.89 56.33 272.57 56.44 254.67 302.5 219.56" fill="#fff" stroke="#231f20" stroke-miterlimit="10"></polygon>
    <path d="M301.65,219.35l-7.26-1.81L56.7,250.56l-.26,4.11,245.19-34.99c.19-.03,.2-.29,.02-.33Z" fill="#e3e4e5" stroke="#231f20" stroke-miterlimit="10"></path>
    <g>
      <path d="M657.79,541.18c.22,2.56,.56,5.45,1.05,8.4,0,0,10.38-33.97,44.5-29.58l-6.7-14.76-5.54-5.54c-11.13,5.78-21.89,4.04-29.25,18.96-3.43,6.97-4.72,14.79-4.04,22.53Z" fill="#56c96e" stroke="#231f20" stroke-miterlimit="10"></path>
      <path d="M753.97,508.66c-30.79,.04-35.39-45.34-4.29-83.11,.1-.12,.3-.04,.28,.12-1.23,12.87,36.57,59.02,11.8,80.14-2.18,1.86-4.93,2.84-7.79,2.85Z" fill="#56c96e" stroke="#231f20" stroke-miterlimit="10"></path>
      <path d="M752.11,491.71c-19.43-11.53-15.04-46.1,42.51-66.49,.11-.04,.22,.06,.18,.17-.65,1.88-4.47,14.11-6.47,48.61-.53,9.2-13.67,31.1-36.22,17.71Z" fill="#56c96e" stroke="#231f20" stroke-miterlimit="10"></path>
      <path d="M772.21,567.47c.87,6.8-45.22,6.8-44.34,0-.87-6.8,45.22-6.8,44.34,0Z" fill="#231f20" stroke="#231f20" stroke-miterlimit="10"></path>
      <path d="M774.03,627.69c-1.99-.3-52.75,.87-52.87-.94-10-4.74-10.43-20.23-10.43-20.23-1.51-20.66,17.13-31.75,17.13-31.75v-7.31c-.87,6.8,45.22,6.8,44.34,0v7.81c24.4,16.02,19.46,50.78,1.82,52.41Z" fill="#190e00" stroke="#231f20" stroke-miterlimit="10"></path>
      <path d="M773.72,584.35c.06,3.92-6.1,3.92-6.05,0-.06-3.92,6.1-3.92,6.05,0Z" fill="#fff"></path>
      <path d="M782.8,593.42c.06,3.92-6.1,3.92-6.05,0-.06-3.92,6.1-3.92,6.05,0Z" fill="#fff"></path>
      <path d="M784.31,608.04c.06,3.92-6.1,3.92-6.05,0-.06-3.92,6.1-3.92,6.05,0Z" fill="#fff"></path>
      <path d="M776.24,619.12c.06,3.92-6.1,3.92-6.05,0-.06-3.92,6.1-3.92,6.05,0Z" fill="#fff"></path>
      <path d="M751.55,622.14c.06,3.92-6.1,3.92-6.05,0-.06-3.92,6.1-3.92,6.05,0Z" fill="#fff"></path>
      <path d="M732.4,619.12c.06,3.92-6.1,3.92-6.05,0-.06-3.92,6.1-3.92,6.05,0Z" fill="#fff"></path>
      <path d="M721.82,610.55c.06,3.92-6.1,3.92-6.05,0-.06-3.92,6.1-3.92,6.05,0Z" fill="#fff"></path>
      <path d="M723.33,593.42c.06,3.92-6.1,3.92-6.05,0-.06-3.92,6.1-3.92,6.05,0Z" fill="#fff"></path>
      <path d="M734.42,583.34c.06,3.92-6.1,3.92-6.05,0-.06-3.92,6.1-3.92,6.05,0Z" fill="#fff"></path>
      <path d="M744.5,592.41c.06,3.92-6.1,3.92-6.05,0-.06-3.92,6.1-3.92,6.05,0Z" fill="#fff"></path>
      <path d="M732.91,600.48c.06,3.92-6.1,3.92-6.05,0-.06-3.92,6.1-3.92,6.05,0Z" fill="#fff"></path>
      <path d="M742.99,610.55c.06,3.92-6.1,3.92-6.05,0-.06-3.92,6.1-3.92,6.05,0Z" fill="#fff"></path>
      <path d="M754.07,601.99c.06,3.92-6.1,3.92-6.05,0-.06-3.92,6.1-3.92,6.05,0Z" fill="#fff"></path>
      <path d="M756.09,584.86c.06,3.92-6.1,3.92-6.05,0-.06-3.92,6.1-3.92,6.05,0Z" fill="#fff"></path>
      <path d="M765.16,595.44c.06,3.92-6.1,3.92-6.05,0-.06-3.92,6.1-3.92,6.05,0Z" fill="#fff"></path>
      <path d="M772.21,602.49c.06,3.92-6.1,3.92-6.05,0-.06-3.92,6.1-3.92,6.05,0Z" fill="#fff"></path>
      <path d="M762.13,612.57c.06,3.92-6.1,3.92-6.05,0-.06-3.92,6.1-3.92,6.05,0Z" fill="#fff"></path>
      <path d="M799.42,533.46c-16.62-13.54-40.25,5.04-16.63,28.22,0,0,12.09,11.09,17.13,22.68,0,0,23.18-16.63,23.68-39.31,0,0,0-23.18-24.19-11.59Z" fill="#56c96e" stroke="#231f20" stroke-miterlimit="10"></path>
      <path d="M658.35,530.65c26.11-46.03,37.26,1.31,76.57-5.26,.59-52.92-75.99-50.69-76.57,5.26Z" fill="#56c96e" stroke="#231f20" stroke-miterlimit="10"></path>
      <path d="M727.87,574.78s18.6,9.55,44.34,.5" fill="none" stroke="#231f20" stroke-linecap="round" stroke-linejoin="round"></path>
      <path d="M754.71,550.36s10.95-45.99,38.82-23.68c3.92,3.14,6.38,7.75,7.57,12.63,1.85,7.55,4.2,21.31,1.24,34.59" fill="none" stroke="#231f20" stroke-linecap="round" stroke-linejoin="round"></path>
      <path d="M790.29,429.37s-51.46,37.23-33.94,137.96" fill="none" stroke="#231f20" stroke-linecap="round" stroke-linejoin="round"></path>
      <path d="M678.61,500.54s67.88-1.09,70.07,65.69" fill="none" stroke="#231f20" stroke-linecap="round" stroke-linejoin="round"></path>
    </g>
    <g>
      <path d="M670.5,190.85V42.36c0-1.88,1.53-3.41,3.41-3.41h140.89c1.88,0,3.41,1.53,3.41,3.41V190.85c0,1.88-1.53,3.41-3.41,3.41h-61.4c-9.09,22.97-44.25,30.37-44.25,30.37,17.4-10.44,19.76-23.74,19.72-30.37h-54.96c-1.88,0-3.41-1.53-3.41-3.41Z" fill="#190e00" stroke="#231f20" stroke-miterlimit="10"></path>
      <path d="M670.5,42.36v14.19s147.71,0,147.71,0v-14.19c0-1.88-1.53-3.41-3.41-3.41h-140.89c-1.88,0-3.41,1.53-3.41,3.41Z" fill="#fff" stroke="#231f20" stroke-miterlimit="10"></path>
      <g>
        <rect x="716.75" y="44.99" width="95.95" height="5.52" transform="translate(1529.44 95.51) rotate(-180)" fill="#e3e4e5" stroke="#231f20" stroke-miterlimit="10"></rect>
        <rect x="676.02" y="44.99" width="36.58" height="5.52" transform="translate(1388.63 95.51) rotate(-180)" fill="#e3e4e5" stroke="#231f20" stroke-miterlimit="10"></rect>
      </g>
      <rect x="686.03" y="63.46" width="57.98" height="52.46" fill="#fff" stroke="#231f20" stroke-miterlimit="10"></rect>
      <circle cx="731.59" cy="76.57" r="6.21" fill="#190e00" stroke="#231f20" stroke-miterlimit="10"></circle>
      <path d="M686.03,86.9v29.02s57.98,0,57.98,0v-27.82c-5.44-1.13-13.66-.75-21.4,7.81,0,0-8.97,12.42-18.64,2.07,0,0-9.79-11.1-17.95-11.07Z" fill="#5ca0c3" stroke="#231f20" stroke-miterlimit="10"></path>
      <g>
        <g>
          <line x1="807.17" y1="124.2" x2="749.88" y2="124.2" fill="none" stroke="#231f20" stroke-linecap="round" stroke-linejoin="round"></line>
          <line x1="807.17" y1="131.79" x2="749.88" y2="131.79" fill="none" stroke="#231f20" stroke-linecap="round" stroke-linejoin="round"></line>
          <line x1="807.17" y1="139.39" x2="749.88" y2="139.39" fill="none" stroke="#231f20" stroke-linecap="round" stroke-linejoin="round"></line>
          <line x1="807.17" y1="146.98" x2="749.88" y2="146.98" fill="none" stroke="#231f20" stroke-linecap="round" stroke-linejoin="round"></line>
          <line x1="807.17" y1="154.57" x2="749.88" y2="154.57" fill="none" stroke="#231f20" stroke-linecap="round" stroke-linejoin="round"></line>
          <line x1="807.17" y1="162.16" x2="749.88" y2="162.16" fill="none" stroke="#231f20" stroke-linecap="round" stroke-linejoin="round"></line>
          <line x1="807.17" y1="169.76" x2="749.88" y2="169.76" fill="none" stroke="#231f20" stroke-linecap="round" stroke-linejoin="round"></line>
          <line x1="807.17" y1="177.35" x2="749.88" y2="177.35" fill="none" stroke="#231f20" stroke-linecap="round" stroke-linejoin="round"></line>
          <line x1="807.17" y1="184.94" x2="749.88" y2="184.94" fill="none" stroke="#231f20" stroke-linecap="round" stroke-linejoin="round"></line>
        </g>
        <g>
          <line x1="738.83" y1="124.2" x2="681.54" y2="124.2" fill="none" stroke="#231f20" stroke-linecap="round" stroke-linejoin="round"></line>
          <line x1="738.83" y1="131.79" x2="681.54" y2="131.79" fill="none" stroke="#231f20" stroke-linecap="round" stroke-linejoin="round"></line>
          <line x1="738.83" y1="139.39" x2="681.54" y2="139.39" fill="none" stroke="#231f20" stroke-linecap="round" stroke-linejoin="round"></line>
          <line x1="738.83" y1="146.98" x2="681.54" y2="146.98" fill="none" stroke="#231f20" stroke-linecap="round" stroke-linejoin="round"></line>
          <line x1="738.83" y1="154.57" x2="681.54" y2="154.57" fill="none" stroke="#231f20" stroke-linecap="round" stroke-linejoin="round"></line>
          <line x1="738.83" y1="162.16" x2="681.54" y2="162.16" fill="none" stroke="#231f20" stroke-linecap="round" stroke-linejoin="round"></line>
          <line x1="738.83" y1="169.76" x2="681.54" y2="169.76" fill="none" stroke="#231f20" stroke-linecap="round" stroke-linejoin="round"></line>
          <line x1="738.83" y1="177.35" x2="681.54" y2="177.35" fill="none" stroke="#231f20" stroke-linecap="round" stroke-linejoin="round"></line>
          <line x1="738.83" y1="184.94" x2="681.54" y2="184.94" fill="none" stroke="#231f20" stroke-linecap="round" stroke-linejoin="round"></line>
        </g>
      </g>
      <path d="M771.03,77.2s-.17,.98,.93,5.01l2.55,9.23,2.49,9.02,2.49-9.02,2.79-10.08c.7-3.31-.2-4.16-.2-4.16h8.51s-.97,.6-1.96,2.79l3.16,11.45,2.49,9.02,2.49-9.02,2.79-10.08c.7-3.31-.2-4.16-.2-4.16h8.51s-1.59,.98-2.77,5.01l-2.55,9.23-3.45,12.47h-5.79s-3.45-12.47-3.45-12.47l-2.3-8.33-2.3,8.33-3.45,12.47h-5.79s-3.45-12.47-3.45-12.47l-2.79-10.08c-.99-3.31-1.6-4.16-1.6-4.16h2.82Z" fill="#fff" stroke="#231f20" stroke-miterlimit="10"></path>
    </g>
    <rect x="439.53" y="71.35" width="113" height="76" fill="#fff" stroke="#231f20" stroke-miterlimit="10"></rect>
    <path d="M456.74,173.85h65.57c3.71,0,6.71,3.01,6.71,6.71v32.57c0,3.71-3.01,6.71-6.71,6.71h-20.51c.02,4.53,.96,11.71,6.22,15,0,0-15.91-1.68-21.67-15h-29.61c-3.71,0-6.71-3.01-6.71-6.71v-32.57c0-3.71,3.01-6.71,6.71-6.71Z" fill="#5ca0c3" stroke="#231f20" stroke-miterlimit="10"></path>
    <g>
      <circle cx="504.03" cy="196.35" r="3.5" fill="#fff" stroke="#231f20" stroke-miterlimit="10"></circle>
      <circle cx="489.53" cy="196.35" r="3.5" fill="#fff" stroke="#231f20" stroke-miterlimit="10"></circle>
      <circle cx="475.03" cy="196.35" r="3.5" fill="#fff" stroke="#231f20" stroke-miterlimit="10"></circle>
    </g>
    <circle cx="497.03" cy="105.85" r="16" fill="#190e00" stroke="#231f20" stroke-miterlimit="10"></circle>
    <path d="M491.36,99.68v12.33c0,.59,.66,.94,1.15,.62l9.86-6.58c.46-.3,.44-.98-.04-1.25l-9.86-5.75c-.49-.29-1.11,.07-1.11,.64Z" fill="#fff" stroke="#231f20" stroke-miterlimit="10"></path>
    <line x1="445.03" y1="134.85" x2="545.03" y2="134.85" fill="none" stroke="#231f20" stroke-linecap="round" stroke-linejoin="round"></line>
    <circle cx="452.03" cy="134.85" r="2" fill="#5ca0c3" stroke="#231f20" stroke-miterlimit="10"></circle>
  </g>
  <path d="M103.12,486l17.08,101.31c.16,.93,.6,1.78,1.26,2.45l54.14,54.14c.11,.11,.29,.01,.27-.14l-20.59-116.57-51.77-41.41c-.17-.14-.43,0-.39,.23Z" fill="#5ca0c3" stroke="#231f20" stroke-miterlimit="10"></path>
  <path d="M103.13,485.37l5.11-.57,49.93,39.48,22.06,116.13h117.29v3.48h-121.93l-20.32-116.71-52.17-41.73s-.02-.08,.02-.08Z" fill="#fff" stroke="#231f20" stroke-miterlimit="10"></path>
  <path d="M169.25,583.91h50.48l77.2,56.06c.19,.14,.09,.44-.14,.44h-116.55l-10.99-56.5Z" fill="#e3e4e5" stroke="#231f20" stroke-miterlimit="10"></path>
</svg>
