<?xml version="1.0" encoding="UTF-8"?>
<svg xmlns="http://www.w3.org/2000/svg" id="a" width="865.76" height="682.89" viewBox="0 0 865.76 682.89">
  <g>
    <g>
      <path d="M688.95,410.74c-.61-3.7-6.16-5.59-16-5.59s-164.37,43.72-177.33,51.11c-12.29,6.98-122.03,87.01-132.71,94.81h283.43c2.79-7.18,17-43.64,19.21-48.64,2.47-5.59,14.16-20.31,17.24-24.58,3.07-4.27,1.85-8.01,.61-15.39-1.24-7.38-2.46-15.39-2.46-15.39,0,0,6.16-17.87,7.38-20.92,1.23-3.05,1.24-11.74,.61-15.4Z" fill="#f1f2f2"></path>
      <path d="M646.68,551.56H361.38l1.24-.9c1.2-.88,120-87.59,132.76-94.84,14.17-8.08,168.73-51.17,177.57-51.17,10.28,0,15.83,2.02,16.49,6,.65,3.82,.62,12.54-.64,15.67-1.16,2.87-6.8,19.23-7.34,20.78,.16,1.03,1.3,8.46,2.44,15.26,.16,.92,.31,1.79,.46,2.61,1.03,5.77,1.65,9.26-1.16,13.16-.72,1-1.93,2.59-3.33,4.44-4.77,6.3-11.99,15.81-13.86,20.04-2.43,5.49-19.04,48.19-19.21,48.62l-.12,.32Zm-282.24-1h281.55c1.54-3.96,16.77-43.08,19.1-48.34,1.92-4.34,9.17-13.91,13.97-20.24,1.4-1.84,2.6-3.43,3.31-4.42,2.56-3.56,2-6.7,.99-12.4-.15-.82-.3-1.69-.46-2.62-1.23-7.3-2.45-15.32-2.46-15.4l-.02-.12,.04-.12c.25-.73,6.17-17.92,7.39-20.95,1.18-2.94,1.2-11.51,.58-15.13h0c-.56-3.38-5.92-5.17-15.5-5.17-8.82,0-162.94,42.99-177.08,51.04-12.01,6.82-118.66,84.56-131.42,93.87Z" fill="#231f20"></path>
    </g>
    <g>
      <path d="M681.31,449.32c-.22-1.42-.36-2.3-.36-2.3,0,0,6.16-17.87,7.38-20.92-6.16-1.24-24.58,0-30.78,4.93-6.2,4.93,0,6.16,4.31,5.59,4.31-.57,11.08-2.47,11.08-2.47,0,0,3.69,3.08-5.59,7.38-9.27,4.3,4.93-11.08-41.25,9.85-46.18,20.93-76.87,30.74-71.97,33.81,4.89,3.07,43.09-9.24,39.4-3.7-3.69,5.54-8.01,8.01-27.7,11.7s-40.01,6.17-48.03,7.4c-8.02,1.23,0-11.08,7.4-17.24,7.4-6.16,1.84-12.29-14.16-4.93-16.01,7.36-57.85,37.55-57.24,41.24s33.24-8,28.93-2.46-63.41,25.24-69.56,29.55c-2.31,1.57-4.71,3.01-7.18,4.31h227.89c3.78-7.82,13.68-28.27,17.47-36.04l1.35-2.75c1.84-3.7,1.23,15.39,3.7,8.61,2.47-6.78,8.61-33.24,12.29-43.09,3.68-9.84-1.84-5.59-3.7-4.31s-3.07,1.23,1.85-9.85c2.71-6.2,8.57-9.34,14.48-14.32Z" fill="#231f20"></path>
      <path d="M634.18,551.56h-230.22l1.79-.94c2.45-1.29,4.85-2.73,7.13-4.28,2.6-1.82,14.13-6.2,27.47-11.28,17.62-6.7,39.54-15.03,41.98-18.16,.3-.38,.29-.53,.29-.54-.67-.83-8.32,.93-13.38,2.09-8.56,1.97-13.87,3.09-15.43,2.05-.28-.19-.46-.45-.51-.76-.72-4.33,42.22-34.74,57.52-41.78,10.58-4.87,16.11-3.79,17.63-1.38,1.2,1.9,.07,4.64-2.94,7.14-6.18,5.14-11.53,13.2-10.41,15.68,.3,.67,1.19,.9,2.62,.68,2.08-.32,4.99-.72,8.5-1.21,9.93-1.38,24.94-3.46,39.52-6.19,19.29-3.61,23.75-6.03,27.38-11.48,.16-.25,.17-.37,.17-.39-.51-1.15-10.6,.94-17.28,2.32-11.85,2.45-19.79,3.94-22.13,2.47-.67-.42-.77-.92-.74-1.27,.21-2.5,8.58-6.08,29.2-14.66,11.87-4.94,26.63-11.08,43.58-18.76,32.15-14.57,35.33-11.69,37.44-9.78,.77,.7,1.23,1.12,3.81-.07,4.7-2.18,5.86-3.94,6-5.04,.08-.63-.18-1.09-.37-1.33-1.35,.37-7.07,1.9-10.86,2.4-2.15,.28-6.46,.27-7.35-1.83-.53-1.25,.36-2.82,2.66-4.64,6.56-5.21,25.27-6.21,31.19-5.02l.59,.12-.22,.56c-1.16,2.87-6.8,19.23-7.34,20.78l.38,2.46-.22,.18c-1.47,1.24-2.94,2.36-4.35,3.45-4.29,3.29-8,6.14-9.99,10.69-3.3,7.42-3.54,9.25-3.43,9.7,.11-.03,.35-.13,.83-.46l.31-.22c1.43-1,3.6-2.51,4.78-1.6,1,.77,.8,2.84-.65,6.71-2.04,5.46-4.87,16.18-7.37,25.63-2.05,7.75-3.82,14.44-4.92,17.46-.36,.98-.79,1.89-1.49,1.79-.94-.11-1.2-1.73-1.66-5.99-.15-1.41-.37-3.4-.62-4.27l-1.3,2.65c-3.76,7.71-13.55,27.91-17.47,36.03l-.14,.28Zm-226.23-1h225.61c4.01-8.3,13.62-28.13,17.34-35.76l1.35-2.75c.11-.21,.42-.86,1.01-.75,.81,.15,1.02,1.45,1.45,5.45,.18,1.69,.45,4.15,.78,4.94,.1-.16,.25-.45,.44-.98,1.08-2.98,2.93-9.97,4.89-17.37,2.5-9.47,5.34-20.21,7.4-25.72,1.74-4.67,1.12-5.46,.97-5.57-.61-.47-2.86,1.11-3.6,1.63l-.32,.22c-.46,.31-1.41,.97-2.04,.45-.63-.52-.9-1.79,3.15-10.92,2.09-4.78,5.89-7.7,10.3-11.08,1.34-1.03,2.72-2.09,4.1-3.24l-.33-2.15,.04-.12c.24-.69,5.58-16.21,7.17-20.38-6.83-1.09-24.05,.38-29.78,4.93-1.85,1.47-2.69,2.7-2.36,3.47,.46,1.08,3.28,1.63,6.29,1.23,4.23-.56,10.95-2.44,11.01-2.45l.25-.07,.2,.17s1.08,.92,.88,2.41c-.26,1.95-2.47,3.91-6.57,5.81-2.96,1.37-3.83,.88-4.9-.09-1.68-1.52-4.8-4.36-36.36,9.95-16.95,7.69-31.73,13.83-43.6,18.77-16.5,6.87-28.42,11.83-28.59,13.82,0,.04-.01,.16,.28,.34,2.18,1.37,12.84-.83,21.4-2.6,11.95-2.47,17.3-3.4,18.31-1.9,.19,.29,.32,.78-.16,1.5-3.8,5.71-8.38,8.23-28.03,11.91-14.6,2.73-29.63,4.81-39.57,6.19-3.5,.48-6.4,.89-8.48,1.21-1.94,.3-3.18-.13-3.68-1.26-1.57-3.48,5.39-12.45,10.68-16.86,2.59-2.16,3.64-4.4,2.73-5.84-1.36-2.15-7.06-2.53-16.37,1.75-16.68,7.67-57.28,37.43-56.96,40.71,0,.01,0,.04,.08,.09,1.32,.88,8.71-.82,14.65-2.19,9.4-2.16,13.6-2.97,14.45-1.64,.28,.45,.17,1.01-.35,1.67-2.61,3.35-23.75,11.39-42.41,18.48-12.73,4.84-24.75,9.41-27.26,11.17-1.78,1.21-3.62,2.35-5.5,3.4Z" fill="#231f20"></path>
    </g>
    <path d="M688.95,415.01s.17,.36,.4,.93v-1.01l-.4,.08Z" fill="#b5b5b5"></path>
    <path d="M689.35,416.5c-.23,0-.44-.13-.53-.35-.22-.56-.38-.9-.38-.92-.12-.29,.02-.62,.31-.75,.02-.01,.05-.02,.07-.03l.4-.08c.16-.02,.32,.02,.45,.12,.12,.1,.2,.25,.2,.41v1.01c0,.27-.19,.51-.46,.56h-.07Z" fill="#263238"></path>
    <path d="M650.17,424.24s-44.94,12.94-50.48,20.32c-5.54,7.38,16.62-1.23,30.78-7.38,14.15-6.16,27.13-12.94,19.71-12.94Z" fill="#263238"></path>
    <g>
      <path d="M600.63,447.9c-.76,.1-1.53-.13-2.1-.64-.8-1.03,.32-2.55,.7-3.04,5.59-7.45,48.93-19.98,50.77-20.52h.16c1.05,0,2.48,.12,2.68,1.12,.41,1.99-7.05,6.32-22.16,12.89-11.29,4.88-24.72,10.19-30.05,10.19Zm49.61-23.1c-2.1,.61-44.85,13.08-50.11,20.11-.74,.97-.85,1.52-.71,1.68,1.02,1.3,10.95-1.27,30.82-9.91,16.9-7.35,21.46-10.84,21.52-11.65-.48-.18-.99-.26-1.5-.22h-.01Z" fill="#231f20"></path>
      <path d="M600.28,448.43c-.76,0-1.5-.28-2.08-.78-.55-.69-.82-1.83,.64-3.72,5.35-7.14,43.39-18.48,50.96-20.67l.37-.04c.71,0,2.86,0,3.17,1.52,.33,1.57-1.93,4.53-22.45,13.45-15.67,6.77-25.83,10.21-30.22,10.23-.13,.02-.26,.02-.38,.02Zm49.8-24.22c-4.99,1.45-45.19,13.32-50.44,20.32-.84,1.08-1.09,1.95-.71,2.43,.4,.34,1.02,.53,1.64,.45h.07c4.23,0,14.27-3.42,29.85-10.15,20.23-8.79,22.03-11.55,21.87-12.33-.01-.07-.04-.14-.08-.19l-.02,.33c-.11,1.65-8.47,6.27-21.82,12.08-6.84,2.97-29.3,12.45-31.41,9.76-.36-.42-.12-1.19,.71-2.29,5.07-6.77,42.81-18.07,50.32-20.27l.2-.03c.54-.04,1.14,.05,1.68,.26l.29,.11c-.28-.31-.97-.47-2.06-.47h-.08Zm-50.2,22.11c1.01,.45,8.12-.53,30.15-10.1,14.56-6.33,19.69-9.69,20.92-10.89-.2-.03-.41-.04-.63-.03-4.62,1.35-44.82,13.26-49.8,19.91-.43,.57-.6,.93-.65,1.11Z" fill="#231f20"></path>
    </g>
    <path d="M585.53,456.87s-29.55,5.59-18.47,10.47l33.86-14.15-15.39,3.69Z" fill="#263238"></path>
    <g>
      <path d="M567.12,467.9c-.07,.01-.15,.01-.22,0-2.02-.9-2.95-1.91-2.8-3.08,.5-4.31,17.87-7.82,21.38-8.45l15.37-3.69c.3-.08,.61,.09,.69,.38,.08,.28-.07,.58-.34,.68l-33.86,14.15c-.07,.02-.14,.02-.21,0Zm27.23-12.56l-8.64,2.08h0c-7.76,1.45-20.19,4.77-20.5,7.48-.07,.56,.61,1.21,1.93,1.82l27.2-11.38Zm-8.77,1.53" fill="#231f20"></path>
      <path d="M567.2,468.41s-.06,0-.09,0c-.09,0-.19,0-.29-.01l-.13-.04c-2.26-1.01-3.27-2.19-3.1-3.6,.58-4.95,19.62-8.49,21.79-8.88l15.34-3.68c.54-.15,1.13,.17,1.29,.73,.15,.53-.13,1.09-.65,1.28l-33.84,14.15c-.12,.03-.23,.05-.32,.05Zm.03-1h0s0,0,0,0Zm-.16-.02l.15,.02,33.78-14.13h-.01s-.03-.11-.03-.11l-15.37,3.69c-8.25,1.47-20.63,4.82-21,8.02-.04,.34-.17,1.34,2.42,2.53h.07Zm.07-.13l-.2-.09c-1.57-.73-2.32-1.52-2.22-2.33,.47-4.05,20.7-7.88,20.9-7.92l8.61-2.07,.31,.95-27.41,11.47Zm21.27-9.99l-2.58,.62c-9.54,1.79-19.89,5.04-20.12,7.06-.02,.14,.22,.61,1.45,1.22l21.25-8.89Z" fill="#231f20"></path>
    </g>
    <g>
      <path d="M445.79,511.67l-27.7,22.78s.61,4.3,11.08-3.7c10.47-8,33.86-24.01,28.32-24.58-5.54-.57-11.7,5.5-11.7,5.5Z" fill="#231f20"></path>
      <path d="M419.87,536.1c-.41,0-.78-.07-1.1-.2-.82-.34-1.13-1.03-1.18-1.39l-.04-.28,27.9-22.94c.44-.42,6.46-6.19,12.08-5.62,.87,.09,1.16,.51,1.25,.85,.64,2.34-8.17,9.02-21.67,18.94-2.84,2.08-5.51,4.05-7.64,5.68-4.31,3.29-7.53,4.96-9.61,4.96Zm-1.19-1.5c.08,.13,.23,.28,.49,.38,.9,.34,3.35,.21,9.69-4.64,2.14-1.63,4.82-3.6,7.66-5.69,7.71-5.67,22.06-16.22,21.3-17.88,0,0-.07-.08-.38-.11-5.24-.55-11.23,5.3-11.29,5.36l-.03,.03-27.43,22.55Z" fill="#231f20"></path>
    </g>
    <g>
      <path d="M627.22,551.07c1.41-1.1,2.7-2.34,3.87-3.7,1.85-2.46,16.62-22.16,20.32-27.09s19.08-10.47,17.87-13.54c-1.21-3.07-19.69-2.47-44.33,9.23-20.61,9.8-57.17,29.04-68.54,35.1h70.81Z" fill="#f1f2f2"></path>
      <path d="M627.39,551.56h-72.99l1.77-.94c.44-.23,44.38-23.61,68.57-35.11,21.48-10.2,38.68-12.1,43.54-10.18,.77,.31,1.26,.72,1.46,1.22,.8,2.05-3.18,4.33-8.23,7.21-3.78,2.16-8.06,4.61-9.71,6.81l-7.13,9.51c-5.49,7.32-12,16-13.19,17.58-1.21,1.4-2.53,2.67-3.96,3.79l-.14,.11Zm-68.98-1h68.63c1.32-1.05,2.55-2.24,3.66-3.52,1.17-1.55,7.68-10.23,13.17-17.55l7.13-9.51c1.78-2.37,5.96-4.76,10.01-7.08,3.69-2.11,8.28-4.73,7.79-5.98-.09-.23-.41-.47-.9-.66-4.7-1.86-21.53,.09-42.74,10.16-21.39,10.17-58.27,29.65-66.75,34.15Z" fill="#231f20"></path>
    </g>
    <g>
      <path d="M692.92,551.07c-1.2-4.02-2.73-7.93-4.59-11.7-2.46-4.31-13.54-6.78-13.54-6.78,0,0,1.23-16.62,.61-22.15s-6.16-3.7-6.16-3.7c0,0-21.55,10.47-24.58,14.77-1.54,2.17-7.12,10.51-12.29,18.3-5,3.44-16.04,10.84-16.04,9.41,0-1.84,3.07-7.38,7.38-16.01,3.63-7.26-12.41,11.72-17.55,17.87h86.74Z" fill="#231f20"></path>
      <path d="M605.11,551.58l.69-.82c17.16-20.56,18.14-19.93,18.67-19.58,.53,.35,.29,1.09-.29,2.25-.92,1.85-1.79,3.56-2.59,5.12-2.53,4.98-4.42,8.69-4.71,10.29,1.4-.44,6.4-3.38,15.14-9.39,3.85-5.79,10.5-15.78,12.24-18.23,3.06-4.35,23.88-14.5,24.76-14.93,.18-.06,2.85-.92,4.86,.36,1.14,.73,1.82,1.99,2.01,3.73,.56,5.08-.39,19.13-.58,21.82,2.1,.51,11.16,2.91,13.45,6.92,1.88,3.81,3.43,7.77,4.64,11.8l.19,.64h-88.48Zm18.42-19.11c-2.08,1.66-8.16,8.43-16.28,18.12h85c-1.16-3.77-2.62-7.46-4.37-10.99-2.31-4.04-13.09-6.49-13.2-6.51l-.42-.09,.03-.43c.01-.17,1.22-16.64,.62-22.06-.16-1.43-.68-2.43-1.55-3-1.6-1.03-3.93-.29-3.95-.28-.15,.08-21.4,10.43-24.32,14.58-1.75,2.46-8.45,12.51-12.28,18.29l-.13,.14c-15.05,10.34-16.05,9.81-16.47,9.59-.22-.12-.35-.34-.35-.59,0-1.57,1.83-5.16,4.85-11.12,.79-1.56,1.66-3.27,2.58-5.11,.1-.21,.18-.38,.25-.52Z" fill="#231f20"></path>
    </g>
    <g>
      <path d="M478.13,442.54s-11.79,18.09-14.77,21.93c-2.98,3.84-30.54,2.69-37.26,5.37-6.71,2.68-14.06,18.23-15.64,23.36-1.58,5.13-2.97,19.87-5.59,21.4-2.61,1.53-13.16,2.14-16.63,5.59-3.47,3.44-5.27,11.76-6.4,15.95-.74,2.64-1.82,5.17-3.23,7.52,0,0,10.81-18.99,13.53-19.57,2.71-.58,10.37-2.89,13.92-4.94,3.55-2.04,8.11-2.3,9.32-5.12,1.21-2.82,1.77-17.06,5.07-23.21,3.31-6.16,4.54-.71,4.88,5.22s.23,11.9,.23,11.9c0,0,4.39-11.25,6.53-13.66,2.14-2.41,8.84,2.23,8.84,2.23,0,0-9.05-5.89-10.33-12.23s3.63-8.46,7.82-7.82c4.19,.64,22.78-2.23,26.43-2.45,3.65-.21,23.59-18.19,23.59-18.19l6.05-23.86-16.38,10.58Z" fill="#231f20"></path>
      <path d="M379.05,543.92l-.86-.5c.15-.26,.34-.59,.57-1,1.11-2.03,1.99-4.18,2.61-6.41,.13-.49,.28-1.05,.43-1.64,1.17-4.54,2.94-11.4,6.1-14.53,2.27-2.25,7.32-3.32,11.38-4.19,2.29-.48,4.44-.94,5.35-1.48,1.51-.88,2.78-8.01,3.71-13.21,.56-3.14,1.09-6.1,1.65-7.9,1.67-5.44,9.1-20.95,15.93-23.68,3.03-1.21,9.94-1.64,17.26-2.1,8.55-.54,18.25-1.14,19.78-3.11,2.94-3.78,14.63-21.71,14.74-21.9l.15-.15,17.45-11.27-6.41,25.24-.11,.1c-2.05,1.85-20.18,18.1-23.9,18.31-1.14,.07-3.84,.41-6.96,.8-7.02,.88-16.63,2.09-19.57,1.64-2.43-.37-4.77,.27-6.11,1.67-1.23,1.29-1.62,3.21-1.15,5.56,1.1,5.44,8.29,10.66,9.83,11.72,.14,.09,.24,.16,.3,.2l-.56,.83s-.16-.11-.36-.24c-1.91-1.25-6.42-3.67-7.83-2.08-2.06,2.32-6.4,13.4-6.44,13.51l-1.02,2.61,.05-2.8c0-.06,.11-6.01-.23-11.86-.31-5.28-1.16-7.31-1.79-7.45-.12-.02-.82-.04-2.15,2.44-2.05,3.82-3.06,11.05-3.79,16.32-.45,3.22-.8,5.76-1.26,6.85-.85,1.99-3.13,2.8-5.54,3.66-1.34,.48-2.73,.97-3.99,1.69-3.55,2.04-11.15,4.37-14.06,4.99-1.74,.37-8.42,11.04-12.62,18.33-.19,.34-.38,.67-.58,1.01Zm99.44-101.01c-1,1.53-11.85,18.16-14.73,21.87-1.81,2.33-10.89,2.9-20.51,3.5-6.92,.43-14.08,.88-16.96,2.03-6.22,2.48-13.58,17.28-15.35,23.04-.54,1.75-1.06,4.68-1.62,7.79-1.38,7.72-2.42,12.86-4.19,13.9-1.05,.62-3.18,1.07-5.65,1.59-3.93,.83-8.82,1.87-10.88,3.92-2.96,2.94-4.69,9.63-5.84,14.07-.16,.6-.3,1.16-.43,1.66l-.06,.22c3.45-5.65,7.96-12.5,9.77-12.89,2.52-.54,10.25-2.85,13.77-4.88,1.33-.77,2.76-1.28,4.15-1.77,2.29-.82,4.28-1.52,4.96-3.11,.42-.97,.78-3.57,1.19-6.59,.74-5.35,1.76-12.68,3.9-16.66,1.2-2.23,2.24-3.17,3.25-2.94,.52,.12,2.11,.47,2.57,8.37,.2,3.48,.25,7,.25,9.3,1.43-3.48,4.08-9.61,5.64-11.37,1.04-1.17,2.85-.99,4.62-.39-2.59-2.34-5.52-5.67-6.24-9.18-.69-3.39,.38-5.38,1.4-6.45,1.58-1.66,4.18-2.4,6.98-1.97,2.8,.42,12.33-.77,19.3-1.65,3.27-.41,5.86-.74,7.03-.8,2.54-.15,15.21-10.78,23.17-17.96l5.7-22.48-15.22,9.83Z" fill="#231f20"></path>
    </g>
    <g>
      <path d="M410.85,373.12s12.29,16.04,17.87,19.14c5.59,3.09,44.43,9.12,49.39,10.24,11.27,2.56,17.94,1.53,17.94,1.53,0,0-7.45,6.7-9.31,12.91-1.85,6.21-3.7,11.1-5.59,11.72s-9.88-14.19-20.36-17.87c-10.49-3.69-34.63-14.2-38.27-16.04s-23.46-25.31-23.46-25.31l11.79,3.69Z" fill="#fff"></path>
      <path d="M481.03,429.19c-.92,0-2.08-1.36-4.53-4.33-3.71-4.49-9.31-11.28-15.87-13.59-10.6-3.72-34.79-14.27-38.33-16.07-3.69-1.87-22.8-24.48-23.62-25.44l-1.11-1.31,13.58,4.25,.1,.13c.12,.16,12.29,15.99,17.72,19,4.06,2.25,26.33,6.13,39.64,8.45,4.64,.81,8.31,1.45,9.62,1.75,11.03,2.5,17.69,1.54,17.75,1.52l1.65-.25-1.24,1.12c-.07,.07-7.37,6.68-9.16,12.69-2.38,7.97-4.09,11.46-5.91,12.05-.09,.03-.19,.04-.28,.04Zm-80.47-58.76c7.1,8.36,19.53,22.53,22.19,23.88,3.53,1.79,27.64,12.3,38.21,16.02,6.83,2.4,12.53,9.32,16.31,13.9,1.52,1.85,3.25,3.94,3.77,3.97,2.03-.67,4.35-8.45,5.23-11.38,1.47-4.91,6.24-10.01,8.39-12.13-2.56,.17-8.34,.21-16.65-1.68-1.28-.29-4.94-.93-9.57-1.74-13.37-2.33-35.75-6.23-39.95-8.56-5.41-3-16.68-17.52-17.93-19.14l-9.99-3.12Z" fill="#231f20"></path>
    </g>
    <g>
      <path d="M426.78,268.78s-8.75,19.53-4.03,19.53,22.9-16.83,22.9-16.83c0,0,0,11.45,2.69,5.38,1.75-4.12,3.1-8.41,4.03-12.79,0,0,3.35,13.46,6.07,7.41,2.71-6.05,5.38-32.33,5.38-32.33l33.01-17.52s16.16,32.33,22.22,26.27c6.05-6.05,4.71-18.13,4.71-18.13,0,0,16.16,9.43,16.16,4.03s-4.71-10.77-4.71-10.77c0,0,2.7,6.05,6.07,0s6.7-18.86,6.7-18.86c0,0,4.04,13.46,6.07,8.08s5.59-23.35,5.59-23.35c0,0,55.04-17.06,59.75-19.76,4.71-2.7,20.88,14.15,26.26,16.16,5.38,2.01,6.7-4.03,6.7-4.03,0,0,8.76,16.83,11.45,12.79,2.69-4.04-2.02-11.45-2.02-11.45,0,0,36.37,33.68,37.04,23.57,.67-10.11-4.04-20.88-4.04-20.88,0,0,6.07,19.54,8.76,14.82,2.69-4.71,6.7-24.25,6.7-26.27s-10.78-29.63-10.78-29.63c0,0-92.13-12.19-164.92,27.56-72.79,39.75-103.4,84.94-107.77,96.99Z" fill="#231f20"></path>
      <path d="M422.74,288.8c-.62,0-1.12-.27-1.45-.77-2.12-3.27,4.24-17.72,5.02-19.45,3.68-10.12,32.74-56.15,107.99-97.24,72.1-39.37,164.3-27.74,165.22-27.62l.29,.04,.11,.28c1.11,2.83,10.81,27.75,10.81,29.81,0,2.17-4.03,21.73-6.77,26.52-.51,.89-1.13,1.03-1.56,.98-1.17-.13-2.5-2.04-3.73-4.51,.54,2.96,.85,6.2,.64,9.37-.09,1.39-.79,1.95-1.36,2.18-5.41,2.15-27.07-16.84-34.38-23.46,1.19,2.62,2.46,6.66,.64,9.41-.5,.74-1.13,.87-1.57,.85-3.15-.17-8.4-9.35-10.19-12.65-.41,.99-1.2,2.38-2.59,3.14-1.26,.69-2.74,.72-4.4,.1-2.09-.78-5.54-3.55-9.54-6.76-6.08-4.88-13.65-10.96-16.3-9.44-4.58,2.63-54.83,18.25-59.57,19.72-.49,2.42-3.65,18.08-5.55,23.13-.41,1.08-.99,1.61-1.66,1.6-1.88-.06-3.82-5.05-4.84-8.08-1.02,3.67-3.63,12.52-6.3,17.33-1.12,2.01-2.33,3-3.6,2.95-.02,0-.04,0-.06,0,1.19,2.06,2.37,4.8,2.37,7.58,0,1.05-.52,1.56-.96,1.82-2.89,1.66-12.14-3.26-15.13-4.94,.18,3.03,.28,12.36-4.93,17.58-.74,.74-1.63,1.02-2.67,.86-6.79-1.1-18.29-23.21-20.12-26.8l-32.32,17.15c-.3,2.93-2.8,26.42-5.4,32.22-.58,1.3-1.27,1.93-2.12,1.86-1.9-.17-3.53-4.63-4.36-7.41-.9,3.73-2.12,7.4-3.62,10.93-.47,1.06-1.13,2.25-2,2.06-1.21-.26-1.57-3.47-1.64-6.51-3.67,3.33-18.09,16.21-22.41,16.21Zm243.33-145.77c-33.44,0-86.31,4.63-131.3,29.19-75.01,40.96-103.91,86.71-107.54,96.72v.03c-2.82,6.27-6.5,16.37-5.11,18.51,.14,.21,.33,.31,.61,.31,3.71,0,17.54-12.06,22.56-16.7l.84-.78v1.14c0,3.22,.41,6.32,.88,6.66,0-.04,.31-.24,.86-1.48,1.73-4.08,3.08-8.35,4-12.69l.45-2.12,.52,2.1c.87,3.5,2.69,8.47,4.01,8.59,.36,.04,.74-.43,1.11-1.27,2.65-5.91,5.32-31.91,5.34-32.17l.03-.27,33.7-17.88,.23,.46c.13,.26,12.89,25.63,19.62,26.72,.71,.11,1.3-.07,1.8-.58,5.82-5.82,4.58-17.6,4.57-17.72l-.11-.99,.86,.5c4.86,2.84,12.86,6.62,14.96,5.41,.2-.11,.45-.33,.45-.95,0-3.13-1.68-6.3-3.01-8.31-1.02-.86-1.62-2.18-1.66-2.26l-1.35-3.02,2.18,2.48c.07,.08,.76,.88,1.6,2.13,.3,.22,.63,.37,.97,.39,.85,.03,1.78-.81,2.68-2.43,3.29-5.93,6.62-18.61,6.66-18.74l.45-1.72,.51,1.71c1.29,4.3,3.35,8.96,4.43,8.99h0c.16,0,.42-.25,.69-.95,1.98-5.28,5.53-23.09,5.56-23.27l.06-.29,.28-.09c.55-.17,55.04-17.07,59.65-19.72,3.25-1.86,10.46,3.93,17.43,9.53,3.77,3.02,7.32,5.88,9.26,6.6,1.38,.51,2.58,.5,3.57-.04,1.88-1.02,2.47-3.61,2.47-3.64l.3-1.34,.63,1.22c2.61,5.02,7.61,13.02,9.91,13.15,.19,.01,.44-.03,.69-.4,2.48-3.73-1.98-10.83-2.03-10.9l-2.07-3.26,2.83,2.62c8.26,7.65,30.72,27.1,35.47,25.22,.29-.11,.67-.37,.74-1.31,.34-5.16-.75-10.53-1.88-14.5-1.04-2.72-1.83-5.21-2.14-6.2l.94-.35c.02,.05,1.06,2.45,2.09,6.03,1.81,4.73,3.92,9.08,5.19,9.22,.07,0,.29,.03,.58-.48,2.59-4.53,6.64-23.93,6.64-26.03,0-1.4-6.32-18.1-10.64-29.17-2.05-.25-14.59-1.65-33.02-1.65Z" fill="#231f20"></path>
    </g>
    <g>
      <path d="M630.23,368.83c-.56-3.04-1.58-5.98-3.02-8.72,3.8,.65,8.04,1.34,9.03,1.34,1.84,0-3.71-4.32-3.71-4.32l-12.78-6.13c-.57-.48-1.12-.93-1.76-1.36,2.23-.27,7.75-1.25,7.75-4.22,0-3.18-11.33-.46-14.52,.38l-.4-.16c1.55-1.37,6.58-6.07,4.47-7.64-1.84-1.39-9.91,2.76-13.86,4.94h-.19c2.97-1.97,7.92-5.52,4.79-5.52-1.68,.1-3.36,.33-5,.68-7.19,1.35-18.44,4.26-18.44,4.26l.95,.41c-6.87,.89-13.54,2.91-19.76,5.95-4.06,2.01-7.78,4.65-11.01,7.82-2.1-.56-6.38-1.37-7.88,.87-1.5,2.25,1.95,3.35,3.87,3.8l-.4,.58c-2.86,.69-8.62,2.29-9,4.19-.32,1.6,2.82,2.38,5.15,2.75-.4,.9-.78,1.83-1.12,2.79-.21,.59-.41,1.21-.61,1.82-2.04,6.59-2.84,14.37-.73,20.89-.92,2.75-1.32,5.64-1.18,8.53,.39,5.47,3.81,.94,5.33-1.36,.26,.26,.51,.53,.78,.77,.1,3.1,.59,6.18,1.45,9.16,1.51,4.54,3.03-6.04,3.03-6.04,8.07,4.02,21.66-17.64,26.2-20.16,4.54-2.52,14.12,4.54,20.16,6.56s9.57-2.52,10.58-6.56l.25-.64c1.42-2.58,6.35,3.25,14.38,4.67,3.98,.7,6.12-1.26,7.19-4.28,1.35,1.43,2.65,2.31,3.35,1.75,1.44-1.12-.96-6.7-2.46-9.92v-1.05c1.79,1.91,5.41,5.42,6.53,3.92,1.52-2.02-7.38-10.75-7.38-10.75Z" fill="#231f20"></path>
      <path d="M549.19,412.96c-.77,0-1.12-1.06-1.26-1.47-.86-2.97-1.35-6.02-1.47-9.09-.07-.07-.14-.14-.21-.21-2.79,4.06-4.03,3.74-4.45,3.63-.85-.22-1.32-1.21-1.45-3.02-.14-2.93,.25-5.8,1.16-8.57-2.52-7.99-.6-16.6,.77-21.04,.21-.63,.41-1.25,.62-1.84,.25-.71,.54-1.45,.87-2.24-2.52-.46-4.05-1.11-4.66-1.98-.26-.38-.36-.81-.27-1.25,.31-1.56,3.28-3.05,8.82-4.44-1.96-.58-3.14-1.35-3.52-2.3-.25-.64-.14-1.31,.32-2.01,1.58-2.36,5.66-1.78,8.14-1.15,3.23-3.12,6.91-5.72,10.94-7.71,5.75-2.82,11.86-4.75,18.17-5.75l-.67-.29,1.41-.36c.11-.03,11.35-2.92,18.48-4.26,1.66-.36,3.37-.59,5.07-.69h0c.85,0,1.34,.24,1.49,.72,.09,.31,.25,.83-1.37,2.29,5.09-2.45,8.27-3.23,9.47-2.33,.44,.33,.68,.79,.71,1.35,.07,1.75-2.18,4.28-4.07,6.08,4.03-1,11.3-2.5,13.36-.91,.42,.33,.65,.78,.65,1.3,0,2.89-4.22,4.08-6.97,4.54,.27,.21,.52,.42,.76,.62l12.81,6.16c4.62,3.6,4.33,4.44,4.24,4.72-.05,.15-.24,.5-.84,.5-.78,0-3.37-.38-8.13-1.18,1.2,2.48,2.07,5.11,2.59,7.82,2.28,2.24,8.95,9.13,7.32,11.29-.26,.34-.63,.54-1.07,.56-1.33,.05-3.36-1.56-5.11-3.29,2.66,5.83,3.28,8.89,2.01,9.87-.79,.62-1.95,.2-3.48-1.25-1.39,3.16-3.96,4.5-7.46,3.88-3.97-.7-7.22-2.47-9.59-3.76-2.68-1.46-3.82-1.97-4.26-1.16l-.22,.58c-.7,2.83-2.44,5.27-4.63,6.47-1.94,1.06-4.15,1.19-6.58,.38-1.94-.65-4.2-1.79-6.59-2.99-4.83-2.44-10.3-5.2-13.18-3.6-1.33,.74-3.62,3.38-6.27,6.44-5.9,6.8-13.9,16.02-19.76,14-.5,3.25-1.33,6.85-2.56,6.96-.03,0-.05,0-.08,0Zm-3.1-12.35l.62,.63c.19,.19,.38,.38,.58,.56l.16,.14v.21c.1,3.06,.59,6.1,1.44,9.04,.14,.42,.25,.62,.32,.71,.5-.55,1.27-3.5,1.73-6.69l.1-.69,.62,.31c5.22,2.6,13.29-6.71,19.19-13.5,2.83-3.26,5.06-5.83,6.54-6.65,3.33-1.86,8.81,.91,14.11,3.58,2.35,1.19,4.58,2.31,6.45,2.94,2.15,.72,4.1,.62,5.78-.31,1.95-1.07,3.5-3.27,4.16-5.9l.26-.7c1-1.83,2.95-.77,5.64,.7,2.31,1.26,5.48,2.98,9.29,3.66,3.31,.58,5.48-.71,6.64-3.95l.27-.77,.56,.59c1.64,1.73,2.45,1.88,2.68,1.71,.3-.23,.99-1.59-2.6-9.32l-.05-.21v-2.32l.87,.93c2.39,2.55,4.45,4.12,5.41,4.12,.01,0,.03,0,.04,0,.14,0,.24-.06,.32-.16,.75-1-3.19-6.02-7.33-10.09l-.11-.11-.03-.16c-.55-3-1.55-5.88-2.97-8.58l-.47-.9,1,.17c4.67,.8,7.58,1.24,8.65,1.32-.52-.72-2.17-2.2-3.69-3.38l-12.84-6.18c-.62-.52-1.12-.93-1.72-1.33l-1.12-.75,1.34-.16c3.54-.42,7.31-1.63,7.31-3.73,0-.21-.08-.37-.26-.51-1.58-1.21-8.33-.02-13.64,1.37l-.16,.04-1.32-.51,.61-.54c3.02-2.67,4.86-5.07,4.81-6.28-.01-.26-.11-.44-.31-.59-.87-.66-4.84,.3-13.32,4.97l-.11,.06h-1.98l1.39-.92c4.72-3.13,5.44-4.27,5.55-4.55-.07-.02-.22-.05-.48-.05-1.62,.1-3.28,.32-4.9,.67-5.61,1.05-13.76,3.07-17.01,3.89l1.27,.55-1.79,.23c-6.83,.89-13.42,2.88-19.61,5.91-4.01,1.99-7.68,4.59-10.88,7.73l-.2,.2-.28-.07c-1.76-.47-5.99-1.34-7.33,.67-.28,.41-.35,.77-.22,1.09,.29,.74,1.67,1.45,3.79,1.95l.71,.17-.93,1.34-.19,.04c-6.1,1.48-8.46,2.93-8.63,3.8-.04,.17,0,.32,.11,.48,.27,.4,1.24,1.14,4.63,1.67l.64,.1-.26,.59c-.44,1-.8,1.9-1.1,2.76-.21,.59-.41,1.2-.61,1.81-1.35,4.35-3.24,12.81-.73,20.58l.05,.16-.05,.16c-.9,2.7-1.29,5.51-1.16,8.35,.13,1.82,.57,2.07,.71,2.11,.5,.12,1.75-.77,3.71-3.72l.34-.51Z" fill="#231f20"></path>
    </g>
    <g>
      <path d="M532.59,206.23s22.16,5.59,30.16,11.7c8,6.11,9.24,25.85,16.62,31.39,7.38,5.54,14.16,16.01,11.7,25.25-2.47,9.24-47.57,46.81-67.89,70.16-20.32,23.36-46.62,87.42-47.85,97.89-1.23,10.47-21.55,9.24-29.55,18.47-8,9.23-13.55,38.17-16.62,43.1-2.77,4.82-6.26,9.18-10.36,12.94-.6,.58-1.25,1.2-1.95,1.84-7.4,6.77-10.88,31.39-10.88,31.39,0,0,11.45-23.44,18.26-30.78,6.81-7.34,13.54-10.47,14.16-16.62,.63-6.16,6.77-22.78,10.46-30.16,3.69-7.38,17.87-12.92,19.71-13.54s15.39-4.31,8.61,6.77-2.46,21.55,1.24,22.78c3.7,1.23,25.85-5.59,28.31-4.93,2.46,.66,2.47,9.24,1.85,16.62-.61,7.38,25.24,14.78,25.24,14.78l1.85,8s6.77-14.15,4.3-15.38-23.39-2.47-22.16-8.01c1.23-5.54,4.31-18.47,1.24-22.78-3.07-4.31-22.78,3.08-26.48,0-3.7-3.08,7.38-23.39,9.85-25.85,2.47-2.46,11.7-15.39,28.93-16.01,17.24-.61,32.63,3.07,39.4,3.7,6.77,.63,47.4-19.09,52.94-21.55,5.54-2.46,17.24-6.16,17.24-6.16-5.03-1.78-10.17-3.22-15.39-4.31-6.77-1.23-15.38,2.46-25.85,6.16-10.47,3.7-21.55,3.7-25.25-12.92-3.8-16.22-3.58-33.13,.61-49.25,4.35-16.02,24.63-52.99,32.02-62.19,7.38-9.19,35.75-17.24,46.78-19.08,11.04-1.84,25.86-5.59,27.7-12.29,1.32-4.63,2.97-9.15,4.93-13.55,0,0-6.77,12.94-13.54,15.39-6.77,2.46-22.16,6.16-22.16,6.16l5.59-19.69s-9.85,16.62-13.55,19.69c0,0-22.16,5.59-24.58,5.59s-12.29-4.93-17.24-9.85c-4.95-4.93-14.9-19.15-16.71-20.38-1.81-1.23-1.23-14.78,6.77-22.16,8-7.38,37.56-25.86,41.87-30.79,4.31-4.93,24.01-25.85,24.01-25.85,0,0-17.21,11.7-21.55,16.62-4.33,4.93-6.16,10.47-8.61,8.61-2.46-1.85-4.31-20.31-4.31-20.31,0,0-3.08,17.24-4.31,21.55-1.23,4.31-5.59,6.16-8.61,8s-24.63,17.24-27.09,19.69c-2.46,2.46-7.4,6.17-9.85,1.85-2.46-4.31-4.93-9.85-8-19.09-3.07-9.24-6.16-19.08-6.16-19.08,0,0,6.16,28.32,3.07,28.32s-22.16-3.7-22.16-3.7l-19.08-1.23,12.31,3.08Z" fill="#fff"></path>
      <path d="M405.04,553.41l.44-3.13c.14-1.01,3.6-24.88,11.04-31.69,.7-.64,1.35-1.26,1.95-1.83,4.07-3.74,7.52-8.05,10.27-12.83,1.07-1.71,2.51-6.64,4.19-12.35,3.07-10.47,7.28-24.81,12.49-30.83,3.66-4.22,9.67-6.25,15.49-8.22,6.83-2.31,13.29-4.49,13.94-9.98,1.23-10.51,27.25-74.35,47.96-98.16,8.83-10.15,22.12-22.78,34.97-34.99,16.17-15.37,31.45-29.88,32.81-34.97,2.35-8.79-4.01-19.09-11.51-24.72-3.75-2.81-5.88-8.91-8.13-15.36-2.23-6.4-4.54-13.01-8.5-16.03-7.82-5.97-29.71-11.54-29.98-11.61l-12.31-3.08,.15-.98,19.08,1.23c.25,.04,19.13,3.7,22.13,3.7,1.33-.84-.81-15.04-3.56-27.71l.97-.26c.03,.1,3.12,9.94,6.15,19.07,2.78,8.36,5.24,14.22,7.96,19,.58,1.02,1.32,1.58,2.25,1.7,2.59,.35,5.87-2.72,6.82-3.66,2.47-2.47,24.23-17.97,27.18-19.77,.46-.28,.96-.56,1.46-.85,2.79-1.59,5.94-3.39,6.93-6.86,1.21-4.24,4.27-21.33,4.3-21.5l.63-3.53,.36,3.57c.71,7.05,2.45,18.7,4.12,19.96,.38,.29,.65,.28,.81,.25,.94-.16,2.08-1.84,3.4-3.8,1.04-1.54,2.23-3.29,3.73-5,4.33-4.92,20.94-16.23,21.64-16.71l3.76-2.56-3.12,3.31c-.2,.21-19.74,20.97-24,25.84-2.22,2.54-10.83,8.47-19.94,14.76-8.87,6.12-18.04,12.44-21.96,16.07-6.03,5.57-7.75,14.72-7.42,19.17,.11,1.5,.44,2.1,.59,2.21,.86,.58,3.06,3.41,6.57,7.98,3.55,4.61,7.58,9.84,10.21,12.46,4.86,4.83,14.64,9.71,16.88,9.71,1.85,0,16.66-3.61,24.34-5.54,3.66-3.16,13.26-19.33,13.36-19.49l1.96-3.31-6.4,22.57c3.29-.81,15.51-3.84,21.28-5.94,6.51-2.36,13.2-15.03,13.27-15.16l.9,.44c-1.94,4.35-3.59,8.89-4.9,13.48-1.89,6.89-16.33,10.68-28.1,12.64-10.64,1.78-39.12,9.74-46.48,18.9-6.98,8.69-27.48,45.62-31.92,62.01-4.16,15.98-4.37,32.93-.61,49.01,1.43,6.44,4.11,10.78,7.95,12.91,4.1,2.28,9.55,2.16,16.64-.34,1.41-.5,2.78-.99,4.11-1.48,8.58-3.11,16-5.79,21.99-4.7,5.24,1.09,10.44,2.55,15.47,4.33l1.41,.5-1.42,.45c-.12,.04-11.73,3.72-17.18,6.14-.88,.39-2.63,1.21-4.98,2.31-12.68,5.93-42.39,19.83-48.21,19.28-1.83-.17-4.33-.57-7.22-1.03-7.79-1.24-19.56-3.11-32.12-2.67-15,.53-23.71,10.38-27.43,14.58-.49,.55-.88,.99-1.17,1.28-2.15,2.14-10.7,17.82-10.45,23.52,.03,.77,.22,1.31,.56,1.59,1.55,1.29,6.82,.44,11.92-.38,6.6-1.07,12.83-2.08,14.65,.48,3.06,4.29,.43,16.05-.98,22.36l-.18,.81c-.1,.45-.01,.87,.27,1.29,1.82,2.68,10.42,4.09,16.11,5.02,2.77,.45,4.77,.78,5.52,1.15,2.7,1.34-2.43,12.62-4.07,16.05l-.62,1.29-2.11-9.1c-2.99-.88-25.92-7.86-25.31-15.22,.78-9.33,.19-15.65-1.49-16.1-.93-.25-6.04,.94-10.98,2.1-7.44,1.75-15.13,3.55-17.36,2.81-1.6-.53-3.13-2.43-4.1-5.09-2.03-5.56-1.06-12.45,2.59-18.42,1.77-2.89,2.25-4.98,1.4-6.05-1.64-2.06-7.85-.51-9.42,.02-.15,.05-15.59,5.63-19.42,13.29-3.56,7.14-9.77,23.76-10.41,29.99-.44,4.32-3.7,7.17-7.82,10.79-1.99,1.74-4.24,3.72-6.47,6.12-6.69,7.2-18.07,30.42-18.18,30.66l-1.39,2.84Zm120.7-349.41l6.98,1.75c.91,.23,22.35,5.68,30.34,11.78,4.19,3.2,6.55,9.96,8.83,16.49,2.2,6.31,4.28,12.27,7.79,14.89,7.77,5.83,14.34,16.55,11.88,25.77-1.43,5.37-16.1,19.3-33.08,35.44-12.83,12.2-26.11,24.81-34.91,34.92-20.09,23.1-46.53,87.46-47.72,97.62-.72,6.11-7.47,8.39-14.61,10.81-5.69,1.92-11.58,3.91-15.06,7.93-5.07,5.85-9.24,20.07-12.29,30.46-1.76,6.01-3.16,10.76-4.29,12.58-2.79,4.85-6.3,9.24-10.44,13.04-.6,.58-1.25,1.19-1.95,1.84-5.58,5.11-8.95,20.94-10.18,27.83,3.33-6.57,11.46-22.1,16.86-27.92,2.27-2.44,4.54-4.44,6.55-6.19,3.96-3.47,7.09-6.21,7.49-10.14,.64-6.33,6.91-23.13,10.51-30.33,3.53-7.07,16.67-12.67,19.99-13.79,.08-.03,8.14-2.69,10.53,.31,1.17,1.47,.74,3.82-1.33,7.19-5.18,8.47-3.23,15.58-2.51,17.56,.85,2.34,2.19,4.06,3.48,4.48,1.96,.65,10.19-1.28,16.81-2.84,6.37-1.5,10.33-2.4,11.46-2.1,2.95,.79,2.84,9.76,2.22,17.15-.48,5.72,17.79,12.23,24.88,14.26l.28,.08,1.59,6.88c2.88-6.26,5.05-12.85,3.92-13.41-.61-.3-2.75-.65-5.24-1.06-6.21-1.01-14.72-2.4-16.77-5.44-.44-.65-.58-1.34-.42-2.06l.18-.81c1.28-5.72,3.94-17.63,1.14-21.57-1.46-2.05-7.95-1-13.67-.07-5.56,.9-10.82,1.75-12.72,.17-.56-.47-.87-1.25-.92-2.31-.28-6.24,8.42-21.96,10.74-24.28,.28-.28,.66-.71,1.13-1.24,3.48-3.93,12.71-14.37,28.14-14.92,12.65-.45,24.49,1.43,32.31,2.68,2.87,.46,5.35,.85,7.15,1.02,5.53,.52,36.17-13.8,47.69-19.19,2.36-1.11,4.12-1.93,5-2.32,4.35-1.93,12.56-4.65,15.86-5.72-4.55-1.55-9.22-2.83-13.92-3.8-5.72-1.04-13.01,1.6-21.46,4.66-1.34,.48-2.71,.98-4.12,1.48-7.38,2.61-13.09,2.7-17.46,.27-4.11-2.28-6.95-6.84-8.44-13.56-3.8-16.23-3.58-33.35,.62-49.49,4.47-16.49,25.09-53.63,32.11-62.38,7.53-9.37,36.34-17.47,47.09-19.26,9.4-1.57,25.46-5.21,27.3-11.93,.74-2.59,1.59-5.17,2.53-7.7-2.64,3.91-6.53,8.71-10.49,10.15-6.72,2.44-22.06,6.13-22.22,6.17l-.83,.2,4.8-16.94c-3.07,5.01-8.99,14.36-11.74,16.64l-.2,.1c-.91,.23-22.25,5.6-24.7,5.6-2.64,0-12.71-5.14-17.59-10-2.68-2.67-6.73-7.92-10.3-12.56-2.86-3.72-5.57-7.23-6.34-7.76-.56-.38-.91-1.38-1.03-2.96-.35-4.64,1.45-14.18,7.74-19.98,3.98-3.68,13.18-10.02,22.08-16.16,9.06-6.25,17.62-12.15,19.76-14.59,3.2-3.65,14.98-16.24,20.77-22.4-5.33,3.75-14.58,10.46-17.56,13.83-1.46,1.66-2.62,3.38-3.65,4.9-1.57,2.32-2.71,4-4.07,4.23-.54,.09-1.07-.06-1.57-.44-1.96-1.48-3.45-11.71-4.13-17.27-.96,5.25-2.81,15.09-3.71,18.24-1.1,3.85-4.59,5.85-7.4,7.45-.5,.29-.98,.56-1.44,.84-2.93,1.79-24.55,17.17-27,19.62-1.32,1.32-4.69,4.34-7.66,3.95-1.24-.17-2.25-.91-2.98-2.2-2.76-4.84-5.23-10.75-8.04-19.18-1.18-3.55-2.37-7.21-3.38-10.36,1.46,7.83,2.96,17.81,1.56,19.55-.26,.33-.57,.4-.79,.4-3.1,0-21.48-3.56-22.26-3.71l-13.53-.87Z" fill="#231f20"></path>
    </g>
    <g>
      <path d="M562.75,217.93c6.08,4.67,8.26,17.13,12.18,25.29l9.36,3.35s9.26,13.57,12.34,17.28c3.08,3.71,9.26,6.17,9.26,6.17,2-.25,3.96-.79,5.81-1.6-3.93-1.95-7.56-4.45-10.78-7.43-4.93-4.93-14.78-19.08-16.62-20.31-1.84-1.23-1.23-14.78,6.77-22.16,8-7.38,37.56-25.86,41.87-30.79,4.31-4.93,24.01-25.85,24.01-25.85,0,0-17.21,11.72-21.55,16.64-4.33,4.93-6.16,10.47-8.61,8.61-2.46-1.85-4.31-20.31-4.31-20.31,0,0-3.08,17.24-4.31,21.55-1.23,4.31-5.59,6.16-8.61,8s-24.63,17.24-27.09,19.69c-2.46,2.46-7.4,6.17-9.85,1.85-2.46-4.31-4.93-9.85-8-19.09-3.07-9.24-6.16-19.08-6.16-19.08,0,0,6.16,28.32,3.07,28.32s-22.16-3.7-22.16-3.7l-19.08-1.23,12.29,3.08s22.19,5.54,30.18,11.7Z" fill="#231f20"></path>
      <path d="M605.83,270.53l-.12-.05c-.26-.1-6.33-2.55-9.46-6.31-2.94-3.53-11.25-15.68-12.28-17.19l-9.4-3.37-.09-.19c-1.3-2.71-2.43-5.94-3.52-9.07-2.24-6.39-4.55-13-8.51-16.05h0c-7.83-6.02-29.78-11.55-30-11.61l-12.29-3.08,.15-.98,19.08,1.23c.25,.04,19.13,3.7,22.13,3.7,1.33-.84-.81-15.04-3.56-27.71l.97-.26c.03,.1,3.12,9.94,6.15,19.07,2.78,8.36,5.24,14.22,7.96,19,.58,1.02,1.32,1.58,2.25,1.7,2.59,.35,5.87-2.72,6.82-3.66,2.47-2.47,24.23-17.97,27.18-19.77,.46-.28,.96-.56,1.46-.85,2.79-1.59,5.94-3.39,6.93-6.86,1.21-4.24,4.27-21.33,4.3-21.5l.63-3.53,.36,3.57c.71,7.05,2.45,18.7,4.12,19.96,.38,.29,.65,.28,.81,.25,.94-.16,2.08-1.84,3.4-3.8,1.04-1.54,2.23-3.29,3.73-5,4.33-4.92,20.94-16.25,21.64-16.73l3.78-2.57-3.13,3.33c-.2,.21-19.74,20.97-24,25.84-2.22,2.54-10.83,8.47-19.94,14.76-8.87,6.12-18.03,12.44-21.96,16.06-6.07,5.61-7.78,14.76-7.43,19.21,.12,1.48,.44,2.07,.6,2.17,.89,.59,3.12,3.47,6.68,8.11,3.48,4.53,7.43,9.67,10.01,12.26,3.17,2.94,6.76,5.41,10.65,7.33l.96,.48-.98,.43c-1.89,.83-3.9,1.38-5.95,1.64l-.13,.02Zm-30.54-27.71l9.32,3.34,.09,.13c.09,.14,9.28,13.6,12.32,17.24,2.73,3.29,8.09,5.62,8.94,5.97,1.55-.2,3.08-.58,4.54-1.14-3.6-1.89-6.93-4.25-9.92-7.01-2.65-2.65-6.61-7.81-10.12-12.37-2.9-3.78-5.65-7.35-6.44-7.89-.57-.38-.92-1.36-1.04-2.92-.37-4.64,1.41-14.17,7.75-20.02,3.98-3.67,13.18-10.02,22.07-16.15,9.06-6.25,17.62-12.15,19.76-14.6,3.2-3.65,14.96-16.22,20.75-22.39-5.34,3.76-14.57,10.47-17.54,13.84-1.46,1.66-2.62,3.38-3.65,4.9-1.57,2.32-2.71,4-4.07,4.23-.54,.09-1.07-.06-1.57-.44-1.96-1.48-3.45-11.71-4.13-17.27-.96,5.25-2.81,15.09-3.71,18.24-1.1,3.85-4.59,5.85-7.4,7.45-.5,.29-.98,.56-1.44,.84-2.93,1.79-24.55,17.17-27,19.62-1.32,1.32-4.69,4.34-7.66,3.95-1.24-.17-2.25-.91-2.98-2.2-2.76-4.84-5.23-10.75-8.04-19.18-1.18-3.55-2.37-7.21-3.38-10.36,1.46,7.83,2.96,17.81,1.56,19.55-.26,.33-.57,.4-.79,.4-3.1,0-21.48-3.56-22.26-3.71l-13.54-.87,6.97,1.75c.91,.23,22.38,5.64,30.37,11.78h0c4.2,3.23,6.56,9.98,8.84,16.51,1.11,3.17,2.15,6.16,3.39,8.78Z" fill="#231f20"></path>
    </g>
    <g>
      <path d="M672.95,259.17c-6.78,2.46-22.16,6.16-22.16,6.16l5.59-19.69s-9.85,16.62-13.55,19.69c2,2.87-12.2,5.95-17.14,8.42-4.94,2.47-19.75,6.18-24.07,11.12s-16.67,17.87-18.51,24.69c-1.84,6.81-9.88,19.75-9.88,19.75-7.06,5.7-13.8,11.78-20.2,18.21-3.6,3.76-6.39,7.28-6.97,9.56-1.03,4.14,1.98,3.07,4.84,1.33l-8.76,20.57s4.22-4.23,8.19-9c-3.72,11.17-8.22,24.99-8.58,27.85-.63,4.94,10.49-11.12,10.49-11.12,0,0-3.71,18.52-2.47,25.93s12.96,16.67,20.36,17.87c7.41,1.21,17.87-7.41,29.63-10.49,7.84-1.87,15.88-2.74,23.94-2.57,5.59-2.47,17.24-6.16,17.24-6.16-5.03-1.78-10.17-3.22-15.39-4.31-6.77-1.23-15.38,2.46-25.85,6.16s-21.55,3.7-25.25-12.92c-3.8-16.22-3.58-33.13,.61-49.25,4.35-16.06,24.63-53.04,32.02-62.23,7.38-9.19,35.75-17.24,46.78-19.08,11.04-1.84,25.86-5.59,27.7-12.29,1.32-4.63,2.97-9.15,4.93-13.55,0,0-6.77,12.91-13.54,15.37Z" fill="#231f20"></path>
      <path d="M571.62,431.11c-.53,0-1.06-.04-1.57-.12-7.62-1.24-19.5-10.69-20.78-18.28-.99-5.93,1.09-18.61,2.04-23.82-3.82,5.39-8.14,10.85-9.54,10.32-.67-.26-.56-1.16-.52-1.45,.27-2.16,2.82-10.52,7.79-25.5-3.38,3.89-6.51,7.04-6.55,7.07l-1.83,1.83,9.19-21.59c-1.84,.95-3.07,1.13-3.83,.57-.71-.52-.85-1.56-.45-3.18,.54-2.14,2.93-5.43,7.09-9.79,6.37-6.41,13.16-12.53,20.18-18.2,.64-1.04,8.04-13.14,9.77-19.55,1.61-5.96,10.83-16.21,16.34-22.34,.89-.98,1.66-1.85,2.28-2.55,3.05-3.48,10.97-6.3,17.34-8.56,2.88-1.02,5.37-1.91,6.89-2.67,1.63-.81,4.19-1.67,6.89-2.58,4.3-1.45,9.66-3.25,10.13-4.69,.03-.1,.05-.23-.08-.42l-.26-.38,.35-.29c3.59-2.98,13.34-19.4,13.44-19.56l1.96-3.31-6.4,22.57c3.29-.81,15.5-3.84,21.28-5.94h0c6.51-2.36,13.2-15.01,13.27-15.13l.9,.44c-1.94,4.35-3.59,8.89-4.9,13.48-1.89,6.89-16.33,10.68-28.1,12.64-10.64,1.78-39.12,9.74-46.48,18.9-6.99,8.7-27.49,45.65-31.92,62.05-4.16,15.98-4.37,32.93-.61,49.01,1.43,6.44,4.11,10.78,7.95,12.91,4.1,2.28,9.55,2.16,16.64-.34,1.41-.5,2.78-.99,4.12-1.48,8.58-3.1,16-5.79,21.99-4.7,5.24,1.09,10.44,2.55,15.47,4.33l1.41,.5-1.42,.45c-.12,.04-11.69,3.71-17.19,6.14l-.1,.04h-.11c-8-.17-16.02,.69-23.81,2.55-4.93,1.29-9.56,3.54-14.04,5.71-5.39,2.61-10.14,4.91-14.21,4.91Zm-18.42-46.69l-.47,2.37c-.04,.18-3.68,18.52-2.47,25.75,1.18,7.05,12.72,16.28,19.95,17.46,4.11,.67,9.24-1.82,15.19-4.7,4.31-2.09,9.19-4.46,14.23-5.78,7.85-1.88,15.91-2.75,23.96-2.59,4.41-1.94,12.49-4.61,15.76-5.67-4.55-1.55-9.22-2.83-13.92-3.8-5.71-1.04-13.01,1.6-21.46,4.66-1.34,.49-2.72,.98-4.12,1.48-7.38,2.61-13.09,2.7-17.46,.27-4.11-2.28-6.95-6.84-8.44-13.56-3.8-16.23-3.58-33.35,.62-49.49,4.46-16.5,25.08-53.67,32.11-62.42,7.53-9.37,36.34-17.47,47.09-19.26,9.4-1.57,25.46-5.21,27.3-11.93,.74-2.6,1.59-5.18,2.54-7.72-2.64,3.9-6.53,8.7-10.5,10.14h0c-6.73,2.44-22.06,6.13-22.22,6.17l-.83,.2,4.8-16.94c-2.96,4.83-8.58,13.71-11.44,16.38,.1,.29,.1,.59,0,.9-.59,1.78-4.64,3.26-10.76,5.32-2.67,.9-5.2,1.75-6.77,2.53s-4.09,1.68-7,2.72c-6.26,2.22-14.04,4.99-16.92,8.28-.62,.7-1.4,1.57-2.29,2.56-5.09,5.66-14.57,16.2-16.12,21.93-1.84,6.81-9.6,19.35-9.93,19.88l-.11,.13c-7.01,5.66-13.79,11.78-20.16,18.17-3.98,4.16-6.35,7.39-6.84,9.33-.28,1.12-.25,1.9,.07,2.13,.19,.14,1.05,.46,4.02-1.35l1.33-.81-8.31,19.52c1.6-1.68,3.99-4.28,6.29-7.03l1.7-2.04-.84,2.52c-5.41,16.23-8.29,25.57-8.56,27.75-.02,.15-.02,.26-.02,.33,1.3-.59,5.89-6.43,9.6-11.8l1.38-1.99Z" fill="#231f20"></path>
    </g>
    <g>
      <path d="M538.07,380.73c1.88-8.09-6.22,19.31-6.22,26.16,0,.81,.14,1.62,.4,2.39,1.88,5.46,9.56,8.83,9.56,8.83l8.1,3.12s-8.72-9.37-11.84-12.46c-3.12-3.08-1.87-19.94,0-28.04Z" fill="#231f20"></path>
      <path d="M551.76,422.47l-10.12-3.89c-.34-.15-7.93-3.52-9.85-9.13-.28-.82-.43-1.68-.43-2.55,0-5.12,5.78-27.62,6.77-28.09l.28-.14,.25,.2c.29,.23,.26,.44-.1,1.98-2,8.7-2.88,24.86-.14,27.57,3.09,3.05,11.77,12.38,11.86,12.47l1.48,1.58Zm-15.29-35.31c-1.85,6.82-4.12,16.24-4.12,19.73,0,.76,.13,1.51,.38,2.23,1.78,5.19,9.21,8.5,9.29,8.53l6.05,2.33c-2.63-2.81-8.05-8.58-10.35-10.85-2.58-2.55-2.34-13.48-1.25-21.97Z" fill="#231f20"></path>
    </g>
    <g>
      <path d="M537.67,359.35s-4.58,10.79-5.19,16.39c-.61,5.6-2.49,14.33-2.49,14.33,0,0,12.46-32.4,16.81-41.73,0,.01-7.89,6.67-9.13,11.01Z" fill="#231f20"></path>
      <path d="M530.45,390.25l-.96-.28c.02-.09,1.88-8.78,2.48-14.28,.61-5.52,4.91-15.76,5.22-16.5,1.14-3.93,7.3-9.52,9.19-11.15l.91-1.95v2.48l-.09,.08c-4.34,9.34-16.63,41.28-16.75,41.61Zm14.91-39.95c-3.27,3.05-6.5,6.7-7.21,9.19l-.02,.06c-.04,.11-4.56,10.79-5.16,16.25-.29,2.61-.85,5.93-1.37,8.72,3.41-8.76,10.14-25.97,13.77-34.22Z" fill="#231f20"></path>
    </g>
    <path d="M517.81,499.87c1.24-5.59,4.31-18.47,1.24-22.78-2.03,5.27-1.24,22.78-1.24,22.78Z" fill="#263238"></path>
    <path d="M517.81,500.43h0c-.28-.02-.5-.25-.5-.54,0-.71-.79-17.67,1.26-23,.07-.19,.25-.32,.45-.35,.2-.04,.41,.05,.53,.22,3.09,4.32,.46,16.12-.97,22.46l-.17,.76c-.06,.28-.31,.46-.59,.44Zm1.37-21.86c-.96,4.04-1.02,11.77-.94,16.76,1.14-5.54,2.36-12.97,.94-16.76Z" fill="#263238"></path>
    <g>
      <path d="M509.6,432.99c-7.41,4.32-16.66,24.69-17.87,27.78-1.22,3.09,5.59-19.75,.61-12.97-4.97,6.78-6.17,20.38-6.78,27.16-.61,6.78-1.85,6.79,4.31,6.18,4.02-.4,16.05-4.23,23.39-5.4-7.08,.37-18.01,3.56-20.67,1.35-3.7-3.07,7.38-23.39,9.85-25.85,2.47-2.46,11.7-15.39,28.93-16.01-.01,0-14.37-6.57-21.78-2.25Z" fill="#231f20"></path>
      <path d="M486.68,481.89c-.84,0-1.36-.13-1.71-.5-.61-.62-.48-1.62-.23-3.6,.1-.78,.22-1.73,.32-2.87l.02-.18c.65-7.13,1.85-20.4,6.86-27.23,.65-.88,1.4-1.73,2.13-1.4,1,.47,.83,2.91-.84,10.07,3.41-7.23,10.3-20.22,16.13-23.62h0c7.25-4.22,20.7,1.54,22.21,2.21l-.17,.44v.53c-14.99,.53-23.7,10.38-27.42,14.58-.49,.55-.88,.99-1.17,1.28-2.15,2.14-10.7,17.83-10.45,23.53,.03,.77,.22,1.3,.56,1.58,1.55,1.29,6.81,.44,11.9-.38,2.9-.47,5.9-.95,8.42-1.08l.1,.99c-3.78,.6-8.89,1.93-13.39,3.1-4.32,1.13-8.05,2.1-10.03,2.3l-.3,.03c-1.29,.13-2.23,.22-2.94,.22Zm6.96-34.79c-.14,.1-.42,.36-.89,1-4.85,6.61-6.08,20.2-6.67,26.73l-.02,.18c-.1,1.15-.23,2.11-.33,2.91-.19,1.45-.32,2.5-.05,2.78,.33,.34,1.72,.19,3.84-.02l.3-.03c1.9-.19,5.77-1.2,9.88-2.27,.72-.19,1.45-.38,2.19-.57-4.44,.66-8.06,.97-9.61-.32-.56-.47-.87-1.24-.92-2.3-.27-6.07,8.47-22.03,10.74-24.28,.28-.28,.66-.71,1.13-1.24,3.31-3.74,11.84-13.39,25.98-14.77-4.22-1.62-13.82-4.68-19.35-1.46h0c-7.21,4.21-16.51,24.6-17.66,27.53-.1,.26-.28,.73-.76,.58q-.5-.16,.2-3c.62-2.54,2.45-10.06,2.01-11.43Z" fill="#231f20"></path>
    </g>
    <g>
      <path d="M428.74,392.26c-5.59-3.09-17.87-19.14-17.87-19.14l-11.75-3.72s19.75,23.46,23.46,25.31c.95,.47,3.23,1.51,6.27,2.86,1.5-1.24,3.07-2.51,4.61-3.72-1.62-.38-3.2-.91-4.71-1.6Z" fill="#231f20"></path>
      <path d="M428.92,398.16l-.28-.13c-3.05-1.36-5.34-2.4-6.29-2.87-3.76-1.88-22.81-24.48-23.62-25.44l-1.11-1.32,13.55,4.29,.1,.12c.12,.16,12.26,15.96,17.7,18.99,1.48,.67,3.02,1.19,4.6,1.56l1.02,.24-.82,.64c-1.48,1.16-3.03,2.4-4.6,3.71l-.24,.2Zm-28.31-27.76c7.08,8.36,19.47,22.51,22.18,23.87,.9,.44,3.07,1.43,5.96,2.72,1.22-1.01,2.42-1.98,3.59-2.9-1.3-.36-2.58-.82-3.81-1.38l-.04-.02c-5.41-3-16.69-17.52-17.93-19.14l-9.95-3.15Z" fill="#231f20"></path>
    </g>
    <path d="M479.53,463.16s2.23-5.88,.37-8.08c-1.87-2.2-8.08-2.23-18.36,4.04-10.29,6.28-15.06,7.71-17.29,18-2.23,10.29-6.98,25.34-8.81,28.27-1.37,2.23-7.05,8.5-10.76,13.68,6.61-7.03,13.1-10.12,13.71-16.13,.6-6.01,6.77-22.78,10.46-30.16,3.69-7.38,17.87-12.92,19.71-13.54s14.19-3.98,9.39,5.38l1.6-1.47Z" fill="#263238"></path>
    <path d="M424.7,519.64c-.13,0-.25-.04-.35-.12-.23-.18-.28-.52-.1-.76,1.98-2.78,4.47-5.82,6.7-8.49,1.84-2.23,3.43-4.17,4.06-5.16,1.73-2.77,6.46-17.45,8.74-28.11,1.98-9.19,5.93-11.52,13.81-16.14,1.12-.68,2.38-1.41,3.71-2.23,10.96-6.65,17.13-6.27,19.09-3.92,1.97,2.35,0,8-.28,8.64-.03,.08-.08,.16-.15,.21l-1.56,1.45c-.22,.21-.58,.2-.79-.02-.16-.17-.2-.43-.09-.64,1.12-2.23,1.34-3.8,.59-4.67-1.53-1.78-6.94-.71-9.31,.08-.16,0-15.54,5.59-19.38,13.26-3.57,7.15-9.79,23.76-10.41,29.97-.42,4.3-3.65,7.13-7.74,10.71-1.88,1.64-4,3.51-6.1,5.74-.11,.13-.27,.2-.44,.2Zm13.68-19.81c-.65,2.02-1.47,3.99-2.46,5.86-.66,1.05-2.23,2.92-4.13,5.27-.7,.86-1.44,1.75-2.23,2.67l.86-.76c3.9-3.42,6.98-6.12,7.37-9.99,.13-1.03,.33-2.05,.59-3.06h0Zm37.67-45.53c-3.09,0-7.94,1.5-14.23,5.31-1.33,.82-2.57,1.54-3.73,2.23-7.82,4.6-11.41,6.7-13.27,15.42-.61,2.89-1.47,6.26-2.41,9.65,1.74-4.88,3.73-9.67,5.97-14.35,4.03-8.08,19.86-13.77,20.02-13.82s8.03-2.64,10.51,.25c.47,.57,.72,1.29,.7,2.03,.48-1.92,.8-4.47-.13-5.59-.92-.85-2.17-1.27-3.42-1.13Zm3.47,8.87" fill="#263238"></path>
    <g>
      <path d="M740.33,172.56c3.03-2.42-9.64-14.24-13.1-17.38-4.45-17.74-13.53-37.45-29.49-55.24-3.79-4.23-8.03-7.93-12.61-11.19l.04,.02s11.16-.01,10.47-2.1c-.69-2.09-16.76-4.88-16.76-4.88,0,0,6.29-5.6,2.1-6.99-4.19-1.4-12.58,2.8-12.58,2.8l3.5-6.29c-1.06-2.13-10.63,1.82-15.13,3.83-15.57-4.77-32.31-6.44-47.81-6.05-33.1,.85-68.21,11.96-98.51,29.45-14.65,8.4-28.25,18.5-40.53,30.1l-.07,.02s-19.33,4.8-19.33,7.6c0,2.52,9.12,1.63,10.88,1.43-2.8,3.35-5.41,6.87-7.78,10.54-4.61,7.25-6.96,15.92-12.42,22.54-1.21,1.47-2.49,2.88-3.82,4.25-1.88,.66-23.44,8.35-30.13,13.91-6.34,5.28-7.39,10.06-5.36,10.04-4.58,2.85-9.24,6.43-10.35,9.75-1.24,3.71,1.31,3.31,3.97,2.12-9.42,10.91-16.42,25.72-16.91,51.14-.03,1.47-.02,2.88,0,4.22-3.58,3.57-7.09,7.83-5.59,9.71,1.23,1.54,3.8,.51,6.3-1.13,.13,.81,.27,1.58,.43,2.31-3.64,4.95-7.5,10.86-6.73,12.78,1.4,3.5,8.38-4.89,8.38-4.89,0,0-6.98,13.27-4.19,16.06,2.79,2.79,7.69-4.19,7.69-4.19,0,0,0,16.06,4.89,11.17,4.89-4.89,6.98-17.46,6.98-17.46,0,0,6.98,18.16,8.38,8.39,.73-4.99,1-10.04,.81-15.08,4.64-2.98,9.76-7.07,15.25-12.11,19.74-18.12,37-33.39,44.38-34.63-2.07,2.52-3.37,4.9-2.36,6.18,1.24,1.56,3.88,.47,6.42-1.21,.15,.66,.35,1.33,.61,2-3.72,5.02-7.82,11.21-7.03,13.18,1.4,3.5,8.38-4.89,8.38-4.89,0,0-6.98,13.27-4.19,16.06,2.79,2.79,7.67-4.19,7.67-4.19,0,0,0,16.06,4.89,11.17,4.89-4.89,6.98-17.45,6.98-17.45,0,0,6.98,18.15,8.38,8.38,.64-4.36,.93-8.76,.87-13.17,2.98-1.95,5.96-4.98,8.79-9.36,15.36-23.75,32.82-45.39,50.97-57.26,15.06-9.85,11.39,1.45,15.68,7.18-2.04,3.14-3.64,6.7-1.01,7.45,2.79,.8,5.8-1.81,7.88-4.21,1.02,.16,2.04,.26,3.07,.3,.67,4.35,2.06,10.67,4.41,8.8,1.91-1.53,2.99-6.02,3.57-9.76,.89-.24,1.8-.53,2.74-.87,1.74,3.45,4.04,6.76,4.87,2.2,.28-1.52,.48-3.06,.63-4.6,4.93-2.49,10.62-6.19,17.53-11.36,19.56-14.66,37.01-19.56,50.97-12.58,0,0,.01,0,.02,0,.38,1.09,7,20,8.36,13.22,.73-3.6,1-7.28,.81-10.95,.28,.01,.55,.02,.83,.02,1.69,2.77,5.18,7.77,6.74,4.65,.7-1.4,.77-3.28,.56-5.15,8.2-1.12,15.55-3.27,19.69,1.7,6.98,8.38,14.67,47.49,23.05,32.82,2.45-4.29,4.11-11.64,4.35-20.89,2.35,2.82,5.99,6.63,8.22,6.18,2.45-.49-4.39-11.65-8.68-18.25-.09-.91-.19-1.83-.3-2.76,3.17,2.05,8.1,4.67,10.38,2.86Z" fill="#2bb673"></path>
      <path d="M388.1,309.46c-.23,0-.45-.04-.67-.13-2.41-1-2.91-7.9-3.01-11.04-1.19,1.44-3.39,3.73-5.42,3.91-.83,.07-1.55-.19-2.15-.79-2.17-2.17,.63-9.32,2.58-13.55-1.74,1.71-4.04,3.6-5.56,3.36-.42-.07-1-.32-1.32-1.14-.26-.64-1.03-2.59,6.66-13.08-.09-.45-.18-.91-.27-1.37-3.05,1.85-5.17,2.06-6.32,.61-1.41-1.77,.38-5.11,5.48-10.22-.03-1.34-.03-2.69,0-4.03,.41-21.33,5.45-37.28,15.82-50.01-1.24,.34-2.12,.27-2.66-.22-.65-.58-.71-1.62-.19-3.18,.92-2.77,4.21-5.97,9.78-9.53-.12-.13-.21-.29-.27-.47-.65-1.76,1.36-5.87,6.35-10.03,6.61-5.5,27.3-12.94,30.17-13.96,1.39-1.43,2.6-2.78,3.71-4.14,3.14-3.8,5.28-8.4,7.36-12.84,1.51-3.24,3.08-6.59,5.03-9.65,2.14-3.32,4.51-6.56,7.04-9.66-3.05,.28-8.12,.49-9.68-.91-.35-.31-.54-.71-.54-1.15,0-2.94,14.95-6.9,19.64-8.07,12.27-11.58,25.9-21.7,40.53-30.08,31.55-18.21,66.62-28.69,98.74-29.51,16.93-.42,33.46,1.66,47.79,6.02,14.21-6.31,15.26-4.21,15.61-3.52l.12,.24-2.88,5.18c2.62-1.15,8.24-3.29,11.55-2.18,1.23,.41,1.62,1.15,1.74,1.7,.38,1.82-1.74,4.25-2.93,5.45,4.64,.84,15.49,3,16.17,5.04,.11,.33,.06,.68-.15,.96-.99,1.38-6.43,1.7-9.29,1.77,4.25,3.14,8.09,6.62,11.44,10.36,17.94,20,25.98,41.09,29.57,55.31,4.23,3.84,13.73,12.9,13.62,16.67-.02,.57-.24,1.04-.65,1.37-2.25,1.8-6.55-.11-10.07-2.27,.06,.54,.12,1.07,.17,1.61,10.18,15.67,9.36,17.62,9.09,18.26-.15,.35-.43,.58-.8,.65-1.8,.36-4.44-1.44-7.86-5.36-.34,8.47-1.88,15.48-4.37,19.83-1.42,2.48-2.9,3.62-4.52,3.5-4.35-.34-8.08-10.08-12.02-20.39-2.57-6.71-4.99-13.05-7.33-15.86-3.34-4-9.01-3.11-15.58-2.07-1.04,.16-2.1,.33-3.18,.48,.18,2.06-.04,3.72-.66,4.95-.51,1.01-1.19,1.24-1.67,1.26-1.53,.05-3.45-1.84-5.8-5.64,0,0-.02,0-.02,0,.14,3.53-.14,7.07-.84,10.53-.09,.44-.36,1.79-1.36,1.86-2.4,.19-6.27-10.16-7.9-14.82-13.39-6.59-30.31-2.35-50.29,12.61-6.81,5.11-12.5,8.8-17.36,11.29-.15,1.5-.35,2.97-.61,4.37-.3,1.65-.84,2.51-1.64,2.63-.71,.1-1.87-.25-3.97-4.29-.7,.24-1.38,.46-2.05,.65-.83,5.17-2.07,8.46-3.7,9.76-.7,.56-1.3,.49-1.69,.35-.54-.21-2.16-.84-3.46-9.05-.82-.04-1.64-.13-2.45-.25-2.14,2.41-5.24,5-8.21,4.15-.79-.23-1.32-.68-1.57-1.36-.51-1.37,.18-3.51,2.12-6.55-1.11-1.62-1.68-3.61-2.18-5.38-.67-2.37-1.26-4.42-2.86-5.01-1.81-.67-5,.51-9.76,3.62-15.97,10.45-33.07,29.67-50.83,57.12-2.65,4.1-5.58,7.25-8.71,9.36,.04,4.33-.25,8.7-.88,12.97-.19,1.35-.6,3.17-1.87,3.31-2.32,.27-5.32-6.31-6.83-9.99-.76,3.63-2.88,12.11-6.8,16.03-.97,.97-1.88,1.29-2.71,.94-2.41-1-2.91-7.9-3.01-11.03-1.19,1.44-3.38,3.73-5.41,3.9-.83,.07-1.55-.19-2.15-.79-2.17-2.17,.63-9.32,2.58-13.55-1.74,1.71-4.03,3.61-5.56,3.36-.42-.07-1-.32-1.32-1.14-.26-.65-1.05-2.63,6.93-13.45-.14-.37-.26-.75-.36-1.12-3.15,1.95-5.33,2.2-6.5,.73-.93-1.17-.45-3.02,1.46-5.63-8.12,2.78-25.51,18.33-42.74,34.14-5.52,5.07-10.59,9.11-15.08,12.01,.17,4.97-.11,9.97-.83,14.88-.19,1.35-.6,3.16-1.87,3.31-2.25,.26-5.32-6.32-6.84-9.99-.76,3.64-2.88,12.12-6.8,16.04-.72,.72-1.4,1.08-2.05,1.08Zm-2.7-14.18v1.58c0,4.08,.66,10.81,2.42,11.54,.42,.18,.97-.07,1.62-.72,4.72-4.72,6.82-17.06,6.84-17.19l.3-1.81,.66,1.71c2.07,5.39,5.14,11.12,6.43,10.96,.31-.04,.74-.7,.99-2.46,.72-4.94,.99-9.98,.81-14.99v-.29s.23-.15,.23-.15c4.5-2.88,9.61-6.94,15.18-12.06,19.15-17.58,36.98-33.47,44.63-34.75l1.32-.22-.85,1.03c-2.22,2.7-3.06,4.67-2.36,5.55,1.07,1.35,3.72,.03,5.76-1.32l.61-.4,.16,.71c.14,.64,.34,1.29,.59,1.92l.1,.26-.16,.22c-7.06,9.53-7.23,12.05-6.97,12.7,.17,.42,.38,.5,.55,.53,1.54,.24,5.08-3.28,6.98-5.56l3.04-3.65-2.21,4.2c-2.63,5.01-6.12,13.63-4.28,15.48,.39,.39,.84,.55,1.35,.51,2.03-.18,4.7-3.4,5.56-4.63l.91-1.3v1.59c0,4.08,.66,10.81,2.42,11.54,.42,.17,.97-.07,1.62-.72,4.72-4.72,6.82-17.05,6.84-17.18l.3-1.81,.66,1.71c2.07,5.38,5.09,11.09,6.42,10.95,.31-.04,.74-.7,.99-2.46,.63-4.32,.92-8.72,.86-13.09v-.27s.23-.15,.23-.15c3.1-2.03,6.01-5.13,8.65-9.22,17.83-27.57,35.03-46.88,51.12-57.41,5.18-3.39,8.47-4.54,10.66-3.72,2.07,.77,2.75,3.15,3.47,5.68,.54,1.88,1.09,3.82,2.23,5.34l.21,.28-.19,.29c-2.45,3.76-2.43,5.34-2.2,5.95,.14,.37,.43,.61,.91,.75,2.55,.73,5.41-1.8,7.37-4.05l.18-.21,.27,.04c1,.16,2.01,.26,3.01,.3l.41,.02,.06,.41c1.14,7.44,2.51,8.52,2.9,8.68,.09,.03,.31,.12,.7-.19,1.43-1.15,2.6-4.42,3.38-9.45l.05-.32,.31-.08c.87-.24,1.77-.52,2.7-.86l.42-.15,.2,.4c2.1,4.16,3.04,4.16,3.13,4.15,.22-.03,.57-.53,.8-1.81,.27-1.46,.48-2.99,.62-4.56l.03-.27,.25-.12c4.87-2.46,10.58-6.16,17.46-11.32,20.38-15.27,37.71-19.52,51.5-12.63l.18,.09,.09,.2c2.76,7.94,5.86,14.35,6.93,14.35,0,0,.01,0,.02,0,.05,0,.27-.2,.44-1.06,.72-3.56,.99-7.2,.8-10.83l-.03-.55,.55,.03c.26,.01,.51,.02,.77,.02h.27s.19,.24,.19,.24c2.09,3.42,3.93,5.42,5.05,5.4,.12,0,.47-.02,.82-.71,.57-1.15,.75-2.79,.51-4.87l-.05-.49,.48-.07c1.23-.17,2.45-.36,3.64-.55,6.87-1.08,12.81-2.02,16.51,2.42,2.44,2.93,4.89,9.35,7.49,16.14,3.49,9.12,7.44,19.47,11.16,19.75,1.19,.08,2.38-.92,3.57-3,2.5-4.37,4.06-11.9,4.28-20.66l.03-1.33,.85,1.02c3.43,4.12,6.26,6.31,7.74,6.01,.5-1.08-1.66-6.2-9-17.49l-.07-.1v-.12c-.1-.91-.2-1.82-.31-2.75l-.13-1.06,.9,.58c4.71,3.05,8.28,4.1,9.8,2.89h0c.11-.09,.26-.25,.28-.62,.09-2.77-6.87-10.08-13.4-16l-.11-.1-.04-.15c-3.54-14.11-11.51-35.12-29.38-55.03-3.62-4.04-7.84-7.78-12.52-11.11l-3.55-2.52,3.97,1.63c3.73-.01,9.21-.44,9.88-1.38-.36-1.18-8.77-3.29-16.35-4.61l-1.02-.18,.77-.69c1.44-1.29,3.63-3.83,3.35-5.19-.03-.16-.13-.64-1.07-.95-3.95-1.31-12.11,2.74-12.2,2.78l-1.45,.72,4.12-7.4c-.83-.52-4.55-.13-14.32,4.22l-.17,.08-.18-.05c-14.27-4.37-30.75-6.45-47.65-6.03-31.96,.82-66.86,11.25-98.27,29.38-14.6,8.36-28.2,18.47-40.43,30.03l-.09,.09-.12,.03c-9.19,2.29-19.02,5.65-19.02,7.13,0,.1,.02,.24,.2,.4,1.14,1.02,5.9,1,10.12,.53l1.24-.14-.8,.96c-2.8,3.35-5.41,6.88-7.75,10.5-1.91,3-3.46,6.33-4.96,9.54-2.1,4.5-4.28,9.15-7.49,13.05-1.15,1.4-2.41,2.8-3.85,4.28l-.08,.08-.11,.04c-2.38,.84-23.4,8.36-29.97,13.82-5.05,4.2-6.43,7.88-6.06,8.91,.05,.15,.14,.24,.37,.24h0l1.78-.02-1.51,.94c-5.76,3.58-9.26,6.86-10.14,9.48-.36,1.08-.39,1.85-.09,2.12,.16,.14,.86,.51,3.38-.62l2.05-.92-1.47,1.7c-11.18,12.95-16.36,28.62-16.79,50.82-.03,1.4-.02,2.81,0,4.2v.21s-.15,.15-.15,.15c-4.52,4.5-6.55,7.8-5.55,9.04,1.06,1.33,3.65,.06,5.64-1.23l.65-.42,.12,.76c.12,.79,.27,1.56,.43,2.28l.05,.22-.13,.18c-6.78,9.21-6.92,11.67-6.67,12.3,.17,.42,.38,.5,.55,.53,1.53,.23,5.08-3.28,6.98-5.56l3.04-3.65-2.21,4.2c-2.63,5.01-6.12,13.63-4.28,15.48,.39,.39,.83,.55,1.36,.51,2.03-.18,4.71-3.4,5.57-4.63l.91-1.3Z" fill="#231f20"></path>
    </g>
    <path d="M479.16,191.33c-.31,0-.61-.05-.87-.16-.51-.2-.86-.6-1.02-1.14-.96-3.29,5.63-12.54,6.38-13.58,.16-.22,.47-.27,.7-.11,.22,.16,.27,.47,.11,.7-1.97,2.73-6.93,10.32-6.23,12.72,.07,.25,.2,.4,.43,.49,2.32,.93,9.03-5,12.72-8.95,.16-.17,.42-.21,.62-.09,.2,.12,.29,.36,.22,.59-1.09,3.27-1.78,7.23-1,7.91,.22,.19,.67,.03,1-.14,3.97-1.98,6.71-9.42,6.74-9.5,.06-.16,.19-.28,.36-.32,.17-.04,.34,.01,.46,.13,1.29,1.29,3.77,3.27,5.01,3.16,.22-.02,.37-.11,.49-.29,1.01-1.51-.18-4.69-.72-5.79-.09-.19-.06-.42,.09-.57,.15-.15,.38-.19,.57-.11,.04,.02,4.28,1.92,7.1,.83,.94-.36,1.6-1.01,2.01-1.97,.61-1.13,.74-2.38,.39-3.57-.35-1.19-1.15-2.17-2.24-2.76-.16-.09-.28-.27-.28-.46s.1-.36,.26-.45c2.23-1.11,4.31-2.49,6.18-4.12,1.77-1.77-.08-4.92-.1-4.95-.14-.24-.07-.54,.17-.69,.24-.14,.54-.07,.69,.17,.09,.16,2.28,3.85-.08,6.2-1.75,1.51-3.64,2.81-5.65,3.88,.96,.73,1.65,1.72,1.99,2.88,.43,1.44,.27,2.97-.45,4.29-.5,1.16-1.36,2.01-2.55,2.47-2.27,.88-5.17,.13-6.74-.41,.55,1.47,1.26,4.06,.18,5.67-.29,.43-.71,.68-1.23,.73-1.69,.16-4.15-1.9-5.27-2.93-.81,1.99-3.35,7.55-6.95,9.35-.89,.44-1.59,.44-2.1,0-1.22-1.06-.52-4.64,.11-7-2.69,2.69-8.29,7.87-11.52,7.87Z" fill="#231f20"></path>
    <g>
      <path d="M727.7,232.49c-.22-2.35-7.02-5.02-10.41-6.22-.14-.25-.27-.51-.41-.75,2.37-.28,6.65-1.2,5.17-4.13-1.5-2.96-6.81-2.49-9.45-2.05-3.39-4.14-7.52-7.77-12.4-10.9-20.61-13.25-54.82-18.49-73.94,.29-4.4,4.38-7.61,9.8-9.34,15.76,0,0,0,.02,0,.03-.18,.14-11.9,9.5-10.32,12.11,1.18,1.96,6.01-1.83,8.43-3.91-.07,.42-.13,.84-.19,1.27-2.23,3.68-5.84,10.24-4.24,11.73,.83,.77,2.51-.14,4.34-1.71,.93,3.79,3.29,6.44,8.2,6.09,10.6-.76,17.55-8.09,18.26-3.06,.71,5.03,4.47,10.98,12.03,9.29,7.56-1.69,20.11-9.05,25.32-5.41,5.22,3.64,18.99,31.67,29.29,27.79,0,0,.01,0,.02,0l-.02,.03s.5,13.05,2.92,7.73c1.6-3.53,2.5-8.21,2.93-10.97,.35-.27,.7-.55,1.03-.84,1.54,2.98,5.14,8.93,6.31,2.36,.65-3.65,.27-7.43-.37-10.55,3.39-7.65,3.39-17.2,1.71-25.48-.11-.77-.26-1.53-.46-2.28-.29-1.2-.63-2.37-1-3.52,2.88-.15,6.78-.71,6.59-2.69Z" fill="#2bb673"></path>
      <path d="M709.89,288.23c-.06,0-.12,0-.18-.02-1.5-.29-1.99-5.41-2.15-8.85-7.37,1.81-15.92-10.39-22.23-19.37-2.86-4.07-5.32-7.59-6.88-8.67-3.36-2.34-10.4,.34-16.61,2.7-3.03,1.15-5.9,2.24-8.32,2.78-3.01,.67-5.65,.24-7.85-1.28-2.49-1.72-4.28-4.87-4.79-8.43-.09-.63-.28-1.02-.58-1.19-.81-.46-2.69,.32-5.06,1.32-3.04,1.27-7.2,3.01-12.09,3.36-4.4,.31-7.25-1.61-8.52-5.71-2.07,1.63-3.51,2.03-4.41,1.2-1.39-1.29-.06-5.34,3.95-12.03-2.42,1.97-5.25,3.86-6.9,3.6-.5-.08-.89-.34-1.14-.76-1.64-2.73,7.32-10.26,10.32-12.66,1.76-5.99,5.02-11.46,9.43-15.85,18.6-18.27,52.52-14.53,74.56-.36,4.82,3.1,8.97,6.73,12.34,10.79,3.07-.48,8.12-.73,9.69,2.37,.45,.88,.48,1.69,.1,2.41-.74,1.37-2.89,2.03-4.84,2.34,4.71,1.68,10.22,4.14,10.45,6.54h0c.05,.52-.11,1-.47,1.41-.84,.97-2.84,1.57-5.96,1.79,.33,1.06,.59,2.02,.82,2.94,.2,.75,.35,1.53,.47,2.33,1.12,5.53,2.4,16.22-1.68,25.6,.78,3.89,.9,7.45,.34,10.58-.38,2.11-1.05,3.21-2.05,3.37-1.33,.21-2.99-1.49-4.9-5.03-.14,.11-.28,.22-.42,.33-.49,3.15-1.4,7.52-2.93,10.91-.31,.69-.8,1.57-1.52,1.57Zm-1.35-9.39c.17,4.21,.8,8.01,1.38,8.39,0-.03,.23-.21,.58-.98,1.6-3.53,2.5-8.31,2.89-10.84l.03-.2,.16-.12c.35-.27,.68-.54,1.01-.82l.48-.42,.29,.56c2.02,3.89,3.5,5.17,4.15,5.06,.24-.04,.83-.36,1.22-2.55,.54-3.05,.42-6.53-.37-10.36l-.03-.16,.06-.15c2.96-6.69,3.57-15.87,1.68-25.17-.11-.78-.26-1.53-.45-2.25-.26-1.07-.58-2.21-.99-3.49l-.2-.62,.65-.03c3.11-.16,5.2-.69,5.9-1.49,.18-.21,.25-.42,.23-.66h0c-.13-1.43-3.99-3.65-10.07-5.79l-.18-.06-.25-.45c-.08-.15-.17-.31-.25-.46l-.38-.66,.75-.09c2.62-.31,4.4-1.02,4.89-1.93,.22-.42,.19-.9-.11-1.48-1.38-2.72-6.7-2.16-8.92-1.79l-.29,.05-.18-.22c-3.33-4.07-7.46-7.7-12.29-10.8-21.71-13.96-55.07-17.69-73.32,.23-4.33,4.3-7.51,9.68-9.21,15.54l-.04,.15-.13,.13c-5.68,4.54-11.05,10.07-10.21,11.47,.1,.17,.24,.26,.44,.29,1.17,.19,3.87-1.43,7.23-4.32l1.04-.9-.23,1.36c-.07,.42-.13,.83-.19,1.26l-.07,.19c-4.33,7.14-5.03,10.45-4.33,11.1,.51,.46,1.88-.18,3.68-1.72l.62-.53,.19,.79c1.02,4.14,3.53,6,7.68,5.71,4.73-.34,8.8-2.04,11.78-3.29,2.83-1.19,4.71-1.97,5.94-1.26,.59,.33,.94,.96,1.08,1.92,.47,3.29,2.1,6.18,4.36,7.75,1.96,1.36,4.34,1.73,7.06,1.13,2.35-.52,5.18-1.6,8.18-2.74,6.76-2.57,13.75-5.23,17.54-2.59,1.7,1.18,4.09,4.6,7.12,8.92,6.32,9.01,14.96,21.34,21.71,18.82l1.4-.7-.72,1.31Z" fill="#231f20"></path>
    </g>
    <path d="M641.39,247.58c-.22,0-.42-.15-.48-.37l-1.22-4.67-2.7,.25c-.92,.08-1.33-.29-1.52-.61-.6-1.07,.62-3.24,1.54-4.62-1.72,.2-4.76,.14-5.96-2.42-.18-.38-.17-.81,.02-1.24,.99-2.22,7.66-4.95,12.76-6.77-2.16-.01-4.23-.55-4.92-2.38-.24-.64-.18-1.27,.17-1.88,1.77-3.1,10.96-4.8,12-4.98,.27-.05,.53,.13,.58,.41,.05,.27-.13,.53-.41,.58-2.7,.48-10,2.21-11.3,4.49-.2,.35-.23,.68-.1,1.04,1.04,2.77,7.27,1.57,9.71,.84,.03-.01,.07-.02,.09-.03,.26-.08,.54,.07,.62,.33s-.07,.54-.33,.62c0,0-.03,0-.05,.01-6.66,2.02-16.88,5.83-17.91,8.12-.09,.21-.06,.33-.03,.41,1.33,2.84,5.99,1.67,6.04,1.66,.2-.05,.42,.03,.54,.21,.12,.18,.11,.41-.02,.58-1.31,1.74-2.5,3.98-2.18,4.54,.05,.09,.25,.13,.55,.1l3.12-.29c.25-.03,.47,.14,.53,.37l1.33,5.08c.07,.27-.09,.54-.36,.61-.04,.01-.08,.02-.13,.02Z" fill="#231f20"></path>
    <g>
      <path d="M665.64,298.56s13.54,2.47,8-1.84c-5.54-4.31-23.86-5.51-23.86-5.51-18.81-11.8-43.25-12.91-61.61,.44-5.98,4.36-13.95,14.36-18.75,25.04-6.02,2.22-15.57,6.32-12.11,8.91,2.88,2.16,6.38,1.58,8.8,.73-.11,.47-.21,.93-.29,1.39-3.84,3.41-9.56,8.93-7.89,10.18,1.46,1.1,4.88-.64,7.42-2.22,.12,1.22,.33,2.41,.65,3.55-1.61,4.25-2.95,9.25-.07,8.53,1.33-.33,2.57-1.12,3.67-2.09,1.44,1.55,3.27,2.9,5.55,3.99,12.92,6.16,36.32-5.59,43.1-6.77,6.78-1.18,3.07,4.31,14.77,13.54,11.7,9.23,22.16-1.84,24.63,3.08,1.66,3.32-1.43,14.14,2.56,19.38-.36,3.44-.6,7.88,.52,8.23,1.7,.54,10.17-5.12,11.51-6.03,.05-.01,.1-.02,.15-.03-.29,.75-2.29,6.06-.58,6.06,1.06,0,2.75-3.88,4-7.18,.97-.4,1.86-.86,2.69-1.38,1.56,4.05,4.37,9.75,5.67,2.44,.43-2.8,.46-5.63,.13-8.41,4.91-8.37,3.54-20.79,1.58-30.48-.88-4.41-2.24-8.77-3.99-13.01,3.32,3.34,8.54,8.06,8.98,5.14,.64-4.3-12.29-21.54-12.29-21.54,0,0,8.01,6.14,14.16,4.3,6.16-1.84-27.09-18.47-27.09-18.47Z" fill="#2bb673"></path>
      <path d="M660.95,387.65c-.14,0-.27-.02-.38-.05-.51-.16-1.7-.55-.88-8.57-2.4-3.32-2.22-8.63-2.07-12.91,.09-2.67,.18-5.2-.42-6.39-.78-1.55-2.54-1.16-5.84-.28-4.56,1.21-11.46,3.04-18.65-2.63-5.69-4.49-7.79-8.12-9.18-10.52-1.46-2.53-2.01-3.47-5.19-2.92-1.66,.29-4.32,1.22-7.7,2.4-10.28,3.6-25.82,9.03-35.7,4.33-2.1-1-3.9-2.27-5.37-3.76-1.18,.97-2.36,1.6-3.52,1.89-.97,.24-1.51-.09-1.8-.41-.35-.39-1.42-1.59,1.22-8.63-.23-.85-.42-1.75-.54-2.69-3.58,2.13-6.04,2.74-7.31,1.78-.31-.23-.48-.57-.5-.97-.07-1.63,2.7-4.95,8.23-9.87,.03-.13,.05-.26,.08-.39-2.47,.72-5.7,.97-8.42-1.08-.89-.66-.99-1.39-.91-1.89,.31-2.12,4.67-4.75,12.96-7.82,4.52-9.98,12.24-20.25,18.83-25.05,17.66-12.84,42-13.04,62.06-.52,1.77,.12,18.59,1.39,24.01,5.6,.81,.63,1.84,1.57,1.44,2.47-.54,1.21-3.87,1.09-6.72,.74,7.83,4.02,25.61,13.52,25.33,16.84-.03,.38-.25,.88-1.11,1.14-4.29,1.28-9.34-1.07-12.24-2.8,3.58,4.96,11.24,16.07,10.71,19.63-.12,.84-.57,1.15-.93,1.27-.47,.16-1.84,.61-7.21-4.48,1.37,3.62,2.43,7.28,3.16,10.91,2.82,13.93,2.31,23.97-1.55,30.68,.32,2.84,.27,5.66-.15,8.38-.46,2.59-1.15,3.84-2.17,3.94-.8,.08-2.13-.44-4.24-5.73-.65,.37-1.34,.72-2.05,1.02-2.78,7.3-3.87,7.3-4.39,7.3-.38,0-.7-.17-.91-.47-.61-.9-.09-3.09,.52-4.89-3.51,2.31-8.52,5.38-10.47,5.38Zm-5.65-29.97c1.23,0,2.19,.41,2.79,1.6,.71,1.42,.63,3.95,.53,6.87-.14,4.19-.32,9.4,1.99,12.43l.12,.16-.02,.2c-.75,7.19,.17,7.7,.18,7.71,.88,.28,5.54-2.22,11.08-5.97l.17-.07,.93-.22-.2,.85c-.99,2.54-1.47,4.84-1.12,5.35,.11,.03,1.11-.19,3.61-6.82l.08-.2,.2-.08c.92-.39,1.8-.84,2.62-1.34l.51-.32,.22,.56c2.16,5.59,3.28,5.66,3.43,5.64,.12-.01,.77-.22,1.28-3.11,.41-2.67,.46-5.45,.13-8.26l-.02-.17,.08-.14c3.81-6.49,4.31-16.35,1.52-30.13-.86-4.3-2.2-8.64-3.97-12.91l-.97-2.34,1.79,1.8c6.05,6.09,7.63,5.97,7.88,5.89,.05-.02,.19-.06,.25-.46,.5-3.36-8.63-16.42-12.19-21.16l-2.18-2.91,2.88,2.21c.08,.06,7.88,5.96,13.72,4.22,.15-.04,.39-.14,.4-.27,.2-2.3-16-11.49-27.57-17.27l-3.13-1.57,3.45,.63c4.73,.86,8.51,.88,8.74,.31,0,0,.03-.36-1.14-1.27-5.36-4.17-23.4-5.39-23.59-5.4h-.13s-.11-.08-.11-.08c-19.73-12.37-43.69-12.21-61.05,.42-5.32,3.87-13.4,13.3-18.59,24.84l-.09,.19-.2,.07c-7.59,2.8-12.27,5.45-12.51,7.1-.03,.21-.01,.54,.52,.94,2.69,2.02,6.02,1.48,8.33,.66l.86-.3-.2,.88c-.11,.46-.2,.92-.29,1.38l-.03,.17-.13,.11c-7.52,6.68-8.04,8.73-8.02,9.2,0,.13,.05,.18,.1,.21,.94,.71,3.44-.11,6.85-2.24l.69-.43,.08,.81c.12,1.23,.33,2.39,.64,3.46l.05,.16-.06,.16c-2.32,6.13-1.71,7.49-1.47,7.76,.05,.06,.22,.25,.81,.1,1.12-.28,2.28-.95,3.47-1.98l.36-.32,.33,.35c1.44,1.55,3.26,2.86,5.4,3.88,9.51,4.53,24.81-.82,34.94-4.37,3.42-1.2,6.12-2.14,7.86-2.44,3.87-.67,4.71,.77,6.23,3.4,1.35,2.34,3.4,5.87,8.93,10.24,6.79,5.36,13.14,3.68,17.77,2.45,1.6-.42,3.03-.8,4.21-.8Z" fill="#231f20"></path>
    </g>
    <path d="M620.65,333.81c-.09,0-.17,0-.24-.02-2.48-.48-5.58-9.82-6.67-13.33-1.69,2.02-3.89,3.51-6.41,4.34-.96,.36-1.67,.29-2.09-.22-1.19-1.4,1.01-6.05,2.49-8.82-1.67,.68-4.55,1.17-8.19-.85-1.05-.58-1.21-1.29-1.16-1.77,.36-3.51,14.44-8.11,17.26-8.99,.27-.08,.54,.06,.63,.33,.08,.26-.06,.54-.33,.63-6.29,1.97-16.34,5.93-16.57,8.14,0,.1-.04,.41,.65,.8,5.15,2.87,8.54,.17,8.68,.05,.19-.15,.46-.15,.64,0,.18,.16,.23,.42,.11,.63-2.2,3.8-4.14,8.4-3.45,9.21,.12,.14,.49,.11,1-.08,2.65-.87,4.91-2.51,6.54-4.75,.11-.15,.3-.23,.49-.2,.19,.03,.34,.17,.39,.35,1.61,5.44,4.6,13.25,6.18,13.56,.05,0,.16,.03,.34-.19,2.35-2.95,3.59-8.97,3.6-9.03,.04-.19,.18-.34,.37-.39,.19-.05,.38,.02,.51,.17,3.26,3.92,9.18,9.88,11.27,9.24,.43-.14,.69-.66,.77-1.57,.62-7.2,.01-10.29,0-10.32-.04-.22,.06-.44,.26-.55,.2-.1,.44-.06,.59,.11,2.1,2.29,4.88,4.54,5.66,4.24,.15-.06,.24-.37,.24-.83,0-4.14-2.38-8.96-2.41-9-.12-.25-.02-.55,.22-.67,.25-.12,.55-.02,.67,.22,.1,.21,2.51,5.07,2.51,9.45,0,.94-.3,1.54-.88,1.76-1.41,.56-4.09-1.79-5.71-3.41,.13,1.6,.21,4.53-.18,9.08-.12,1.35-.61,2.16-1.47,2.43-2.97,.92-9.5-6.25-11.69-8.79-.46,1.89-1.64,6.04-3.57,8.46-.37,.46-.77,.57-1.07,.57Z" fill="#231f20"></path>
    <g>
      <path d="M444.35,360.75c-.55-3.05-1.57-5.99-3.02-8.71,3.78,.65,8.02,1.34,9.01,1.34,1.89,0-3.7-4.32-3.7-4.32l-12.77-6.13c-.58-.48-1.17-.94-1.77-1.37,2.2-.28,7.75-1.26,7.75-4.23,0-3.17-11.34-.45-14.57,.39-.13-.06-.27-.11-.41-.16,1.57-1.38,6.58-6.06,4.48-7.63-1.85-1.39-9.91,2.75-13.86,4.93-.07-.01-.13-.02-.2-.03,2.98-1.97,7.92-5.51,4.79-5.51-1.68,.1-3.36,.33-5,.68-7.19,1.35-18.45,4.26-18.45,4.26l.94,.41c-7.1,.97-13.94,3.08-19.69,5.99-4.14,1.97-7.85,4.63-11.02,7.81-2.11-.57-6.37-1.37-7.86,.87-1.48,2.23,1.96,3.36,3.87,3.8-.14,.19-.27,.39-.41,.58-2.85,.69-8.61,2.3-9.02,4.18-.34,1.6,2.8,2.38,5.14,2.75-.4,.92-.78,1.85-1.11,2.8-.21,.6-.41,1.18-.6,1.77-2.06,6.61-2.84,14.42-.71,20.95-.77,2.47-1.4,5.5-1.2,8.53,.36,5.49,3.83,.89,5.34-1.4,.25,.26,.51,.52,.77,.77,.15,3.11,.62,6.19,1.44,9.2,1.52,4.54,3.03-6.05,3.03-6.05l-.02-.06s.02,0,.02,.01c8.07,4.08,21.68-17.58,26.21-20.11,4.52-2.52,14.12,4.52,20.16,6.55s9.57-2.51,10.58-6.55,6.04,2.51,14.61,4.03c3.97,.7,6.12-1.26,7.2-4.26,1.35,1.42,2.64,2.29,3.39,1.74,1.46-1.07-.94-6.73-2.45-9.91-.01-.35-.03-.7-.05-1.04,1.79,1.91,5.39,5.38,6.53,3.89,1.54-2.01-7.4-10.75-7.4-10.75Z" fill="#2bb673"></path>
      <path d="M363.32,404.88c-.77,0-1.13-1.06-1.26-1.47-.8-2.94-1.29-6-1.45-9.13-.07-.07-.14-.14-.21-.21-2.82,4.1-4.06,3.77-4.48,3.66-.84-.22-1.31-1.21-1.43-3.01-.17-2.6,.23-5.48,1.18-8.56-2.56-8-.63-16.64,.76-21.1,.2-.59,.4-1.18,.61-1.78,.24-.7,.53-1.44,.87-2.25-2.49-.45-4.06-1.11-4.66-1.98-.26-.38-.35-.82-.26-1.26,.33-1.56,3.3-3.05,8.83-4.43-1.51-.45-3.07-1.17-3.52-2.31-.17-.44-.26-1.14,.31-2,1.58-2.36,5.65-1.78,8.12-1.15,3.21-3.18,6.89-5.77,10.96-7.71,5.41-2.74,11.64-4.72,18.11-5.78l-.67-.29,1.41-.36c.11-.03,11.36-2.92,18.49-4.26,1.66-.36,3.37-.59,5.07-.69h0c.85,0,1.34,.24,1.49,.72,.09,.31,.25,.84-1.44,2.35,5.13-2.48,8.33-3.27,9.54-2.36,.44,.33,.68,.79,.7,1.35,.07,1.76-2.19,4.28-4.08,6.08,4.58-1.13,11.42-2.46,13.42-.91,.42,.33,.64,.77,.64,1.29,0,2.82-3.96,4.04-6.99,4.55,.27,.21,.53,.42,.79,.63l12.8,6.16c4.63,3.58,4.34,4.43,4.24,4.71-.06,.19-.26,.5-.85,.5-.79,0-3.52-.4-8.12-1.18,1.21,2.48,2.08,5.1,2.58,7.8,2.29,2.25,8.98,9.14,7.33,11.3-.26,.34-.63,.53-1.08,.55-1.1,.04-2.79-1.01-4.99-3.16,3.85,8.36,2.41,9.41,1.93,9.76-.83,.61-1.98,.2-3.5-1.25-1.4,3.15-3.97,4.48-7.47,3.87-3.97-.7-7.21-2.47-9.58-3.77-1.76-.96-3.28-1.79-3.93-1.5-.09,.04-.35,.15-.52,.86-.72,2.88-2.45,5.32-4.64,6.52-1.94,1.06-4.16,1.19-6.58,.38-1.94-.65-4.2-1.78-6.58-2.99-4.84-2.44-10.31-5.2-13.18-3.6-1.32,.74-3.6,3.36-6.24,6.4-5.91,6.8-13.93,16.03-19.8,13.99-.5,3.27-1.33,6.9-2.57,7.01-.03,0-.05,0-.08,0Zm-3.07-12.41l.43,.46c.24,.26,.49,.51,.75,.75l.15,.14v.2c.16,3.13,.64,6.19,1.43,9.09,.14,.41,.25,.61,.32,.71,.5-.54,1.25-3.41,1.71-6.56l-.46-1.05,1.16,.47c5.26,2.67,13.36-6.65,19.27-13.46,2.81-3.24,5.03-5.79,6.51-6.62,3.33-1.86,8.81,.91,14.12,3.58,2.35,1.18,4.58,2.3,6.45,2.93,2.15,.72,4.1,.62,5.78-.31,1.95-1.07,3.5-3.27,4.15-5.89,.2-.79,.55-1.3,1.09-1.53,1.11-.49,2.58,.32,4.82,1.53,2.31,1.26,5.47,2.98,9.28,3.66,3.31,.58,5.48-.71,6.64-3.94l.28-.76,.56,.59c1.52,1.6,2.41,1.92,2.73,1.68,.5-.36,.51-2.73-2.6-9.3l-.05-.2c-.01-.34-.03-.69-.05-1.03l-.08-1.38,.95,1.01c2.45,2.61,4.47,4.13,5.44,4.1,.15,0,.25-.06,.33-.16,.76-.99-3.19-6.02-7.35-10.08l-.11-.11-.03-.16c-.54-2.98-1.53-5.86-2.96-8.56l-.48-.9,1,.17c5.63,.97,7.84,1.26,8.67,1.32-.51-.71-2.17-2.2-3.7-3.38l-12.82-6.17c-.56-.47-1.15-.92-1.75-1.35l-1.03-.74,1.26-.16c1.72-.22,7.32-1.12,7.32-3.73,0-.21-.08-.36-.26-.5-1.28-.99-6.66-.45-13.69,1.37l-.17,.04-1.29-.54,.6-.53c2.37-2.09,4.88-4.83,4.82-6.27,0-.25-.1-.43-.3-.58-.88-.66-4.84,.3-13.31,4.97l-.15,.08-1.62-.27,1.06-.7c4.72-3.12,5.44-4.27,5.55-4.55-.07-.02-.22-.05-.48-.05-1.62,.1-3.28,.32-4.9,.67-5.61,1.05-13.77,3.07-17.02,3.89l1.23,.54-1.77,.24c-6.98,.95-13.74,3.01-19.54,5.94-4.06,1.94-7.72,4.53-10.89,7.72l-.2,.2-.28-.07c-1.75-.47-5.97-1.34-7.31,.66-.27,.41-.34,.76-.22,1.08,.3,.76,1.68,1.47,3.78,1.96l.73,.17-.44,.61c-.08,.11-.16,.23-.24,.34l-.27,.39-.18,.04c-6.09,1.46-8.46,2.92-8.65,3.8-.04,.17,0,.32,.1,.48,.47,.68,2.15,1.29,4.62,1.67l.64,.1-.26,.59c-.44,1.02-.8,1.93-1.09,2.77-.21,.6-.41,1.18-.6,1.76-2.31,7.43-2.57,14.95-.71,20.64l.05,.15-.05,.15c-.95,3.02-1.34,5.83-1.18,8.35,.09,1.45,.42,2.04,.69,2.11,.53,.15,1.9-.97,3.74-3.76l.35-.53Z" fill="#231f20"></path>
    </g>
    <path d="M422.47,377.54c-.06,0-.12-.01-.17-.03-.26-.1-.39-.38-.29-.64l1.51-4.03c.08-.23,.32-.37,.57-.31l2.52,.5c.26,.05,.35,0,.36,0,.25-.35-.41-2.16-1.39-3.79-.11-.18-.09-.41,.04-.58,.13-.16,.36-.23,.56-.15,.04,.01,3.69,1.34,4.98-.8,.02-.03,.06-.1,0-.26-.62-1.91-8.77-5.95-13.81-8.07-.04-.01-.06-.02-.07-.03-.25-.11-.37-.4-.26-.65,.11-.25,.4-.37,.65-.27,.03,.01,.07,.03,.12,.05,1.93,.8,6.77,2.27,7.81,.19,.12-.25,.13-.49,0-.77-.85-1.93-6.61-3.95-8.76-4.57-.27-.08-.42-.35-.34-.62,.08-.27,.35-.42,.62-.34,.84,.24,8.21,2.42,9.4,5.13,.24,.55,.23,1.11-.02,1.62-.67,1.33-2.17,1.68-3.78,1.59,3.95,1.91,8.81,4.58,9.41,6.43,.16,.5,.03,.87-.1,1.09-1.18,1.95-3.56,1.83-5,1.54,.63,1.23,1.35,3.01,.77,3.83-.19,.27-.59,.56-1.37,.4l-2.11-.42-1.36,3.63c-.08,.2-.27,.32-.47,.32Z" fill="#231f20"></path>
    <path d="M675.48,149.55c-2.14,0-6.41-8.57-8.82-13.84-.22,2.18-.86,5.47-2.69,6.79-.88,.63-1.92,.76-3.09,.37-4.62-1.54-6.21-9.16-6.62-11.77-1.38,1.01-4.48,3.02-6.74,2.42-.98-.26-1.68-.95-2.09-2.05-1.29-3.47-1.32-8.94-1.24-11.78-1.48,2.14-4.07,5.48-5.7,5.29-.38-.05-.89-.28-1.17-1.11-.84-2.9-1.43-5.86-1.76-8.84-.03-.27,.17-.52,.44-.55,.26-.03,.52,.17,.55,.44,.33,2.92,.91,5.83,1.73,8.65,.08,.25,.2,.4,.33,.42,1.01,.14,3.77-3.21,5.74-6.36,.12-.19,.36-.28,.58-.21,.22,.07,.36,.28,.34,.51,0,.09-.61,8.65,1.09,13.19,.29,.79,.75,1.26,1.41,1.43,1.99,.54,5.4-1.81,6.54-2.76,.14-.12,.33-.15,.51-.08,.17,.07,.29,.23,.31,.41,.01,.1,1.19,10.18,6.06,11.8,.86,.29,1.58,.21,2.19-.23,2.36-1.7,2.39-7.97,2.39-8.03,0-.24,.17-.44,.4-.49,.23-.05,.46,.07,.56,.29,3.65,8.21,7.62,15.1,8.7,15.1h.01s.17-.16,.23-.97c.56-6.78-5.14-20.58-5.2-20.72-.08-.2-.03-.44,.15-.58,.17-.14,.42-.15,.6-.02,4.03,2.76,8.09,4.77,8.7,4.3,.02-.02,.08-.22-.13-.79-1.2-3.03-2.75-5.94-4.6-8.63-.14-.2-.11-.46,.06-.63,.17-.17,.44-.2,.63-.07,1.66,1.11,4.4,2.42,5.31,1.86,.3-.19,.41-.65,.32-1.38-.56-4.53-3.43-10.85-3.46-10.91-.11-.24-.01-.52,.22-.65,.23-.12,.52-.05,.66,.18,2.52,4.07,5.92,8.28,6.9,8.05,.11-.03,.27-.27,.33-.86,.56-5.05-3.41-13.05-3.45-13.13-.12-.25-.02-.55,.22-.67,.25-.12,.55-.02,.67,.22,.17,.34,4.14,8.35,3.55,13.68-.11,1-.48,1.58-1.11,1.72-1.38,.3-3.54-2.16-5.34-4.59,.75,2.1,1.51,4.64,1.79,6.83,.14,1.15-.12,1.94-.78,2.35-1.12,.69-3.06-.03-4.53-.79,1.39,2.24,2.58,4.6,3.54,7.05,.35,.92,.28,1.57-.19,1.94-1.3,1.02-5.72-1.53-8.53-3.36,1.49,3.83,5.15,13.95,4.67,19.69-.04,.42-.14,1.71-1.06,1.87-.04,0-.08,.01-.13,.01Z" fill="#231f20"></path>
    <g>
      <g>
        <g>
          <g>
            <polygon points="343.07 535.22 536.67 536.59 525.07 475.22 465.07 369.22 456.07 337.22 369.07 433.22 343.07 535.22" fill="#231f20"></polygon>
            <path d="M537.27,537.09l-194.84-1.38,.16-.62,26.03-102.12,.08-.09,87.61-96.67,9.23,32.81,60.01,106.02,.02,.08,11.71,61.97Zm-193.56-2.37l192.35,1.36-11.46-60.69-59.99-105.98-.02-.06-8.75-31.13-86.31,95.24-25.81,101.26Z" fill="#231f20"></path>
          </g>
          <g>
            <polygon points="349.07 554.22 538.07 554.22 534.07 531.22 357.07 529.22 345.07 546.22 349.07 554.22" fill="#fff"></polygon>
            <path d="M538.67,554.72h-189.9l-4.27-8.54,12.32-17.46,177.68,2.01,4.17,24Zm-189.29-1h188.1l-3.83-22-176.32-1.99-11.68,16.54,3.73,7.46Z" fill="#231f20"></path>
          </g>
          <g>
            <path d="M456.07,351.22s20,139,82,203h20s-4-31,3-46l-78-159-14-24-13,26Z" fill="#f6991a"></path>
            <path d="M558.64,554.72h-20.78l-.15-.15c-32.1-33.13-52.72-86.65-64.37-125.71-12.61-42.3-17.72-77.22-17.77-77.57l-.02-.15,13.48-26.97,14.47,24.8,78.12,159.25-.1,.22c-6.86,14.7-3,45.42-2.96,45.72l.07,.56Zm-20.36-1h19.22c-.52-4.38-3.4-31.41,3.01-45.49l-77.9-158.79-13.52-23.17-12.52,25.03c.8,5.36,21.55,140.15,81.69,202.42Z" fill="#231f20"></path>
          </g>
          <g>
            <path d="M489.11,307.37c1.13,4.44,27.44,105.99,92.96,200.85h-21s-63.93-99.36-94-170l21.91-30.87c.04-.05,.12-.04,.13,.02Z" fill="#fff"></path>
            <path d="M583.03,508.72h-22.23l-.15-.23c-.64-.99-64.29-100.2-94.04-170.07l-.11-.26,.16-.23,22.09-31.13,.39,.03c.22,.04,.39,.21,.45,.42,1.11,4.34,27.48,105.99,92.89,200.68l.54,.78Zm-21.68-1h19.77c-62.67-91.07-89.37-188.32-92.26-199.33l-21.22,29.89c29.06,68.14,90.25,164.05,93.7,169.44Z" fill="#231f20"></path>
          </g>
          <g>
            <path d="M308.07,487.22s2,39,2,67h39s63-96.12,78.5-169.56l-12.5-2.44-107,105Z" fill="#f6991a"></path>
            <path d="M349.34,554.72h-39.77v-.5c0-27.67-1.98-66.58-2-66.97v-.22s.15-.16,.15-.16l107.19-105.18,13.26,2.59-.1,.5c-15.34,72.69-77.94,168.77-78.57,169.73l-.15,.23Zm-38.77-1h38.23c3.4-5.24,63.07-97.93,78.18-168.67l-11.75-2.29-106.65,104.66c.16,3.21,1.97,39.74,1.99,66.3Z" fill="#231f20"></path>
          </g>
          <g>
            <path d="M105.07,506.22s4,19-1,48h206l-2-67-74,1-76,10-51-3-2,11Z" fill="#fff"></path>
            <path d="M310.59,554.72H103.48l.1-.58c4.92-28.56,1.04-47.62,1-47.81l-.02-.1,2.1-11.53,51.44,3.03,75.91-10,74.55-1.01,2.03,68.01Zm-205.92-1h204.89l-1.97-65.99-73.51,.99-75.94,10-50.65-2.97-1.9,10.47c.3,1.52,3.71,20.13-.92,47.5Z" fill="#231f20"></path>
          </g>
          <g>
            <path d="M62.07,509.22s87-67,124-116,44-59,44-59c0,0,7-10,14-9,0,0,63,2,170-37l27.43-10.62c2.23-.86,4.74-.55,6.7,.82l40.75,28.71c.07,.05,.09,.14,.04,.21-2.71,4.17-74.32,113.47-196.92,194.88,0,0-99-2-136,13,0,0-34-13-94-6Z" fill="#fff"></path>
            <path d="M156.08,515.76l-.18-.07c-.34-.13-34.6-12.87-93.76-5.97l-1.79,.21,1.43-1.1c.87-.67,87.37-67.52,123.91-115.91,36.56-48.42,43.92-58.89,43.99-58.99,.29-.42,7.26-10.23,14.48-9.21,.59,.02,64.1,1.54,169.76-36.97l27.42-10.62c2.39-.93,5.07-.6,7.17,.88l40.75,28.71c.29,.21,.37,.6,.17,.89-2.99,4.6-74.63,113.72-197.06,195.02l-.13,.09h-.16c-.99-.02-99.32-1.83-135.8,12.96l-.18,.07Zm-59.65-9.09c36.28,0,57.44,7.23,59.63,8.02,36.12-14.51,131.37-13.04,135.86-12.97,120.33-79.94,191.49-186.76,196.46-194.37l-40.48-28.52c-1.82-1.28-4.15-1.57-6.23-.77l-27.43,10.62c-105.87,38.59-169.57,37.06-170.2,37.03-6.67-.95-13.51,8.69-13.58,8.79-.07,.1-7.43,10.57-44.01,59.01-34.04,45.08-111.29,106.1-122.69,115,11.94-1.33,22.84-1.85,32.64-1.85Z" fill="#231f20"></path>
          </g>
          <path d="M292.07,502.72c-.12,0-.24-.04-.34-.13-.2-.19-.21-.5-.03-.71,71.21-76.88,108.71-133.9,127.63-168.19,20.5-37.15,24.21-56.37,24.24-56.56,.05-.27,.3-.45,.58-.4,.27,.05,.45,.31,.4,.58-.04,.19-3.75,19.51-24.3,56.78-18.95,34.35-56.5,91.47-127.82,168.47-.1,.11-.23,.16-.37,.16Z" fill="#231f20"></path>
        </g>
        <path d="M670.07,517.72c-.12,0-.24-.04-.34-.13l-160.47-148.61c-.2-.19-.21-.5-.03-.71,.19-.2,.5-.21,.71-.03l160.47,148.61c.2,.19,.21,.5,.03,.71-.1,.11-.23,.16-.37,.16Z" fill="#231f20"></path>
        <path d="M399.07,577.72c-.16,0-.31-.07-.41-.21l-76.89-107.63c-.16-.22-.11-.54,.12-.7,.23-.16,.54-.11,.7,.12l76.89,107.63c.16,.22,.11,.54-.12,.7-.09,.06-.19,.09-.29,.09Z" fill="#231f20"></path>
        <path d="M392.62,597.13c-.16,0-.32-.08-.41-.22-.14-.21-3.46-5.14-4.54-10.22-.51-2.42,.09-4.92,1.66-6.86,1.6-1.98,3.98-3.11,6.52-3.11h8.31c.18,.01,3.45,.35,5.41,3.52,2.18,3.51,1.86,8.95-.95,16.16-.1,.26-.39,.39-.65,.28-.26-.1-.38-.39-.28-.65,2.64-6.79,3-12.07,1.04-15.26-1.7-2.75-4.59-3.06-4.62-3.07h-8.27c-2.24,0-4.33,1-5.75,2.75-1.38,1.7-1.91,3.9-1.46,6.02,1.04,4.88,4.35,9.82,4.39,9.86,.15,.23,.09,.54-.13,.69-.09,.06-.18,.09-.28,.09Z" fill="#231f20"></path>
        <path d="M850.07,597.72H31.07c-.28,0-.5-.22-.5-.5s.22-.5,.5-.5H850.07c.28,0,.5,.22,.5,.5s-.22,.5-.5,.5Z" fill="#231f20"></path>
        <g>
          <path d="M666.84,538.73c-.16,0-.32-.08-.41-.22-.16-.23-3.82-5.67-5.01-11.28-.56-2.66,.1-5.41,1.83-7.54,1.76-2.18,4.38-3.42,7.17-3.42h9.2c.2,.02,3.78,.38,5.94,3.87,2.4,3.87,2.04,9.87-1.05,17.83-.1,.26-.39,.39-.65,.28-.26-.1-.38-.39-.28-.65,2.93-7.53,3.33-13.38,1.14-16.92-1.89-3.07-5.12-3.41-5.15-3.41h-9.15c-2.49,0-4.82,1.11-6.4,3.06-1.54,1.9-2.13,4.34-1.63,6.7,1.15,5.41,4.82,10.88,4.86,10.93,.15,.23,.09,.54-.13,.69-.09,.06-.18,.09-.28,.09Z" fill="#231f20"></path>
          <g>
            <g>
              <path d="M692.85,593.49c-.63,1.99-1.29,4.8-1.38,8.2-.07,2.5,.19,4.7,.55,6.52,.28,1.44,1.38,2.59,2.8,2.96,2.73,.72,5.77,1.33,9.1,1.58,6.71,.52,16.06,.07,27.16-3.58,1.5-.49,2.56-1.82,2.69-3.39,.45-5.32,.95-17.46-3.44-21.27l-37.47,8.99Z" fill="#231f20"></path>
              <path d="M708.66,613.44c-1.61,0-3.2-.06-4.78-.18-2.95-.23-5.95-.75-9.19-1.6-1.6-.42-2.84-1.73-3.16-3.35-.43-2.18-.62-4.41-.56-6.63,.08-2.83,.55-5.63,1.41-8.34l.09-.27,38-9.11,.19,.17c4.42,3.84,4.15,15.24,3.61,21.69-.15,1.76-1.34,3.26-3.03,3.82-7.66,2.52-15.23,3.79-22.57,3.79Zm-15.41-19.52c-.78,2.53-1.21,5.15-1.28,7.79-.06,2.14,.12,4.3,.54,6.41,.24,1.24,1.2,2.25,2.43,2.57,3.18,.83,6.12,1.35,9.01,1.57,8.68,.67,17.75-.53,26.96-3.56,1.31-.43,2.24-1.59,2.35-2.95,.42-4.97,.95-16.81-3.08-20.69l-36.94,8.86Z" fill="#231f20"></path>
            </g>
            <g>
              <path d="M698.1,549.71s4.38,20.17,2.22,30.84c-.37,1.84-1.36,3.49-2.78,4.72-2.39,2.06-6.24,6.47-3.87,12.01,0,0,2.21,8.85,27.65,4.42,0,0,12.17-1.11,8.85-18.8l-3.32-30.97-28.76-2.21Z" fill="#84a1e5"></path>
              <path d="M708.66,603.44c-13.76,0-15.39-5.74-15.46-6.05-2.46-5.72,1.46-10.3,4.02-12.51,1.36-1.18,2.27-2.71,2.62-4.44,2.12-10.44-2.18-30.43-2.22-30.63l-.14-.66,29.84,2.29,3.36,31.38c1.22,6.52,.51,11.62-2.13,15.1-2.89,3.82-7,4.24-7.17,4.25-5.1,.89-9.29,1.24-12.72,1.24Zm-9.93-53.18c.75,3.61,4.05,20.69,2.09,30.39-.4,1.95-1.41,3.68-2.94,5-2.35,2.03-5.97,6.22-3.73,11.43,.05,.16,2.58,8.4,27.11,4.13,.08,0,3.91-.41,6.52-3.88,2.45-3.25,3.1-8.08,1.92-14.34l-3.28-30.6-27.68-2.13Z" fill="#231f20"></path>
            </g>
            <g>
              <path d="M826.01,538.57s4.82,1.19,4.82,15.56v42.03s1.05,12.64-27.69,9.14c-1.81-.22-3.26-1.72-3.28-3.54v-.07s16.59-8.85,16.59-8.85l6.64-30.97,1.63-20.92,1.29-2.39Z" fill="#231f20"></path>
              <path d="M812.29,606.41c-2.67,0-5.72-.19-9.21-.61-2.1-.26-3.7-1.99-3.72-4.03v-.3s.26-.21,.26-.21l16.39-8.74,6.59-30.74,1.68-21.05,1.47-2.73,.38,.09c.21,.05,5.2,1.45,5.2,16.05v42.03c0,.08,.22,2.98-2.61,5.7-2.31,2.23-6.99,4.54-16.43,4.54Zm-11.92-4.42c.15,1.47,1.32,2.63,2.83,2.82,15.38,1.87,21.98-.94,24.8-3.63,2.49-2.38,2.34-4.86,2.33-4.97v-42.07c0-11.39-3.06-14.26-4.11-14.91l-1.01,1.88-1.63,20.82-6.69,31.26-16.51,8.81Z" fill="#231f20"></path>
            </g>
            <g>
              <path d="M824.72,540.95s3.9-1.2,2.79,15.39l-1.11,38.71s0,9.95-26.55,6.64v-28.76l19.91-29.86,4.95-2.12Z" fill="#84a1e5"></path>
              <path d="M809.65,602.87c-2.8,0-6.06-.2-9.85-.68l-.44-.05v-29.35l20.08-30.11,5.14-2.19c.07-.02,.69-.19,1.41,.37,1.91,1.51,2.61,6.88,2.03,15.53l-1.11,38.69c0,.07-.03,2.05-2.23,3.99-2.13,1.88-6.42,3.8-15.03,3.8Zm-9.29-1.62c14.69,1.78,20.95-.59,23.61-2.9,1.89-1.64,1.94-3.24,1.94-3.3l1.11-38.72c.75-11.3-.86-14.01-1.59-14.65-.27-.24-.48-.25-.55-.25l-4.76,2.04-19.74,29.61v28.16Z" fill="#231f20"></path>
            </g>
            <g>
              <path d="M693.68,549.71l-4.56-75.32s-3.97-27.55,9.53-35.42c4.05-2.37,9.06-2.33,13.32-.34,4.72,2.2,12.7,7.14,23.74,18.17l39.82,36.5-3.32,48.67-7.58,2.1-35.56-14.27v23.23l-35.39-3.32Z" fill="#f6c34c"></path>
              <path d="M729.57,553.58l-36.37-3.41-.03-.43-4.56-75.32c-.16-1.1-3.85-27.93,9.77-35.88,4.05-2.36,9.2-2.5,13.78-.36,4.79,2.23,12.83,7.22,23.88,18.27l39.98,36.65-3.36,49.26-8.08,2.24-35.03-14.05v23.04Zm-35.42-4.33l34.42,3.23v-23.42l36.09,14.48,7.07-1.96,3.28-48.07-39.64-36.34c-10.97-10.97-18.9-15.89-23.62-18.09-4.29-2-9.09-1.87-12.85,.32-13.05,7.61-9.32,34.64-9.28,34.92l4.53,74.93Z" fill="#231f20"></path>
            </g>
            <g>
              <path d="M829.72,483.35s14.38,24.33-6.64,60.83c0,0,1.11,7.74-4.42,22.12,0,0-13.27,44.24-36.5,43.14,0,0-18.8,0-21.7-23.33-.59-4.75-.47-9.57,.25-14.3l7.06-46.43,19.91-38.71,42.03-3.32Z" fill="#f6c34c"></path>
              <path d="M783.03,609.96c-.3,0-.59,0-.89-.02h0c-.21,0-19.26-.29-22.17-23.77-.58-4.67-.49-9.52,.26-14.44l7.08-46.51,.04-.07,20.04-38.96,42.62-3.36,.16,.27c.14,.25,14.25,24.94-6.55,61.19,.13,1.26,.65,8.86-4.47,22.2-.53,1.76-13.31,43.47-36.1,43.48Zm-14.77-84.42l-7.05,46.34c-.73,4.82-.82,9.59-.25,14.16,2.8,22.6,20.45,22.89,21.2,22.9,.28,.01,.55,.02,.83,.02,22.09,0,35.07-42.37,35.2-42.8,5.43-14.13,4.42-21.83,4.41-21.91l-.02-.17,.09-.15c19.45-33.77,8.24-57.3,6.79-60.06l-41.43,3.27-19.74,38.39Z" fill="#231f20"></path>
            </g>
            <g>
              <path d="M730.37,402.75s-11.25,2.06-22.31,10.91c0,0-7.74,7.74-25.44,11.06,0,0-13.27,0-12.17,7.74l18.8,25.44s9.95-1.11,14.38-11.06c0,0,18.8-11.06,29.86-9.95,0,0,18.8,37.61,29.86,48.67l-18.35,16.42c-1.48,1.32-1.63,3.59-.33,5.09l16.95,19.63c1.06,1.23,2.78,1.66,4.29,1.06,5.42-2.14,17.81-7.94,21.29-17.41,.34-.92,1.13-1.57,2.09-1.75,2.96-.57,9.18-2.85,11.67-11.98,0,0,16.59,5.53,28.76-13.27,0,0-6.77-6.77-9.72-17.66-1.09-4.04-1.38-8.24-1.11-12.42,.39-6.16,.21-22.79-11.29-35.18l-19.91-16.59s-5.69-6.79-18.33-4.5l-39,5.76Z" fill="#84a1e5"></path>
              <path d="M764.54,528.52c-1.23,0-2.44-.53-3.28-1.5l-16.95-19.63c-1.47-1.7-1.3-4.3,.37-5.79l17.96-16.07c-10.56-10.94-27.82-44.91-29.46-48.17-10.33-.83-27.45,8.85-29.15,9.83-4.52,9.96-14.61,11.19-14.71,11.21l-.29,.03-.17-.23-18.88-25.54-.02-.12c-.25-1.77,.17-3.31,1.27-4.57,3.21-3.7,11.06-3.74,11.39-3.74,17.25-3.24,25.01-10.84,25.09-10.91,11.07-8.86,22.46-11.03,22.57-11.05h.02s39-5.76,39-5.76c12.76-2.31,18.54,4.39,18.79,4.68l19.85,16.53c11.6,12.49,11.88,29.05,11.47,35.6-.28,4.41,.09,8.53,1.1,12.26,2.88,10.62,9.52,17.37,9.59,17.44l.29,.29-.22,.34c-11.05,17.07-25.92,14.35-28.83,13.62-2.69,9.13-9.21,11.33-11.92,11.85-.8,.15-1.44,.69-1.71,1.43-3.56,9.7-16.27,15.61-21.57,17.7-.51,.2-1.05,.3-1.58,.3Zm-32.68-92.21c.58,0,1.14,.03,1.69,.08l.27,.03,.12,.25c.19,.38,18.89,37.66,29.77,48.54l.37,.37-18.74,16.77c-1.27,1.14-1.39,3.11-.28,4.39l16.95,19.63c.93,1.07,2.42,1.44,3.73,.93,5.17-2.04,17.58-7.8,21-17.12,.39-1.08,1.32-1.85,2.46-2.07,3.2-.62,8.91-2.95,11.28-11.62l.14-.51,.5,.17c.16,.05,16.18,5.11,27.97-12.74-1.32-1.43-6.96-7.96-9.56-17.58-1.04-3.83-1.42-8.06-1.13-12.58,.41-6.42,.13-22.65-11.16-34.81l-19.86-16.55c-.12-.13-5.74-6.6-17.92-4.4l-39,5.76c-.34,.06-11.37,2.24-22.08,10.81-.28,.28-8.01,7.85-25.66,11.16-.17,0-7.82,.05-10.73,3.41-.88,1.02-1.23,2.22-1.05,3.65l18.55,25.09c1.62-.28,9.86-2.08,13.7-10.72l.07-.15,.14-.08c.74-.43,17.31-10.1,28.47-10.1Z" fill="#231f20"></path>
            </g>
            <g>
              <path d="M766.04,387.04s-.47,11.13,12.8,17.77l-21.02,37.84c-.5,.9-1.82,.89-2.28-.04-1.76-3.55-4.71-11.96-3.17-26.5l5.45-32.31,8.85-1.11-.63,4.35Z" fill="#f2b3c1"></path>
              <path d="M756.69,443.82s-.03,0-.04,0c-.66-.02-1.25-.39-1.55-.98-1.86-3.76-4.75-12.24-3.21-26.78l5.52-32.71,9.87-1.23-.73,4.97c0,.56,0,11.02,12.53,17.28l.47,.23-.25,.46-21.02,37.84c-.32,.57-.92,.92-1.57,.92Zm1.57-59.57l-5.39,31.95c-1.51,14.26,1.31,22.54,3.12,26.2,.13,.26,.38,.42,.67,.43,.3,.02,.57-.15,.72-.41l20.77-37.39c-12.93-6.73-12.62-17.89-12.61-18v-.05s.55-3.7,.55-3.7l-7.83,.98Z" fill="#231f20"></path>
            </g>
            <path d="M765.57,441.81c-.2,0-.39-.12-.46-.31-.1-.26,.02-.55,.28-.65,.23-.09,5.51-2.18,12.01-2.25l8.72-21.81c.04-.09,3.22-7.69,1.09-15.16-.08-.27,.08-.54,.34-.62,.26-.08,.54,.08,.62,.34,2.24,7.82-.99,15.5-1.13,15.82l-8.84,22.11c-.08,.19-.26,.31-.46,.31-6.46,0-11.93,2.15-11.98,2.18-.06,.02-.12,.04-.19,.04Z" fill="#231f20"></path>
            <path d="M776.63,512.6c-.13,0-.27-.05-.37-.16l-19.12-20.54c-.19-.2-.18-.52,.03-.71,.2-.19,.52-.18,.71,.03l19.12,20.54c.19,.2,.18,.52-.03,.71-.1,.09-.22,.13-.34,.13Z" fill="#231f20"></path>
            <path d="M763.36,486.06c-.07,0-.14-.01-.2-.04-.25-.11-.37-.41-.25-.66l16.59-37.61c.45-1.12,11.27-27.92,20.3-29.05,.26-.04,.52,.16,.56,.43,.03,.27-.16,.52-.43,.56-8.46,1.06-19.4,28.17-19.51,28.45l-16.6,37.62c-.08,.19-.27,.3-.46,.3Z" fill="#231f20"></path>
            <path d="M800.97,497.12c-.09,0-.18-.02-.27-.08-.23-.15-.3-.46-.16-.69,.13-.21,13.17-21.14,12.09-42.84-.01-.28,.2-.51,.47-.52,.31-.01,.51,.2,.52,.47,1.1,22.02-12.11,43.22-12.24,43.43-.09,.15-.26,.23-.42,.23Z" fill="#231f20"></path>
            <path d="M703.63,447.35c-.26,0-.48-.21-.5-.47-1.06-18.11-11.28-19.4-11.72-19.44-.27-.03-.47-.27-.45-.55,.03-.27,.28-.47,.55-.45,.12,.01,11.5,1.37,12.62,20.38,.02,.28-.19,.51-.47,.53,0,0-.02,0-.03,0Z" fill="#231f20"></path>
            <g>
              <path d="M756.72,528.69s7.35,4.77,9.2-.93c-.43,.12-1.3,.29-2.36,.07-1.12-.24-1.87-.81-2.21-1.11-1.55,.66-3.09,1.32-4.64,1.98Z" fill="#231f20"></path>
              <path d="M762.21,531.06c-2.72,0-5.61-1.85-5.76-1.95l-.79-.51,5.79-2.47,.24,.21c.4,.34,1.06,.8,1.99,.99,.88,.19,1.64,.07,2.12-.06l.9-.25-.29,.88c-.48,1.48-1.35,2.45-2.59,2.89-.51,.18-1.06,.26-1.61,.26Zm-4.36-2.3c1.29,.68,3.79,1.75,5.64,1.1,.7-.25,1.24-.73,1.63-1.45-.48,.04-1.04,.03-1.65-.1-.96-.21-1.69-.63-2.19-1.02l-3.43,1.46Z" fill="#231f20"></path>
            </g>
            <path d="M682.62,614.36c-.26,0-.48-.2-.5-.47l-4.42-64.15c-.02-.28,.19-.51,.46-.53,.27-.02,.51,.19,.53,.46l4.42,64.15c.02,.28-.19,.51-.46,.53-.01,0-.02,0-.04,0Z" fill="#231f20"></path>
            <g>
              <polygon points="669.62 435.78 673.77 466.75 687.04 473.39 685.94 456.8 669.62 435.78" fill="#84a1e5"></polygon>
              <path d="M687.6,474.23l-14.29-7.15-4.43-33.08,17.55,22.61v.15s1.17,17.46,1.17,17.46Zm-13.37-7.8l12.26,6.13-1.04-15.57-15.09-19.44,3.87,28.88Z" fill="#231f20"></path>
            </g>
            <g>
              <path d="M681.43,432.07s10.04,1.35,12,10.96c.19,.95,.15,1.95-.09,2.89l-2.78,10.68-9.12-24.53Z" fill="#f2b3c1"></path>
              <path d="M690.64,458.26l-9.97-26.8,.83,.11c.1,.01,10.42,1.51,12.43,11.35,.2,1,.17,2.08-.1,3.12l-3.19,12.21Zm-8.43-25.53l8.26,22.21,2.39-9.15c.23-.89,.26-1.81,.09-2.67-1.56-7.63-8.32-9.85-10.74-10.4Z" fill="#231f20"></path>
            </g>
            <g>
              <path d="M686.06,459.93s.86,3.08,6.45,3.47c.72,.05,1.3,.65,1.26,1.37-.09,1.78-1.12,4.59-7.08,3.52l-.64-8.35Z" fill="#f2b3c1"></path>
              <path d="M689.09,469.02c-.75,0-1.58-.08-2.48-.24l-.38-.07-.67-8.73,.98-.18c.03,.11,.89,2.76,6.01,3.11,1,.07,1.78,.92,1.73,1.89-.06,1.35-.58,2.44-1.5,3.17-.88,.7-2.12,1.06-3.69,1.06Zm-1.92-1.16c2.3,.36,3.97,.13,4.99-.68,.69-.55,1.07-1.37,1.12-2.44,.02-.43-.34-.81-.8-.84-3.08-.21-4.82-1.22-5.78-2.14l.46,6.1Z" fill="#231f20"></path>
            </g>
            <g>
              <path d="M823.09,544.18s-6.64,25.44-22.12,50.88" fill="#f6c34c"></path>
              <path d="M801.39,595.32l-.85-.52c15.27-25.08,22-50.49,22.06-50.74l.97,.25c-.07,.26-6.83,25.8-22.18,51.01Z" fill="#231f20"></path>
            </g>
            <path d="M826.41,528.09s-.1,0-.15-.02c-3.43-1.06-5.93-3.12-7.43-6.14-3.9-7.88,.29-19.46,.47-19.95,.09-.26,.39-.39,.64-.3,.26,.1,.39,.38,.3,.64-.04,.12-4.22,11.67-.51,19.16,1.37,2.76,3.66,4.66,6.82,5.63,.26,.08,.41,.36,.33,.62-.07,.21-.26,.35-.48,.35Z" fill="#231f20"></path>
            <path d="M729.07,530.3c-.28,0-.5-.22-.5-.5v-32.08c0-.28,.22-.5,.5-.5s.5,.22,.5,.5v32.08c0,.28-.22,.5-.5,.5Z" fill="#231f20"></path>
            <path d="M733.5,437.39c-.2,0-.39-.12-.46-.31-2.21-5.52-3.34-12.2-3.35-12.27-.05-.27,.14-.53,.41-.58,.26-.05,.53,.14,.58,.41,.01,.07,1.12,6.65,3.29,12.06,.1,.26-.02,.55-.28,.65-.06,.02-.12,.04-.19,.04Z" fill="#231f20"></path>
            <path d="M755.04,443.13c-4.56,0-11.45-2.34-11.75-2.45-.23-.08-.37-.31-.33-.55l3.32-21.02c.04-.27,.31-.46,.57-.42,.27,.04,.46,.3,.42,.57l-3.25,20.6c1.61,.52,7.76,2.42,11.51,2.25,.28-.02,.51,.2,.52,.48,.01,.28-.2,.51-.48,.52-.17,0-.35,.01-.52,.01Z" fill="#231f20"></path>
            <g>
              <path d="M778.85,404.81s1.75-1.43,.24-3.21c-.51-.6-1.22-1-1.98-1.25l-6.63-2.14s2.62,4.15,8.36,6.6Z" fill="#231f20"></path>
              <path d="M778.93,405.39l-.28-.12c-5.82-2.48-8.48-6.62-8.59-6.79l-.74-1.17,7.94,2.56c.93,.3,1.67,.77,2.2,1.4,.54,.64,.79,1.33,.72,2.03-.1,1.13-.99,1.86-1.03,1.89l-.23,.19Zm-7.05-6.2c1.17,1.34,3.43,3.5,6.86,5.03,.18-.21,.42-.57,.46-1.01,.04-.42-.13-.86-.49-1.28-.41-.48-1-.85-1.75-1.09l-5.08-1.64Z" fill="#231f20"></path>
            </g>
            <g>
              <rect x="726.28" y="361.45" width="36.34" height="55.84" rx="18.17" ry="18.17" transform="translate(-91.88 309.57) rotate(-22.16)" fill="#f2b3c1"></rect>
              <path d="M748.15,417.08c-7.37,0-14.37-4.39-17.32-11.63l-7.36-18.06c-1.88-4.62-1.85-9.69,.08-14.29,1.94-4.6,5.55-8.16,10.17-10.04,4.62-1.88,9.7-1.85,14.29,.08,4.6,1.94,8.16,5.55,10.04,10.17l7.36,18.06c1.88,4.62,1.85,9.69-.08,14.29s-5.55,8.16-10.17,10.04c-2.3,.94-4.68,1.38-7.02,1.38Zm-7.38-54.41c-2.26,0-4.51,.44-6.67,1.31-4.37,1.78-7.79,5.16-9.62,9.51-1.83,4.35-1.86,9.15-.08,13.53l7.36,18.06c3.68,9.02,14.01,13.37,23.03,9.7,4.37-1.78,7.79-5.16,9.62-9.51s1.86-9.15,.08-13.53l-7.36-18.06c-1.78-4.37-5.16-7.79-9.51-9.62-2.21-.93-4.53-1.4-6.86-1.4Z" fill="#231f20"></path>
            </g>
            <g>
              <path d="M723.95,387.2s-13.68-1.19-14.78-12.25c0,0-1.11-5.53,6.64-7.74,0,0-6.64-4.42,0-11.06,0,0,7.74-5.53,15.48-2.21,0,0-3.32-5.53,1.11-7.74,0,0,4.42-1.11,9.95,3.32,0,0,5.53-7.74,14.38-1.11,0,0,3.32,5.53,3.32,11.06,0,0,9-6.54,8.37,15.53l-8.32,5.64-7.79-9s-8.3,11.74-29.48,7.81c-.19-.04-.38,.11-.37,.31,.09,3.22,1.28,6.66,1.5,7.44Z" fill="#231f20"></path>
              <path d="M724.63,387.76l-.73-.06c-.14-.01-14.1-1.35-15.24-12.69,0-.01-1.01-5.51,6.1-7.99-.86-.79-2.17-2.33-2.39-4.46-.22-2.23,.81-4.5,3.07-6.75,.37-.27,7.36-5.17,14.84-2.77-.47-1.13-.98-2.92-.51-4.56,.35-1.19,1.15-2.1,2.39-2.72l.1-.04c.19-.05,4.52-1.06,9.99,3.11,.77-.9,2.87-2.99,6.08-3.49,2.81-.44,5.73,.47,8.68,2.68l.13,.14c.13,.22,3.07,5.17,3.37,10.47,.93-.45,2.57-.96,4.2-.09,3.05,1.61,4.46,7.15,4.19,16.49v.26s-8.91,6.03-8.91,6.03l-7.69-8.89c-1.9,2.2-10.77,10.94-29.36,7.57,.12,2.71,1.02,5.59,1.36,6.7l.32,1.08Zm1.42-34.37c-5.42,0-9.9,3.13-9.96,3.17-1.97,1.98-2.9,3.98-2.72,5.89,.26,2.68,2.68,4.33,2.71,4.35l.89,.6-1.03,.3c-7.22,2.06-6.29,7.11-6.28,7.16,.91,9.08,10.76,11.3,13.58,11.75-.42-1.38-1.22-4.19-1.3-6.83,0-.24,.09-.47,.28-.63,.19-.16,.44-.23,.68-.18,20.59,3.82,28.91-7.5,28.99-7.61l.37-.52,7.92,9.15,7.74-5.25c.28-10.9-1.83-14.35-3.66-15.31-1.87-.99-3.9,.44-3.92,.46l-.79,.57v-.98c0-4.97-2.8-10.02-3.2-10.72-2.7-2-5.33-2.82-7.83-2.44-3.61,.55-5.74,3.46-5.76,3.49l-.31,.43-.41-.33c-4.94-3.95-8.99-3.33-9.47-3.23-.95,.49-1.56,1.19-1.82,2.08-.64,2.19,.96,4.91,.97,4.93l.79,1.32-1.42-.61c-1.7-.73-3.42-1.01-5.04-1.01Zm-3.1,26.35h0s0,0,0,0Z" fill="#231f20"></path>
            </g>
            <g>
              <ellipse cx="765.02" cy="379.93" rx="4.98" ry="7.19" transform="translate(-46.32 112.86) rotate(-8.19)" fill="#f2b3c1"></ellipse>
              <path d="M765.54,387.58c-1.29,0-2.57-.62-3.64-1.78-1.19-1.28-2.01-3.09-2.3-5.09-.6-4.2,1.34-7.96,4.33-8.39,1.48-.21,2.98,.4,4.22,1.74,1.19,1.28,2.01,3.09,2.3,5.09s.02,3.97-.77,5.53c-.81,1.63-2.08,2.64-3.56,2.86-.19,.03-.38,.04-.58,.04Zm-1.04-14.3c-.14,0-.29,.01-.43,.03-2.44,.35-4,3.61-3.48,7.26,.26,1.8,.98,3.42,2.04,4.56,1.01,1.09,2.2,1.59,3.35,1.43,1.15-.17,2.15-.99,2.81-2.31,.69-1.39,.93-3.14,.67-4.95h0c-.26-1.8-.98-3.42-2.04-4.56-.88-.95-1.91-1.46-2.92-1.46Z" fill="#231f20"></path>
            </g>
            <g>
              <path d="M665.77,428.94l10.32,34.03c.26,.85,1.04,1.37,1.85,1.23l11.79-2.16c1.03-.19,1.65-1.36,1.29-2.44l-11.46-34c-.28-.83-1.06-1.32-1.86-1.16l-10.65,2.13c-1,.2-1.6,1.32-1.28,2.38Z" fill="#f6991a"></path>
              <path d="M677.68,464.73c-.92,0-1.77-.64-2.06-1.6l-10.32-34.03c-.2-.67-.12-1.39,.24-1.99,.33-.54,.83-.91,1.42-1.03l10.65-2.13c1.04-.21,2.07,.42,2.43,1.49l11.46,34c.23,.68,.15,1.43-.21,2.04-.33,.55-.86,.94-1.46,1.05l-11.79,2.16c-.12,.02-.24,.03-.36,.03Zm.32-39.82c-.07,0-.13,0-.2,.02l-10.65,2.13c-.31,.06-.58,.26-.76,.56-.21,.35-.26,.78-.14,1.18l10.32,34.03c.19,.61,.73,.98,1.28,.88l11.79-2.16c.32-.06,.6-.26,.78-.57,.21-.36,.26-.81,.12-1.22l-11.46-34c-.18-.52-.61-.85-1.09-.85Z" fill="#231f20"></path>
            </g>
            <g>
              <ellipse cx="677.64" cy="442.42" rx="7.19" ry="5.53" fill="#84a1e5"></ellipse>
              <path d="M677.64,448.45c-4.24,0-7.69-2.71-7.69-6.03s3.45-6.03,7.69-6.03,7.69,2.71,7.69,6.03-3.45,6.03-7.69,6.03Zm0-11.06c-3.69,0-6.69,2.26-6.69,5.03s3,5.03,6.69,5.03,6.69-2.26,6.69-5.03-3-5.03-6.69-5.03Z" fill="#231f20"></path>
            </g>
            <g>
              <path d="M677.42,486.71c-3.85-.5-5.77-3.17-6.54-4.63-.31-.59-.76-1.08-1.28-1.48-2.5-1.89-2.66-5.46-2.56-7.25,.03-.65-.16-1.29-.54-1.83-2.36-3.3,.63-6.99,2.11-8.5,.55-.56,1-1.21,1.35-1.9h0c.34-.67,.57-1.38,.7-2.12,.37-2.1,1.12-6.41,1.12-6.39l2,14.14s9.95-2.21,11.06,3.32c0,0,3.32-1.11,4.42,1.11,0,0,2.17,3.26-3.17,5.47-.07,.03-.09,.11-.04,.16,.77,.72,4.94,5.12-3.59,9.02-1.58,.72-3.33,1.1-5.05,.88Z" fill="#f2b3c1"></path>
              <path d="M678.41,487.27c-.36,0-.71-.02-1.06-.07-4.04-.53-6.07-3.29-6.92-4.89-.26-.5-.65-.94-1.15-1.31-2.65-2-2.87-5.67-2.76-7.67,.03-.53-.13-1.07-.45-1.51-2.59-3.63,.65-7.6,2.16-9.14,.49-.5,.92-1.1,1.25-1.78,.31-.63,.54-1.3,.66-1.98l.44-2.49c.36-2.04,.54-3.12,.69-3.68v-.06s.02,0,.02,0c.16-.58,.26-.57,.49-.57h.42s1.99,14.05,1.99,14.05c1.6-.29,6.35-.93,9.14,.89,.92,.6,1.54,1.41,1.86,2.41,1.07-.24,3.5-.52,4.51,1.5h0s.81,1.24,.34,2.78c-.38,1.25-1.47,2.31-3.24,3.14,.68,.77,1.68,2.25,1.38,4.06-.33,2.03-2.19,3.83-5.52,5.35-1.43,.65-2.88,.99-4.26,.99Zm-6.69-31.46c-.04,.26-.09,.53-.14,.79l-.44,2.49c-.14,.78-.39,1.54-.75,2.26-.39,.77-.87,1.46-1.44,2.03-1.34,1.36-4.22,4.85-2.06,7.86,.45,.62,.67,1.39,.63,2.14-.09,1.81,.09,5.09,2.37,6.82,.61,.46,1.09,1.01,1.42,1.64,.76,1.43,2.57,3.9,6.16,4.37h0c1.5,.19,3.15-.09,4.77-.84,3.01-1.38,4.67-2.92,4.95-4.6,.29-1.77-1.07-3.2-1.5-3.6l-.2-.19,.02-.35c.04-.2,.17-.38,.37-.46,1.79-.74,2.86-1.66,3.19-2.72,.34-1.09-.22-1.97-.25-2.01-.93-1.85-3.82-.92-3.85-.91l-.54,.18-.11-.55c-.2-.98-.71-1.73-1.55-2.28-2.97-1.93-8.85-.66-8.91-.64l-.53,.12-1.64-11.56Z" fill="#231f20"></path>
            </g>
            <path d="M677.3,474.81c-1.4,0-3-.27-4.81-.96-.26-.1-.39-.39-.29-.64,.1-.26,.39-.39,.64-.29,8.3,3.11,11.42-2.82,11.54-3.07,.12-.25,.42-.35,.67-.22,.25,.12,.35,.42,.22,.67-.03,.06-2.34,4.52-7.98,4.52Z" fill="#231f20"></path>
            <path d="M678.7,481.41c-1.8,0-3.56-.71-5.25-2.11-.21-.18-.24-.49-.06-.7,.18-.21,.49-.24,.7-.06,1.74,1.45,3.54,2.06,5.37,1.83,3.53-.45,6.05-3.91,6.07-3.95,.16-.23,.47-.28,.7-.12,.22,.16,.28,.47,.12,.7-.11,.16-2.79,3.85-6.75,4.36-.3,.04-.6,.06-.9,.06Z" fill="#231f20"></path>
            <g>
              <path d="M744.68,507.07l-55.53,29.36c-1.36,.72-2.89,1.09-4.43,1.07-6.77-.07-25.86,.3-23.12,6.68,0,0,0,2.21,6.64,2.21,0,0-3.32,6.64,3.32,9.95,0,0-1.11,4.42,2.21,6.64,0,0,1.11,9.95,9.95,6.64,0,0,4.42-1.11,16.59-9.95,0,0,43-26.12,61.32-32.97l-16.95-19.63Z" fill="#f2b3c1"></path>
              <path d="M680.39,570.8c-1.21,0-2.3-.3-3.27-.89-2.9-1.78-3.67-5.65-3.82-6.64-2.81-2.03-2.51-5.49-2.31-6.65-3.37-1.83-4.08-4.52-4.08-6.49,0-1.35,.33-2.53,.59-3.24-5.63-.15-6.31-2.03-6.38-2.58-.43-1.06-.36-2.05,.22-2.92,2.66-4,15.8-4.46,23.4-4.39,1.46,.01,2.91-.34,4.19-1.01l55.88-29.54,17.68,20.47-.67,.25c-18.06,6.75-60.8,32.67-61.23,32.93-12.07,8.78-16.54,9.97-16.73,10.01-1.23,.46-2.39,.7-3.45,.7Zm2.89-32.81c-11.61,0-19.46,1.46-21.12,3.95-.4,.6-.44,1.27-.1,2.05l.04,.2c.05,.46,1.26,1.71,6.14,1.71h.81l-.36,.72c-.12,.25-3.01,6.23,3.09,9.28l.36,.18-.1,.39c-.04,.17-.98,4.11,2,6.1l.19,.13,.03,.23s.53,4.38,3.38,6.13c1.55,.95,3.53,.98,5.9,.09,.1-.03,4.59-1.25,16.47-9.89,.46-.28,42.26-25.62,60.77-32.78l-16.22-18.79-55.17,29.17c-1.43,.75-3.08,1.15-4.67,1.13-.49,0-.96,0-1.44,0Z" fill="#231f20"></path>
            </g>
            <path d="M685.94,564.59c-.08,0-.15-.02-.22-.05-.25-.12-.35-.42-.22-.67,1.97-3.93-1.83-5.88-1.99-5.97-.13-.06-.22-.18-.26-.32s-.01-.29,.07-.41c1.45-2.18,1.95-3.99,1.43-5.25-.57-1.39-2.2-1.73-2.22-1.73-.16-.03-.3-.14-.36-.3s-.05-.33,.05-.47c1.33-2,1.74-3.64,1.21-4.86-.73-1.69-3.07-2.11-3.09-2.11-.27-.05-.46-.3-.41-.58s.31-.46,.57-.41c.12,.02,2.9,.51,3.84,2.7,.62,1.43,.3,3.2-.95,5.26,.7,.28,1.77,.89,2.27,2.12,.62,1.5,.21,3.44-1.24,5.75,1.16,.78,3.9,3.14,1.96,7.02-.09,.18-.26,.28-.45,.28Z" fill="#231f20"></path>
          </g>
        </g>
      </g>
      <g>
        <g>
          <rect x="181.97" y="485.22" width="11" height="112" transform="translate(374.93 1082.44) rotate(-180)" fill="#f6991a"></rect>
          <path d="M193.47,597.72h-12v-113h12v113Zm-11-1h10v-111h-10v111Z" fill="#231f20"></path>
        </g>
        <g>
          <rect x="58.47" y="484.72" width="11" height="112" transform="translate(127.93 1081.44) rotate(-180)" fill="#f6991a"></rect>
          <path d="M69.97,597.22h-12v-113h12v113Zm-11-1h10v-111h-10v111Z" fill="#231f20"></path>
        </g>
        <g>
          <path d="M192.93,491.72H59.6c-6.91,0-12.71-5.2-13.48-12.06l-11.56-104.02c-.56-5.08,3.73-9.38,8.82-8.81l169.75,18.96c4.53,.51,7.72,4.7,6.99,9.21l-13.82,85.33c-1.06,6.57-6.73,11.39-13.39,11.39Z" fill="#2bb673"></path>
          <path d="M192.93,492.22H59.6c-7.17,0-13.18-5.38-13.97-12.51l-11.56-104.02c-.29-2.57,.6-5.1,2.43-6.93s4.36-2.72,6.94-2.43l169.75,18.96c2.33,.26,4.39,1.43,5.81,3.3,1.42,1.87,1.99,4.17,1.62,6.48l-13.82,85.33c-1.11,6.84-6.95,11.81-13.88,11.81ZM42.49,367.28c-1.97,0-3.86,.77-5.28,2.19-1.62,1.62-2.4,3.84-2.15,6.12l11.56,104.02c.74,6.62,6.32,11.62,12.98,11.62H192.93c6.44,0,11.86-4.61,12.89-10.97l13.82-85.33c.33-2.04-.18-4.07-1.43-5.72-1.25-1.65-3.07-2.68-5.13-2.91l-169.75-18.96c-.28-.03-.56-.05-.84-.05Z" fill="#231f20"></path>
        </g>
        <path d="M186.47,404.22h-24c-.28,0-.5-.22-.5-.5s.22-.5,.5-.5h24c.28,0,.5,.22,.5,.5s-.22,.5-.5,.5Z" fill="#231f20"></path>
        <path d="M93.97,393.22H57.97c-.28,0-.5-.22-.5-.5s.22-.5,.5-.5h36c.28,0,.5,.22,.5,.5s-.22,.5-.5,.5Z" fill="#231f20"></path>
        <rect x="73.97" y="483.22" width="47" height="1" fill="#231f20"></rect>
        <path d="M198.97,475.22h-33c-.28,0-.5-.22-.5-.5s.22-.5,.5-.5h33c.28,0,.5,.22,.5,.5s-.22,.5-.5,.5Z" fill="#231f20"></path>
        <g>
          <g>
            <path d="M85.44,430.64h-3.31s-9.95-15.05-9.95-15.05v15.05h-3.31s0-20.18,0-20.18h3.31s9.95,15.02,9.95,15.02v-15.02h3.31s0,20.18,0,20.18Z" fill="#fff"></path>
            <path d="M89.11,418.31c.67-1.24,1.58-2.2,2.73-2.89,1.15-.69,2.42-1.03,3.81-1.03,1.26,0,2.35,.25,3.29,.74,.94,.49,1.69,1.11,2.25,1.84v-2.32h3.33s0,15.98,0,15.98h-3.33s0-2.38,0-2.38c-.56,.75-1.32,1.38-2.29,1.88-.97,.5-2.07,.75-3.31,.75-1.37,0-2.63-.35-3.77-1.06-1.14-.71-2.04-1.69-2.71-2.96-.67-1.27-1-2.7-1-4.31s.33-3.03,1-4.26Zm11.4,1.45c-.45-.81-1.05-1.43-1.78-1.86-.73-.42-1.53-.64-2.38-.64s-1.64,.21-2.38,.62c-.74,.42-1.33,1.02-1.78,1.83-.45,.8-.68,1.75-.68,2.86s.23,2.07,.68,2.9c.45,.83,1.05,1.46,1.8,1.9,.74,.44,1.53,.65,2.36,.65s1.64-.21,2.38-.64c.73-.42,1.33-1.05,1.78-1.87,.45-.82,.68-1.78,.68-2.89s-.23-2.06-.68-2.87Z" fill="#fff"></path>
            <path d="M112.15,417.36v8.85c0,.6,.14,1.03,.42,1.29,.28,.26,.76,.39,1.44,.39h2.03v2.75h-2.61c-1.49,0-2.63-.35-3.42-1.04-.79-.7-1.19-1.83-1.19-3.39v-8.85h-1.88s0-2.7,0-2.7h1.88v-3.97h3.34v3.97h3.89v2.7h-3.89Z" fill="#fff"></path>
            <path d="M118.67,411.93c-.41-.41-.61-.91-.61-1.51s.2-1.1,.61-1.51c.41-.41,.91-.61,1.51-.61s1.07,.2,1.48,.61c.41,.41,.61,.91,.61,1.51s-.2,1.1-.61,1.51c-.41,.41-.9,.61-1.48,.61s-1.1-.2-1.51-.61Zm3.13,2.73v15.98h-3.31v-15.98h3.31Z" fill="#fff"></path>
            <path d="M128.42,429.87c-1.22-.69-2.18-1.65-2.87-2.9-.7-1.25-1.04-2.69-1.04-4.33s.36-3.06,1.07-4.32c.72-1.26,1.69-2.22,2.93-2.9,1.24-.68,2.62-1.02,4.15-1.02s2.91,.34,4.15,1.02,2.21,1.64,2.93,2.9c.71,1.26,1.07,2.7,1.07,4.32s-.37,3.06-1.1,4.32-1.74,2.23-3,2.91c-1.27,.69-2.66,1.03-4.19,1.03s-2.87-.34-4.09-1.03Zm6.48-2.45c.74-.41,1.35-1.02,1.81-1.83,.46-.81,.7-1.8,.7-2.96s-.22-2.14-.67-2.94-1.03-1.41-1.77-1.81-1.53-.61-2.38-.61-1.64,.2-2.36,.61-1.3,1.01-1.73,1.81c-.43,.8-.64,1.78-.64,2.94,0,1.72,.44,3.05,1.32,3.99,.88,.94,1.99,1.41,3.32,1.41,.85,0,1.65-.2,2.39-.61Z" fill="#fff"></path>
            <path d="M154.94,415.18c1,.52,1.77,1.3,2.33,2.32,.56,1.02,.84,2.26,.84,3.71v9.42h-3.28v-8.93c0-1.43-.36-2.53-1.07-3.29s-1.69-1.15-2.93-1.15-2.22,.38-2.94,1.15-1.09,1.86-1.09,3.29v8.93h-3.31v-15.98h3.31v1.83c.54-.66,1.23-1.17,2.07-1.54,.84-.37,1.73-.55,2.68-.55,1.26,0,2.38,.26,3.38,.78Z" fill="#fff"></path>
            <path d="M161.64,418.31c.67-1.24,1.58-2.2,2.73-2.89,1.15-.69,2.42-1.03,3.81-1.03,1.26,0,2.35,.25,3.29,.74,.94,.49,1.69,1.11,2.25,1.84v-2.32h3.33s0,15.98,0,15.98h-3.33s0-2.38,0-2.38c-.56,.75-1.32,1.38-2.29,1.88-.97,.5-2.07,.75-3.31,.75-1.37,0-2.63-.35-3.77-1.06-1.14-.71-2.04-1.69-2.71-2.96-.67-1.27-1-2.7-1-4.31s.33-3.03,1-4.26Zm11.4,1.45c-.45-.81-1.05-1.43-1.78-1.86-.73-.42-1.53-.64-2.38-.64s-1.64,.21-2.38,.62c-.74,.42-1.33,1.02-1.78,1.83-.45,.8-.68,1.75-.68,2.86s.23,2.07,.68,2.9c.45,.83,1.05,1.46,1.8,1.9,.74,.44,1.53,.65,2.36,.65s1.64-.21,2.38-.64c.73-.42,1.33-1.05,1.78-1.87,.45-.82,.68-1.78,.68-2.89s-.23-2.06-.68-2.87Z" fill="#fff"></path>
            <path d="M184.12,409.18v21.46h-3.31v-21.46h3.31Z" fill="#fff"></path>
          </g>
          <g>
            <path d="M96.97,438.48v2.7h-8.56v5.95h6.67s0,2.7,0,2.7h-6.67v8.82h-3.31v-20.16h11.86Z" fill="#fff"></path>
            <path d="M102.3,457.87c-1.22-.69-2.18-1.65-2.87-2.9-.7-1.25-1.04-2.69-1.04-4.33s.36-3.06,1.07-4.32c.72-1.26,1.69-2.22,2.93-2.9,1.24-.68,2.62-1.02,4.15-1.02s2.91,.34,4.15,1.02,2.21,1.64,2.93,2.9c.71,1.26,1.07,2.7,1.07,4.32s-.37,3.06-1.1,4.32c-.73,1.26-1.74,2.23-3,2.91-1.27,.69-2.66,1.03-4.19,1.03s-2.87-.34-4.09-1.03Zm6.48-2.45c.74-.41,1.35-1.02,1.81-1.83,.46-.81,.7-1.8,.7-2.96s-.22-2.14-.67-2.94c-.44-.8-1.03-1.41-1.77-1.81-.74-.41-1.53-.61-2.38-.61s-1.64,.2-2.36,.61c-.73,.41-1.3,1.01-1.73,1.81-.43,.8-.64,1.78-.64,2.94,0,1.72,.44,3.05,1.32,3.99,.88,.94,1.99,1.41,3.32,1.41,.85,0,1.65-.2,2.39-.61Z" fill="#fff"></path>
            <path d="M122.62,443.08c.8-.45,1.75-.68,2.86-.68v3.42h-.84c-1.3,0-2.28,.33-2.94,.99s-1,1.8-1,3.42v8.41h-3.31s0-15.98,0-15.98h3.31s0,2.32,0,2.32c.48-.81,1.13-1.45,1.93-1.9Z" fill="#fff"></path>
            <path d="M142.47,451.88h-12.21c.1,1.28,.57,2.3,1.42,3.07,.85,.77,1.89,1.16,3.13,1.16,1.78,0,3.04-.74,3.77-2.23h3.57c-.48,1.47-1.36,2.67-2.62,3.61-1.27,.94-2.84,1.41-4.71,1.41-1.53,0-2.9-.34-4.1-1.03-1.21-.69-2.16-1.65-2.84-2.9-.69-1.25-1.03-2.69-1.03-4.33s.33-3.09,1-4.34,1.6-2.21,2.81-2.88c1.21-.68,2.59-1.02,4.16-1.02s2.85,.33,4.03,.99c1.18,.66,2.1,1.58,2.75,2.77,.66,1.19,.99,2.56,.99,4.1,0,.6-.04,1.14-.12,1.62Zm-3.33-2.67c-.02-1.22-.46-2.19-1.31-2.93-.85-.74-1.9-1.1-3.16-1.1-1.14,0-2.12,.36-2.93,1.09-.81,.72-1.29,1.71-1.45,2.94h8.85Z" fill="#fff"></path>
            <path d="M147.67,458.22c-1-.45-1.78-1.07-2.36-1.86s-.89-1.66-.93-2.62h3.42c.06,.68,.38,1.24,.97,1.7,.59,.45,1.33,.68,2.22,.68s1.65-.18,2.16-.54c.51-.36,.77-.82,.77-1.38,0-.6-.29-1.04-.86-1.33-.57-.29-1.47-.61-2.71-.96-1.2-.33-2.17-.65-2.93-.96-.75-.31-1.41-.78-1.96-1.42-.55-.64-.83-1.48-.83-2.52,0-.85,.25-1.63,.75-2.33,.5-.71,1.22-1.26,2.16-1.67s2.02-.61,3.23-.61c1.82,0,3.28,.46,4.39,1.38,1.11,.92,1.71,2.17,1.78,3.75h-3.31c-.06-.71-.35-1.29-.87-1.71-.52-.42-3.65-.47-4.12-.14-.46,.33-.7,.76-.7,1.3,0,.43,.15,.78,.46,1.07,.31,.29,.69,.52,1.13,.68s1.1,.37,1.97,.62c1.16,.31,2.11,.62,2.86,.94,.74,.32,1.39,.79,1.93,1.41,.54,.62,.82,1.44,.84,2.46,0,.91-.25,1.72-.75,2.44-.5,.72-1.21,1.28-2.13,1.68-.92,.41-2,.61-3.23,.61s-2.38-.23-3.38-.68Z" fill="#fff"></path>
            <path d="M164.01,445.36v8.85c0,.6,.14,1.03,.42,1.29s.76,.39,1.44,.39h2.03v2.75h-2.61c-1.49,0-2.63-.35-3.42-1.04s-1.19-1.83-1.19-3.39v-8.85h-1.88s0-2.7,0-2.7h1.88v-3.97h3.34v3.97h3.89v2.7h-3.89Z" fill="#fff"></path>
          </g>
        </g>
      </g>
    </g>
  </g>
  <g>
    <path d="M727.18,392.54c-.06,0-.12,0-.18-.03-.29-.1-.45-.41-.35-.7,.01-.04,1.43-4.15,5.55-4.15,.31,0,.55,.25,.55,.55s-.25,.55-.55,.55c-3.31,0-4.45,3.25-4.5,3.39-.08,.23-.29,.38-.52,.38Z" fill="#231f20"></path>
    <path d="M742.89,384.38c-.2,0-.4-.11-.5-.31-.14-.27-.03-.61,.25-.74,.21-.11,5.28-2.6,9.22-1.29,.29,.1,.45,.41,.35,.7-.1,.29-.41,.45-.7,.35-3.52-1.17-8.32,1.2-8.37,1.23-.08,.04-.16,.06-.25,.06Z" fill="#231f20"></path>
    <g>
      <ellipse cx="749.29" cy="391.99" rx="1.26" ry="1.87" transform="translate(-62.33 154.56) rotate(-11.31)" fill="#231f20"></ellipse>
      <path d="M749.49,394.34c-.87,0-1.68-.83-1.92-2.01-.26-1.3,.29-2.48,1.26-2.67,.97-.19,1.93,.68,2.19,1.98,.12,.59,.07,1.18-.13,1.66-.23,.54-.64,.91-1.13,1.01-.09,.02-.18,.03-.27,.03Zm-.4-3.71s-.05,0-.07,0c-.35,.07-.63,.72-.47,1.49,.16,.77,.67,1.27,1.01,1.2,.16-.03,.3-.18,.4-.41,.12-.3,.15-.69,.07-1.08h0c-.14-.72-.6-1.2-.94-1.2Z" fill="#231f20"></path>
    </g>
    <g>
      <ellipse cx="734.22" cy="397.02" rx="1.26" ry="1.87" transform="translate(-63.6 151.7) rotate(-11.31)" fill="#231f20"></ellipse>
      <path d="M734.41,399.37c-.87,0-1.68-.83-1.92-2.01-.12-.59-.07-1.18,.13-1.66,.23-.54,.64-.91,1.13-1.01,.5-.1,1.01,.08,1.43,.5,.37,.37,.64,.9,.76,1.48,.26,1.3-.29,2.48-1.26,2.67-.09,.02-.18,.03-.27,.03Zm-.4-3.71s-.05,0-.07,0c-.22,.04-.34,.28-.4,.41-.12,.3-.15,.69-.07,1.08,.15,.77,.67,1.27,1.01,1.2,.35-.07,.63-.72,.47-1.49h0c-.08-.39-.25-.74-.48-.97-.15-.15-.32-.23-.46-.23Z" fill="#231f20"></path>
    </g>
    <path d="M741.63,403.22c-.1,0-.2-.03-.29-.08-.14-.09-.23-.23-.26-.39l-1.26-8.79c-.04-.3,.17-.58,.47-.63,.3-.04,.58,.17,.63,.47l1.16,8.14,3.14-1.05c.29-.1,.6,.06,.7,.35s-.06,.6-.35,.7l-3.77,1.26c-.06,.02-.12,.03-.17,.03Z" fill="#231f20"></path>
    <path d="M744.08,409.28c-2.33,0-4.12-1.17-4.21-1.23-.25-.17-.32-.51-.15-.77,.17-.25,.51-.32,.77-.16,.02,.02,2.32,1.5,4.87,.9,1.71-.41,3.17-1.66,4.34-3.71,.15-.26,.49-.36,.75-.21,.27,.15,.36,.49,.21,.75-1.34,2.34-3.04,3.77-5.06,4.24-.52,.12-1.04,.17-1.52,.17Z" fill="#231f20"></path>
  </g>
  <path d="M765.18,383.14c-.26,0-.49-.18-.54-.44l-1-5c-.06-.3,.13-.59,.43-.65,.3-.06,.59,.13,.65,.43l1,5c.06,.3-.13,.59-.43,.65-.04,0-.07,.01-.11,.01Z" fill="#231f20"></path>
</svg>
