<?xml version="1.0" encoding="UTF-8"?>
<svg xmlns="http://www.w3.org/2000/svg" width="865.76" height="682.89" viewBox="0 0 865.76 682.89">
  <rect x="461.7" y="182.55" width="94.64" height="5.3" fill="#ac7054"></rect>
  <polygon points="558.53 184.16 567.68 216.03 563.02 216.03 555.67 189.88 558.53 184.16" fill="#ac7054"></polygon>
  <rect x="553.9" y="180.88" width="3.54" height="11.09" transform="translate(114.28 -199.19) rotate(22.6)" fill="#663e3a"></rect>
  <polygon points="565.75 298.03 585.83 644.98 591.6 644.98 571.23 298.03 565.75 298.03" fill="#ac7054"></polygon>
  <polygon points="548.73 299.85 512.85 644.98 519.23 644.98 553.59 298.03 548.73 299.85" fill="#ac7054"></polygon>
  <polygon points="594.95 297.13 649.99 640.42 643.6 640.42 590.09 295.31 594.95 297.13" fill="#ac7054"></polygon>
  <path d="M555.07,304h-9.26l3.26-80.67a3.93,3.93,0,0,1,3.92-3.76H574.4a3.92,3.92,0,0,1,3.81,3l18.43,75.59h-9.42l-16-69.83h-4l5.52,74.38h-9.58l-2.11-51.8H558Z" fill="#663e3a"></path>
  <path d="M556.92,219.54v-5s-10.86-8.33-2.8-11.09v-3.1h10v3.1s17,11,3.33,13.54v2.59Z" fill="#663e3a"></path>
  <path d="M571.23,205.71a.52.52,0,0,1-.21,0l-7.11-3.15a.5.5,0,0,1,.4-.92l7.12,3.16a.5.5,0,0,1-.2,1Z" fill="#663e3a"></path>
  <rect x="570.14" y="207.77" width="20.96" height="4.21" rx="2" transform="translate(163.03 -244.87) rotate(27.57)" fill="#ac7054"></rect>
  <path d="M588.56,632s-2.5,2.92,2.9,12.53a5.18,5.18,0,0,0,4.08,2.62c10,.92,46.54,3.91,78.9,2a5.2,5.2,0,0,0,4.44-3.1c1.85-4.14,4.73-11.66,3.15-15.15Z" fill="#2162ca"></path>
  <path d="M731.49,631.18s-2.29,1.9,1.54,8.22l1.48,2.84a5.22,5.22,0,0,0,4.62,2.8H768.7s13.08-1.45,19.51-6.93a136.75,136.75,0,0,1,18.4-6.93s7.11-1,12.38-3.92a6.63,6.63,0,0,0,3-7.82l-3.73-11.59Z" fill="#2162ca"></path>
  <path d="M646.59,594.71l-52.81,33.18s-11.74,6.09,0,7.67l74.58.91s12.54,1.13,13.67-5.64V603.06l-7.25-8.35-7.65-2.48H650S650.88,589.3,646.59,594.71Z" fill="#ec4141"></path>
  <rect x="615.6" y="110.99" width="34.74" height="53.72" rx="16.52" transform="translate(36.39 390.33) rotate(-35.22)" fill="#f8d9be"></rect>
  <path d="M765.58,221.44c-9.12-9.75-25-9-31.39-8.16a43.85,43.85,0,0,1-9.8.18c-20.93-2.15-22.79-17.09-22.8-17.24l-6.48-30.16c-.8-17.39-6.24-21.81-6.3-21.85l.61-.79c.24.18,5.86,4.65,6.68,22.51l6.47,30.13c.08.63,1.82,14.34,21.92,16.4a42.45,42.45,0,0,0,9.58-.17c6.55-.82,22.8-1.62,32.24,8.46Z" fill="#ed1c24"></path>
  <path d="M651,145.47a74.75,74.75,0,0,0-28.39,37S604.34,216.77,605,235a6.16,6.16,0,0,1-1.35,4.12c-1.81,2.25-4,6.48.23,10.7,0,0,1.89,1-2.43,3.67,0,0-2.78.78-5.49,12.17L579.64,318.2s11.76,29.6,32.64,34.46c0,0,37.92-76.42,45.51-97.1,0,0,2.94,1.82,7.8,27.57,0,0,1.75,10.31,14.18,14.71a7.32,7.32,0,0,0,5.8-.39,43.42,43.42,0,0,0,9.42-6.62s-1.83-19.46-2.64-25.14c0,0,23.72-35.47,75.82-34.46l2.84,3.85s5-2.57-1-10.74l-5.12-7.2L742,172l-36.08-19.87-13-8.87-18.18-5.45-14.5,3.55A29.2,29.2,0,0,0,651,145.47Z" fill="#ec4141"></path>
  <g opacity="0.2">
    <path d="M657.79,256.06l-.15,0a.5.5,0,0,1-.32-.63l10.38-32.66a87.15,87.15,0,0,0,4.19-27.88c-.22-12.18-2.89-20.71-7.93-25.36a.51.51,0,0,1,0-.71.5.5,0,0,1,.71,0c5.25,4.85,8,13.62,8.25,26.09a87.8,87.8,0,0,1-4.24,28.2l-10.38,32.65A.5.5,0,0,1,657.79,256.06Z"></path>
  </g>
  <g opacity="0.2">
    <path d="M661.93,243a.49.49,0,0,1-.25-.08.48.48,0,0,1-.17-.68,159.32,159.32,0,0,0,16.5-39,.5.5,0,0,1,1,.24,159.91,159.91,0,0,1-16.62,39.26A.5.5,0,0,1,661.93,243Z"></path>
  </g>
  <g opacity="0.2">
    <path d="M670.22,287.83h-.1a.51.51,0,0,1-.4-.59c.23-1.25,5.79-30.69,16.7-38.43a22.76,22.76,0,0,0,4.57-4.32c4.88-6.07,19.2-20.54,46.7-23.89a.5.5,0,1,1,.12,1c-27.13,3.3-41.24,17.55-46,23.52a23.48,23.48,0,0,1-4.78,4.52c-10.57,7.5-16.23,37.49-16.28,37.79A.5.5,0,0,1,670.22,287.83Z"></path>
  </g>
  <g opacity="0.2">
    <path d="M692.35,265.69s-12.33,20.79-9,26.64a2,2,0,0,0,2.69.77c1.54-.82,4.43-3,8.3-9.05Z"></path>
  </g>
  <path d="M692.35,265.69l2.43,23.17a19.91,19.91,0,0,1,0,4.63c-.79,6.17-4,25.06-17.26,76.47L651,477.62s-12,55.16-14.73,88c0,0,3.46,7.9,58.59,1.82l39-114.63L752.16,562l58.78-1.12s6.38-27.76-6.12-87.25a73,73,0,0,1-1.58-15v-141s.81-48.65-32.23-82.51l-2.84-3.85S722.56,227,692.35,265.69Z" fill="#2162ca"></path>
  <g opacity="0.2">
    <path d="M733.91,453.3a.57.57,0,0,1-.18,0,.5.5,0,0,1-.28-.65l24.4-61.34a194,194,0,0,1,10.29-21.75c6-10.88,16.43-32.31,19.2-53.63a.5.5,0,0,1,1,.13c-2.79,21.48-13.3,43-19.31,54a192.87,192.87,0,0,0-10.24,21.64L734.38,453A.5.5,0,0,1,733.91,453.3Z"></path>
  </g>
  <g opacity="0.2">
    <path d="M774.46,554.06a.46.46,0,0,1-.23-.06.49.49,0,0,1-.24-.62c.08-.66-.93-5-2.21-10.57-3.94-17.11-12.16-52.7-13.64-86.13l-4.31-55.15a.49.49,0,0,1,.45-.53.5.5,0,0,1,.54.46l4.32,55.16c1.48,33.35,9.68,68.89,13.62,86,2,8.85,2.42,10.64,2.14,11.19A.49.49,0,0,1,774.46,554.06Z"></path>
  </g>
  <g opacity="0.2">
    <path d="M651.61,559.73h-.05a.49.49,0,0,1-.45-.54c2.9-32.18,11.11-69.58,15.75-89A55.26,55.26,0,0,0,668.35,453c-.48-5.86,2.84-7.51,4.86-8a3.78,3.78,0,0,0,2.8-2.56c.57-2-.81-3.56-2.07-4.5a4.84,4.84,0,0,1-2-4.34c3.25-39.53,25.16-101.75,25.38-102.37,9.18-26.74,9.69-37.79,9.7-37.9a.49.49,0,0,1,.52-.48.5.5,0,0,1,.48.52c0,.11-.52,11.27-9.76,38.19-.22.63-22.08,62.73-25.32,102.12a3.88,3.88,0,0,0,1.55,3.46c2.18,1.61,3,3.54,2.44,5.57a4.73,4.73,0,0,1-3.54,3.27c-2.08.47-4.48,2.05-4.08,6.91a56.11,56.11,0,0,1-1.52,17.54c-4.63,19.4-12.83,56.76-15.73,88.87A.49.49,0,0,1,651.61,559.73Z"></path>
  </g>
  <path d="M579.64,318.2s-4.35-1.92-7.68,0c0,0-2.71,4-6.05,1.09,0,0-6.67-.21-2.5,7.5,0,0-5.42,3.75,3.13,12.92,0,0-1.46,5.84,8.75,5.42,0,0,6.54-.28,19.84-3C595.13,342.17,587.12,335.25,579.64,318.2Z" fill="#f8d9be"></path>
  <path d="M771,561.61l1.81,16.4s22.79-8.72,32.72-8.2V561Z" fill="#f8d9be"></path>
  <path d="M807.51,580.94l-27.75,13.55c-7.52,3.11-6.3-.92-5.58-2.54a17.27,17.27,0,0,0,.72-1.85c2.37-7.53-1.9-5-2.13-4.87h0V578c18.28-7.67,32.72-8.2,32.72-8.2A43.88,43.88,0,0,0,807.51,580.94Z" fill="#d1d3d4"></path>
  <path d="M811.35,616.38l-21.21,7.67a135.52,135.52,0,0,0-17.38,7.9c-9,3.61-38.6,2.71-38.6,2.71-9.7-3.38,9.25-13.76,9.25-13.76,7.91-7.23,29.35-35.66,29.35-35.66h0c.23-.14,4.5-2.66,2.13,4.87a17.27,17.27,0,0,1-.72,1.85c-.72,1.62-1.94,5.65,5.58,2.54l27.75-13.55c1.54,6.21,9.94,25.28,9.94,25.28C821.06,613.45,811.35,616.38,811.35,616.38Z" fill="#ec4141"></path>
  <path d="M651.61,569.51l-3.21,16s27.53,1.58,34.75,4.06l5.18-21.39S668.36,570.25,651.61,569.51Z" fill="#f8d9be"></path>
  <path d="M648.4,585.46l-1.81,9.25s16-3.91,16.07,6.11a9.26,9.26,0,0,1-.69,3.28c-.55,1.42-.6,4,7.87,2.35L682,603.06l1.12-13.54S681.35,587.94,648.4,585.46Z" fill="#d1d3d4"></path>
  <path d="M773.07,216.79a3.51,3.51,0,0,1-3.7,2.73h-.14a6.74,6.74,0,0,1-4.35-2.37c-7-8-18-8.21-18-8.21l-25.94-1.42c-18.45-1.82-21.9-36.08-21.9-36.08L696.4,153.9a13.56,13.56,0,0,0-5.93-9.31h0a13.35,13.35,0,0,0-3.3-1.57c-.31-.1-.62-.18-.94-.26-7.31-1.73-15.65-.08-15.65-.08-16.7,2.56-21.43-2.07-21.43-2.07l-1.64-2.76V131.6c12.92,4,31.27-.31,31.27-.31l10.32,7.18a9.23,9.23,0,0,0,3.68,1.52c.23,0,.46.06.7.08a13.64,13.64,0,0,0,6.84-1.18,28.32,28.32,0,0,1,7.09-2.32c19.94-3.41,27.52,12.16,27.52,12.16a18.42,18.42,0,0,0,9.13,10.54c18.24,9.33,23.51,20.81,23.51,20.81A53.48,53.48,0,0,1,773.07,216.79Z" fill="#5a3126"></path>
  <path d="M604.94,115s-10.93,19,15,20.33a55.61,55.61,0,0,0,8.75-.28,40.22,40.22,0,0,1,9.11.25l3.53-4.39S623.22,130.7,604.94,115Z" fill="#5a3126"></path>
  <path d="M674.78,110c.18,1.58.44,3,.72,4.36a26,26,0,0,0,3.29,8.34,15.38,15.38,0,0,1,1.89,4.49,3.92,3.92,0,0,1-3.1,4.78c-42.37,7.93-67.44-11.5-73.49-16.95a2.2,2.2,0,0,1-.27-3c3.11-4,12.55-15.14,30.14-26.59,1.51-1,3-2,4.4-3.18,3-2.4,10.08-7.08,19.42-6.47a16.83,16.83,0,0,1,4.7,1c4.83,1.8,17.08,6.84,19.33,12.34a3.47,3.47,0,0,1-1,3.92A14.45,14.45,0,0,1,678.1,95a5.36,5.36,0,0,0-2.78,3.92A41.88,41.88,0,0,0,674.78,110Z" fill="#ec4141"></path>
  <ellipse cx="643.82" cy="135.28" rx="5.21" ry="7.53" transform="translate(92.91 494.87) rotate(-45)" fill="#f8d9be"></ellipse>
  <path d="M692.77,140s0,3.16-2.3,4.6h0a13.35,13.35,0,0,0-3.3-1.57h0s2.5-1.1,1.93-4.55A9.23,9.23,0,0,0,692.77,140Z" fill="#ec4141"></path>
  <g opacity="0.2">
    <path d="M692.77,140s0,3.16-2.3,4.6h0a13.35,13.35,0,0,0-3.3-1.57h0s2.5-1.1,1.93-4.55A9.23,9.23,0,0,0,692.77,140Z"></path>
  </g>
  <polygon points="242.3 303.18 321.95 367.85 538.14 367.85 457.29 303.18 242.3 303.18" fill="#663e3a"></polygon>
  <polygon points="242.3 303.18 242.3 316.35 322.15 380.02 321.95 367.85 242.3 303.18" fill="#ac7054"></polygon>
  <g opacity="0.2">
    <polygon points="242.3 303.18 242.3 316.35 322.15 380.02 321.95 367.85 242.3 303.18"></polygon>
  </g>
  <polygon points="322.15 380.02 538.14 380.02 538.14 367.85 321.95 367.85 322.15 380.02" fill="#ac7054"></polygon>
  <rect x="377.24" y="380.02" width="18.41" height="242.64" fill="#663e3a"></rect>
  <rect x="321.95" y="610.82" width="133.83" height="11.83" fill="#ac7054"></rect>
  <circle cx="318.11" cy="635.35" r="14.17" fill="#d1d3d4"></circle>
  <circle cx="318.11" cy="635.35" r="7.31" fill="#e6e7e8"></circle>
  <circle cx="386.45" cy="635.35" r="14.17" fill="#d1d3d4"></circle>
  <circle cx="386.45" cy="635.35" r="7.31" fill="#e6e7e8"></circle>
  <circle cx="454.05" cy="635.35" r="14.17" fill="#d1d3d4"></circle>
  <circle cx="454.05" cy="635.35" r="7.31" fill="#e6e7e8"></circle>
  <path d="M355.7,344.45l-44.94-41.27,88,1.25,35.09,27.7a23.27,23.27,0,0,0-17.44,5.75s-6.77,6.61-33.45,3.72C383,341.6,363.29,338.7,355.7,344.45Z" fill="#f1f2f2"></path>
  <g opacity="0.19">
    <path d="M350.48,340s3.58-2.91,24.92-3.32c1,0,7.83.39,15.33.29A57.22,57.22,0,0,0,416,330.41c3.44-1.76,8.1-3.26,13-2.21l5,3.93s-9.85-1.23-17.44,5.75c0,0-5.91,6.29-33.45,3.72,0,0-17.65-3.31-27.3,2.85Z" fill="#ec4141"></path>
  </g>
  <ellipse cx="448.89" cy="342.39" rx="18.23" ry="5.24" fill="#ec4141"></ellipse>
  <g opacity="0.2">
    <ellipse cx="448.89" cy="342.39" rx="18.23" ry="5.24"></ellipse>
  </g>
  <path d="M438.74,339.09a14.24,14.24,0,0,0,18.9.92,22.19,22.19,0,0,0,8.45-14.43s2.28-6.84-14.07-6.65c-1,0-2,0-3-.1-4.63-.28-19.84-.52-17.16,8.58A28.78,28.78,0,0,0,438.74,339.09Z" fill="#ec4141"></path>
  <ellipse cx="448.85" cy="323.8" rx="12.81" ry="1.21" fill="#fff"></ellipse>
  <path d="M464.85,338.29a5.06,5.06,0,0,1-3.56-2,.48.48,0,0,1,0-.7.49.49,0,0,1,.7,0c1.2,1.29,2.32,1.81,3.35,1.56,2.28-.56,3.88-4.81,4.3-6.4a2.06,2.06,0,0,0-.4-1.94c-.88-.86-2.85-.68-3.54-.54a.5.5,0,0,1-.59-.39.51.51,0,0,1,.39-.59c.12,0,3-.6,4.44.8a3,3,0,0,1,.68,2.88c-.08.29-1.72,6.33-5,7.15A3.3,3.3,0,0,1,464.85,338.29Z" fill="#ec4141"></path>
  <ellipse cx="330.29" cy="317.6" rx="43.79" ry="18.05" fill="#2162ca"></ellipse>
  <ellipse cx="330.29" cy="315.12" rx="49.19" ry="18.05" fill="#fff"></ellipse>
  <ellipse cx="330.29" cy="314.69" rx="34.35" ry="12.25" fill="#d1d3d4"></ellipse>
  <ellipse cx="342.84" cy="300.49" rx="11.66" ry="17.64" transform="translate(-10.87 588.11) rotate(-80.35)" fill="#bcbec0"></ellipse>
  <g opacity="0.2">
    <path d="M347.33,298.15c-.25,1.45-2.17,2.27-4.35,1.91s-3.69-1.82-3.45-3.24,2.17-2.27,4.34-1.91S347.57,296.73,347.33,298.15Z"></path>
  </g>
  <ellipse cx="315.18" cy="310.64" rx="17.94" ry="11.07" fill="#e6e7e8"></ellipse>
  <ellipse cx="317.26" cy="298.79" rx="20.15" ry="12.59" fill="#2162ca"></ellipse>
  <path d="M304.9,298.5a.5.5,0,0,1-.49-.46.49.49,0,0,1,.46-.53l2.83-.21a.5.5,0,1,1,.08,1l-2.84.21Z" fill="#fff"></path>
  <path d="M305.43,296.4a.54.54,0,0,1-.25-.06l-1.88-1a.5.5,0,0,1,.49-.87l1.88,1.05a.5.5,0,0,1-.24.93Z" fill="#fff"></path>
  <path d="M307.21,294.31a.5.5,0,0,1-.18-1l1.89-.73a.5.5,0,0,1,.65.29.5.5,0,0,1-.29.64l-1.89.73A.39.39,0,0,1,307.21,294.31Z" fill="#fff"></path>
  <path d="M306.79,291.79h0l-2.52-.11a.5.5,0,1,1,.05-1l2.51.11a.51.51,0,0,1,.48.52A.5.5,0,0,1,306.79,291.79Z" fill="#fff"></path>
  <path d="M314.34,291.26a.49.49,0,0,1-.37-.16.5.5,0,0,1,0-.71l.94-.83a.5.5,0,0,1,.71,0,.51.51,0,0,1-.05.71l-.94.83A.5.5,0,0,1,314.34,291.26Z" fill="#fff"></path>
  <path d="M312.46,291.89a.41.41,0,0,1-.24-.06l-2.52-1.36a.5.5,0,0,1-.21-.68.51.51,0,0,1,.68-.2l2.52,1.36a.5.5,0,0,1-.23.94Z" fill="#fff"></path>
  <path d="M321.47,291.58a.49.49,0,0,1-.32-.12l-1.36-1.15a.5.5,0,1,1,.64-.76l1.37,1.15a.5.5,0,0,1-.33.88Z" fill="#fff"></path>
  <path d="M323.68,293a.5.5,0,0,1-.49-.39.49.49,0,0,1,.37-.6l2.61-.63a.5.5,0,0,1,.61.37.5.5,0,0,1-.37.6l-2.62.63Z" fill="#fff"></path>
  <path d="M330.91,295.88h-.08l-2.1-.31a.51.51,0,0,1-.42-.57.5.5,0,0,1,.57-.42l2.1.32a.5.5,0,0,1-.07,1Z" fill="#fff"></path>
  <path d="M331.74,293.47a.55.55,0,0,1-.25-.07l-2.83-1.68a.48.48,0,0,1-.17-.68.49.49,0,0,1,.68-.18l2.83,1.68a.5.5,0,0,1-.26.93Z" fill="#fff"></path>
  <path d="M323.68,289.06a.5.5,0,0,1,0-1l2.2-.1a.5.5,0,0,1,.52.48.5.5,0,0,1-.47.52l-2.2.1Z" fill="#fff"></path>
  <path d="M317.59,288.12h-2.52a.5.5,0,0,1,0-1h2.52a.5.5,0,1,1,0,1Z" fill="#fff"></path>
  <path d="M333.21,298.4a.5.5,0,0,1-.48-.37.51.51,0,0,1,.35-.62l2.73-.73a.5.5,0,0,1,.61.35.52.52,0,0,1-.35.62l-2.73.73Z" fill="#fff"></path>
  <path d="M334.79,296.19a.5.5,0,0,1-.46-.29l-.84-1.89a.5.5,0,0,1,.91-.41l.84,1.89a.5.5,0,0,1-.25.66A.51.51,0,0,1,334.79,296.19Z" fill="#fff"></path>
  <path d="M329.13,301a.52.52,0,0,1-.38-.17.5.5,0,0,1,0-.7l2-1.79a.5.5,0,0,1,.7,0,.5.5,0,0,1,0,.71l-2,1.78A.5.5,0,0,1,329.13,301Z" fill="#fff"></path>
  <path d="M323.68,301.65h-.07L319,301a.5.5,0,0,1-.43-.56.52.52,0,0,1,.57-.43l4.61.63a.5.5,0,0,1-.06,1Z" fill="#fff"></path>
  <path d="M324.72,298.61a.5.5,0,0,1-.11-1l2.3-.52a.49.49,0,0,1,.6.37.5.5,0,0,1-.38.6l-2.3.52Z" fill="#fff"></path>
  <path d="M313,300.39a.46.46,0,0,1-.23-.06l-3.26-1.68a.5.5,0,0,1,.46-.89l3.26,1.68a.51.51,0,0,1,.21.68A.5.5,0,0,1,313,300.39Z" fill="#fff"></path>
  <path d="M313.71,303.32a.5.5,0,0,1-.08-1l3.36-.52a.5.5,0,0,1,.57.42.5.5,0,0,1-.42.57l-3.35.52Z" fill="#fff"></path>
  <path d="M322.2,305.42a.49.49,0,0,1-.38-.18L320.77,304a.5.5,0,1,1,.77-.65l1,1.26a.49.49,0,0,1-.06.7A.52.52,0,0,1,322.2,305.42Z" fill="#fff"></path>
  <path d="M326.19,303.85a.51.51,0,0,1-.43-.26.49.49,0,0,1,.18-.68l2.21-1.25a.49.49,0,0,1,.68.18.51.51,0,0,1-.19.69l-2.2,1.25A.59.59,0,0,1,326.19,303.85Z" fill="#fff"></path>
  <path d="M300.08,298.5a.51.51,0,0,1-.47-.32l-.52-1.37a.5.5,0,1,1,.93-.35l.52,1.37a.5.5,0,0,1-.28.64Z" fill="#fff"></path>
  <path d="M334.9,302.06a.48.48,0,0,1-.38-.17l-.74-.83a.51.51,0,0,1,0-.71.51.51,0,0,1,.71,0l.74.83a.51.51,0,0,1,0,.71A.54.54,0,0,1,334.9,302.06Z" fill="#fff"></path>
  <g opacity="0.2">
    <path d="M321.16,296c0,1.07-1.74,1.94-3.89,1.94s-3.89-.87-3.89-1.94,1.74-1.94,3.89-1.94S321.16,294.92,321.16,296Z"></path>
  </g>
  <path d="M317.26,311.38c9.2,0,16.95-3.85,19.36-9.11a3.45,3.45,0,0,0-1.7.6c-1.8,1.35-1.95,3-3.45,2.24s-2.54-.89-4.63.45-3.74,3-6.88,1.19-6.42-1.19-9.12.31-4.78-3-5.07-5.54-3.44-.15-6.13-.89c-1.27-.36-2-1.7-2.42-3a6.72,6.72,0,0,0-.1,1.18C297.11,305.74,306.17,311.38,317.26,311.38Z" fill="#fff"></path>
  <ellipse cx="342.54" cy="313.78" rx="19.44" ry="12.56" fill="#fff"></ellipse>
  <path d="M342.54,301.22c-10.73,0-19.44,5.63-19.44,12.56a9.05,9.05,0,0,0,1.84,5.34,12.43,12.43,0,0,0,2.5.49c3.14.3,4.19-2.84,7.77-.73s4.94,4.35,8.37,2.25,5.24-3.44,7.93-2.09,3.44.29,4.63-1.5,1.2-2.09,3.29-2.09,1.82-1.88,2.31-3.63C360.28,305.83,352.25,301.22,342.54,301.22Z" fill="#ec4141"></path>
  <path d="M323.1,313.8a5.26,5.26,0,0,0,0,.89c3.76-6.26,9.52-10.5,13.49-12.85-.78.16-1.54.35-2.27.57a39.07,39.07,0,0,0-11.25,11C323.11,313.5,323.1,313.64,323.1,313.8Z" fill="#2162ca"></path>
  <path d="M333.13,318.15c3.55-9.9,11.6-14.17,16.93-15.94-.42-.12-.85-.22-1.29-.31-5.48,2-13,6.55-16.42,16.29A3.4,3.4,0,0,1,333.13,318.15Z" fill="#2162ca"></path>
  <path d="M344,301.27c-.49,0-1,0-1.49,0h-.48a33.1,33.1,0,0,0-17.49,17.35l.37.54.16,0C328,312.82,333.51,304.87,344,301.27Z" fill="#2162ca"></path>
  <path d="M361.54,311.2c-.07-.22-.15-.45-.24-.67a25.08,25.08,0,0,0-11,8.06,3.86,3.86,0,0,1,.73.23A24.3,24.3,0,0,1,361.54,311.2Z" fill="#2162ca"></path>
  <path d="M356.58,305.11l-.83-.53c-8.07,2.25-14.32,7.43-18.66,15.49l.6.42C342.06,312.35,348.37,307.2,356.58,305.11Z" fill="#2162ca"></path>
  <path d="M359.2,307.34c-.17-.19-.34-.38-.53-.56a28.5,28.5,0,0,0-14.26,13.63l-.12.26,1.16-.72A27.9,27.9,0,0,1,359.2,307.34Z" fill="#2162ca"></path>
  <g opacity="0.2">
    <path d="M346.58,309.9c0,.82-1.84,1.49-4.12,1.49s-4.11-.67-4.11-1.49,1.84-1.5,4.11-1.5S346.58,309.07,346.58,309.9Z"></path>
  </g>
  <path d="M313.54,610.82h9.13A16.37,16.37,0,0,1,339,627.2V628a0,0,0,0,1,0,0H297.17a0,0,0,0,1,0,0v-.85A16.37,16.37,0,0,1,313.54,610.82Z" fill="#663e3a"></path>
  <path d="M381.88,610.82H391a16.37,16.37,0,0,1,16.37,16.37V628a0,0,0,0,1,0,0H365.51a0,0,0,0,1,0,0v-.85A16.37,16.37,0,0,1,381.88,610.82Z" fill="#663e3a"></path>
  <path d="M449.49,610.82h9.13A16.37,16.37,0,0,1,475,627.2V628a0,0,0,0,1,0,0H433.11a0,0,0,0,1,0,0v-.85A16.37,16.37,0,0,1,449.49,610.82Z" fill="#663e3a"></path>
  <rect x="454.82" y="180.62" width="12.13" height="9.4" fill="#663e3a"></rect>
  <path d="M422.52,196.69V175.32a4.8,4.8,0,0,0,4.5-3.7h7.71v1.93h20.33a2.49,2.49,0,0,1,2.49,2.49v13a2.48,2.48,0,0,1-2.49,2.49H427s-2.09-1-2.09,2.41v2.73Z" fill="#2162ca"></path>
  <rect x="428.63" y="191.55" width="23.94" height="27.32" fill="#2162ca"></rect>
  <g opacity="0.2">
    <rect x="428.63" y="191.55" width="23.94" height="27.32"></rect>
  </g>
  <rect x="427.02" y="196.69" width="27.16" height="12.7" fill="#ec4141"></rect>
  <path d="M451.85,215h-22.5a.5.5,0,0,1-.5-.5.5.5,0,0,1,.5-.5h22.5a.5.5,0,0,1,.5.5A.5.5,0,0,1,451.85,215Z" fill="#fff"></path>
  <path d="M432.62,209.41a.5.5,0,0,1-.5-.5V197.18a.5.5,0,0,1,.5-.5.5.5,0,0,1,.5.5v11.73A.51.51,0,0,1,432.62,209.41Z" fill="#fff"></path>
  <path d="M436.61,209.41a.5.5,0,0,1-.5-.5V197.18a.5.5,0,0,1,.5-.5.5.5,0,0,1,.5.5v11.73A.51.51,0,0,1,436.61,209.41Z" fill="#fff"></path>
  <path d="M440.6,209.41a.5.5,0,0,1-.5-.5V197.18a.5.5,0,1,1,1,0v11.73A.5.5,0,0,1,440.6,209.41Z" fill="#fff"></path>
  <path d="M444.59,209.41a.5.5,0,0,1-.5-.5V197.18a.5.5,0,0,1,1,0v11.73A.5.5,0,0,1,444.59,209.41Z" fill="#fff"></path>
  <path d="M448.58,209.41a.5.5,0,0,1-.5-.5V197.18a.5.5,0,0,1,1,0v11.73A.5.5,0,0,1,448.58,209.41Z" fill="#fff"></path>
  <path d="M452.57,209.41a.51.51,0,0,1-.5-.5V197.18a.5.5,0,0,1,.5-.5.5.5,0,0,1,.5.5v11.73A.5.5,0,0,1,452.57,209.41Z" fill="#fff"></path>
  <path d="M428.63,209.41a.5.5,0,0,1-.5-.5V197.18a.5.5,0,0,1,.5-.5.5.5,0,0,1,.5.5v11.73A.51.51,0,0,1,428.63,209.41Z" fill="#fff"></path>
  <rect x="116.07" y="574.29" width="5.29" height="69.44" transform="translate(237.42 1218.02) rotate(-180)" fill="#663e3a"></rect>
  <polygon points="89.31 568.45 94 570.89 56.05 643.59 51.36 641.15 89.31 568.45" fill="#663e3a"></polygon>
  <polygon points="149.08 568.83 144.38 571.26 182.34 643.97 187.03 641.53 149.08 568.83" fill="#663e3a"></polygon>
  <rect x="113.75" y="535.27" width="9.59" height="42.98" transform="translate(237.09 1113.53) rotate(-180)" fill="#ac7054"></rect>
  <rect x="92.3" y="531.94" width="9.59" height="53.83" transform="translate(-74.37 1099.55) rotate(-152.55)" fill="#ac7054"></rect>
  <rect x="136.51" y="532.31" width="9.59" height="53.83" transform="translate(-241.88 128.09) rotate(-27.45)" fill="#ac7054"></rect>
  <path d="M100.07,649.85a.51.51,0,0,1-.5-.46c-1-13.28-15.22-42.48-15.36-42.78-16.33-36.46-19.36-55.77-19.39-56-8-48.21,48.44-87.14,49-87.53,19.31-12.12,31.81-29.11,38.9-41.23a63.59,63.59,0,0,0,5.29-53c-12.33-35.59-46.88-69.1-47.23-69.44-21-22.71-35-47.09-41.55-72.47a139.63,139.63,0,0,1-1.7-62.39c7-35.9,25.57-60,25.76-60.2a.5.5,0,1,1,.79.61c-.19.24-18.59,24.14-25.58,59.82-6.44,32.9-4.21,82.85,43,133.93.33.32,35.05,34,47.46,69.81a64.6,64.6,0,0,1-5.38,53.82c-7.14,12.22-19.74,29.35-39.22,41.57-.55.37-56.46,39-48.56,86.53,0,.2,3,19.4,19.3,55.7.58,1.19,14.4,29.65,15.46,43.12a.49.49,0,0,1-.46.53Z" fill="#663e3a"></path>
  <path d="M80.36,67h24.86a0,0,0,0,1,0,0V84.08a7.78,7.78,0,0,1-7.78,7.78H88.14a7.78,7.78,0,0,1-7.78-7.78V67A0,0,0,0,1,80.36,67Z" transform="translate(199.93 20.78) rotate(110.74)" fill="#663e3a"></path>
  <path d="M129.68,70.1l-13.23-5.78A7.26,7.26,0,0,0,107,68L93.27,97.88A7.24,7.24,0,0,0,97,107.55l14.39,6.2Z" fill="#ac7054"></path>
  <polygon points="339.08 46.7 168.56 46.7 104.62 187.7 275.54 187.7 339.08 46.7" fill="#663e3a"></polygon>
  <polygon points="325.55 55.31 173.89 55.31 118.55 179.5 270.62 179.5 325.55 55.31" fill="#ec4141"></polygon>
  <path d="M338.56,46.49,306.28,33.17H155.85L168.56,46.7h170A.11.11,0,0,0,338.56,46.49Z" fill="#ac7054"></path>
  <polygon points="168.56 46.7 155.85 33.17 98.88 166.39 104.62 187.7 168.56 46.7" fill="#ac7054"></polygon>
  <g opacity="0.2">
    <polygon points="168.56 46.7 155.85 33.17 98.88 166.39 104.62 187.7 168.56 46.7"></polygon>
  </g>
  <polygon points="140.69 43.83 147.49 52.72 104.62 152.97 101.34 137.7 140.69 43.83" fill="#663e3a"></polygon>
  <polygon points="140.69 43.83 151.3 43.83 147.49 52.72 140.69 43.83" fill="#ac7054"></polygon>
  <rect x="111.37" y="187.7" width="15.53" height="343.7" transform="translate(238.26 719.11) rotate(-180)" fill="#ac7054"></rect>
  <rect x="95.17" y="521.43" width="47.38" height="17.46" rx="3.02" transform="translate(237.73 1060.32) rotate(-180)" fill="#663e3a"></rect>
  <rect x="104.62" y="245.16" width="29.03" height="17.46" rx="3.02" transform="translate(238.26 507.78) rotate(-180)" fill="#663e3a"></rect>
  <rect x="108.79" y="636.12" width="20.5" height="13.23" rx="2.53" transform="translate(238.08 1285.47) rotate(-180)" fill="#ac7054"></rect>
  <rect x="43.46" y="636.12" width="20.5" height="13.23" rx="2.53" transform="translate(107.41 1285.47) rotate(-180)" fill="#ac7054"></rect>
  <rect x="174.43" y="636.49" width="20.5" height="13.23" rx="2.53" fill="#ac7054"></rect>
  <path d="M645.46,137.81a.43.43,0,0,1-.19,0,.5.5,0,0,1-.27-.65,1.69,1.69,0,0,0,.15-.76,1.41,1.41,0,0,0-.88-1.28c-.8-.3-1.29.68-1.31.73a.51.51,0,0,1-.86.06,2.76,2.76,0,0,1-.59-2.66,2.39,2.39,0,0,1,1.72-1.2.51.51,0,0,1,.57.42.49.49,0,0,1-.42.57s-.75.14-1,.62a1.34,1.34,0,0,0,.14,1,1.86,1.86,0,0,1,2.06-.52,2.4,2.4,0,0,1,1.53,2.19,2.78,2.78,0,0,1-.23,1.17A.49.49,0,0,1,645.46,137.81Z" fill="#eea186"></path>
</svg>
