<?xml version="1.0" encoding="UTF-8"?>
<svg xmlns="http://www.w3.org/2000/svg" id="a" width="865.76" height="682.89" viewBox="0 0 865.76 682.89">
  <g>
    <g>
      <path d="M843.69,257.14s-4.31,52.27-104.79,91.09c0,0-39.44,11.66-69.18,25.12-16.27,7.36-29.64,15.26-32.06,22.08,0,0-13.19,17.76,48.21,55.32,0,0,25.72,16.46,46.05,37.81,.88,.92,1.75,1.85,2.6,2.79,11.87,13.04,21.32,27.66,21.64,41.36,.06,2.49-.18,4.95-.77,7.36,0,0-.01,.22-.07,.64-.08,.56-.24,1.47-.55,2.66-.23,.87-.54,1.89-.97,3.04-.72,1.95-1.77,4.28-3.28,6.85-2.28,3.87-5.62,8.32-10.51,12.94-15.48,14.62-46.52,30.94-108.7,36.28,0,0-32.83,6.17-129.93,9.01-3.31,.1-6.69,.19-10.15,.28-26.8,.69-58.15,1.12-94.63,1.12,0,0-67.03-1.11-144.54-7.43-50.73-4.13-105.94-10.49-149.8-20.23-3.28-.73-6.41-1.52-9.4-2.37-30.21-8.55-45.84-22.58-53.3-31.75-1.92-2.36-3.44-4.98-4.53-7.75-2.48-6.3-2.74-13.36-.43-19.91,2.79-7.94,9.33-17.02,23.76-24.24l52.78-24.61L194.93,186.32s10.07-12.58,61.5-19.74c1.3-.18,2.6-.32,3.91-.42,8.36-.63,43.87-3.69,56.28-11.34,3.53-2.18,4.36-7.01,1.75-10.24-1-1.24-2.44-2.57-4.5-3.92,0,0-21.82-14.97-14.97-28.42,0,0,3.55-27.4,105.05-37.3,0,0,178.89-25.88,317.43,40.85,0,0,134.23,71.81,122.3,141.33Z" fill="#fff"></path>
      <path d="M396.6,613.38c-.68-.01-67.94-1.18-144.58-7.43-61.52-5.01-111.95-11.82-149.87-20.24-3.23-.72-6.41-1.52-9.43-2.37-29.63-8.38-45.47-21.98-53.55-31.92-1.94-2.39-3.49-5.04-4.61-7.88-2.58-6.54-2.73-13.73-.44-20.26,3.54-10.07,11.62-18.33,24.01-24.52l52.58-24.52L194.48,186.09l.06-.08c.42-.52,10.79-12.81,61.82-19.92,1.27-.18,2.59-.32,3.94-.42,7.18-.54,43.64-3.61,56.06-11.26,1.56-.96,2.64-2.56,2.95-4.39,.31-1.82-.17-3.69-1.32-5.12-1.08-1.33-2.55-2.62-4.38-3.82-.91-.63-22.04-15.33-15.18-28.99,.16-.89,1.74-7.5,14.69-15.21,12.43-7.41,38.27-17.31,90.79-22.43,.42-.06,45.45-6.46,106.83-4.6,56.65,1.71,139.22,10.99,210.87,45.5,.36,.19,33.99,18.29,65.73,44.66,29.35,24.39,63.04,61.04,56.86,97.19-.06,.65-1.52,13.76-14.82,31.23-12.48,16.4-38.28,40.17-90.3,60.27-.43,.13-39.79,11.82-69.16,25.11-19.02,8.6-29.71,15.93-31.79,21.79l-.07,.13s-1.78,2.52-.79,7.53c1.78,8.92,11.7,24.33,48.86,47.06,.27,.17,26.01,16.74,46.15,37.89,.88,.92,1.75,1.86,2.61,2.8,14.16,15.56,21.49,29.58,21.77,41.69,.06,2.57-.2,5.08-.78,7.47,0,.01-.01,.24-.07,.61-.08,.57-.24,1.51-.56,2.72-.26,1-.59,2.04-.98,3.09-.84,2.29-1.96,4.62-3.32,6.93-2.67,4.54-6.24,8.94-10.6,13.05-14.38,13.58-44.97,30.92-109,36.42-.28,.06-33.93,6.21-129.96,9.01-3.31,.1-6.69,.19-10.15,.28-28.87,.74-60.72,1.12-94.64,1.12ZM195.38,186.57L111.56,474.95l-.21,.1-52.78,24.61c-12.14,6.07-20.05,14.13-23.5,23.95-2.22,6.3-2.06,13.25,.42,19.56,1.08,2.75,2.58,5.31,4.45,7.62,7.98,9.82,23.66,23.27,53.04,31.58,3.01,.85,6.16,1.65,9.38,2.36,37.88,8.41,88.25,15.21,149.73,20.22,76.61,6.24,143.83,7.41,144.5,7.43,33.91,0,65.74-.38,94.61-1.12,3.46-.09,6.84-.18,10.15-.28,95.92-2.8,129.52-8.94,129.85-9,63.79-5.49,94.18-22.69,108.45-36.16,4.29-4.05,7.8-8.37,10.42-12.83,1.33-2.26,2.42-4.54,3.24-6.77,.38-1.02,.7-2.03,.95-3,.31-1.16,.46-2.06,.54-2.6,.05-.38,.07-.59,.07-.6,.57-2.39,.82-4.83,.77-7.32-.28-11.86-7.52-25.66-21.51-41.04-.85-.94-1.72-1.86-2.59-2.78-20.05-21.06-45.7-37.57-45.95-37.73-37.56-22.97-47.55-38.68-49.33-47.81-.97-5.02,.63-7.71,.94-8.16,2.23-6.11,13.1-13.61,32.3-22.3,29.43-13.32,68.85-25.03,69.25-25.14,51.7-19.98,77.35-43.57,89.76-59.85,13.43-17.62,14.67-30.68,14.68-30.81v-.04c6.12-35.68-27.34-72.04-56.49-96.26-31.66-26.31-65.22-44.37-65.55-44.55-71.46-34.42-153.88-43.68-210.43-45.39-61.29-1.85-106.25,4.53-106.7,4.59-99.69,9.72-104.59,36.6-104.62,36.87l-.05,.16c-6.57,12.9,14.59,27.63,14.81,27.78,1.9,1.25,3.46,2.6,4.6,4.02,1.33,1.65,1.89,3.81,1.53,5.91-.36,2.11-1.6,3.95-3.41,5.07-12.3,7.58-46.36,10.65-56.51,11.41-1.33,.1-2.63,.24-3.88,.42-48.56,6.76-60.21,18.48-61.12,19.49Z" fill="#231f20"></path>
    </g>
    <g>
      <rect x="282.4" y="183.04" width="182.69" height="12.18" fill="#fff"></rect>
      <path d="M465.59,195.72h-183.69v-13.18h183.69v13.18Zm-182.69-1h181.69v-11.18h-181.69v11.18Z" fill="#231f20"></path>
    </g>
    <g>
      <rect x="294.83" y="195.22" width="13.45" height="4.06" fill="#231f20"></rect>
      <path d="M308.78,199.78h-14.45v-5.06h14.45v5.06Zm-13.45-1h12.45v-3.06h-12.45v3.06Z" fill="#231f20"></path>
    </g>
    <g>
      <rect x="441.5" y="195.22" width="13.45" height="4.06" fill="#231f20"></rect>
      <path d="M455.44,199.78h-14.45v-5.06h14.45v5.06Zm-13.45-1h12.45v-3.06h-12.45v3.06Z" fill="#231f20"></path>
    </g>
    <g>
      <rect x="324.52" y="125.19" width="13.45" height="57.85" fill="#6ac5cd"></rect>
      <path d="M338.47,183.54h-14.45v-58.85h14.45v58.85Zm-13.45-1h12.45v-56.85h-12.45v56.85Z" fill="#231f20"></path>
    </g>
    <g>
      <rect x="337.97" y="142.44" width="13.45" height="40.47" fill="#abb4c9"></rect>
      <path d="M351.92,183.42h-14.45v-41.47h14.45v41.47Zm-13.45-1h12.45v-39.47h-12.45v39.47Z" fill="#231f20"></path>
    </g>
    <g>
      <rect x="325.79" y="133.06" width="10.91" height="4.82" fill="#fff"></rect>
      <path d="M337.2,138.38h-11.91v-5.82h11.91v5.82Zm-10.91-1h9.91v-3.82h-9.91v3.82Z" fill="#231f20"></path>
    </g>
    <g>
      <rect x="355.22" y="160.97" width="20.55" height="22.08" rx="4.02" ry="4.02" fill="#fff"></rect>
      <path d="M371.75,183.54h-12.51c-2.5,0-4.52-2.03-4.52-4.52v-14.03c0-2.49,2.03-4.52,4.52-4.52h12.51c2.49,0,4.52,2.03,4.52,4.52v14.03c0,2.49-2.03,4.52-4.52,4.52Zm-12.51-22.08c-1.94,0-3.52,1.58-3.52,3.52v14.03c0,1.94,1.58,3.52,3.52,3.52h12.51c1.94,0,3.52-1.58,3.52-3.52v-14.03c0-1.94-1.58-3.52-3.52-3.52h-12.51Z" fill="#231f20"></path>
    </g>
    <path d="M363.83,161.56c-.24,0-.45-.17-.49-.42l-7.09-42.21c-.05-.27,.14-.53,.41-.58,.27-.05,.53,.14,.58,.41l7.09,42.21c.05,.27-.14,.53-.41,.58-.03,0-.06,0-.08,0Z" fill="#231f20"></path>
    <path d="M365.12,160.96s-.08,0-.12-.01c-.27-.07-.43-.34-.37-.6,.24-.98,5.84-23.88,6.1-24.65,.09-.26,.36-.41,.63-.32,.26,.09,.4,.37,.32,.63-.21,.62-4.46,17.95-6.08,24.57-.06,.23-.26,.38-.49,.38Z" fill="#231f20"></path>
    <g>
      <path d="M734.51,491.34H351.93v-96.09c0-12.09,9.8-21.9,21.9-21.9h295.89c-16.27,7.36-29.64,15.26-32.06,22.08,0,0-13.19,17.76,48.21,55.32,0,0,27.99,17.91,48.65,40.6Z" fill="#6ac5cd"></path>
      <path d="M735.65,491.84H351.43v-96.59c0-12.35,10.05-22.4,22.39-22.4h298.21l-2.11,.96c-19.02,8.6-29.71,15.93-31.79,21.79l-.07,.13s-1.78,2.52-.79,7.53c1.78,8.92,11.7,24.33,48.86,47.06,.29,.19,28.29,18.21,48.76,40.69l.76,.84Zm-383.22-1h380.95c-20.31-21.99-47.51-39.5-47.78-39.68-37.56-22.97-47.55-38.68-49.33-47.81-.97-5.02,.63-7.71,.94-8.16,2.15-5.89,12.31-13.06,30.21-21.34H373.82c-11.8,0-21.39,9.6-21.39,21.4v95.59Z" fill="#231f20"></path>
    </g>
    <g>
      <path d="M754.77,543.35c-1.2,4.57-4.7,13.34-14.76,22.84-15.48,14.62-46.52,30.94-108.7,36.28,0,0-55.32,10.4-234.71,10.4,0,0-183.45-3.04-294.34-27.66-36.44-8.09-54.51-24.04-62.7-34.12-1.92-2.36-3.44-4.98-4.53-7.75H754.77Z" fill="#abb4c9"></path>
      <path d="M396.6,613.38c-1.84-.03-184.78-3.33-294.45-27.67-35.41-7.86-53.79-22.99-62.98-34.29-1.94-2.39-3.49-5.04-4.61-7.88l-.27-.68H755.41l-.17,.63c-1.18,4.48-4.68,13.43-14.9,23.07-14.38,13.58-44.97,30.92-109,36.42-.5,.1-57.36,10.41-234.75,10.41ZM35.78,543.85c1.05,2.49,2.45,4.82,4.17,6.93,9.09,11.18,27.29,26.15,62.42,33.94,109.57,24.32,292.4,27.62,294.24,27.65,177.25,0,234.06-10.29,234.61-10.39,63.79-5.49,94.18-22.69,108.45-36.16,9.58-9.04,13.14-17.42,14.44-21.97H35.78Z" fill="#231f20"></path>
    </g>
    <g>
      <path d="M38.76,348.79s-4.01,51.96,17.82,68.46c0,0,10.4,6.6,20.55,1.52l17.51-48.46-5.33-8.37-50.55-13.14Z" fill="#231f20"></path>
      <path d="M68.88,421.17c-6.95,0-12.5-3.45-12.58-3.5-21.82-16.49-18.21-66.78-18.05-68.92l.05-.6,51.32,13.34,5.57,8.75-.08,.23-17.58,48.65-.18,.09c-2.87,1.44-5.77,1.95-8.46,1.95Zm-29.67-71.74c-.35,5.82-2.44,52.23,17.66,67.42,.07,.04,10.13,6.28,19.85,1.56l17.36-48.04-5.09-8-49.77-12.94Z" fill="#231f20"></path>
    </g>
    <g>
      <path d="M252.06,605.45c-50.73-4.13-105.94-10.49-149.8-20.23-3.28-.73-6.41-1.52-9.4-2.37l9.13-21.23,31.46-20.05,117.74,42.88,.87,20.99Z" fill="#6ac5cd"></path>
      <path d="M252.58,606l-.56-.05c-61.52-5.01-111.95-11.82-149.87-20.24-3.23-.72-6.41-1.52-9.43-2.37l-.55-.16,9.42-21.9,.13-.08,31.67-20.18,.23,.08,118.05,43,.91,21.89Zm-159.04-23.47c2.84,.79,5.81,1.54,8.83,2.21,37.76,8.38,87.95,15.17,149.17,20.17l-.83-20.09-117.19-42.68-31.13,19.83-8.85,20.56Z" fill="#231f20"></path>
    </g>
    <g>
      <polygon points="377.81 560.86 406.48 560.86 398.11 588.01 386.94 588.01 377.81 560.86" fill="#231f20"></polygon>
      <path d="M398.48,588.51h-11.89l-9.47-28.15h30.05l-8.68,28.15Zm-11.17-1h10.44l8.06-26.15h-27.3l8.8,26.15Z" fill="#231f20"></path>
    </g>
    <g>
      <path d="M755.39,540.06s-.07,1.21-.62,3.3c-1.2,4.57-4.7,13.34-14.76,22.84H370.47c-4.5,0-8.14-3.64-8.14-8.14v-69.5h369.58c.88,.92,1.75,1.85,2.6,2.79,14.03,15.41,24.67,33.02,20.88,48.72Z" fill="#6ac5cd"></path>
      <path d="M740.21,566.69H370.47c-4.76,0-8.64-3.88-8.64-8.64v-70h370.29l.15,.15c.88,.92,1.75,1.86,2.61,2.8,17.22,18.92,24.29,35.45,21,49.13-.02,.25-.13,1.44-.63,3.35-1.18,4.48-4.68,13.43-14.9,23.07l-.14,.14Zm-377.38-77.64v69c0,4.21,3.43,7.64,7.64,7.64h369.34c9.92-9.42,13.33-18.11,14.47-22.46,.53-2,.61-3.19,.61-3.2v-.09c3.24-13.35-3.74-29.59-20.75-48.26-.8-.88-1.62-1.76-2.45-2.63H362.83Z" fill="#231f20"></path>
    </g>
    <g>
      <path d="M434.9,457.08s6.34-2.03,21.31-6.34c0,0,27.4-10.91,31.21-3.04,0,0,1.01,2.28,1.27,7.1,0,0,14.21-1.27,23.34,5.84,0,0,12.18,9.9,39.58,6.34,0,0,54.81-13.7,57.35-3.04,0,0,67.49-3.04,85.26,14.46,0,0,2.79,4.82-43.39,4.82l-50.09,.95c-3.42,.06-6.75,1.16-9.53,3.15-5.43,3.88-13.25,12.27-17.01,29.66,0,0-7,26.86-6.8,36.01,0,0-1.58,13.72-14.77,14.99,0,0-5.33,1.01-6.09,8.88,0,0-4.82,18.52-28.42,4.82,0,0-19.54-7.87-21.57-53.03,0,0,1.01-10.15-6.6-19.28,0,0-7.61-8.37-6.85-14.46,0,0,1.27-9.64-18.52-8.37l-47.99-2.7,18.3-26.74Z" fill="#f6991a"></path>
      <path d="M533.4,587.23c-4.45,0-9.65-1.71-15.52-5.12-.75-.29-19.79-8.47-21.82-53.44,.01-.17,.9-10.13-6.48-18.99-.3-.33-7.74-8.6-6.96-14.85,.01-.09,.24-2.19-1.67-4.22-1.89-2-6.24-4.24-16.33-3.6l-48.93-2.75,18.9-27.61,.16-.05c.06-.02,6.52-2.08,21.33-6.35,1.09-.44,27.83-10.97,31.8-2.78,.05,.11,.99,2.28,1.29,6.79,2.68-.16,14.87-.49,23.18,5.98,.13,.1,12.38,9.72,39.21,6.24,1.81-.46,45.81-11.36,55.85-5.26,.97,.59,1.61,1.32,1.93,2.19,6.07-.25,68.04-2.34,85.24,14.62l.08,.11c.04,.07,.24,.46-.06,.98-1.71,2.96-17.25,4.6-43.76,4.6l-50.08,.94c-3.34,.06-6.54,1.12-9.25,3.05-5.65,4.03-13.15,12.39-16.81,29.35-.07,.29-6.98,26.92-6.79,35.9-.02,.21-1.78,14.21-15.22,15.5-.16,.03-4.93,1.06-5.64,8.43-.08,.35-1.79,6.66-8.01,9.25-1.72,.72-3.6,1.07-5.63,1.07Zm-65.31-101.33c6.5,0,11.08,1.36,13.6,4.05,2.22,2.38,1.92,4.9,1.91,5-.72,5.79,6.65,13.98,6.72,14.06,7.67,9.21,6.77,19.25,6.72,19.67,1.99,44.17,21.07,52.44,21.26,52.52,8.33,4.83,15.15,6.18,20.32,4.03,5.76-2.4,7.41-8.45,7.43-8.51,.77-8.07,6.25-9.2,6.48-9.25,12.69-1.22,14.35-14.42,14.37-14.55-.2-9.05,6.52-34.98,6.81-36.08,3.73-17.25,11.41-25.81,17.2-29.94,2.87-2.05,6.27-3.17,9.81-3.24l50.09-.94c39.62,0,42.68-3.54,42.91-4.1-17.61-17.01-84.08-14.22-84.75-14.19l-.41,.02-.1-.4c-.19-.79-.71-1.43-1.6-1.97-9.69-5.89-54.69,5.27-55.14,5.38-27.36,3.55-39.52-6.03-40.02-6.44-8.86-6.89-22.84-5.74-22.98-5.73l-.52,.05-.03-.52c-.25-4.65-1.22-6.91-1.23-6.93-2.95-6.09-23.07,.32-30.57,3.31-13.54,3.91-20.1,5.96-21.18,6.3l-17.7,25.86,47.1,2.65c1.21-.08,2.37-.12,3.48-.12Z" fill="#231f20"></path>
    </g>
    <path d="M452.36,486c-.25,0-.41,0-.47,0-.28,0-.5-.23-.49-.51,0-.27,.23-.49,.5-.49,.02,0,.08,0,.26,0,2.45,0,21.54-.19,27.29-5.94,.32-.38,8.59-10.03,18.89-9.79,.28,0,.49,.24,.49,.51,0,.28-.19,.48-.51,.49-.12,0-.25,0-.37,0-9.63,0-17.68,9.37-17.76,9.47-6,6-24.55,6.27-27.83,6.27Z" fill="#231f20"></path>
    <path d="M462.81,468.24c-.14,0-.27-.06-.37-.16-.19-.2-.17-.52,.03-.71,.34-.3,8.33-7.48,17.01-8.75,.09,0,4.51-.31,8.88-4.19,.2-.18,.52-.17,.71,.04,.18,.21,.16,.52-.04,.71-4.64,4.13-9.25,4.43-9.44,4.44-8.33,1.23-16.36,8.43-16.44,8.5-.1,.09-.22,.13-.34,.13Z" fill="#231f20"></path>
    <path d="M555.76,485.51c-1.51,0-2.58-.23-3.22-.69-.5-.36-.64-.79-.67-1.08-.02-.21-.05-.42-.12-.6-2.25-5.77-16.91-3.52-17.05-3.49-.27,.04-.53-.14-.57-.42-.04-.27,.14-.53,.42-.57,.64-.1,15.6-2.4,18.14,4.12,.12,.29,.16,.59,.18,.87,.01,.12,.1,.25,.26,.36,.57,.41,2.8,1.17,11.07-.78,.15-.05,18.22-5.59,30.61-4.32,.27,.03,.47,.27,.45,.55-.03,.28-.28,.47-.55,.45-12.19-1.25-30.07,4.24-30.25,4.29-3.71,.87-6.62,1.31-8.7,1.31Z" fill="#231f20"></path>
    <path d="M494.58,518.11c-.27,0-.49-.22-.5-.49,0-.14-.23-14.11,6.37-25.02,.14-.24,.45-.31,.69-.17,.24,.14,.31,.45,.17,.69-6.45,10.66-6.23,24.34-6.22,24.48,0,.28-.21,.5-.49,.51h-.01Z" fill="#231f20"></path>
    <path d="M681.79,479.91c-.12,0-.24-.04-.33-.12-4.05-3.58-15.4-.19-15.51-.15-.13,.04-.27,.02-.38-.04-.12-.06-.2-.17-.24-.3l-.65-2.18h-20.94c-.28,0-.5-.22-.5-.5s.22-.5,.5-.5h21.31c.22,0,.42,.15,.48,.36l.62,2.06c2.3-.64,11.97-3.04,15.98,.5,.21,.18,.23,.5,.04,.71-.1,.11-.24,.17-.38,.17Z" fill="#231f20"></path>
    <g>
      <path d="M421.94,482.25c-1.73,.75-3.52,1.26-5.35,1.54-13.95,2.19-29.9-8.7-37.65-26.7-8.77-20.35-3.72-42.08,11.26-48.53,14.98-6.45,34.23,4.81,43,25.16,8.77,20.35,3.73,42.08-11.26,48.53Z" fill="#6ac5cd"></path>
      <path d="M412.97,484.57c-13.38,0-27.43-10.9-34.49-27.28-8.86-20.57-3.69-42.63,11.52-49.19,15.22-6.55,34.8,4.85,43.66,25.42,4.28,9.94,5.46,20.52,3.31,29.79-2.16,9.32-7.43,16.21-14.82,19.4h0c-1.75,.75-3.59,1.28-5.47,1.58-1.22,.19-2.46,.29-3.7,.29Zm-13.83-77.32c-3,0-5.95,.57-8.74,1.77-14.71,6.34-19.64,27.81-11,47.87,7.53,17.49,23.13,28.6,37.11,26.4,1.8-.28,3.56-.79,5.23-1.5h0c7.1-3.06,12.16-9.7,14.25-18.71,2.1-9.06,.95-19.42-3.25-29.17-7-16.25-20.8-26.67-33.61-26.67Z" fill="#231f20"></path>
    </g>
    <g>
      <path d="M416.6,483.82c-6,1.96-11.32,2.88-14.96,3.32-5.67,.68-11.44-.4-16.41-3.21-8.93-5.05-13.41-13.46-13.41-13.46l-4.92-51.95,23.3-9.95c-14.98,6.46-20.02,28.18-11.26,48.53,7.75,18,23.7,28.88,37.65,26.7v.03Z" fill="#6ac5cd"></path>
      <path d="M398.38,487.83c-4.71,0-9.37-1.19-13.39-3.47-8.96-5.07-13.42-13.31-13.61-13.66l-.06-.19-4.95-52.32,23.63-10.1,.39,.92c-14.71,6.34-19.64,27.81-11,47.87,7.53,17.49,23.13,28.6,37.11,26.4l.42-.07,.28,.88-.46,.18c-6.14,2-11.58,2.92-15.06,3.34-1.1,.13-2.21,.2-3.32,.2Zm-26.07-17.52c.5,.89,4.95,8.53,13.17,13.18,4.78,2.7,10.5,3.82,16.1,3.15,2.63-.32,6.41-.93,10.75-2.08-13.19-.34-26.9-11.15-33.85-27.27-7.65-17.77-4.84-36.65,5.87-45.69l-16.92,7.23,4.87,51.49Z" fill="#231f20"></path>
    </g>
    <path d="M407.24,476.36c-.09,0-.19-.03-.27-.08-.23-.15-.3-.46-.15-.69,.06-.1,6.16-9.83,2.23-20.88l-4.54-8.3c-.13-.24-.04-.55,.2-.68s.55-.04,.68,.2l4.57,8.37c4.13,11.59-2.24,21.72-2.3,21.82-.1,.15-.26,.23-.42,.23Z" fill="#231f20"></path>
    <path d="M405.47,443.63h0c-.28,0-.5-.23-.49-.51,.25-19.75-13.06-27.65-13.2-27.73-.24-.14-.32-.44-.18-.68,.14-.24,.44-.32,.68-.18,.14,.08,13.95,8.25,13.7,28.61,0,.27-.23,.49-.5,.49Z" fill="#231f20"></path>
    <path d="M381.61,446.16c-.18,0-.36-.1-.45-.28-.12-.25-.02-.55,.23-.67l9.15-4.48c1.88-.92,4.11-.9,5.97,.06l7.65,3.92c.25,.13,.34,.43,.22,.67-.13,.25-.43,.34-.67,.22l-7.65-3.92c-1.58-.81-3.48-.83-5.08-.05l-9.15,4.48c-.07,.03-.15,.05-.22,.05Z" fill="#231f20"></path>
    <path d="M406.23,443.63c-.08,0-.15-.02-.22-.05-.25-.12-.35-.42-.22-.67,2.55-5.1,8-10.09,8.23-10.3,.2-.18,.52-.17,.71,.03,.19,.2,.17,.52-.03,.71-.05,.05-5.54,5.07-8.01,10-.09,.18-.26,.28-.45,.28Z" fill="#231f20"></path>
    <path d="M426.78,449.97c-.14,0-.28-.06-.38-.17-6.08-7.05-18.93-4.43-19.06-4.4-.27,.06-.54-.11-.59-.39-.06-.27,.12-.54,.39-.59,.55-.12,13.56-2.77,20.02,4.73,.18,.21,.16,.52-.05,.71-.09,.08-.21,.12-.33,.12Z" fill="#231f20"></path>
    <g>
      <path d="M755.32,540.7c-.08,.56-.24,1.47-.55,2.66-.23,.87-.54,1.89-.97,3.04-.72,1.95-1.77,4.28-3.28,6.85h-249.14v58.24c-3.31,.1-6.69,.19-10.15,.28v-67.65l264.09-3.42Z" fill="#231f20"></path>
      <path d="M490.73,612.28v-68.65l265.16-3.43-.08,.58c-.08,.57-.24,1.51-.56,2.72-.26,1-.59,2.04-.98,3.09-.84,2.29-1.96,4.62-3.32,6.93l-.14,.25h-248.93v58.22h-.49c-3.31,.11-6.69,.2-10.15,.29h-.51Zm1-67.65v66.64c3.11-.08,6.16-.16,9.15-.25v-58.25h249.35c1.26-2.18,2.31-4.37,3.1-6.52,.38-1.02,.7-2.03,.95-3,.22-.82,.36-1.5,.45-2.02l-263,3.41Z" fill="#231f20"></path>
    </g>
    <g>
      <rect x="514.32" y="522.55" width="81.7" height="10.15" fill="#fff"></rect>
      <path d="M596.52,533.2h-82.7v-11.15h82.7v11.15Zm-81.7-1h80.7v-9.15h-80.7v9.15Z" fill="#231f20"></path>
    </g>
    <g>
      <rect x="523.96" y="512.4" width="81.2" height="10.15" fill="#abb4c9"></rect>
      <path d="M605.66,523.05h-82.2v-11.15h82.2v11.15Zm-81.2-1h80.2v-9.15h-80.2v9.15Z" fill="#231f20"></path>
    </g>
    <path d="M537.16,523.1c-.28,0-.5-.22-.5-.5v-10.2c0-.28,.22-.5,.5-.5s.5,.22,.5,.5v10.2c0,.28-.22,.5-.5,.5Z" fill="#231f20"></path>
    <path d="M541.72,523.1c-.28,0-.5-.22-.5-.5v-10.2c0-.28,.22-.5,.5-.5s.5,.22,.5,.5v10.2c0,.28-.22,.5-.5,.5Z" fill="#231f20"></path>
    <g>
      <path d="M337.39,566.44h16.85c5.57,0,10.19-4.29,10.62-9.84l10.08-125.48c.73-9.08-6.45-16.86-15.56-16.86h-27.75c-9.14,0-16.33,7.83-15.55,16.94l10.71,125.45c.45,5.53,5.06,9.79,10.61,9.79Z" fill="#6ac5cd"></path>
      <path d="M354.24,566.94h-16.85c-5.77,0-10.65-4.5-11.11-10.25l-10.71-125.45c-.38-4.48,1.14-8.95,4.19-12.27,3.04-3.31,7.37-5.21,11.87-5.21h27.75c4.48,0,8.8,1.89,11.84,5.18,3.04,3.29,4.58,7.75,4.22,12.22l-10.08,125.48c-.44,5.77-5.32,10.3-11.11,10.3Zm-22.61-152.18c-4.22,0-8.27,1.78-11.13,4.89-2.85,3.11-4.29,7.3-3.93,11.5l10.71,125.45c.42,5.23,4.86,9.33,10.11,9.33h16.85c5.27,0,9.72-4.12,10.12-9.38l10.08-125.48c.34-4.25-1.06-8.32-3.96-11.46-2.89-3.14-6.84-4.86-11.1-4.86h-27.75Z" fill="#231f20"></path>
    </g>
    <path d="M628.5,496.4c-.22,0-.42-.15-.48-.37l-10.91-40.09c-.07-.27,.08-.54,.35-.61,.27-.07,.54,.08,.61,.35l10.91,40.09c.07,.27-.08,.54-.35,.61-.04,.01-.09,.02-.13,.02Z" fill="#231f20"></path>
    <path d="M630.3,496.73c-.28,0-.5-.22-.5-.5v-55.64c0-.28,.22-.5,.5-.5s.5,.22,.5,.5v55.64c0,.28-.22,.5-.5,.5Z" fill="#231f20"></path>
    <g>
      <path d="M340.25,378.17s43.39-77.9,44.91-98.96c0,0-6.85-8.12-5.07-21.31,0,0,.76-7.87-2.28-16.24,0,0-3.55-8.88,.51-10.66,0,0,2.54-.51,6.34,2.79l.24-36.58c.01-1.93,2.26-3,3.74-1.78,2.06,1.69,4.15,5.94,3.89,16.29l8.53-23.47c.82-2.25,3.54-3.11,5.5-1.74h0c1.19,.83,1.77,2.28,1.49,3.69l-3.85,19.49,7.08-9.56c1.5-2.03,4.55-1.96,5.97,.12h0c.85,1.25,.84,2.9-.02,4.14l-9.88,14.27c-.07,.1-.1,.23-.09,.35,.1,.73,.45,3.43,.52,5.58,.02,.5,.67,.68,.93,.25l5.59-9.15c.96-1.57,3.08-1.95,4.53-.81h0c1.2,.95,1.52,2.64,.75,3.97l-2.88,4.92c-2.36,4.04-3.59,8.64-3.54,13.32,.13,14.78,.12,47.88-2.63,52.78l-36.28,122.3s-4.93,32.37-42.18,26.84l-22.53-24.3,30.7-36.54Z" fill="#f2b3c1"></path>
      <path d="M340.22,440.14c-2.55,0-5.28-.2-8.21-.64l-.17-.03-22.95-24.76,30.96-36.84c1.2-2.16,43.08-77.71,44.81-98.51-.98-1.25-6.73-9.14-5.06-21.54,0-.06,.71-7.84-2.26-16-.15-.37-3.67-9.34,.78-11.29l.1-.03c.1-.02,2.45-.45,5.95,2.23l.23-35.54c0-1.09,.63-2.06,1.62-2.53,.98-.46,2.11-.32,2.94,.36,2.58,2.13,3.95,6.76,4.08,13.8l7.55-20.76c.44-1.22,1.4-2.14,2.64-2.53,1.23-.39,2.55-.19,3.61,.55,1.35,.94,2.02,2.59,1.7,4.2l-3.42,17.31,5.76-7.77c.81-1.1,2.07-1.72,3.43-1.68,1.37,.03,2.59,.69,3.36,1.82,.96,1.41,.95,3.31-.02,4.71l-9.88,14.27c.1,.77,.45,3.47,.52,5.63l5.6-9.15c.53-.87,1.42-1.48,2.42-1.65,1.01-.18,2.04,.08,2.85,.71,1.39,1.1,1.77,3.08,.87,4.61l-2.88,4.92c-2.32,3.96-3.52,8.47-3.48,13.06,.16,17.66,.03,47.97-2.67,52.98l-36.27,122.25c-.03,.24-4.61,27.83-34.52,27.83Zm-7.89-1.6c36.13,5.27,41.23-25.15,41.43-26.45l36.31-122.42,.03-.05c2.7-4.82,2.7-38.35,2.57-52.54-.04-4.76,1.21-9.46,3.61-13.57l2.88-4.92c.64-1.1,.38-2.53-.63-3.32-.58-.46-1.32-.65-2.05-.51-.72,.13-1.36,.56-1.74,1.19l-5.59,9.15c-.23,.38-.67,.56-1.11,.45-.43-.11-.73-.49-.75-.94-.07-2.11-.41-4.77-.52-5.53-.04-.24,.02-.5,.17-.7l9.88-14.27c.74-1.07,.75-2.5,.02-3.58-.58-.86-1.51-1.36-2.55-1.38-1.01,0-1.99,.45-2.61,1.28l-8.4,11.34,4.28-21.67c.24-1.22-.26-2.47-1.29-3.19-.81-.56-1.81-.71-2.74-.42-.94,.3-1.67,1-2,1.92l-9.58,26.35,.08-3.07c.27-10.39-1.87-14.38-3.7-15.89-.54-.44-1.24-.53-1.88-.23-.64,.3-1.04,.92-1.05,1.63l-.24,37.67-.82-.71c-3.26-2.83-5.52-2.72-5.88-2.68-2.88,1.36-1.11,7.66-.18,9.99,3.05,8.4,2.35,16.15,2.32,16.47-1.73,12.82,4.89,20.86,4.96,20.94l.13,.16v.2c-1.53,20.93-43.21,95.98-44.99,99.17l-.05,.08-30.42,36.2,22.11,23.85Z" fill="#231f20"></path>
    </g>
    <path d="M393.03,256.37c-.15,0-.3-.07-.39-.19-1.83-2.35-3.09-8.57-3.14-8.84-1.69-11.13-5.03-13.08-5.06-13.1-.25-.12-.35-.42-.22-.67,.12-.25,.42-.35,.67-.22,.15,.08,3.8,2.03,5.6,13.82,0,.04,1.26,6.23,2.95,8.4,.17,.22,.13,.53-.09,.7-.09,.07-.2,.11-.31,.11Z" fill="#231f20"></path>
    <path d="M395.06,233.78c-.25,0-.47-.19-.5-.44l-2.54-21.57c-.03-.27,.16-.52,.44-.56,.27-.03,.52,.16,.55,.44l2.54,21.57c.03,.27-.16,.52-.44,.56-.02,0-.04,0-.06,0Z" fill="#231f20"></path>
    <path d="M402.93,224.65s-.03,0-.04,0c-.27-.02-.48-.27-.45-.54l1.27-14.46c.02-.27,.27-.48,.54-.45,.27,.02,.48,.27,.45,.54l-1.27,14.46c-.02,.26-.24,.46-.5,.46Z" fill="#231f20"></path>
    <g>
      <rect x="125.97" y="204.99" width="26.39" height="39.84" fill="#231f20"></rect>
      <path d="M152.86,245.33h-27.39v-40.84h27.39v40.84Zm-26.39-1h25.39v-38.84h-25.39v38.84Z" fill="#231f20"></path>
    </g>
    <g>
      <path d="M56.06,416.99s15.22,5.07,25.12-22.58l8.07-33.94s5.13-11.23,8.04-16.93l106.7,45.29s18.57-11.2,4.34-27.55c0,0-.21-.51-2.4-3.61,0,0,14.55-5.38,37.14,2.23,0,0,54.05,18.27,97.18,18.27,0,0,11.16,51-12.43,64.2l-56.58-8.12s5.84,14.97-6.09,51.26c0,0-4.06,12.43-6.34,28.67,0,0,1.27,10.66-6.85,12.94,0,0,.76,4.57,3.81,10.4,0,0,5.07,10.4-1.52,18.78,0,0-2.03,3.04,2.03,10.66,0,0,11.93,24.36-16.75,22.84,0,0-39.33-4.57-71.55-18.78,0,0-39.58-18.02-65.97-9.39,0,0-8.37,1.78-6.85-8.63,0,0,1.01-12.43,5.07-25.37,0,0,3.04-9.64-2.03-25.37,0,0-7.02-26.33-14.58-43.59-.09-.19-.18-.38-.3-.56-.79-1.26-4.17-6.93-3.44-11.07,.2-1.15-.09-2.34-.78-3.28-1.84-2.52-4.7-7.47-2.72-11.78,0,0,1.85-2.78-1.09-4.54-.82-.49-1.75-.75-2.71-.82-2.41-.17-10.16-1.37-16.51-9.62Z" fill="#abb4c9"></path>
      <path d="M242.01,590.36c-.81,0-1.65-.02-2.51-.07-.43-.05-39.81-4.74-71.73-18.82-.4-.18-39.71-17.84-65.62-9.37-.19,.04-3.55,.72-5.79-1.38-1.66-1.56-2.24-4.18-1.71-7.79,0-.09,1.06-12.61,5.09-25.45,.03-.1,2.93-9.7-2.03-25.07-.08-.29-7.11-26.52-14.57-43.55-.08-.17-.16-.33-.26-.49-1.01-1.61-4.26-7.18-3.51-11.42,.18-1-.08-2.06-.69-2.9-1.93-2.64-4.85-7.75-2.77-12.29,.04-.08,.73-1.13,.47-2.23-.15-.65-.61-1.21-1.36-1.67-.71-.43-1.57-.69-2.48-.75-2.31-.16-10.36-1.35-16.87-9.81l-.99-1.29,1.54,.51c.15,.05,14.89,4.55,24.49-22.28l8.05-33.89c.08-.2,5.2-11.39,8.08-17.05l.21-.41,.43,.18,106.46,45.19c1.28-.84,7.98-5.55,9.09-12.67,.72-4.58-.99-9.29-5.09-13.99l-.09-.14s-.29-.6-2.34-3.5l-.38-.53,.61-.23c.15-.06,14.98-5.36,37.47,2.22,.54,.18,54.46,18.24,97.02,18.24h.4l.09,.39c.46,2.1,10.97,51.52-12.68,64.74l-.15,.08-.17-.02-55.79-8.01c1.02,3.54,4.15,18.9-6.34,50.8-.04,.12-4.06,12.55-6.31,28.53,.09,.92,.83,10.76-6.78,13.28,.27,1.26,1.23,5.15,3.67,9.83,.06,.12,5.14,10.8-1.57,19.32h0s-1.74,2.94,2.08,10.11c.22,.45,5.18,10.77,.59,17.71-2.61,3.94-7.74,5.93-15.29,5.93Zm-123.75-31.55c23.74,0,49.59,11.61,49.91,11.75,31.78,14.01,71.01,18.69,71.41,18.74,8.51,.45,14.21-1.37,16.88-5.41,4.28-6.46-.59-16.6-.64-16.71-4.15-7.77-2.09-11.02-2-11.15,6.35-8.07,1.54-18.18,1.49-18.28-3.04-5.83-3.82-10.35-3.85-10.54l-.07-.44,.43-.12c7.61-2.14,6.5-12.3,6.49-12.4v-.06s0-.06,0-.06c2.26-16.1,6.32-28.63,6.36-28.76,11.71-35.63,6.16-50.77,6.1-50.92l-.31-.8,57.26,8.22c21.74-12.38,13.08-58.43,12.12-63.18-42.66-.11-96.4-18.11-96.94-18.3-19.55-6.59-33.16-3.32-36.18-2.43,1.46,2.09,1.89,2.82,2.02,3.06,4.27,4.92,6.04,9.89,5.28,14.76-1.3,8.3-9.43,13.29-9.78,13.5l-.22,.13-.24-.1-106.27-45.11c-2.91,5.75-7.77,16.39-7.82,16.5l-8.04,33.85c-8.21,22.96-20.29,23.69-24.36,23.21,6.08,7.18,13.19,8.22,15.3,8.37,1.07,.07,2.08,.38,2.93,.89,1,.6,1.62,1.38,1.83,2.31,.34,1.52-.54,2.87-.58,2.93-1.83,4,.91,8.75,2.71,11.21,.78,1.06,1.09,2.4,.87,3.67-.7,3.98,2.69,9.62,3.37,10.71,.13,.2,.24,.41,.33,.62,7.49,17.1,14.54,43.4,14.61,43.67,5.06,15.68,2.15,25.25,2.02,25.65-3.99,12.73-5.04,25.14-5.05,25.26-.48,3.3-.01,5.62,1.39,6.94,1.86,1.75,4.83,1.16,4.86,1.15,5.08-1.66,10.67-2.33,16.37-2.33Z" fill="#231f20"></path>
    </g>
    <g>
      <path d="M197.14,313.97s-2.39,14.86,3.48,32.39c1.79,5.33,4.44,10.33,7.71,14.91,4.21,5.89,11.14,15.88-4.34,27.55,0,0,4.82-19.54-15.18-35.53-2.91-2.32-6.1-4.27-9.39-6-7.87-4.13-30.11-15.94-33.03-18.86,0,0,6.05-18.05,6.83-27.8l43.92,13.34Z" fill="#f2b3c1"></path>
      <path d="M203.18,390.07l.33-1.36c.05-.19,4.5-19.43-15.01-35.02-2.58-2.07-5.63-4.01-9.31-5.94-9-4.73-30.23-16.03-33.15-18.95l-.22-.22,.1-.29c.06-.18,6.04-18.11,6.81-27.68l.05-.62,44.93,13.65-.07,.43c-.02,.15-2.3,14.96,3.46,32.16,1.71,5.11,4.28,10.08,7.64,14.78,4.04,5.65,11.57,16.17-4.44,28.24l-1.12,.85Zm-56.2-61.78c3.69,3.23,25.85,14.98,32.69,18.57,3.74,1.96,6.83,3.94,9.47,6.05,17.05,13.63,16.23,30.04,15.58,34.74,13.9-11.14,7.24-20.45,3.22-26.07-3.42-4.78-6.04-9.84-7.78-15.04-5.29-15.79-3.89-29.61-3.56-32.2l-42.92-13.04c-.9,9.1-5.92,24.63-6.7,27Z" fill="#231f20"></path>
    </g>
    <g>
      <path d="M197.14,313.97s-2.16,11.73,2.03,27.66c0,0-16.24,5.87-49.35-24.85,0,0,3.13-11.98,3.41-16.15l43.92,13.34Z" fill="#231f20"></path>
      <path d="M195.32,342.61c-6.71,0-21.84-3.2-45.84-25.46l-.22-.2,.08-.29c.03-.12,3.12-11.98,3.39-16.06l.04-.63,44.95,13.65-.08,.44c-.02,.12-2.08,11.81,2.02,27.44l.12,.44-.43,.16c-.18,.07-1.52,.51-4.02,.51Zm-44.94-25.99c29.34,27.14,45.39,25.26,48.18,24.66-3.56-13.91-2.31-24.68-1.98-26.95l-42.91-13.04c-.45,4.23-2.82,13.53-3.29,15.33Z" fill="#231f20"></path>
    </g>
    <g>
      <rect x="139.98" y="205.93" width="85.39" height="113.41" rx="42.7" ry="42.7" transform="translate(-59.51 53.61) rotate(-14.38)" fill="#f2b3c1"></rect>
      <path d="M186.17,319.4c-19.25,0-36.85-12.98-41.85-32.47l-6.96-27.14c-5.92-23.07,8.04-46.66,31.11-52.57,23.07-5.91,46.66,8.04,52.57,31.11l6.96,27.14c2.87,11.18,1.21,22.8-4.67,32.73-5.88,9.93-15.27,16.98-26.45,19.84-3.58,.92-7.18,1.36-10.72,1.36Zm-6.97-112.54c-3.46,0-6.97,.43-10.48,1.33-22.54,5.78-36.17,28.82-30.39,51.36l6.96,27.14c5.78,22.54,28.82,36.17,51.36,30.39,10.92-2.8,20.09-9.68,25.83-19.38,5.74-9.7,7.36-21.05,4.56-31.97l-6.96-27.14c-4.88-19.04-22.07-31.72-40.88-31.72Z" fill="#231f20"></path>
    </g>
    <g>
      <path d="M250.94,226.94s.51,4.31,0,7.87c0,0-2.79-5.58-26.9-4.31,0,0-26.14,.76-33.49,7.87l-21.06,8.37-9.64-7.36-6.34-35.78,9.13-12.18,15.48,4.82,69.02,26.39,3.81,4.31Z" fill="#fff"></path>
      <path d="M169.41,247.3l-10.02-7.65-6.42-36.18,9.48-12.64,15.82,4.93,69.16,26.44,3.99,4.52,.02,.16c.02,.18,.51,4.42,0,8l-.23,1.58-.72-1.43s-3.2-5.26-26.42-4.04c-.27,0-26.04,.84-33.17,7.73l-.16,.1-21.32,8.48Zm-9.11-8.21l9.26,7.07,20.71-8.23c7.5-7.09,32.68-7.91,33.75-7.94,18.44-.97,24.6,2.08,26.54,3.68,.25-2.82-.03-5.82-.11-6.52l-3.62-4.1-68.9-26.35-15.11-4.71-8.79,11.72,6.27,35.37Z" fill="#231f20"></path>
    </g>
    <g>
      <path d="M250.99,236.19c-.81,3.88-4.91,15.04-25.41,21.8l-2.83-11.02s-5.81-2.08-28.87,7.8c-1.79,.77-3.54,1.62-5.26,2.55-6.8,3.68-28.18,14.7-44.68,17.27l-4.19-16.58,29.73-11.27,21.06-8.37s2.79-4.06,19.28-6.6c0,0,19.21-2.5,30.03-1,.15,.21,6.54,.44,10.22,3.08,.74,.53,1.09,1.46,.91,2.35Z" fill="#6ac5cd"></path>
      <path d="M143.58,275.15l-4.41-17.46,30.15-11.43,20.93-8.32c.64-.75,4.45-4.36,19.51-6.68,.21-.03,19.42-2.49,30.18-1l.25,.07c.16,.03,.46,.07,.74,.11,1.95,.27,6.52,.89,9.45,2.99,.9,.65,1.33,1.77,1.11,2.86h0c-.92,4.42-5.28,15.43-25.74,22.17l-.51,.17-2.88-11.24c-1.31-.22-8.28-.73-28.27,7.85-1.74,.75-3.5,1.6-5.22,2.53-6.3,3.41-28.15,14.72-44.84,17.32l-.45,.07Zm-3.23-16.84l3.97,15.71c16.47-2.71,37.86-13.79,44.06-17.14,1.75-.94,3.53-1.81,5.3-2.57,22.97-9.85,28.99-7.91,29.24-7.82l.25,.09,2.76,10.76c19.53-6.59,23.69-17.04,24.57-21.25,.15-.7-.13-1.43-.71-1.84-2.73-1.96-7.13-2.55-9.01-2.81-.61-.08-.91-.12-1.09-.19-10.65-1.45-29.61,.99-29.8,1.01-15.92,2.45-18.91,6.35-18.94,6.39l-.08,.12-.14,.06-21.06,8.37-29.32,11.12Z" fill="#231f20"></path>
    </g>
    <g>
      <path d="M135.99,239.88l-1.01-15.22s-.51-4.06-1.78-4.82c0,0,1.52-5.33,4.82-7.87l-2.54-4.14s-4.81-.18-5.57,.08-5.33,12.43-5.33,12.43l5.58,25.12,5.84-5.58Z" fill="#fff"></path>
      <path d="M129.86,246.44l-5.81-26.13,.05-.14c4.65-12.4,5.39-12.65,5.64-12.73,.81-.27,4.93-.13,5.75-.1h.27s2.92,4.76,2.92,4.76l-.36,.27c-2.68,2.06-4.17,6.14-4.55,7.29,1.17,1.15,1.61,4.27,1.69,4.93l1.03,15.49-6.65,6.36Zm-4.77-26.06l5.36,24.11,5.03-4.81-1-14.99c-.2-1.56-.8-3.99-1.53-4.43l-.33-.2,.11-.37c.06-.22,1.5-5.15,4.65-7.84l-2.17-3.54c-2.14-.07-4.49-.07-5.06,.04-.66,.8-3.3,7.4-5.04,12.01Z" fill="#231f20"></path>
    </g>
    <g>
      <path d="M169.74,184.57h59.88s10.4-1.01,16.24,12.94c0,0,2.74,9.07,3.02,15.57l-79.83-24.39,.69-4.12Z" fill="#fff"></path>
      <path d="M249.41,213.76l-80.92-24.73,.83-4.97h60.31c.07,0,10.79-.89,16.7,13.25,.04,.14,2.77,9.25,3.06,15.74l.03,.71Zm-79.79-25.43l78.72,24.05c-.43-6.3-2.93-14.65-2.96-14.74-5.59-13.37-15.31-12.62-15.71-12.59h-59.51s-.55,3.27-.55,3.27Z" fill="#231f20"></path>
    </g>
    <g>
      <path d="M146.14,183.04s-3.04-31.72-44.4-31.46c0,0-47.7-7.87-68.26,49.48,0,0-6.6,20.55,10.4,39.84,0,0,14.21,11.93,8.88,21.82,0,0-4.82,6.6-15.22,7.87,0,0-27.71,10.55-10.7,34.25,3.13,4.36,7.07,8.07,11.54,11.03l10.73,7.11,62.97-60.48s-3.51-15.51-4.27-23.63c0,0-1.52-17.76,9.13-21.82,0,0,5.58-23.09,29.18-34Z" fill="#231f20"></path>
      <path d="M49.18,323.62l-11.07-7.33c-4.63-3.07-8.56-6.82-11.67-11.16-5.07-7.06-6.72-13.68-4.91-19.69,3.12-10.38,15.32-15.12,15.84-15.32l.12-.03c10.05-1.23,14.83-7.6,14.88-7.67,5.04-9.36-8.66-21.03-8.8-21.14-17.05-19.33-10.62-40.17-10.56-40.37,10.69-29.82,28.82-41.78,42.14-46.56,14.45-5.19,26.55-3.28,26.67-3.26,.17,0,.34,0,.5,0,40.79,0,44.29,31.59,44.32,31.91l.03,.35-.32,.15c-23.09,10.68-28.85,33.44-28.9,33.67l-.06,.26-.25,.09c-10.18,3.88-8.83,21.14-8.81,21.31,.75,7.99,4.22,23.41,4.26,23.56l.06,.28-.2,.2-63.26,60.76Zm-11.52-52.55c-.89,.35-12.31,5.09-15.18,14.66-1.71,5.69-.11,12.02,4.77,18.81,3.04,4.24,6.88,7.91,11.41,10.91l10.4,6.89,62.48-60.01c-.47-2.12-3.51-15.96-4.21-23.42-.06-.74-1.41-17.93,9.21-22.24,.71-2.56,7.12-23.6,29.05-33.93-.5-3.41-5.74-30.67-43.38-30.67-.16,0-.32,0-.48,0-.2-.03-12.09-1.89-26.3,3.22-13.11,4.72-30.95,16.51-41.49,45.93-.06,.19-6.3,20.5,10.31,39.34,.54,.45,14.41,12.25,8.95,22.39-.24,.33-5.09,6.82-15.54,8.12Z" fill="#231f20"></path>
    </g>
    <g>
      <path d="M143.36,278.63s10.61,9.17,9.87,22c0,0-1.5,10.3-6.83,27.8,0,0,15.31,10.06,33.03,18.86,0,0,28.12,12.1,24.57,41.53,0,0-2.29,16.27-17.98,25.95-1.88,1.16-2.58,3.57-1.55,5.53,.93,1.77,2.66,4.08,5.83,6.84,0,0,29.43,25.63-9.39,55.32,0,0-14.97,10.66-36.03,5.84,0,0,14.72-9.13,9.39-19.54,0,0-2.28-6.34-12.94-5.07,0,0-32.99-3.55-30.7-24.36,0,0,0-6.85,11.16-24.36,0,0,13.19-21.57,2.03-42.37,0,0-11.93-17.51-26.52-29.05,0,0-3.93-21.95-.13-24.23,3.81-2.28,19.03-39.33,20.3-39.33s25.89-1.34,25.89-1.34Z" fill="#231f20"></path>
      <path d="M155.76,490.03c-3.43,0-7.11-.36-11-1.25l-1.18-.27,1.03-.64c.14-.09,14.26-9.01,9.21-18.89-.11-.3-2.34-6.01-12.44-4.81h-.06s-.06,0-.06,0c-.79-.08-19.36-2.19-27.54-12.36-2.91-3.62-4.12-7.84-3.61-12.55,0-.23,.12-7.14,11.24-24.57,.13-.21,12.91-21.56,2.01-41.87-.09-.13-12.03-17.53-26.39-28.9l-.15-.12-.03-.19c-.41-2.28-3.88-22.36,.11-24.75,2.13-1.28,8.64-15.39,13.4-25.69,5.86-12.7,6.45-13.71,7.16-13.71,1.24,0,25.62-1.32,25.86-1.34h.2s.15,.12,.15,.12c.11,.09,10.79,9.48,10.04,22.41-.02,.15-1.55,10.43-6.74,27.56,2.27,1.47,16.55,10.63,32.66,18.63,.26,.11,28.4,12.57,24.84,42.04-.02,.17-2.51,16.63-18.22,26.31-1.66,1.03-2.27,3.16-1.37,4.87,1.11,2.1,3.03,4.36,5.72,6.7,.11,.1,11.3,10.01,10.85,24.45-.35,10.98-7.17,21.62-20.26,31.64-.13,.1-10.3,7.18-25.45,7.18Zm-9.65-1.98c20.02,4.1,34.36-5.9,34.5-6,12.83-9.81,19.51-20.19,19.85-30.85,.45-13.96-10.39-23.58-10.5-23.68-2.78-2.42-4.78-4.77-5.95-6.99-1.14-2.17-.38-4.88,1.73-6.19,15.32-9.44,17.73-25.43,17.75-25.59,3.46-28.7-24-40.88-24.27-41-17.57-8.72-32.95-18.8-33.11-18.9l-.31-.21,.11-.36c5.25-17.26,6.8-27.63,6.81-27.73,.67-11.57-8.29-20.25-9.55-21.42-2.47,.13-23.23,1.26-25.55,1.32-.75,.86-3.62,7.1-6.41,13.14-6.45,13.99-11.57,24.79-13.79,26.13-2.54,1.52-1.16,15.16,.33,23.53,14.42,11.46,26.35,28.87,26.47,29.05,11.2,20.86-1.88,42.7-2.02,42.92-10.91,17.11-11.09,24.03-11.09,24.1-.49,4.48,.65,8.46,3.39,11.87,7.71,9.59,25.68,11.85,26.81,11.99,10.87-1.27,13.31,5.13,13.41,5.41,4.62,9.01-5.37,17.13-8.62,19.46Z" fill="#231f20"></path>
    </g>
    <path d="M175.07,537c-.14,0-.28-.06-.38-.18-.18-.21-.15-.53,.06-.7,11.78-9.94,30.13-10.8,40.02-10.43,3,.11,6.1,.53,9.2,1.25,23.93,5.54,27.52-.01,27.55-.07,.14-.23,.44-.32,.68-.19,.24,.13,.33,.43,.2,.67-.14,.26-3.73,6.33-28.66,.56-3.04-.7-6.07-1.12-9.01-1.23-9.75-.36-27.81,.48-39.33,10.2-.09,.08-.21,.12-.32,.12Z" fill="#231f20"></path>
    <path d="M271.24,434.75c-.2,0-.38-.12-.46-.31-3.01-7.32-9.91-16.72-15.16-23.32-3.22-4.05-6.98-8.09-11.16-11.99-11.84-11.06-23.27-30.91-23.39-31.11-.14-.24-.05-.54,.18-.68,.24-.14,.54-.06,.68,.19,.11,.2,11.47,19.92,23.2,30.88,4.21,3.94,8,8.01,11.26,12.1,5.29,6.65,12.24,16.13,15.3,23.56,.11,.26-.02,.55-.27,.65-.06,.03-.13,.04-.19,.04Z" fill="#231f20"></path>
    <g>
      <rect x="512.54" y="147.52" width="211.11" height="190.81" fill="#fff"></rect>
      <path d="M724.16,338.83h-212.11V147.02h212.11v191.81Zm-211.11-1h210.11V148.02h-210.11v189.81Z" fill="#231f20"></path>
    </g>
    <g>
      <rect x="551.62" y="181.27" width="131.94" height="124.59" fill="#abb4c9"></rect>
      <path d="M684.07,306.35h-132.95v-125.59h132.95v125.59Zm-131.95-1h130.95v-123.59h-130.95v123.59Z" fill="#231f20"></path>
    </g>
    <g>
      <circle cx="583.08" cy="204.48" r="24.87" fill="#fff"></circle>
      <path d="M583.08,229.85c-13.99,0-25.37-11.38-25.37-25.37s11.38-25.37,25.37-25.37,25.37,11.38,25.37,25.37-11.38,25.37-25.37,25.37Zm0-49.73c-13.44,0-24.37,10.93-24.37,24.37s10.93,24.37,24.37,24.37,24.37-10.93,24.37-24.37-10.93-24.37-24.37-24.37Z" fill="#231f20"></path>
    </g>
    <g>
      <path d="M575.89,176.92V109.29c0-.64,.52-1.16,1.16-1.16h3.03v-4.5c0-.49,.4-.89,.89-.89h3.61c.49,0,.89,.4,.89,.89v4.8h2.73c.64,0,1.16,.52,1.16,1.16v67.33h3.89v5.99h-21.27v-5.99h3.89Z" fill="#231f20"></path>
      <path d="M593.77,183.41h-22.27v-6.99h3.89V109.29c0-.92,.75-1.66,1.66-1.66h2.53v-4c0-.77,.62-1.39,1.39-1.39h3.61c.77,0,1.39,.62,1.39,1.39v4.3h2.23c.92,0,1.66,.75,1.66,1.66v66.83h3.9v6.99Zm-21.27-1h20.27v-4.99h-3.9V109.59c0-.37-.3-.66-.66-.66h-3.23v-5.3c0-.21-.17-.39-.39-.39h-3.61c-.21,0-.39,.17-.39,.39v5h-3.53c-.37,0-.66,.3-.66,.66v68.13h-3.89v4.99Z" fill="#231f20"></path>
    </g>
    <path d="M638.15,175.7c-.28,0-.5-.22-.5-.5V87.64c0-.28,.22-.5,.5-.5s.5,.22,.5,.5v87.56c0,.28-.22,.5-.5,.5Z" fill="#231f20"></path>
    <path d="M582.83,102.85c-.28,0-.5-.22-.5-.5v-26.14c0-.28,.22-.5,.5-.5s.5,.22,.5,.5v26.14c0,.28-.22,.5-.5,.5Z" fill="#231f20"></path>
    <path d="M551.14,267.18c-.13,0-.27-.05-.36-.16-.19-.2-.18-.52,.02-.71,.17-.16,17.01-15.57,53.59-12.4,2.84,.25,5.74,.65,8.62,1.2,8.64,1.64,38.22,5.95,55.99-7.59,8.13-6.19,12.74-15.38,13.71-27.3,.02-.27,.26-.47,.54-.46,.28,.02,.48,.26,.46,.54-.99,12.21-5.74,21.64-14.1,28.01-18.11,13.79-48.04,9.44-56.79,7.78-2.85-.54-5.71-.94-8.52-1.18-36.16-3.13-52.66,11.98-52.82,12.13-.1,.09-.22,.14-.34,.14Z" fill="#231f20"></path>
    <g>
      <path d="M167.85,186.35c-3.5,.45-5.61,4.12-4.27,7.38l14.27,34.73s1.52,4.82,12.69,.51c0,0,31.72-10.91,60.39-2.03,0,0-1.52-23.34-11.67-35.02,0,0-2.28-5.58-18.52-5.07l-52.78-.51s-.04,0-.11,.01Z" fill="#abb4c9"></path>
      <path d="M182.72,231.27c-1.3,0-2.42-.22-3.34-.67-1.6-.77-1.98-1.94-2-1.99l-14.26-34.69c-.7-1.71-.57-3.61,.36-5.2,.92-1.59,2.49-2.63,4.31-2.86h0s0,0,0,0h.13s52.83,.49,52.83,.49c15.47-.48,18.57,4.55,18.94,5.3,10.1,11.68,11.73,35.02,11.75,35.26l.05,.73-.69-.21c-28.18-8.73-59.76,1.92-60.08,2.03-3.15,1.22-5.83,1.83-7.99,1.83Zm-14.76-44.43h-.04c-1.5,.2-2.81,1.07-3.57,2.38-.77,1.33-.88,2.9-.3,4.32l14.27,34.73c.02,.07,.32,.89,1.54,1.46,1.52,.71,4.58,1.07,10.5-1.22,.33-.12,31.69-10.69,60.01-2.26-.36-4.02-2.57-23.73-11.49-34l-.09-.14s-2.48-5.25-18.04-4.76l-52.8-.51Z" fill="#231f20"></path>
    </g>
    <g>
      <path d="M157.56,179.24s-30.2,4.57-40.6,37.81c0,0-7.79,1.6-9.02,15.79-.26,2.99-.14,5.99,.28,8.96,.69,4.81,2.17,14.45,3.86,20.7l20.6-19.36-1.27-14.68s-.51-6.85-3.04-8.12c0,0,4.57-10.4,8.88-14.72l21.31-22.33-1.01-4.06Z" fill="#6ac5cd"></path>
      <path d="M111.83,263.43l-.22-.8c-1.68-6.2-3.15-15.67-3.88-20.76-.44-3.1-.54-6.16-.29-9.08,1.12-13.01,7.63-15.71,9.12-16.16,10.45-32.92,40.61-37.84,40.92-37.89l.45-.07,1.19,4.77-21.5,22.53c-3.73,3.73-7.73,12.25-8.61,14.18,2.36,1.76,2.86,7.58,2.91,8.27l1.29,14.91-.18,.17-21.2,19.93Zm45.36-83.62c-3.77,.75-30.25,7.03-39.75,37.38l-.09,.28-.29,.06c-.07,.02-7.45,1.74-8.62,15.35-.25,2.85-.15,5.82,.28,8.85,.69,4.85,2.06,13.69,3.64,19.83l19.81-18.62-1.25-14.44c-.14-1.83-.9-6.78-2.77-7.72l-.43-.21,.19-.44c.19-.43,4.66-10.54,8.99-14.87l21.12-22.12-.83-3.34Z" fill="#231f20"></path>
    </g>
    <g>
      <path d="M159.12,202.03l13.67-18.22s3.3-5.33-.76-7.61c0,0,3.04-6.6-2.28-5.07l-26.05,18.38c-1.51,1.07-2.53,2.7-2.81,4.53l-.82,5.26s-7.87,2.03-5.58,9.39l7.36,25.63-93.12,89.06s-14.21,10.15-9.64,30.96c0,0,3.31,40.14,23.12,42.29,1.58,.17,3.16-.18,4.53-.98,4.21-2.47,13.57-10.32,22.08-33.96,0,0,6.09-15.73,14.97-28.93,0,0,40.34-59.38,56.84-73.08,0,0,3.55-3.3,7.1-3.81,0,0,5.58-.25,13.45-6.34l7.61-6.34s3.5-2.55,6.22-3.1c.78-.16,1.08-1.13,.53-1.7-2.28-2.38-7.34-5.58-14.61,1.51,0,0-3.3,2.54-5.33,0,0,0-4.06-3.04-11.67-1.52,0,0,4.82-8.63-2.03-22.08,0,0-2.91-7.2-3.53-11.17-.17-1.09,.11-2.2,.77-3.08Z" fill="#f2b3c1"></path>
      <path d="M62.99,397.16c-.29,0-.57-.02-.86-.05-20-2.18-23.43-41.09-23.57-42.75-4.58-20.82,9.71-31.3,9.85-31.4l92.85-88.81-7.27-25.34c-.69-2.23-.56-4.23,.39-5.94,1.43-2.56,4.27-3.67,5.23-3.98l.77-4.95c.31-1.95,1.41-3.73,3.02-4.86l26.2-18.45c1.53-.44,2.63-.29,3.26,.44,1.1,1.28,.21,3.88-.21,4.92,.9,.61,1.49,1.43,1.75,2.43,.67,2.6-1.11,5.52-1.19,5.64l-13.69,18.26c-.58,.77-.83,1.76-.68,2.71,.6,3.87,3.47,10.99,3.5,11.06,5.69,11.17,3.47,19.02,2.42,21.6,7.13-1.13,10.95,1.66,11.12,1.78l.09,.09c1.7,2.12,4.51,0,4.63-.08,3.05-2.98,6.1-4.49,8.98-4.44,2.9,.05,5.03,1.65,6.3,2.98,.39,.41,.52,.97,.35,1.5-.17,.54-.59,.92-1.14,1.03-2.58,.53-5.99,2.99-6.02,3.02l-7.59,6.32c-7.92,6.13-13.51,6.45-13.75,6.46-3.31,.48-6.75,3.64-6.79,3.67-16.27,13.52-56.36,72.4-56.76,72.99-8.74,12.99-14.86,28.67-14.92,28.83-8.4,23.32-17.57,31.44-22.29,34.21-1.23,.72-2.59,1.09-3.98,1.09Zm106.97-225.58l-25.98,18.33c-1.39,.98-2.34,2.51-2.61,4.2l-.87,5.58-.32,.08s-3.44,.92-4.93,3.6c-.81,1.46-.91,3.19-.3,5.16l7.45,25.93-.22,.21-93.12,89.06c-.19,.15-13.94,10.27-9.5,30.49,.04,.46,3.51,39.82,22.69,41.9,1.48,.16,2.93-.15,4.22-.91,3.71-2.17,13.26-9.8,21.86-33.7,.07-.17,6.22-15.95,15.03-29.04,.41-.6,40.58-59.59,56.93-73.18,.13-.12,3.69-3.39,7.35-3.92,.1,0,5.59-.34,13.21-6.24l7.6-6.33c.17-.13,3.65-2.64,6.44-3.21,.27-.06,.36-.27,.39-.35,.06-.18,.01-.38-.12-.52-1.14-1.19-3.04-2.63-5.6-2.67-2.6-.03-5.41,1.37-8.31,4.19-1.31,1.01-4.17,2.25-6.02,.01-.46-.31-4.37-2.77-11.23-1.4l-1.06,.21,.52-.95c.05-.08,4.6-8.58-2.04-21.6-.14-.34-2.96-7.34-3.58-11.32-.19-1.21,.13-2.47,.87-3.46l13.67-18.22h0s1.61-2.65,1.04-4.83c-.23-.88-.77-1.55-1.65-2.05l-.4-.23,.19-.42c.56-1.23,1.21-3.46,.53-4.25-.42-.49-1.38-.36-2.14-.15Z" fill="#231f20"></path>
    </g>
    <path d="M141.83,234.8c-.11,0-.22-.04-.32-.11-.21-.17-.25-.49-.07-.7,3.62-4.45,5.68-8.35,6.77-10.85,.82-1.87,1.2-3.95,1.11-6.02l-.76-16.18c-.09-1.83,.61-3.61,1.91-4.9l19.43-19.19c.2-.19,.51-.19,.71,0,.19,.2,.19,.51,0,.71l-19.43,19.19c-1.1,1.09-1.69,2.59-1.62,4.14l.76,16.18c.1,2.22-.31,4.46-1.19,6.47-1.12,2.55-3.23,6.54-6.91,11.07-.1,.12-.24,.18-.39,.18Z" fill="#231f20"></path>
    <g>
      <ellipse cx="405.97" cy="445.03" rx="3.04" ry="3.17" fill="#6ac5cd"></ellipse>
      <path d="M405.97,448.7c-1.95,0-3.54-1.65-3.54-3.67s1.59-3.67,3.54-3.67,3.54,1.65,3.54,3.67-1.59,3.67-3.54,3.67Zm0-6.34c-1.4,0-2.54,1.2-2.54,2.67s1.14,2.67,2.54,2.67,2.54-1.2,2.54-2.67-1.14-2.67-2.54-2.67Z" fill="#231f20"></path>
    </g>
    <g>
      <path d="M755.39,540.06s-.01,.22-.07,.64c-.08,.56-.24,1.47-.55,2.66-.23,.87-.54,1.89-.97,3.04H487.93c-3.78,0-6.85-3.07-6.85-6.85,0-1.89,.77-3.6,2.01-4.84,1.24-1.24,2.95-2.01,4.84-2.01h268.22c.06,2.49-.18,4.95-.77,7.36Z" fill="#fff"></path>
      <path d="M754.15,546.9H487.93c-4.05,0-7.35-3.3-7.35-7.35,0-1.96,.76-3.81,2.15-5.2,1.39-1.39,3.24-2.15,5.2-2.15h268.71v.49c.07,2.56-.19,5.07-.76,7.45,0,.09-.03,.3-.07,.63-.08,.57-.24,1.51-.56,2.72-.26,1-.59,2.04-.98,3.09l-.12,.33Zm-266.22-13.7c-1.7,0-3.29,.66-4.49,1.86-1.2,1.2-1.86,2.79-1.86,4.49,0,3.5,2.85,6.35,6.35,6.35h265.52c.33-.91,.61-1.81,.83-2.67,.31-1.16,.46-2.06,.54-2.6,.05-.38,.07-.59,.07-.6v-.09c.54-2.16,.79-4.42,.77-6.74H487.93Z" fill="#231f20"></path>
    </g>
    <g>
      <path d="M624.73,496.16h12.89c1.41,0,2.44,1.35,2.06,2.71l-2.13,7.77c-.41,1.48,.14,3.06,1.38,3.98l11.47,8.46c1.23,.9,1.95,2.34,1.95,3.86v4.82c0,2.65-2.15,4.8-4.8,4.8h-32.78c-2.65,0-4.8-2.15-4.8-4.8v-5.61c0-1.65,.84-3.18,2.24-4.06l11.7-7.38c1.49-.94,2.12-2.79,1.5-4.44l-2.69-7.22c-.52-1.4,.51-2.89,2.01-2.89Z" fill="#6ac5cd"></path>
      <path d="M647.56,533.06h-32.78c-2.92,0-5.3-2.38-5.3-5.3v-5.61c0-1.83,.92-3.5,2.47-4.48l11.7-7.38c1.28-.81,1.83-2.43,1.3-3.85l-2.69-7.22c-.3-.81-.19-1.72,.31-2.43s1.3-1.13,2.17-1.13h12.89c.83,0,1.6,.38,2.1,1.04s.67,1.5,.45,2.3l-2.13,7.77c-.35,1.27,.13,2.66,1.19,3.44l11.47,8.46c1.35,.99,2.15,2.59,2.15,4.26v4.82c0,2.92-2.38,5.3-5.3,5.3Zm-22.82-36.4c-.55,0-1.04,.26-1.35,.71-.31,.45-.38,1-.19,1.51l2.69,7.22c.69,1.86-.02,3.98-1.7,5.04l-11.7,7.38c-1.25,.79-2,2.15-2,3.63v5.61c0,2.37,1.93,4.3,4.3,4.3h32.78c2.37,0,4.3-1.93,4.3-4.3v-4.82c0-1.36-.65-2.65-1.75-3.46l-11.47-8.46c-1.39-1.03-2.02-2.84-1.56-4.51l2.13-7.77c.14-.5,.04-1.02-.28-1.43-.31-.41-.79-.65-1.3-.65h-12.89Z" fill="#231f20"></path>
    </g>
    <g>
      <circle cx="638.65" cy="259.42" r="21.06" fill="#fff"></circle>
      <path d="M638.65,280.98c-11.89,0-21.56-9.67-21.56-21.56s9.67-21.56,21.56-21.56,21.56,9.67,21.56,21.56-9.67,21.56-21.56,21.56Zm0-42.12c-11.34,0-20.56,9.22-20.56,20.56s9.22,20.56,20.56,20.56,20.56-9.22,20.56-20.56-9.22-20.56-20.56-20.56Z" fill="#231f20"></path>
    </g>
    <g>
      <path d="M632.56,236.07v-55.34c0-.54,.44-.99,.99-.99h2.57v-3.81c0-.42,.34-.75,.75-.75h3.06c.42,0,.75,.34,.75,.75v4.07h2.31c.54,0,.99,.44,.99,.99v55.09h3.3v5.07h-18.02v-5.07h3.3Z" fill="#231f20"></path>
      <path d="M647.78,241.65h-19.02v-6.07h3.3v-54.84c0-.82,.67-1.49,1.49-1.49h2.07v-3.31c0-.69,.56-1.25,1.25-1.25h3.06c.69,0,1.25,.56,1.25,1.25v3.57h1.81c.82,0,1.49,.67,1.49,1.49v54.59h3.3v6.07Zm-18.02-1h17.02v-4.07h-3.3v-55.59c0-.27-.22-.49-.49-.49h-2.81v-4.57c0-.14-.11-.25-.25-.25h-3.06c-.14,0-.25,.11-.25,.25v4.31h-3.07c-.27,0-.49,.22-.49,.49v55.84h-3.3v4.07Z" fill="#231f20"></path>
    </g>
  </g>
  <g>
    <g>
      <path d="M194.44,269s19,4,28-1c0,0-1,23-28,1Z" fill="#fff"></path>
      <path d="M213.32,279.03c-4.89,0-11.33-3.23-19.2-9.64l-1.6-1.3,2.01,.42c.19,.04,18.92,3.9,27.65-.95l.78-.43-.04,.89c-.01,.32-.4,7.79-5.88,10.25-1.12,.5-2.37,.76-3.74,.76Zm-17-9.17c8.98,7,15.8,9.53,20.33,7.5,3.87-1.73,4.93-6.51,5.2-8.5-7.59,3.57-20.57,1.84-25.53,1Z" fill="#231f20"></path>
    </g>
    <path d="M209.44,286.5c-.08,0-.17-.02-.25-.07-.24-.14-.32-.44-.19-.68,.08-.14,2.06-3.54,5.39-4.33,1.76-.41,3.55-.02,5.32,1.16,.23,.15,.29,.46,.14,.69-.15,.23-.46,.29-.69,.14-1.53-1.02-3.06-1.37-4.53-1.02-2.91,.68-4.74,3.82-4.76,3.85-.09,.16-.26,.25-.43,.25Z" fill="#231f20"></path>
    <g>
      <path d="M207.07,257.31c1.02-1.45,7.84-10.62,14.12-6.38,.66,.44,1.18,1.1,1.38,1.87,.37,1.48-.3,3.7-7.63,3.7,0,0-3.85,0-7.77,.94-.08,.02-.15-.06-.1-.13Z" fill="#231f20"></path>
      <path d="M207.15,257.95c-.19,0-.38-.09-.49-.26l-.2-.29,.2-.38c1.32-1.87,8.22-10.95,14.81-6.51,.81,.54,1.37,1.31,1.58,2.16,.21,.86,.06,1.65-.44,2.3-1.07,1.36-3.57,2.03-7.67,2.03-.04,0-3.84,.01-7.65,.93-.05,.01-.09,.02-.14,.02Zm10.57-7.61c-4.1,0-8.01,4.38-9.58,6.38,3.52-.71,6.66-.72,6.8-.72,4.63,0,6.3-.89,6.88-1.64,.32-.41,.4-.88,.26-1.44-.15-.61-.57-1.17-1.17-1.57-1.05-.71-2.13-1.01-3.2-1.01Z" fill="#231f20"></path>
    </g>
  </g>
</svg>
