<?xml version="1.0" encoding="UTF-8"?>
<svg xmlns="http://www.w3.org/2000/svg" id="a" width="865.76" height="682.89" viewBox="0 0 865.76 682.89">
  <g>
    <g>
      <polygon points="686.69 507.72 725.85 590.33 741.94 590.87 710.29 502.36 686.69 507.72" fill="#231f20"></polygon>
      <path d="M742.66,591.39l-17.13-.57-.13-.28-39.43-83.17,24.64-5.6,32.05,89.62Zm-16.49-1.55l15.05,.5-31.25-87.4-22.56,5.13,38.76,81.77Z" fill="#231f20"></path>
    </g>
    <g>
      <polygon points="541.85 507.72 583.16 589.79 598.71 589.79 567.6 502.36 541.85 507.72" fill="#231f20"></polygon>
      <path d="M599.42,590.29h-16.57l-.14-.28-41.6-82.65,26.81-5.59,.15,.41,31.35,88.1Zm-15.96-1h14.54l-30.73-86.36-24.68,5.14,40.87,81.22Z" fill="#231f20"></path>
    </g>
    <g>
      <path d="M234.48,506.11c-1.07,1.61-29.5,82.07-29.5,82.07h16.09l39.16-82.07h-25.75Z" fill="#231f20"></path>
      <path d="M221.39,588.69h-17.12l.24-.67c2.91-8.24,28.48-80.57,29.56-82.18l.15-.22h26.81l-.34,.72-39.29,82.36Zm-15.7-1h15.07l38.68-81.07h-24.65c-1.79,4.06-19.53,53.98-29.1,81.07Z" fill="#231f20"></path>
    </g>
    <g>
      <path d="M54.78,501.82c-1.07,1.61-32.72,87.44-32.72,87.44h16.63l41.84-90.12-25.75,2.68Z" fill="#231f20"></path>
      <path d="M39.01,589.76H21.34l.25-.67c3.24-8.79,31.7-85.93,32.77-87.54l.13-.2,26.86-2.8-42.35,91.21Zm-16.23-1h15.59l41.34-89.03-24.6,2.56c-1.8,3.95-21.63,57.47-32.33,86.47Z" fill="#231f20"></path>
    </g>
    <g>
      <path d="M172.79,257.21s-1.61,10.73,14.48,23.07l5.36-18.24,1.61-8.05-11.26-3.75s-5.36,.54-10.19,6.97Z" fill="#231f20"></path>
      <path d="M187.55,281.12l-.58-.44c-16.14-12.38-14.74-23.09-14.67-23.54l.02-.12,.08-.1c4.9-6.54,10.32-7.15,10.54-7.17h.11s11.79,3.92,11.79,3.92l-1.7,8.48-5.58,18.98Zm-14.28-23.72c-.1,1.17-.42,10.92,13.73,22.03l5.16-17.53,1.51-7.57-10.73-3.58c-.73,.12-5.41,1.06-9.66,6.65Z" fill="#231f20"></path>
    </g>
    <g>
      <path d="M472.12,223.42l11.44-33.53c11.78-34.51,44.13-57.78,80.59-57.96l223.59-1.09c22.4-.11,38.84,21.01,33.24,42.7l-75.51,292.56c-6.81,26.4-30.63,44.84-57.89,44.84H70.65c-21.5,0-38.94-17.43-38.94-38.94v-71.79c0-21.5,17.43-38.94,38.94-38.94H377.71l94.41-137.86Z" fill="#fff"></path>
      <path d="M687.58,511.44H70.65c-21.75,0-39.44-17.69-39.44-39.44v-71.79c0-21.75,17.69-39.44,39.44-39.44H377.44l94.22-137.59,11.42-33.47c11.83-34.69,44.41-58.12,81.06-58.3l223.58-1.09c.06,0,.12,0,.17,0,10.77,0,20.72,4.87,27.34,13.37,6.66,8.55,8.92,19.47,6.21,29.96l-75.51,292.56c-6.87,26.62-30.88,45.22-58.37,45.22ZM70.65,361.78c-21.19,0-38.44,17.24-38.44,38.44v71.79c0,21.19,17.24,38.44,38.44,38.44H687.58c27.04,0,50.65-18.29,57.41-44.47l75.51-292.56c2.63-10.19,.43-20.79-6.03-29.09-6.43-8.26-16.1-12.98-26.55-12.98-.06,0-.11,0-.17,0l-223.59,1.09c-36.23,.18-68.42,23.33-80.12,57.62l-11.5,33.65-94.56,138.08H70.65Z" fill="#231f20"></path>
    </g>
    <g>
      <path d="M192.79,261.94l-15.7,53.75s12.87,10.73,32.72,10.19l11.8-17.17,8.05-23.07,4.83-17.7-34.87-8.05-6.83,2.04Z" fill="#f2b3c1"></path>
      <path d="M208.39,326.39c-19,0-31.5-10.22-31.62-10.33l-.25-.21,.09-.31,15.78-54.01,7.22-2.16,35.5,8.19-4.96,18.2-8.12,23.22-11.95,17.38h-.25c-.48,.02-.96,.03-1.43,.03Zm-30.73-10.89c1.89,1.45,14.13,10.28,31.88,9.88l11.62-16.9,8.02-23,4.68-17.17-34.23-7.9-6.44,1.93-15.53,53.16Z" fill="#231f20"></path>
    </g>
    <g>
      <path d="M177.09,315.68s-2.68,12.34-13.41,23.6c0,0-27.89,25.75-40.77,34.87,0,0-8.05,4.29-15.56,5.9,0,0-6.44,1.07-4.29,8.58,0,0,.54,3.22,12.87,2.68,0,0,22.53-1.07,35.4-1.61,0,0,10.73-1.61,21.99-.54,0,0,20.38,1.61,19.85-6.44v-28.38c0-3.86,1.24-7.62,3.53-10.73l13.1-17.75s-17.7,1.07-32.72-10.19Z" fill="#fff"></path>
      <path d="M113.32,391.88c-9.92,0-10.7-2.81-10.75-3.16-.73-2.54-.57-4.7,.48-6.36,1.46-2.32,4.11-2.78,4.22-2.8,7.33-1.57,15.32-5.81,15.4-5.85,12.65-8.96,40.39-34.54,40.67-34.79,10.48-11,13.23-23.22,13.26-23.34l.17-.76,.62,.47c14.69,11.02,32.22,10.1,32.39,10.09l1.07-.06-13.73,18.6c-2.25,3.04-3.43,6.65-3.43,10.43v28.38c.09,1.36-.38,2.59-1.4,3.6-4.48,4.43-18.4,3.39-18.99,3.34-11.08-1.06-21.77,.52-21.88,.53-12.78,.53-35.23,1.6-35.45,1.61-.94,.04-1.82,.06-2.64,.06Zm64.07-75.35c-.78,2.85-4.14,13.44-13.35,23.1-.3,.28-28.09,25.9-40.84,34.93-.13,.08-8.25,4.38-15.74,5.98-.04,0-2.35,.42-3.57,2.36-.89,1.41-1,3.29-.35,5.6,.02,.06,.91,2.81,12.37,2.32,.22-.01,22.68-1.08,35.4-1.61,.05-.01,10.86-1.6,22.06-.53,.13,0,14.04,1.06,18.2-3.06,.82-.81,1.18-1.74,1.1-2.85v-28.42c0-4,1.25-7.81,3.63-11.03l12.49-16.93h-.13c-4.16,0-18.64-.71-31.28-9.87Z" fill="#231f20"></path>
    </g>
    <path d="M184.09,398.38c-81.2,0-150.31-7.5-151.14-7.59-.27-.03-.47-.28-.44-.55,.03-.27,.28-.47,.55-.44,1.02,.11,102.84,11.16,204.62,6.39,.28-.02,.51,.2,.52,.48,.01,.28-.2,.51-.48,.52-18.06,.85-36.13,1.2-53.63,1.2Z" fill="#231f20"></path>
    <g>
      <path d="M205.75,193.18s-55.49-43.79-50.66-59.34l5.36-10.19s2.68-8.58,11.26-2.68c0,0,33.79,25.75,67.05,30.58l26.82-9.12s-3.22,7.51-3.22,21.46l-56.62,29.31Z" fill="#fff"></path>
      <path d="M205.7,193.77l-.25-.2c-2.28-1.8-55.7-44.18-50.83-59.89l5.4-10.28c.01-.07,1.15-3.61,4.32-4.71,2.2-.76,4.78-.14,7.67,1.85,.36,.27,34.02,25.68,66.72,30.48l27.77-9.44-.44,1.03c-.03,.07-3.18,7.6-3.18,21.26v.3l-.27,.14-56.91,29.45Zm-39.45-74.38c-.55,0-1.08,.08-1.57,.26-2.69,.93-3.73,4.11-3.74,4.15l-5.4,10.28c-4.47,14.44,46.22,55.28,50.28,58.52l56.07-29.02c.04-10.98,2.02-17.87,2.88-20.34l-25.93,8.82-.12-.02c-33-4.79-66.95-30.41-67.28-30.67-1.91-1.31-3.64-1.97-5.17-1.97Z" fill="#231f20"></path>
    </g>
    <g>
      <path d="M419.01,139.74c-4.29-43.45-41.3-37.01-41.3-37.01-28.88,1.72-63.64,12.45-76.19,16.6-4.26,1.41-7.89,4.27-10.25,8.09-10.12,16.44-10.12,46.65-10.12,46.65l-18.77-10.19c-35.94-18.24-55.25,26.28-55.25,26.28l-34.33,67.05c8.58-4.29,24.14,7.51,24.14,7.51,26.82,17.7,24.68,43.99,24.68,43.99l32.19-46.13,43.45,97.09,96.56,4.83,26.48-115.98c6.63-57.51-1.26-108.78-1.26-108.78Zm-86.36,89.58s-35.52-36.88-34.33-37.01c24.14-2.68,39.7-12.87,39.7-12.87-2.68,10.73-5.36,49.89-5.36,49.89Z" fill="#a2750b"></path>
      <path d="M394.2,365.02l-97.28-4.86-.12-.28-43.09-96.29-32.74,46.92,.15-1.84c.02-.26,1.79-26.21-24.45-43.53-.18-.14-15.44-11.58-23.64-7.48l-1.36,.68,35.03-68.41c.08-.2,9.93-22.48,28.25-29.08,8.76-3.16,18.07-2.29,27.67,2.58l18.06,9.8c.1-5,1.05-31.24,10.19-46.08,2.41-3.91,6.14-6.86,10.51-8.3,13.39-4.43,47.63-14.91,76.31-16.63,.1-.02,15.1-2.5,27.11,6.63,8.38,6.37,13.33,16.74,14.72,30.82,.16,1.08,7.79,52.3,1.27,108.9l-26.58,116.45Zm-96.62-5.83l95.83,4.79,26.38-115.57c6.54-56.73-1.19-108.08-1.27-108.59v-.03c-1.37-13.8-6.19-23.94-14.33-30.13-11.65-8.87-26.25-6.46-26.4-6.44-28.62,1.71-62.76,12.17-76.12,16.58-4.15,1.37-7.69,4.17-9.98,7.88-9.93,16.13-10.05,46.09-10.05,46.39v.84l-19.51-10.59c-9.33-4.73-18.37-5.59-26.86-2.53-17.92,6.46-27.6,28.35-27.69,28.57l-33.74,65.89c8.89-2.81,22.77,7.61,23.39,8.08,22.84,15.08,24.82,36.63,24.9,42.75l31.75-45.51,.36,.81,43.33,96.81Zm35.49-128.71l-.78-.81c-34.92-36.26-34.6-37.13-34.47-37.51l.11-.29,.34-.05c23.73-2.64,39.32-12.69,39.48-12.8l1.07-.7-.31,1.24c-2.64,10.56-5.32,49.41-5.35,49.8l-.08,1.12Zm-33.97-37.76c2.7,3.55,20.57,22.39,33.13,35.44,.45-6.25,2.72-36.83,5.03-47.69-3.82,2.24-18.03,9.87-38.16,12.24Z" fill="#231f20"></path>
    </g>
    <g>
      <path d="M653.97,388.1c-27.89,5.36-32.19-2.15-32.19-2.15,0,0-16.09-87.44-20.38-88.51-3.04-.76-5.54,1.44-6.74,2.79-1.08,1.21-2.16,2.43-3.28,3.61l-21.52,22.7-5.47,5.77c-5.17,5.02-10.35,9.37-15.43,13.14-29.7,22.06-55.91,24.41-55.91,24.41,0,0-108.89-62.23-114.79-74.03-5.9-11.8,16.09-24.68,16.09-24.68,2.4-1.07,4.46-2.13,6.24-3.16,9.77-5.64,10.92-10.25,10.92-10.25,1.14-2.16,2.3-3.87,3.43-5.21,4.17-4.98,7.84-4.98,7.84-4.98,6.97-2.15,10.19-7.51,10.19-7.51,1.04-1.42,2.27-2.87,3.67-4.34,5.7-5.97,14.22-12.22,23.69-18.2,6.97-4.4,14.46-8.66,21.72-12.55,9.98-5.34,19.54-9.98,26.74-13.36,7.68-3.59,12.68-5.73,12.68-5.73,0,0,.05-.01,.15-.03,.75-.12,1.48-.23,2.18-.32,.25-.03,.49-.06,.72-.09,.02,0,.04,0,.07,0,13.3-1.5,18.07,2.87,18.32,3.11,0,0,0,.01,.01,.01l10.73,5.36,6.44,3.75,35.15-9.37c3.43,3.05,8.05,5.49,14.2,6.15,0,0,19.16-10.45,35.11-3.11,1.75,.8,3.47,1.83,5.12,3.11,0,0,11.15,6.81,15.8,38.55,1.47,10.04,2.29,22.57,1.9,38.16,.1,5.66,.48,11.09,1.04,16.19,1.59,14.47,4.61,26.25,6.61,32.96,1.17,3.91,2,6.1,2,6.1,6.44,15.56,8.58,34.33,8.58,34.33,3.22,24.14-31.65,27.36-31.65,27.36Z" fill="#858fa8"></path>
      <path d="M636.49,390.53c-12.47,0-15.01-4.1-15.14-4.33l-.06-.16c-6.13-33.3-16.99-86.68-20.03-88.12-2.77-.69-5.09,1.36-6.23,2.64l-.4,.45c-.95,1.07-1.91,2.14-2.9,3.18l-26.99,28.47c-4.93,4.78-10.14,9.22-15.5,13.19-29.47,21.89-55.9,24.49-56.16,24.51h-.16s-.14-.06-.14-.06c-4.45-2.54-109.09-62.44-114.99-74.24-6.04-12.08,15.37-24.8,16.29-25.33,2.29-1.03,4.38-2.09,6.25-3.17,9.4-5.43,10.68-9.89,10.69-9.94l.04-.11c1.07-2.03,2.24-3.82,3.49-5.3,3.98-4.75,7.54-5.13,8.14-5.16,6.65-2.07,9.82-7.22,9.85-7.27,1.05-1.44,2.3-2.92,3.74-4.43,5.2-5.45,13.21-11.6,23.79-18.28,6.34-4.01,13.66-8.23,21.75-12.56,8.28-4.43,17.28-8.93,26.76-13.37,7.6-3.56,12.65-5.72,12.7-5.74l.26-.06c.76-.12,1.49-.23,2.2-.32,.21-.03,.43-.05,.63-.08h.15c13.04-1.49,18.13,2.68,18.69,3.18l10.66,5.33,6.29,3.67,35.21-9.39,.2,.18c3.82,3.39,8.45,5.41,13.77,6.01,1.8-.93,20.14-10.08,35.42-3.05,1.84,.84,3.59,1.91,5.21,3.16,.42,.25,11.35,7.27,15.99,38.87,1.62,11.07,2.26,23.94,1.91,38.25,.09,5.28,.44,10.71,1.04,16.12,1.55,14.12,4.44,25.67,6.6,32.87,1.15,3.85,1.98,6.05,1.99,6.07,6.38,15.43,8.59,34.26,8.61,34.45,.77,5.8-.56,10.91-3.97,15.18-8.55,10.72-27.01,12.63-28.11,12.73-7.35,1.41-13.09,1.94-17.55,1.94Zm-14.23-4.77c.49,.65,5.89,6.8,31.62,1.85h.05c.19-.02,19.09-1.89,27.44-12.37,3.23-4.05,4.49-8.91,3.75-14.43-.02-.2-2.21-18.9-8.55-34.21-.01-.04-.85-2.27-2.02-6.15-2.17-7.24-5.08-18.86-6.63-33.05-.6-5.44-.95-10.9-1.04-16.24,.35-14.27-.29-27.08-1.9-38.1-4.55-31.05-15.46-38.13-15.56-38.19-1.61-1.24-3.29-2.27-5.06-3.08-15.54-7.15-34.48,2.99-34.67,3.09l-.14,.07-.16-.02c-5.51-.59-10.31-2.65-14.28-6.1l-35.09,9.36-6.62-3.86-10.59-5.3h-.16l-.12-.18c-.53-.48-5.29-4.36-17.88-2.94h-.13c-.24,.04-.45,.06-.66,.09-.7,.09-1.42,.19-2.17,.31l-.09,.02c-.55,.24-5.45,2.35-12.61,5.71-9.47,4.43-18.46,8.92-26.72,13.35-8.07,4.32-15.37,8.54-21.69,12.53-10.51,6.64-18.45,12.73-23.6,18.12-1.41,1.48-2.63,2.92-3.63,4.29-.11,.19-3.37,5.52-10.45,7.69l-.15,.02s-3.51,.09-7.45,4.8c-1.19,1.42-2.32,3.12-3.34,5.07-.18,.61-1.8,5.1-11.14,10.49-1.9,1.1-4.01,2.17-6.29,3.19-.17,.1-21.47,12.75-15.85,24,5.67,11.34,109.98,71.18,114.46,73.74,2.2-.24,27.44-3.45,55.5-24.3,5.32-3.95,10.5-8.36,15.38-13.09l26.97-28.45c.98-1.03,1.93-2.09,2.88-3.15l.4-.45c1.29-1.45,3.95-3.77,7.24-2.94,.89,.22,2.99,.75,12.17,45.04,4.35,20.98,8.26,42.1,8.57,43.76Z" fill="#231f20"></path>
    </g>
    <g>
      <path d="M591.74,129.81v23.6c0,17.33-14.05,31.38-31.38,31.38-10.58,0-19.93-5.24-25.62-13.25-3.63-5.12-5.76-11.38-5.76-18.13v-23.6c0-17.33,14.05-31.38,31.38-31.38,8.67,0,16.51,3.51,22.19,9.19,5.68,5.68,9.19,13.52,9.19,22.19Z" fill="#f2b3c1"></path>
      <path d="M560.36,185.3c-10.32,0-20.05-5.03-26.03-13.46-3.83-5.41-5.85-11.78-5.85-18.42v-23.6c0-17.58,14.3-31.88,31.88-31.88,8.51,0,16.52,3.31,22.54,9.33,6.02,6.03,9.34,14.03,9.34,22.55v23.6c0,17.58-14.3,31.88-31.88,31.88Zm0-86.36c-17.03,0-30.88,13.85-30.88,30.88v23.6c0,6.43,1.96,12.6,5.67,17.84,5.79,8.16,15.22,13.04,25.21,13.04,17.03,0,30.88-13.85,30.88-30.88v-23.6c0-8.25-3.21-16-9.04-21.84-5.84-5.83-13.59-9.04-21.84-9.04Z" fill="#231f20"></path>
    </g>
    <g>
      <path d="M553.62,184.14l.04,9.77s-17.7,24.14-19.31,33.79c0,0,45.6-30.04,75.1-33.26,0,0-18.31-.38-23.64-22.72,0,0-10.23,16.59-32.19,12.41Z" fill="#f2b3c1"></path>
      <path d="M533.66,228.76l.19-1.13c1.57-9.39,17.74-31.73,19.3-33.88l-.04-10.21,.6,.11c21.35,4.06,31.57-12.02,31.67-12.19l.63-1.02,.28,1.17c5.17,21.68,22.99,22.33,23.17,22.34l.04,1c-29.05,3.17-74.42,32.88-74.88,33.18l-.96,.63Zm20.46-44.01l.04,9.33-.1,.13c-.17,.23-16.32,22.33-18.97,32.42,6.64-4.25,44.19-27.71,70.93-32.21-5.54-1.31-16.29-5.85-20.44-21.52-2.57,3.42-12.84,15.09-31.46,11.84Z" fill="#231f20"></path>
    </g>
    <g>
      <path d="M553.62,184.14v7.62s13.87,.36,19.83-9.74c0,0-8.6,4.68-19.83,2.12Z" fill="#231f20"></path>
      <path d="M553.74,192.27c-.08,0-.13,0-.13,0h-.49v-8.75l.61,.14c10.9,2.49,19.4-2.02,19.48-2.07l1.59-.86-.92,1.55c-5.72,9.71-18.68,9.99-20.14,9.99Zm.38-7.5v6.5c2.34-.06,12.5-.73,17.94-8.05-2.96,1.21-9.68,3.27-17.94,1.55Z" fill="#231f20"></path>
    </g>
    <path d="M586.38,228.21c-.08,0-.15-.02-.22-.05-.25-.12-.35-.42-.22-.67,.11-.23,11.44-22.74,23.18-33.4,.21-.18,.52-.17,.71,.03,.19,.2,.17,.52-.03,.71-11.6,10.54-22.84,32.89-22.96,33.11-.09,.18-.26,.28-.45,.28Z" fill="#231f20"></path>
    <path d="M563.85,308.67c-.21,0-.4-.13-.47-.33-.09-.26,.04-.55,.3-.64,.22-.08,22.65-8.12,35.88-14.99,.24-.13,.55-.03,.67,.21,.13,.24,.03,.55-.21,.67-13.29,6.91-35.78,14.97-36,15.05-.06,.02-.11,.03-.17,.03Z" fill="#231f20"></path>
    <path d="M430.28,287.22c-.1,0-.2-.03-.29-.09-.23-.16-.28-.47-.12-.7l32.19-45.6c.16-.23,.48-.28,.7-.12,.23,.16,.28,.47,.12,.7l-32.19,45.6c-.1,.14-.25,.21-.41,.21Z" fill="#231f20"></path>
    <path d="M450.73,257.98c-.24,0-.45-.17-.49-.42-.04-.27,.14-.53,.41-.57,23.96-3.9,23.66-17.31,23.66-17.45,0-.12-.42-12.2,11.01-17.64l28.97-13.41c.25-.12,.55,0,.66,.24,.12,.25,0,.55-.24,.66l-28.97,13.41c-10.82,5.15-10.44,16.57-10.44,16.69,0,.14,.4,14.43-24.49,18.48-.03,0-.05,0-.08,0Z" fill="#231f20"></path>
    <path d="M528.44,204.07c-.08,0-.15-.02-.22-.05-.25-.12-.35-.42-.22-.67,5.73-11.47,4.27-18.37,4.25-18.44-.06-.27,.11-.54,.38-.6,.27-.06,.54,.11,.6,.37,.07,.29,1.58,7.28-4.33,19.11-.09,.18-.26,.28-.45,.28Z" fill="#231f20"></path>
    <path d="M565.89,376.22c-1.8,0-3.5-.08-5.01-.19-5.55-.41-10.74-1.76-15.4-4-32.93-15.87-17.13-60.89-16.97-61.34,.09-.26,.38-.4,.64-.3,.26,.09,.39,.38,.3,.64-.16,.44-15.65,44.62,16.46,60.1,4.55,2.19,9.61,3.51,15.04,3.91,9.78,.72,27.08-.07,33.01-13.42,.11-.25,.41-.36,.66-.25,.25,.11,.37,.41,.25,.66-5.25,11.81-18.85,14.2-28.99,14.2Z" fill="#231f20"></path>
    <g>
      <path d="M644.85,350.01s8.07,4.04,11.64,12.68c3.35,8.12,.12,17.53-7.4,22.09-5.81,3.52-14.86,5.59-28.07,.28l9.35-16.81,14.48-18.24Z" fill="#231f20"></path>
      <path d="M635.98,388.77c-4.26,0-9.3-.89-15.15-3.25l-.53-.21,9.62-17.31,14.78-18.62,.36,.18c.34,.17,8.28,4.22,11.88,12.94,3.4,8.25,.14,18.01-7.6,22.71-3.09,1.87-7.5,3.56-13.37,3.56Zm-14.25-3.96c10.64,4.16,19.76,4.01,27.1-.45,7.32-4.44,10.41-13.67,7.19-21.47-3.03-7.34-9.47-11.34-11.05-12.23l-14.22,17.91-9.02,16.25Z" fill="#231f20"></path>
    </g>
    <path d="M678.11,357.49c-.17,0-.33-.08-.42-.23-10.43-16.52-24.8-19.15-30.21-20.14-1.59-.29-2.15-.41-2.44-.7-.2-.2-.2-.51,0-.71,.19-.19,.5-.19,.69-.02,.19,.12,1.07,.28,1.93,.43,5.53,1.01,20.21,3.7,30.88,20.59,.15,.23,.08,.54-.16,.69-.08,.05-.17,.08-.27,.08Z" fill="#231f20"></path>
    <path d="M647.6,337.06c-.22,0-.43-.15-.48-.38-.07-.27,.09-.54,.36-.61,10.77-2.71,23.59-1.06,23.72-1.04,.27,.04,.47,.29,.43,.56-.04,.27-.29,.46-.56,.43-.13-.02-12.76-1.64-23.34,1.02-.04,.01-.08,.02-.12,.02Z" fill="#231f20"></path>
    <g>
      <path d="M380.93,292.62s2.15-7.27,10.27-13.03c7.53-5.34,17.17-6.98,26.02-4.39,6.17,1.81,11.91,5.87,10.14,14.92l-16.4-4.48-13.95,5.9-13.95,3.75-2.15-2.68Z" fill="#231f20"></path>
      <path d="M382.89,295.87l-2.51-3.14,.07-.25c.09-.3,2.3-7.5,10.46-13.3,7.62-5.41,17.51-7.08,26.45-4.46,8.36,2.45,11.99,7.81,10.49,15.5l-.1,.53-16.75-4.57-13.79,5.83-14.33,3.86Zm-1.4-3.35l1.77,2.21,13.63-3.67,14.04-5.95,16.04,4.38c1.15-6.91-2.18-11.56-9.89-13.82-8.65-2.53-18.22-.92-25.59,4.32-7.06,5.02-9.54,11.23-10,12.52Z" fill="#231f20"></path>
    </g>
    <path d="M338.01,179.93s-.08,0-.12-.01c-.27-.07-.43-.34-.37-.6,.24-.99,6.01-24.36,13.51-33.46,.18-.21,.49-.24,.7-.07,.21,.18,.24,.49,.07,.7-7.35,8.93-13.25,32.82-13.31,33.06-.06,.23-.26,.38-.49,.38Z" fill="#231f20"></path>
    <path d="M253.79,263.08c-.2,0-.39-.12-.47-.32-4.78-12.21-9.08-25.11-9.13-25.24-.09-.26,.05-.55,.32-.63,.26-.09,.54,.05,.63,.32,.04,.13,4.34,13,9.11,25.19,.1,.26-.03,.55-.28,.65-.06,.02-.12,.03-.18,.03Z" fill="#231f20"></path>
    <path d="M331.78,362.06c-.21,0-.4-.13-.47-.34-16.28-47.04,.68-131.66,.85-132.51,.06-.27,.32-.44,.59-.39,.27,.06,.45,.32,.39,.59-.17,.85-17.08,85.2-.89,131.98,.09,.26-.05,.55-.31,.64-.05,.02-.11,.03-.16,.03Z" fill="#231f20"></path>
    <path d="M288.57,193.92c-3.32,0-4.38-.6-4.45-.64-.09-.05-.16-.14-.2-.23-3.22-7.52-3.26-18.51-3.26-18.97,0-.28,.22-.5,.5-.5s.5,.22,.5,.5c0,.11,.04,11.07,3.1,18.4,.65,.24,3.94,1.16,13.47-.65,.27-.05,.53,.13,.58,.4,.05,.27-.13,.53-.4,.58-4.5,.86-7.66,1.12-9.85,1.12Z" fill="#231f20"></path>
    <g>
      <path d="M265.6,142.42s-4.29,13.41-3.22,21.46l18.77,10.19c.03-6.44,.56-14.07,2.15-22.53,1.16-6.16,2.67-11.67,4.26-16.46-7.32,2.45-14.64,4.89-21.97,7.34Z" fill="#f2b3c1"></path>
      <path d="M281.65,174.91l-19.73-10.71-.03-.25c-1.08-8.06,3.06-21.12,3.24-21.68l.08-.24,23.16-7.74-.32,.95c-1.78,5.35-3.21,10.86-4.25,16.39-1.38,7.37-2.1,14.92-2.14,22.44v.84Zm-18.81-11.35l17.82,9.67c.08-7.3,.8-14.63,2.15-21.79,.98-5.25,2.32-10.48,3.97-15.58l-20.78,6.94c-.56,1.82-4.01,13.47-3.16,20.75Z" fill="#231f20"></path>
    </g>
    <path d="M274.17,511.37c-.19,0-.38-.11-.46-.3-22.35-51.13-10.33-98.49-10.21-98.96,.07-.27,.34-.43,.61-.36,.27,.07,.43,.34,.36,.61-.12,.47-12.05,47.5,10.16,98.3,.11,.25,0,.55-.26,.66-.07,.03-.13,.04-.2,.04Z" fill="#231f20"></path>
    <path d="M627.76,411.22c-.99,0-1.99-.02-2.99-.05l-337.74-11.3c-.28,0-.49-.24-.48-.52,.01-.28,.25-.49,.52-.48l337.74,11.3c37.45,1.24,71.57-21.43,84.92-56.44l58.77-154.22c4.81-12.63,13.02-23.67,23.74-31.91l18.6-14.31c.22-.17,.53-.13,.7,.09,.17,.22,.13,.53-.09,.7l-18.6,14.31c-10.57,8.13-18.66,19.01-23.41,31.47l-58.77,154.22c-13.14,34.48-46.21,57.14-82.9,57.14Z" fill="#231f20"></path>
    <g>
      <path d="M320.47,307.19l-.06-1c.48-.03,.96-.05,1.44-.05v1c-.46,0-.92,.02-1.38,.05Z" fill="#ed1c24"></path>
      <g>
        <path d="M508.61,374.71c.87,.99,2.58,3.4,3.74,8.03l-10.11-.4c-2.19-.09-4.39,.09-6.54,.51l-34.31,6.86h-.05c-.23,.07-1.27,.32-2.91,.57-8.6,1.28-33.67,2.34-44.25-26.32,0,0-10.19,6.44-20.38,4.29,0,0-.46,25.29-8.55,28.47l-22.57-1.11-5.36-17.7-8.87-45.76-1.32-6.81-6.97-7.51,1.84-4.25,41.07-11.3s62.23-24.14,80.46-5.36c0,0,12.17-8.26,25.94,17.47,2.52,4.7,4.55,9.64,6.19,14.71l8.26,25.6c.4,1.22,1.21,2.24,2.26,2.9,.49,.31,1.02,.53,1.6,.67,5.69,1.32,18.45,3.97,28.17,3.57,0,0-4.19,11.01-27.08,12.3-.3,.02-.46,.37-.26,.6Z" fill="#f6991a"></path>
        <path d="M385.34,397.22l-23.03-1.13-5.47-18.04-10.18-52.48-7.1-7.64,2.07-4.77,41.3-11.37c2.49-.97,62.1-23.8,80.68-5.51,.97-.53,3.84-1.76,7.9-.76,6.45,1.59,12.64,7.85,18.4,18.62,2.43,4.53,4.52,9.51,6.23,14.79l8.26,25.6c.36,1.09,1.08,2.02,2.05,2.63,.45,.28,.93,.48,1.45,.6,5.17,1.2,18.23,3.96,28.03,3.55l.76-.03-.27,.71c-.17,.46-4.54,11.24-27.25,12.6,.96,1.16,2.56,3.62,3.66,8.02l.16,.65-10.78-.43c-2.14-.09-4.29,.08-6.42,.51l-34.31,6.86c-.14,.03-1.2,.31-2.98,.57-7.72,1.15-33.64,2.64-44.58-26.07-2.2,1.27-10.77,5.76-19.64,4.16-.12,3.95-1.16,25.3-8.85,28.33l-.1,.04Zm-22.27-2.1l22.11,1.09c7.59-3.19,8.13-27.72,8.13-27.97v-.6s.6,.12,.6,.12c9.87,2.08,19.92-4.16,20.02-4.23l.52-.33,.21,.58c10.27,27.81,33.99,27.44,43.71,26,1.73-.26,2.75-.52,2.86-.55l34.39-6.88c2.21-.44,4.45-.62,6.66-.52l9.44,.38c-1.11-4.07-2.63-6.23-3.46-7.17-.22-.25-.28-.59-.15-.9,.13-.31,.42-.51,.75-.53,18.86-1.06,24.87-8.86,26.28-11.27-9.83,.23-22.39-2.43-27.45-3.61-.62-.15-1.21-.39-1.75-.73-1.17-.73-2.04-1.85-2.47-3.17l-8.26-25.6c-1.69-5.23-3.76-10.15-6.16-14.63-6.99-13.06-13.5-17.05-17.72-18.11-4.52-1.13-7.47,.8-7.5,.82l-.35,.23-.29-.3c-17.8-18.32-79.3,5.24-79.92,5.48l-40.89,11.25-1.61,3.73,6.85,7.38,1.35,6.95,8.87,45.76,5.25,17.31Z" fill="#231f20"></path>
      </g>
      <g>
        <path d="M392.95,376.13s.31-.9,.85-7.87c0,0-.46,25.29-8.55,28.47l-22.57-1.11-5.36-17.7-8.87-45.76,10.48-.91,2.27,4.04c4.72,8.39,5.83,18.33,3.09,27.55h0c-.93,3.12,.7,6.43,3.74,7.59,6.61,2.53,17.85,6.3,24.92,5.7Z" fill="#231f20"></path>
        <path d="M385.34,397.22l-23.03-1.13-5.47-18.04-8.99-46.35,11.36-.99,2.43,4.32c4.76,8.46,5.9,18.64,3.13,27.94-.85,2.85,.66,5.92,3.43,6.99,6.09,2.33,17.25,6.14,24.33,5.69,.12-.65,.38-2.52,.76-7.44l1,.05c-.02,1.05-.56,25.66-8.86,28.92l-.1,.04Zm-22.27-2.1l22.11,1.09c4.68-1.97,6.68-12.07,7.53-19.57-7.27,.49-18.65-3.38-24.84-5.75-3.26-1.25-5.03-4.85-4.04-8.2,2.69-9.04,1.58-18.94-3.05-27.17l-2.12-3.76-9.61,.84,8.77,45.21,5.25,17.31Z" fill="#231f20"></path>
      </g>
      <g>
        <path d="M487.29,360.12c-.39,2.93-1.51,5.71-3.25,8.1-4.01,5.51-12.39,15.79-22.65,21.49h-.05s-2.91,.57-2.91,.57c-8.6,1.28-33.67,2.34-44.25-26.32,0,0-10.19,6.44-20.38,4.29v-3.75l19.85-8.05s21.46,24.68,45.6,4.83c0,0,20.38-18.77,28.43-33.79,0,0,1.81,16.27-.38,32.63Z" fill="#231f20"></path>
        <path d="M451.73,391.26c-10.97,0-29.11-3.75-37.8-26.56-2.24,1.29-11.16,5.95-20.23,4.04l-.4-.08v-4.5l20.49-8.31,.23,.27c.86,.99,21.42,24.07,44.9,4.77,.18-.17,20.39-18.87,28.31-33.64l.76-1.42,.18,1.6c.02,.16,1.79,16.52-.39,32.76h0c-.4,3-1.56,5.88-3.34,8.33-4.09,5.62-12.5,15.9-22.81,21.64l-.14,.05-2.97,.57c-1.59,.24-3.96,.49-6.8,.49Zm-37.29-28.05l.21,.58c10.27,27.81,33.99,27.44,43.71,26l2.85-.55c10.12-5.65,18.39-15.77,22.43-21.31,1.68-2.31,2.78-5.03,3.16-7.87h0c1.77-13.17,.91-26.43,.53-30.92-8.46,14.67-27.55,32.33-27.74,32.51-22.87,18.81-43.6-1.97-46.07-4.6l-19.21,7.79v3.01c9.75,1.83,19.52-4.24,19.62-4.3l.52-.33Z" fill="#231f20"></path>
      </g>
      <g>
        <path d="M508.61,374.71c.87,.99,2.58,3.4,3.74,8.02l-10.11-.4c-2.19-.09-4.39,.09-6.54,.51l-34.31,6.86s14.96-7.77,25.19-26.15l11.29,.4s1.07-.54,2.68,1.61l5.64-7.99c.49,.31,1.02,.53,1.6,.67,5.69,1.32,18.45,3.97,28.17,3.57,0,0-4.19,11.01-27.08,12.3-.3,.02-.46,.37-.26,.6Z" fill="#fff"></path>
        <path d="M458.04,390.89l3.12-1.62c.15-.08,14.95-7.93,24.98-25.94l.15-.27,11.5,.4c.38-.11,1.4-.21,2.73,1.29l5.53-7.83,.4,.25c.45,.28,.93,.48,1.45,.6,5.17,1.2,18.23,3.96,28.03,3.55l.76-.03-.27,.71c-.17,.46-4.54,11.24-27.25,12.6,.96,1.16,2.56,3.62,3.66,8.02l.16,.65-10.78-.43c-2.13-.09-4.29,.08-6.42,.51l-37.76,7.55Zm28.82-26.82c-7.69,13.68-18.08,21.53-22.77,24.58l31.51-6.3c2.21-.44,4.45-.62,6.66-.52l9.44,.38c-1.11-4.06-2.63-6.22-3.46-7.17h0c-.22-.25-.28-.59-.15-.9,.13-.31,.42-.51,.75-.53,18.86-1.06,24.86-8.86,26.28-11.27-9.83,.23-22.39-2.43-27.45-3.61-.47-.11-.92-.27-1.34-.49l-5.77,8.18-.41-.55c-1.29-1.72-2.07-1.45-2.08-1.45l-.11,.06-.1-.02-10.99-.39Zm22.13,10.31h0s0,0,0,0Z" fill="#231f20"></path>
      </g>
      <path d="M508.6,375.19c-.22,0-.43-.15-.48-.37-1.13-4.34-7.77-8.78-7.84-8.83-.23-.15-.29-.46-.14-.69,.15-.23,.46-.29,.69-.14,.29,.19,7.03,4.7,8.25,9.41,.07,.27-.09,.54-.36,.61-.04,.01-.08,.02-.13,.02Z" fill="#231f20"></path>
      <path d="M393.8,365s-.07,0-.11-.01c-.27-.06-.44-.33-.38-.6l3.75-16.63c.06-.27,.33-.44,.6-.38,.27,.06,.44,.33,.38,.6l-3.75,16.63c-.05,.23-.26,.39-.49,.39Z" fill="#231f20"></path>
      <path d="M413.65,356.95s-.05,0-.07,0c-.27-.04-.46-.29-.42-.57l2.68-18.24c.04-.27,.29-.46,.57-.42,.27,.04,.46,.29,.42,.57l-2.68,18.24c-.04,.25-.25,.43-.49,.43Z" fill="#231f20"></path>
      <path d="M487.67,327.98c-.23,0-.43-.16-.49-.39-5.24-23.05-23.64-30.15-23.83-30.22-.26-.1-.39-.38-.29-.64,.1-.26,.39-.39,.64-.29,.19,.07,19.09,7.34,24.45,30.93,.06,.27-.11,.54-.38,.6-.04,0-.07,.01-.11,.01Z" fill="#231f20"></path>
      <g>
        <path d="M349.81,324.8l-9.66,62.23-14.48,4.29s.01-.06,.04-.19c.34-1.74,2.53-15.17-8.96-26.52-.05-.06-.12-.13-.18-.18-1.96-1.95-4.33-3.82-7.16-5.55-3.39-2.07-5.07-6.08-4.26-9.96l4.67-22.27c.54-2.6,1.88-4.97,3.81-6.79l13.45-12.61c6.69,1.57,20.71,6.17,22.73,17.54Z" fill="#f6991a"></path>
        <path d="M325.05,392.02l.17-1c.29-1.48,2.54-14.83-8.83-26.06-.07-.08-.11-.12-.15-.16-2.05-2.04-4.43-3.88-7.1-5.5-3.54-2.16-5.35-6.37-4.49-10.49l4.67-22.27c.57-2.71,1.94-5.15,3.96-7.05l13.64-12.79,.26,.06c6.25,1.46,21.01,6.14,23.11,17.94v.08s0,.08,0,.08l-9.7,62.54-15.55,4.61Zm2.17-84.22l-13.25,12.42c-1.88,1.76-3.14,4.01-3.67,6.52l-4.67,22.27c-.77,3.7,.85,7.49,4.03,9.43,2.74,1.66,5.18,3.55,7.25,5.62,.06,.04,.14,.13,.21,.22,10.75,10.61,9.66,23.15,9.18,26.32l13.4-3.97,9.59-61.83c-2.03-11-15.9-15.52-22.08-17Z" fill="#231f20"></path>
      </g>
      <g>
        <path d="M350.35,313s-8.58-1.61-8.58,14.48l-2.15,40.23-1.07,18.24s-.12,10.59,12.81,14.41c12.17,3.6,23.33,.96,34.44-.7,.83-.12,1.12-1.17,.47-1.7-3.09-2.52-10.39-7.89-20.36-11.47,0,0-5.9-2.68-5.36-14.48l-1.61-37.01s1.61-20.38-8.58-21.99Z" fill="#f6991a"></path>
        <path d="M364.37,402.66c-4.28,0-8.65-.49-13.15-1.82-13.15-3.89-13.17-14.79-13.17-14.9l1.07-18.26,2.15-40.23c0-6.58,1.42-11.11,4.21-13.43,2.34-1.94,4.77-1.56,4.96-1.52,10.52,1.67,9.06,21.67,9,22.53l1.61,36.95c-.51,11.31,5.02,14.02,5.07,14.05,9.82,3.53,17.04,8.75,20.47,11.54,.46,.37,.64,.96,.49,1.52s-.61,.97-1.2,1.06c-1.45,.22-2.9,.45-4.35,.68-5.58,.9-11.27,1.82-17.15,1.82Zm-14.67-89.21c-.76,0-2.2,.19-3.6,1.36-2.5,2.1-3.83,6.48-3.83,12.67l-2.15,40.26-1.07,18.24c0,.39,.05,10.24,12.46,13.9,10.47,3.1,20.33,1.51,29.86-.03,1.46-.23,2.91-.47,4.36-.69,.28-.04,.36-.27,.38-.34s.06-.31-.16-.48c-3.38-2.75-10.5-7.89-20.21-11.39-.29-.13-6.24-2.98-5.69-14.98l-1.61-36.97c.02-.26,1.46-20-8.16-21.52h-.01s-.24-.04-.56-.04Z" fill="#231f20"></path>
      </g>
      <g>
        <path d="M239.81,384.31l-15.52-3.18s2.82-3.22,16.49-6.53c7.27-1.76,13.49-6.47,17.13-13,.06-.11,.12-.21,.18-.32l18.77-40.23s9.27-16.71,21.8-7.55l-8.93,50.46-31.11,24.68-17.17-3.22-1.65-1.11Z" fill="#f6991a"></path>
        <path d="M258.75,389.17l-17.58-3.34-1.57-1.06-16.26-3.33,.57-.65c.12-.14,3.08-3.38,16.75-6.68,7.12-1.72,13.25-6.37,16.81-12.76l.17-.32,18.76-40.2c.21-.38,4.9-8.7,12.25-10.31,3.45-.76,6.92,.1,10.3,2.57l.25,.18-.05,.31-8.96,50.65-31.44,24.94Zm-17.1-4.22l16.84,3.16,30.79-24.42,8.84-49.97c-3.05-2.15-6.16-2.9-9.24-2.22-6.91,1.52-11.53,9.71-11.58,9.79l-18.76,40.2-.19,.35c-3.69,6.63-10.05,11.45-17.44,13.24-9.77,2.36-13.95,4.69-15.48,5.76l14.66,3.04,1.56,1.05Z" fill="#231f20"></path>
      </g>
      <g>
        <ellipse cx="324.76" cy="352.46" rx="9.68" ry="14.02" transform="translate(-153.43 384.6) rotate(-51.19)" fill="#fff"></ellipse>
        <path d="M329.11,364.54c-.31,0-.63-.01-.96-.04-3.31-.24-6.78-1.7-9.78-4.11-3-2.41-5.17-5.49-6.11-8.67-.96-3.25-.54-6.22,1.18-8.36,3.52-4.38,11.46-3.85,17.69,1.16,3,2.41,5.17,5.49,6.11,8.67,.96,3.25,.54,6.22-1.18,8.36-1.56,1.94-4.01,2.98-6.96,2.98Zm-8.68-23.17c-2.55,0-4.78,.86-6.2,2.61-1.52,1.88-1.87,4.53-1,7.45,.89,2.99,2.94,5.89,5.78,8.17s6.11,3.67,9.22,3.89c3.04,.22,5.55-.69,7.06-2.58,1.52-1.88,1.87-4.53,1-7.45-.89-2.99-2.94-5.89-5.78-8.17-3.22-2.59-6.91-3.93-10.09-3.93Z" fill="#231f20"></path>
      </g>
      <path d="M319.92,354.32c-.35,0-.71-.07-1.04-.21-.75-.32-1.34-.95-1.59-1.73-.98-2.95,.88-6.73,.96-6.89,.12-.25,.42-.35,.67-.22,.25,.12,.35,.42,.22,.67-.02,.04-1.75,3.57-.91,6.13,.17,.5,.54,.91,1.03,1.12,.45,.19,.94,.18,1.37-.03,.9-.45,2.24-1.66,3.49-4.93,.1-.26,.39-.38,.65-.29,.26,.1,.39,.39,.29,.65-1.1,2.87-2.44,4.71-3.98,5.47-.36,.18-.76,.27-1.16,.27Z" fill="#231f20"></path>
      <g>
        <path d="M306.71,318.67c-1.61,1.53-2.8,3.46-3.45,5.59-1.74,5.72-5.58,17.72-9.14,24.5-1.41,2.69-3.98,4.57-6.97,5.13-3.25,.61-8.35,2.01-13.51,5.24,.23-.26,8.09-9.21,6.98-22.08-.26-3.1,.54-6.2,2.2-8.81,4.58-7.2,15.38-19.59,36.33-21.44l-12.45,11.88Z" fill="#f6991a"></path>
        <path d="M270.94,361.41l2.34-2.61c.33-.36,7.95-9.05,6.85-21.7-.27-3.16,.54-6.4,2.28-9.12,4.63-7.29,15.57-19.8,36.71-21.67l1.42-.13-13.48,12.86c-1.54,1.47-2.69,3.33-3.32,5.37-1.92,6.3-5.65,17.88-9.17,24.58-1.48,2.83-4.15,4.8-7.32,5.39-3.29,.62-8.28,2.01-13.34,5.17l-2.97,1.86Zm46.82-53.97c-19.77,2.26-30.08,14.1-34.51,21.06-1.62,2.54-2.38,5.56-2.13,8.5,.83,9.62-3.23,17.04-5.56,20.43,4.42-2.36,8.6-3.5,11.5-4.04,2.87-.54,5.28-2.32,6.62-4.87,3.61-6.88,7.57-19.36,9.1-24.41,.67-2.21,1.91-4.22,3.58-5.81l11.39-10.87Z" fill="#231f20"></path>
      </g>
      <g>
        <path d="M316.75,364.61c11.15,11.21,9.26,24.78,8.96,26.52-.03,.12-.04,.19-.04,.19-3.22,3.75-31.11,2.68-31.11,2.68-8.05,.54-9.12-4.29-9.12-4.29-1.07,2.68-5.9,3.22-5.9,3.22h-14.48v-14.48c.54-16.63,8.58-19.31,8.58-19.31,0,0,0,0,0,0,5.17-3.22,10.27-4.63,13.51-5.24,2.99-.56,5.56-2.44,6.97-5.13,3.56-6.78,7.4-18.77,9.14-24.5,.65-2.13,1.83-4.06,3.45-5.59l12.45-11.88c.4-.04,.79-.07,1.2-.1,.03,0,.06,0,.09,0,.47-.03,.94-.05,1.41-.05,.23,0,.46,0,.69,.01,.64,.02,1.27,.07,1.91,.14,.01,0,.02,0,.03,0,.42,.05,.84,.11,1.26,.18,.02,0,.03,0,.05,.01,.21,.04,.43,.08,.65,.12,.21,.04,.43,.09,.64,.14l-13.45,12.61c-1.94,1.81-3.27,4.18-3.81,6.79l-4.67,22.27c-.81,3.88,.87,7.89,4.26,9.96,2.83,1.72,5.2,3.59,7.16,5.55,.06,.05,.13,.12,.18,.18Z" fill="#fff"></path>
        <path d="M303.38,394.66c-4.36,0-7.87-.12-8.84-.16-6.08,.41-8.38-2.18-9.18-3.67-1.71,2.12-5.58,2.58-5.76,2.6h-15.04s0-14.98,0-14.98c.52-16.17,7.99-19.44,8.86-19.76,5.18-3.23,10.28-4.65,13.65-5.28,2.87-.54,5.28-2.32,6.62-4.87,3.61-6.88,7.57-19.36,9.1-24.41,.67-2.21,1.91-4.22,3.58-5.81l12.57-12,.17-.02c.4-.04,.8-.07,1.21-.1h.12c.64-.04,1.33-.06,2.01-.05h.1c.65,.02,1.3,.07,1.95,.15,.46,.05,.88,.12,1.31,.19l.13,.03c.1,0,.28,.04,.46,.08l.12,.02c.22,.04,.44,.09,.66,.14l.92,.21-14.14,13.25c-1.88,1.76-3.14,4.01-3.67,6.52l-4.67,22.27c-.77,3.7,.85,7.49,4.03,9.43,2.74,1.66,5.18,3.55,7.25,5.62,.05,.04,.13,.12,.2,.2,11.33,11.41,9.35,25.39,9.09,26.94l-.06,.32-.09,.11c-2.18,2.54-14.08,3.02-22.67,3.02Zm-8.85-1.16c7.66,.29,27.83,.42,30.68-2.42v-.06c.26-1.48,2.18-15.01-8.82-26.06l-.03-.03s-.08-.09-.12-.12c-2.05-2.04-4.43-3.88-7.1-5.5-3.54-2.16-5.35-6.37-4.49-10.49l4.67-22.27c.57-2.71,1.94-5.15,3.96-7.05l12.75-11.95c-.11-.02-.22-.04-.33-.06l-.1-.02c-.35-.05-.76-.12-1.17-.17-.66-.08-1.28-.13-1.9-.15-.29,0-.48-.01-.68-.01-.46,0-.92,.02-1.38,.05h-.12c-.32,.03-.65,.05-.98,.08l-12.32,11.76c-1.54,1.47-2.69,3.33-3.32,5.37-1.92,6.3-5.65,17.88-9.17,24.58-1.48,2.83-4.15,4.8-7.32,5.39-3.24,.61-8.13,1.97-13.11,5.02v.22h-.41c-.74,.31-7.69,3.59-8.18,18.83v13.97h13.98s4.49-.53,5.44-2.9l.6-1.5,.35,1.58c.04,.18,1.13,4.41,8.6,3.9Z" fill="#231f20"></path>
      </g>
      <g>
        <path d="M280.08,366.64l12.87,.54s8.58,.54,7.51,6.44c0,0-.81,5.68-9.14,7.51-3.27,.72-6.72,.51-9.77-.88-2.82-1.27-5.77-3.69-6.3-8.25,0,0,0-5.36,4.83-5.36Z" fill="#231f20"></path>
        <path d="M287.65,382.04c-2.22,0-4.35-.45-6.3-1.33-3.85-1.74-6.13-4.73-6.59-8.64,0-2.09,1.11-5.92,5.32-5.92h.02s12.87,.54,12.87,.54c.21,.01,4.98,.34,7.09,3.04,.87,1.11,1.17,2.45,.89,3.98-.03,.23-.96,6.03-9.52,7.91-1.27,.28-2.54,.42-3.78,.42Zm-7.58-14.9c-4.25,0-4.32,4.67-4.32,4.87,.42,3.54,2.44,6.18,6.01,7.79,2.84,1.29,6.12,1.58,9.46,.84,7.86-1.73,8.72-6.88,8.75-7.1,.23-1.27,0-2.32-.69-3.2-1.84-2.35-6.32-2.66-6.36-2.66l-12.85-.54Z" fill="#231f20"></path>
      </g>
      <path d="M285.44,390.21s-.01,0-.02,0c-.28-.01-.49-.24-.48-.52l.32-8.16c.01-.28,.21-.51,.52-.48,.28,.01,.49,.24,.48,.52l-.32,8.16c-.01,.27-.23,.48-.5,.48Z" fill="#231f20"></path>
      <g>
        <ellipse cx="287.91" cy="345.25" rx="8.59" ry="5.6" transform="translate(-153.07 257.93) rotate(-38.97)" fill="#fff"></ellipse>
        <path d="M284.91,352.69c-1.73,0-3.15-.6-4.06-1.72-1.05-1.3-1.27-3.12-.62-5.13,.62-1.93,1.99-3.83,3.85-5.33,1.86-1.5,4-2.45,6.02-2.65,2.1-.21,3.84,.38,4.89,1.68,2.12,2.62,.67,7.31-3.23,10.46-1.86,1.5-4,2.44-6.02,2.65-.28,.03-.56,.04-.82,.04Zm6-13.88c-.23,0-.47,.01-.72,.04-1.83,.19-3.78,1.05-5.49,2.44h0c-1.71,1.38-2.96,3.11-3.53,4.86-.54,1.68-.38,3.17,.45,4.19,.83,1.03,2.25,1.5,4.01,1.31,1.83-.19,3.78-1.05,5.49-2.43,3.47-2.81,4.85-6.87,3.08-9.05-.71-.88-1.87-1.35-3.29-1.35Z" fill="#231f20"></path>
      </g>
      <path d="M286.24,348.81c-.61,0-1.19-.34-1.48-.93-.68-1.38-.35-3.74-.34-3.84,.04-.27,.29-.46,.57-.42,.27,.04,.46,.29,.42,.57-.08,.59-.2,2.34,.25,3.25,.16,.33,.55,.46,.88,.31,.72-.34,2.04-1.41,2.72-4.8,.05-.27,.33-.45,.59-.39,.27,.05,.45,.32,.39,.59-.73,3.63-2.18,5-3.28,5.51-.23,.11-.47,.16-.71,.16Z" fill="#231f20"></path>
      <g>
        <path d="M251,377.26c-4.94,.88-11.27,3.47-12.23,10.84,0,0-.54,4.83,4.29,5.36h21.61c2.76,0,5.04-2.27,4.94-5.03-.04-.99-.27-2.17-.81-3.55,0,0-1.16-2.54-4.53-4.89-3.85-2.69-8.66-3.56-13.28-2.73Z" fill="#fff"></path>
        <path d="M264.68,393.96h-21.61c-2.8-.31-3.95-1.92-4.42-3.21-.5-1.37-.37-2.65-.36-2.71,1-7.63,7.42-10.35,12.64-11.28l.09,.49-.09-.49c4.94-.88,9.79,.11,13.66,2.81,3.44,2.4,4.65,4.99,4.7,5.1,.53,1.37,.81,2.62,.85,3.74,.05,1.44-.48,2.82-1.49,3.87-1.03,1.07-2.47,1.68-3.95,1.68Zm-10.27-16.51c-1.09,0-2.2,.1-3.32,.3-4.89,.88-10.91,3.39-11.82,10.42-.02,.17-.41,4.33,3.85,4.8h21.56c1.21,0,2.39-.5,3.23-1.37,.82-.85,1.25-1.97,1.21-3.14-.04-1.01-.3-2.16-.77-3.39h0s-1.14-2.43-4.35-4.66c-2.78-1.94-6.1-2.95-9.59-2.95Z" fill="#231f20"></path>
      </g>
      <path d="M245.05,393.56h0c-.28,0-.5-.23-.49-.51l.11-6.29c.04-2.03,.61-4.02,1.65-5.76l1.69-2.82c.14-.24,.45-.31,.69-.17,.24,.14,.31,.45,.17,.69l-1.69,2.82c-.95,1.59-1.48,3.41-1.51,5.26l-.11,6.29c0,.27-.23,.49-.5,.49Z" fill="#231f20"></path>
      <path d="M260.73,393.97c-.05,0-.11,0-.16-.03-.26-.09-.4-.37-.31-.63,.45-1.34,1.09-2.59,1.9-3.72,1.29-1.8,2.19-3.25,1.97-5.6l-.11-1.21c-.02-.27,.18-.52,.45-.54,.28-.02,.52,.18,.54,.45l.11,1.21c.25,2.69-.79,4.36-2.16,6.27-.75,1.05-1.35,2.21-1.77,3.45-.07,.21-.26,.34-.47,.34Z" fill="#231f20"></path>
      <path d="M253.79,391.82c-.26,0-.48-.2-.5-.47-.54-8.12,1.6-11.44,1.69-11.58,.15-.23,.46-.29,.69-.14,.23,.15,.29,.46,.14,.69h0s-2.04,3.22-1.53,10.96c.02,.28-.19,.51-.47,.53-.01,0-.02,0-.03,0Z" fill="#231f20"></path>
      <g>
        <path d="M333.61,386.38c-4.94,.88-11.27,3.47-12.23,10.84,0,0-.54,4.83,4.29,5.36h21.61c2.76,0,5.04-2.27,4.94-5.03-.04-.99-.27-2.17-.81-3.55,0,0-1.16-2.54-4.53-4.89-3.85-2.69-8.66-3.56-13.28-2.73Z" fill="#fff"></path>
        <path d="M347.29,403.08h-21.61c-5.32-.59-4.79-5.87-4.79-5.92,1-7.63,7.42-10.35,12.64-11.28l.09,.49-.09-.49c4.94-.88,9.79,.11,13.66,2.81,3.44,2.4,4.65,4.99,4.7,5.1,.53,1.37,.81,2.62,.85,3.74,.05,1.44-.48,2.82-1.49,3.87-1.03,1.07-2.47,1.68-3.95,1.68Zm-10.27-16.51c-1.09,0-2.2,.1-3.32,.3-4.89,.88-10.91,3.39-11.82,10.42-.02,.17-.41,4.33,3.85,4.8h21.56c1.21,0,2.39-.5,3.23-1.38,.82-.85,1.25-1.97,1.21-3.14-.04-1.01-.3-2.16-.77-3.39h0s-1.15-2.43-4.35-4.66c-2.78-1.94-6.1-2.95-9.59-2.95Z" fill="#231f20"></path>
      </g>
      <path d="M329.8,403.22h0c-.28,0-.5-.23-.49-.51l.11-6.29c.04-2.03,.61-4.02,1.65-5.76l1.69-2.82c.14-.24,.45-.31,.69-.17,.24,.14,.31,.45,.17,.69l-1.69,2.82c-.95,1.59-1.48,3.41-1.51,5.26l-.11,6.29c0,.27-.23,.49-.5,.49Z" fill="#231f20"></path>
      <path d="M340.12,403.09c-.05,0-.11,0-.16-.03-.26-.09-.4-.37-.31-.63l.67-1.98c.98-2.89,1.33-5.9,1.06-8.94l-.11-1.21c-.03-.27,.18-.52,.45-.54,.25-.03,.52,.18,.54,.45l.11,1.21c.29,3.18-.08,6.33-1.11,9.36l-.67,1.98c-.07,.21-.27,.34-.47,.34Z" fill="#231f20"></path>
    </g>
    <g>
      <path d="M633.58,355.91l-41.3-3.75,9.16-69.71c.28-2.16,2.13-3.78,4.31-3.78h35.09c2.67,0,4.71,2.39,4.29,5.03l-11.53,72.22Z" fill="#a2750b"></path>
      <path d="M634,356.45l-42.29-3.84,9.23-70.23c.32-2.4,2.38-4.21,4.8-4.21h35.09c1.42,0,2.76,.62,3.68,1.7,.92,1.08,1.32,2.5,1.1,3.91l-11.61,72.68Zm-41.16-4.75l40.32,3.67,11.46-71.76c.18-1.11-.14-2.24-.87-3.1s-1.8-1.35-2.92-1.35h-35.09c-1.92,0-3.56,1.44-3.81,3.34l-9.09,69.2Z" fill="#231f20"></path>
    </g>
    <path d="M634.65,279.17s-.02,0-.03,0c-.28-.02-.49-.25-.47-.53,.06-1.02,.03-1.39-.09-2.19-.45-2.93-2.81-4.04-4.7-4.1-2.04-.08-4.42,1.1-5.01,3.85-.28,1.28-.25,2.31-.25,2.32,0,.28-.21,.51-.48,.52,0,0-.01,0-.02,0-.27,0-.49-.21-.5-.48,0-.05-.03-1.15,.27-2.56,.71-3.31,3.52-4.71,6.02-4.64,2.45,.08,5.16,1.63,5.66,4.95,.13,.86,.17,1.29,.1,2.4-.02,.27-.24,.47-.5,.47Z" fill="#231f20"></path>
    <g>
      <polygon points="609.59 285.06 607.15 303.26 615.73 303.39 618.17 285.19 609.59 285.06" fill="#858fa8"></polygon>
      <path d="M616.17,303.9l-9.59-.15,2.57-19.2,9.59,.15-2.57,19.2Zm-8.45-1.13l7.58,.12,2.3-17.2-7.58-.12-2.3,17.2Z" fill="#231f20"></path>
    </g>
    <g>
      <ellipse cx="613.47" cy="290.47" rx="2.15" ry="1.88" transform="translate(227.3 848.67) rotate(-80.66)" fill="#231f20"></ellipse>
      <path d="M613.39,293.11c-.12,0-.24,0-.35-.03-.64-.1-1.19-.48-1.55-1.06-.35-.56-.48-1.25-.37-1.93,.11-.69,.46-1.29,.96-1.71,.53-.43,1.17-.62,1.81-.51,.64,.1,1.19,.48,1.55,1.06,.35,.56,.48,1.25,.37,1.93-.11,.69-.46,1.29-.96,1.71-.43,.35-.94,.54-1.46,.54Zm.15-4.28c-.29,0-.58,.11-.83,.31-.32,.27-.54,.66-.61,1.1-.07,.45,0,.89,.23,1.24,.21,.33,.51,.55,.86,.61,.35,.06,.71-.05,1.01-.3,.32-.27,.54-.66,.61-1.1,.07-.45,0-.89-.23-1.24-.21-.33-.51-.55-.86-.61-.06-.01-.13-.02-.19-.02Z" fill="#231f20"></path>
    </g>
    <g>
      <ellipse cx="611.86" cy="297.98" rx="2.15" ry="1.88" transform="translate(176.48 821.06) rotate(-76.19)" fill="#231f20"></ellipse>
      <path d="M611.74,300.61c-.17,0-.35-.02-.52-.06-1.27-.31-2.03-1.72-1.68-3.14,.35-1.42,1.67-2.32,2.94-2,.63,.15,1.15,.57,1.46,1.18,.3,.59,.38,1.28,.21,1.95h0c-.17,.67-.55,1.25-1.09,1.63-.41,.29-.86,.43-1.33,.43Zm.23-4.26c-.65,0-1.26,.53-1.45,1.3-.22,.88,.21,1.75,.95,1.93,.35,.08,.71,0,1.03-.22,.34-.24,.59-.61,.7-1.05h0c.11-.44,.06-.89-.13-1.26-.18-.35-.47-.59-.81-.67-.09-.02-.19-.03-.28-.03Z" fill="#231f20"></path>
    </g>
    <path d="M603.01,305.99s-.05,0-.07,0c-.27-.04-.46-.29-.42-.57l2.86-20c.24-1.71,1.67-2.98,3.39-3.04l32.85-1c.32,0,.51,.21,.52,.48,0,.28-.21,.51-.49,.52l-32.85,1c-1.24,.04-2.26,.95-2.43,2.18l-2.86,20c-.04,.25-.25,.43-.49,.43Z" fill="#231f20"></path>
    <g>
      <path d="M542.92,188.54c-5.63-3.74-13.87-3.56-18.32-3.11,13.3-1.5,18.07,2.87,18.32,3.11Z" fill="#231f20"></path>
      <path d="M542.64,188.96c-5.51-3.66-13.64-3.46-17.99-3.02l-.11-.99c13.56-1.53,18.52,3.05,18.72,3.24l-.62,.78Z" fill="#231f20"></path>
    </g>
    <g>
      <path d="M533.51,171.55c-7.68-2.62-13.27-10.59-13.27-20.01,0-6.84,2.95-12.92,7.51-16.74v18.62c0,6.75,2.13,13.01,5.76,18.13Z" fill="#a2750b"></path>
      <path d="M534.81,172.52l-1.46-.5c-8.14-2.78-13.61-11.01-13.61-20.48,0-6.79,2.8-13.03,7.69-17.12l.82-.69v19.69c0,6.43,1.96,12.6,5.67,17.84l.89,1.26Zm-7.56-36.61c-4.15,3.9-6.51,9.53-6.51,15.63,0,8.46,4.55,15.87,11.46,18.96-3.25-5.11-4.96-10.98-4.96-17.08v-17.51Z" fill="#231f20"></path>
    </g>
    <g>
      <path d="M642.16,364.5s5.36-16.63,3.22-28.43l1.16-9.63c.26-2.13-1.17-4.1-3.28-4.53h0c-2.33-.47-4.58,1.14-4.89,3.5l-2.11,16.02-8.62-29.68c-.6-2.06-2.61-3.37-4.74-3.09h0c-2.39,.32-4.07,2.53-3.72,4.92l4.05,28.42c.15,1.04-1.34,1.41-1.69,.42l-11.06-30.88c-.86-2.41-3.58-3.6-5.93-2.59h0c-1.86,.8-2.95,2.76-2.64,4.76l6.13,35.63c.09,.55-.69,.76-.88,.24l-9.92-27.01c-.72-1.84-2.6-2.95-4.56-2.69h0c-2.52,.34-4.19,2.78-3.6,5.25l2.64,10.94s-5.9,.54-1.61,13.41l4.29,12.34s2.68,9.12,12.87,15.56c0,0,15.25,12.79,33.5,8.69,2.24-.5,4.38-1.44,6.18-2.85,3.9-3.06,7.85-9.3-4.82-18.71Z" fill="#f2b3c1"></path>
      <path d="M633.51,387.36c-14.88,0-26.41-9.5-26.54-9.61-10.18-6.42-12.92-15.42-13.03-15.8l-4.28-12.31c-1.93-5.78-2.11-9.92-.55-12.3,.66-1.02,1.49-1.45,2.03-1.64l-2.52-10.45c-.32-1.31-.06-2.71,.7-3.82,.76-1.12,1.97-1.86,3.31-2.04,2.19-.3,4.29,.94,5.09,3.01l9.93,27.02-6.21-35.61c-.35-2.24,.86-4.42,2.94-5.31,1.27-.54,2.66-.54,3.92,.01,1.26,.55,2.21,1.57,2.68,2.87l11.05,30.88c.11,.3,.37,.26,.44,.24,.08-.02,.33-.11,.28-.42l-4.05-28.42c-.19-1.29,.14-2.57,.93-3.61,.79-1.04,1.93-1.71,3.22-1.88,2.39-.32,4.61,1.13,5.28,3.45l7.95,27.39,1.8-13.66c.17-1.28,.84-2.4,1.89-3.15,1.05-.75,2.33-1.03,3.59-.77,2.35,.47,3.96,2.7,3.68,5.08l-1.15,9.56c1.94,10.85-2.4,25.81-3.14,28.26,5.62,4.24,8.5,8.3,8.55,12.08,.03,2.64-1.35,5.14-4,7.22-1.8,1.41-3.95,2.4-6.38,2.95-2.53,.57-5.01,.81-7.4,.81Zm-40.25-67.02c-.17,0-.34,.01-.51,.03-1.06,.14-2.01,.73-2.62,1.61s-.81,1.98-.56,3.02l2.78,11.5-.58,.05s-1.08,.13-1.86,1.35c-.94,1.46-1.58,4.62,.68,11.4l4.29,12.33c.03,.11,2.77,9.05,12.67,15.3,.21,.17,15.34,12.63,33.13,8.63,2.29-.51,4.31-1.44,5.99-2.76,2.43-1.91,3.65-4.06,3.62-6.42-.05-3.51-2.88-7.38-8.43-11.5l-.29-.21,.11-.34c.05-.17,5.3-16.65,3.2-28.19v-.07s0-.07,0-.07l1.16-9.63c.22-1.86-1.04-3.61-2.88-3.98-.99-.2-1.99,.02-2.81,.61-.82,.59-1.35,1.47-1.48,2.47l-2.42,18.39-9.28-31.97c-.53-1.84-2.3-2.99-4.19-2.73-1.02,.14-1.93,.67-2.55,1.49-.62,.82-.88,1.84-.74,2.86l4.05,28.42c.1,.73-.32,1.35-1.03,1.53-.71,.18-1.38-.18-1.62-.87l-11.05-30.88c-.37-1.03-1.13-1.85-2.14-2.29-1.01-.44-2.12-.44-3.13,0-1.66,.71-2.62,2.45-2.34,4.23l6.13,35.62c.08,.5-.21,.96-.7,1.09-.49,.13-.97-.12-1.15-.59l-9.92-27.01c-.57-1.46-1.97-2.4-3.51-2.4Z" fill="#231f20"></path>
    </g>
    <path d="M596.03,352.12c-.22,0-.42-.15-.48-.37l-4.29-15.56c-.07-.27,.08-.54,.35-.61,.26-.07,.54,.08,.62,.35l4.29,15.56c.07,.27-.08,.54-.35,.61-.04,.01-.09,.02-.13,.02Z" fill="#231f20"></path>
    <path d="M604.43,369.17c-2.53,0-4.8-1.49-4.92-1.57-.23-.15-.29-.46-.14-.69,.15-.23,.46-.29,.69-.14,.03,.02,3.35,2.19,6.07,1.09,1.63-.66,2.76-2.36,3.36-5.08,.04-.16,.14-.29,.29-.35s.31-.05,.45,.03c.03,.02,2.66,1.51,5.24,.7,1.56-.49,2.81-1.74,3.71-3.69,.11-.25,.41-.36,.66-.25,.03,.01,2.41,1.06,4.38,.11,1.18-.57,2-1.76,2.44-3.53,.03-.14,.13-.25,.25-.32,.12-.07,.27-.08,.4-.03,.02,0,1.78,.61,3.52-.4,1.66-.96,2.78-3.05,3.33-6.19,.05-.27,.32-.45,.58-.41,.27,.05,.45,.31,.41,.58-.61,3.46-1.9,5.78-3.83,6.89-1.53,.89-3.05,.76-3.82,.6-.55,1.81-1.5,3.05-2.85,3.7-1.85,.89-3.88,.38-4.76,.08-1.01,1.98-2.4,3.26-4.12,3.81-2.24,.71-4.43-.04-5.45-.49-.72,2.7-2,4.44-3.82,5.17-.68,.27-1.38,.38-2.07,.38Z" fill="#231f20"></path>
    <g>
      <path d="M380.93,292.62s3.22-.54,3.75-2.68c0,0,1.07-5.36,9.12-4.29,0,0,3.75-7.51,11.8-3.22,0,0,11.33-5.91,19.35,3.03,.74,.83,1.31,1.8,1.69,2.85,.94,2.65,2.24,8.05-.91,12.04-.59,.74-1.32,1.35-2.13,1.83-1.64,.98-5.36,3.38-6.19,5.45,0,0-2.05,5.34-5.44,4.52-.95-.23-1.71-.94-2.14-1.81-.95-1.93-2.31-6.22,1.68-10.21,0,0,2.3-2.01,2.69-4.35,.23-1.34-1.07-2.44-2.36-1.99l-5.96,2.08c-1.76,.61-3.04,2.13-3.35,3.97-.94,5.49-3.93,16.55-12.48,13.7l-.47,2.57c-.34,1.89-2.06,3.23-3.98,3.09h0c-2.22-.16-3.82-2.19-3.45-4.38l.39-2.35s-4.29,2.15-4.29-5.9c0,0-1.61,0-1.61-5.9,0,0-1.07-9.12,4.29-8.05Z" fill="#f2b3c1"></path>
      <path d="M385.87,319.71c-.1,0-.21,0-.31-.01-1.2-.08-2.31-.67-3.05-1.62-.74-.94-1.06-2.16-.86-3.35l.26-1.56c-.56,.1-1.33,.09-2.07-.36-1.34-.83-2.05-2.81-2.1-5.89-.67-.38-1.61-1.71-1.61-6.26-.02-.17-.64-5.63,1.68-7.78,.81-.75,1.85-1.01,3.11-.78,.48-.1,2.86-.67,3.27-2.29,0-.04,1.22-5.63,9.33-4.71,.51-.86,2.13-3.23,5-4.15,2.18-.69,4.56-.39,7.09,.9,1.71-.79,12.18-5.14,19.71,3.26,.78,.87,1.38,1.89,1.78,3.02,1.03,2.9,2.28,8.39-.99,12.52-.59,.75-1.36,1.41-2.27,1.95-3.21,1.91-5.45,3.86-5.99,5.21-.09,.23-2.26,5.73-6.02,4.82-1.04-.25-1.94-1.01-2.47-2.08-.9-1.81-2.51-6.5,1.78-10.79,.05-.04,2.19-1.95,2.55-4.08,.08-.46-.09-.91-.44-1.21-.35-.3-.82-.38-1.25-.23l-5.96,2.08c-1.58,.55-2.74,1.92-3.03,3.58-.68,3.97-2.47,11.02-6.76,13.59-1.72,1.03-3.68,1.25-5.82,.67l-.37,2.02c-.37,2.05-2.15,3.51-4.2,3.51Zm-2.68-8.13l-.55,3.32c-.15,.91,.09,1.84,.66,2.56,.57,.72,1.42,1.17,2.34,1.24,1.68,.11,3.15-1.03,3.45-2.68l.57-3.14,.55,.18c2.07,.69,3.94,.55,5.54-.41,3.95-2.36,5.63-9.1,6.29-12.9,.34-2.01,1.76-3.68,3.68-4.35l5.96-2.08c.77-.27,1.6-.12,2.23,.41,.63,.53,.92,1.33,.78,2.14-.42,2.49-2.75,4.55-2.85,4.64-3.67,3.67-2.56,7.6-1.56,9.62,.4,.8,1.06,1.37,1.81,1.55,2.94,.71,4.84-4.16,4.86-4.21,.86-2.15,4.38-4.5,6.41-5.7,.81-.48,1.48-1.06,2-1.71,2.97-3.76,1.8-8.86,.83-11.57-.36-1.01-.89-1.91-1.59-2.68-7.67-8.54-18.3-3.16-18.75-2.92l-.23,.12-.23-.12c-2.36-1.26-4.56-1.58-6.54-.95-3.06,.98-4.57,3.92-4.58,3.95l-.16,.32-.35-.05c-7.49-1-8.55,3.84-8.56,3.89-.61,2.46-4.02,3.05-4.16,3.08l-.09,.02-.09-.02c-.98-.19-1.74-.03-2.33,.52-1.95,1.8-1.37,6.93-1.37,6.98,0,5.01,1.16,5.46,1.17,5.46h.5l-.06,.5c0,3.63,.88,4.94,1.63,5.39,.91,.56,1.93,.06,1.94,.06l.88-.44Z" fill="#231f20"></path>
    </g>
    <path d="M382.54,312.96c-.28,0-.5-.22-.5-.5,0-.99,.03-9.85,1.08-14.59,.06-.27,.32-.44,.6-.38,.27,.06,.44,.33,.38,.6-1.03,4.64-1.06,13.39-1.06,14.38,0,.28-.22,.5-.5,.5Z" fill="#231f20"></path>
    <path d="M390.05,314.04c-.05,0-.11,0-.16-.03-.26-.09-.4-.38-.31-.64,.35-1.01,8.68-24.84,13.53-29.69,.2-.2,.51-.2,.71,0s.2,.51,0,.71c-4.69,4.69-13.21,29.07-13.29,29.31-.07,.21-.27,.34-.47,.34Z" fill="#231f20"></path>
    <g>
      <path d="M708.52,353.33s6.44-2.15,1.07-7.51c0,0-20.38-13.41-5.9-23.6,0,0,18.77-9.12,34.33,13.95,0,0,14.21,16.85,13.96,53.14,0,1.26-.26,2.51-.81,3.64-1.52,3.15-5.8,6.83-17.44-3.68,0,0-6.55-4.09-9.99-11.92-1.03-2.34-2.87-4.22-5.18-5.31-6.81-3.22-19.3-10.66-10.04-18.71Z" fill="#2bb673"></path>
      <path d="M746.25,396.74c-3.32,0-7.63-2.38-12.85-7.09-.2-.12-6.65-4.21-10.11-12.09-.98-2.22-2.73-4.02-4.93-5.06-5.79-2.73-12.84-7.09-13.56-12.35-.35-2.5,.8-4.92,3.41-7.19l.17-.1s2.4-.83,2.81-2.58c.27-1.16-.36-2.53-1.89-4.07-.87-.58-11.16-7.6-11.28-15.47-.05-3.36,1.77-6.37,5.41-8.93,.26-.14,19.42-9.08,35.03,14.08,.11,.13,14.3,17.36,14.04,53.43,0,1.38-.31,2.71-.86,3.86-.92,1.91-2.36,3.1-4.16,3.45-.39,.08-.79,.11-1.21,.11Zm-37.47-42.97c-2.29,2.01-3.3,4.11-3,6.23,.7,5.07,8.45,9.44,13,11.59,2.42,1.14,4.35,3.12,5.42,5.56,3.34,7.58,9.73,11.65,9.8,11.69,5.62,5.07,10.2,7.4,13.27,6.79,1.5-.29,2.67-1.27,3.46-2.91,.49-1.01,.75-2.2,.76-3.43,.25-35.7-13.7-52.65-13.84-52.82-15.15-22.46-32.98-14.18-33.73-13.82-3.28,2.32-4.96,5.04-4.91,8.06,.12,7.52,10.76,14.61,10.87,14.68l.08,.06c1.82,1.82,2.55,3.51,2.19,5.05-.49,2.08-2.84,3.06-3.36,3.26Z" fill="#231f20"></path>
    </g>
    <g>
      <path d="M763.77,316.85s12.34,7.51,13.41-7.51c0,0,0-13.38,9.96-15.04,3.11-.52,6.24,.89,7.86,3.59,3.7,6.17,7.24,22.06-8.7,60.26,0,0-9.12,19.54-20.49,24.52-3.15,1.38-6.79,1.17-9.83-.44-4.64-2.45-11.7-8.48-12.06-22.47,0,0-.54-18.24,8.58-17.17,0,0,9.13,1.44,6.01-7.04-.32-.88-.79-1.71-1.35-2.47-2.17-2.99-8.52-12.47-6.28-17.84,0,0,1.61-6.44,12.87,1.61Z" fill="#2bb673"></path>
      <path d="M761.4,384.08c-1.94,0-3.89-.47-5.66-1.4-4.44-2.35-11.95-8.45-12.32-22.9-.01-.48-.3-11.92,4.33-16.16,1.34-1.22,2.96-1.73,4.81-1.52,.06,0,3.88,.58,5.44-1.32,.88-1.07,.89-2.77,.05-5.06-.29-.78-.72-1.57-1.28-2.35-2.67-3.68-8.62-12.84-6.33-18.33,0,0,.45-1.74,2.39-2.45,2.56-.94,6.33,.35,11.22,3.83,.3,.18,5.23,3.02,8.79,1.18,2.24-1.16,3.54-3.95,3.85-8.3,0-.1,.12-13.78,10.38-15.49,3.3-.55,6.67,.99,8.37,3.83,3.67,6.12,7.43,22.15-8.67,60.71-.38,.82-9.34,19.78-20.75,24.78-1.45,.64-3.03,.95-4.61,.95Zm-9.67-41.03c-1.25,0-2.34,.43-3.3,1.31-4.29,3.93-4.01,15.28-4.01,15.39,.36,13.94,7.54,19.79,11.79,22.04,2.94,1.55,6.45,1.71,9.4,.42,11.06-4.85,20.14-24.08,20.23-24.27,15.92-38.14,12.3-53.83,8.73-59.79-1.49-2.49-4.45-3.84-7.35-3.35-9.43,1.57-9.55,14.41-9.55,14.54-.34,4.76-1.82,7.83-4.39,9.16-4.16,2.14-9.55-1.08-9.78-1.22l-.03-.02c-5.72-4.09-8.75-4.28-10.29-3.73-1.45,.52-1.79,1.78-1.81,1.83-2.17,5.23,4.2,14.66,6.2,17.42,.62,.85,1.09,1.73,1.41,2.59,.97,2.65,.9,4.68-.22,6.04-1.92,2.34-6.16,1.7-6.34,1.67-.24-.03-.47-.04-.7-.04Z" fill="#231f20"></path>
    </g>
    <g>
      <path d="M804.22,373.5c.02-1.86-1.32-3.47-3.13-3.87-3.77-.84-11.98-.75-24.44,9.45,0,0-7.55,6.04-7.99,12.21-.22,3.12,2,5.82,5.07,6.46,3.51,.72,9.53,0,18.48-7.4,0,0,11.91-9.45,12.01-16.84Z" fill="#2bb673"></path>
      <path d="M775.95,398.46c-.87,0-1.64-.09-2.32-.23-3.35-.69-5.7-3.69-5.47-6.98,.45-6.31,7.86-12.31,8.18-12.56,12.61-10.32,20.99-10.41,24.86-9.55,2.07,.46,3.55,2.3,3.52,4.37h0c-.1,7.54-11.71,16.84-12.2,17.23-7.38,6.11-12.85,7.73-16.56,7.73Zm22.04-28.66c-4.36,0-11.38,1.77-21.03,9.66-.08,.06-7.39,5.98-7.81,11.86-.2,2.79,1.81,5.34,4.67,5.93,3.37,.7,9.25,0,18.06-7.3,.12-.1,11.74-9.39,11.83-16.46,.02-1.6-1.13-3.02-2.74-3.38-.8-.18-1.79-.31-2.99-.31Z" fill="#231f20"></path>
    </g>
    <g>
      <rect x="689.21" y="467.86" width="154.49" height="133.03" rx="31.48" ry="31.48" fill="#fff"></rect>
      <path d="M812.22,601.39h-91.53c-17.63,0-31.98-14.35-31.98-31.98v-70.07c0-17.63,14.35-31.98,31.98-31.98h91.53c17.63,0,31.98,14.35,31.98,31.98v70.07c0,17.63-14.35,31.98-31.98,31.98Zm-91.53-133.03c-17.08,0-30.98,13.9-30.98,30.98v70.07c0,17.08,13.9,30.98,30.98,30.98h91.53c17.08,0,30.98-13.9,30.98-30.98v-70.07c0-17.08-13.9-30.98-30.98-30.98h-91.53Z" fill="#231f20"></path>
    </g>
    <g>
      <polygon points="729.44 425.75 733.2 467.59 778.79 467.59 782.55 425.75 729.44 425.75" fill="#858fa8"></polygon>
      <path d="M779.25,468.09h-46.51l-3.84-42.84h54.2l-3.84,42.84Zm-45.6-1h44.68l3.67-40.84h-52.01l3.67,40.84Z" fill="#231f20"></path>
    </g>
    <g>
      <rect x="724.08" y="407.51" width="63.83" height="18.24" rx="4.6" ry="4.6" fill="#858fa8"></rect>
      <path d="M783.32,426.25h-54.64c-2.81,0-5.1-2.29-5.1-5.1v-9.05c0-2.81,2.29-5.1,5.1-5.1h54.64c2.81,0,5.1,2.29,5.1,5.1v9.05c0,2.81-2.29,5.1-5.1,5.1Zm-54.64-18.24c-2.26,0-4.1,1.84-4.1,4.1v9.05c0,2.26,1.84,4.1,4.1,4.1h54.64c2.26,0,4.1-1.84,4.1-4.1v-9.05c0-2.26-1.84-4.1-4.1-4.1h-54.64Z" fill="#231f20"></path>
    </g>
    <g>
      <ellipse cx="756.26" cy="407.78" rx="28.43" ry="1.88" fill="#231f20"></ellipse>
      <path d="M756.26,410.16c-7.61,0-14.76-.2-20.14-.55-8.79-.58-8.79-1.27-8.79-1.83s0-1.25,8.79-1.83c5.38-.36,12.53-.55,20.14-.55s14.75,.2,20.14,.55c8.79,.58,8.79,1.27,8.79,1.83s0,1.25-8.79,1.83c-5.38,.35-12.53,.55-20.14,.55Zm-27.4-2.38c2.57,.64,12.31,1.38,27.4,1.38s24.82-.74,27.39-1.38c-2.57-.64-12.31-1.38-27.39-1.38s-24.82,.74-27.4,1.38Z" fill="#231f20"></path>
    </g>
    <path d="M752.39,410.04c-.24,0-.45-.17-.49-.42-4.33-25.97-15.78-42.43-15.89-42.59-.16-.23-.11-.54,.12-.7,.22-.16,.54-.11,.7,.12,.12,.16,11.69,16.8,16.06,43,.05,.27-.14,.53-.41,.58-.03,0-.06,0-.08,0Z" fill="#231f20"></path>
    <path d="M758.41,410.16c-.27,0-.5-.22-.5-.5-.53-56.39,20.82-83.2,21.03-83.47,.18-.21,.49-.24,.7-.07,.21,.17,.25,.49,.07,.7-.21,.26-21.34,26.83-20.81,82.82,0,.28-.22,.5-.5,.5h0Z" fill="#231f20"></path>
    <path d="M764.31,410.16c-.24,0-.46-.18-.49-.43-.07-.47-1.46-11.71,15.25-21.95,.24-.14,.54-.07,.69,.17,.14,.24,.07,.54-.17,.69-16.16,9.91-14.8,20.85-14.79,20.96,.04,.27-.15,.53-.42,.57-.02,0-.05,0-.07,0Z" fill="#231f20"></path>
    <path d="M819.56,600.59c-.28,0-.5-.22-.5-.5v-77.72c0-14.33-11.66-25.99-25.99-25.99h-103.09c-.28,0-.5-.22-.5-.5s.22-.5,.5-.5h103.09c14.88,0,26.99,12.11,26.99,26.99v77.72c0,.28-.22,.5-.5,.5Z" fill="#231f20"></path>
    <g>
      <path d="M675.03,320.31c-2.07,.89-4.35,1.37-6.74,1.37-9.48,0-17.17-7.69-17.17-17.17s7.69-17.17,17.17-17.17h.13c1.59,14.47,4.61,26.25,6.61,32.96Z" fill="#fff"></path>
      <path d="M668.29,322.18c-9.74,0-17.67-7.92-17.67-17.67s7.92-17.67,17.67-17.67h.58l.05,.45c1.55,14.11,4.44,25.67,6.6,32.87l.13,.43-.41,.18c-2.19,.94-4.53,1.41-6.94,1.41Zm-.32-34.33c-9.04,.17-16.35,7.58-16.35,16.66s7.48,16.67,16.67,16.67c2.12,0,4.19-.39,6.13-1.16-2.13-7.19-4.92-18.46-6.45-32.16Z" fill="#231f20"></path>
    </g>
    <g>
      <path d="M665.47,233c-3.88,2.81-8.65,4.46-13.81,4.46-13.04,0-23.6-10.57-23.6-23.6,0-10.56,6.94-19.5,16.5-22.51,1.75,.8,3.47,1.83,5.12,3.11,0,0,11.15,6.81,15.8,38.55Z" fill="#fff"></path>
      <path d="M651.66,237.96c-13.29,0-24.1-10.81-24.1-24.1,0-10.57,6.77-19.81,16.85-22.99l.18-.06,.17,.08c1.84,.84,3.59,1.91,5.22,3.17,.42,.25,11.35,7.27,15.99,38.87l.04,.3-.25,.18c-4.12,2.98-9,4.56-14.11,4.56Zm-7.14-46.08c-9.56,3.1-15.97,11.91-15.97,21.98,0,12.74,10.36,23.1,23.1,23.1,4.79,0,9.38-1.45,13.27-4.19-4.58-30.79-15.41-37.82-15.52-37.89-1.55-1.2-3.18-2.2-4.89-3Z" fill="#231f20"></path>
    </g>
    <g>
      <circle cx="596.95" cy="254.09" r="15.02" fill="#fff"></circle>
      <path d="M596.95,269.61c-8.56,0-15.52-6.96-15.52-15.52s6.96-15.52,15.52-15.52,15.52,6.96,15.52,15.52-6.96,15.52-15.52,15.52Zm0-30.04c-8.01,0-14.52,6.51-14.52,14.52s6.51,14.52,14.52,14.52,14.52-6.51,14.52-14.52-6.51-14.52-14.52-14.52Z" fill="#231f20"></path>
    </g>
    <g>
      <circle cx="503.34" cy="298.35" r="15.02" fill="#fff"></circle>
      <path d="M503.34,313.87c-8.56,0-15.52-6.96-15.52-15.52s6.96-15.52,15.52-15.52,15.52,6.96,15.52,15.52-6.96,15.52-15.52,15.52Zm0-30.04c-8.01,0-14.52,6.51-14.52,14.52s6.51,14.52,14.52,14.52,14.52-6.51,14.52-14.52-6.51-14.52-14.52-14.52Z" fill="#231f20"></path>
    </g>
    <g>
      <path d="M569.85,326.55l-5.47,5.77c-5.17,5.02-10.35,9.37-15.43,13.14-4.79-2.51-8.06-7.53-8.06-13.31,0-8.29,6.73-15.02,15.02-15.02,6.31,0,11.72,3.9,13.94,9.42Z" fill="#fff"></path>
      <path d="M549,346.04l-.28-.15c-5.14-2.69-8.33-7.96-8.33-13.75,0-8.56,6.96-15.52,15.52-15.52,6.37,0,12.03,3.82,14.41,9.74l.12,.3-5.69,6c-4.93,4.78-10.14,9.22-15.5,13.19l-.25,.19Zm6.91-28.42c-8.01,0-14.52,6.51-14.52,14.52,0,5.32,2.87,10.16,7.52,12.72,5.24-3.9,10.32-8.24,15.13-12.91l5.23-5.52c-2.29-5.37-7.5-8.82-13.36-8.82Z" fill="#231f20"></path>
    </g>
    <g>
      <path d="M462.57,225.39c0,8.29-6.73,15.02-15.02,15.02-4.3,0-8.18-1.81-10.92-4.7,5.7-5.97,14.22-12.22,23.69-18.2,1.42,2.29,2.24,4.99,2.24,7.89Z" fill="#fff"></path>
      <path d="M447.55,240.91c-4.31,0-8.31-1.73-11.28-4.86l-.33-.35,.33-.34c5.2-5.45,13.21-11.6,23.79-18.28l.43-.27,.27,.43c1.52,2.44,2.32,5.26,2.32,8.15,0,8.56-6.96,15.52-15.52,15.52Zm-10.22-5.21c2.74,2.72,6.35,4.21,10.22,4.21,8.01,0,14.52-6.51,14.52-14.52,0-2.53-.66-5.01-1.91-7.19-10.07,6.39-17.75,12.27-22.83,17.5Z" fill="#231f20"></path>
    </g>
    <g>
      <circle cx="503.88" cy="235.59" r="15.02" fill="#fff"></circle>
      <path d="M503.88,251.11c-8.56,0-15.52-6.96-15.52-15.52s6.96-15.52,15.52-15.52,15.52,6.96,15.52,15.52-6.96,15.52-15.52,15.52Zm0-30.04c-8.01,0-14.52,6.51-14.52,14.52s6.51,14.52,14.52,14.52,14.52-6.51,14.52-14.52-6.51-14.52-14.52-14.52Z" fill="#231f20"></path>
    </g>
    <g>
      <circle cx="461.77" cy="276.09" r="10.19" fill="#fff"></circle>
      <path d="M461.77,286.78c-5.9,0-10.69-4.8-10.69-10.69s4.8-10.69,10.69-10.69,10.69,4.8,10.69,10.69-4.8,10.69-10.69,10.69Zm0-20.38c-5.34,0-9.69,4.35-9.69,9.69s4.35,9.69,9.69,9.69,9.69-4.35,9.69-9.69-4.35-9.69-9.69-9.69Z" fill="#231f20"></path>
    </g>
    <g>
      <path d="M509.78,196.96c0,8.29-6.73,15.02-15.02,15.02-5.35,0-10.05-2.8-12.71-7.02,9.98-5.34,19.54-9.98,26.74-13.36,.64,1.66,.99,3.47,.99,5.36Z" fill="#fff"></path>
      <path d="M494.76,212.48c-5.36,0-10.27-2.71-13.13-7.26l-.29-.45,.47-.25c8.28-4.43,17.28-8.93,26.76-13.37l.49-.23,.19,.5c.68,1.76,1.02,3.63,1.02,5.54,0,8.56-6.96,15.52-15.52,15.52Zm-11.99-7.34c2.71,3.98,7.15,6.34,11.99,6.34,8.01,0,14.52-6.51,14.52-14.52,0-1.61-.26-3.18-.77-4.67-9.1,4.27-17.76,8.59-25.74,12.86Z" fill="#231f20"></path>
    </g>
    <g>
      <path d="M419.93,261.6c0,5.93-4.8,10.73-10.73,10.73-3.53,0-6.66-1.7-8.61-4.33,9.77-5.64,10.92-10.25,10.92-10.25,1.14-2.16,2.3-3.87,3.43-5.21,3,1.89,4.99,5.24,4.99,9.06Z" fill="#fff"></path>
      <path d="M409.2,272.83c-3.59,0-6.87-1.65-9.02-4.54l-.33-.45,.49-.28c9.4-5.43,10.68-9.89,10.69-9.94l.04-.11c1.07-2.03,2.24-3.82,3.49-5.3l.28-.33,.37,.23c3.27,2.06,5.23,5.61,5.23,9.48,0,6.19-5.04,11.23-11.23,11.23Zm-7.87-4.69c1.95,2.35,4.79,3.69,7.87,3.69,5.64,0,10.23-4.59,10.23-10.23,0-3.38-1.63-6.49-4.39-8.4-1.09,1.35-2.11,2.93-3.06,4.73-.18,.6-1.75,4.94-10.64,10.2Z" fill="#231f20"></path>
    </g>
    <g>
      <path d="M679.18,235.22c-3.75,4.29-4.29,11.8-4.29,11.8-2.15,23.6-7.51,24.14-7.51,24.14,1.61-64.91-17.7-76.71-17.7-76.71-16.63-12.87-40.23,0-40.23,0-6.16-.67-10.77-3.11-14.2-6.15-7.63-6.78-9.44-16.57-9.44-16.57,3.18-3.95,5.12-10.43,5.12-10.43l-4.54-24.25c-10.19-5.9-12.87-16.09-12.87-16.09-2.68-8.58-14.48-6.97-14.48-6.97-17.7,1.61-16.48-10.1-16.48-10.1-14.87,10.83-13.56,25.92-13.56,25.92v23.6c1.61,26.55,24.64,30.73,24.64,30.73l.04,9.77-10.73-5.36s0,0-.01-.01c-.25-.24-5.02-4.61-18.32-3.11-.03,0-.05,0-.07,0-.26,.03-.5,.05-.72,.09-1.1,.12-1.87,.26-2.18,.32-.1,.02-.15,.03-.15,.03-13.41-30.04-4.29-47.21-4.29-47.21l12.34-23.6c-10.19-21.46,1.61-28.97,1.61-28.97,13.51-9.46,27.02-.01,31.01,3.27,1.56,1.28,3.34,2.26,5.29,2.75,5.68,1.43,10.9-.65,10.9-.65,20.38-10.19,39.7,19.31,39.7,19.31,24.68,13.95,21.46,35.94,21.46,35.94-.54,10.19,5.36,13.41,5.36,13.41,15.56,8.58,17.17,25.75,17.17,25.75l17.7,20.38c11.8,17.17-.54,28.97-.54,28.97Z" fill="#231f20"></path>
      <path d="M666.86,271.72v-.57c1.59-63.73-17.26-76.15-17.45-76.27-16.22-12.55-39.5-.11-39.73,.01l-.14,.07-.16-.02c-5.6-.6-10.47-2.72-14.48-6.28-7.67-6.82-9.52-16.45-9.6-16.85l-.04-.23,.14-.18c2.85-3.54,4.72-9.27,4.99-10.14l-4.48-23.9c-10.09-5.95-12.88-16.18-12.91-16.28-2.52-8.06-13.82-6.62-13.93-6.61-6.67,.61-11.5-.56-14.37-3.47-2.14-2.16-2.6-4.72-2.69-6.12-13.61,10.48-12.57,24.73-12.55,24.88v23.65c1.57,25.83,24,30.19,24.23,30.23l.41,.07,.04,11-11.35-5.67h-.16l-.12-.18c-.53-.48-5.29-4.36-17.88-2.94h-.13c-.2,.03-.43,.06-.65,.09-1.17,.13-1.95,.27-2.16,.31l-.54,.1-.16-.36c-13.35-29.92-4.37-47.47-4.28-47.64l12.22-23.38c-10.07-21.44,1.78-29.3,1.9-29.38,13.82-9.68,27.68,.08,31.6,3.3,1.59,1.31,3.31,2.2,5.1,2.65,5.46,1.38,10.54-.61,10.59-.63,19.9-9.95,38.93,17.48,40.23,19.4,24.58,13.96,21.63,36.17,21.6,36.39-.51,9.68,4.88,12.77,5.11,12.9,14.79,8.16,17.18,24.18,17.4,25.98l17.6,20.27c11.72,17.05,0,29.09-.55,29.64-3.59,4.11-4.15,11.42-4.16,11.49-2.12,23.35-7.37,24.54-7.96,24.6l-.56,.06Zm-34.95-83.44c6.05,0,12.46,1.44,18.07,5.78,.75,.46,19.33,12.55,17.92,76.29,1.37-1.04,4.86-5.43,6.49-23.37,.02-.3,.59-7.72,4.41-12.08l.03-.03c.49-.47,11.88-11.72,.47-28.32l-17.77-20.46-.02-.16c-.02-.17-1.78-17.01-16.91-25.36-.25-.14-6.17-3.49-5.62-13.88,.04-.26,2.87-21.87-21.2-35.48l-.11-.06-.07-.1c-.19-.29-19.3-29.02-39.05-19.14-.26,.1-5.48,2.15-11.25,.69-1.93-.49-3.78-1.45-5.49-2.85-3.78-3.11-17.14-12.53-30.41-3.24-.13,.08-11.31,7.58-1.45,28.34l.11,.23-12.45,23.82c-.09,.17-8.76,17.2,4.15,46.41,.38-.07,1.06-.17,1.98-.28,.22-.03,.46-.06,.73-.09h.12c12.98-1.47,18.06,2.69,18.62,3.19l9.94,4.97-.03-8.56c-3.13-.74-23.14-6.43-24.64-31.1v-23.63c-.01-.11-1.17-15.46,13.76-26.32l.9-.66-.11,1.11s-.33,3.62,2.41,6.38c2.65,2.68,7.2,3.74,13.53,3.17,.1-.01,12.23-1.56,15.01,7.32,.03,.12,2.77,10.09,12.65,15.81l.2,.11,4.61,24.59-.04,.12c-.08,.26-1.95,6.42-5.06,10.41,.32,1.47,2.44,10.04,9.23,16.07,3.82,3.39,8.45,5.41,13.77,6.01,1.31-.68,11.32-5.67,22.56-5.67Z" fill="#231f20"></path>
    </g>
    <path d="M528.98,311.35c-.08,0-.15-.02-.22-.05-5.61-2.8-4.1-19.11-4.03-19.81,1.04-9.88-2.04-15.2-2.08-15.25-5.99-11.97-1.94-19.66,.08-22.41,1.14-1.56,2.07-3.02,2.83-4.46,.26-.49,.51-.97,.75-1.44,3.12-6.14,4.93-12.83,5.38-19.88l1.62-25.06,4.33-27.56c.04-.27,.31-.46,.57-.42,.27,.04,.46,.3,.42,.57l-4.32,27.51-1.61,25.02c-.46,7.18-2.31,14-5.49,20.26-.24,.48-.49,.96-.76,1.46-.79,1.48-1.74,2.98-2.91,4.58-1.91,2.6-5.73,9.9,0,21.34,.12,.19,3.27,5.59,2.2,15.83-.01,.15-1.4,15.06,2.92,18.45,1.1-5.05,8.26-35.63,22.53-48.91,.16-.11,9.55-6.55,11.11-20.61,.02-.37,.63-9.9,8.18-17.99,.27-.29,27.23-29.12,27.49-53.84,0-.27,.23-.49,.5-.49h0c.28,0,.5,.23,.5,.51-.27,25.12-27.49,54.23-27.76,54.52-7.29,7.81-7.9,17.29-7.91,17.39-1.62,14.57-11.39,21.24-11.49,21.31-15.19,14.16-22.25,48.69-22.32,49.03-.03,.15-.13,.28-.27,.35-.07,.03-.14,.05-.22,.05Z" fill="#231f20"></path>
    <g>
      <path d="M568.1,92.21s13.29,12.62,21.68,31.68l13.84,.46s-10.2-23.12-24.45-33.37c0,0-4.14,2.52-11.07,1.23Z" fill="#a2750b"></path>
      <path d="M604.4,124.88l-14.95-.5-.13-.29c-8.26-18.75-21.44-31.39-21.57-31.52l-1.22-1.16,1.66,.31c6.64,1.24,10.68-1.14,10.72-1.17l.28-.17,.27,.19c14.2,10.21,24.51,33.34,24.62,33.58l.32,.73Zm-14.29-1.48l12.72,.42c-1.86-3.97-11.26-23.14-23.7-32.26-1,.51-4.39,1.98-9.61,1.36,3.33,3.45,13.64,14.83,20.59,30.47Z" fill="#231f20"></path>
    </g>
    <g>
      <path d="M596.03,162.8h4.83v3.49c0,1.33-1.08,2.41-2.41,2.41h0c-1.33,0-2.41-1.08-2.41-2.41v-3.49h0Z" fill="#a2750b"></path>
      <path d="M598.45,169.2c-1.61,0-2.91-1.31-2.91-2.91v-3.99h5.83v3.99c0,1.61-1.31,2.91-2.91,2.91Zm-1.91-5.9v2.99c0,1.06,.86,1.91,1.91,1.91s1.91-.86,1.91-1.91v-2.99h-3.83Z" fill="#231f20"></path>
    </g>
    <g>
      <ellipse cx="596.03" cy="143.49" rx="18.77" ry="20.92" fill="#a2750b"></ellipse>
      <path d="M596.03,164.91c-10.63,0-19.27-9.61-19.27-21.42s8.65-21.42,19.27-21.42,19.27,9.61,19.27,21.42-8.65,21.42-19.27,21.42Zm0-41.84c-10.08,0-18.27,9.16-18.27,20.42s8.2,20.42,18.27,20.42,18.27-9.16,18.27-20.42-8.2-20.42-18.27-20.42Z" fill="#231f20"></path>
    </g>
    <path d="M601.93,159.01c-7.71,0-13.98-6.96-13.98-15.52s6.27-15.52,13.98-15.52c.66,0,1.31,.05,1.95,.15,.27,.04,.46,.3,.42,.57-.04,.27-.31,.45-.57,.42-.59-.09-1.19-.14-1.8-.14-7.16,0-12.98,6.51-12.98,14.52s5.82,14.52,12.98,14.52c.28,0,.5,.22,.5,.5s-.22,.5-.5,.5Z" fill="#231f20"></path>
  </g>
  <g>
    <ellipse cx="537.16" cy="140" rx="2" ry="3.33" fill="#231f20"></ellipse>
    <path d="M537.16,143.83c-1.4,0-2.5-1.68-2.5-3.83s1.1-3.83,2.5-3.83,2.5,1.68,2.5,3.83-1.1,3.83-2.5,3.83Zm0-6.67c-.71,0-1.5,1.16-1.5,2.83s.79,2.83,1.5,2.83,1.5-1.16,1.5-2.83-.79-2.83-1.5-2.83Z" fill="#231f20"></path>
  </g>
  <g>
    <ellipse cx="558.16" cy="141" rx="2" ry="3.33" fill="#231f20"></ellipse>
    <path d="M558.16,144.83c-1.4,0-2.5-1.68-2.5-3.83s1.1-3.83,2.5-3.83,2.5,1.68,2.5,3.83-1.1,3.83-2.5,3.83Zm0-6.67c-.71,0-1.5,1.16-1.5,2.83s.79,2.83,1.5,2.83,1.5-1.16,1.5-2.83-.79-2.83-1.5-2.83Z" fill="#231f20"></path>
  </g>
  <path d="M551.16,157.5h-4.54c-.51,0-1-.22-1.33-.61-.34-.39-.49-.9-.42-1.41l1.79-12.56c.04-.27,.3-.47,.57-.42,.27,.04,.46,.29,.42,.57l-1.79,12.56c-.03,.22,.03,.44,.18,.61,.15,.17,.35,.26,.58,.26h4.54c.28,0,.5,.22,.5,.5s-.22,.5-.5,.5Z" fill="#231f20"></path>
  <path d="M549.92,169.22c-5.19,0-8.96-3.71-9.12-3.87-.2-.2-.2-.51,0-.71s.51-.2,.71,0c.04,.04,3.74,3.69,8.68,3.57,3.06-.08,5.95-1.61,8.6-4.55,.19-.21,.5-.22,.71-.04,.21,.18,.22,.5,.04,.71-2.84,3.15-5.97,4.79-9.32,4.88-.1,0-.19,0-.29,0Z" fill="#231f20"></path>
</svg>
