<?xml version="1.0" encoding="UTF-8"?>
<svg xmlns="http://www.w3.org/2000/svg" id="a" width="865.76" height="682.89" viewBox="0 0 865.76 682.89">
  <g>
    <g>
      <rect x="514.24" y="14.27" width="308.3" height="513.78" transform="translate(1336.77 542.32) rotate(-180)" fill="#fff" stroke="#231f20" stroke-miterlimit="10" stroke-width=".91"></rect>
      <polygon points="805.37 39.22 809.27 527.87 536.07 527.87 536.07 41.17 805.37 39.22" fill="#fff" stroke="#231f20" stroke-miterlimit="10" stroke-width=".91"></polygon>
      <rect x="822.54" y="14.27" width="6.56" height="514.06" fill="#e3e4e5" stroke="#231f20" stroke-miterlimit="10" stroke-width=".91"></rect>
      <rect x="536.35" y="138.03" width="269.82" height="9.57" transform="translate(1342.53 285.63) rotate(-180)" fill="#fff" stroke="#231f20" stroke-miterlimit="10" stroke-width=".91"></rect>
      <rect x="536.14" y="308" width="271.36" height="10.05" transform="translate(1343.65 626.05) rotate(-180)" fill="#e3e4e5" stroke="#231f20" stroke-miterlimit="10" stroke-width=".91"></rect>
      <rect x="536.14" y="479.24" width="272.73" height="24.4" transform="translate(1345.02 982.88) rotate(-180)" fill="#e3e4e5" stroke="#231f20" stroke-miterlimit="10" stroke-width=".91"></rect>
      <rect x="547.42" y="324.03" width="106.35" height="138.87" transform="translate(1201.18 786.92) rotate(-180)" fill="#fff" stroke="#231f20" stroke-miterlimit="10" stroke-width=".91"></rect>
      <rect x="669.25" y="324.03" width="106.35" height="138.87" transform="translate(1444.85 786.92) rotate(-180)" fill="#fff" stroke="#231f20" stroke-miterlimit="10" stroke-width=".91"></rect>
      <line x1="661.08" y1="478.9" x2="661.08" y2="317.79" fill="none" stroke="#231f20" stroke-linecap="round" stroke-linejoin="round" stroke-width=".91"></line>
      <path d="M769.23,258.99l-.1-.06-1.86,16.53-28.49,252.59,70.49-.17-2.16-271.28-.1-11.54-1.63-205.83h-155.79s0,148.21,119.64,219.77Z" fill="#000000" stroke="#231f20" stroke-miterlimit="10"></path>
      <polygon points="758.86 262.69 764.63 276.7 767.27 275.45 807.11 256.6 807.01 245.06 769.13 258.93 758.86 262.69" fill="#fff" stroke="#231f20" stroke-miterlimit="10" stroke-width=".91"></polygon>
      <path d="M764.47,40.16s-11.5,137.55,26.82,210.36" fill="none" stroke="#231f20" stroke-linecap="round" stroke-linejoin="round" stroke-width=".91"></path>
      <path d="M691.66,40.16s20.69,152.38,86.6,215.22" fill="none" stroke="#231f20" stroke-linecap="round" stroke-linejoin="round" stroke-width=".91"></path>
      <line x1="786.69" y1="266.38" x2="772.13" y2="527.58" fill="none" stroke="#231f20" stroke-linecap="round" stroke-linejoin="round" stroke-width=".91"></line>
      <g>
        <line x1="668.82" y1="451.41" x2="654.25" y2="451.41" fill="none" stroke="#231f20" stroke-linecap="round" stroke-linejoin="round" stroke-width=".91"></line>
        <line x1="668.82" y1="335.74" x2="654.25" y2="335.74" fill="none" stroke="#231f20" stroke-linecap="round" stroke-linejoin="round" stroke-width=".91"></line>
      </g>
      <g>
        <line x1="546.78" y1="451.41" x2="535.85" y2="451.41" fill="none" stroke="#231f20" stroke-linecap="round" stroke-linejoin="round" stroke-width=".91"></line>
        <line x1="546.78" y1="335.74" x2="535.85" y2="335.74" fill="none" stroke="#231f20" stroke-linecap="round" stroke-linejoin="round" stroke-width=".91"></line>
      </g>
    </g>
    <g>
      <path d="M52.86,342.18l28.2-9H598.81l14.87,9.17s.01,.06-.02,.06H52.89c-.14,0-.17-.19-.04-.23Z" fill="#e3e4e5" stroke="#231f20" stroke-miterlimit="10"></path>
      <path d="M410.29,333.92l9.95-2.98h51.76s.04,.04,.01,.05l-5.39,2.94h-56.33s0,0,0,0Z" fill="#5ca0c3" stroke="#231f20" stroke-miterlimit="10"></path>
      <rect x="427.72" y="298.02" width="26.44" height="34.42" fill="#fff" stroke="#231f20" stroke-miterlimit="10"></rect>
      <rect x="410.26" y="333.93" width="56.36" height="2.49" fill="#fff" stroke="#231f20" stroke-miterlimit="10"></rect>
      <path d="M466.77,336.34l5.34-2.91v-2.49l-5.49,2.99v2.33c0,.07,.08,.12,.14,.09Z" fill="#fff" stroke="#231f20" stroke-miterlimit="10"></path>
      <g>
        <path d="M605.07,625.23c-3.16,0-6.15-1.53-8-4.11l-195.13-272.02,4.05-2.91,195.13,272.02c.91,1.27,2.38,2.02,3.94,2.02s2.94-.7,3.87-1.92c.93-1.22,1.22-2.77,.8-4.24l-75.1-267.35,4.8-1.35,75.1,267.35c.84,2.99,.25,6.13-1.63,8.61-1.88,2.48-4.74,3.9-7.84,3.9Z" fill="#e3e4e5" stroke="#231f20" stroke-miterlimit="10"></path>
        <path d="M579.13,568.86c-3.16,0-6.15-1.53-8-4.11l-156.22-217.16,4.05-2.91,156.22,217.16c.91,1.27,2.38,2.02,3.94,2.02s2.94-.7,3.87-1.92c.93-1.22,1.22-2.77,.8-4.24l-58.64-208.99,4.8-1.35,58.64,208.99c.84,2.99,.25,6.13-1.63,8.61-1.88,2.48-4.74,3.9-7.84,3.9Z" fill="#e3e4e5" stroke="#231f20" stroke-miterlimit="10"></path>
      </g>
      <g>
        <path d="M53.16,625.23c3.16,0,6.15-1.53,8-4.11l195.13-272.02-4.05-2.91L57.11,618.21c-.91,1.27-2.38,2.02-3.94,2.02s-2.94-.7-3.87-1.92c-.93-1.22-1.22-2.77-.8-4.24L123.59,346.72l-4.8-1.35L43.69,612.72c-.84,2.99-.25,6.13,1.63,8.61,1.88,2.48,4.74,3.9,7.84,3.9Z" fill="#e3e4e5" stroke="#231f20" stroke-miterlimit="10"></path>
        <path d="M79.1,568.86c3.16,0,6.15-1.53,8-4.11l156.22-217.16-4.05-2.91-156.22,217.16c-.91,1.27-2.38,2.02-3.94,2.02s-2.94-.7-3.87-1.92c-.93-1.22-1.22-2.77-.8-4.24l58.64-208.99-4.8-1.35-58.64,208.99c-.84,2.99-.25,6.13,1.63,8.61,1.88,2.48,4.74,3.9,7.84,3.9Z" fill="#e3e4e5" stroke="#231f20" stroke-miterlimit="10"></path>
      </g>
      <path d="M240.45,633.08c-7.37,1.47-17.59-1.14-25.38-3.82-6.95-2.39-13.07-6.73-17.66-12.47l-5.62-7.02-22.85-33.28c-.04-.05,0-.12,.07-.12,1.87,.25,19.28,2.98,27.77,20.43,0,0,14.55,27.7,42.75,36.18,.31,.09,.62,.12,.93,.1Z" fill="#231f20" stroke="#231f20" stroke-miterlimit="10"></path>
      <path d="M136.96,552.94s-.01,.07-.04,.22c-1.62,8.49-4.51,16.69-8.58,24.33l-47.78,89.64h-8.48l51.38-94.27s7.66-15.18,7.09-20.31c.53,.23,1.11,.36,1.72,.36h4.67l.02,.03Z" fill="#e3e4e5" stroke="#231f20" stroke-miterlimit="10"></path>
      <path d="M149.89,550.91s.5,6.98,3.99,13.47l68.33,104.25h6.98l-68.83-106.24s-4.49-5.99-3.99-11.97l-6.48,.5Z" fill="#e3e4e5" stroke="#231f20" stroke-miterlimit="10"></path>
      <path d="M65.1,643.68l54.87-74.82s6.98-7.48,10.47-17.96l5.99,1-18.21,30.47-46.14,61.31h-6.98Z" fill="#e3e4e5" stroke="#231f20" stroke-miterlimit="10"></path>
      <path d="M158.37,522.47v26.1c0,2.39-1.94,4.32-4.32,4.32h-21.78c-.61,0-1.19-.13-1.72-.36-1.53-.66-2.6-2.19-2.6-3.97v-26.1h30.43Z" fill="#fff" stroke="#231f20" stroke-miterlimit="10"></path>
      <polygon points="237.68 447.65 237.68 455.11 144.9 459.03 134.93 459.45 118.97 460.12 36.67 451.15 37.16 441.67 119.96 450.15 237.68 447.65" fill="#e3e4e5" stroke="#231f20" stroke-miterlimit="10"></polygon>
      <polygon points="237.68 447.65 110.28 440.64 37.16 441.67 119.96 450.15 237.68 447.65" fill="#fff" stroke="#231f20" stroke-miterlimit="10"></polygon>
      <path d="M206.49,530.08s-4.22,15.34-11.71,24.32c0,0,16.96,12.97,31.42,43.89,0,0,1.66-1.32,1.73-5.32,.03-1.62-.32-3.23-.97-4.72-2.02-4.6-7.16-18.72-2.26-33.85l5.19-14.22-23.42-10.1Z" fill="#faa27f" stroke="#231f20" stroke-miterlimit="10"></path>
      <polygon points="248.15 548.41 203.26 529.46 238.18 449.65 283.57 455.14 248.15 548.41" fill="#5ca0c3" stroke="#231f20" stroke-miterlimit="10"></polygon>
      <path d="M217.47,377.36s62.6,28.39,118.97,43.36c0,0,18.46,3.99,23.94,30.43l43.4,118.71-29.08,17.54c-1.51,.91-3.3,1.25-5.04,.96l-3.52-.59c-1.72-.28-3.18-1.43-3.86-3.04l-50.22-118.45c-.96-2.26-3.07-3.85-5.51-4.14l-29.46-3.52-160.55-15.66c-2.25-.22-4.41-1-6.25-2.32-15.64-11.29-14.76-32.89-14.76-32.89,.09-2.02,.02-4.15-.15-6.26-.72-8.74-3.25-17.36-3.34-17.67,.13,.17,1.84,2.42,4.88,3.99,2.9,1.49,6.39,1.2,9.04-.7,11.1-7.99,51.57-34.59,86.6-25.71l2.23,7.45,22.69,8.52Z" fill="#5ca0c3" stroke="#231f20" stroke-miterlimit="10"></path>
      <path d="M243.17,629.22c-27.93-6.98-41.9-36.41-41.9-36.41-10.47-21.95-26.44-22.94-26.44-22.94l15.46-13.97c2-2.99,4.49-1.5,4.49-1.5,0,0,17.96,13.97,31.42,43.89,0,0,1.25-1.25,1.63-4.11,.27-2.1-.12-4.23-1-6.16-.38-.84-.76-1.74-1.12-2.7-.67-1.81-1.15-3.49-1.5-4.99,8.51-1.11,8.24,7.87,7.12,12.35-.66,2.67-.71,5.46-.01,8.12,3.18,12.21,9.35,16.45,9.35,16.45,5.49,5.49,2.49,11.97,2.49,11.97Z" fill="#000000" stroke="#231f20" stroke-miterlimit="10"></path>
      <path d="M243.17,629.22l-.41,1.85c-.25,1.13-1.21,1.92-2.28,2.02h-.02c-.3,.02-.62,0-.93-.1-28.19-8.48-42.75-36.18-42.75-36.18-8.53-17.54-26.07-20.21-27.8-20.43-.06,0-.08-.08-.04-.12l5.89-6.38s15.96,1,26.44,22.94c0,0,13.97,29.43,41.9,36.41Z" fill="#fff" stroke="#231f20" stroke-miterlimit="10"></path>
      <path d="M426.72,611.76l-.5,2.99-25.44-4.49c-24.94-4.99-26.93-6.98-26.93-6.98,.08-.48,.14-.95,.19-1.42,.83-8.19-3.25-13.57-3.25-13.57,2.06,.02,3.91-.89,3.91-.89l22.42-13.27c2.93,9.28,10.48,15.84,15.95,19.55,2.95,2.01,5.3,3.19,5.98,3.51,.13,.06,.26,.15,.35,.26,1.32,1.55,1.69,5.15,1.8,7.06,.05,.82,.37,1.61,.93,2.21l4.6,5.02Z" fill="#faa27f" stroke="#231f20" stroke-miterlimit="10"></path>
      <path d="M469.62,618.74s-1.5,9.98-30.43,11.97c0,0-18.95,2.99-34.92,.5,0,0-37.41-.5-37.91-7.98,0,0,0-13.47,3.99-19.95,0,0,.64-1.31,3.68-1.42-.04,.46-.11,.94-.19,1.42,0,0,2,2,26.93,6.98l23.42,4.13c1.11,.2,2.17-.55,2.35-1.66h0c.1-.62-.08-1.24-.51-1.7l-3.96-4.32c-.54-.59-.86-1.35-.9-2.15-.1-1.9-.47-5.54-1.8-7.1-.09-.11-.22-.2-.35-.26-.67-.32-3.02-1.5-5.98-3.51h0s4.17-2.88,6.66,.61c0,0,2.99,3.99,7.48,5.49,0,0,4.99,.5,9.98,6.48,0,0,1.5,2.99,7.98,2.99,0,0,21.95-3.49,24.44,9.48Z" fill="#000000" stroke="#231f20" stroke-miterlimit="10"></path>
      <path d="M462.44,630.81c-25.82,8.65-61.15,3.4-61.15,3.4v5.49c-21.59,.41-31.87-1.85-34.91-2.69-.59-.16-1-.71-1-1.32v-7.46c0-3.99,1-4.99,1-4.99,.5,7.48,37.91,7.98,37.91,7.98,16.46,1,34.92-.5,34.92-.5,28.93-2,30.43-11.97,30.43-11.97,1.6,4.01-.09,7.01-2,8.94-1.44,1.45-3.24,2.47-5.18,3.12Z" fill="#fff" stroke="#231f20" stroke-miterlimit="10"></path>
      <path d="M194.78,368.85c-6.28,.49-12.38,1.5-18.21,2.84-1.17,.27-2.33,.56-3.49,.86-5.35,1.38-10.43,3.03-15.15,4.79-1.27,.47-2.5,.95-3.71,1.44-6.48,2.6-12.17,5.35-16.79,7.8-1.56,.82-2.99,1.62-4.3,2.35-5.53,3.14-8.68,5.36-8.68,5.36-3.39,2.61-6.48,4.52-9.29,5.9-1.52,.75-2.95,1.35-4.29,1.81-9.25,3.18-14.44,.22-15.5-.49-.72-8.74-3.25-17.36-3.34-17.67,.13,.17,1.84,2.42,4.88,3.99,2.9,1.49,6.39,1.2,9.04-.7,.51-.37,1.09-.78,1.72-1.22,1.11-.77,2.39-1.65,3.85-2.6,4.58-3.02,10.79-6.8,18.04-10.44,1.35-.68,2.73-1.36,4.15-2.02,5.26-2.46,10.97-4.79,16.93-6.67,1.31-.41,2.62-.81,3.95-1.17,5.2-1.44,10.55-2.51,15.95-3.03,1.18-.11,2.37-.2,3.56-.25,6.19-.3,12.4,.17,18.45,1.71l2.23,7.45Z" fill="#fff" stroke="#231f20" stroke-miterlimit="10"></path>
      <ellipse cx="143.16" cy="522.47" rx="15.21" ry="1.5" fill="#e3e4e5" stroke="#231f20" stroke-miterlimit="10"></ellipse>
      <path d="M148.89,459.03v63.22c0,.4-.32,.72-.72,.72h-8.53c-.4,0-.72-.32-.72-.72v-62.8l9.98-.42Z" fill="#fff" stroke="#231f20" stroke-miterlimit="10"></path>
      <rect x="137.42" y="551.9" width="10.47" height="27.43" fill="#fff" stroke="#231f20" stroke-miterlimit="10"></rect>
      <rect x="52.13" y="342.41" width="561.64" height="6.98" fill="#fff" stroke="#231f20" stroke-miterlimit="10"></rect>
      <rect x="313" y="338.92" width="94.27" height="3.49" fill="#e3e4e5" stroke="#231f20" stroke-miterlimit="10"></rect>
      <path d="M313.16,338.88l22.78-5.45,87.64,.5s.03,.04,0,.04l-16.32,4.94h-94.1s-.03-.03,0-.04Z" fill="#fff" stroke="#231f20" stroke-miterlimit="10"></path>
      <polygon points="407.27 342.41 423.62 337.25 423.73 333.93 407.27 338.92 407.27 342.41" fill="#e3e4e5" stroke="#231f20" stroke-miterlimit="10"></polygon>
      <path d="M342.87,321.78l6.04-4.31s3.49-3.49,7.48-1.5c0,0,2.99-1.5,6.48,.5,0,0,7.48-.5,8.48,3.99h1.74c.64,0,1.27,.15,1.82,.47,1.26,.74,3.26,2.51,3.93,6.51l4.14,4.14c1.04,1.04,1.09,2.7,.13,3.8h0c-.99,1.13-2.7,1.27-3.86,.32l-2.5-2.05c-.89-.72-2.08-.96-3.16-.59-.94,.33-2.18,1.01-3.72,2.35,0,0-8.73,7.69-16.58,6.59l-11.85-18.56,1.44-1.68Z" fill="#faa27f" stroke="#231f20" stroke-miterlimit="10"></path>
      <path d="M367.86,324.45s.5,2.49,3.49,2c0,0,5.49-1.5,7.48,1" fill="none" stroke="#231f20" stroke-linecap="round" stroke-linejoin="round"></path>
      <path d="M371.36,320.46h-5.49s-2-.5-2-2" fill="none" stroke="#231f20" stroke-linecap="round" stroke-linejoin="round"></path>
      <line x1="356.39" y1="315.97" x2="350.41" y2="320.46" fill="none" stroke="#231f20" stroke-linecap="round" stroke-linejoin="round"></line>
      <path d="M232.19,322.96h28.93s4.99-.5,8.98,2.49l12.04,3.24c.61,.16,1.2,.42,1.74,.74l14.41,8.73c.91,.55,1.23,1.75,.66,2.66-.71,1.15-2.31,2.19-5.91,1.08,0,0-6.48,1-9.48-1l-3.49-.5s-.39,1.65-3.75,2.11c-.47,.06-.94,.06-1.41,.01-.83-.09-2.34-.29-4.23-.75-1.45-.35-2.85-.85-4.21-1.45-2.2-.96-7.34-2.55-13.33,.07,0,0-5.99,2.99-21.45,2l.5-19.45Z" fill="#faa27f" stroke="#231f20" stroke-miterlimit="10"></path>
      <path d="M210.64,320.36h21.09c.87,0,1.63,.6,1.83,1.44,.59,2.47,1.09,5.56,1.13,9.14,.04,3.98-.49,7.4-1.12,10.06-.2,.85-.96,1.45-1.83,1.45h-30.22v-8.02l9.12-14.07Z" fill="#000000" stroke="#231f20" stroke-miterlimit="10"></path>
      <path d="M231.2,122.94s-3.87,0-5.81,4.63c-.32,.76-.46,1.59-.43,2.41l.22,5.92c.03,.93,.26,1.84,.7,2.66,.66,1.25,1.85,2.7,3.78,2.39,.91-.15,1.72-.68,2.3-1.4,1.36-1.72,4-6.07,2.93-13.05-.13-.84-.51-1.62-1.1-2.23-.63-.65-1.54-1.33-2.58-1.33Z" fill="#fff" stroke="#231f20" stroke-miterlimit="10"></path>
      <path d="M352.9,341.91c-1.82,4.26-5.5,6.29-8.1,7.23-1.62,.59-3.41,.51-4.97-.22l-20.35-9.5-62.76-22.25c-4.98-1.76-9.45-4.7-13.05-8.56l-21.95-23.55c-2.62,19.22-15.18,45.31-18.27,51.51-.45,.9-.66,1.9-.61,2.91l.92,17.91c0,6.48-9.48,4.49-9.48,4.49-.58-.16-1.16-.32-1.74-.47-35.03-8.88-75.49,17.72-86.6,25.71-2.64,1.91-6.14,2.19-9.04,.7-3.04-1.56-4.75-3.81-4.88-3.99,0,0,0,0,0,0-19.66-21.3-4.68-52.68,1.31-63.23,1.43-2.52,2.14-5.37,2.06-8.26l-.87-32.75c-5.99-27.43,6.98-57.36,6.98-57.36,14.96-35.91,47.39-48.88,47.39-48.88,8.98-12.97,28.43-8.98,28.43-8.98l24.44,16.96,19.45,8.48c11.54,3.46,14.18,13.74,14.78,18.27,.2,1.53,.79,2.98,1.72,4.2l50.2,65.86c1.74,2.29,3.78,4.34,6.06,6.09l59.92,46.23c4.99,2.99-1,11.47-1,11.47Z" fill="#000000" stroke="#231f20" stroke-miterlimit="10"></path>
      <line x1="221.72" y1="285.05" x2="198.77" y2="263.6" fill="none" stroke="#231f20" stroke-linecap="round" stroke-linejoin="round"></line>
      <path d="M201.77,181.3l1.34-3.58c.1-.26,.29-.48,.54-.61l9.09-4.79-2.99-34.92-6.48-17.46-33.92,3.99-12.97,32.92,45.39,24.44Z" fill="#faa27f" stroke="#231f20" stroke-miterlimit="10"></path>
      <path d="M215.73,98l8.68,15.99c.66,1.22,1.09,2.56,1.23,3.94,.29,2.76,.28,7.67-1.93,13.99,0,0,11.47,10.47,2.99,14.96,0,0,0,6.48-2.49,7.98l-10.97-5.49-5.49-28.93-1.5-21.45,9.48-1Z" fill="#faa27f" stroke="#231f20" stroke-miterlimit="10"></path>
      <path d="M174.83,65.08s4.53-1.04,9.51-.22c1.3,.21,2.55,.62,3.78,1.1,1.26,.49,3.84,1.19,6.67,.13,0,0,16.46-4.99,23.94,8.98,0,0,9.98,23.44-6.98,25.44,0,0,5.99,10.97,0,19.45l5.49,20.45s3.74,6.66,9.35,8.07c0,0,.41,3.31-.63,5.04-.57,.96-.86,2.06-.9,3.17-.11,2.95-.01,8.3,1.66,13.65,0,0,2.99,10.47-7.98,10.47l-14.63-3.9c-.15-.04-.2-.22-.1-.33,1.11-1.24,5.63-6.88-.84-10.26-1.77-.93-2.75-2.9-2.33-4.86,.31-1.45,.99-3.21,2.35-5.13s2.4-3.86,3.12-6.01c2-6.02,4.6-17.17-1.26-22.64,0,0-8.27-7.28-15.15,4.21-.37,.61-.63,1.29-.8,1.98-.73,3.09-3.58,14.04-10.86,18.48-1.52,.93-3.22,1.51-4.98,1.8-3.77,.63-13.21,2.62-16.38,2.22l-14.47-31.42s-9.48-18.95,1-30.43c0,0,0-5.49,6.48-10.47,0,0,5.99-5.49,7.98-9.98,0,0,3.49-7.48,11.47-6.98h8.48s-.5-1.5-2.99-2Z" fill="#231f20" stroke="#231f20" stroke-miterlimit="10"></path>
      <path d="M156.38,156.86l-7.48,16.46s18-11.08,41.12,4.06c1.97,1.29,4.15,2.23,6.45,2.74l5.3,1.18s-10.36-25.16-38.85-24.8c0,0-3.55,.36-6.54,.36Z" fill="#fff" stroke="#231f20" stroke-miterlimit="10"></path>
      <path d="M201.27,121.94l33.42,2v2l-34.42-1-9.46,7.59c-.74,.6-1.83,.48-2.43-.27h0c-.59-.74-.48-1.82,.26-2.42l6.65-5.4s2-2,5.99-2.49Z" fill="#fff" stroke="#231f20" stroke-miterlimit="10"></path>
      <ellipse cx="199.52" cy="131.67" rx="5.24" ry="8.23" fill="#faa27f" stroke="#231f20" stroke-miterlimit="10"></ellipse>
      <path d="M280.21,340.03s2-3.49-2.49-4.99l-15.96-3.99" fill="none" stroke="#231f20" stroke-linecap="round" stroke-linejoin="round"></path>
      <line x1="293.18" y1="342.03" x2="277.72" y2="335.04" fill="none" stroke="#231f20" stroke-linecap="round" stroke-linejoin="round"></line>
      <path d="M115.17,400.18c-1.52,.75-2.95,1.35-4.29,1.81-1.73-5.21-2.79-12.84-3.2-16.11,1.11-.77,2.39-1.65,3.85-2.6,.3,5.21,2.44,12.92,3.65,16.9Z" fill="#5ca0c3" stroke="#231f20" stroke-miterlimit="10"></path>
      <path d="M137.44,386.57c-1.56,.82-2.99,1.62-4.3,2.35-2.53-6.29-3.33-12.68-3.58-16.09,1.35-.68,2.73-1.36,4.15-2.02,.86,6.54,2.62,12.46,3.73,15.75Z" fill="#5ca0c3" stroke="#231f20" stroke-miterlimit="10"></path>
      <path d="M157.94,377.33c-1.27,.47-2.5,.95-3.71,1.44-2.25-5.51-3.2-11.31-3.59-14.62,1.31-.41,2.62-.81,3.95-1.17,.63,5.91,2.29,11.34,3.35,14.36Z" fill="#5ca0c3" stroke="#231f20" stroke-miterlimit="10"></path>
      <path d="M176.58,371.69c-1.17,.27-2.33,.56-3.49,.86-1.6-4.27-2.27-9.22-2.55-12.6,1.18-.11,2.37-.2,3.56-.25,.51,4.29,1.7,9.1,2.48,12Z" fill="#5ca0c3" stroke="#231f20" stroke-miterlimit="10"></path>
      <rect x="333.45" y="170.32" width="211.49" height="130.19" fill="#5ca0c3" stroke="#231f20" stroke-miterlimit="10"></rect>
      <rect x="337.94" y="174.81" width="202.51" height="120.46" fill="#fff" stroke="#231f20" stroke-miterlimit="10"></rect>
      <rect x="337.94" y="174.81" width="202.51" height="20.95" fill="#000000" stroke="#231f20" stroke-miterlimit="10"></rect>
      <rect x="347.25" y="203.6" width="53.36" height="48.28" fill="#fff" stroke="#231f20" stroke-miterlimit="10"></rect>
      <circle cx="389.18" cy="215.67" r="5.72" fill="#000000" stroke="#231f20" stroke-miterlimit="10"></circle>
      <path d="M347.25,225.17v26.71s53.36,0,53.36,0v-25.61c-5.01-1.04-12.57-.69-19.69,7.18,0,0-8.26,11.43-17.15,1.91,0,0-9.01-10.22-16.52-10.19Z" fill="#5ca0c3" stroke="#231f20" stroke-miterlimit="10"></path>
      <rect x="437.31" y="204.24" width="92.41" height="4.49" fill="#e3e4e5" stroke="#231f20" stroke-miterlimit="10"></rect>
      <rect x="437.31" y="215.03" width="92.41" height="4.49" fill="#e3e4e5" stroke="#231f20" stroke-miterlimit="10"></rect>
      <rect x="409.51" y="225.82" width="120.21" height="4.49" fill="#e3e4e5" stroke="#231f20" stroke-miterlimit="10"></rect>
      <rect x="409.51" y="236.6" width="120.21" height="4.49" fill="#e3e4e5" stroke="#231f20" stroke-miterlimit="10"></rect>
      <rect x="409.51" y="247.39" width="120.21" height="4.49" fill="#e3e4e5" stroke="#231f20" stroke-miterlimit="10"></rect>
      <rect x="347.25" y="260.73" width="120.21" height="4.49" fill="#e3e4e5" stroke="#231f20" stroke-miterlimit="10"></rect>
      <rect x="347.25" y="271.52" width="120.21" height="4.49" fill="#e3e4e5" stroke="#231f20" stroke-miterlimit="10"></rect>
      <rect x="347.25" y="282.3" width="120.21" height="4.49" fill="#e3e4e5" stroke="#231f20" stroke-miterlimit="10"></rect>
      <path d="M478.37,257.94s-.19,1.13,1.06,5.76l2.93,10.61,2.87,10.37,2.87-10.37,3.2-11.59c.8-3.81-.23-4.78-.23-4.78h9.79s-1.12,.69-2.26,3.21l3.64,13.16,2.87,10.37,2.87-10.37,3.2-11.59c.8-3.81-.23-4.78-.23-4.78h9.79s-1.83,1.13-3.18,5.76l-2.93,10.61-3.97,14.34h-6.65s-3.97-14.34-3.97-14.34l-2.65-9.58-2.65,9.58-3.97,14.34h-6.65s-3.97-14.34-3.97-14.34l-3.2-11.59c-1.14-3.81-1.84-4.78-1.84-4.78h3.25Z" fill="#fff" stroke="#231f20" stroke-miterlimit="10"></path>
    </g>
    <rect x="273.59" y="63.94" width="112" height="64" rx="9.71" ry="9.71" fill="#fff" stroke="#231f20" stroke-miterlimit="10"></rect>
    <g>
      <path d="M298.3,89.61v-3.34c1.22-.16,2.12-.61,2.7-1.36,.58-.75,.87-1.66,.87-2.73h-3.95v-7.34h7.43v6.77c0,2.32-.64,4.18-1.93,5.57-1.29,1.4-2.99,2.2-5.13,2.42Zm-10.87,0v-3.34c1.22-.16,2.13-.61,2.73-1.36,.6-.75,.89-1.66,.89-2.73h-3.95v-7.34h7.39v6.77c0,2.32-.63,4.18-1.9,5.57-1.27,1.4-2.99,2.2-5.15,2.42Z" fill="#000000" stroke="#231f20" stroke-miterlimit="10"></path>
      <line x1="377.24" y1="76.59" x2="314.18" y2="76.59" fill="none" stroke="#231f20" stroke-linecap="round" stroke-linejoin="round"></line>
      <line x1="377.24" y1="85.94" x2="314.18" y2="85.94" fill="none" stroke="#231f20" stroke-linecap="round" stroke-linejoin="round"></line>
      <line x1="377.24" y1="95.3" x2="288.18" y2="95.3" fill="none" stroke="#231f20" stroke-linecap="round" stroke-linejoin="round"></line>
      <line x1="377.24" y1="104.66" x2="288.18" y2="104.66" fill="none" stroke="#231f20" stroke-linecap="round" stroke-linejoin="round"></line>
      <line x1="377.24" y1="114.02" x2="288.18" y2="114.02" fill="none" stroke="#231f20" stroke-linecap="round" stroke-linejoin="round"></line>
    </g>
  </g>
  <g>
    <path d="M580.39,308.54s.68-15.6-1.03-23.32c-.29-1.3-.9-2.51-1.79-3.5-3.49-3.93-14.33-15.9-23.54-23.63,0,0,8.63-1.79,16.78,3.12v5.27s1.8-4.19,1.8-4.19c0,0,10.07,5.99,9.1,22.41l-.48,15.81-.84,8.03Z" fill="#56c96e" stroke="#231f20" stroke-miterlimit="10"></path>
    <path d="M563.31,321.54c0,7.57,5.42,14.05,12.87,15.39h0c8.51,1.52,16.64-4.15,18.16-12.66,.16-.9,.24-1.81,.24-2.73,0-3.82-1.39-7.52-3.93-10.38l-16.94-.12-6.32-.05c-2.63,2.88-4.09,6.64-4.08,10.54Z" fill="#5ca0c3" stroke="#231f20" stroke-miterlimit="10"></path>
    <path d="M582.25,311.11v-1.42c-.02-1.87,.72-3.66,2.05-4.97l23.69-23.28s-11.39-1.44-16.82,3.1l-.11,6.19-1.88-4.87s-10.18,4.32-9.29,25.23l2.37,.02Z" fill="#56c96e" stroke="#231f20" stroke-miterlimit="10"></path>
    <path d="M576.68,311.07l-1.3-10.6c-.09-.75-.42-1.46-.94-2.02-3.39-3.63-16.81-17.85-24.6-24.3,0,0,8.99-.84,17.01,3.23l.24,5.63,1.8-4.32s8.75,4.92,8.99,22.03v10.33h-1.2Z" fill="#56c96e" stroke="#231f20" stroke-miterlimit="10"></path>
  </g>
</svg>
